<svg class="main-svg" xmlns="http://www.w3.org/2000/svg" xmlns:xlink="http://www.w3.org/1999/xlink" width="800" height="600" style="" viewBox="0 0 800 600"><rect x="0" y="0" width="800" height="600" style="fill: rgb(255, 255, 255); fill-opacity: 1;"/><defs id="defs-401c26"><g class="clips"/><g class="gradients"/><g class="patterns"/></defs><g class="bglayer"/><g class="layer-below"><g class="imagelayer"/><g class="shapelayer"/></g><g class="cartesianlayer"/><g class="polarlayer"/><g class="smithlayer"/><g class="ternarylayer"/><g class="geolayer"/><g class="funnelarealayer"/><g class="pielayer"><g class="trace" stroke-linejoin="round" style="opacity: 1;"><g class="slice"><path class="surface" d="M376.19379766456336,343.1227656170564a84,84 0 0 0 -77.19379766456335,-117.12276561705642l0,-126a210,210 0 0 1 192.98449416140835,292.80691404264104Z" style="pointer-events: none; fill: rgb(141, 211, 199); fill-opacity: 1; stroke-width: 2; stroke: rgb(255, 255, 255); stroke-opacity: 1;"/><g class="slicetext"><text data-notex="1" class="slicetext" transform="translate(421.73921837576563,220.4042901486449)" text-anchor="middle" x="0" y="0" style="font-family: 'Open Sans', verdana, arial, sans-serif; font-size: 9px; fill: rgb(68, 68, 68); fill-opacity: 1; white-space: pre;"><tspan class="line" dy="0em" x="0" y="0">pancreas-geomx-ufl</tspan><tspan class="line" dy="1.3em" x="0" y="0">31.5%</tspan><tspan class="line" dy="2.6em" x="0" y="0">(14,891,875)</tspan></text></g></g><g class="slice"><path class="surface" d="M299,226a84,84 0 0 0 -83.37376485837719,94.23793599022919l-125.06064728756577,15.35690398534378a210,210 0 0 1 208.43441214594296,-235.59483997557297Z" style="pointer-events: none; fill: rgb(255, 255, 179); fill-opacity: 1; stroke-width: 2; stroke: rgb(255, 255, 255); stroke-opacity: 1;"/><g class="slicetext"><text data-notex="1" class="slicetext" transform="translate(188.90297680344293,203.89525919163123)" text-anchor="middle" x="0" y="0" style="font-family: 'Open Sans', verdana, arial, sans-serif; font-size: 9px; fill: rgb(68, 68, 68); fill-opacity: 1; white-space: pre;"><tspan class="line" dy="0em" x="0" y="0">colon-cycif-sorgerlab</tspan><tspan class="line" dy="1.3em" x="0" y="0">26.9%</tspan><tspan class="line" dy="2.6em" x="0" y="0">(12,758,141)</tspan></text></g></g><g class="slice"><path class="surface" d="M215.62623514162283,320.2379359902292a84,84 0 0 0 61.36535250499499,70.82765341540885l-33.01261853007329,121.59838410845705a210,210 0 0 1 -153.41338126248746,-177.06913353852212Z" style="pointer-events: none; fill: rgb(190, 186, 218); fill-opacity: 1; stroke-width: 2; stroke: rgb(255, 255, 255); stroke-opacity: 1;"/><g class="slicetext"><text data-notex="1" class="slicetext" transform="translate(187.899255434751,397.5579189275333)" text-anchor="middle" x="0" y="0" style="font-family: 'Open Sans', verdana, arial, sans-serif; font-size: 9px; fill: rgb(68, 68, 68); fill-opacity: 1; white-space: pre;"><tspan class="line" dy="0em" x="0" y="0">lymphnode-codex-yale</tspan><tspan class="line" dy="1.3em" x="0" y="0">18.8%</tspan><tspan class="line" dy="2.6em" x="0" y="0">(8,918,845)</tspan></text></g></g><g class="slice"><path class="surface" d="M276.9915876466178,391.06558940563804a84,84 0 0 0 29.149824084040894,2.6302900538264566l10.71211759598805,125.54381918919674a210,210 0 0 1 -72.87456021010223,-6.575725134566142Z" style="pointer-events: none; fill: rgb(251, 128, 114); fill-opacity: 1; stroke-width: 2; stroke: rgb(255, 255, 255); stroke-opacity: 1;"/><g class="slicetext"><text data-notex="1" class="slicetext" transform="translate(276.101917412555,466.95438445863925)rotate(-84.84396581539113)" text-anchor="middle" x="0" y="0" style="font-family: 'Open Sans', verdana, arial, sans-serif; font-size: 9px; fill: rgb(68, 68, 68); fill-opacity: 1; white-space: pre;"><tspan class="line" dy="0em" x="0" y="0">colon-xenium-stanford</tspan><tspan class="line" dy="1.3em" x="0" y="0">5.57%</tspan><tspan class="line" dy="2.6em" x="0" y="0">(2,639,215)</tspan></text></g></g><g class="slice"><path class="surface" d="M306.1414117306587,393.6958794594645a84,84 0 0 0 26.993964951779503,-6.944488209871804l51.2030650236573,115.12708687438904a210,210 0 0 1 -67.48491237944876,17.36122052467951Z" style="pointer-events: none; fill: rgb(128, 177, 211); fill-opacity: 1; stroke-width: 2; stroke: rgb(255, 255, 255); stroke-opacity: 1;"/><g class="slicetext"><text data-notex="1" class="slicetext" transform="translate(346.7379434602107,460.64270138683366)rotate(75.57289015283288)" text-anchor="middle" x="0" y="0" style="font-family: 'Open Sans', verdana, arial, sans-serif; font-size: 9px; fill: rgb(68, 68, 68); fill-opacity: 1; white-space: pre;"><tspan class="line" dy="0em" x="0" y="0">intestine-codex-stanford</tspan><tspan class="line" dy="1.3em" x="0" y="0">5.31%</tspan><tspan class="line" dy="2.6em" x="0" y="0">(2,512,185)</tspan></text></g></g><g class="slice"><path class="surface" d="M333.1353766824382,386.7513912495927a84,84 0 0 0 13.701162624024528,-7.703107366636937l71.75480895969409,103.57242582443362a210,210 0 0 1 -34.25290656006132,19.25776841659234Z" style="pointer-events: none; fill: rgb(253, 180, 98); fill-opacity: 1; stroke-width: 2; stroke: rgb(255, 255, 255); stroke-opacity: 1;"/><g class="slicetext"><text data-notex="1" class="slicetext" transform="translate(391.90620153092397,461.1720720146919)scale(0.7928893255173353)rotate(60.654308548500694)" text-anchor="middle" x="0" y="0" style="font-family: 'Open Sans', verdana, arial, sans-serif; font-size: 9px; fill: rgb(68, 68, 68); fill-opacity: 1; white-space: pre;"><tspan class="line" dy="0em" x="0" y="0">oralcavity-codex-czi</tspan><tspan class="line" dy="1.3em" x="0" y="0">2.98%</tspan><tspan class="line" dy="2.6em" x="0" y="0">(1,412,189)</tspan></text></g></g><g class="slice"><path class="surface" d="M346.8365393064627,379.04828388295573a84,84 0 0 0 10.456639868053578,-8.567664989563639l87.43976876177446,90.72092834008816a210,210 0 0 1 -26.141599670133942,21.419162473909097Z" style="pointer-events: none; fill: rgb(179, 222, 105); fill-opacity: 1; stroke-width: 2; stroke: rgb(255, 255, 255); stroke-opacity: 1;"/><g class="slicetext"><text data-notex="1" class="slicetext" transform="translate(414.78056333006464,442.1823159434303)scale(0.6647414864834754)rotate(50.67046711542605)" text-anchor="middle" x="0" y="0" style="font-family: 'Open Sans', verdana, arial, sans-serif; font-size: 9px; fill: rgb(68, 68, 68); fill-opacity: 1; white-space: pre;"><tspan class="line" dy="0em" x="0" y="0">bonemarrow-codex-chop</tspan><tspan class="line" dy="1.3em" x="0" y="0">2.56%</tspan><tspan class="line" dy="2.6em" x="0" y="0">(1,214,088)</tspan></text></g></g><g class="slice"><path class="surface" d="M357.2931791745163,370.48061889339215a84,84 0 0 0 8.914939740343357,-10.091445930084985l100.8121783722895,75.58375944496069a210,210 0 0 1 -22.287349350858392,25.22861482521246Z" style="pointer-events: none; fill: rgb(252, 205, 229); fill-opacity: 1; stroke-width: 2; stroke: rgb(255, 255, 255); stroke-opacity: 1;"/><g class="slicetext"><text data-notex="1" class="slicetext" transform="translate(440.9472645175384,426.8092653845789)scale(0.7398769510542653)rotate(41.45787781986104)" text-anchor="middle" x="0" y="0" style="font-family: 'Open Sans', verdana, arial, sans-serif; font-size: 9px; fill: rgb(68, 68, 68); fill-opacity: 1; white-space: pre;"><tspan class="line" dy="0em" x="0" y="0">lung-codex-urmc</tspan><tspan class="line" dy="1.3em" x="0" y="0">2.55%</tspan><tspan class="line" dy="2.6em" x="0" y="0">(1,209,309)</tspan></text></g></g><g class="slice"><path class="surface" d="M366.20811891485965,360.38917296330715a84,84 0 0 0 6.034628469311156,-9.261324057504408l109.86412107625623,61.69177335870408a210,210 0 0 1 -15.086571173277889,23.15331014376102Z" style="pointer-events: none; fill: rgb(217, 217, 217); fill-opacity: 1; stroke-width: 2; stroke: rgb(255, 255, 255); stroke-opacity: 1;"/><g class="slicetext"><text data-notex="1" class="slicetext" transform="translate(459.5636544023239,407.99725286722054)scale(0.6380050930169172)rotate(33.08804723074559)" text-anchor="middle" x="0" y="0" style="font-family: 'Open Sans', verdana, arial, sans-serif; font-size: 9px; fill: rgb(68, 68, 68); fill-opacity: 1; white-space: pre;"><tspan class="line" dy="0em" x="0" y="0">spleen-codex-ufl</tspan><tspan class="line" dy="1.3em" x="0" y="0">2.1%</tspan><tspan class="line" dy="2.6em" x="0" y="0">(992,398)</tspan></text></g></g><g class="slice"><path class="surface" d="M372.2427473841708,351.1278489058027a84,84 0 0 0 2.4584642989856436,-4.7228142306106635l113.55181752473469,54.607552012788084a210,210 0 0 1 -6.1461607474641085,11.807035576526658Z" style="pointer-events: none; fill: rgb(188, 128, 189); fill-opacity: 1; stroke-width: 2; stroke: rgb(255, 255, 255); stroke-opacity: 1;"/><g class="slicetext"><text data-notex="1" class="slicetext" transform="translate(465.6168352371902,393.78331831760306)scale(0.3006810758383225)rotate(27.499263350131514)" text-anchor="middle" x="0" y="0" style="font-family: 'Open Sans', verdana, arial, sans-serif; font-size: 9px; fill: rgb(68, 68, 68); fill-opacity: 1; white-space: pre;"><tspan class="line" dy="0em" x="0" y="0">maternalfetalinterface-mibitof-stanford</tspan><tspan class="line" dy="1.3em" x="0" y="0">1.01%</tspan><tspan class="line" dy="2.6em" x="0" y="0">(477,747)</tspan></text></g></g><g class="slice"><path class="surface" d="M374.7012116831565,346.40503467519204a84,84 0 0 0 0.8201726046154363,-1.7571235306059236l114.78207643165784,51.9718667168792a210,210 0 0 1 -2.0504315115385907,4.392808826514809Z" style="pointer-events: none; fill: rgb(204, 235, 197); fill-opacity: 1; stroke-width: 2; stroke: rgb(255, 255, 255); stroke-opacity: 1;"/><g class="slicetext"><text data-notex="1" class="slicetext" transform="translate(484.57598779393703,395.3414738380656)scale(0.13329811134051797)rotate(25.02175651457827)" text-anchor="middle" x="0" y="0" style="font-family: 'Open Sans', verdana, arial, sans-serif; font-size: 9px; fill: rgb(68, 68, 68); fill-opacity: 1; white-space: pre;"><tspan class="line" dy="0em" x="0" y="0">tonsil-codex-stanford</tspan><tspan class="line" dy="1.3em" x="0" y="0">0.367%</tspan><tspan class="line" dy="2.6em" x="0" y="0">(173,968)</tspan></text></g></g><g class="slice"><path class="surface" d="M375.5213842877719,344.64791114458615a84,84 0 0 0 0.25198723707131876,-0.5619987362554412l115.16005728726482,51.12886861249604a210,210 0 0 1 -0.6299680926782969,1.4049968406386029Z" style="pointer-events: none; fill: rgb(255, 237, 111); fill-opacity: 1; stroke-width: 2; stroke: rgb(255, 255, 255); stroke-opacity: 1;"/><g class="slicetext"><text data-notex="1" class="slicetext" transform="translate(488.85686413833076,394.70898056974744)scale(0.04388663072213822)rotate(24.15036096688334)" text-anchor="middle" x="0" y="0" style="font-family: 'Open Sans', verdana, arial, sans-serif; font-size: 9px; fill: rgb(68, 68, 68); fill-opacity: 1; white-space: pre;"><tspan class="line" dy="0em" x="0" y="0">skin-confocal-sorgerlab</tspan><tspan class="line" dy="1.3em" x="0" y="0">0.117%</tspan><tspan class="line" dy="2.6em" x="0" y="0">(55,255)</tspan></text></g></g><g class="slice"><path class="surface" d="M375.77337152484324,344.08591240833067a84,84 0 0 0 0.2169914991350197,-0.4929964670783818l115.48554453596735,50.389373911878465a210,210 0 0 1 -0.5424787478375492,1.2324911676959545Z" style="pointer-events: none; fill: rgb(215, 239, 235); fill-opacity: 1; stroke-width: 2; stroke: rgb(255, 255, 255); stroke-opacity: 1;"/><g class="slicetext"><text data-notex="1" class="slicetext" transform="translate(490.20932157366343,393.7925293597683)scale(0.03870390856986686)rotate(23.75660725089864)" text-anchor="middle" x="0" y="0" style="font-family: 'Open Sans', verdana, arial, sans-serif; font-size: 9px; fill: rgb(68, 68, 68); fill-opacity: 1; white-space: pre;"><tspan class="line" dy="0em" x="0" y="0">skin-celldive-ge</tspan><tspan class="line" dy="1.3em" x="0" y="0">0.102%</tspan><tspan class="line" dy="2.6em" x="0" y="0">(48,323)</tspan></text></g></g><g class="slice"><path class="surface" d="M375.99036302397826,343.59291594125233a84,84 0 0 0 0.20343464058515792,-0.47015032419603814l115.79069649684509,49.68414842558441a210,210 0 0 1 -0.5085866014628948,1.1753758104900953Z" style="pointer-events: none; fill: rgb(255, 255, 255); fill-opacity: 1; stroke-width: 2; stroke: rgb(255, 255, 255); stroke-opacity: 1;"/><g class="slicetext"><text data-notex="1" class="slicetext" transform="translate(490.0169988211783,392.306935483033)scale(0.03653704753906291)rotate(23.398196255351763)" text-anchor="middle" x="0" y="0" style="font-family: 'Open Sans', verdana, arial, sans-serif; font-size: 9px; fill: rgb(68, 68, 68); fill-opacity: 1; white-space: pre;"><tspan class="line" dy="0em" x="0" y="0">esophagus-codex-stanford</tspan><tspan class="line" dy="1.3em" x="0" y="0">0.0971%</tspan><tspan class="line" dy="2.6em" x="0" y="0">(45,958)</tspan></text></g></g></g></g><g class="iciclelayer"/><g class="treemaplayer"/><g class="sunburstlayer"/><g class="glimages"/><defs id="topdefs-401c26"><g class="clips"/><clipPath id="legend401c26"><rect width="248" height="276" x="0" y="0"/></clipPath></defs><g class="layer-above"><g class="imagelayer"/><g class="shapelayer"/></g><g class="infolayer"><g class="legend" pointer-events="all" transform="translate(539.9000000000001,172)"><rect class="bg" shape-rendering="crispEdges" style="stroke: rgb(68, 68, 68); stroke-opacity: 1; fill: rgb(255, 255, 255); fill-opacity: 1; stroke-width: 0px;" width="248" height="276" x="0" y="0"/><g class="scrollbox" transform="" clip-path="url(#legend401c26)"><g class="groups"><g class="traces" transform="translate(0,14.5)" style="opacity: 1;"><text class="legendtext" text-anchor="start" x="40" y="4.680000000000001" style="font-family: 'Open Sans', verdana, arial, sans-serif; font-size: 12px; fill: rgb(42, 63, 95); fill-opacity: 1; white-space: pre;">pancreas-geomx-ufl</text><g class="layers" style="opacity: 1;"><g class="legendfill"/><g class="legendlines"/><g class="legendsymbols"><g class="legendpoints"><path class="legendpie" d="M6,6H-6V-6H6Z" transform="translate(20,0)" style="fill: rgb(141, 211, 199); fill-opacity: 1; stroke-width: 2; stroke: rgb(255, 255, 255); stroke-opacity: 1;"/></g></g></g><rect class="legendtoggle" x="0" y="-9.5" width="242.09375" height="19" style="fill: rgb(0, 0, 0); fill-opacity: 0;"/></g><g class="traces" transform="translate(0,33.5)" style="opacity: 1;"><text class="legendtext" text-anchor="start" x="40" y="4.680000000000001" style="font-family: 'Open Sans', verdana, arial, sans-serif; font-size: 12px; fill: rgb(42, 63, 95); fill-opacity: 1; white-space: pre;">colon-cycif-sorgerlab</text><g class="layers" style="opacity: 1;"><g class="legendfill"/><g class="legendlines"/><g class="legendsymbols"><g class="legendpoints"><path class="legendpie" d="M6,6H-6V-6H6Z" transform="translate(20,0)" style="fill: rgb(255, 255, 179); fill-opacity: 1; stroke-width: 2; stroke: rgb(255, 255, 255); stroke-opacity: 1;"/></g></g></g><rect class="legendtoggle" x="0" y="-9.5" width="242.09375" height="19" style="fill: rgb(0, 0, 0); fill-opacity: 0;"/></g><g class="traces" transform="translate(0,52.5)" style="opacity: 1;"><text class="legendtext" text-anchor="start" x="40" y="4.680000000000001" style="font-family: 'Open Sans', verdana, arial, sans-serif; font-size: 12px; fill: rgb(42, 63, 95); fill-opacity: 1; white-space: pre;">lymphnode-codex-yale</text><g class="layers" style="opacity: 1;"><g class="legendfill"/><g class="legendlines"/><g class="legendsymbols"><g class="legendpoints"><path class="legendpie" d="M6,6H-6V-6H6Z" transform="translate(20,0)" style="fill: rgb(190, 186, 218); fill-opacity: 1; stroke-width: 2; stroke: rgb(255, 255, 255); stroke-opacity: 1;"/></g></g></g><rect class="legendtoggle" x="0" y="-9.5" width="242.09375" height="19" style="fill: rgb(0, 0, 0); fill-opacity: 0;"/></g><g class="traces" transform="translate(0,71.5)" style="opacity: 1;"><text class="legendtext" text-anchor="start" x="40" y="4.680000000000001" style="font-family: 'Open Sans', verdana, arial, sans-serif; font-size: 12px; fill: rgb(42, 63, 95); fill-opacity: 1; white-space: pre;">colon-xenium-stanford</text><g class="layers" style="opacity: 1;"><g class="legendfill"/><g class="legendlines"/><g class="legendsymbols"><g class="legendpoints"><path class="legendpie" d="M6,6H-6V-6H6Z" transform="translate(20,0)" style="fill: rgb(251, 128, 114); fill-opacity: 1; stroke-width: 2; stroke: rgb(255, 255, 255); stroke-opacity: 1;"/></g></g></g><rect class="legendtoggle" x="0" y="-9.5" width="242.09375" height="19" style="fill: rgb(0, 0, 0); fill-opacity: 0;"/></g><g class="traces" transform="translate(0,90.5)" style="opacity: 1;"><text class="legendtext" text-anchor="start" x="40" y="4.680000000000001" style="font-family: 'Open Sans', verdana, arial, sans-serif; font-size: 12px; fill: rgb(42, 63, 95); fill-opacity: 1; white-space: pre;">intestine-codex-stanford</text><g class="layers" style="opacity: 1;"><g class="legendfill"/><g class="legendlines"/><g class="legendsymbols"><g class="legendpoints"><path class="legendpie" d="M6,6H-6V-6H6Z" transform="translate(20,0)" style="fill: rgb(128, 177, 211); fill-opacity: 1; stroke-width: 2; stroke: rgb(255, 255, 255); stroke-opacity: 1;"/></g></g></g><rect class="legendtoggle" x="0" y="-9.5" width="242.09375" height="19" style="fill: rgb(0, 0, 0); fill-opacity: 0;"/></g><g class="traces" transform="translate(0,109.5)" style="opacity: 1;"><text class="legendtext" text-anchor="start" x="40" y="4.680000000000001" style="font-family: 'Open Sans', verdana, arial, sans-serif; font-size: 12px; fill: rgb(42, 63, 95); fill-opacity: 1; white-space: pre;">oralcavity-codex-czi</text><g class="layers" style="opacity: 1;"><g class="legendfill"/><g class="legendlines"/><g class="legendsymbols"><g class="legendpoints"><path class="legendpie" d="M6,6H-6V-6H6Z" transform="translate(20,0)" style="fill: rgb(253, 180, 98); fill-opacity: 1; stroke-width: 2; stroke: rgb(255, 255, 255); stroke-opacity: 1;"/></g></g></g><rect class="legendtoggle" x="0" y="-9.5" width="242.09375" height="19" style="fill: rgb(0, 0, 0); fill-opacity: 0;"/></g><g class="traces" transform="translate(0,128.5)" style="opacity: 1;"><text class="legendtext" text-anchor="start" x="40" y="4.680000000000001" style="font-family: 'Open Sans', verdana, arial, sans-serif; font-size: 12px; fill: rgb(42, 63, 95); fill-opacity: 1; white-space: pre;">bonemarrow-codex-chop</text><g class="layers" style="opacity: 1;"><g class="legendfill"/><g class="legendlines"/><g class="legendsymbols"><g class="legendpoints"><path class="legendpie" d="M6,6H-6V-6H6Z" transform="translate(20,0)" style="fill: rgb(179, 222, 105); fill-opacity: 1; stroke-width: 2; stroke: rgb(255, 255, 255); stroke-opacity: 1;"/></g></g></g><rect class="legendtoggle" x="0" y="-9.5" width="242.09375" height="19" style="fill: rgb(0, 0, 0); fill-opacity: 0;"/></g><g class="traces" transform="translate(0,147.5)" style="opacity: 1;"><text class="legendtext" text-anchor="start" x="40" y="4.680000000000001" style="font-family: 'Open Sans', verdana, arial, sans-serif; font-size: 12px; fill: rgb(42, 63, 95); fill-opacity: 1; white-space: pre;">lung-codex-urmc</text><g class="layers" style="opacity: 1;"><g class="legendfill"/><g class="legendlines"/><g class="legendsymbols"><g class="legendpoints"><path class="legendpie" d="M6,6H-6V-6H6Z" transform="translate(20,0)" style="fill: rgb(252, 205, 229); fill-opacity: 1; stroke-width: 2; stroke: rgb(255, 255, 255); stroke-opacity: 1;"/></g></g></g><rect class="legendtoggle" x="0" y="-9.5" width="242.09375" height="19" style="fill: rgb(0, 0, 0); fill-opacity: 0;"/></g><g class="traces" transform="translate(0,166.5)" style="opacity: 1;"><text class="legendtext" text-anchor="start" x="40" y="4.680000000000001" style="font-family: 'Open Sans', verdana, arial, sans-serif; font-size: 12px; fill: rgb(42, 63, 95); fill-opacity: 1; white-space: pre;">spleen-codex-ufl</text><g class="layers" style="opacity: 1;"><g class="legendfill"/><g class="legendlines"/><g class="legendsymbols"><g class="legendpoints"><path class="legendpie" d="M6,6H-6V-6H6Z" transform="translate(20,0)" style="fill: rgb(217, 217, 217); fill-opacity: 1; stroke-width: 2; stroke: rgb(255, 255, 255); stroke-opacity: 1;"/></g></g></g><rect class="legendtoggle" x="0" y="-9.5" width="242.09375" height="19" style="fill: rgb(0, 0, 0); fill-opacity: 0;"/></g><g class="traces" transform="translate(0,185.5)" style="opacity: 1;"><text class="legendtext" text-anchor="start" x="40" y="4.680000000000001" style="font-family: 'Open Sans', verdana, arial, sans-serif; font-size: 12px; fill: rgb(42, 63, 95); fill-opacity: 1; white-space: pre;">maternalfetalinterface-mibitof-stanford</text><g class="layers" style="opacity: 1;"><g class="legendfill"/><g class="legendlines"/><g class="legendsymbols"><g class="legendpoints"><path class="legendpie" d="M6,6H-6V-6H6Z" transform="translate(20,0)" style="fill: rgb(188, 128, 189); fill-opacity: 1; stroke-width: 2; stroke: rgb(255, 255, 255); stroke-opacity: 1;"/></g></g></g><rect class="legendtoggle" x="0" y="-9.5" width="242.09375" height="19" style="fill: rgb(0, 0, 0); fill-opacity: 0;"/></g><g class="traces" transform="translate(0,204.5)" style="opacity: 1;"><text class="legendtext" text-anchor="start" x="40" y="4.680000000000001" style="font-family: 'Open Sans', verdana, arial, sans-serif; font-size: 12px; fill: rgb(42, 63, 95); fill-opacity: 1; white-space: pre;">tonsil-codex-stanford</text><g class="layers" style="opacity: 1;"><g class="legendfill"/><g class="legendlines"/><g class="legendsymbols"><g class="legendpoints"><path class="legendpie" d="M6,6H-6V-6H6Z" transform="translate(20,0)" style="fill: rgb(204, 235, 197); fill-opacity: 1; stroke-width: 2; stroke: rgb(255, 255, 255); stroke-opacity: 1;"/></g></g></g><rect class="legendtoggle" x="0" y="-9.5" width="242.09375" height="19" style="fill: rgb(0, 0, 0); fill-opacity: 0;"/></g><g class="traces" transform="translate(0,223.5)" style="opacity: 1;"><text class="legendtext" text-anchor="start" x="40" y="4.680000000000001" style="font-family: 'Open Sans', verdana, arial, sans-serif; font-size: 12px; fill: rgb(42, 63, 95); fill-opacity: 1; white-space: pre;">skin-confocal-sorgerlab</text><g class="layers" style="opacity: 1;"><g class="legendfill"/><g class="legendlines"/><g class="legendsymbols"><g class="legendpoints"><path class="legendpie" d="M6,6H-6V-6H6Z" transform="translate(20,0)" style="fill: rgb(255, 237, 111); fill-opacity: 1; stroke-width: 2; stroke: rgb(255, 255, 255); stroke-opacity: 1;"/></g></g></g><rect class="legendtoggle" x="0" y="-9.5" width="242.09375" height="19" style="fill: rgb(0, 0, 0); fill-opacity: 0;"/></g><g class="traces" transform="translate(0,242.5)" style="opacity: 1;"><text class="legendtext" text-anchor="start" x="40" y="4.680000000000001" style="font-family: 'Open Sans', verdana, arial, sans-serif; font-size: 12px; fill: rgb(42, 63, 95); fill-opacity: 1; white-space: pre;">skin-celldive-ge</text><g class="layers" style="opacity: 1;"><g class="legendfill"/><g class="legendlines"/><g class="legendsymbols"><g class="legendpoints"><path class="legendpie" d="M6,6H-6V-6H6Z" transform="translate(20,0)" style="fill: rgb(215, 239, 235); fill-opacity: 1; stroke-width: 2; stroke: rgb(255, 255, 255); stroke-opacity: 1;"/></g></g></g><rect class="legendtoggle" x="0" y="-9.5" width="242.09375" height="19" style="fill: rgb(0, 0, 0); fill-opacity: 0;"/></g><g class="traces" transform="translate(0,261.5)" style="opacity: 1;"><text class="legendtext" text-anchor="start" x="40" y="4.680000000000001" style="font-family: 'Open Sans', verdana, arial, sans-serif; font-size: 12px; fill: rgb(42, 63, 95); fill-opacity: 1; white-space: pre;">esophagus-codex-stanford</text><g class="layers" style="opacity: 1;"><g class="legendfill"/><g class="legendlines"/><g class="legendsymbols"><g class="legendpoints"><path class="legendpie" d="M6,6H-6V-6H6Z" transform="translate(20,0)" style="fill: rgb(255, 255, 255); fill-opacity: 1; stroke-width: 2; stroke: rgb(255, 255, 255); stroke-opacity: 1;"/></g></g></g><rect class="legendtoggle" x="0" y="-9.5" width="242.09375" height="19" style="fill: rgb(0, 0, 0); fill-opacity: 0;"/></g></g></g><rect class="scrollbar" rx="20" ry="3" width="0" height="0" style="fill: rgb(128, 139, 164); fill-opacity: 1;" x="0" y="0"/></g><g class="g-gtitle"><text class="gtitle" x="400" y="50" text-anchor="middle" dy="0em" style="opacity: 1; font-family: 'Open Sans', verdana, arial, sans-serif; font-size: 17px; fill: rgb(42, 63, 95); fill-opacity: 1; white-space: pre;">Distribution of Total Cells per Tissue Type</text></g><g class="annotation" data-index="0" style="opacity: 1;"><g class="annotation-text-g" transform="rotate(0,299,310)"><g class="cursor-pointer" transform="translate(257,279)"><rect class="bg" x="0.5" y="0.5" width="83" height="62" style="stroke-width: 1px; stroke: rgb(0, 0, 0); stroke-opacity: 0; fill: rgb(0, 0, 0); fill-opacity: 0;"/><text class="annotation-text" text-anchor="middle" x="42.0390625" y="16" style="font-family: 'Open Sans', verdana, arial, sans-serif; font-size: 16px; fill: rgb(0, 0, 0); fill-opacity: 1; white-space: pre;"><tspan class="line" dy="0em" x="42.0390625" y="16">Total</tspan><tspan class="line" dy="1.3em" x="42.0390625" y="16">47,349,496</tspan><tspan class="line" dy="2.6em" x="42.0390625" y="16">Cells</tspan></text></g></g></g></g></svg>