<?xml version="1.0" encoding="utf-8" standalone="no"?>
<!DOCTYPE svg PUBLIC "-//W3C//DTD SVG 1.1//EN"
  "http://www.w3.org/Graphics/SVG/1.1/DTD/svg11.dtd">
<svg xmlns:xlink="http://www.w3.org/1999/xlink" width="1139.831225pt" height="770.741813pt" viewBox="0 0 1139.831225 770.741813" xmlns="http://www.w3.org/2000/svg" version="1.1">
 <metadata>
  <rdf:RDF xmlns:dc="http://purl.org/dc/elements/1.1/" xmlns:cc="http://creativecommons.org/ns#" xmlns:rdf="http://www.w3.org/1999/02/22-rdf-syntax-ns#">
   <cc:Work>
    <dc:type rdf:resource="http://purl.org/dc/dcmitype/StillImage"/>
    <dc:date>2025-08-04T14:49:44.015111</dc:date>
    <dc:format>image/svg+xml</dc:format>
    <dc:creator>
     <cc:Agent>
      <dc:title>Matplotlib v3.10.3, https://matplotlib.org/</dc:title>
     </cc:Agent>
    </dc:creator>
   </cc:Work>
  </rdf:RDF>
 </metadata>
 <defs>
  <style type="text/css">*{stroke-linejoin: round; stroke-linecap: butt}</style>
 </defs>
 <g id="figure_1">
  <g id="patch_1">
   <path d="M 0 770.741813 
L 1139.831225 770.741813 
L 1139.831225 0 
L 0 0 
z
" style="fill: #ffffff"/>
  </g>
  <g id="axes_1">
   <g id="patch_2">
    <path d="M 78.265625 621.182437 
L 974.409625 621.182437 
L 974.409625 49.598438 
L 78.265625 49.598438 
z
" style="fill: #ffffff"/>
   </g>
   <g id="matplotlib.axis_1">
    <g id="xtick_1">
     <g id="text_1">
      <text style="font-size: 10px; font-family: 'Arial', 'DejaVu Sans', 'Liberation Sans', 'Bitstream Vera Sans', sans-serif; fill: #262626" transform="translate(170.6394 697.2215) rotate(-90)">epithelial cell</text>
     </g>
    </g>
    <g id="xtick_2">
     <g id="text_2">
      <text style="font-size: 10px; font-family: 'Arial', 'DejaVu Sans', 'Liberation Sans', 'Bitstream Vera Sans', sans-serif; fill: #262626" transform="translate(349.8682 721.063688) rotate(-90)">mesenchymal cell</text>
     </g>
    </g>
    <g id="xtick_3">
     <g id="text_3">
      <text style="font-size: 10px; font-family: 'Arial', 'DejaVu Sans', 'Liberation Sans', 'Bitstream Vera Sans', sans-serif; fill: #262626" transform="translate(529.097 692.155875) rotate(-90)">immune cell</text>
     </g>
    </g>
    <g id="xtick_4">
     <g id="text_4">
      <text style="font-size: 10px; font-family: 'Arial', 'DejaVu Sans', 'Liberation Sans', 'Bitstream Vera Sans', sans-serif; fill: #262626" transform="translate(708.3258 696.505875) rotate(-90)">unknown cell</text>
     </g>
    </g>
    <g id="xtick_5">
     <g id="text_5">
      <text style="font-size: 10px; font-family: 'Arial', 'DejaVu Sans', 'Liberation Sans', 'Bitstream Vera Sans', sans-serif; fill: #262626" transform="translate(887.5546 682.913688) rotate(-90)">neural cell</text>
     </g>
    </g>
    <g id="text_6">
     <text style="font-size: 10px; font-family: 'Arial', 'DejaVu Sans', 'Liberation Sans', 'Bitstream Vera Sans', sans-serif; text-anchor: middle; fill: #262626" x="526.337625" y="732.662125" transform="rotate(-0 526.337625 732.662125)">Cell Type</text>
    </g>
   </g>
   <g id="matplotlib.axis_2">
    <g id="ytick_1">
     <g id="line2d_1">
      <path d="M 78.265625 596.915948 
L 974.409625 596.915948 
" clip-path="url(#p8c6da49f55)" style="fill: none; stroke: #cccccc; stroke-width: 2; stroke-linecap: round"/>
     </g>
     <g id="text_7">
      <text style="font-size: 10px; font-family: 'Arial', 'DejaVu Sans', 'Liberation Sans', 'Bitstream Vera Sans', sans-serif; text-anchor: end; fill: #262626" x="68.765625" y="600.715167" transform="rotate(-0 68.765625 600.715167)">0</text>
     </g>
    </g>
    <g id="ytick_2">
     <g id="line2d_2">
      <path d="M 78.265625 531.748862 
L 974.409625 531.748862 
" clip-path="url(#p8c6da49f55)" style="fill: none; stroke: #cccccc; stroke-width: 2; stroke-linecap: round"/>
     </g>
     <g id="text_8">
      <text style="font-size: 10px; font-family: 'Arial', 'DejaVu Sans', 'Liberation Sans', 'Bitstream Vera Sans', sans-serif; text-anchor: end; fill: #262626" x="68.765625" y="535.548081" transform="rotate(-0 68.765625 535.548081)">25</text>
     </g>
    </g>
    <g id="ytick_3">
     <g id="line2d_3">
      <path d="M 78.265625 466.581777 
L 974.409625 466.581777 
" clip-path="url(#p8c6da49f55)" style="fill: none; stroke: #cccccc; stroke-width: 2; stroke-linecap: round"/>
     </g>
     <g id="text_9">
      <text style="font-size: 10px; font-family: 'Arial', 'DejaVu Sans', 'Liberation Sans', 'Bitstream Vera Sans', sans-serif; text-anchor: end; fill: #262626" x="68.765625" y="470.380995" transform="rotate(-0 68.765625 470.380995)">50</text>
     </g>
    </g>
    <g id="ytick_4">
     <g id="line2d_4">
      <path d="M 78.265625 401.414691 
L 974.409625 401.414691 
" clip-path="url(#p8c6da49f55)" style="fill: none; stroke: #cccccc; stroke-width: 2; stroke-linecap: round"/>
     </g>
     <g id="text_10">
      <text style="font-size: 10px; font-family: 'Arial', 'DejaVu Sans', 'Liberation Sans', 'Bitstream Vera Sans', sans-serif; text-anchor: end; fill: #262626" x="68.765625" y="405.21391" transform="rotate(-0 68.765625 405.21391)">75</text>
     </g>
    </g>
    <g id="ytick_5">
     <g id="line2d_5">
      <path d="M 78.265625 336.247605 
L 974.409625 336.247605 
" clip-path="url(#p8c6da49f55)" style="fill: none; stroke: #cccccc; stroke-width: 2; stroke-linecap: round"/>
     </g>
     <g id="text_11">
      <text style="font-size: 10px; font-family: 'Arial', 'DejaVu Sans', 'Liberation Sans', 'Bitstream Vera Sans', sans-serif; text-anchor: end; fill: #262626" x="68.765625" y="340.046824" transform="rotate(-0 68.765625 340.046824)">100</text>
     </g>
    </g>
    <g id="ytick_6">
     <g id="line2d_6">
      <path d="M 78.265625 271.08052 
L 974.409625 271.08052 
" clip-path="url(#p8c6da49f55)" style="fill: none; stroke: #cccccc; stroke-width: 2; stroke-linecap: round"/>
     </g>
     <g id="text_12">
      <text style="font-size: 10px; font-family: 'Arial', 'DejaVu Sans', 'Liberation Sans', 'Bitstream Vera Sans', sans-serif; text-anchor: end; fill: #262626" x="68.765625" y="274.879739" transform="rotate(-0 68.765625 274.879739)">125</text>
     </g>
    </g>
    <g id="ytick_7">
     <g id="line2d_7">
      <path d="M 78.265625 205.913434 
L 974.409625 205.913434 
" clip-path="url(#p8c6da49f55)" style="fill: none; stroke: #cccccc; stroke-width: 2; stroke-linecap: round"/>
     </g>
     <g id="text_13">
      <text style="font-size: 10px; font-family: 'Arial', 'DejaVu Sans', 'Liberation Sans', 'Bitstream Vera Sans', sans-serif; text-anchor: end; fill: #262626" x="68.765625" y="209.712653" transform="rotate(-0 68.765625 209.712653)">150</text>
     </g>
    </g>
    <g id="ytick_8">
     <g id="line2d_8">
      <path d="M 78.265625 140.746349 
L 974.409625 140.746349 
" clip-path="url(#p8c6da49f55)" style="fill: none; stroke: #cccccc; stroke-width: 2; stroke-linecap: round"/>
     </g>
     <g id="text_14">
      <text style="font-size: 10px; font-family: 'Arial', 'DejaVu Sans', 'Liberation Sans', 'Bitstream Vera Sans', sans-serif; text-anchor: end; fill: #262626" x="68.765625" y="144.545567" transform="rotate(-0 68.765625 144.545567)">175</text>
     </g>
    </g>
    <g id="ytick_9">
     <g id="line2d_9">
      <path d="M 78.265625 75.579263 
L 974.409625 75.579263 
" clip-path="url(#p8c6da49f55)" style="fill: none; stroke: #cccccc; stroke-width: 2; stroke-linecap: round"/>
     </g>
     <g id="text_15">
      <text style="font-size: 10px; font-family: 'Arial', 'DejaVu Sans', 'Liberation Sans', 'Bitstream Vera Sans', sans-serif; text-anchor: end; fill: #262626" x="68.765625" y="79.378482" transform="rotate(-0 68.765625 79.378482)">200</text>
     </g>
    </g>
    <g id="text_16">
     <text style="font-size: 10px; font-family: 'Arial', 'DejaVu Sans', 'Liberation Sans', 'Bitstream Vera Sans', sans-serif; text-anchor: middle; fill: #262626" x="43.598437" y="335.390438" transform="rotate(-90 43.598437 335.390438)">Distance (μm)</text>
    </g>
   </g>
   <g id="FillBetweenPolyCollection_1">
    <defs>
     <path id="me27ee63846" d="M 167.880025 -175.540466 
L 167.810683 -175.540466 
L 166.789775 -180.788877 
L 163.95386 -186.037288 
L 161.231741 -191.285699 
L 158.660485 -196.53411 
L 155.919891 -201.782521 
L 153.41519 -207.030932 
L 151.228141 -212.279343 
L 149.544909 -217.527754 
L 148.349259 -222.776165 
L 147.657823 -228.024576 
L 147.351393 -233.272987 
L 147.436817 -238.521398 
L 147.834206 -243.769809 
L 148.407816 -249.01822 
L 149.307617 -254.266631 
L 150.427617 -259.515043 
L 151.676832 -264.763454 
L 153.053107 -270.011865 
L 154.278461 -275.260276 
L 155.514393 -280.508687 
L 156.707655 -285.757098 
L 157.834454 -291.005509 
L 158.891233 -296.25392 
L 159.908322 -301.502331 
L 160.814466 -306.750742 
L 161.650082 -311.999153 
L 162.409134 -317.247564 
L 163.02844 -322.495975 
L 163.574501 -327.744386 
L 164.088902 -332.992797 
L 164.533583 -338.241208 
L 164.930094 -343.489619 
L 165.3087 -348.73803 
L 165.631341 -353.986441 
L 165.887328 -359.234852 
L 166.131478 -364.483263 
L 166.342909 -369.731674 
L 166.547609 -374.980085 
L 166.71586 -380.228496 
L 166.843242 -385.476907 
L 166.954767 -390.725318 
L 167.061156 -395.97373 
L 167.158226 -401.222141 
L 167.230594 -406.470552 
L 167.310576 -411.718963 
L 167.391059 -416.967374 
L 167.434589 -422.215785 
L 167.484483 -427.464196 
L 167.51855 -432.712607 
L 167.562332 -437.961018 
L 167.595434 -443.209429 
L 167.623205 -448.45784 
L 167.642353 -453.706251 
L 167.664331 -458.954662 
L 167.694896 -464.203073 
L 167.71352 -469.451484 
L 167.726286 -474.699895 
L 167.740646 -479.948306 
L 167.752229 -485.196717 
L 167.761331 -490.445128 
L 167.774443 -495.693539 
L 167.782138 -500.94195 
L 167.786751 -506.190361 
L 167.792701 -511.438772 
L 167.798537 -516.687183 
L 167.799993 -521.935594 
L 167.803824 -527.184006 
L 167.813555 -532.432417 
L 167.818291 -537.680828 
L 167.817264 -542.929239 
L 167.818963 -548.17765 
L 167.820475 -553.426061 
L 167.821758 -558.674472 
L 167.822156 -563.922883 
L 167.830251 -569.171294 
L 167.836341 -574.419705 
L 167.836625 -579.668116 
L 167.839829 -584.916527 
L 167.842991 -590.164938 
L 167.847093 -595.413349 
L 167.848407 -600.66176 
L 167.847323 -605.910171 
L 167.854181 -611.158582 
L 167.855138 -616.406993 
L 167.853024 -621.655404 
L 167.85431 -626.903815 
L 167.85808 -632.152226 
L 167.858595 -637.400637 
L 167.857061 -642.649048 
L 167.854827 -647.897459 
L 167.857491 -653.14587 
L 167.859649 -658.394281 
L 167.863119 -663.642693 
L 167.863077 -668.891104 
L 167.862731 -674.139515 
L 167.86379 -679.387926 
L 167.866284 -684.636337 
L 167.865263 -689.884748 
L 167.872896 -695.133159 
L 167.880025 -695.133159 
L 167.880025 -695.133159 
L 167.880025 -689.884748 
L 167.880025 -684.636337 
L 167.880025 -679.387926 
L 167.880025 -674.139515 
L 167.880025 -668.891104 
L 167.880025 -663.642693 
L 167.880025 -658.394281 
L 167.880025 -653.14587 
L 167.880025 -647.897459 
L 167.880025 -642.649048 
L 167.880025 -637.400637 
L 167.880025 -632.152226 
L 167.880025 -626.903815 
L 167.880025 -621.655404 
L 167.880025 -616.406993 
L 167.880025 -611.158582 
L 167.880025 -605.910171 
L 167.880025 -600.66176 
L 167.880025 -595.413349 
L 167.880025 -590.164938 
L 167.880025 -584.916527 
L 167.880025 -579.668116 
L 167.880025 -574.419705 
L 167.880025 -569.171294 
L 167.880025 -563.922883 
L 167.880025 -558.674472 
L 167.880025 -553.426061 
L 167.880025 -548.17765 
L 167.880025 -542.929239 
L 167.880025 -537.680828 
L 167.880025 -532.432417 
L 167.880025 -527.184006 
L 167.880025 -521.935594 
L 167.880025 -516.687183 
L 167.880025 -511.438772 
L 167.880025 -506.190361 
L 167.880025 -500.94195 
L 167.880025 -495.693539 
L 167.880025 -490.445128 
L 167.880025 -485.196717 
L 167.880025 -479.948306 
L 167.880025 -474.699895 
L 167.880025 -469.451484 
L 167.880025 -464.203073 
L 167.880025 -458.954662 
L 167.880025 -453.706251 
L 167.880025 -448.45784 
L 167.880025 -443.209429 
L 167.880025 -437.961018 
L 167.880025 -432.712607 
L 167.880025 -427.464196 
L 167.880025 -422.215785 
L 167.880025 -416.967374 
L 167.880025 -411.718963 
L 167.880025 -406.470552 
L 167.880025 -401.222141 
L 167.880025 -395.97373 
L 167.880025 -390.725318 
L 167.880025 -385.476907 
L 167.880025 -380.228496 
L 167.880025 -374.980085 
L 167.880025 -369.731674 
L 167.880025 -364.483263 
L 167.880025 -359.234852 
L 167.880025 -353.986441 
L 167.880025 -348.73803 
L 167.880025 -343.489619 
L 167.880025 -338.241208 
L 167.880025 -332.992797 
L 167.880025 -327.744386 
L 167.880025 -322.495975 
L 167.880025 -317.247564 
L 167.880025 -311.999153 
L 167.880025 -306.750742 
L 167.880025 -301.502331 
L 167.880025 -296.25392 
L 167.880025 -291.005509 
L 167.880025 -285.757098 
L 167.880025 -280.508687 
L 167.880025 -275.260276 
L 167.880025 -270.011865 
L 167.880025 -264.763454 
L 167.880025 -259.515043 
L 167.880025 -254.266631 
L 167.880025 -249.01822 
L 167.880025 -243.769809 
L 167.880025 -238.521398 
L 167.880025 -233.272987 
L 167.880025 -228.024576 
L 167.880025 -222.776165 
L 167.880025 -217.527754 
L 167.880025 -212.279343 
L 167.880025 -207.030932 
L 167.880025 -201.782521 
L 167.880025 -196.53411 
L 167.880025 -191.285699 
L 167.880025 -186.037288 
L 167.880025 -180.788877 
L 167.880025 -175.540466 
z
" style="stroke: #6d6d6d; stroke-opacity: 0.9; stroke-width: 1.25"/>
    </defs>
    <g clip-path="url(#p8c6da49f55)">
     <use xlink:href="#me27ee63846" x="0" y="770.741813" style="fill: #ecbd81; fill-opacity: 0.9; stroke: #6d6d6d; stroke-opacity: 0.9; stroke-width: 1.25"/>
    </g>
   </g>
   <g id="FillBetweenPolyCollection_2">
    <defs>
     <path id="md94dec171a" d="M 168.483108 -185.418304 
L 167.880025 -185.418304 
L 167.880025 -190.567233 
L 167.880025 -195.716162 
L 167.880025 -200.865091 
L 167.880025 -206.01402 
L 167.880025 -211.162949 
L 167.880025 -216.311878 
L 167.880025 -221.460808 
L 167.880025 -226.609737 
L 167.880025 -231.758666 
L 167.880025 -236.907595 
L 167.880025 -242.056524 
L 167.880025 -247.205453 
L 167.880025 -252.354382 
L 167.880025 -257.503311 
L 167.880025 -262.65224 
L 167.880025 -267.801169 
L 167.880025 -272.950098 
L 167.880025 -278.099028 
L 167.880025 -283.247957 
L 167.880025 -288.396886 
L 167.880025 -293.545815 
L 167.880025 -298.694744 
L 167.880025 -303.843673 
L 167.880025 -308.992602 
L 167.880025 -314.141531 
L 167.880025 -319.29046 
L 167.880025 -324.439389 
L 167.880025 -329.588318 
L 167.880025 -334.737248 
L 167.880025 -339.886177 
L 167.880025 -345.035106 
L 167.880025 -350.184035 
L 167.880025 -355.332964 
L 167.880025 -360.481893 
L 167.880025 -365.630822 
L 167.880025 -370.779751 
L 167.880025 -375.92868 
L 167.880025 -381.077609 
L 167.880025 -386.226539 
L 167.880025 -391.375468 
L 167.880025 -396.524397 
L 167.880025 -401.673326 
L 167.880025 -406.822255 
L 167.880025 -411.971184 
L 167.880025 -417.120113 
L 167.880025 -422.269042 
L 167.880025 -427.417971 
L 167.880025 -432.5669 
L 167.880025 -437.715829 
L 167.880025 -442.864759 
L 167.880025 -448.013688 
L 167.880025 -453.162617 
L 167.880025 -458.311546 
L 167.880025 -463.460475 
L 167.880025 -468.609404 
L 167.880025 -473.758333 
L 167.880025 -478.907262 
L 167.880025 -484.056191 
L 167.880025 -489.20512 
L 167.880025 -494.354049 
L 167.880025 -499.502979 
L 167.880025 -504.651908 
L 167.880025 -509.800837 
L 167.880025 -514.949766 
L 167.880025 -520.098695 
L 167.880025 -525.247624 
L 167.880025 -530.396553 
L 167.880025 -535.545482 
L 167.880025 -540.694411 
L 167.880025 -545.84334 
L 167.880025 -550.992269 
L 167.880025 -556.141199 
L 167.880025 -561.290128 
L 167.880025 -566.439057 
L 167.880025 -571.587986 
L 167.880025 -576.736915 
L 167.880025 -581.885844 
L 167.880025 -587.034773 
L 167.880025 -592.183702 
L 167.880025 -597.332631 
L 167.880025 -602.48156 
L 167.880025 -607.63049 
L 167.880025 -612.779419 
L 167.880025 -617.928348 
L 167.880025 -623.077277 
L 167.880025 -628.226206 
L 167.880025 -633.375135 
L 167.880025 -638.524064 
L 167.880025 -643.672993 
L 167.880025 -648.821922 
L 167.880025 -653.970851 
L 167.880025 -659.11978 
L 167.880025 -664.26871 
L 167.880025 -669.417639 
L 167.880025 -674.566568 
L 167.880025 -679.715497 
L 167.880025 -684.864426 
L 167.880025 -690.013355 
L 167.880025 -695.162284 
L 168.766877 -695.162284 
L 168.766877 -695.162284 
L 169.468572 -690.013355 
L 169.746035 -684.864426 
L 169.840924 -679.715497 
L 169.898711 -674.566568 
L 169.974165 -669.417639 
L 170.060162 -664.26871 
L 170.145599 -659.11978 
L 170.233595 -653.970851 
L 170.351959 -648.821922 
L 170.489821 -643.672993 
L 170.6127 -638.524064 
L 170.713109 -633.375135 
L 170.813095 -628.226206 
L 170.953493 -623.077277 
L 171.102068 -617.928348 
L 171.243771 -612.779419 
L 171.417719 -607.63049 
L 171.582463 -602.48156 
L 171.722176 -597.332631 
L 171.911165 -592.183702 
L 172.110617 -587.034773 
L 172.274425 -581.885844 
L 172.473379 -576.736915 
L 172.722585 -571.587986 
L 172.961796 -566.439057 
L 173.198962 -561.290128 
L 173.464176 -556.141199 
L 173.757772 -550.992269 
L 174.050487 -545.84334 
L 174.311569 -540.694411 
L 174.590291 -535.545482 
L 174.965998 -530.396553 
L 175.382819 -525.247624 
L 175.794833 -520.098695 
L 176.201682 -514.949766 
L 176.629477 -509.800837 
L 177.108054 -504.651908 
L 177.599966 -499.502979 
L 178.131798 -494.354049 
L 178.693832 -489.20512 
L 179.265163 -484.056191 
L 179.870702 -478.907262 
L 180.536259 -473.758333 
L 181.228214 -468.609404 
L 181.925886 -463.460475 
L 182.650929 -458.311546 
L 183.436592 -453.162617 
L 184.291224 -448.013688 
L 185.20266 -442.864759 
L 186.118103 -437.715829 
L 187.056865 -432.5669 
L 188.091102 -427.417971 
L 189.151713 -422.269042 
L 190.325567 -417.120113 
L 191.609609 -411.971184 
L 192.876627 -406.822255 
L 194.112252 -401.673326 
L 195.438959 -396.524397 
L 196.909813 -391.375468 
L 198.439889 -386.226539 
L 199.956473 -381.077609 
L 201.573577 -375.92868 
L 203.359294 -370.779751 
L 205.206579 -365.630822 
L 207.001501 -360.481893 
L 208.768758 -355.332964 
L 210.6989 -350.184035 
L 212.766001 -345.035106 
L 214.834041 -339.886177 
L 216.922671 -334.737248 
L 219.070139 -329.588318 
L 221.270262 -324.439389 
L 223.340353 -319.29046 
L 225.369206 -314.141531 
L 227.48219 -308.992602 
L 229.496977 -303.843673 
L 231.440444 -298.694744 
L 233.314713 -293.545815 
L 234.901912 -288.396886 
L 236.263332 -283.247957 
L 237.542742 -278.099028 
L 238.602855 -272.950098 
L 239.267345 -267.801169 
L 239.571545 -262.65224 
L 239.422416 -257.503311 
L 238.691764 -252.354382 
L 237.486052 -247.205453 
L 235.783834 -242.056524 
L 233.471004 -236.907595 
L 230.303163 -231.758666 
L 226.20589 -226.609737 
L 221.418601 -221.460808 
L 215.908512 -216.311878 
L 209.112533 -211.162949 
L 199.881859 -206.01402 
L 188.44336 -200.865091 
L 177.839876 -195.716162 
L 171.121049 -190.567233 
L 168.483108 -185.418304 
z
" style="stroke: #6d6d6d; stroke-opacity: 0.9; stroke-width: 1.25"/>
    </defs>
    <g clip-path="url(#p8c6da49f55)">
     <use xlink:href="#md94dec171a" x="0" y="770.741813" style="fill: #c0dca9; fill-opacity: 0.9; stroke: #6d6d6d; stroke-opacity: 0.9; stroke-width: 1.25"/>
    </g>
   </g>
   <g id="FillBetweenPolyCollection_3">
    <defs>
     <path id="m13caf70afb" d="M 347.108825 -176.687639 
L 346.999582 -176.687639 
L 345.627159 -181.853664 
L 342.423146 -187.019688 
L 340.423083 -192.185713 
L 339.890293 -197.351737 
L 339.971331 -202.517762 
L 340.286248 -207.683786 
L 340.794716 -212.849811 
L 341.405462 -218.015835 
L 342.060467 -223.18186 
L 342.662142 -228.347884 
L 343.207379 -233.513909 
L 343.711615 -238.679933 
L 344.203018 -243.845958 
L 344.629298 -249.011982 
L 344.940226 -254.178007 
L 345.253535 -259.344031 
L 345.511813 -264.510056 
L 345.749432 -269.67608 
L 345.944967 -274.842105 
L 346.09515 -280.008129 
L 346.218992 -285.174154 
L 346.34649 -290.340178 
L 346.442719 -295.506203 
L 346.520496 -300.672227 
L 346.587433 -305.838252 
L 346.65979 -311.004276 
L 346.716317 -316.170301 
L 346.762723 -321.336325 
L 346.809434 -326.50235 
L 346.83326 -331.668374 
L 346.861181 -336.834399 
L 346.892607 -342.000423 
L 346.912904 -347.166448 
L 346.938954 -352.332472 
L 346.95535 -357.498497 
L 346.970107 -362.664521 
L 346.987602 -367.830545 
L 347.004603 -372.99657 
L 347.015735 -378.162594 
L 347.01898 -383.328619 
L 347.033913 -388.494643 
L 347.0464 -393.660668 
L 347.05118 -398.826692 
L 347.058488 -403.992717 
L 347.064988 -409.158741 
L 347.069259 -414.324766 
L 347.072079 -419.49079 
L 347.078815 -424.656815 
L 347.085576 -429.822839 
L 347.087176 -434.988864 
L 347.088918 -440.154888 
L 347.091567 -445.320913 
L 347.093674 -450.486937 
L 347.095422 -455.652962 
L 347.096692 -460.818986 
L 347.098601 -465.985011 
L 347.099965 -471.151035 
L 347.101539 -476.31706 
L 347.10319 -481.483084 
L 347.103687 -486.649109 
L 347.104258 -491.815133 
L 347.105303 -496.981158 
L 347.105777 -502.147182 
L 347.105877 -507.313207 
L 347.106624 -512.479231 
L 347.107345 -517.645256 
L 347.107534 -522.81128 
L 347.107129 -527.977305 
L 347.106963 -533.143329 
L 347.107246 -538.309354 
L 347.107635 -543.475378 
L 347.10744 -548.641403 
L 347.107924 -553.807427 
L 347.107821 -558.973452 
L 347.107669 -564.139476 
L 347.107661 -569.3055 
L 347.108034 -574.471525 
L 347.108082 -579.637549 
L 347.108155 -584.803574 
L 347.108045 -589.969598 
L 347.107887 -595.135623 
L 347.108276 -600.301647 
L 347.108322 -605.467672 
L 347.10844 -610.633696 
L 347.10846 -615.799721 
L 347.108142 -620.965745 
L 347.108109 -626.13177 
L 347.108361 -631.297794 
L 347.108406 -636.463819 
L 347.108172 -641.629843 
L 347.108566 -646.795868 
L 347.108536 -651.961892 
L 347.108507 -657.127917 
L 347.1085 -662.293941 
L 347.108752 -667.459966 
L 347.108808 -672.62599 
L 347.108536 -677.792015 
L 347.108317 -682.958039 
L 347.108615 -688.124064 
L 347.108825 -688.124064 
L 347.108825 -688.124064 
L 347.108825 -682.958039 
L 347.108825 -677.792015 
L 347.108825 -672.62599 
L 347.108825 -667.459966 
L 347.108825 -662.293941 
L 347.108825 -657.127917 
L 347.108825 -651.961892 
L 347.108825 -646.795868 
L 347.108825 -641.629843 
L 347.108825 -636.463819 
L 347.108825 -631.297794 
L 347.108825 -626.13177 
L 347.108825 -620.965745 
L 347.108825 -615.799721 
L 347.108825 -610.633696 
L 347.108825 -605.467672 
L 347.108825 -600.301647 
L 347.108825 -595.135623 
L 347.108825 -589.969598 
L 347.108825 -584.803574 
L 347.108825 -579.637549 
L 347.108825 -574.471525 
L 347.108825 -569.3055 
L 347.108825 -564.139476 
L 347.108825 -558.973452 
L 347.108825 -553.807427 
L 347.108825 -548.641403 
L 347.108825 -543.475378 
L 347.108825 -538.309354 
L 347.108825 -533.143329 
L 347.108825 -527.977305 
L 347.108825 -522.81128 
L 347.108825 -517.645256 
L 347.108825 -512.479231 
L 347.108825 -507.313207 
L 347.108825 -502.147182 
L 347.108825 -496.981158 
L 347.108825 -491.815133 
L 347.108825 -486.649109 
L 347.108825 -481.483084 
L 347.108825 -476.31706 
L 347.108825 -471.151035 
L 347.108825 -465.985011 
L 347.108825 -460.818986 
L 347.108825 -455.652962 
L 347.108825 -450.486937 
L 347.108825 -445.320913 
L 347.108825 -440.154888 
L 347.108825 -434.988864 
L 347.108825 -429.822839 
L 347.108825 -424.656815 
L 347.108825 -419.49079 
L 347.108825 -414.324766 
L 347.108825 -409.158741 
L 347.108825 -403.992717 
L 347.108825 -398.826692 
L 347.108825 -393.660668 
L 347.108825 -388.494643 
L 347.108825 -383.328619 
L 347.108825 -378.162594 
L 347.108825 -372.99657 
L 347.108825 -367.830545 
L 347.108825 -362.664521 
L 347.108825 -357.498497 
L 347.108825 -352.332472 
L 347.108825 -347.166448 
L 347.108825 -342.000423 
L 347.108825 -336.834399 
L 347.108825 -331.668374 
L 347.108825 -326.50235 
L 347.108825 -321.336325 
L 347.108825 -316.170301 
L 347.108825 -311.004276 
L 347.108825 -305.838252 
L 347.108825 -300.672227 
L 347.108825 -295.506203 
L 347.108825 -290.340178 
L 347.108825 -285.174154 
L 347.108825 -280.008129 
L 347.108825 -274.842105 
L 347.108825 -269.67608 
L 347.108825 -264.510056 
L 347.108825 -259.344031 
L 347.108825 -254.178007 
L 347.108825 -249.011982 
L 347.108825 -243.845958 
L 347.108825 -238.679933 
L 347.108825 -233.513909 
L 347.108825 -228.347884 
L 347.108825 -223.18186 
L 347.108825 -218.015835 
L 347.108825 -212.849811 
L 347.108825 -207.683786 
L 347.108825 -202.517762 
L 347.108825 -197.351737 
L 347.108825 -192.185713 
L 347.108825 -187.019688 
L 347.108825 -181.853664 
L 347.108825 -176.687639 
z
" style="stroke: #6d6d6d; stroke-opacity: 0.9; stroke-width: 1.25"/>
    </defs>
    <g clip-path="url(#p8c6da49f55)">
     <use xlink:href="#m13caf70afb" x="0" y="770.741813" style="fill: #ecbd81; fill-opacity: 0.9; stroke: #6d6d6d; stroke-opacity: 0.9; stroke-width: 1.25"/>
    </g>
   </g>
   <g id="FillBetweenPolyCollection_4">
    <defs>
     <path id="m26d161ffc6" d="M 348.479756 -183.887103 
L 347.108825 -183.887103 
L 347.108825 -189.051372 
L 347.108825 -194.21564 
L 347.108825 -199.379908 
L 347.108825 -204.544177 
L 347.108825 -209.708445 
L 347.108825 -214.872713 
L 347.108825 -220.036982 
L 347.108825 -225.20125 
L 347.108825 -230.365518 
L 347.108825 -235.529787 
L 347.108825 -240.694055 
L 347.108825 -245.858323 
L 347.108825 -251.022592 
L 347.108825 -256.18686 
L 347.108825 -261.351128 
L 347.108825 -266.515397 
L 347.108825 -271.679665 
L 347.108825 -276.843933 
L 347.108825 -282.008202 
L 347.108825 -287.17247 
L 347.108825 -292.336738 
L 347.108825 -297.501007 
L 347.108825 -302.665275 
L 347.108825 -307.829543 
L 347.108825 -312.993812 
L 347.108825 -318.15808 
L 347.108825 -323.322348 
L 347.108825 -328.486617 
L 347.108825 -333.650885 
L 347.108825 -338.815153 
L 347.108825 -343.979422 
L 347.108825 -349.14369 
L 347.108825 -354.307958 
L 347.108825 -359.472227 
L 347.108825 -364.636495 
L 347.108825 -369.800763 
L 347.108825 -374.965032 
L 347.108825 -380.1293 
L 347.108825 -385.293568 
L 347.108825 -390.457837 
L 347.108825 -395.622105 
L 347.108825 -400.786373 
L 347.108825 -405.950642 
L 347.108825 -411.11491 
L 347.108825 -416.279178 
L 347.108825 -421.443447 
L 347.108825 -426.607715 
L 347.108825 -431.771983 
L 347.108825 -436.936252 
L 347.108825 -442.10052 
L 347.108825 -447.264789 
L 347.108825 -452.429057 
L 347.108825 -457.593325 
L 347.108825 -462.757594 
L 347.108825 -467.921862 
L 347.108825 -473.08613 
L 347.108825 -478.250399 
L 347.108825 -483.414667 
L 347.108825 -488.578935 
L 347.108825 -493.743204 
L 347.108825 -498.907472 
L 347.108825 -504.07174 
L 347.108825 -509.236009 
L 347.108825 -514.400277 
L 347.108825 -519.564545 
L 347.108825 -524.728814 
L 347.108825 -529.893082 
L 347.108825 -535.05735 
L 347.108825 -540.221619 
L 347.108825 -545.385887 
L 347.108825 -550.550155 
L 347.108825 -555.714424 
L 347.108825 -560.878692 
L 347.108825 -566.04296 
L 347.108825 -571.207229 
L 347.108825 -576.371497 
L 347.108825 -581.535765 
L 347.108825 -586.700034 
L 347.108825 -591.864302 
L 347.108825 -597.02857 
L 347.108825 -602.192839 
L 347.108825 -607.357107 
L 347.108825 -612.521375 
L 347.108825 -617.685644 
L 347.108825 -622.849912 
L 347.108825 -628.01418 
L 347.108825 -633.178449 
L 347.108825 -638.342717 
L 347.108825 -643.506985 
L 347.108825 -648.671254 
L 347.108825 -653.835522 
L 347.108825 -658.99979 
L 347.108825 -664.164059 
L 347.108825 -669.328327 
L 347.108825 -674.492595 
L 347.108825 -679.656864 
L 347.108825 -684.821132 
L 347.108825 -689.9854 
L 347.108825 -695.149669 
L 347.301412 -695.149669 
L 347.301412 -695.149669 
L 347.428753 -689.9854 
L 347.488124 -684.821132 
L 347.507402 -679.656864 
L 347.520882 -674.492595 
L 347.536377 -669.328327 
L 347.547477 -664.164059 
L 347.551382 -658.99979 
L 347.557722 -653.835522 
L 347.569711 -648.671254 
L 347.575064 -643.506985 
L 347.580291 -638.342717 
L 347.597692 -633.178449 
L 347.623316 -628.01418 
L 347.644701 -622.849912 
L 347.660868 -617.685644 
L 347.676373 -612.521375 
L 347.695625 -607.357107 
L 347.715494 -602.192839 
L 347.732973 -597.02857 
L 347.755755 -591.864302 
L 347.786817 -586.700034 
L 347.819535 -581.535765 
L 347.852924 -576.371497 
L 347.889107 -571.207229 
L 347.918978 -566.04296 
L 347.945158 -560.878692 
L 347.979643 -555.714424 
L 348.023628 -550.550155 
L 348.073783 -545.385887 
L 348.126026 -540.221619 
L 348.178116 -535.05735 
L 348.228985 -529.893082 
L 348.279398 -524.728814 
L 348.337212 -519.564545 
L 348.40782 -514.400277 
L 348.473938 -509.236009 
L 348.530376 -504.07174 
L 348.600582 -498.907472 
L 348.684135 -493.743204 
L 348.764488 -488.578935 
L 348.852812 -483.414667 
L 348.971625 -478.250399 
L 349.102409 -473.08613 
L 349.219824 -467.921862 
L 349.334559 -462.757594 
L 349.4707 -457.593325 
L 349.62459 -452.429057 
L 349.786654 -447.264789 
L 349.959618 -442.10052 
L 350.145965 -436.936252 
L 350.35347 -431.771983 
L 350.580289 -426.607715 
L 350.818884 -421.443447 
L 351.067105 -416.279178 
L 351.310289 -411.11491 
L 351.55602 -405.950642 
L 351.84275 -400.786373 
L 352.163279 -395.622105 
L 352.488994 -390.457837 
L 352.835464 -385.293568 
L 353.226529 -380.1293 
L 353.639443 -374.965032 
L 354.050177 -369.800763 
L 354.486611 -364.636495 
L 354.951958 -359.472227 
L 355.420266 -354.307958 
L 355.908618 -349.14369 
L 356.431338 -343.979422 
L 356.958575 -338.815153 
L 357.518102 -333.650885 
L 358.087593 -328.486617 
L 358.638297 -323.322348 
L 359.224185 -318.15808 
L 359.834363 -312.993812 
L 360.465808 -307.829543 
L 361.116219 -302.665275 
L 361.731316 -297.501007 
L 362.328476 -292.336738 
L 362.940098 -287.17247 
L 363.507323 -282.008202 
L 364.032159 -276.843933 
L 364.559518 -271.679665 
L 365.096076 -266.515397 
L 365.612369 -261.351128 
L 366.064145 -256.18686 
L 366.445629 -251.022592 
L 366.760869 -245.858323 
L 367.04487 -240.694055 
L 367.332381 -235.529787 
L 367.593697 -230.365518 
L 367.83997 -225.20125 
L 368.116566 -220.036982 
L 368.391794 -214.872713 
L 368.351875 -209.708445 
L 367.127522 -204.544177 
L 363.633347 -199.379908 
L 357.887612 -194.21564 
L 352.018934 -189.051372 
L 348.479756 -183.887103 
z
" style="stroke: #6d6d6d; stroke-opacity: 0.9; stroke-width: 1.25"/>
    </defs>
    <g clip-path="url(#p8c6da49f55)">
     <use xlink:href="#m26d161ffc6" x="0" y="770.741813" style="fill: #c0dca9; fill-opacity: 0.9; stroke: #6d6d6d; stroke-opacity: 0.9; stroke-width: 1.25"/>
    </g>
   </g>
   <g id="FillBetweenPolyCollection_5">
    <defs>
     <path id="m07c4595e97" d="M 526.337625 -177.855271 
L 526.081841 -177.855271 
L 523.795036 -183.074338 
L 520.006789 -188.293404 
L 518.480987 -193.512471 
L 518.08219 -198.731538 
L 518.072182 -203.950605 
L 518.359109 -209.169671 
L 518.813589 -214.388738 
L 519.392409 -219.607805 
L 520.066801 -224.826871 
L 520.675155 -230.045938 
L 521.247639 -235.265005 
L 521.843486 -240.484072 
L 522.433178 -245.703138 
L 522.931903 -250.922205 
L 523.377502 -256.141272 
L 523.735442 -261.360338 
L 524.03396 -266.579405 
L 524.307791 -271.798472 
L 524.611696 -277.017538 
L 524.832069 -282.236605 
L 525.031871 -287.455672 
L 525.201399 -292.674739 
L 525.349152 -297.893805 
L 525.478564 -303.112872 
L 525.607888 -308.331939 
L 525.712588 -313.551005 
L 525.791814 -318.770072 
L 525.851962 -323.989139 
L 525.913761 -329.208205 
L 525.969749 -334.427272 
L 526.020173 -339.646339 
L 526.06288 -344.865406 
L 526.104085 -350.084472 
L 526.135539 -355.303539 
L 526.161571 -360.522606 
L 526.184492 -365.741672 
L 526.2049 -370.960739 
L 526.219685 -376.179806 
L 526.236122 -381.398872 
L 526.249292 -386.617939 
L 526.262599 -391.837006 
L 526.274481 -397.056073 
L 526.28188 -402.275139 
L 526.291615 -407.494206 
L 526.29795 -412.713273 
L 526.303402 -417.932339 
L 526.308542 -423.151406 
L 526.310283 -428.370473 
L 526.313123 -433.589539 
L 526.314915 -438.808606 
L 526.318592 -444.027673 
L 526.322726 -449.24674 
L 526.323911 -454.465806 
L 526.323315 -459.684873 
L 526.324586 -464.90394 
L 526.327614 -470.123006 
L 526.328429 -475.342073 
L 526.328055 -480.56114 
L 526.328506 -485.780206 
L 526.328916 -490.999273 
L 526.329002 -496.21834 
L 526.329278 -501.437407 
L 526.331222 -506.656473 
L 526.33072 -511.87554 
L 526.331023 -517.094607 
L 526.331821 -522.313673 
L 526.331794 -527.53274 
L 526.330415 -532.751807 
L 526.331125 -537.970873 
L 526.33161 -543.18994 
L 526.331083 -548.409007 
L 526.331869 -553.628074 
L 526.333038 -558.84714 
L 526.332646 -564.066207 
L 526.333546 -569.285274 
L 526.333083 -574.50434 
L 526.332242 -579.723407 
L 526.333409 -584.942474 
L 526.333575 -590.16154 
L 526.334205 -595.380607 
L 526.335202 -600.599674 
L 526.335158 -605.818741 
L 526.334291 -611.037807 
L 526.33487 -616.256874 
L 526.335058 -621.475941 
L 526.335372 -626.695007 
L 526.335696 -631.914074 
L 526.335497 -637.133141 
L 526.334887 -642.352207 
L 526.335423 -647.571274 
L 526.33596 -652.790341 
L 526.336444 -658.009408 
L 526.336513 -663.228474 
L 526.336112 -668.447541 
L 526.336723 -673.666608 
L 526.336706 -678.885674 
L 526.336602 -684.104741 
L 526.336448 -689.323808 
L 526.336687 -694.542874 
L 526.337625 -694.542874 
L 526.337625 -694.542874 
L 526.337625 -689.323808 
L 526.337625 -684.104741 
L 526.337625 -678.885674 
L 526.337625 -673.666608 
L 526.337625 -668.447541 
L 526.337625 -663.228474 
L 526.337625 -658.009408 
L 526.337625 -652.790341 
L 526.337625 -647.571274 
L 526.337625 -642.352207 
L 526.337625 -637.133141 
L 526.337625 -631.914074 
L 526.337625 -626.695007 
L 526.337625 -621.475941 
L 526.337625 -616.256874 
L 526.337625 -611.037807 
L 526.337625 -605.818741 
L 526.337625 -600.599674 
L 526.337625 -595.380607 
L 526.337625 -590.16154 
L 526.337625 -584.942474 
L 526.337625 -579.723407 
L 526.337625 -574.50434 
L 526.337625 -569.285274 
L 526.337625 -564.066207 
L 526.337625 -558.84714 
L 526.337625 -553.628074 
L 526.337625 -548.409007 
L 526.337625 -543.18994 
L 526.337625 -537.970873 
L 526.337625 -532.751807 
L 526.337625 -527.53274 
L 526.337625 -522.313673 
L 526.337625 -517.094607 
L 526.337625 -511.87554 
L 526.337625 -506.656473 
L 526.337625 -501.437407 
L 526.337625 -496.21834 
L 526.337625 -490.999273 
L 526.337625 -485.780206 
L 526.337625 -480.56114 
L 526.337625 -475.342073 
L 526.337625 -470.123006 
L 526.337625 -464.90394 
L 526.337625 -459.684873 
L 526.337625 -454.465806 
L 526.337625 -449.24674 
L 526.337625 -444.027673 
L 526.337625 -438.808606 
L 526.337625 -433.589539 
L 526.337625 -428.370473 
L 526.337625 -423.151406 
L 526.337625 -417.932339 
L 526.337625 -412.713273 
L 526.337625 -407.494206 
L 526.337625 -402.275139 
L 526.337625 -397.056073 
L 526.337625 -391.837006 
L 526.337625 -386.617939 
L 526.337625 -381.398872 
L 526.337625 -376.179806 
L 526.337625 -370.960739 
L 526.337625 -365.741672 
L 526.337625 -360.522606 
L 526.337625 -355.303539 
L 526.337625 -350.084472 
L 526.337625 -344.865406 
L 526.337625 -339.646339 
L 526.337625 -334.427272 
L 526.337625 -329.208205 
L 526.337625 -323.989139 
L 526.337625 -318.770072 
L 526.337625 -313.551005 
L 526.337625 -308.331939 
L 526.337625 -303.112872 
L 526.337625 -297.893805 
L 526.337625 -292.674739 
L 526.337625 -287.455672 
L 526.337625 -282.236605 
L 526.337625 -277.017538 
L 526.337625 -271.798472 
L 526.337625 -266.579405 
L 526.337625 -261.360338 
L 526.337625 -256.141272 
L 526.337625 -250.922205 
L 526.337625 -245.703138 
L 526.337625 -240.484072 
L 526.337625 -235.265005 
L 526.337625 -230.045938 
L 526.337625 -224.826871 
L 526.337625 -219.607805 
L 526.337625 -214.388738 
L 526.337625 -209.169671 
L 526.337625 -203.950605 
L 526.337625 -198.731538 
L 526.337625 -193.512471 
L 526.337625 -188.293404 
L 526.337625 -183.074338 
L 526.337625 -177.855271 
z
" style="stroke: #6d6d6d; stroke-opacity: 0.9; stroke-width: 1.25"/>
    </defs>
    <g clip-path="url(#p8c6da49f55)">
     <use xlink:href="#m07c4595e97" x="0" y="770.741813" style="fill: #ecbd81; fill-opacity: 0.9; stroke: #6d6d6d; stroke-opacity: 0.9; stroke-width: 1.25"/>
    </g>
   </g>
   <g id="FillBetweenPolyCollection_6">
    <defs>
     <path id="md5ed43b845" d="M 528.421498 -183.763396 
L 526.337625 -183.763396 
L 526.337625 -188.92895 
L 526.337625 -194.094505 
L 526.337625 -199.260059 
L 526.337625 -204.425614 
L 526.337625 -209.591168 
L 526.337625 -214.756723 
L 526.337625 -219.922277 
L 526.337625 -225.087832 
L 526.337625 -230.253386 
L 526.337625 -235.418941 
L 526.337625 -240.584495 
L 526.337625 -245.75005 
L 526.337625 -250.915604 
L 526.337625 -256.081159 
L 526.337625 -261.246713 
L 526.337625 -266.412268 
L 526.337625 -271.577822 
L 526.337625 -276.743377 
L 526.337625 -281.908931 
L 526.337625 -287.074486 
L 526.337625 -292.24004 
L 526.337625 -297.405595 
L 526.337625 -302.571149 
L 526.337625 -307.736704 
L 526.337625 -312.902258 
L 526.337625 -318.067813 
L 526.337625 -323.233367 
L 526.337625 -328.398922 
L 526.337625 -333.564476 
L 526.337625 -338.73003 
L 526.337625 -343.895585 
L 526.337625 -349.061139 
L 526.337625 -354.226694 
L 526.337625 -359.392248 
L 526.337625 -364.557803 
L 526.337625 -369.723357 
L 526.337625 -374.888912 
L 526.337625 -380.054466 
L 526.337625 -385.220021 
L 526.337625 -390.385575 
L 526.337625 -395.55113 
L 526.337625 -400.716684 
L 526.337625 -405.882239 
L 526.337625 -411.047793 
L 526.337625 -416.213348 
L 526.337625 -421.378902 
L 526.337625 -426.544457 
L 526.337625 -431.710011 
L 526.337625 -436.875566 
L 526.337625 -442.04112 
L 526.337625 -447.206675 
L 526.337625 -452.372229 
L 526.337625 -457.537784 
L 526.337625 -462.703338 
L 526.337625 -467.868893 
L 526.337625 -473.034447 
L 526.337625 -478.200002 
L 526.337625 -483.365556 
L 526.337625 -488.53111 
L 526.337625 -493.696665 
L 526.337625 -498.862219 
L 526.337625 -504.027774 
L 526.337625 -509.193328 
L 526.337625 -514.358883 
L 526.337625 -519.524437 
L 526.337625 -524.689992 
L 526.337625 -529.855546 
L 526.337625 -535.021101 
L 526.337625 -540.186655 
L 526.337625 -545.35221 
L 526.337625 -550.517764 
L 526.337625 -555.683319 
L 526.337625 -560.848873 
L 526.337625 -566.014428 
L 526.337625 -571.179982 
L 526.337625 -576.345537 
L 526.337625 -581.511091 
L 526.337625 -586.676646 
L 526.337625 -591.8422 
L 526.337625 -597.007755 
L 526.337625 -602.173309 
L 526.337625 -607.338864 
L 526.337625 -612.504418 
L 526.337625 -617.669973 
L 526.337625 -622.835527 
L 526.337625 -628.001082 
L 526.337625 -633.166636 
L 526.337625 -638.33219 
L 526.337625 -643.497745 
L 526.337625 -648.663299 
L 526.337625 -653.828854 
L 526.337625 -658.994408 
L 526.337625 -664.159963 
L 526.337625 -669.325517 
L 526.337625 -674.491072 
L 526.337625 -679.656626 
L 526.337625 -684.822181 
L 526.337625 -689.987735 
L 526.337625 -695.15329 
L 526.714594 -695.15329 
L 526.714594 -695.15329 
L 527.023386 -689.987735 
L 527.121733 -684.822181 
L 527.159002 -679.656626 
L 527.161507 -674.491072 
L 527.183708 -669.325517 
L 527.211095 -664.159963 
L 527.22548 -658.994408 
L 527.267521 -653.828854 
L 527.307706 -648.663299 
L 527.333569 -643.497745 
L 527.366829 -638.33219 
L 527.38205 -633.166636 
L 527.412288 -628.001082 
L 527.420152 -622.835527 
L 527.445441 -617.669973 
L 527.505702 -612.504418 
L 527.572159 -607.338864 
L 527.638256 -602.173309 
L 527.684714 -597.007755 
L 527.731128 -591.8422 
L 527.793452 -586.676646 
L 527.854204 -581.511091 
L 527.913635 -576.345537 
L 527.957126 -571.179982 
L 528.004683 -566.014428 
L 528.077964 -560.848873 
L 528.159547 -555.683319 
L 528.256115 -550.517764 
L 528.354391 -545.35221 
L 528.442863 -540.186655 
L 528.529315 -535.021101 
L 528.632375 -529.855546 
L 528.746827 -524.689992 
L 528.878773 -519.524437 
L 529.011596 -514.358883 
L 529.159184 -509.193328 
L 529.282812 -504.027774 
L 529.422789 -498.862219 
L 529.576454 -493.696665 
L 529.765891 -488.53111 
L 529.965593 -483.365556 
L 530.168433 -478.200002 
L 530.375773 -473.034447 
L 530.601553 -467.868893 
L 530.855952 -462.703338 
L 531.112214 -457.537784 
L 531.391343 -452.372229 
L 531.721287 -447.206675 
L 532.070379 -442.04112 
L 532.40029 -436.875566 
L 532.764741 -431.710011 
L 533.193095 -426.544457 
L 533.666995 -421.378902 
L 534.170377 -416.213348 
L 534.666117 -411.047793 
L 535.161519 -405.882239 
L 535.705652 -400.716684 
L 536.32567 -395.55113 
L 537.012932 -390.385575 
L 537.704899 -385.220021 
L 538.435907 -380.054466 
L 539.216768 -374.888912 
L 539.991298 -369.723357 
L 540.883717 -364.557803 
L 541.83908 -359.392248 
L 542.813774 -354.226694 
L 543.843845 -349.061139 
L 544.922803 -343.895585 
L 546.027513 -338.73003 
L 547.242078 -333.564476 
L 548.605362 -328.398922 
L 550.026299 -323.233367 
L 551.454605 -318.067813 
L 552.942045 -312.902258 
L 554.558976 -307.736704 
L 556.189041 -302.571149 
L 557.922449 -297.405595 
L 559.808789 -292.24004 
L 561.747684 -287.074486 
L 563.746966 -281.908931 
L 565.793168 -276.743377 
L 567.904764 -271.577822 
L 570.135255 -266.412268 
L 572.416751 -261.246713 
L 574.696967 -256.081159 
L 577.007625 -250.915604 
L 579.411931 -245.75005 
L 581.793774 -240.584495 
L 584.246688 -235.418941 
L 586.716471 -230.253386 
L 588.937269 -225.087832 
L 590.999555 -219.922277 
L 592.983503 -214.756723 
L 594.197345 -209.591168 
L 591.66704 -204.425614 
L 580.449836 -199.260059 
L 559.642192 -194.094505 
L 538.640386 -188.92895 
L 528.421498 -183.763396 
z
" style="stroke: #6d6d6d; stroke-opacity: 0.9; stroke-width: 1.25"/>
    </defs>
    <g clip-path="url(#p8c6da49f55)">
     <use xlink:href="#md5ed43b845" x="0" y="770.741813" style="fill: #c0dca9; fill-opacity: 0.9; stroke: #6d6d6d; stroke-opacity: 0.9; stroke-width: 1.25"/>
    </g>
   </g>
   <g id="FillBetweenPolyCollection_7">
    <defs>
     <path id="m16df9a178a" d="M 705.566425 -178.378195 
L 705.327467 -178.378195 
L 705.018491 -183.598128 
L 704.694485 -188.818062 
L 704.47728 -194.037995 
L 704.371499 -199.257929 
L 704.333379 -204.477862 
L 704.335378 -209.697795 
L 704.371535 -214.917729 
L 704.440612 -220.137662 
L 704.52725 -225.357596 
L 704.616189 -230.577529 
L 704.704616 -235.797463 
L 704.793346 -241.017396 
L 704.878966 -246.23733 
L 704.957833 -251.457263 
L 705.030142 -256.677197 
L 705.095236 -261.89713 
L 705.154307 -267.117063 
L 705.20918 -272.336997 
L 705.255719 -277.55693 
L 705.291817 -282.776864 
L 705.322469 -287.996797 
L 705.351754 -293.216731 
L 705.378927 -298.436664 
L 705.40317 -303.656598 
L 705.423982 -308.876531 
L 705.440493 -314.096465 
L 705.453345 -319.316398 
L 705.463904 -324.536331 
L 705.472759 -329.756265 
L 705.481036 -334.976198 
L 705.489361 -340.196132 
L 705.497636 -345.416065 
L 705.506205 -350.635999 
L 705.514085 -355.855932 
L 705.519661 -361.075866 
L 705.523369 -366.295799 
L 705.526944 -371.515733 
L 705.530987 -376.735666 
L 705.534262 -381.955599 
L 705.536539 -387.175533 
L 705.539008 -392.395466 
L 705.541927 -397.6154 
L 705.544862 -402.835333 
L 705.547458 -408.055267 
L 705.549464 -413.2752 
L 705.550725 -418.495134 
L 705.551579 -423.715067 
L 705.552468 -428.935001 
L 705.553479 -434.154934 
L 705.554504 -439.374867 
L 705.555245 -444.594801 
L 705.555378 -449.814734 
L 705.555319 -455.034668 
L 705.55597 -460.254601 
L 705.556992 -465.474535 
L 705.557605 -470.694468 
L 705.558026 -475.914402 
L 705.558505 -481.134335 
L 705.558746 -486.354268 
L 705.558797 -491.574202 
L 705.559032 -496.794135 
L 705.559328 -502.014069 
L 705.559504 -507.234002 
L 705.559743 -512.453936 
L 705.560093 -517.673869 
L 705.560043 -522.893803 
L 705.55942 -528.113736 
L 705.55899 -533.33367 
L 705.559203 -538.553603 
L 705.559747 -543.773536 
L 705.560239 -548.99347 
L 705.560535 -554.213403 
L 705.560703 -559.433337 
L 705.560928 -564.65327 
L 705.561225 -569.873204 
L 705.561375 -575.093137 
L 705.561372 -580.313071 
L 705.561338 -585.533004 
L 705.561262 -590.752938 
L 705.561184 -595.972871 
L 705.561088 -601.192804 
L 705.560891 -606.412738 
L 705.56083 -611.632671 
L 705.56102 -616.852605 
L 705.561199 -622.072538 
L 705.561364 -627.292472 
L 705.561662 -632.512405 
L 705.561963 -637.732339 
L 705.56209 -642.952272 
L 705.561811 -648.172206 
L 705.56112 -653.392139 
L 705.560593 -658.612072 
L 705.560545 -663.832006 
L 705.560658 -669.051939 
L 705.560432 -674.271873 
L 705.560151 -679.491806 
L 705.560414 -684.71174 
L 705.561553 -689.931673 
L 705.563496 -695.151607 
L 705.566425 -695.151607 
L 705.566425 -695.151607 
L 705.566425 -689.931673 
L 705.566425 -684.71174 
L 705.566425 -679.491806 
L 705.566425 -674.271873 
L 705.566425 -669.051939 
L 705.566425 -663.832006 
L 705.566425 -658.612072 
L 705.566425 -653.392139 
L 705.566425 -648.172206 
L 705.566425 -642.952272 
L 705.566425 -637.732339 
L 705.566425 -632.512405 
L 705.566425 -627.292472 
L 705.566425 -622.072538 
L 705.566425 -616.852605 
L 705.566425 -611.632671 
L 705.566425 -606.412738 
L 705.566425 -601.192804 
L 705.566425 -595.972871 
L 705.566425 -590.752938 
L 705.566425 -585.533004 
L 705.566425 -580.313071 
L 705.566425 -575.093137 
L 705.566425 -569.873204 
L 705.566425 -564.65327 
L 705.566425 -559.433337 
L 705.566425 -554.213403 
L 705.566425 -548.99347 
L 705.566425 -543.773536 
L 705.566425 -538.553603 
L 705.566425 -533.33367 
L 705.566425 -528.113736 
L 705.566425 -522.893803 
L 705.566425 -517.673869 
L 705.566425 -512.453936 
L 705.566425 -507.234002 
L 705.566425 -502.014069 
L 705.566425 -496.794135 
L 705.566425 -491.574202 
L 705.566425 -486.354268 
L 705.566425 -481.134335 
L 705.566425 -475.914402 
L 705.566425 -470.694468 
L 705.566425 -465.474535 
L 705.566425 -460.254601 
L 705.566425 -455.034668 
L 705.566425 -449.814734 
L 705.566425 -444.594801 
L 705.566425 -439.374867 
L 705.566425 -434.154934 
L 705.566425 -428.935001 
L 705.566425 -423.715067 
L 705.566425 -418.495134 
L 705.566425 -413.2752 
L 705.566425 -408.055267 
L 705.566425 -402.835333 
L 705.566425 -397.6154 
L 705.566425 -392.395466 
L 705.566425 -387.175533 
L 705.566425 -381.955599 
L 705.566425 -376.735666 
L 705.566425 -371.515733 
L 705.566425 -366.295799 
L 705.566425 -361.075866 
L 705.566425 -355.855932 
L 705.566425 -350.635999 
L 705.566425 -345.416065 
L 705.566425 -340.196132 
L 705.566425 -334.976198 
L 705.566425 -329.756265 
L 705.566425 -324.536331 
L 705.566425 -319.316398 
L 705.566425 -314.096465 
L 705.566425 -308.876531 
L 705.566425 -303.656598 
L 705.566425 -298.436664 
L 705.566425 -293.216731 
L 705.566425 -287.996797 
L 705.566425 -282.776864 
L 705.566425 -277.55693 
L 705.566425 -272.336997 
L 705.566425 -267.117063 
L 705.566425 -261.89713 
L 705.566425 -256.677197 
L 705.566425 -251.457263 
L 705.566425 -246.23733 
L 705.566425 -241.017396 
L 705.566425 -235.797463 
L 705.566425 -230.577529 
L 705.566425 -225.357596 
L 705.566425 -220.137662 
L 705.566425 -214.917729 
L 705.566425 -209.697795 
L 705.566425 -204.477862 
L 705.566425 -199.257929 
L 705.566425 -194.037995 
L 705.566425 -188.818062 
L 705.566425 -183.598128 
L 705.566425 -178.378195 
z
" style="stroke: #6d6d6d; stroke-opacity: 0.9; stroke-width: 1.25"/>
    </defs>
    <g clip-path="url(#p8c6da49f55)">
     <use xlink:href="#m16df9a178a" x="0" y="770.741813" style="fill: #ecbd81; fill-opacity: 0.9; stroke: #6d6d6d; stroke-opacity: 0.9; stroke-width: 1.25"/>
    </g>
   </g>
   <g id="FillBetweenPolyCollection_8">
    <defs>
     <path id="md0658d0b14" d="M 706.885372 -185.116778 
L 705.566425 -185.116778 
L 705.566425 -190.268672 
L 705.566425 -195.420566 
L 705.566425 -200.57246 
L 705.566425 -205.724354 
L 705.566425 -210.876248 
L 705.566425 -216.028142 
L 705.566425 -221.180036 
L 705.566425 -226.33193 
L 705.566425 -231.483824 
L 705.566425 -236.635718 
L 705.566425 -241.787612 
L 705.566425 -246.939506 
L 705.566425 -252.0914 
L 705.566425 -257.243294 
L 705.566425 -262.395188 
L 705.566425 -267.547081 
L 705.566425 -272.698975 
L 705.566425 -277.850869 
L 705.566425 -283.002763 
L 705.566425 -288.154657 
L 705.566425 -293.306551 
L 705.566425 -298.458445 
L 705.566425 -303.610339 
L 705.566425 -308.762233 
L 705.566425 -313.914127 
L 705.566425 -319.066021 
L 705.566425 -324.217915 
L 705.566425 -329.369809 
L 705.566425 -334.521703 
L 705.566425 -339.673597 
L 705.566425 -344.825491 
L 705.566425 -349.977385 
L 705.566425 -355.129279 
L 705.566425 -360.281173 
L 705.566425 -365.433067 
L 705.566425 -370.584961 
L 705.566425 -375.736855 
L 705.566425 -380.888749 
L 705.566425 -386.040643 
L 705.566425 -391.192537 
L 705.566425 -396.344431 
L 705.566425 -401.496325 
L 705.566425 -406.648219 
L 705.566425 -411.800113 
L 705.566425 -416.952007 
L 705.566425 -422.1039 
L 705.566425 -427.255794 
L 705.566425 -432.407688 
L 705.566425 -437.559582 
L 705.566425 -442.711476 
L 705.566425 -447.86337 
L 705.566425 -453.015264 
L 705.566425 -458.167158 
L 705.566425 -463.319052 
L 705.566425 -468.470946 
L 705.566425 -473.62284 
L 705.566425 -478.774734 
L 705.566425 -483.926628 
L 705.566425 -489.078522 
L 705.566425 -494.230416 
L 705.566425 -499.38231 
L 705.566425 -504.534204 
L 705.566425 -509.686098 
L 705.566425 -514.837992 
L 705.566425 -519.989886 
L 705.566425 -525.14178 
L 705.566425 -530.293674 
L 705.566425 -535.445568 
L 705.566425 -540.597462 
L 705.566425 -545.749356 
L 705.566425 -550.90125 
L 705.566425 -556.053144 
L 705.566425 -561.205038 
L 705.566425 -566.356932 
L 705.566425 -571.508826 
L 705.566425 -576.660719 
L 705.566425 -581.812613 
L 705.566425 -586.964507 
L 705.566425 -592.116401 
L 705.566425 -597.268295 
L 705.566425 -602.420189 
L 705.566425 -607.572083 
L 705.566425 -612.723977 
L 705.566425 -617.875871 
L 705.566425 -623.027765 
L 705.566425 -628.179659 
L 705.566425 -633.331553 
L 705.566425 -638.483447 
L 705.566425 -643.635341 
L 705.566425 -648.787235 
L 705.566425 -653.939129 
L 705.566425 -659.091023 
L 705.566425 -664.242917 
L 705.566425 -669.394811 
L 705.566425 -674.546705 
L 705.566425 -679.698599 
L 705.566425 -684.850493 
L 705.566425 -690.002387 
L 705.566425 -695.154281 
L 705.654925 -695.154281 
L 705.654925 -695.154281 
L 705.705161 -690.002387 
L 705.735437 -684.850493 
L 705.746655 -679.698599 
L 705.752196 -674.546705 
L 705.759321 -669.394811 
L 705.767158 -664.242917 
L 705.772464 -659.091023 
L 705.774767 -653.939129 
L 705.776718 -648.787235 
L 705.780521 -643.635341 
L 705.786336 -638.483447 
L 705.792684 -633.331553 
L 705.797558 -628.179659 
L 705.801648 -623.027765 
L 705.807228 -617.875871 
L 705.814298 -612.723977 
L 705.821396 -607.572083 
L 705.827971 -602.420189 
L 705.834947 -597.268295 
L 705.843405 -592.116401 
L 705.85266 -586.964507 
L 705.860665 -581.812613 
L 705.867103 -576.660719 
L 705.874476 -571.508826 
L 705.884912 -566.356932 
L 705.897221 -561.205038 
L 705.90737 -556.053144 
L 705.914312 -550.90125 
L 705.922624 -545.749356 
L 705.933973 -540.597462 
L 705.944545 -535.445568 
L 705.952578 -530.293674 
L 705.961395 -525.14178 
L 705.975343 -519.989886 
L 705.995177 -514.837992 
L 706.018121 -509.686098 
L 706.039654 -504.534204 
L 706.057407 -499.38231 
L 706.07355 -494.230416 
L 706.090737 -489.078522 
L 706.110167 -483.926628 
L 706.132358 -478.774734 
L 706.155782 -473.62284 
L 706.178346 -468.470946 
L 706.200665 -463.319052 
L 706.225748 -458.167158 
L 706.255086 -453.015264 
L 706.286883 -447.86337 
L 706.320414 -442.711476 
L 706.357154 -437.559582 
L 706.397384 -432.407688 
L 706.440214 -427.255794 
L 706.484184 -422.1039 
L 706.527711 -416.952007 
L 706.572593 -411.800113 
L 706.622148 -406.648219 
L 706.675584 -401.496325 
L 706.730293 -396.344431 
L 706.785858 -391.192537 
L 706.844199 -386.040643 
L 706.909277 -380.888749 
L 706.982526 -375.736855 
L 707.059532 -370.584961 
L 707.139337 -365.433067 
L 707.229258 -360.281173 
L 707.331903 -355.129279 
L 707.441019 -349.977385 
L 707.550992 -344.825491 
L 707.66148 -339.673597 
L 707.778024 -334.521703 
L 707.907871 -329.369809 
L 708.05442 -324.217915 
L 708.215416 -319.066021 
L 708.384305 -313.914127 
L 708.559511 -308.762233 
L 708.743983 -303.610339 
L 708.934089 -298.458445 
L 709.132394 -293.306551 
L 709.355179 -288.154657 
L 709.605686 -283.002763 
L 709.870376 -277.850869 
L 710.14658 -272.698975 
L 710.440891 -267.547081 
L 710.752205 -262.395188 
L 711.085787 -257.243294 
L 711.455001 -252.0914 
L 711.85 -246.939506 
L 712.241828 -241.787612 
L 712.62263 -236.635718 
L 713.012448 -231.483824 
L 713.425454 -226.33193 
L 713.8389 -221.180036 
L 714.184742 -216.028142 
L 714.320403 -210.876248 
L 713.979896 -205.724354 
L 712.855307 -200.57246 
L 710.910002 -195.420566 
L 708.657485 -190.268672 
L 706.885372 -185.116778 
z
" style="stroke: #6d6d6d; stroke-opacity: 0.9; stroke-width: 1.25"/>
    </defs>
    <g clip-path="url(#p8c6da49f55)">
     <use xlink:href="#md0658d0b14" x="0" y="770.741813" style="fill: #c0dca9; fill-opacity: 0.9; stroke: #6d6d6d; stroke-opacity: 0.9; stroke-width: 1.25"/>
    </g>
   </g>
   <g id="FillBetweenPolyCollection_9">
    <defs>
     <path id="m996a7380ad" d="M 884.795225 -178.433998 
L 884.752013 -178.433998 
L 884.667715 -183.611618 
L 884.558712 -188.789238 
L 884.477566 -193.966859 
L 884.437723 -199.144479 
L 884.427355 -204.322099 
L 884.440714 -209.49972 
L 884.468739 -214.67734 
L 884.500685 -219.85496 
L 884.531611 -225.032581 
L 884.56066 -230.210201 
L 884.589309 -235.387821 
L 884.617446 -240.565441 
L 884.641503 -245.743062 
L 884.661276 -250.920682 
L 884.678663 -256.098302 
L 884.694207 -261.275923 
L 884.707041 -266.453543 
L 884.718069 -271.631163 
L 884.727581 -276.808783 
L 884.735269 -281.986404 
L 884.743168 -287.164024 
L 884.751048 -292.341644 
L 884.756849 -297.519265 
L 884.760722 -302.696885 
L 884.764603 -307.874505 
L 884.769017 -313.052126 
L 884.772538 -318.229746 
L 884.775039 -323.407366 
L 884.776918 -328.584986 
L 884.778681 -333.762607 
L 884.781016 -338.940227 
L 884.782941 -344.117847 
L 884.783823 -349.295468 
L 884.784464 -354.473088 
L 884.785461 -359.650708 
L 884.786453 -364.828328 
L 884.787163 -370.005949 
L 884.78808 -375.183569 
L 884.789111 -380.361189 
L 884.789928 -385.53881 
L 884.790527 -390.71643 
L 884.791128 -395.89405 
L 884.791717 -401.071671 
L 884.792235 -406.249291 
L 884.792788 -411.426911 
L 884.793086 -416.604531 
L 884.792994 -421.782152 
L 884.79289 -426.959772 
L 884.793144 -432.137392 
L 884.793584 -437.315013 
L 884.793778 -442.492633 
L 884.793655 -447.670253 
L 884.79375 -452.847873 
L 884.794014 -458.025494 
L 884.794207 -463.203114 
L 884.794507 -468.380734 
L 884.794724 -473.558355 
L 884.794703 -478.735975 
L 884.794611 -483.913595 
L 884.794643 -489.091216 
L 884.794821 -494.268836 
L 884.794959 -499.446456 
L 884.794977 -504.624076 
L 884.794962 -509.801697 
L 884.795004 -514.979317 
L 884.795042 -520.156937 
L 884.795041 -525.334558 
L 884.79509 -530.512178 
L 884.795161 -535.689798 
L 884.795147 -540.867419 
L 884.795069 -546.045039 
L 884.795024 -551.222659 
L 884.795011 -556.400279 
L 884.79502 -561.5779 
L 884.795071 -566.75552 
L 884.795153 -571.93314 
L 884.795203 -577.110761 
L 884.795196 -582.288381 
L 884.795162 -587.466001 
L 884.795164 -592.643621 
L 884.795199 -597.821242 
L 884.795206 -602.998862 
L 884.795175 -608.176482 
L 884.795157 -613.354103 
L 884.795186 -618.531723 
L 884.795216 -623.709343 
L 884.795223 -628.886964 
L 884.795216 -634.064584 
L 884.795188 -639.242204 
L 884.795158 -644.419824 
L 884.795173 -649.597445 
L 884.795203 -654.775065 
L 884.795193 -659.952685 
L 884.795153 -665.130306 
L 884.79513 -670.307926 
L 884.795134 -675.485546 
L 884.795158 -680.663166 
L 884.795164 -685.840787 
L 884.795154 -691.018407 
L 884.795225 -691.018407 
L 884.795225 -691.018407 
L 884.795225 -685.840787 
L 884.795225 -680.663166 
L 884.795225 -675.485546 
L 884.795225 -670.307926 
L 884.795225 -665.130306 
L 884.795225 -659.952685 
L 884.795225 -654.775065 
L 884.795225 -649.597445 
L 884.795225 -644.419824 
L 884.795225 -639.242204 
L 884.795225 -634.064584 
L 884.795225 -628.886964 
L 884.795225 -623.709343 
L 884.795225 -618.531723 
L 884.795225 -613.354103 
L 884.795225 -608.176482 
L 884.795225 -602.998862 
L 884.795225 -597.821242 
L 884.795225 -592.643621 
L 884.795225 -587.466001 
L 884.795225 -582.288381 
L 884.795225 -577.110761 
L 884.795225 -571.93314 
L 884.795225 -566.75552 
L 884.795225 -561.5779 
L 884.795225 -556.400279 
L 884.795225 -551.222659 
L 884.795225 -546.045039 
L 884.795225 -540.867419 
L 884.795225 -535.689798 
L 884.795225 -530.512178 
L 884.795225 -525.334558 
L 884.795225 -520.156937 
L 884.795225 -514.979317 
L 884.795225 -509.801697 
L 884.795225 -504.624076 
L 884.795225 -499.446456 
L 884.795225 -494.268836 
L 884.795225 -489.091216 
L 884.795225 -483.913595 
L 884.795225 -478.735975 
L 884.795225 -473.558355 
L 884.795225 -468.380734 
L 884.795225 -463.203114 
L 884.795225 -458.025494 
L 884.795225 -452.847873 
L 884.795225 -447.670253 
L 884.795225 -442.492633 
L 884.795225 -437.315013 
L 884.795225 -432.137392 
L 884.795225 -426.959772 
L 884.795225 -421.782152 
L 884.795225 -416.604531 
L 884.795225 -411.426911 
L 884.795225 -406.249291 
L 884.795225 -401.071671 
L 884.795225 -395.89405 
L 884.795225 -390.71643 
L 884.795225 -385.53881 
L 884.795225 -380.361189 
L 884.795225 -375.183569 
L 884.795225 -370.005949 
L 884.795225 -364.828328 
L 884.795225 -359.650708 
L 884.795225 -354.473088 
L 884.795225 -349.295468 
L 884.795225 -344.117847 
L 884.795225 -338.940227 
L 884.795225 -333.762607 
L 884.795225 -328.584986 
L 884.795225 -323.407366 
L 884.795225 -318.229746 
L 884.795225 -313.052126 
L 884.795225 -307.874505 
L 884.795225 -302.696885 
L 884.795225 -297.519265 
L 884.795225 -292.341644 
L 884.795225 -287.164024 
L 884.795225 -281.986404 
L 884.795225 -276.808783 
L 884.795225 -271.631163 
L 884.795225 -266.453543 
L 884.795225 -261.275923 
L 884.795225 -256.098302 
L 884.795225 -250.920682 
L 884.795225 -245.743062 
L 884.795225 -240.565441 
L 884.795225 -235.387821 
L 884.795225 -230.210201 
L 884.795225 -225.032581 
L 884.795225 -219.85496 
L 884.795225 -214.67734 
L 884.795225 -209.49972 
L 884.795225 -204.322099 
L 884.795225 -199.144479 
L 884.795225 -193.966859 
L 884.795225 -188.789238 
L 884.795225 -183.611618 
L 884.795225 -178.433998 
z
" style="stroke: #6d6d6d; stroke-opacity: 0.9; stroke-width: 1.25"/>
    </defs>
    <g clip-path="url(#p8c6da49f55)">
     <use xlink:href="#m996a7380ad" x="0" y="770.741813" style="fill: #ecbd81; fill-opacity: 0.9; stroke: #6d6d6d; stroke-opacity: 0.9; stroke-width: 1.25"/>
    </g>
   </g>
   <g id="patch_3">
    <path d="M 167.880025 596.915948 
L 167.880025 596.915948 
L 167.880025 596.915948 
L 167.880025 596.915948 
z
" clip-path="url(#p8c6da49f55)" style="fill: #ecbd81; opacity: 0.9; stroke: #6d6d6d; stroke-width: 1.25; stroke-linejoin: miter"/>
   </g>
   <g id="patch_4">
    <path d="M 167.880025 596.915948 
L 167.880025 596.915948 
L 167.880025 596.915948 
L 167.880025 596.915948 
z
" clip-path="url(#p8c6da49f55)" style="fill: #c0dca9; opacity: 0.9; stroke: #6d6d6d; stroke-width: 1.25; stroke-linejoin: miter"/>
   </g>
   <g id="line2d_10">
    <path d="M 165.067525 595.201347 
L 165.067525 399.455008 
" clip-path="url(#p8c6da49f55)" style="fill: none; stroke: #6d6d6d; stroke-width: 1.875; stroke-linecap: round"/>
   </g>
   <g id="line2d_11">
    <path d="M 165.067525 546.166975 
L 165.067525 487.482117 
" clip-path="url(#p8c6da49f55)" style="fill: none; stroke: #6d6d6d; stroke-width: 5.625; stroke-linecap: round"/>
   </g>
   <g id="line2d_12">
    <path d="M 165.067525 520.55491 
" clip-path="url(#p8c6da49f55)" style="fill: none; stroke: #6d6d6d; stroke-width: 1.5; stroke-linecap: round"/>
    <defs>
     <path id="m8aa9de64af" d="M 2.34375 0 
L -2.34375 -0 
" style="stroke: #ffffff; stroke-width: 1.125"/>
    </defs>
    <g clip-path="url(#p8c6da49f55)">
     <use xlink:href="#m8aa9de64af" x="165.067525" y="520.55491" style="fill: #ffffff; stroke: #ffffff; stroke-width: 1.125"/>
    </g>
   </g>
   <g id="line2d_13">
    <path d="M 170.692525 585.323509 
L 170.692525 218.418617 
" clip-path="url(#p8c6da49f55)" style="fill: none; stroke: #6d6d6d; stroke-width: 1.875; stroke-linecap: round"/>
   </g>
   <g id="line2d_14">
    <path d="M 170.692525 513.381585 
L 170.692525 395.396383 
" clip-path="url(#p8c6da49f55)" style="fill: none; stroke: #6d6d6d; stroke-width: 5.625; stroke-linecap: round"/>
   </g>
   <g id="line2d_15">
    <path d="M 170.692525 465.221438 
" clip-path="url(#p8c6da49f55)" style="fill: none; stroke: #6d6d6d; stroke-width: 1.5; stroke-linecap: round"/>
    <g clip-path="url(#p8c6da49f55)">
     <use xlink:href="#m8aa9de64af" x="170.692525" y="465.221438" style="fill: #ffffff; stroke: #ffffff; stroke-width: 1.125"/>
    </g>
   </g>
   <g id="line2d_16">
    <path d="M 344.296325 594.054173 
L 344.296325 466.058247 
" clip-path="url(#p8c6da49f55)" style="fill: none; stroke: #6d6d6d; stroke-width: 1.875; stroke-linecap: round"/>
   </g>
   <g id="line2d_17">
    <path d="M 344.296325 570.097803 
L 344.296325 528.481729 
" clip-path="url(#p8c6da49f55)" style="fill: none; stroke: #6d6d6d; stroke-width: 5.625; stroke-linecap: round"/>
   </g>
   <g id="line2d_18">
    <path d="M 344.296325 553.670289 
" clip-path="url(#p8c6da49f55)" style="fill: none; stroke: #6d6d6d; stroke-width: 1.5; stroke-linecap: round"/>
    <g clip-path="url(#p8c6da49f55)">
     <use xlink:href="#m8aa9de64af" x="344.296325" y="553.670289" style="fill: #ffffff; stroke: #ffffff; stroke-width: 1.125"/>
    </g>
   </g>
   <g id="line2d_19">
    <path d="M 349.921325 586.854709 
L 349.921325 269.12554 
" clip-path="url(#p8c6da49f55)" style="fill: none; stroke: #6d6d6d; stroke-width: 1.875; stroke-linecap: round"/>
   </g>
   <g id="line2d_20">
    <path d="M 349.921325 537.154907 
L 349.921325 429.942158 
" clip-path="url(#p8c6da49f55)" style="fill: none; stroke: #6d6d6d; stroke-width: 5.625; stroke-linecap: round"/>
   </g>
   <g id="line2d_21">
    <path d="M 349.921325 492.949352 
" clip-path="url(#p8c6da49f55)" style="fill: none; stroke: #6d6d6d; stroke-width: 1.5; stroke-linecap: round"/>
    <g clip-path="url(#p8c6da49f55)">
     <use xlink:href="#m8aa9de64af" x="349.921325" y="492.949352" style="fill: #ffffff; stroke: #ffffff; stroke-width: 1.125"/>
    </g>
   </g>
   <g id="line2d_22">
    <path d="M 523.525125 592.886541 
L 523.525125 455.473739 
" clip-path="url(#p8c6da49f55)" style="fill: none; stroke: #6d6d6d; stroke-width: 1.875; stroke-linecap: round"/>
   </g>
   <g id="line2d_23">
    <path d="M 523.525125 568.325784 
L 523.525125 523.184127 
" clip-path="url(#p8c6da49f55)" style="fill: none; stroke: #6d6d6d; stroke-width: 5.625; stroke-linecap: round"/>
   </g>
   <g id="line2d_24">
    <path d="M 523.525125 550.153596 
" clip-path="url(#p8c6da49f55)" style="fill: none; stroke: #6d6d6d; stroke-width: 1.5; stroke-linecap: round"/>
    <g clip-path="url(#p8c6da49f55)">
     <use xlink:href="#m8aa9de64af" x="523.525125" y="550.153596" style="fill: #ffffff; stroke: #ffffff; stroke-width: 1.125"/>
    </g>
   </g>
   <g id="line2d_25">
    <path d="M 529.150125 586.978417 
L 529.150125 299.762967 
" clip-path="url(#p8c6da49f55)" style="fill: none; stroke: #6d6d6d; stroke-width: 1.875; stroke-linecap: round"/>
   </g>
   <g id="line2d_26">
    <path d="M 529.150125 545.917451 
L 529.150125 447.455567 
" clip-path="url(#p8c6da49f55)" style="fill: none; stroke: #6d6d6d; stroke-width: 5.625; stroke-linecap: round"/>
   </g>
   <g id="line2d_27">
    <path d="M 529.150125 508.14582 
" clip-path="url(#p8c6da49f55)" style="fill: none; stroke: #6d6d6d; stroke-width: 1.5; stroke-linecap: round"/>
    <g clip-path="url(#p8c6da49f55)">
     <use xlink:href="#m8aa9de64af" x="529.150125" y="508.14582" style="fill: #ffffff; stroke: #ffffff; stroke-width: 1.125"/>
    </g>
   </g>
   <g id="line2d_28">
    <path d="M 702.753925 592.363618 
L 702.753925 439.295713 
" clip-path="url(#p8c6da49f55)" style="fill: none; stroke: #6d6d6d; stroke-width: 1.875; stroke-linecap: round"/>
   </g>
   <g id="line2d_29">
    <path d="M 702.753925 566.230313 
L 702.753925 515.452821 
" clip-path="url(#p8c6da49f55)" style="fill: none; stroke: #6d6d6d; stroke-width: 5.625; stroke-linecap: round"/>
   </g>
   <g id="line2d_30">
    <path d="M 702.753925 546.01064 
" clip-path="url(#p8c6da49f55)" style="fill: none; stroke: #6d6d6d; stroke-width: 1.5; stroke-linecap: round"/>
    <g clip-path="url(#p8c6da49f55)">
     <use xlink:href="#m8aa9de64af" x="702.753925" y="546.01064" style="fill: #ffffff; stroke: #ffffff; stroke-width: 1.125"/>
    </g>
   </g>
   <g id="line2d_31">
    <path d="M 708.378925 585.625034 
L 708.378925 286.060423 
" clip-path="url(#p8c6da49f55)" style="fill: none; stroke: #6d6d6d; stroke-width: 1.875; stroke-linecap: round"/>
   </g>
   <g id="line2d_32">
    <path d="M 708.378925 548.988852 
L 708.378925 443.815576 
" clip-path="url(#p8c6da49f55)" style="fill: none; stroke: #6d6d6d; stroke-width: 5.625; stroke-linecap: round"/>
   </g>
   <g id="line2d_33">
    <path d="M 708.378925 511.903125 
" clip-path="url(#p8c6da49f55)" style="fill: none; stroke: #6d6d6d; stroke-width: 1.5; stroke-linecap: round"/>
    <g clip-path="url(#p8c6da49f55)">
     <use xlink:href="#m8aa9de64af" x="708.378925" y="511.903125" style="fill: #ffffff; stroke: #ffffff; stroke-width: 1.125"/>
    </g>
   </g>
   <g id="line2d_34">
    <path d="M 881.982725 592.307815 
L 881.982725 459.459295 
" clip-path="url(#p8c6da49f55)" style="fill: none; stroke: #6d6d6d; stroke-width: 1.875; stroke-linecap: round"/>
   </g>
   <g id="line2d_35">
    <path d="M 881.982725 568.237892 
L 881.982725 524.709902 
" clip-path="url(#p8c6da49f55)" style="fill: none; stroke: #6d6d6d; stroke-width: 5.625; stroke-linecap: round"/>
   </g>
   <g id="line2d_36">
    <path d="M 881.982725 551.439607 
" clip-path="url(#p8c6da49f55)" style="fill: none; stroke: #6d6d6d; stroke-width: 1.5; stroke-linecap: round"/>
    <g clip-path="url(#p8c6da49f55)">
     <use xlink:href="#m8aa9de64af" x="881.982725" y="551.439607" style="fill: #ffffff; stroke: #ffffff; stroke-width: 1.125"/>
    </g>
   </g>
   <g id="patch_5">
    <path d="M 78.265625 621.182437 
L 78.265625 49.598438 
" style="fill: none; stroke: #cccccc; stroke-width: 1.25; stroke-linejoin: miter; stroke-linecap: square"/>
   </g>
   <g id="patch_6">
    <path d="M 974.409625 621.182437 
L 974.409625 49.598438 
" style="fill: none; stroke: #cccccc; stroke-width: 1.25; stroke-linejoin: miter; stroke-linecap: square"/>
   </g>
   <g id="patch_7">
    <path d="M 78.265625 621.182437 
L 974.409625 621.182437 
" style="fill: none; stroke: #cccccc; stroke-width: 1.25; stroke-linejoin: miter; stroke-linecap: square"/>
   </g>
   <g id="patch_8">
    <path d="M 78.265625 49.598438 
L 974.409625 49.598438 
" style="fill: none; stroke: #cccccc; stroke-width: 1.25; stroke-linejoin: miter; stroke-linecap: square"/>
   </g>
   <g id="text_17">
    <text style="font-size: 10px; font-family: 'Arial', 'DejaVu Sans', 'Liberation Sans', 'Bitstream Vera Sans', sans-serif; text-anchor: middle; fill: #262626" x="526.337625" y="43.598438" transform="rotate(-0 526.337625 43.598438)">Split violin plot of distances by Level One Cell Type (Density Normalization: count)</text>
   </g>
   <g id="legend_1">
    <g id="patch_9">
     <path d="M 987.751538 86.954688 
L 1101.831225 86.954688 
Q 1103.831225 86.954688 1103.831225 84.954688 
L 1103.831225 56.598438 
Q 1103.831225 54.598438 1101.831225 54.598438 
L 987.751538 54.598438 
Q 985.751538 54.598438 985.751538 56.598438 
L 985.751538 84.954688 
Q 985.751538 86.954688 987.751538 86.954688 
z
" style="fill: #ffffff; opacity: 0.8; stroke: #cccccc; stroke-width: 0.8; stroke-linejoin: miter"/>
    </g>
    <g id="patch_10">
     <path d="M 989.751538 66.196875 
L 1009.751538 66.196875 
L 1009.751538 59.196875 
L 989.751538 59.196875 
z
" style="fill: #ecbd81; opacity: 0.9; stroke: #6d6d6d; stroke-width: 1.25; stroke-linejoin: miter"/>
    </g>
    <g id="text_18">
     <text style="font-size: 10px; font-family: 'Arial', 'DejaVu Sans', 'Liberation Sans', 'Bitstream Vera Sans', sans-serif; text-anchor: start; fill: #262626" x="1017.751538" y="66.196875" transform="rotate(-0 1017.751538 66.196875)">xenium-stanford</text>
    </g>
    <g id="patch_11">
     <path d="M 989.751538 80.875 
L 1009.751538 80.875 
L 1009.751538 73.875 
L 989.751538 73.875 
z
" style="fill: #c0dca9; opacity: 0.9; stroke: #6d6d6d; stroke-width: 1.25; stroke-linejoin: miter"/>
    </g>
    <g id="text_19">
     <text style="font-size: 10px; font-family: 'Arial', 'DejaVu Sans', 'Liberation Sans', 'Bitstream Vera Sans', sans-serif; text-anchor: start; fill: #262626" x="1017.751538" y="80.875" transform="rotate(-0 1017.751538 80.875)">cycif-sorgerlab</text>
    </g>
   </g>
  </g>
 </g>
 <defs>
  <clipPath id="p8c6da49f55">
   <rect x="78.265625" y="49.598438" width="896.144" height="571.584"/>
  </clipPath>
 </defs>
</svg>
