<?xml version="1.0" encoding="utf-8" standalone="no"?>
<!DOCTYPE svg PUBLIC "-//W3C//DTD SVG 1.1//EN"
  "http://www.w3.org/Graphics/SVG/1.1/DTD/svg11.dtd">
<svg xmlns:xlink="http://www.w3.org/1999/xlink" width="765.775625pt" height="1173.6pt" viewBox="0 0 765.775625 1173.6" xmlns="http://www.w3.org/2000/svg" version="1.1">
 <metadata>
  <rdf:RDF xmlns:dc="http://purl.org/dc/elements/1.1/" xmlns:cc="http://creativecommons.org/ns#" xmlns:rdf="http://www.w3.org/1999/02/22-rdf-syntax-ns#">
   <cc:Work>
    <dc:type rdf:resource="http://purl.org/dc/dcmitype/StillImage"/>
    <dc:date>2025-07-25T12:55:59.989422</dc:date>
    <dc:format>image/svg+xml</dc:format>
    <dc:creator>
     <cc:Agent>
      <dc:title>Matplotlib v3.10.3, https://matplotlib.org/</dc:title>
     </cc:Agent>
    </dc:creator>
   </cc:Work>
  </rdf:RDF>
 </metadata>
 <defs>
  <style type="text/css">*{stroke-linejoin: round; stroke-linecap: butt}</style>
 </defs>
 <g id="figure_1">
  <g id="patch_1">
   <path d="M 0 1173.6 
L 765.775625 1173.6 
L 765.775625 0 
L 0 0 
z
" style="fill: #ffffff"/>
  </g>
  <g id="axes_1">
   <g id="patch_2">
    <path d="M 78.265625 531.38 
L 729.775625 531.38 
L 729.775625 86.28 
L 78.265625 86.28 
z
" style="fill: #ffffff"/>
   </g>
   <g id="matplotlib.axis_1">
    <g id="xtick_1"/>
    <g id="xtick_2"/>
    <g id="xtick_3"/>
    <g id="xtick_4"/>
    <g id="xtick_5"/>
   </g>
   <g id="matplotlib.axis_2">
    <g id="ytick_1">
     <g id="line2d_1">
      <path d="M 78.265625 512.483392 
L 729.775625 512.483392 
" clip-path="url(#p7da11b9236)" style="fill: none; stroke: #cccccc; stroke-linecap: round"/>
     </g>
     <g id="text_1">
      <text style="font-size: 10px; font-family: 'Arial', 'DejaVu Sans', 'Liberation Sans', 'Bitstream Vera Sans', sans-serif; text-anchor: end; fill: #262626" x="68.765625" y="516.282611" transform="rotate(-0 68.765625 516.282611)">0</text>
     </g>
    </g>
    <g id="ytick_2">
     <g id="line2d_2">
      <path d="M 78.265625 461.73588 
L 729.775625 461.73588 
" clip-path="url(#p7da11b9236)" style="fill: none; stroke: #cccccc; stroke-linecap: round"/>
     </g>
     <g id="text_2">
      <text style="font-size: 10px; font-family: 'Arial', 'DejaVu Sans', 'Liberation Sans', 'Bitstream Vera Sans', sans-serif; text-anchor: end; fill: #262626" x="68.765625" y="465.535099" transform="rotate(-0 68.765625 465.535099)">25</text>
     </g>
    </g>
    <g id="ytick_3">
     <g id="line2d_3">
      <path d="M 78.265625 410.988368 
L 729.775625 410.988368 
" clip-path="url(#p7da11b9236)" style="fill: none; stroke: #cccccc; stroke-linecap: round"/>
     </g>
     <g id="text_3">
      <text style="font-size: 10px; font-family: 'Arial', 'DejaVu Sans', 'Liberation Sans', 'Bitstream Vera Sans', sans-serif; text-anchor: end; fill: #262626" x="68.765625" y="414.787587" transform="rotate(-0 68.765625 414.787587)">50</text>
     </g>
    </g>
    <g id="ytick_4">
     <g id="line2d_4">
      <path d="M 78.265625 360.240856 
L 729.775625 360.240856 
" clip-path="url(#p7da11b9236)" style="fill: none; stroke: #cccccc; stroke-linecap: round"/>
     </g>
     <g id="text_4">
      <text style="font-size: 10px; font-family: 'Arial', 'DejaVu Sans', 'Liberation Sans', 'Bitstream Vera Sans', sans-serif; text-anchor: end; fill: #262626" x="68.765625" y="364.040075" transform="rotate(-0 68.765625 364.040075)">75</text>
     </g>
    </g>
    <g id="ytick_5">
     <g id="line2d_5">
      <path d="M 78.265625 309.493344 
L 729.775625 309.493344 
" clip-path="url(#p7da11b9236)" style="fill: none; stroke: #cccccc; stroke-linecap: round"/>
     </g>
     <g id="text_5">
      <text style="font-size: 10px; font-family: 'Arial', 'DejaVu Sans', 'Liberation Sans', 'Bitstream Vera Sans', sans-serif; text-anchor: end; fill: #262626" x="68.765625" y="313.292563" transform="rotate(-0 68.765625 313.292563)">100</text>
     </g>
    </g>
    <g id="ytick_6">
     <g id="line2d_6">
      <path d="M 78.265625 258.745832 
L 729.775625 258.745832 
" clip-path="url(#p7da11b9236)" style="fill: none; stroke: #cccccc; stroke-linecap: round"/>
     </g>
     <g id="text_6">
      <text style="font-size: 10px; font-family: 'Arial', 'DejaVu Sans', 'Liberation Sans', 'Bitstream Vera Sans', sans-serif; text-anchor: end; fill: #262626" x="68.765625" y="262.545051" transform="rotate(-0 68.765625 262.545051)">125</text>
     </g>
    </g>
    <g id="ytick_7">
     <g id="line2d_7">
      <path d="M 78.265625 207.99832 
L 729.775625 207.99832 
" clip-path="url(#p7da11b9236)" style="fill: none; stroke: #cccccc; stroke-linecap: round"/>
     </g>
     <g id="text_7">
      <text style="font-size: 10px; font-family: 'Arial', 'DejaVu Sans', 'Liberation Sans', 'Bitstream Vera Sans', sans-serif; text-anchor: end; fill: #262626" x="68.765625" y="211.797539" transform="rotate(-0 68.765625 211.797539)">150</text>
     </g>
    </g>
    <g id="ytick_8">
     <g id="line2d_8">
      <path d="M 78.265625 157.250808 
L 729.775625 157.250808 
" clip-path="url(#p7da11b9236)" style="fill: none; stroke: #cccccc; stroke-linecap: round"/>
     </g>
     <g id="text_8">
      <text style="font-size: 10px; font-family: 'Arial', 'DejaVu Sans', 'Liberation Sans', 'Bitstream Vera Sans', sans-serif; text-anchor: end; fill: #262626" x="68.765625" y="161.050027" transform="rotate(-0 68.765625 161.050027)">175</text>
     </g>
    </g>
    <g id="ytick_9">
     <g id="line2d_9">
      <path d="M 78.265625 106.503297 
L 729.775625 106.503297 
" clip-path="url(#p7da11b9236)" style="fill: none; stroke: #cccccc; stroke-linecap: round"/>
     </g>
     <g id="text_9">
      <text style="font-size: 10px; font-family: 'Arial', 'DejaVu Sans', 'Liberation Sans', 'Bitstream Vera Sans', sans-serif; text-anchor: end; fill: #262626" x="68.765625" y="110.302515" transform="rotate(-0 68.765625 110.302515)">200</text>
     </g>
    </g>
    <g id="text_10">
     <text style="font-size: 10px; font-family: 'Arial', 'DejaVu Sans', 'Liberation Sans', 'Bitstream Vera Sans', sans-serif; text-anchor: middle; fill: #262626" x="43.598437" y="308.83" transform="rotate(-90 43.598437 308.83)">Distance (μm)</text>
    </g>
   </g>
   <g id="FillBetweenPolyCollection_1">
    <defs>
     <path id="m3e575a6c7b" d="M 143.592679 -662.451818 
L 143.240571 -662.451818 
L 140.648555 -666.538909 
L 133.448359 -670.626 
L 126.537085 -674.713091 
L 120.008841 -678.800182 
L 113.05066 -682.887273 
L 106.691394 -686.974364 
L 101.138625 -691.061454 
L 96.865014 -695.148545 
L 93.82934 -699.235636 
L 92.073831 -703.322727 
L 91.295825 -707.409818 
L 91.51271 -711.496909 
L 92.521656 -715.584 
L 93.978012 -719.671091 
L 96.262544 -723.758181 
L 99.106149 -727.845272 
L 102.277821 -731.932363 
L 105.772089 -736.019454 
L 108.88318 -740.106545 
L 112.021127 -744.193636 
L 115.050738 -748.280727 
L 117.911604 -752.367818 
L 120.594693 -756.454909 
L 123.177014 -760.541999 
L 125.477653 -764.62909 
L 127.599225 -768.716181 
L 129.526404 -772.803272 
L 131.098781 -776.890363 
L 132.485192 -780.977454 
L 133.791222 -785.064545 
L 134.920236 -789.151636 
L 135.92695 -793.238727 
L 136.888205 -797.325817 
L 137.707369 -801.412908 
L 138.357304 -805.499999 
L 138.977183 -809.58709 
L 139.513991 -813.674181 
L 140.033712 -817.761272 
L 140.46089 -821.848363 
L 140.784304 -825.935454 
L 141.067457 -830.022545 
L 141.337573 -834.109635 
L 141.584026 -838.196726 
L 141.767765 -842.283817 
L 141.970833 -846.370908 
L 142.175174 -850.457999 
L 142.285694 -854.54509 
L 142.412372 -858.632181 
L 142.498864 -862.719272 
L 142.610024 -866.806363 
L 142.694068 -870.893453 
L 142.764576 -874.980544 
L 142.813193 -879.067635 
L 142.868993 -883.154726 
L 142.946594 -887.241817 
L 142.993879 -891.328908 
L 143.026291 -895.415999 
L 143.06275 -899.50309 
L 143.092161 -903.59018 
L 143.115268 -907.677271 
L 143.148558 -911.764362 
L 143.168096 -915.851453 
L 143.179808 -919.938544 
L 143.194915 -924.025635 
L 143.209734 -928.112726 
L 143.213429 -932.199817 
L 143.223155 -936.286908 
L 143.247862 -940.373998 
L 143.259887 -944.461089 
L 143.257278 -948.54818 
L 143.261592 -952.635271 
L 143.26543 -956.722362 
L 143.26869 -960.809453 
L 143.269701 -964.896544 
L 143.290251 -968.983635 
L 143.305715 -973.070726 
L 143.306435 -977.157816 
L 143.314569 -981.244907 
L 143.322597 -985.331998 
L 143.333014 -989.419089 
L 143.336348 -993.50618 
L 143.333596 -997.593271 
L 143.351009 -1001.680362 
L 143.353438 -1005.767453 
L 143.348072 -1009.854544 
L 143.351337 -1013.941634 
L 143.360907 -1018.028725 
L 143.362216 -1022.115816 
L 143.358322 -1026.202907 
L 143.352649 -1030.289998 
L 143.359412 -1034.377089 
L 143.364892 -1038.46418 
L 143.373703 -1042.551271 
L 143.373594 -1046.638362 
L 143.372718 -1050.725452 
L 143.375405 -1054.812543 
L 143.381737 -1058.899634 
L 143.379145 -1062.986725 
L 143.398525 -1067.073816 
L 143.434725 -1067.073816 
L 143.434725 -1067.073816 
L 143.454105 -1062.986725 
L 143.451513 -1058.899634 
L 143.457845 -1054.812543 
L 143.460532 -1050.725452 
L 143.459656 -1046.638362 
L 143.459547 -1042.551271 
L 143.468358 -1038.46418 
L 143.473838 -1034.377089 
L 143.480601 -1030.289998 
L 143.474928 -1026.202907 
L 143.471034 -1022.115816 
L 143.472343 -1018.028725 
L 143.481913 -1013.941634 
L 143.485178 -1009.854544 
L 143.479812 -1005.767453 
L 143.482241 -1001.680362 
L 143.499654 -997.593271 
L 143.496902 -993.50618 
L 143.500236 -989.419089 
L 143.510653 -985.331998 
L 143.518681 -981.244907 
L 143.526815 -977.157816 
L 143.527535 -973.070726 
L 143.542999 -968.983635 
L 143.563549 -964.896544 
L 143.56456 -960.809453 
L 143.56782 -956.722362 
L 143.571658 -952.635271 
L 143.575972 -948.54818 
L 143.573363 -944.461089 
L 143.585388 -940.373998 
L 143.610095 -936.286908 
L 143.619821 -932.199817 
L 143.623516 -928.112726 
L 143.638335 -924.025635 
L 143.653442 -919.938544 
L 143.665154 -915.851453 
L 143.684692 -911.764362 
L 143.717982 -907.677271 
L 143.741089 -903.59018 
L 143.7705 -899.50309 
L 143.806959 -895.415999 
L 143.839371 -891.328908 
L 143.886656 -887.241817 
L 143.964257 -883.154726 
L 144.020057 -879.067635 
L 144.068674 -874.980544 
L 144.139182 -870.893453 
L 144.223226 -866.806363 
L 144.334386 -862.719272 
L 144.420878 -858.632181 
L 144.547556 -854.54509 
L 144.658076 -850.457999 
L 144.862417 -846.370908 
L 145.065485 -842.283817 
L 145.249224 -838.196726 
L 145.495677 -834.109635 
L 145.765793 -830.022545 
L 146.048946 -825.935454 
L 146.37236 -821.848363 
L 146.799538 -817.761272 
L 147.319259 -813.674181 
L 147.856067 -809.58709 
L 148.475946 -805.499999 
L 149.125881 -801.412908 
L 149.945045 -797.325817 
L 150.9063 -793.238727 
L 151.913014 -789.151636 
L 153.042028 -785.064545 
L 154.348058 -780.977454 
L 155.734469 -776.890363 
L 157.306846 -772.803272 
L 159.234025 -768.716181 
L 161.355597 -764.62909 
L 163.656236 -760.541999 
L 166.238557 -756.454909 
L 168.921646 -752.367818 
L 171.782512 -748.280727 
L 174.812123 -744.193636 
L 177.95007 -740.106545 
L 181.061161 -736.019454 
L 184.555429 -731.932363 
L 187.727101 -727.845272 
L 190.570706 -723.758181 
L 192.855238 -719.671091 
L 194.311594 -715.584 
L 195.32054 -711.496909 
L 195.537425 -707.409818 
L 194.759419 -703.322727 
L 193.00391 -699.235636 
L 189.968236 -695.148545 
L 185.694625 -691.061454 
L 180.141856 -686.974364 
L 173.78259 -682.887273 
L 166.824409 -678.800182 
L 160.296165 -674.713091 
L 153.384891 -670.626 
L 146.184695 -666.538909 
L 143.592679 -662.451818 
z
" style="stroke: #4d4d4d; stroke-opacity: 0.9; stroke-width: 1.25"/>
    </defs>
    <g clip-path="url(#p7da11b9236)">
     <use xlink:href="#m3e575a6c7b" x="0" y="1173.6" style="fill: #d56b5b; fill-opacity: 0.9; stroke: #4d4d4d; stroke-opacity: 0.9; stroke-width: 1.25"/>
    </g>
   </g>
   <g id="FillBetweenPolyCollection_2">
    <defs>
     <path id="m3f175e577a" d="M 274.368044 -664.254425 
L 273.069206 -664.254425 
L 267.263165 -668.318664 
L 257.645063 -672.382904 
L 253.771156 -676.447143 
L 252.758636 -680.511383 
L 252.733229 -684.575623 
L 253.461716 -688.639862 
L 254.615608 -692.704102 
L 256.085195 -696.768341 
L 257.797429 -700.832581 
L 259.341999 -704.89682 
L 260.795497 -708.96106 
L 262.308312 -713.0253 
L 263.805501 -717.089539 
L 265.07173 -721.153779 
L 266.203075 -725.218018 
L 267.111861 -729.282258 
L 267.869775 -733.346498 
L 268.565014 -737.410737 
L 269.336608 -741.474977 
L 269.896121 -745.539216 
L 270.403405 -749.603456 
L 270.833823 -753.667696 
L 271.20896 -757.731935 
L 271.537528 -761.796175 
L 271.865871 -765.860414 
L 272.131698 -769.924654 
L 272.332849 -773.988894 
L 272.485559 -778.053133 
L 272.642464 -782.117373 
L 272.784612 -786.181612 
L 272.912637 -790.245852 
L 273.021065 -794.310092 
L 273.125683 -798.374331 
L 273.205544 -802.438571 
L 273.271637 -806.50281 
L 273.32983 -810.56705 
L 273.381646 -814.63129 
L 273.419183 -818.695529 
L 273.460916 -822.759769 
L 273.494352 -826.824008 
L 273.52814 -830.888248 
L 273.558306 -834.952488 
L 273.577092 -839.016727 
L 273.601808 -843.080967 
L 273.617894 -847.145206 
L 273.631736 -851.209446 
L 273.644784 -855.273685 
L 273.649205 -859.337925 
L 273.656416 -863.402165 
L 273.660966 -867.466404 
L 273.670301 -871.530644 
L 273.680797 -875.594883 
L 273.683807 -879.659123 
L 273.682294 -883.723363 
L 273.685521 -887.787602 
L 273.693208 -891.851842 
L 273.695278 -895.916081 
L 273.694328 -899.980321 
L 273.695473 -904.044561 
L 273.696514 -908.1088 
L 273.696731 -912.17304 
L 273.697434 -916.237279 
L 273.702369 -920.301519 
L 273.701094 -924.365759 
L 273.701864 -928.429998 
L 273.703889 -932.494238 
L 273.70382 -936.558477 
L 273.70032 -940.622717 
L 273.702121 -944.686957 
L 273.703353 -948.751196 
L 273.702017 -952.815436 
L 273.704012 -956.879675 
L 273.706978 -960.943915 
L 273.705984 -965.008155 
L 273.708268 -969.072394 
L 273.707093 -973.136634 
L 273.704957 -977.200873 
L 273.70792 -981.265113 
L 273.708343 -985.329352 
L 273.709941 -989.393592 
L 273.712473 -993.457832 
L 273.712362 -997.522071 
L 273.71016 -1001.586311 
L 273.711629 -1005.65055 
L 273.712107 -1009.71479 
L 273.712904 -1013.77903 
L 273.713729 -1017.843269 
L 273.713221 -1021.907509 
L 273.711672 -1025.971748 
L 273.713034 -1030.035988 
L 273.714399 -1034.100228 
L 273.715627 -1038.164467 
L 273.715801 -1042.228707 
L 273.714783 -1046.292946 
L 273.716334 -1050.357186 
L 273.716292 -1054.421426 
L 273.716027 -1058.485665 
L 273.715636 -1062.549905 
L 273.716243 -1066.614144 
L 273.721007 -1066.614144 
L 273.721007 -1066.614144 
L 273.721614 -1062.549905 
L 273.721223 -1058.485665 
L 273.720958 -1054.421426 
L 273.720916 -1050.357186 
L 273.722467 -1046.292946 
L 273.721449 -1042.228707 
L 273.721623 -1038.164467 
L 273.722851 -1034.100228 
L 273.724216 -1030.035988 
L 273.725578 -1025.971748 
L 273.724029 -1021.907509 
L 273.723521 -1017.843269 
L 273.724346 -1013.77903 
L 273.725143 -1009.71479 
L 273.725621 -1005.65055 
L 273.72709 -1001.586311 
L 273.724888 -997.522071 
L 273.724777 -993.457832 
L 273.727309 -989.393592 
L 273.728907 -985.329352 
L 273.72933 -981.265113 
L 273.732293 -977.200873 
L 273.730157 -973.136634 
L 273.728982 -969.072394 
L 273.731266 -965.008155 
L 273.730272 -960.943915 
L 273.733238 -956.879675 
L 273.735233 -952.815436 
L 273.733897 -948.751196 
L 273.735129 -944.686957 
L 273.73693 -940.622717 
L 273.73343 -936.558477 
L 273.733361 -932.494238 
L 273.735386 -928.429998 
L 273.736156 -924.365759 
L 273.734881 -920.301519 
L 273.739816 -916.237279 
L 273.740519 -912.17304 
L 273.740736 -908.1088 
L 273.741777 -904.044561 
L 273.742922 -899.980321 
L 273.741972 -895.916081 
L 273.744042 -891.851842 
L 273.751729 -887.787602 
L 273.754956 -883.723363 
L 273.753443 -879.659123 
L 273.756453 -875.594883 
L 273.766949 -871.530644 
L 273.776284 -867.466404 
L 273.780834 -863.402165 
L 273.788045 -859.337925 
L 273.792466 -855.273685 
L 273.805514 -851.209446 
L 273.819356 -847.145206 
L 273.835442 -843.080967 
L 273.860158 -839.016727 
L 273.878944 -834.952488 
L 273.90911 -830.888248 
L 273.942898 -826.824008 
L 273.976334 -822.759769 
L 274.018067 -818.695529 
L 274.055604 -814.63129 
L 274.10742 -810.56705 
L 274.165613 -806.50281 
L 274.231706 -802.438571 
L 274.311567 -798.374331 
L 274.416185 -794.310092 
L 274.524613 -790.245852 
L 274.652638 -786.181612 
L 274.794786 -782.117373 
L 274.951691 -778.053133 
L 275.104401 -773.988894 
L 275.305552 -769.924654 
L 275.571379 -765.860414 
L 275.899722 -761.796175 
L 276.22829 -757.731935 
L 276.603427 -753.667696 
L 277.033845 -749.603456 
L 277.541129 -745.539216 
L 278.100642 -741.474977 
L 278.872236 -737.410737 
L 279.567475 -733.346498 
L 280.325389 -729.282258 
L 281.234175 -725.218018 
L 282.36552 -721.153779 
L 283.631749 -717.089539 
L 285.128938 -713.0253 
L 286.641753 -708.96106 
L 288.095251 -704.89682 
L 289.639821 -700.832581 
L 291.352055 -696.768341 
L 292.821642 -692.704102 
L 293.975534 -688.639862 
L 294.704021 -684.575623 
L 294.678614 -680.511383 
L 293.666094 -676.447143 
L 289.792187 -672.382904 
L 280.174085 -668.318664 
L 274.368044 -664.254425 
z
" style="stroke: #4d4d4d; stroke-opacity: 0.9; stroke-width: 1.25"/>
    </defs>
    <g clip-path="url(#p7da11b9236)">
     <use xlink:href="#m3f175e577a" x="0" y="1173.6" style="fill: #ecbd81; fill-opacity: 0.9; stroke: #4d4d4d; stroke-opacity: 0.9; stroke-width: 1.25"/>
    </g>
   </g>
   <g id="FillBetweenPolyCollection_3">
    <defs>
     <path id="me8796d5746" d="M 404.297986 -663.345156 
L 403.743264 -663.345156 
L 400.258775 -667.36809 
L 392.124006 -671.391024 
L 387.045981 -675.413958 
L 385.693264 -679.436892 
L 385.899012 -683.459826 
L 386.698566 -687.48276 
L 387.989533 -691.505694 
L 389.540174 -695.528628 
L 391.203187 -699.551562 
L 392.7308 -703.574496 
L 394.115119 -707.597431 
L 395.395339 -711.620365 
L 396.642979 -715.643299 
L 397.725275 -719.666233 
L 398.5147 -723.689167 
L 399.310171 -727.712101 
L 399.96592 -731.735035 
L 400.569219 -735.757969 
L 401.065669 -739.780903 
L 401.446972 -743.803837 
L 401.761399 -747.826771 
L 402.085107 -751.849705 
L 402.329428 -755.872639 
L 402.526899 -759.895573 
L 402.696845 -763.918508 
L 402.880555 -767.941442 
L 403.024074 -771.964376 
L 403.141895 -775.98731 
L 403.260491 -780.010244 
L 403.320983 -784.033178 
L 403.391873 -788.056112 
L 403.471663 -792.079046 
L 403.523196 -796.10198 
L 403.589334 -800.124914 
L 403.630964 -804.147848 
L 403.668428 -808.170782 
L 403.712848 -812.193716 
L 403.756013 -816.216651 
L 403.784275 -820.239585 
L 403.792513 -824.262519 
L 403.830428 -828.285453 
L 403.862132 -832.308387 
L 403.874267 -836.331321 
L 403.892823 -840.354255 
L 403.909325 -844.377189 
L 403.920169 -848.400123 
L 403.92733 -852.423057 
L 403.944432 -856.445991 
L 403.961598 -860.468925 
L 403.965659 -864.491859 
L 403.970083 -868.514793 
L 403.976808 -872.537728 
L 403.982158 -876.560662 
L 403.986595 -880.583596 
L 403.989821 -884.60653 
L 403.994668 -888.629464 
L 403.998129 -892.652398 
L 404.002127 -896.675332 
L 404.006317 -900.698266 
L 404.007579 -904.7212 
L 404.009029 -908.744134 
L 404.011683 -912.767068 
L 404.012886 -916.790002 
L 404.01314 -920.812936 
L 404.015037 -924.835871 
L 404.016867 -928.858805 
L 404.017347 -932.881739 
L 404.01632 -936.904673 
L 404.015898 -940.927607 
L 404.016616 -944.950541 
L 404.017603 -948.973475 
L 404.017109 -952.996409 
L 404.018338 -957.019343 
L 404.018076 -961.042277 
L 404.017689 -965.065211 
L 404.017669 -969.088145 
L 404.018616 -973.111079 
L 404.018738 -977.134013 
L 404.018925 -981.156948 
L 404.018644 -985.179882 
L 404.018243 -989.202816 
L 404.019232 -993.22575 
L 404.019349 -997.248684 
L 404.019647 -1001.271618 
L 404.0197 -1005.294552 
L 404.018892 -1009.317486 
L 404.018808 -1013.34042 
L 404.019446 -1017.363354 
L 404.019562 -1021.386288 
L 404.018967 -1025.409222 
L 404.019966 -1029.432156 
L 404.019891 -1033.455091 
L 404.019817 -1037.478025 
L 404.019801 -1041.500959 
L 404.02044 -1045.523893 
L 404.020582 -1049.546827 
L 404.01989 -1053.569761 
L 404.019336 -1057.592695 
L 404.020092 -1061.615629 
L 404.021158 -1061.615629 
L 404.021158 -1061.615629 
L 404.021914 -1057.592695 
L 404.02136 -1053.569761 
L 404.020668 -1049.546827 
L 404.02081 -1045.523893 
L 404.021449 -1041.500959 
L 404.021433 -1037.478025 
L 404.021359 -1033.455091 
L 404.021284 -1029.432156 
L 404.022283 -1025.409222 
L 404.021688 -1021.386288 
L 404.021804 -1017.363354 
L 404.022442 -1013.34042 
L 404.022358 -1009.317486 
L 404.02155 -1005.294552 
L 404.021603 -1001.271618 
L 404.021901 -997.248684 
L 404.022018 -993.22575 
L 404.023007 -989.202816 
L 404.022606 -985.179882 
L 404.022325 -981.156948 
L 404.022512 -977.134013 
L 404.022634 -973.111079 
L 404.023581 -969.088145 
L 404.023561 -965.065211 
L 404.023174 -961.042277 
L 404.022912 -957.019343 
L 404.024141 -952.996409 
L 404.023647 -948.973475 
L 404.024634 -944.950541 
L 404.025352 -940.927607 
L 404.02493 -936.904673 
L 404.023903 -932.881739 
L 404.024383 -928.858805 
L 404.026213 -924.835871 
L 404.02811 -920.812936 
L 404.028364 -916.790002 
L 404.029567 -912.767068 
L 404.032221 -908.744134 
L 404.033671 -904.7212 
L 404.034933 -900.698266 
L 404.039123 -896.675332 
L 404.043121 -892.652398 
L 404.046582 -888.629464 
L 404.051429 -884.60653 
L 404.054655 -880.583596 
L 404.059092 -876.560662 
L 404.064442 -872.537728 
L 404.071167 -868.514793 
L 404.075591 -864.491859 
L 404.079652 -860.468925 
L 404.096818 -856.445991 
L 404.11392 -852.423057 
L 404.121081 -848.400123 
L 404.131925 -844.377189 
L 404.148427 -840.354255 
L 404.166983 -836.331321 
L 404.179118 -832.308387 
L 404.210822 -828.285453 
L 404.248737 -824.262519 
L 404.256975 -820.239585 
L 404.285237 -816.216651 
L 404.328402 -812.193716 
L 404.372822 -808.170782 
L 404.410286 -804.147848 
L 404.451916 -800.124914 
L 404.518054 -796.10198 
L 404.569587 -792.079046 
L 404.649377 -788.056112 
L 404.720267 -784.033178 
L 404.780759 -780.010244 
L 404.899355 -775.98731 
L 405.017176 -771.964376 
L 405.160695 -767.941442 
L 405.344405 -763.918508 
L 405.514351 -759.895573 
L 405.711822 -755.872639 
L 405.956143 -751.849705 
L 406.279851 -747.826771 
L 406.594278 -743.803837 
L 406.975581 -739.780903 
L 407.472031 -735.757969 
L 408.07533 -731.735035 
L 408.731079 -727.712101 
L 409.52655 -723.689167 
L 410.315975 -719.666233 
L 411.398271 -715.643299 
L 412.645911 -711.620365 
L 413.926131 -707.597431 
L 415.31045 -703.574496 
L 416.838063 -699.551562 
L 418.501076 -695.528628 
L 420.051717 -691.505694 
L 421.342684 -687.48276 
L 422.142238 -683.459826 
L 422.347986 -679.436892 
L 420.995269 -675.413958 
L 415.917244 -671.391024 
L 407.782475 -667.36809 
L 404.297986 -663.345156 
z
" style="stroke: #4d4d4d; stroke-opacity: 0.9; stroke-width: 1.25"/>
    </defs>
    <g clip-path="url(#p7da11b9236)">
     <use xlink:href="#me8796d5746" x="0" y="1173.6" style="fill: #f7f7c6; fill-opacity: 0.9; stroke: #4d4d4d; stroke-opacity: 0.9; stroke-width: 1.25"/>
    </g>
   </g>
   <g id="FillBetweenPolyCollection_4">
    <defs>
     <path id="m6cf3541ff3" d="M 534.432338 -664.705096 
L 534.212912 -664.705096 
L 533.998885 -668.73706 
L 533.722136 -672.769024 
L 533.516111 -676.800988 
L 533.414951 -680.832952 
L 533.388629 -684.864916 
L 533.422546 -688.89688 
L 533.4937 -692.928844 
L 533.574809 -696.960809 
L 533.653328 -700.992773 
L 533.727081 -705.024737 
L 533.799819 -709.056701 
L 533.871255 -713.088665 
L 533.932334 -717.120629 
L 533.982538 -721.152593 
L 534.026683 -725.184557 
L 534.066148 -729.216521 
L 534.098731 -733.248485 
L 534.126731 -737.280449 
L 534.150882 -741.312413 
L 534.170402 -745.344377 
L 534.190456 -749.376341 
L 534.210462 -753.408305 
L 534.225191 -757.44027 
L 534.235023 -761.472234 
L 534.244878 -765.504198 
L 534.256085 -769.536162 
L 534.265024 -773.568126 
L 534.271373 -777.60009 
L 534.276146 -781.632054 
L 534.280622 -785.664018 
L 534.286549 -789.695982 
L 534.291436 -793.727946 
L 534.293675 -797.75991 
L 534.295304 -801.791874 
L 534.297835 -805.823838 
L 534.300354 -809.855802 
L 534.302156 -813.887766 
L 534.304485 -817.919731 
L 534.307102 -821.951695 
L 534.309176 -825.983659 
L 534.310697 -830.015623 
L 534.312224 -834.047587 
L 534.313718 -838.079551 
L 534.315035 -842.111515 
L 534.316438 -846.143479 
L 534.317195 -850.175443 
L 534.31696 -854.207407 
L 534.316696 -858.239371 
L 534.317341 -862.271335 
L 534.31846 -866.303299 
L 534.318951 -870.335263 
L 534.318639 -874.367228 
L 534.318879 -878.399192 
L 534.319551 -882.431156 
L 534.320041 -886.46312 
L 534.320802 -890.495084 
L 534.321353 -894.527048 
L 534.3213 -898.559012 
L 534.321066 -902.590976 
L 534.321146 -906.62294 
L 534.3216 -910.654904 
L 534.321949 -914.686868 
L 534.321997 -918.718832 
L 534.321957 -922.750796 
L 534.322063 -926.78276 
L 534.32216 -930.814724 
L 534.322157 -934.846689 
L 534.322283 -938.878653 
L 534.322461 -942.910617 
L 534.322428 -946.942581 
L 534.32223 -950.974545 
L 534.322115 -955.006509 
L 534.322083 -959.038473 
L 534.322104 -963.070437 
L 534.322235 -967.102401 
L 534.322441 -971.134365 
L 534.322568 -975.166329 
L 534.322551 -979.198293 
L 534.322466 -983.230257 
L 534.322471 -987.262221 
L 534.322558 -991.294185 
L 534.322576 -995.32615 
L 534.322498 -999.358114 
L 534.322453 -1003.390078 
L 534.322527 -1007.422042 
L 534.322601 -1011.454006 
L 534.322621 -1015.48597 
L 534.322603 -1019.517934 
L 534.322531 -1023.549898 
L 534.322454 -1027.581862 
L 534.322493 -1031.613826 
L 534.322569 -1035.64579 
L 534.322543 -1039.677754 
L 534.322441 -1043.709718 
L 534.322383 -1047.741682 
L 534.322394 -1051.773646 
L 534.322454 -1055.805611 
L 534.322469 -1059.837575 
L 534.322445 -1063.869539 
L 534.322805 -1063.869539 
L 534.322805 -1063.869539 
L 534.322781 -1059.837575 
L 534.322796 -1055.805611 
L 534.322856 -1051.773646 
L 534.322867 -1047.741682 
L 534.322809 -1043.709718 
L 534.322707 -1039.677754 
L 534.322681 -1035.64579 
L 534.322757 -1031.613826 
L 534.322796 -1027.581862 
L 534.322719 -1023.549898 
L 534.322647 -1019.517934 
L 534.322629 -1015.48597 
L 534.322649 -1011.454006 
L 534.322723 -1007.422042 
L 534.322797 -1003.390078 
L 534.322752 -999.358114 
L 534.322674 -995.32615 
L 534.322692 -991.294185 
L 534.322779 -987.262221 
L 534.322784 -983.230257 
L 534.322699 -979.198293 
L 534.322682 -975.166329 
L 534.322809 -971.134365 
L 534.323015 -967.102401 
L 534.323146 -963.070437 
L 534.323167 -959.038473 
L 534.323135 -955.006509 
L 534.32302 -950.974545 
L 534.322822 -946.942581 
L 534.322789 -942.910617 
L 534.322967 -938.878653 
L 534.323093 -934.846689 
L 534.32309 -930.814724 
L 534.323187 -926.78276 
L 534.323293 -922.750796 
L 534.323253 -918.718832 
L 534.323301 -914.686868 
L 534.32365 -910.654904 
L 534.324104 -906.62294 
L 534.324184 -902.590976 
L 534.32395 -898.559012 
L 534.323897 -894.527048 
L 534.324448 -890.495084 
L 534.325209 -886.46312 
L 534.325699 -882.431156 
L 534.326371 -878.399192 
L 534.326611 -874.367228 
L 534.326299 -870.335263 
L 534.32679 -866.303299 
L 534.327909 -862.271335 
L 534.328554 -858.239371 
L 534.32829 -854.207407 
L 534.328055 -850.175443 
L 534.328812 -846.143479 
L 534.330215 -842.111515 
L 534.331532 -838.079551 
L 534.333026 -834.047587 
L 534.334553 -830.015623 
L 534.336074 -825.983659 
L 534.338148 -821.951695 
L 534.340765 -817.919731 
L 534.343094 -813.887766 
L 534.344896 -809.855802 
L 534.347415 -805.823838 
L 534.349946 -801.791874 
L 534.351575 -797.75991 
L 534.353814 -793.727946 
L 534.358701 -789.695982 
L 534.364628 -785.664018 
L 534.369104 -781.632054 
L 534.373877 -777.60009 
L 534.380226 -773.568126 
L 534.389165 -769.536162 
L 534.400372 -765.504198 
L 534.410227 -761.472234 
L 534.420059 -757.44027 
L 534.434788 -753.408305 
L 534.454794 -749.376341 
L 534.474848 -745.344377 
L 534.494368 -741.312413 
L 534.518519 -737.280449 
L 534.546519 -733.248485 
L 534.579102 -729.216521 
L 534.618567 -725.184557 
L 534.662712 -721.152593 
L 534.712916 -717.120629 
L 534.773995 -713.088665 
L 534.845431 -709.056701 
L 534.918169 -705.024737 
L 534.991922 -700.992773 
L 535.070441 -696.960809 
L 535.15155 -692.928844 
L 535.222704 -688.89688 
L 535.256621 -684.864916 
L 535.230299 -680.832952 
L 535.129139 -676.800988 
L 534.923114 -672.769024 
L 534.646365 -668.73706 
L 534.432338 -664.705096 
z
" style="stroke: #4d4d4d; stroke-opacity: 0.9; stroke-width: 1.25"/>
    </defs>
    <g clip-path="url(#p7da11b9236)">
     <use xlink:href="#m6cf3541ff3" x="0" y="1173.6" style="fill: #c0dca9; fill-opacity: 0.9; stroke: #4d4d4d; stroke-opacity: 0.9; stroke-width: 1.25"/>
    </g>
   </g>
   <g id="FillBetweenPolyCollection_5">
    <defs>
     <path id="m2aac6028d7" d="M 665.231324 -664.66164 
L 664.017926 -664.66164 
L 663.233457 -668.726555 
L 662.410829 -672.79147 
L 661.85936 -676.856384 
L 661.590789 -680.921299 
L 661.494006 -684.986213 
L 661.49908 -689.051128 
L 661.59088 -693.116042 
L 661.766262 -697.180957 
L 661.98623 -701.245872 
L 662.21204 -705.310786 
L 662.43655 -709.375701 
L 662.661829 -713.440615 
L 662.879214 -717.50553 
L 663.07945 -721.570444 
L 663.263038 -725.635359 
L 663.428308 -729.700273 
L 663.578286 -733.765188 
L 663.717605 -737.830103 
L 663.835763 -741.895017 
L 663.927414 -745.959932 
L 664.005237 -750.024846 
L 664.07959 -754.089761 
L 664.148582 -758.154675 
L 664.210132 -762.21959 
L 664.262971 -766.284504 
L 664.304893 -770.349419 
L 664.337524 -774.414334 
L 664.36433 -778.479248 
L 664.386813 -782.544163 
L 664.407827 -786.609077 
L 664.428964 -790.673992 
L 664.449974 -794.738906 
L 664.471731 -798.803821 
L 664.491738 -802.868735 
L 664.505895 -806.93365 
L 664.515309 -810.998565 
L 664.524385 -815.063479 
L 664.534649 -819.128394 
L 664.542964 -823.193308 
L 664.548746 -827.258223 
L 664.555015 -831.323137 
L 664.562427 -835.388052 
L 664.569878 -839.452967 
L 664.576469 -843.517881 
L 664.581563 -847.582796 
L 664.584763 -851.64771 
L 664.586933 -855.712625 
L 664.589189 -859.777539 
L 664.591755 -863.842454 
L 664.594357 -867.907368 
L 664.596239 -871.972283 
L 664.596579 -876.037198 
L 664.596428 -880.102112 
L 664.59808 -884.167027 
L 664.600675 -888.231941 
L 664.602231 -892.296856 
L 664.603301 -896.36177 
L 664.604518 -900.426685 
L 664.60513 -904.491599 
L 664.605258 -908.556514 
L 664.605854 -912.621429 
L 664.606606 -916.686343 
L 664.607053 -920.751258 
L 664.607661 -924.816172 
L 664.608549 -928.881087 
L 664.608422 -932.946001 
L 664.606839 -937.010916 
L 664.605748 -941.07583 
L 664.606289 -945.140745 
L 664.607669 -949.20566 
L 664.608919 -953.270574 
L 664.609671 -957.335489 
L 664.610097 -961.400403 
L 664.610668 -965.465318 
L 664.611424 -969.530232 
L 664.611804 -973.595147 
L 664.611795 -977.660062 
L 664.611709 -981.724976 
L 664.611516 -985.789891 
L 664.611319 -989.854805 
L 664.611074 -993.91972 
L 664.610574 -997.984634 
L 664.610421 -1002.049549 
L 664.610901 -1006.114463 
L 664.611356 -1010.179378 
L 664.611776 -1014.244293 
L 664.612532 -1018.309207 
L 664.613295 -1022.374122 
L 664.613619 -1026.439036 
L 664.61291 -1030.503951 
L 664.611155 -1034.568865 
L 664.609817 -1038.63378 
L 664.609697 -1042.698694 
L 664.609983 -1046.763609 
L 664.60941 -1050.828524 
L 664.608696 -1054.893438 
L 664.609363 -1058.958353 
L 664.612256 -1063.023267 
L 664.617188 -1067.088182 
L 664.632062 -1067.088182 
L 664.632062 -1067.088182 
L 664.636994 -1063.023267 
L 664.639887 -1058.958353 
L 664.640554 -1054.893438 
L 664.63984 -1050.828524 
L 664.639267 -1046.763609 
L 664.639553 -1042.698694 
L 664.639433 -1038.63378 
L 664.638095 -1034.568865 
L 664.63634 -1030.503951 
L 664.635631 -1026.439036 
L 664.635955 -1022.374122 
L 664.636718 -1018.309207 
L 664.637474 -1014.244293 
L 664.637894 -1010.179378 
L 664.638349 -1006.114463 
L 664.638829 -1002.049549 
L 664.638676 -997.984634 
L 664.638176 -993.91972 
L 664.637931 -989.854805 
L 664.637734 -985.789891 
L 664.637541 -981.724976 
L 664.637455 -977.660062 
L 664.637446 -973.595147 
L 664.637826 -969.530232 
L 664.638582 -965.465318 
L 664.639153 -961.400403 
L 664.639579 -957.335489 
L 664.640331 -953.270574 
L 664.641581 -949.20566 
L 664.642961 -945.140745 
L 664.643502 -941.07583 
L 664.642411 -937.010916 
L 664.640828 -932.946001 
L 664.640701 -928.881087 
L 664.641589 -924.816172 
L 664.642197 -920.751258 
L 664.642644 -916.686343 
L 664.643396 -912.621429 
L 664.643992 -908.556514 
L 664.64412 -904.491599 
L 664.644732 -900.426685 
L 664.645949 -896.36177 
L 664.647019 -892.296856 
L 664.648575 -888.231941 
L 664.65117 -884.167027 
L 664.652822 -880.102112 
L 664.652671 -876.037198 
L 664.653011 -871.972283 
L 664.654893 -867.907368 
L 664.657495 -863.842454 
L 664.660061 -859.777539 
L 664.662317 -855.712625 
L 664.664487 -851.64771 
L 664.667687 -847.582796 
L 664.672781 -843.517881 
L 664.679372 -839.452967 
L 664.686823 -835.388052 
L 664.694235 -831.323137 
L 664.700504 -827.258223 
L 664.706286 -823.193308 
L 664.714601 -819.128394 
L 664.724865 -815.063479 
L 664.733941 -810.998565 
L 664.743355 -806.93365 
L 664.757512 -802.868735 
L 664.777519 -798.803821 
L 664.799276 -794.738906 
L 664.820286 -790.673992 
L 664.841423 -786.609077 
L 664.862437 -782.544163 
L 664.88492 -778.479248 
L 664.911726 -774.414334 
L 664.944357 -770.349419 
L 664.986279 -766.284504 
L 665.039118 -762.21959 
L 665.100668 -758.154675 
L 665.16966 -754.089761 
L 665.244013 -750.024846 
L 665.321836 -745.959932 
L 665.413487 -741.895017 
L 665.531645 -737.830103 
L 665.670964 -733.765188 
L 665.820942 -729.700273 
L 665.986212 -725.635359 
L 666.1698 -721.570444 
L 666.370036 -717.50553 
L 666.587421 -713.440615 
L 666.8127 -709.375701 
L 667.03721 -705.310786 
L 667.26302 -701.245872 
L 667.482988 -697.180957 
L 667.65837 -693.116042 
L 667.75017 -689.051128 
L 667.755244 -684.986213 
L 667.658461 -680.921299 
L 667.38989 -676.856384 
L 666.838421 -672.79147 
L 666.015793 -668.726555 
L 665.231324 -664.66164 
z
" style="stroke: #4d4d4d; stroke-opacity: 0.9; stroke-width: 1.25"/>
    </defs>
    <g clip-path="url(#p7da11b9236)">
     <use xlink:href="#m2aac6028d7" x="0" y="1173.6" style="fill: #5fa2a2; fill-opacity: 0.9; stroke: #4d4d4d; stroke-opacity: 0.9; stroke-width: 1.25"/>
    </g>
   </g>
   <g id="line2d_10">
    <path d="M 143.416625 511.148182 
L 143.416625 358.714794 
" clip-path="url(#p7da11b9236)" style="fill: none; stroke: #4d4d4d; stroke-width: 1.875; stroke-linecap: round"/>
   </g>
   <g id="line2d_11">
    <path d="M 143.416625 472.963685 
L 143.416625 427.264073 
" clip-path="url(#p7da11b9236)" style="fill: none; stroke: #4d4d4d; stroke-width: 5.625; stroke-linecap: round"/>
   </g>
   <g id="line2d_12">
    <path d="M 143.416625 453.018822 
" clip-path="url(#p7da11b9236)" style="fill: none; stroke: #4d4d4d; stroke-width: 1.5; stroke-linecap: round"/>
    <defs>
     <path id="m03e01c85e5" d="M 2.34375 0 
L -2.34375 -0 
" style="stroke: #ffffff; stroke-width: 1.125"/>
    </defs>
    <g clip-path="url(#p7da11b9236)">
     <use xlink:href="#m03e01c85e5" x="143.416625" y="453.018822" style="fill: #ffffff; stroke: #ffffff; stroke-width: 1.125"/>
    </g>
   </g>
   <g id="line2d_13">
    <path d="M 273.718625 509.345575 
L 273.718625 402.338215 
" clip-path="url(#p7da11b9236)" style="fill: none; stroke: #4d4d4d; stroke-width: 1.875; stroke-linecap: round"/>
   </g>
   <g id="line2d_14">
    <path d="M 273.718625 490.219397 
L 273.718625 455.066271 
" clip-path="url(#p7da11b9236)" style="fill: none; stroke: #4d4d4d; stroke-width: 5.625; stroke-linecap: round"/>
   </g>
   <g id="line2d_15">
    <path d="M 273.718625 476.068184 
" clip-path="url(#p7da11b9236)" style="fill: none; stroke: #4d4d4d; stroke-width: 1.5; stroke-linecap: round"/>
    <g clip-path="url(#p7da11b9236)">
     <use xlink:href="#m03e01c85e5" x="273.718625" y="476.068184" style="fill: #ffffff; stroke: #ffffff; stroke-width: 1.125"/>
    </g>
   </g>
   <g id="line2d_16">
    <path d="M 404.020625 510.254844 
L 404.020625 410.580681 
" clip-path="url(#p7da11b9236)" style="fill: none; stroke: #4d4d4d; stroke-width: 1.875; stroke-linecap: round"/>
   </g>
   <g id="line2d_17">
    <path d="M 404.020625 491.599319 
L 404.020625 459.191668 
" clip-path="url(#p7da11b9236)" style="fill: none; stroke: #4d4d4d; stroke-width: 5.625; stroke-linecap: round"/>
   </g>
   <g id="line2d_18">
    <path d="M 404.020625 478.806735 
" clip-path="url(#p7da11b9236)" style="fill: none; stroke: #4d4d4d; stroke-width: 1.5; stroke-linecap: round"/>
    <g clip-path="url(#p7da11b9236)">
     <use xlink:href="#m03e01c85e5" x="404.020625" y="478.806735" style="fill: #ffffff; stroke: #ffffff; stroke-width: 1.125"/>
    </g>
   </g>
   <g id="line2d_19">
    <path d="M 534.322625 508.894904 
L 534.322625 405.441884 
" clip-path="url(#p7da11b9236)" style="fill: none; stroke: #4d4d4d; stroke-width: 1.875; stroke-linecap: round"/>
   </g>
   <g id="line2d_20">
    <path d="M 534.322625 490.150953 
L 534.322625 456.254437 
" clip-path="url(#p7da11b9236)" style="fill: none; stroke: #4d4d4d; stroke-width: 5.625; stroke-linecap: round"/>
   </g>
   <g id="line2d_21">
    <path d="M 534.322625 477.069638 
" clip-path="url(#p7da11b9236)" style="fill: none; stroke: #4d4d4d; stroke-width: 1.5; stroke-linecap: round"/>
    <g clip-path="url(#p7da11b9236)">
     <use xlink:href="#m03e01c85e5" x="534.322625" y="477.069638" style="fill: #ffffff; stroke: #ffffff; stroke-width: 1.125"/>
    </g>
   </g>
   <g id="line2d_22">
    <path d="M 664.624625 508.93836 
L 664.624625 389.739913 
" clip-path="url(#p7da11b9236)" style="fill: none; stroke: #4d4d4d; stroke-width: 1.875; stroke-linecap: round"/>
   </g>
   <g id="line2d_23">
    <path d="M 664.624625 488.587592 
L 664.624625 449.045677 
" clip-path="url(#p7da11b9236)" style="fill: none; stroke: #4d4d4d; stroke-width: 5.625; stroke-linecap: round"/>
   </g>
   <g id="line2d_24">
    <path d="M 664.624625 472.841943 
" clip-path="url(#p7da11b9236)" style="fill: none; stroke: #4d4d4d; stroke-width: 1.5; stroke-linecap: round"/>
    <g clip-path="url(#p7da11b9236)">
     <use xlink:href="#m03e01c85e5" x="664.624625" y="472.841943" style="fill: #ffffff; stroke: #ffffff; stroke-width: 1.125"/>
    </g>
   </g>
   <g id="patch_3">
    <path d="M 78.265625 531.38 
L 78.265625 86.28 
" style="fill: none; stroke: #cccccc; stroke-width: 1.25; stroke-linejoin: miter; stroke-linecap: square"/>
   </g>
   <g id="patch_4">
    <path d="M 729.775625 531.38 
L 729.775625 86.28 
" style="fill: none; stroke: #cccccc; stroke-width: 1.25; stroke-linejoin: miter; stroke-linecap: square"/>
   </g>
   <g id="patch_5">
    <path d="M 78.265625 531.38 
L 729.775625 531.38 
" style="fill: none; stroke: #cccccc; stroke-width: 1.25; stroke-linejoin: miter; stroke-linecap: square"/>
   </g>
   <g id="patch_6">
    <path d="M 78.265625 86.28 
L 729.775625 86.28 
" style="fill: none; stroke: #cccccc; stroke-width: 1.25; stroke-linejoin: miter; stroke-linecap: square"/>
   </g>
   <g id="text_11">
    <text style="font-size: 10px; font-family: 'Arial', 'DejaVu Sans', 'Liberation Sans', 'Bitstream Vera Sans', sans-serif; text-anchor: middle; fill: #262626" x="404.020625" y="80.28" transform="rotate(-0 404.020625 80.28)">xenium-stanford</text>
   </g>
  </g>
  <g id="axes_2">
   <g id="patch_7">
    <path d="M 78.265625 1003.36 
L 729.775625 1003.36 
L 729.775625 558.26 
L 78.265625 558.26 
z
" style="fill: #ffffff"/>
   </g>
   <g id="matplotlib.axis_3">
    <g id="xtick_6">
     <g id="text_12">
      <text style="font-size: 10px; font-family: 'Arial', 'DejaVu Sans', 'Liberation Sans', 'Bitstream Vera Sans', sans-serif; fill: #262626" transform="translate(141.336938 1079.399063) rotate(-90)">epithelial cell</text>
     </g>
    </g>
    <g id="xtick_7">
     <g id="text_13">
      <text style="font-size: 10px; font-family: 'Arial', 'DejaVu Sans', 'Liberation Sans', 'Bitstream Vera Sans', sans-serif; fill: #262626" transform="translate(271.638937 1074.333438) rotate(-90)">immune cell</text>
     </g>
    </g>
    <g id="xtick_8">
     <g id="text_14">
      <text style="font-size: 10px; font-family: 'Arial', 'DejaVu Sans', 'Liberation Sans', 'Bitstream Vera Sans', sans-serif; fill: #262626" transform="translate(401.940938 1103.24125) rotate(-90)">mesenchymal cell</text>
     </g>
    </g>
    <g id="xtick_9">
     <g id="text_15">
      <text style="font-size: 10px; font-family: 'Arial', 'DejaVu Sans', 'Liberation Sans', 'Bitstream Vera Sans', sans-serif; fill: #262626" transform="translate(532.242938 1065.09125) rotate(-90)">neural cell</text>
     </g>
    </g>
    <g id="xtick_10">
     <g id="text_16">
      <text style="font-size: 10px; font-family: 'Arial', 'DejaVu Sans', 'Liberation Sans', 'Bitstream Vera Sans', sans-serif; fill: #262626" transform="translate(662.544937 1078.683438) rotate(-90)">unknown cell</text>
     </g>
    </g>
   </g>
   <g id="matplotlib.axis_4">
    <g id="ytick_10">
     <g id="line2d_25">
      <path d="M 78.265625 995.352886 
L 729.775625 995.352886 
" clip-path="url(#pe9b81396c4)" style="fill: none; stroke: #cccccc; stroke-linecap: round"/>
     </g>
     <g id="text_17">
      <text style="font-size: 10px; font-family: 'Arial', 'DejaVu Sans', 'Liberation Sans', 'Bitstream Vera Sans', sans-serif; text-anchor: end; fill: #262626" x="68.765625" y="999.152104" transform="rotate(-0 68.765625 999.152104)">0</text>
     </g>
    </g>
    <g id="ytick_11">
     <g id="line2d_26">
      <path d="M 78.265625 943.245235 
L 729.775625 943.245235 
" clip-path="url(#pe9b81396c4)" style="fill: none; stroke: #cccccc; stroke-linecap: round"/>
     </g>
     <g id="text_18">
      <text style="font-size: 10px; font-family: 'Arial', 'DejaVu Sans', 'Liberation Sans', 'Bitstream Vera Sans', sans-serif; text-anchor: end; fill: #262626" x="68.765625" y="947.044454" transform="rotate(-0 68.765625 947.044454)">25</text>
     </g>
    </g>
    <g id="ytick_12">
     <g id="line2d_27">
      <path d="M 78.265625 891.137585 
L 729.775625 891.137585 
" clip-path="url(#pe9b81396c4)" style="fill: none; stroke: #cccccc; stroke-linecap: round"/>
     </g>
     <g id="text_19">
      <text style="font-size: 10px; font-family: 'Arial', 'DejaVu Sans', 'Liberation Sans', 'Bitstream Vera Sans', sans-serif; text-anchor: end; fill: #262626" x="68.765625" y="894.936804" transform="rotate(-0 68.765625 894.936804)">50</text>
     </g>
    </g>
    <g id="ytick_13">
     <g id="line2d_28">
      <path d="M 78.265625 839.029935 
L 729.775625 839.029935 
" clip-path="url(#pe9b81396c4)" style="fill: none; stroke: #cccccc; stroke-linecap: round"/>
     </g>
     <g id="text_20">
      <text style="font-size: 10px; font-family: 'Arial', 'DejaVu Sans', 'Liberation Sans', 'Bitstream Vera Sans', sans-serif; text-anchor: end; fill: #262626" x="68.765625" y="842.829154" transform="rotate(-0 68.765625 842.829154)">75</text>
     </g>
    </g>
    <g id="ytick_14">
     <g id="line2d_29">
      <path d="M 78.265625 786.922285 
L 729.775625 786.922285 
" clip-path="url(#pe9b81396c4)" style="fill: none; stroke: #cccccc; stroke-linecap: round"/>
     </g>
     <g id="text_21">
      <text style="font-size: 10px; font-family: 'Arial', 'DejaVu Sans', 'Liberation Sans', 'Bitstream Vera Sans', sans-serif; text-anchor: end; fill: #262626" x="68.765625" y="790.721504" transform="rotate(-0 68.765625 790.721504)">100</text>
     </g>
    </g>
    <g id="ytick_15">
     <g id="line2d_30">
      <path d="M 78.265625 734.814635 
L 729.775625 734.814635 
" clip-path="url(#pe9b81396c4)" style="fill: none; stroke: #cccccc; stroke-linecap: round"/>
     </g>
     <g id="text_22">
      <text style="font-size: 10px; font-family: 'Arial', 'DejaVu Sans', 'Liberation Sans', 'Bitstream Vera Sans', sans-serif; text-anchor: end; fill: #262626" x="68.765625" y="738.613854" transform="rotate(-0 68.765625 738.613854)">125</text>
     </g>
    </g>
    <g id="ytick_16">
     <g id="line2d_31">
      <path d="M 78.265625 682.706985 
L 729.775625 682.706985 
" clip-path="url(#pe9b81396c4)" style="fill: none; stroke: #cccccc; stroke-linecap: round"/>
     </g>
     <g id="text_23">
      <text style="font-size: 10px; font-family: 'Arial', 'DejaVu Sans', 'Liberation Sans', 'Bitstream Vera Sans', sans-serif; text-anchor: end; fill: #262626" x="68.765625" y="686.506204" transform="rotate(-0 68.765625 686.506204)">150</text>
     </g>
    </g>
    <g id="ytick_17">
     <g id="line2d_32">
      <path d="M 78.265625 630.599335 
L 729.775625 630.599335 
" clip-path="url(#pe9b81396c4)" style="fill: none; stroke: #cccccc; stroke-linecap: round"/>
     </g>
     <g id="text_24">
      <text style="font-size: 10px; font-family: 'Arial', 'DejaVu Sans', 'Liberation Sans', 'Bitstream Vera Sans', sans-serif; text-anchor: end; fill: #262626" x="68.765625" y="634.398554" transform="rotate(-0 68.765625 634.398554)">175</text>
     </g>
    </g>
    <g id="ytick_18">
     <g id="line2d_33">
      <path d="M 78.265625 578.491685 
L 729.775625 578.491685 
" clip-path="url(#pe9b81396c4)" style="fill: none; stroke: #cccccc; stroke-linecap: round"/>
     </g>
     <g id="text_25">
      <text style="font-size: 10px; font-family: 'Arial', 'DejaVu Sans', 'Liberation Sans', 'Bitstream Vera Sans', sans-serif; text-anchor: end; fill: #262626" x="68.765625" y="582.290904" transform="rotate(-0 68.765625 582.290904)">200</text>
     </g>
    </g>
    <g id="text_26">
     <text style="font-size: 10px; font-family: 'Arial', 'DejaVu Sans', 'Liberation Sans', 'Bitstream Vera Sans', sans-serif; text-anchor: middle; fill: #262626" x="43.598437" y="780.81" transform="rotate(-90 43.598437 780.81)">Distance (μm)</text>
    </g>
   </g>
   <g id="FillBetweenPolyCollection_6">
    <defs>
     <path id="m72fb3801da" d="M 143.655655 -192.507611 
L 143.177595 -192.507611 
L 142.409343 -196.574284 
L 140.518157 -200.640956 
L 137.129414 -204.707629 
L 132.325563 -208.774301 
L 126.686037 -212.840974 
L 121.08528 -216.907646 
L 116.269453 -220.974318 
L 112.473413 -225.040991 
L 109.395848 -229.107663 
L 106.689075 -233.174336 
L 104.243346 -237.241008 
L 101.990546 -241.307681 
L 99.889054 -245.374353 
L 98.015209 -249.441025 
L 96.454219 -253.507698 
L 95.198088 -257.57437 
L 94.17596 -261.641043 
L 93.317064 -265.707715 
L 92.624226 -269.774388 
L 92.075272 -273.84106 
L 91.639011 -277.907732 
L 91.360973 -281.974405 
L 91.295825 -286.041077 
L 91.387107 -290.10775 
L 91.563401 -294.174422 
L 91.840681 -298.241095 
L 92.245583 -302.307767 
L 92.791078 -306.374439 
L 93.397755 -310.441112 
L 94.006308 -314.507784 
L 94.633538 -318.574457 
L 95.304063 -322.641129 
L 96.113793 -326.707802 
L 97.02516 -330.774474 
L 97.924936 -334.841146 
L 98.830568 -338.907819 
L 99.752067 -342.974491 
L 100.736475 -347.041164 
L 101.75544 -351.107836 
L 102.69399 -355.174509 
L 103.59761 -359.241181 
L 104.570413 -363.307853 
L 105.624111 -367.374526 
L 106.654781 -371.441198 
L 107.639955 -375.507871 
L 108.630147 -379.574543 
L 109.584868 -383.641216 
L 110.543789 -387.707888 
L 111.522128 -391.77456 
L 112.490967 -395.841233 
L 113.412313 -399.907905 
L 114.237828 -403.974578 
L 115.035285 -408.04125 
L 115.869062 -412.107923 
L 116.724521 -416.174595 
L 117.600072 -420.241267 
L 118.453625 -424.30794 
L 119.265831 -428.374612 
L 120.00844 -432.441285 
L 120.695821 -436.507957 
L 121.403568 -440.57463 
L 122.13024 -444.641302 
L 122.834266 -448.707974 
L 123.516166 -452.774647 
L 124.141979 -456.841319 
L 124.704982 -460.907992 
L 125.274808 -464.974664 
L 125.865135 -469.041337 
L 126.464618 -473.108009 
L 127.076887 -477.174681 
L 127.658477 -481.241354 
L 128.154966 -485.308026 
L 128.632377 -489.374699 
L 129.142968 -493.441371 
L 129.615452 -497.508044 
L 130.039128 -501.574716 
L 130.460818 -505.641388 
L 130.891274 -509.708061 
L 131.321222 -513.774733 
L 131.742294 -517.841406 
L 132.131627 -521.908078 
L 132.497095 -525.974751 
L 132.858647 -530.041423 
L 133.185353 -534.108095 
L 133.505112 -538.174768 
L 133.836283 -542.24144 
L 134.155784 -546.308113 
L 134.477613 -550.374785 
L 134.783513 -554.441458 
L 135.062413 -558.50813 
L 135.328013 -562.574802 
L 135.592625 -566.641475 
L 135.856734 -570.708147 
L 136.11701 -574.77482 
L 136.36409 -578.841492 
L 136.597824 -582.908165 
L 136.978982 -586.974837 
L 138.065948 -591.041509 
L 140.260898 -595.108182 
L 146.572352 -595.108182 
L 146.572352 -595.108182 
L 148.767302 -591.041509 
L 149.854268 -586.974837 
L 150.235426 -582.908165 
L 150.46916 -578.841492 
L 150.71624 -574.77482 
L 150.976516 -570.708147 
L 151.240625 -566.641475 
L 151.505237 -562.574802 
L 151.770837 -558.50813 
L 152.049737 -554.441458 
L 152.355637 -550.374785 
L 152.677466 -546.308113 
L 152.996967 -542.24144 
L 153.328138 -538.174768 
L 153.647897 -534.108095 
L 153.974603 -530.041423 
L 154.336155 -525.974751 
L 154.701623 -521.908078 
L 155.090956 -517.841406 
L 155.512028 -513.774733 
L 155.941976 -509.708061 
L 156.372432 -505.641388 
L 156.794122 -501.574716 
L 157.217798 -497.508044 
L 157.690282 -493.441371 
L 158.200873 -489.374699 
L 158.678284 -485.308026 
L 159.174773 -481.241354 
L 159.756363 -477.174681 
L 160.368632 -473.108009 
L 160.968115 -469.041337 
L 161.558442 -464.974664 
L 162.128268 -460.907992 
L 162.691271 -456.841319 
L 163.317084 -452.774647 
L 163.998984 -448.707974 
L 164.70301 -444.641302 
L 165.429682 -440.57463 
L 166.137429 -436.507957 
L 166.82481 -432.441285 
L 167.567419 -428.374612 
L 168.379625 -424.30794 
L 169.233178 -420.241267 
L 170.108729 -416.174595 
L 170.964188 -412.107923 
L 171.797965 -408.04125 
L 172.595422 -403.974578 
L 173.420937 -399.907905 
L 174.342283 -395.841233 
L 175.311122 -391.77456 
L 176.289461 -387.707888 
L 177.248382 -383.641216 
L 178.203103 -379.574543 
L 179.193295 -375.507871 
L 180.178469 -371.441198 
L 181.209139 -367.374526 
L 182.262837 -363.307853 
L 183.23564 -359.241181 
L 184.13926 -355.174509 
L 185.07781 -351.107836 
L 186.096775 -347.041164 
L 187.081183 -342.974491 
L 188.002682 -338.907819 
L 188.908314 -334.841146 
L 189.80809 -330.774474 
L 190.719457 -326.707802 
L 191.529187 -322.641129 
L 192.199712 -318.574457 
L 192.826942 -314.507784 
L 193.435495 -310.441112 
L 194.042172 -306.374439 
L 194.587667 -302.307767 
L 194.992569 -298.241095 
L 195.269849 -294.174422 
L 195.446143 -290.10775 
L 195.537425 -286.041077 
L 195.472277 -281.974405 
L 195.194239 -277.907732 
L 194.757978 -273.84106 
L 194.209024 -269.774388 
L 193.516186 -265.707715 
L 192.65729 -261.641043 
L 191.635162 -257.57437 
L 190.379031 -253.507698 
L 188.818041 -249.441025 
L 186.944196 -245.374353 
L 184.842704 -241.307681 
L 182.589904 -237.241008 
L 180.144175 -233.174336 
L 177.437402 -229.107663 
L 174.359837 -225.040991 
L 170.563797 -220.974318 
L 165.74797 -216.907646 
L 160.147213 -212.840974 
L 154.507687 -208.774301 
L 149.703836 -204.707629 
L 146.315093 -200.640956 
L 144.423907 -196.574284 
L 143.655655 -192.507611 
z
" style="stroke: #4d4d4d; stroke-opacity: 0.9; stroke-width: 1.25"/>
    </defs>
    <g clip-path="url(#pe9b81396c4)">
     <use xlink:href="#m72fb3801da" x="0" y="1173.6" style="fill: #d56b5b; fill-opacity: 0.9; stroke: #4d4d4d; stroke-opacity: 0.9; stroke-width: 1.25"/>
    </g>
   </g>
   <g id="FillBetweenPolyCollection_7">
    <defs>
     <path id="mb36ae5833d" d="M 274.576238 -190.471818 
L 272.861012 -190.471818 
L 269.510041 -194.559052 
L 261.605795 -198.646285 
L 250.184533 -202.733518 
L 238.699732 -206.820752 
L 230.006911 -210.907985 
L 225.001249 -214.995219 
L 223.08971 -219.082452 
L 223.054043 -223.169685 
L 223.795642 -227.256919 
L 224.748109 -231.344152 
L 225.725923 -235.431386 
L 226.701151 -239.518619 
L 227.702631 -243.605853 
L 228.777929 -247.693086 
L 229.967139 -251.780319 
L 231.194927 -255.867553 
L 232.353179 -259.954786 
L 233.476842 -264.04202 
L 234.622607 -268.129253 
L 235.795309 -272.216486 
L 236.910503 -276.30372 
L 237.993305 -280.390953 
L 239.089012 -284.478187 
L 240.176045 -288.56542 
L 241.274516 -292.652653 
L 242.356685 -296.739887 
L 243.387869 -300.82712 
L 244.384533 -304.914354 
L 245.364209 -309.001587 
L 246.337033 -313.08882 
L 247.292603 -317.176054 
L 248.221756 -321.263287 
L 249.141433 -325.350521 
L 250.052285 -329.437754 
L 250.921146 -333.524988 
L 251.704624 -337.612221 
L 252.467823 -341.699454 
L 253.271989 -345.786688 
L 254.040012 -349.873921 
L 254.742451 -353.961155 
L 255.433229 -358.048388 
L 256.109658 -362.135621 
L 256.789914 -366.222855 
L 257.475422 -370.310088 
L 258.12655 -374.397322 
L 258.724317 -378.484555 
L 259.271326 -382.571788 
L 259.791013 -386.659022 
L 260.30805 -390.746255 
L 260.827634 -394.833489 
L 261.32194 -398.920722 
L 261.788587 -403.007955 
L 262.251722 -407.095189 
L 262.710498 -411.182422 
L 263.164914 -415.269656 
L 263.587588 -419.356889 
L 263.951286 -423.444123 
L 264.30113 -427.531356 
L 264.695253 -431.618589 
L 265.060988 -435.705823 
L 265.379175 -439.793056 
L 265.710626 -443.88029 
L 266.053437 -447.967523 
L 266.374092 -452.054756 
L 266.672225 -456.14199 
L 266.944204 -460.229223 
L 267.19422 -464.316457 
L 267.427764 -468.40369 
L 267.659903 -472.490923 
L 267.899577 -476.578157 
L 268.14285 -480.66539 
L 268.383735 -484.752624 
L 268.606718 -488.839857 
L 268.815769 -492.927091 
L 269.015023 -497.014324 
L 269.185533 -501.101557 
L 269.331625 -505.188791 
L 269.49563 -509.276024 
L 269.666385 -513.363258 
L 269.831879 -517.450491 
L 269.986933 -521.537724 
L 270.120457 -525.624958 
L 270.238692 -529.712191 
L 270.361933 -533.799425 
L 270.489273 -537.886658 
L 270.604623 -541.973891 
L 270.709362 -546.061125 
L 270.808585 -550.148358 
L 270.905761 -554.235592 
L 271.003641 -558.322825 
L 271.098338 -562.410058 
L 271.194182 -566.497292 
L 271.290544 -570.584525 
L 271.366221 -574.671759 
L 271.433603 -578.758992 
L 271.509579 -582.846226 
L 271.604195 -586.933459 
L 271.920382 -591.020692 
L 272.671397 -595.107926 
L 274.765853 -595.107926 
L 274.765853 -595.107926 
L 275.516868 -591.020692 
L 275.833055 -586.933459 
L 275.927671 -582.846226 
L 276.003647 -578.758992 
L 276.071029 -574.671759 
L 276.146706 -570.584525 
L 276.243068 -566.497292 
L 276.338912 -562.410058 
L 276.433609 -558.322825 
L 276.531489 -554.235592 
L 276.628665 -550.148358 
L 276.727888 -546.061125 
L 276.832627 -541.973891 
L 276.947977 -537.886658 
L 277.075317 -533.799425 
L 277.198558 -529.712191 
L 277.316793 -525.624958 
L 277.450317 -521.537724 
L 277.605371 -517.450491 
L 277.770865 -513.363258 
L 277.94162 -509.276024 
L 278.105625 -505.188791 
L 278.251717 -501.101557 
L 278.422227 -497.014324 
L 278.621481 -492.927091 
L 278.830532 -488.839857 
L 279.053515 -484.752624 
L 279.2944 -480.66539 
L 279.537673 -476.578157 
L 279.777347 -472.490923 
L 280.009486 -468.40369 
L 280.24303 -464.316457 
L 280.493046 -460.229223 
L 280.765025 -456.14199 
L 281.063158 -452.054756 
L 281.383813 -447.967523 
L 281.726624 -443.88029 
L 282.058075 -439.793056 
L 282.376262 -435.705823 
L 282.741997 -431.618589 
L 283.13612 -427.531356 
L 283.485964 -423.444123 
L 283.849662 -419.356889 
L 284.272336 -415.269656 
L 284.726752 -411.182422 
L 285.185528 -407.095189 
L 285.648663 -403.007955 
L 286.11531 -398.920722 
L 286.609616 -394.833489 
L 287.1292 -390.746255 
L 287.646237 -386.659022 
L 288.165924 -382.571788 
L 288.712933 -378.484555 
L 289.3107 -374.397322 
L 289.961828 -370.310088 
L 290.647336 -366.222855 
L 291.327592 -362.135621 
L 292.004021 -358.048388 
L 292.694799 -353.961155 
L 293.397238 -349.873921 
L 294.165261 -345.786688 
L 294.969427 -341.699454 
L 295.732626 -337.612221 
L 296.516104 -333.524988 
L 297.384965 -329.437754 
L 298.295817 -325.350521 
L 299.215494 -321.263287 
L 300.144647 -317.176054 
L 301.100217 -313.08882 
L 302.073041 -309.001587 
L 303.052717 -304.914354 
L 304.049381 -300.82712 
L 305.080565 -296.739887 
L 306.162734 -292.652653 
L 307.261205 -288.56542 
L 308.348238 -284.478187 
L 309.443945 -280.390953 
L 310.526747 -276.30372 
L 311.641941 -272.216486 
L 312.814643 -268.129253 
L 313.960408 -264.04202 
L 315.084071 -259.954786 
L 316.242323 -255.867553 
L 317.470111 -251.780319 
L 318.659321 -247.693086 
L 319.734619 -243.605853 
L 320.736099 -239.518619 
L 321.711327 -235.431386 
L 322.689141 -231.344152 
L 323.641608 -227.256919 
L 324.383207 -223.169685 
L 324.34754 -219.082452 
L 322.436001 -214.995219 
L 317.430339 -210.907985 
L 308.737518 -206.820752 
L 297.252717 -202.733518 
L 285.831455 -198.646285 
L 277.927209 -194.559052 
L 274.576238 -190.471818 
z
" style="stroke: #4d4d4d; stroke-opacity: 0.9; stroke-width: 1.25"/>
    </defs>
    <g clip-path="url(#pe9b81396c4)">
     <use xlink:href="#mb36ae5833d" x="0" y="1173.6" style="fill: #ecbd81; fill-opacity: 0.9; stroke: #4d4d4d; stroke-opacity: 0.9; stroke-width: 1.25"/>
    </g>
   </g>
   <g id="FillBetweenPolyCollection_8">
    <defs>
     <path id="m1023270b87" d="M 404.655638 -190.623997 
L 403.385612 -190.623997 
L 402.05123 -194.709682 
L 399.61309 -198.795367 
L 396.41788 -202.881051 
L 393.239509 -206.966736 
L 390.739999 -211.05242 
L 389.17417 -215.138105 
L 388.42874 -219.22379 
L 388.223966 -223.309474 
L 388.290513 -227.395159 
L 388.440295 -231.480844 
L 388.587283 -235.566528 
L 388.72171 -239.652213 
L 388.840854 -243.737897 
L 388.94771 -247.823582 
L 389.064609 -251.909267 
L 389.200552 -255.994951 
L 389.344004 -260.080636 
L 389.476753 -264.166321 
L 389.60228 -268.252005 
L 389.749111 -272.33769 
L 389.923912 -276.423374 
L 390.111734 -280.509059 
L 390.321945 -284.594744 
L 390.562953 -288.680428 
L 390.81773 -292.766113 
L 391.073954 -296.851798 
L 391.328454 -300.937482 
L 391.575802 -305.023167 
L 391.817218 -309.108851 
L 392.06541 -313.194536 
L 392.335454 -317.280221 
L 392.63457 -321.365905 
L 392.932926 -325.45159 
L 393.203956 -329.537275 
L 393.478153 -333.622959 
L 393.782517 -337.708644 
L 394.100546 -341.794328 
L 394.408076 -345.880013 
L 394.698133 -349.965698 
L 394.984632 -354.051382 
L 395.276345 -358.137067 
L 395.55359 -362.222752 
L 395.803535 -366.308436 
L 396.055966 -370.394121 
L 396.338827 -374.479806 
L 396.618996 -378.56549 
L 396.866783 -382.651175 
L 397.107954 -386.736859 
L 397.363698 -390.822544 
L 397.614362 -394.908229 
L 397.840876 -398.993913 
L 398.057418 -403.079598 
L 398.279488 -407.165283 
L 398.504499 -411.250967 
L 398.723123 -415.336652 
L 398.923981 -419.422336 
L 399.111844 -423.508021 
L 399.305238 -427.593706 
L 399.506296 -431.67939 
L 399.700647 -435.765075 
L 399.876751 -439.85076 
L 400.035433 -443.936444 
L 400.186459 -448.022129 
L 400.339759 -452.107813 
L 400.496459 -456.193498 
L 400.645342 -460.279183 
L 400.773426 -464.364867 
L 400.883842 -468.450552 
L 400.992928 -472.536237 
L 401.110888 -476.621921 
L 401.23203 -480.707606 
L 401.347565 -484.79329 
L 401.458991 -488.878975 
L 401.568804 -492.96466 
L 401.674354 -497.050344 
L 401.772386 -501.136029 
L 401.861349 -505.221714 
L 401.94615 -509.307398 
L 402.028774 -513.393083 
L 402.106526 -517.478767 
L 402.181211 -521.564452 
L 402.25545 -525.650137 
L 402.327267 -529.735821 
L 402.389632 -533.821506 
L 402.441237 -537.907191 
L 402.49088 -541.992875 
L 402.546488 -546.07856 
L 402.609782 -550.164245 
L 402.67631 -554.249929 
L 402.734844 -558.335614 
L 402.777663 -562.421298 
L 402.811707 -566.506983 
L 402.848385 -570.592668 
L 402.890138 -574.678352 
L 402.932453 -578.764037 
L 402.975855 -582.849722 
L 403.048898 -586.935406 
L 403.220564 -591.021091 
L 403.512297 -595.106775 
L 404.528953 -595.106775 
L 404.528953 -595.106775 
L 404.820686 -591.021091 
L 404.992352 -586.935406 
L 405.065395 -582.849722 
L 405.108797 -578.764037 
L 405.151112 -574.678352 
L 405.192865 -570.592668 
L 405.229543 -566.506983 
L 405.263587 -562.421298 
L 405.306406 -558.335614 
L 405.36494 -554.249929 
L 405.431468 -550.164245 
L 405.494762 -546.07856 
L 405.55037 -541.992875 
L 405.600013 -537.907191 
L 405.651618 -533.821506 
L 405.713983 -529.735821 
L 405.7858 -525.650137 
L 405.860039 -521.564452 
L 405.934724 -517.478767 
L 406.012476 -513.393083 
L 406.0951 -509.307398 
L 406.179901 -505.221714 
L 406.268864 -501.136029 
L 406.366896 -497.050344 
L 406.472446 -492.96466 
L 406.582259 -488.878975 
L 406.693685 -484.79329 
L 406.80922 -480.707606 
L 406.930362 -476.621921 
L 407.048322 -472.536237 
L 407.157408 -468.450552 
L 407.267824 -464.364867 
L 407.395908 -460.279183 
L 407.544791 -456.193498 
L 407.701491 -452.107813 
L 407.854791 -448.022129 
L 408.005817 -443.936444 
L 408.164499 -439.85076 
L 408.340603 -435.765075 
L 408.534954 -431.67939 
L 408.736012 -427.593706 
L 408.929406 -423.508021 
L 409.117269 -419.422336 
L 409.318127 -415.336652 
L 409.536751 -411.250967 
L 409.761762 -407.165283 
L 409.983832 -403.079598 
L 410.200374 -398.993913 
L 410.426888 -394.908229 
L 410.677552 -390.822544 
L 410.933296 -386.736859 
L 411.174467 -382.651175 
L 411.422254 -378.56549 
L 411.702423 -374.479806 
L 411.985284 -370.394121 
L 412.237715 -366.308436 
L 412.48766 -362.222752 
L 412.764905 -358.137067 
L 413.056618 -354.051382 
L 413.343117 -349.965698 
L 413.633174 -345.880013 
L 413.940704 -341.794328 
L 414.258733 -337.708644 
L 414.563097 -333.622959 
L 414.837294 -329.537275 
L 415.108324 -325.45159 
L 415.40668 -321.365905 
L 415.705796 -317.280221 
L 415.97584 -313.194536 
L 416.224032 -309.108851 
L 416.465448 -305.023167 
L 416.712796 -300.937482 
L 416.967296 -296.851798 
L 417.22352 -292.766113 
L 417.478297 -288.680428 
L 417.719305 -284.594744 
L 417.929516 -280.509059 
L 418.117338 -276.423374 
L 418.292139 -272.33769 
L 418.43897 -268.252005 
L 418.564497 -264.166321 
L 418.697246 -260.080636 
L 418.840698 -255.994951 
L 418.976641 -251.909267 
L 419.09354 -247.823582 
L 419.200396 -243.737897 
L 419.31954 -239.652213 
L 419.453967 -235.566528 
L 419.600955 -231.480844 
L 419.750737 -227.395159 
L 419.817284 -223.309474 
L 419.61251 -219.22379 
L 418.86708 -215.138105 
L 417.301251 -211.05242 
L 414.801741 -206.966736 
L 411.62337 -202.881051 
L 408.42816 -198.795367 
L 405.99002 -194.709682 
L 404.655638 -190.623997 
z
" style="stroke: #4d4d4d; stroke-opacity: 0.9; stroke-width: 1.25"/>
    </defs>
    <g clip-path="url(#pe9b81396c4)">
     <use xlink:href="#m1023270b87" x="0" y="1173.6" style="fill: #f7f7c6; fill-opacity: 0.9; stroke: #4d4d4d; stroke-opacity: 0.9; stroke-width: 1.25"/>
    </g>
   </g>
   <g id="FillBetweenPolyCollection_9">
    <defs>
     <path id="m8b0647e8a7" d="M 665.250187 -192.136688 
L 663.999063 -192.136688 
L 663.205395 -196.206983 
L 662.06322 -200.277277 
L 660.793459 -204.347572 
L 659.668784 -208.417867 
L 658.858357 -212.488161 
L 658.392674 -216.558456 
L 658.211737 -220.628751 
L 658.220605 -224.699046 
L 658.33348 -228.76934 
L 658.497252 -232.839635 
L 658.686949 -236.90993 
L 658.88943 -240.980224 
L 659.092514 -245.050519 
L 659.284774 -249.120814 
L 659.46243 -253.191109 
L 659.631382 -257.261403 
L 659.801003 -261.331698 
L 659.978704 -265.401993 
L 660.167222 -269.472287 
L 660.35997 -273.542582 
L 660.542421 -277.612877 
L 660.705297 -281.683172 
L 660.852838 -285.753466 
L 660.99582 -289.823761 
L 661.139725 -293.894056 
L 661.280008 -297.96435 
L 661.41006 -302.034645 
L 661.531663 -306.10494 
L 661.652721 -310.175235 
L 661.776773 -314.245529 
L 661.897913 -318.315824 
L 662.006459 -322.386119 
L 662.099256 -326.456413 
L 662.183467 -330.526708 
L 662.269684 -334.597003 
L 662.360467 -338.667298 
L 662.448677 -342.737592 
L 662.529547 -346.807887 
L 662.606794 -350.878182 
L 662.685159 -354.948476 
L 662.764206 -359.018771 
L 662.839734 -363.089066 
L 662.909122 -367.159361 
L 662.973063 -371.229655 
L 663.03196 -375.29995 
L 663.085536 -379.370245 
L 663.135532 -383.440539 
L 663.185054 -387.510834 
L 663.235716 -391.581129 
L 663.287005 -395.651424 
L 663.338236 -399.721718 
L 663.389281 -403.792013 
L 663.438038 -407.862308 
L 663.48045 -411.932602 
L 663.515944 -416.002897 
L 663.549425 -420.073192 
L 663.585325 -424.143487 
L 663.622762 -428.213781 
L 663.658014 -432.284076 
L 663.688896 -436.354371 
L 663.716139 -440.424665 
L 663.741918 -444.49496 
L 663.767542 -448.565255 
L 663.792891 -452.63555 
L 663.817908 -456.705844 
L 663.843248 -460.776139 
L 663.868753 -464.846434 
L 663.892842 -468.916728 
L 663.914053 -472.987023 
L 663.932915 -477.057318 
L 663.951967 -481.127613 
L 663.972692 -485.197907 
L 663.993858 -489.268202 
L 664.014075 -493.338497 
L 664.033467 -497.408791 
L 664.052317 -501.479086 
L 664.070243 -505.549381 
L 664.08663 -509.619676 
L 664.1014 -513.68997 
L 664.115772 -517.760265 
L 664.130917 -521.83056 
L 664.145849 -525.900854 
L 664.158695 -529.971149 
L 664.169189 -534.041444 
L 664.178636 -538.111739 
L 664.188279 -542.182033 
L 664.198578 -546.252328 
L 664.209755 -550.322623 
L 664.221447 -554.392917 
L 664.232259 -558.463212 
L 664.241371 -562.533507 
L 664.249585 -566.603802 
L 664.257655 -570.674096 
L 664.265341 -574.744391 
L 664.273331 -578.814686 
L 664.286802 -582.88498 
L 664.31769 -586.955275 
L 664.377642 -591.02557 
L 664.460939 -595.095865 
L 664.788311 -595.095865 
L 664.788311 -595.095865 
L 664.871608 -591.02557 
L 664.93156 -586.955275 
L 664.962448 -582.88498 
L 664.975919 -578.814686 
L 664.983909 -574.744391 
L 664.991595 -570.674096 
L 664.999665 -566.603802 
L 665.007879 -562.533507 
L 665.016991 -558.463212 
L 665.027803 -554.392917 
L 665.039495 -550.322623 
L 665.050672 -546.252328 
L 665.060971 -542.182033 
L 665.070614 -538.111739 
L 665.080061 -534.041444 
L 665.090555 -529.971149 
L 665.103401 -525.900854 
L 665.118333 -521.83056 
L 665.133478 -517.760265 
L 665.14785 -513.68997 
L 665.16262 -509.619676 
L 665.179007 -505.549381 
L 665.196933 -501.479086 
L 665.215783 -497.408791 
L 665.235175 -493.338497 
L 665.255392 -489.268202 
L 665.276558 -485.197907 
L 665.297283 -481.127613 
L 665.316335 -477.057318 
L 665.335197 -472.987023 
L 665.356408 -468.916728 
L 665.380497 -464.846434 
L 665.406002 -460.776139 
L 665.431342 -456.705844 
L 665.456359 -452.63555 
L 665.481708 -448.565255 
L 665.507332 -444.49496 
L 665.533111 -440.424665 
L 665.560354 -436.354371 
L 665.591236 -432.284076 
L 665.626488 -428.213781 
L 665.663925 -424.143487 
L 665.699825 -420.073192 
L 665.733306 -416.002897 
L 665.7688 -411.932602 
L 665.811212 -407.862308 
L 665.859969 -403.792013 
L 665.911014 -399.721718 
L 665.962245 -395.651424 
L 666.013534 -391.581129 
L 666.064196 -387.510834 
L 666.113718 -383.440539 
L 666.163714 -379.370245 
L 666.21729 -375.29995 
L 666.276187 -371.229655 
L 666.340128 -367.159361 
L 666.409516 -363.089066 
L 666.485044 -359.018771 
L 666.564091 -354.948476 
L 666.642456 -350.878182 
L 666.719703 -346.807887 
L 666.800573 -342.737592 
L 666.888783 -338.667298 
L 666.979566 -334.597003 
L 667.065783 -330.526708 
L 667.149994 -326.456413 
L 667.242791 -322.386119 
L 667.351337 -318.315824 
L 667.472477 -314.245529 
L 667.596529 -310.175235 
L 667.717587 -306.10494 
L 667.83919 -302.034645 
L 667.969242 -297.96435 
L 668.109525 -293.894056 
L 668.25343 -289.823761 
L 668.396412 -285.753466 
L 668.543953 -281.683172 
L 668.706829 -277.612877 
L 668.88928 -273.542582 
L 669.082028 -269.472287 
L 669.270546 -265.401993 
L 669.448247 -261.331698 
L 669.617868 -257.261403 
L 669.78682 -253.191109 
L 669.964476 -249.120814 
L 670.156736 -245.050519 
L 670.35982 -240.980224 
L 670.562301 -236.90993 
L 670.751998 -232.839635 
L 670.91577 -228.76934 
L 671.028645 -224.699046 
L 671.037513 -220.628751 
L 670.856576 -216.558456 
L 670.390893 -212.488161 
L 669.580466 -208.417867 
L 668.455791 -204.347572 
L 667.18603 -200.277277 
L 666.043855 -196.206983 
L 665.250187 -192.136688 
z
" style="stroke: #4d4d4d; stroke-opacity: 0.9; stroke-width: 1.25"/>
    </defs>
    <g clip-path="url(#pe9b81396c4)">
     <use xlink:href="#m8b0647e8a7" x="0" y="1173.6" style="fill: #5fa2a2; fill-opacity: 0.9; stroke: #4d4d4d; stroke-opacity: 0.9; stroke-width: 1.25"/>
    </g>
   </g>
   <g id="line2d_34">
    <path d="M 143.416625 981.092389 
L 143.416625 578.491818 
" clip-path="url(#pe9b81396c4)" style="fill: none; stroke: #4d4d4d; stroke-width: 1.875; stroke-linecap: round"/>
   </g>
   <g id="line2d_35">
    <path d="M 143.416625 895.807328 
L 143.416625 766.298898 
" clip-path="url(#pe9b81396c4)" style="fill: none; stroke: #4d4d4d; stroke-width: 5.625; stroke-linecap: round"/>
   </g>
   <g id="line2d_36">
    <path d="M 143.416625 840.742769 
" clip-path="url(#pe9b81396c4)" style="fill: none; stroke: #4d4d4d; stroke-width: 1.5; stroke-linecap: round"/>
    <g clip-path="url(#pe9b81396c4)">
     <use xlink:href="#m03e01c85e5" x="143.416625" y="840.742769" style="fill: #ffffff; stroke: #ffffff; stroke-width: 1.125"/>
    </g>
   </g>
   <g id="line2d_37">
    <path d="M 273.718625 983.128182 
L 273.718625 651.957005 
" clip-path="url(#pe9b81396c4)" style="fill: none; stroke: #4d4d4d; stroke-width: 1.875; stroke-linecap: round"/>
   </g>
   <g id="line2d_38">
    <path d="M 273.718625 933.867345 
L 273.718625 821.102935 
" clip-path="url(#pe9b81396c4)" style="fill: none; stroke: #4d4d4d; stroke-width: 5.625; stroke-linecap: round"/>
   </g>
   <g id="line2d_39">
    <path d="M 273.718625 889.58371 
" clip-path="url(#pe9b81396c4)" style="fill: none; stroke: #4d4d4d; stroke-width: 1.5; stroke-linecap: round"/>
    <g clip-path="url(#pe9b81396c4)">
     <use xlink:href="#m03e01c85e5" x="273.718625" y="889.58371" style="fill: #ffffff; stroke: #ffffff; stroke-width: 1.125"/>
    </g>
   </g>
   <g id="line2d_40">
    <path d="M 404.020625 982.976003 
L 404.020625 617.726481 
" clip-path="url(#pe9b81396c4)" style="fill: none; stroke: #4d4d4d; stroke-width: 1.875; stroke-linecap: round"/>
   </g>
   <g id="line2d_41">
    <path d="M 404.020625 923.702879 
L 404.020625 801.312135 
" clip-path="url(#pe9b81396c4)" style="fill: none; stroke: #4d4d4d; stroke-width: 5.625; stroke-linecap: round"/>
   </g>
   <g id="line2d_42">
    <path d="M 404.020625 871.964441 
" clip-path="url(#pe9b81396c4)" style="fill: none; stroke: #4d4d4d; stroke-width: 1.5; stroke-linecap: round"/>
    <g clip-path="url(#pe9b81396c4)">
     <use xlink:href="#m03e01c85e5" x="404.020625" y="871.964441" style="fill: #ffffff; stroke: #ffffff; stroke-width: 1.125"/>
    </g>
   </g>
   <g id="line2d_43">
    <path d="M 664.624625 981.463312 
L 664.624625 654.165493 
" clip-path="url(#pe9b81396c4)" style="fill: none; stroke: #4d4d4d; stroke-width: 1.875; stroke-linecap: round"/>
   </g>
   <g id="line2d_44">
    <path d="M 664.624625 938.255175 
L 664.624625 824.615302 
" clip-path="url(#pe9b81396c4)" style="fill: none; stroke: #4d4d4d; stroke-width: 5.625; stroke-linecap: round"/>
   </g>
   <g id="line2d_45">
    <path d="M 664.624625 896.36674 
" clip-path="url(#pe9b81396c4)" style="fill: none; stroke: #4d4d4d; stroke-width: 1.5; stroke-linecap: round"/>
    <g clip-path="url(#pe9b81396c4)">
     <use xlink:href="#m03e01c85e5" x="664.624625" y="896.36674" style="fill: #ffffff; stroke: #ffffff; stroke-width: 1.125"/>
    </g>
   </g>
   <g id="patch_8">
    <path d="M 78.265625 1003.36 
L 78.265625 558.26 
" style="fill: none; stroke: #cccccc; stroke-width: 1.25; stroke-linejoin: miter; stroke-linecap: square"/>
   </g>
   <g id="patch_9">
    <path d="M 729.775625 1003.36 
L 729.775625 558.26 
" style="fill: none; stroke: #cccccc; stroke-width: 1.25; stroke-linejoin: miter; stroke-linecap: square"/>
   </g>
   <g id="patch_10">
    <path d="M 78.265625 1003.36 
L 729.775625 1003.36 
" style="fill: none; stroke: #cccccc; stroke-width: 1.25; stroke-linejoin: miter; stroke-linecap: square"/>
   </g>
   <g id="patch_11">
    <path d="M 78.265625 558.26 
L 729.775625 558.26 
" style="fill: none; stroke: #cccccc; stroke-width: 1.25; stroke-linejoin: miter; stroke-linecap: square"/>
   </g>
   <g id="text_27">
    <text style="font-size: 10px; font-family: 'Arial', 'DejaVu Sans', 'Liberation Sans', 'Bitstream Vera Sans', sans-serif; text-anchor: middle; fill: #262626" x="404.020625" y="552.26" transform="rotate(-0 404.020625 552.26)">cycif-sorgerlab</text>
   </g>
  </g>
  <g id="text_28">
   <text style="font-size: 10px; font-family: 'Arial', 'DejaVu Sans', 'Liberation Sans', 'Bitstream Vera Sans', sans-serif; text-anchor: middle; fill: #262626" x="382.735625" y="43.998438" transform="rotate(-0 382.735625 43.998438)">Distance distribution per Level One Cell Type in `colon-cycif-sorgerlab-xenium-stanford` (density normalization = count)</text>
  </g>
  <g id="text_29">
   <text style="font-size: 10px; font-family: 'Arial', 'DejaVu Sans', 'Liberation Sans', 'Bitstream Vera Sans', sans-serif; text-anchor: middle; fill: #262626" x="382.735625" y="1135.520313" transform="rotate(-0 382.735625 1135.520313)">Level One Cell Type</text>
  </g>
 </g>
 <defs>
  <clipPath id="p7da11b9236">
   <rect x="78.265625" y="86.28" width="651.51" height="445.1"/>
  </clipPath>
  <clipPath id="pe9b81396c4">
   <rect x="78.265625" y="558.26" width="651.51" height="445.1"/>
  </clipPath>
 </defs>
</svg>
