<?xml version="1.0" encoding="utf-8" standalone="no"?>
<!DOCTYPE svg PUBLIC "-//W3C//DTD SVG 1.1//EN"
  "http://www.w3.org/Graphics/SVG/1.1/DTD/svg11.dtd">
<svg xmlns:xlink="http://www.w3.org/1999/xlink" width="770.959625pt" height="482.741813pt" viewBox="0 0 770.959625 482.741813" xmlns="http://www.w3.org/2000/svg" version="1.1">
 <metadata>
  <rdf:RDF xmlns:dc="http://purl.org/dc/elements/1.1/" xmlns:cc="http://creativecommons.org/ns#" xmlns:rdf="http://www.w3.org/1999/02/22-rdf-syntax-ns#">
   <cc:Work>
    <dc:type rdf:resource="http://purl.org/dc/dcmitype/StillImage"/>
    <dc:date>2025-07-25T12:54:54.166223</dc:date>
    <dc:format>image/svg+xml</dc:format>
    <dc:creator>
     <cc:Agent>
      <dc:title>Matplotlib v3.10.3, https://matplotlib.org/</dc:title>
     </cc:Agent>
    </dc:creator>
   </cc:Work>
  </rdf:RDF>
 </metadata>
 <defs>
  <style type="text/css">*{stroke-linejoin: round; stroke-linecap: butt}</style>
 </defs>
 <g id="figure_1">
  <g id="patch_1">
   <path d="M 0 482.741813 
L 770.959625 482.741813 
L 770.959625 -0 
L 0 -0 
z
" style="fill: #ffffff"/>
  </g>
  <g id="axes_1">
   <g id="patch_2">
    <path d="M 78.265625 333.182437 
L 734.959625 333.182437 
L 734.959625 49.598438 
L 78.265625 49.598438 
z
" style="fill: #ffffff"/>
   </g>
   <g id="matplotlib.axis_1">
    <g id="xtick_1">
     <g id="text_1">
      <text style="font-size: 10px; font-family: 'Arial', 'DejaVu Sans', 'Liberation Sans', 'Bitstream Vera Sans', sans-serif; fill: #262626" transform="translate(146.6944 409.2215) rotate(-90)">epithelial cell</text>
     </g>
    </g>
    <g id="xtick_2">
     <g id="text_2">
      <text style="font-size: 10px; font-family: 'Arial', 'DejaVu Sans', 'Liberation Sans', 'Bitstream Vera Sans', sans-serif; fill: #262626" transform="translate(278.0332 433.063688) rotate(-90)">mesenchymal cell</text>
     </g>
    </g>
    <g id="xtick_3">
     <g id="text_3">
      <text style="font-size: 10px; font-family: 'Arial', 'DejaVu Sans', 'Liberation Sans', 'Bitstream Vera Sans', sans-serif; fill: #262626" transform="translate(409.372 404.155875) rotate(-90)">immune cell</text>
     </g>
    </g>
    <g id="xtick_4">
     <g id="text_4">
      <text style="font-size: 10px; font-family: 'Arial', 'DejaVu Sans', 'Liberation Sans', 'Bitstream Vera Sans', sans-serif; fill: #262626" transform="translate(540.7108 408.505875) rotate(-90)">unknown cell</text>
     </g>
    </g>
    <g id="xtick_5">
     <g id="text_5">
      <text style="font-size: 10px; font-family: 'Arial', 'DejaVu Sans', 'Liberation Sans', 'Bitstream Vera Sans', sans-serif; fill: #262626" transform="translate(672.0496 394.913688) rotate(-90)">neural cell</text>
     </g>
    </g>
    <g id="text_6">
     <text style="font-size: 10px; font-family: 'Arial', 'DejaVu Sans', 'Liberation Sans', 'Bitstream Vera Sans', sans-serif; text-anchor: middle; fill: #262626" x="406.612625" y="444.662125" transform="rotate(-0 406.612625 444.662125)">Level One Cell Type</text>
    </g>
   </g>
   <g id="matplotlib.axis_2">
    <g id="ytick_1">
     <g id="line2d_1">
      <path d="M 78.265625 321.142933 
L 734.959625 321.142933 
" clip-path="url(#pe21a470692)" style="fill: none; stroke: #cccccc; stroke-width: 2; stroke-linecap: round"/>
     </g>
     <g id="text_7">
      <text style="font-size: 10px; font-family: 'Arial', 'DejaVu Sans', 'Liberation Sans', 'Bitstream Vera Sans', sans-serif; text-anchor: end; fill: #262626" x="68.765625" y="324.942151" transform="rotate(-0 68.765625 324.942151)">0</text>
     </g>
    </g>
    <g id="ytick_2">
     <g id="line2d_2">
      <path d="M 78.265625 288.811133 
L 734.959625 288.811133 
" clip-path="url(#pe21a470692)" style="fill: none; stroke: #cccccc; stroke-width: 2; stroke-linecap: round"/>
     </g>
     <g id="text_8">
      <text style="font-size: 10px; font-family: 'Arial', 'DejaVu Sans', 'Liberation Sans', 'Bitstream Vera Sans', sans-serif; text-anchor: end; fill: #262626" x="68.765625" y="292.610352" transform="rotate(-0 68.765625 292.610352)">25</text>
     </g>
    </g>
    <g id="ytick_3">
     <g id="line2d_3">
      <path d="M 78.265625 256.479334 
L 734.959625 256.479334 
" clip-path="url(#pe21a470692)" style="fill: none; stroke: #cccccc; stroke-width: 2; stroke-linecap: round"/>
     </g>
     <g id="text_9">
      <text style="font-size: 10px; font-family: 'Arial', 'DejaVu Sans', 'Liberation Sans', 'Bitstream Vera Sans', sans-serif; text-anchor: end; fill: #262626" x="68.765625" y="260.278552" transform="rotate(-0 68.765625 260.278552)">50</text>
     </g>
    </g>
    <g id="ytick_4">
     <g id="line2d_4">
      <path d="M 78.265625 224.147534 
L 734.959625 224.147534 
" clip-path="url(#pe21a470692)" style="fill: none; stroke: #cccccc; stroke-width: 2; stroke-linecap: round"/>
     </g>
     <g id="text_10">
      <text style="font-size: 10px; font-family: 'Arial', 'DejaVu Sans', 'Liberation Sans', 'Bitstream Vera Sans', sans-serif; text-anchor: end; fill: #262626" x="68.765625" y="227.946753" transform="rotate(-0 68.765625 227.946753)">75</text>
     </g>
    </g>
    <g id="ytick_5">
     <g id="line2d_5">
      <path d="M 78.265625 191.815735 
L 734.959625 191.815735 
" clip-path="url(#pe21a470692)" style="fill: none; stroke: #cccccc; stroke-width: 2; stroke-linecap: round"/>
     </g>
     <g id="text_11">
      <text style="font-size: 10px; font-family: 'Arial', 'DejaVu Sans', 'Liberation Sans', 'Bitstream Vera Sans', sans-serif; text-anchor: end; fill: #262626" x="68.765625" y="195.614953" transform="rotate(-0 68.765625 195.614953)">100</text>
     </g>
    </g>
    <g id="ytick_6">
     <g id="line2d_6">
      <path d="M 78.265625 159.483935 
L 734.959625 159.483935 
" clip-path="url(#pe21a470692)" style="fill: none; stroke: #cccccc; stroke-width: 2; stroke-linecap: round"/>
     </g>
     <g id="text_12">
      <text style="font-size: 10px; font-family: 'Arial', 'DejaVu Sans', 'Liberation Sans', 'Bitstream Vera Sans', sans-serif; text-anchor: end; fill: #262626" x="68.765625" y="163.283154" transform="rotate(-0 68.765625 163.283154)">125</text>
     </g>
    </g>
    <g id="ytick_7">
     <g id="line2d_7">
      <path d="M 78.265625 127.152136 
L 734.959625 127.152136 
" clip-path="url(#pe21a470692)" style="fill: none; stroke: #cccccc; stroke-width: 2; stroke-linecap: round"/>
     </g>
     <g id="text_13">
      <text style="font-size: 10px; font-family: 'Arial', 'DejaVu Sans', 'Liberation Sans', 'Bitstream Vera Sans', sans-serif; text-anchor: end; fill: #262626" x="68.765625" y="130.951354" transform="rotate(-0 68.765625 130.951354)">150</text>
     </g>
    </g>
    <g id="ytick_8">
     <g id="line2d_8">
      <path d="M 78.265625 94.820336 
L 734.959625 94.820336 
" clip-path="url(#pe21a470692)" style="fill: none; stroke: #cccccc; stroke-width: 2; stroke-linecap: round"/>
     </g>
     <g id="text_14">
      <text style="font-size: 10px; font-family: 'Arial', 'DejaVu Sans', 'Liberation Sans', 'Bitstream Vera Sans', sans-serif; text-anchor: end; fill: #262626" x="68.765625" y="98.619555" transform="rotate(-0 68.765625 98.619555)">175</text>
     </g>
    </g>
    <g id="ytick_9">
     <g id="line2d_9">
      <path d="M 78.265625 62.488537 
L 734.959625 62.488537 
" clip-path="url(#pe21a470692)" style="fill: none; stroke: #cccccc; stroke-width: 2; stroke-linecap: round"/>
     </g>
     <g id="text_15">
      <text style="font-size: 10px; font-family: 'Arial', 'DejaVu Sans', 'Liberation Sans', 'Bitstream Vera Sans', sans-serif; text-anchor: end; fill: #262626" x="68.765625" y="66.287755" transform="rotate(-0 68.765625 66.287755)">200</text>
     </g>
    </g>
    <g id="text_16">
     <text style="font-size: 10px; font-family: 'Arial', 'DejaVu Sans', 'Liberation Sans', 'Bitstream Vera Sans', sans-serif; text-anchor: middle; fill: #262626" x="43.598437" y="191.390438" transform="rotate(-90 43.598437 191.390438)">Distance (μm)</text>
    </g>
   </g>
   <g id="FillBetweenPolyCollection_1">
    <defs>
     <path id="mefb1cd8384" d="M 144.071069 -162.449557 
L 143.798981 -162.449557 
L 143.331562 -165.053634 
L 142.443471 -167.657711 
L 141.395479 -170.261788 
L 140.258453 -172.865865 
L 138.90479 -175.469942 
L 137.31279 -178.07402 
L 135.566047 -180.678097 
L 133.831269 -183.282174 
L 132.305273 -185.886251 
L 131.128846 -188.490328 
L 130.311795 -191.094405 
L 129.761857 -193.698482 
L 129.390749 -196.30256 
L 129.161611 -198.906637 
L 129.065845 -201.510714 
L 129.086058 -204.114791 
L 129.2155 -206.718868 
L 129.433149 -209.322945 
L 129.690357 -211.927022 
L 129.972462 -214.5311 
L 130.271138 -217.135177 
L 130.579578 -219.739254 
L 130.888209 -222.343331 
L 131.198013 -224.947408 
L 131.516269 -227.551485 
L 131.841526 -230.155562 
L 132.151989 -232.759639 
L 132.440038 -235.363717 
L 132.722313 -237.967794 
L 133.013597 -240.571871 
L 133.300932 -243.175948 
L 133.570532 -245.780025 
L 133.830881 -248.384102 
L 134.078966 -250.988179 
L 134.33528 -253.592257 
L 134.602698 -256.196334 
L 134.858068 -258.800411 
L 135.107378 -261.404488 
L 135.348194 -264.008565 
L 135.590529 -266.612642 
L 135.83001 -269.216719 
L 136.047707 -271.820796 
L 136.258049 -274.424874 
L 136.480275 -277.028951 
L 136.714856 -279.633028 
L 136.936369 -282.237105 
L 137.146974 -284.841182 
L 137.353411 -287.445259 
L 137.55095 -290.049336 
L 137.752824 -292.653414 
L 137.954197 -295.257491 
L 138.148698 -297.861568 
L 138.325359 -300.465645 
L 138.486955 -303.069722 
L 138.654361 -305.673799 
L 138.825201 -308.277876 
L 138.99891 -310.881954 
L 139.170934 -313.486031 
L 139.334642 -316.090108 
L 139.486007 -318.694185 
L 139.623248 -321.298262 
L 139.761099 -323.902339 
L 139.903903 -326.506416 
L 140.042296 -329.110493 
L 140.176329 -331.714571 
L 140.299408 -334.318648 
L 140.409398 -336.922725 
L 140.521767 -339.526802 
L 140.637356 -342.130879 
L 140.753409 -344.734956 
L 140.872203 -347.339033 
L 140.983464 -349.943111 
L 141.077127 -352.547188 
L 141.171194 -355.151265 
L 141.272138 -357.755342 
L 141.361864 -360.359419 
L 141.443414 -362.963496 
L 141.526274 -365.567573 
L 141.610772 -368.17165 
L 141.694493 -370.775728 
L 141.7745 -373.379805 
L 141.846919 -375.983882 
L 141.918733 -378.587959 
L 141.986236 -381.192036 
L 142.046562 -383.796113 
L 142.110798 -386.40019 
L 142.173908 -389.004268 
L 142.236059 -391.608345 
L 142.296415 -394.212422 
L 142.351174 -396.816499 
L 142.403196 -399.420576 
L 142.45504 -402.024653 
L 142.506943 -404.62873 
L 142.557567 -407.232808 
L 142.60598 -409.836885 
L 142.650514 -412.440962 
L 142.716361 -415.045039 
L 142.912595 -417.649116 
L 143.34345 -420.253193 
L 144.5266 -420.253193 
L 144.5266 -420.253193 
L 144.957455 -417.649116 
L 145.153689 -415.045039 
L 145.219536 -412.440962 
L 145.26407 -409.836885 
L 145.312483 -407.232808 
L 145.363107 -404.62873 
L 145.41501 -402.024653 
L 145.466854 -399.420576 
L 145.518876 -396.816499 
L 145.573635 -394.212422 
L 145.633991 -391.608345 
L 145.696142 -389.004268 
L 145.759252 -386.40019 
L 145.823488 -383.796113 
L 145.883814 -381.192036 
L 145.951317 -378.587959 
L 146.023131 -375.983882 
L 146.09555 -373.379805 
L 146.175557 -370.775728 
L 146.259278 -368.17165 
L 146.343776 -365.567573 
L 146.426636 -362.963496 
L 146.508186 -360.359419 
L 146.597912 -357.755342 
L 146.698856 -355.151265 
L 146.792923 -352.547188 
L 146.886586 -349.943111 
L 146.997847 -347.339033 
L 147.116641 -344.734956 
L 147.232694 -342.130879 
L 147.348283 -339.526802 
L 147.460652 -336.922725 
L 147.570642 -334.318648 
L 147.693721 -331.714571 
L 147.827754 -329.110493 
L 147.966147 -326.506416 
L 148.108951 -323.902339 
L 148.246802 -321.298262 
L 148.384043 -318.694185 
L 148.535408 -316.090108 
L 148.699116 -313.486031 
L 148.87114 -310.881954 
L 149.044849 -308.277876 
L 149.215689 -305.673799 
L 149.383095 -303.069722 
L 149.544691 -300.465645 
L 149.721352 -297.861568 
L 149.915853 -295.257491 
L 150.117226 -292.653414 
L 150.3191 -290.049336 
L 150.516639 -287.445259 
L 150.723076 -284.841182 
L 150.933681 -282.237105 
L 151.155194 -279.633028 
L 151.389775 -277.028951 
L 151.612001 -274.424874 
L 151.822343 -271.820796 
L 152.04004 -269.216719 
L 152.279521 -266.612642 
L 152.521856 -264.008565 
L 152.762672 -261.404488 
L 153.011982 -258.800411 
L 153.267352 -256.196334 
L 153.53477 -253.592257 
L 153.791084 -250.988179 
L 154.039169 -248.384102 
L 154.299518 -245.780025 
L 154.569118 -243.175948 
L 154.856453 -240.571871 
L 155.147737 -237.967794 
L 155.430012 -235.363717 
L 155.718061 -232.759639 
L 156.028524 -230.155562 
L 156.353781 -227.551485 
L 156.672037 -224.947408 
L 156.981841 -222.343331 
L 157.290472 -219.739254 
L 157.598912 -217.135177 
L 157.897588 -214.5311 
L 158.179693 -211.927022 
L 158.436901 -209.322945 
L 158.65455 -206.718868 
L 158.783992 -204.114791 
L 158.804205 -201.510714 
L 158.708439 -198.906637 
L 158.479301 -196.30256 
L 158.108193 -193.698482 
L 157.558255 -191.094405 
L 156.741204 -188.490328 
L 155.564777 -185.886251 
L 154.038781 -183.282174 
L 152.304003 -180.678097 
L 150.55726 -178.07402 
L 148.96526 -175.469942 
L 147.611597 -172.865865 
L 146.474571 -170.261788 
L 145.426579 -167.657711 
L 144.538488 -165.053634 
L 144.071069 -162.449557 
z
" style="stroke: #4d4d4d; stroke-opacity: 0.9; stroke-width: 1.25"/>
    </defs>
    <g clip-path="url(#pe21a470692)">
     <use xlink:href="#mefb1cd8384" x="0" y="482.741813" style="fill: #d56b5b; fill-opacity: 0.9; stroke: #4d4d4d; stroke-opacity: 0.9; stroke-width: 1.25"/>
    </g>
   </g>
   <g id="FillBetweenPolyCollection_2">
    <defs>
     <path id="m8c3c43d7de" d="M 276.773492 -163.018712 
L 273.774158 -163.018712 
L 270.798061 -165.617031 
L 266.448106 -168.215351 
L 262.354527 -170.81367 
L 259.281016 -173.411989 
L 256.915063 -176.010308 
L 255.126478 -178.608628 
L 254.128999 -181.206947 
L 254.021503 -183.805266 
L 254.623511 -186.403586 
L 255.620886 -189.001905 
L 256.760776 -191.600224 
L 257.89474 -194.198543 
L 258.936887 -196.796863 
L 259.84302 -199.395182 
L 260.613721 -201.993501 
L 261.28463 -204.59182 
L 261.890394 -207.19014 
L 262.438518 -209.788459 
L 262.916546 -212.386778 
L 263.316975 -214.985098 
L 263.665542 -217.583417 
L 263.99804 -220.181736 
L 264.314015 -222.780055 
L 264.605819 -225.378375 
L 264.898616 -227.976694 
L 265.20063 -230.575013 
L 265.491592 -233.173333 
L 265.765152 -235.771652 
L 266.019343 -238.369971 
L 266.252851 -240.96829 
L 266.478984 -243.56661 
L 266.709348 -246.164929 
L 266.954041 -248.763248 
L 267.212269 -251.361567 
L 267.450527 -253.959887 
L 267.668378 -256.558206 
L 267.902025 -259.156525 
L 268.151163 -261.754845 
L 268.393976 -264.353164 
L 268.623555 -266.951483 
L 268.845047 -269.549802 
L 269.068079 -272.148122 
L 269.285568 -274.746441 
L 269.479733 -277.34476 
L 269.660473 -279.94308 
L 269.863002 -282.541399 
L 270.07807 -285.139718 
L 270.267659 -287.738037 
L 270.441623 -290.336357 
L 270.625458 -292.934676 
L 270.810549 -295.532995 
L 270.976329 -298.131314 
L 271.131196 -300.729634 
L 271.290342 -303.327953 
L 271.452347 -305.926272 
L 271.610821 -308.524592 
L 271.755797 -311.122911 
L 271.889363 -313.72123 
L 272.027188 -316.319549 
L 272.171107 -318.917869 
L 272.309529 -321.516188 
L 272.433522 -324.114507 
L 272.544606 -326.712827 
L 272.651166 -329.311146 
L 272.760474 -331.909465 
L 272.871777 -334.507784 
L 272.974879 -337.106104 
L 273.061022 -339.704423 
L 273.136474 -342.302742 
L 273.214584 -344.901061 
L 273.299956 -347.499381 
L 273.384941 -350.0977 
L 273.464557 -352.696019 
L 273.542506 -355.294339 
L 273.61916 -357.892658 
L 273.691994 -360.490977 
L 273.758196 -363.089296 
L 273.818485 -365.687616 
L 273.877729 -368.285935 
L 273.93428 -370.884254 
L 273.9875 -373.482574 
L 274.039965 -376.080893 
L 274.09211 -378.679212 
L 274.139393 -381.277531 
L 274.177355 -383.875851 
L 274.211312 -386.47417 
L 274.248741 -389.072489 
L 274.291992 -391.670808 
L 274.339469 -394.269128 
L 274.383654 -396.867447 
L 274.415867 -399.465766 
L 274.439499 -402.064086 
L 274.464596 -404.662405 
L 274.494073 -407.260724 
L 274.524055 -409.859043 
L 274.552774 -412.457363 
L 274.597272 -415.055682 
L 274.712151 -417.654001 
L 274.925036 -420.252321 
L 275.622614 -420.252321 
L 275.622614 -420.252321 
L 275.835499 -417.654001 
L 275.950378 -415.055682 
L 275.994876 -412.457363 
L 276.023595 -409.859043 
L 276.053577 -407.260724 
L 276.083054 -404.662405 
L 276.108151 -402.064086 
L 276.131783 -399.465766 
L 276.163996 -396.867447 
L 276.208181 -394.269128 
L 276.255658 -391.670808 
L 276.298909 -389.072489 
L 276.336338 -386.47417 
L 276.370295 -383.875851 
L 276.408257 -381.277531 
L 276.45554 -378.679212 
L 276.507685 -376.080893 
L 276.56015 -373.482574 
L 276.61337 -370.884254 
L 276.669921 -368.285935 
L 276.729165 -365.687616 
L 276.789454 -363.089296 
L 276.855656 -360.490977 
L 276.92849 -357.892658 
L 277.005144 -355.294339 
L 277.083093 -352.696019 
L 277.162709 -350.0977 
L 277.247694 -347.499381 
L 277.333066 -344.901061 
L 277.411176 -342.302742 
L 277.486628 -339.704423 
L 277.572771 -337.106104 
L 277.675873 -334.507784 
L 277.787176 -331.909465 
L 277.896484 -329.311146 
L 278.003044 -326.712827 
L 278.114128 -324.114507 
L 278.238121 -321.516188 
L 278.376543 -318.917869 
L 278.520462 -316.319549 
L 278.658287 -313.72123 
L 278.791853 -311.122911 
L 278.936829 -308.524592 
L 279.095303 -305.926272 
L 279.257308 -303.327953 
L 279.416454 -300.729634 
L 279.571321 -298.131314 
L 279.737101 -295.532995 
L 279.922192 -292.934676 
L 280.106027 -290.336357 
L 280.279991 -287.738037 
L 280.46958 -285.139718 
L 280.684648 -282.541399 
L 280.887177 -279.94308 
L 281.067917 -277.34476 
L 281.262082 -274.746441 
L 281.479571 -272.148122 
L 281.702603 -269.549802 
L 281.924095 -266.951483 
L 282.153674 -264.353164 
L 282.396487 -261.754845 
L 282.645625 -259.156525 
L 282.879272 -256.558206 
L 283.097123 -253.959887 
L 283.335381 -251.361567 
L 283.593609 -248.763248 
L 283.838302 -246.164929 
L 284.068666 -243.56661 
L 284.294799 -240.96829 
L 284.528307 -238.369971 
L 284.782498 -235.771652 
L 285.056058 -233.173333 
L 285.34702 -230.575013 
L 285.649034 -227.976694 
L 285.941831 -225.378375 
L 286.233635 -222.780055 
L 286.54961 -220.181736 
L 286.882108 -217.583417 
L 287.230675 -214.985098 
L 287.631104 -212.386778 
L 288.109132 -209.788459 
L 288.657256 -207.19014 
L 289.26302 -204.59182 
L 289.933929 -201.993501 
L 290.70463 -199.395182 
L 291.610763 -196.796863 
L 292.65291 -194.198543 
L 293.786874 -191.600224 
L 294.926764 -189.001905 
L 295.924139 -186.403586 
L 296.526147 -183.805266 
L 296.418651 -181.206947 
L 295.421172 -178.608628 
L 293.632587 -176.010308 
L 291.266634 -173.411989 
L 288.193123 -170.81367 
L 284.099544 -168.215351 
L 279.749589 -165.617031 
L 276.773492 -163.018712 
z
" style="stroke: #4d4d4d; stroke-opacity: 0.9; stroke-width: 1.25"/>
    </defs>
    <g clip-path="url(#pe21a470692)">
     <use xlink:href="#m8c3c43d7de" x="0" y="482.741813" style="fill: #ecbd81; fill-opacity: 0.9; stroke: #4d4d4d; stroke-opacity: 0.9; stroke-width: 1.25"/>
    </g>
   </g>
   <g id="FillBetweenPolyCollection_3">
    <defs>
     <path id="m6e4e6a859d" d="M 407.146244 -163.598017 
L 406.079006 -163.598017 
L 404.640556 -166.190492 
L 402.568184 -168.782967 
L 400.455989 -171.375442 
L 397.580221 -173.967917 
L 393.738176 -176.560392 
L 389.964607 -179.152867 
L 387.248386 -181.745342 
L 385.900475 -184.337817 
L 385.676825 -186.930291 
L 386.087264 -189.522766 
L 386.73847 -192.115241 
L 387.456897 -194.707716 
L 388.16609 -197.300191 
L 388.834003 -199.892666 
L 389.465446 -202.485141 
L 390.076723 -205.077616 
L 390.690853 -207.670091 
L 391.295081 -210.262566 
L 391.865649 -212.855041 
L 392.401633 -215.447516 
L 392.924089 -218.039991 
L 393.433103 -220.632465 
L 393.901591 -223.22494 
L 394.358602 -225.817415 
L 394.809796 -228.40989 
L 395.247066 -231.002365 
L 395.671992 -233.59484 
L 396.074731 -236.187315 
L 396.456357 -238.77979 
L 396.827575 -241.372265 
L 397.18989 -243.96474 
L 397.546426 -246.557215 
L 397.889768 -249.14969 
L 398.222932 -251.742164 
L 398.5499 -254.334639 
L 398.867639 -256.927114 
L 399.156217 -259.519589 
L 399.42239 -262.112064 
L 399.70037 -264.704539 
L 399.977635 -267.297014 
L 400.227315 -269.889489 
L 400.4686 -272.481964 
L 400.704131 -275.074439 
L 400.938275 -277.666914 
L 401.17524 -280.259389 
L 401.402126 -282.851864 
L 401.609927 -285.444338 
L 401.798582 -288.036813 
L 401.976008 -290.629288 
L 402.152113 -293.221763 
L 402.330203 -295.814238 
L 402.500044 -298.406713 
L 402.658442 -300.999188 
L 402.815147 -303.591663 
L 402.970919 -306.184138 
L 403.125812 -308.776613 
L 403.268445 -311.369088 
L 403.389668 -313.961563 
L 403.508635 -316.554037 
L 403.643516 -319.146512 
L 403.763923 -321.738987 
L 403.87086 -324.331462 
L 403.985188 -326.923937 
L 404.100316 -329.516412 
L 404.206863 -332.108887 
L 404.305806 -334.701362 
L 404.395081 -337.293837 
L 404.47732 -339.886312 
L 404.555223 -342.478787 
L 404.634834 -345.071262 
L 404.716202 -347.663737 
L 404.799252 -350.256211 
L 404.878902 -352.848686 
L 404.951899 -355.441161 
L 405.021339 -358.033636 
L 405.08518 -360.626111 
L 405.136408 -363.218586 
L 405.188207 -365.811061 
L 405.246595 -368.403536 
L 405.303507 -370.996011 
L 405.358464 -373.588486 
L 405.406503 -376.180961 
L 405.447274 -378.773436 
L 405.487762 -381.36591 
L 405.531368 -383.958385 
L 405.571957 -386.55086 
L 405.608152 -389.143335 
L 405.6419 -391.73581 
L 405.674557 -394.328285 
L 405.707904 -396.92076 
L 405.740414 -399.513235 
L 405.772719 -402.10571 
L 405.805853 -404.698185 
L 405.832352 -407.29066 
L 405.85482 -409.883135 
L 405.880589 -412.47561 
L 405.909882 -415.068084 
L 406.009796 -417.660559 
L 406.266404 -420.253034 
L 406.958846 -420.253034 
L 406.958846 -420.253034 
L 407.215454 -417.660559 
L 407.315368 -415.068084 
L 407.344661 -412.47561 
L 407.37043 -409.883135 
L 407.392898 -407.29066 
L 407.419397 -404.698185 
L 407.452531 -402.10571 
L 407.484836 -399.513235 
L 407.517346 -396.92076 
L 407.550693 -394.328285 
L 407.58335 -391.73581 
L 407.617098 -389.143335 
L 407.653293 -386.55086 
L 407.693882 -383.958385 
L 407.737488 -381.36591 
L 407.777976 -378.773436 
L 407.818747 -376.180961 
L 407.866786 -373.588486 
L 407.921743 -370.996011 
L 407.978655 -368.403536 
L 408.037043 -365.811061 
L 408.088842 -363.218586 
L 408.14007 -360.626111 
L 408.203911 -358.033636 
L 408.273351 -355.441161 
L 408.346348 -352.848686 
L 408.425998 -350.256211 
L 408.509048 -347.663737 
L 408.590416 -345.071262 
L 408.670027 -342.478787 
L 408.74793 -339.886312 
L 408.830169 -337.293837 
L 408.919444 -334.701362 
L 409.018387 -332.108887 
L 409.124934 -329.516412 
L 409.240062 -326.923937 
L 409.35439 -324.331462 
L 409.461327 -321.738987 
L 409.581734 -319.146512 
L 409.716615 -316.554037 
L 409.835582 -313.961563 
L 409.956805 -311.369088 
L 410.099438 -308.776613 
L 410.254331 -306.184138 
L 410.410103 -303.591663 
L 410.566808 -300.999188 
L 410.725206 -298.406713 
L 410.895047 -295.814238 
L 411.073137 -293.221763 
L 411.249242 -290.629288 
L 411.426668 -288.036813 
L 411.615323 -285.444338 
L 411.823124 -282.851864 
L 412.05001 -280.259389 
L 412.286975 -277.666914 
L 412.521119 -275.074439 
L 412.75665 -272.481964 
L 412.997935 -269.889489 
L 413.247615 -267.297014 
L 413.52488 -264.704539 
L 413.80286 -262.112064 
L 414.069033 -259.519589 
L 414.357611 -256.927114 
L 414.67535 -254.334639 
L 415.002318 -251.742164 
L 415.335482 -249.14969 
L 415.678824 -246.557215 
L 416.03536 -243.96474 
L 416.397675 -241.372265 
L 416.768893 -238.77979 
L 417.150519 -236.187315 
L 417.553258 -233.59484 
L 417.978184 -231.002365 
L 418.415454 -228.40989 
L 418.866648 -225.817415 
L 419.323659 -223.22494 
L 419.792147 -220.632465 
L 420.301161 -218.039991 
L 420.823617 -215.447516 
L 421.359601 -212.855041 
L 421.930169 -210.262566 
L 422.534397 -207.670091 
L 423.148527 -205.077616 
L 423.759804 -202.485141 
L 424.391247 -199.892666 
L 425.05916 -197.300191 
L 425.768353 -194.707716 
L 426.48678 -192.115241 
L 427.137986 -189.522766 
L 427.548425 -186.930291 
L 427.324775 -184.337817 
L 425.976864 -181.745342 
L 423.260643 -179.152867 
L 419.487074 -176.560392 
L 415.645029 -173.967917 
L 412.769261 -171.375442 
L 410.657066 -168.782967 
L 408.584694 -166.190492 
L 407.146244 -163.598017 
z
" style="stroke: #4d4d4d; stroke-opacity: 0.9; stroke-width: 1.25"/>
    </defs>
    <g clip-path="url(#pe21a470692)">
     <use xlink:href="#m6e4e6a859d" x="0" y="482.741813" style="fill: #f7f7c6; fill-opacity: 0.9; stroke: #4d4d4d; stroke-opacity: 0.9; stroke-width: 1.25"/>
    </g>
   </g>
   <g id="FillBetweenPolyCollection_4">
    <defs>
     <path id="mfa0d8d3e5a" d="M 539.270594 -163.857459 
L 536.632256 -163.857459 
L 535.197335 -166.447261 
L 533.182687 -169.037063 
L 530.494235 -171.626865 
L 527.04334 -174.216667 
L 523.190115 -176.806468 
L 519.693278 -179.39627 
L 517.180963 -181.986072 
L 515.840604 -184.575874 
L 515.495938 -187.165676 
L 515.815533 -189.755478 
L 516.492854 -192.34528 
L 517.335357 -194.935082 
L 518.246979 -197.524884 
L 519.176706 -200.114686 
L 520.084642 -202.704487 
L 520.932934 -205.294289 
L 521.708799 -207.884091 
L 522.429826 -210.473893 
L 523.11718 -213.063695 
L 523.790971 -215.653497 
L 524.47338 -218.243299 
L 525.157342 -220.833101 
L 525.797704 -223.422903 
L 526.363949 -226.012704 
L 526.871057 -228.602506 
L 527.352548 -231.192308 
L 527.823807 -233.78211 
L 528.269409 -236.371912 
L 528.673991 -238.961714 
L 529.054065 -241.551516 
L 529.438383 -244.141318 
L 529.831869 -246.73112 
L 530.207989 -249.320922 
L 530.534889 -251.910723 
L 530.810025 -254.500525 
L 531.065887 -257.090327 
L 531.335674 -259.680129 
L 531.613147 -262.269931 
L 531.869348 -264.859733 
L 532.10278 -267.449535 
L 532.334576 -270.039337 
L 532.573464 -272.629139 
L 532.808326 -275.21894 
L 533.024647 -277.808742 
L 533.220938 -280.398544 
L 533.400467 -282.988346 
L 533.562331 -285.578148 
L 533.710372 -288.16795 
L 533.854895 -290.757752 
L 534.002624 -293.347554 
L 534.151813 -295.937356 
L 534.299006 -298.527158 
L 534.445952 -301.116959 
L 534.590315 -303.706761 
L 534.718022 -306.296563 
L 534.82248 -308.886365 
L 534.918622 -311.476167 
L 535.022519 -314.065969 
L 535.131396 -316.655771 
L 535.233151 -319.245573 
L 535.321571 -321.835375 
L 535.399375 -324.425176 
L 535.473457 -327.014978 
L 535.547656 -329.60478 
L 535.620628 -332.194582 
L 535.691285 -334.784384 
L 535.762081 -337.374186 
L 535.833568 -339.963988 
L 535.901491 -342.55379 
L 535.961418 -345.143592 
L 536.015749 -347.733394 
L 536.072691 -350.323195 
L 536.134297 -352.912997 
L 536.1951 -355.502799 
L 536.252533 -358.092601 
L 536.307846 -360.682403 
L 536.360931 -363.272205 
L 536.410218 -365.862007 
L 536.454118 -368.451809 
L 536.494198 -371.041611 
L 536.535675 -373.631412 
L 536.579177 -376.221214 
L 536.618887 -378.811016 
L 536.651417 -381.400818 
L 536.679316 -383.99062 
L 536.707138 -386.580422 
L 536.736931 -389.170224 
L 536.769073 -391.760026 
L 536.802867 -394.349828 
L 536.83379 -396.93963 
L 536.858242 -399.529431 
L 536.879679 -402.119233 
L 536.902181 -404.709035 
L 536.924143 -407.298837 
L 536.944849 -409.888639 
L 536.977544 -412.478441 
L 537.059469 -415.068243 
L 537.232881 -417.658045 
L 537.484323 -420.247847 
L 538.418527 -420.247847 
L 538.418527 -420.247847 
L 538.669969 -417.658045 
L 538.843381 -415.068243 
L 538.925306 -412.478441 
L 538.958001 -409.888639 
L 538.978707 -407.298837 
L 539.000669 -404.709035 
L 539.023171 -402.119233 
L 539.044608 -399.529431 
L 539.06906 -396.93963 
L 539.099983 -394.349828 
L 539.133777 -391.760026 
L 539.165919 -389.170224 
L 539.195712 -386.580422 
L 539.223534 -383.99062 
L 539.251433 -381.400818 
L 539.283963 -378.811016 
L 539.323673 -376.221214 
L 539.367175 -373.631412 
L 539.408652 -371.041611 
L 539.448732 -368.451809 
L 539.492632 -365.862007 
L 539.541919 -363.272205 
L 539.595004 -360.682403 
L 539.650317 -358.092601 
L 539.70775 -355.502799 
L 539.768553 -352.912997 
L 539.830159 -350.323195 
L 539.887101 -347.733394 
L 539.941432 -345.143592 
L 540.001359 -342.55379 
L 540.069282 -339.963988 
L 540.140769 -337.374186 
L 540.211565 -334.784384 
L 540.282222 -332.194582 
L 540.355194 -329.60478 
L 540.429393 -327.014978 
L 540.503475 -324.425176 
L 540.581279 -321.835375 
L 540.669699 -319.245573 
L 540.771454 -316.655771 
L 540.880331 -314.065969 
L 540.984228 -311.476167 
L 541.08037 -308.886365 
L 541.184828 -306.296563 
L 541.312535 -303.706761 
L 541.456898 -301.116959 
L 541.603844 -298.527158 
L 541.751037 -295.937356 
L 541.900226 -293.347554 
L 542.047955 -290.757752 
L 542.192478 -288.16795 
L 542.340519 -285.578148 
L 542.502383 -282.988346 
L 542.681912 -280.398544 
L 542.878203 -277.808742 
L 543.094524 -275.21894 
L 543.329386 -272.629139 
L 543.568274 -270.039337 
L 543.80007 -267.449535 
L 544.033502 -264.859733 
L 544.289703 -262.269931 
L 544.567176 -259.680129 
L 544.836963 -257.090327 
L 545.092825 -254.500525 
L 545.367961 -251.910723 
L 545.694861 -249.320922 
L 546.070981 -246.73112 
L 546.464467 -244.141318 
L 546.848785 -241.551516 
L 547.228859 -238.961714 
L 547.633441 -236.371912 
L 548.079043 -233.78211 
L 548.550302 -231.192308 
L 549.031793 -228.602506 
L 549.538901 -226.012704 
L 550.105146 -223.422903 
L 550.745508 -220.833101 
L 551.42947 -218.243299 
L 552.111879 -215.653497 
L 552.78567 -213.063695 
L 553.473024 -210.473893 
L 554.194051 -207.884091 
L 554.969916 -205.294289 
L 555.818208 -202.704487 
L 556.726144 -200.114686 
L 557.655871 -197.524884 
L 558.567493 -194.935082 
L 559.409996 -192.34528 
L 560.087317 -189.755478 
L 560.406912 -187.165676 
L 560.062246 -184.575874 
L 558.721887 -181.986072 
L 556.209572 -179.39627 
L 552.712735 -176.806468 
L 548.85951 -174.216667 
L 545.408615 -171.626865 
L 542.720163 -169.037063 
L 540.705515 -166.447261 
L 539.270594 -163.857459 
z
" style="stroke: #4d4d4d; stroke-opacity: 0.9; stroke-width: 1.25"/>
    </defs>
    <g clip-path="url(#pe21a470692)">
     <use xlink:href="#mfa0d8d3e5a" x="0" y="482.741813" style="fill: #c0dca9; fill-opacity: 0.9; stroke: #4d4d4d; stroke-opacity: 0.9; stroke-width: 1.25"/>
    </g>
   </g>
   <g id="FillBetweenPolyCollection_5">
    <defs>
     <path id="mcccb99797b" d="M 675.461374 -163.885145 
L 663.119076 -163.885145 
L 651.080441 -166.453954 
L 635.513834 -169.022763 
L 623.925352 -171.591571 
L 618.235269 -174.16038 
L 616.754705 -176.729189 
L 618.662471 -179.297998 
L 622.66477 -181.866806 
L 627.226959 -184.435615 
L 631.643525 -187.004424 
L 635.791996 -189.573233 
L 639.883389 -192.142041 
L 643.901526 -194.71085 
L 647.337114 -197.279659 
L 650.160998 -199.848468 
L 652.644024 -202.417277 
L 654.863857 -204.986085 
L 656.696628 -207.554894 
L 658.271567 -210.123703 
L 659.629997 -212.692512 
L 660.727955 -215.26132 
L 661.855987 -217.830129 
L 662.98129 -220.398938 
L 663.809753 -222.967747 
L 664.362787 -225.536556 
L 664.917096 -228.105364 
L 665.547452 -230.674173 
L 666.050286 -233.242982 
L 666.407391 -235.811791 
L 666.675851 -238.380599 
L 666.927627 -240.949408 
L 667.261038 -243.518217 
L 667.535914 -246.087026 
L 667.661844 -248.655834 
L 667.753446 -251.224643 
L 667.895846 -253.793452 
L 668.037536 -256.362261 
L 668.138869 -258.93107 
L 668.269902 -261.499878 
L 668.417108 -264.068687 
L 668.533732 -266.637496 
L 668.619322 -269.206305 
L 668.705198 -271.775113 
L 668.789231 -274.343922 
L 668.863293 -276.912731 
L 668.942244 -279.48154 
L 668.984814 -282.050349 
L 668.971553 -284.619157 
L 668.956748 -287.187966 
L 668.993017 -289.756775 
L 669.055932 -292.325584 
L 669.083543 -294.894392 
L 669.066005 -297.463201 
L 669.079528 -300.03201 
L 669.117332 -302.600819 
L 669.144875 -305.169628 
L 669.187685 -307.738436 
L 669.218655 -310.307245 
L 669.215709 -312.876054 
L 669.202547 -315.444863 
L 669.207058 -318.013671 
L 669.232567 -320.58248 
L 669.252202 -323.151289 
L 669.254878 -325.720098 
L 669.252669 -328.288906 
L 669.258608 -330.857715 
L 669.264047 -333.426524 
L 669.263885 -335.995333 
L 669.270989 -338.564142 
L 669.281024 -341.13295 
L 669.279139 -343.701759 
L 669.267995 -346.270568 
L 669.261511 -348.839377 
L 669.259711 -351.408185 
L 669.260911 -353.976994 
L 669.268281 -356.545803 
L 669.279879 -359.114612 
L 669.287039 -361.683421 
L 669.286087 -364.252229 
L 669.281292 -366.821038 
L 669.281585 -369.389847 
L 669.286453 -371.958656 
L 669.28745 -374.527464 
L 669.28307 -377.096273 
L 669.280526 -379.665082 
L 669.284691 -382.233891 
L 669.288898 -384.802699 
L 669.289976 -387.371508 
L 669.289007 -389.940317 
L 669.284943 -392.509126 
L 669.28059 -395.077935 
L 669.282807 -397.646743 
L 669.28707 -400.215552 
L 669.285617 -402.784361 
L 669.279883 -405.35317 
L 669.276633 -407.921978 
L 669.277215 -410.490787 
L 669.280593 -413.059596 
L 669.281473 -415.628405 
L 669.280116 -418.197214 
L 669.300334 -418.197214 
L 669.300334 -418.197214 
L 669.298977 -415.628405 
L 669.299857 -413.059596 
L 669.303235 -410.490787 
L 669.303817 -407.921978 
L 669.300567 -405.35317 
L 669.294833 -402.784361 
L 669.29338 -400.215552 
L 669.297643 -397.646743 
L 669.29986 -395.077935 
L 669.295507 -392.509126 
L 669.291443 -389.940317 
L 669.290474 -387.371508 
L 669.291552 -384.802699 
L 669.295759 -382.233891 
L 669.299924 -379.665082 
L 669.29738 -377.096273 
L 669.293 -374.527464 
L 669.293997 -371.958656 
L 669.298865 -369.389847 
L 669.299158 -366.821038 
L 669.294363 -364.252229 
L 669.293411 -361.683421 
L 669.300571 -359.114612 
L 669.312169 -356.545803 
L 669.319539 -353.976994 
L 669.320739 -351.408185 
L 669.318939 -348.839377 
L 669.312455 -346.270568 
L 669.301311 -343.701759 
L 669.299426 -341.13295 
L 669.309461 -338.564142 
L 669.316565 -335.995333 
L 669.316403 -333.426524 
L 669.321842 -330.857715 
L 669.327781 -328.288906 
L 669.325572 -325.720098 
L 669.328248 -323.151289 
L 669.347883 -320.58248 
L 669.373392 -318.013671 
L 669.377903 -315.444863 
L 669.364741 -312.876054 
L 669.361795 -310.307245 
L 669.392765 -307.738436 
L 669.435575 -305.169628 
L 669.463118 -302.600819 
L 669.500922 -300.03201 
L 669.514445 -297.463201 
L 669.496907 -294.894392 
L 669.524518 -292.325584 
L 669.587433 -289.756775 
L 669.623702 -287.187966 
L 669.608897 -284.619157 
L 669.595636 -282.050349 
L 669.638206 -279.48154 
L 669.717157 -276.912731 
L 669.791219 -274.343922 
L 669.875252 -271.775113 
L 669.961128 -269.206305 
L 670.046718 -266.637496 
L 670.163342 -264.068687 
L 670.310548 -261.499878 
L 670.441581 -258.93107 
L 670.542914 -256.362261 
L 670.684604 -253.793452 
L 670.827004 -251.224643 
L 670.918606 -248.655834 
L 671.044536 -246.087026 
L 671.319412 -243.518217 
L 671.652823 -240.949408 
L 671.904599 -238.380599 
L 672.173059 -235.811791 
L 672.530164 -233.242982 
L 673.032998 -230.674173 
L 673.663354 -228.105364 
L 674.217663 -225.536556 
L 674.770697 -222.967747 
L 675.59916 -220.398938 
L 676.724463 -217.830129 
L 677.852495 -215.26132 
L 678.950453 -212.692512 
L 680.308883 -210.123703 
L 681.883822 -207.554894 
L 683.716593 -204.986085 
L 685.936426 -202.417277 
L 688.419452 -199.848468 
L 691.243336 -197.279659 
L 694.678924 -194.71085 
L 698.697061 -192.142041 
L 702.788454 -189.573233 
L 706.936925 -187.004424 
L 711.353491 -184.435615 
L 715.91568 -181.866806 
L 719.917979 -179.297998 
L 721.825745 -176.729189 
L 720.345181 -174.16038 
L 714.655098 -171.591571 
L 703.066616 -169.022763 
L 687.500009 -166.453954 
L 675.461374 -163.885145 
z
" style="stroke: #4d4d4d; stroke-opacity: 0.9; stroke-width: 1.25"/>
    </defs>
    <g clip-path="url(#pe21a470692)">
     <use xlink:href="#mcccb99797b" x="0" y="482.741813" style="fill: #5fa2a2; fill-opacity: 0.9; stroke: #4d4d4d; stroke-opacity: 0.9; stroke-width: 1.25"/>
    </g>
   </g>
   <g id="line2d_10">
    <path d="M 143.935025 320.292256 
L 143.935025 74.077993 
" clip-path="url(#pe21a470692)" style="fill: none; stroke: #4d4d4d; stroke-width: 1.875; stroke-linecap: round"/>
   </g>
   <g id="line2d_11">
    <path d="M 143.935025 275.483131 
L 143.935025 194.921044 
" clip-path="url(#pe21a470692)" style="fill: none; stroke: #4d4d4d; stroke-width: 5.625; stroke-linecap: round"/>
   </g>
   <g id="line2d_12">
    <path d="M 143.935025 243.104691 
" clip-path="url(#pe21a470692)" style="fill: none; stroke: #4d4d4d; stroke-width: 1.5; stroke-linecap: round"/>
    <defs>
     <path id="mf0378151c9" d="M 2.34375 0 
L -2.34375 -0 
" style="stroke: #ffffff; stroke-width: 1.125"/>
    </defs>
    <g clip-path="url(#pe21a470692)">
     <use xlink:href="#mf0378151c9" x="143.935025" y="243.104691" style="fill: #ffffff; stroke: #ffffff; stroke-width: 1.125"/>
    </g>
   </g>
   <g id="line2d_13">
    <path d="M 275.273825 319.723101 
L 275.273825 105.891622 
" clip-path="url(#pe21a470692)" style="fill: none; stroke: #4d4d4d; stroke-width: 1.875; stroke-linecap: round"/>
   </g>
   <g id="line2d_14">
    <path d="M 275.273825 293.159211 
L 275.273825 218.252039 
" clip-path="url(#pe21a470692)" style="fill: none; stroke: #4d4d4d; stroke-width: 5.625; stroke-linecap: round"/>
   </g>
   <g id="line2d_15">
    <path d="M 275.273825 264.403906 
" clip-path="url(#pe21a470692)" style="fill: none; stroke: #4d4d4d; stroke-width: 1.5; stroke-linecap: round"/>
    <g clip-path="url(#pe21a470692)">
     <use xlink:href="#mf0378151c9" x="275.273825" y="264.403906" style="fill: #ffffff; stroke: #ffffff; stroke-width: 1.125"/>
    </g>
   </g>
   <g id="line2d_16">
    <path d="M 406.612625 319.143795 
L 406.612625 117.064319 
" clip-path="url(#pe21a470692)" style="fill: none; stroke: #4d4d4d; stroke-width: 1.875; stroke-linecap: round"/>
   </g>
   <g id="line2d_17">
    <path d="M 406.612625 288.251292 
L 406.612625 219.776451 
" clip-path="url(#pe21a470692)" style="fill: none; stroke: #4d4d4d; stroke-width: 5.625; stroke-linecap: round"/>
   </g>
   <g id="line2d_18">
    <path d="M 406.612625 262.169221 
" clip-path="url(#pe21a470692)" style="fill: none; stroke: #4d4d4d; stroke-width: 1.5; stroke-linecap: round"/>
    <g clip-path="url(#pe21a470692)">
     <use xlink:href="#mf0378151c9" x="406.612625" y="262.169221" style="fill: #ffffff; stroke: #ffffff; stroke-width: 1.125"/>
    </g>
   </g>
   <g id="line2d_19">
    <path d="M 537.951425 318.884354 
L 537.951425 122.137535 
" clip-path="url(#pe21a470692)" style="fill: none; stroke: #4d4d4d; stroke-width: 1.875; stroke-linecap: round"/>
   </g>
   <g id="line2d_20">
    <path d="M 537.951425 290.236322 
L 537.951425 222.996327 
" clip-path="url(#pe21a470692)" style="fill: none; stroke: #4d4d4d; stroke-width: 5.625; stroke-linecap: round"/>
   </g>
   <g id="line2d_21">
    <path d="M 537.951425 266.290473 
" clip-path="url(#pe21a470692)" style="fill: none; stroke: #4d4d4d; stroke-width: 1.5; stroke-linecap: round"/>
    <g clip-path="url(#pe21a470692)">
     <use xlink:href="#mf0378151c9" x="537.951425" y="266.290473" style="fill: #ffffff; stroke: #ffffff; stroke-width: 1.125"/>
    </g>
   </g>
   <g id="line2d_22">
    <path d="M 669.290225 318.856668 
L 669.290225 252.945607 
" clip-path="url(#pe21a470692)" style="fill: none; stroke: #4d4d4d; stroke-width: 1.875; stroke-linecap: round"/>
   </g>
   <g id="line2d_23">
    <path d="M 669.290225 306.91469 
L 669.290225 285.318845 
" clip-path="url(#pe21a470692)" style="fill: none; stroke: #4d4d4d; stroke-width: 5.625; stroke-linecap: round"/>
   </g>
   <g id="line2d_24">
    <path d="M 669.290225 298.580439 
" clip-path="url(#pe21a470692)" style="fill: none; stroke: #4d4d4d; stroke-width: 1.5; stroke-linecap: round"/>
    <g clip-path="url(#pe21a470692)">
     <use xlink:href="#mf0378151c9" x="669.290225" y="298.580439" style="fill: #ffffff; stroke: #ffffff; stroke-width: 1.125"/>
    </g>
   </g>
   <g id="patch_3">
    <path d="M 78.265625 333.182438 
L 78.265625 49.598438 
" style="fill: none; stroke: #cccccc; stroke-width: 1.25; stroke-linejoin: miter; stroke-linecap: square"/>
   </g>
   <g id="patch_4">
    <path d="M 734.959625 333.182438 
L 734.959625 49.598438 
" style="fill: none; stroke: #cccccc; stroke-width: 1.25; stroke-linejoin: miter; stroke-linecap: square"/>
   </g>
   <g id="patch_5">
    <path d="M 78.265625 333.182437 
L 734.959625 333.182437 
" style="fill: none; stroke: #cccccc; stroke-width: 1.25; stroke-linejoin: miter; stroke-linecap: square"/>
   </g>
   <g id="patch_6">
    <path d="M 78.265625 49.598438 
L 734.959625 49.598438 
" style="fill: none; stroke: #cccccc; stroke-width: 1.25; stroke-linejoin: miter; stroke-linecap: square"/>
   </g>
   <g id="text_17">
    <text style="font-size: 10px; font-family: 'Arial', 'DejaVu Sans', 'Liberation Sans', 'Bitstream Vera Sans', sans-serif; text-anchor: middle; fill: #262626" x="406.612625" y="43.598438" transform="rotate(-0 406.612625 43.598438)">Violin Plot of distances by Level One Cell Type (Density Normalization: area)</text>
   </g>
   <g id="legend_1">
    <g id="patch_7">
     <path d="M 723.959625 62.598438 
L 727.959625 62.598438 
Q 729.959625 62.598438 729.959625 60.598438 
L 729.959625 56.598438 
Q 729.959625 54.598438 727.959625 54.598438 
L 723.959625 54.598438 
Q 721.959625 54.598438 721.959625 56.598438 
L 721.959625 60.598438 
Q 721.959625 62.598438 723.959625 62.598438 
z
" style="fill: #ffffff; opacity: 0.8; stroke: #cccccc; stroke-width: 0.8; stroke-linejoin: miter"/>
    </g>
   </g>
  </g>
 </g>
 <defs>
  <clipPath id="pe21a470692">
   <rect x="78.265625" y="49.598438" width="656.694" height="283.584"/>
  </clipPath>
 </defs>
</svg>
