<?xml version="1.0" encoding="utf-8" standalone="no"?>
<!DOCTYPE svg PUBLIC "-//W3C//DTD SVG 1.1//EN"
  "http://www.w3.org/Graphics/SVG/1.1/DTD/svg11.dtd">
<svg xmlns:xlink="http://www.w3.org/1999/xlink" width="770.959625pt" height="482.741813pt" viewBox="0 0 770.959625 482.741813" xmlns="http://www.w3.org/2000/svg" version="1.1">
 <metadata>
  <rdf:RDF xmlns:dc="http://purl.org/dc/elements/1.1/" xmlns:cc="http://creativecommons.org/ns#" xmlns:rdf="http://www.w3.org/1999/02/22-rdf-syntax-ns#">
   <cc:Work>
    <dc:type rdf:resource="http://purl.org/dc/dcmitype/StillImage"/>
    <dc:date>2025-07-01T16:54:06.682333</dc:date>
    <dc:format>image/svg+xml</dc:format>
    <dc:creator>
     <cc:Agent>
      <dc:title>Matplotlib v3.10.3, https://matplotlib.org/</dc:title>
     </cc:Agent>
    </dc:creator>
   </cc:Work>
  </rdf:RDF>
 </metadata>
 <defs>
  <style type="text/css">*{stroke-linejoin: round; stroke-linecap: butt}</style>
 </defs>
 <g id="figure_1">
  <g id="patch_1">
   <path d="M 0 482.741813 
L 770.959625 482.741813 
L 770.959625 -0 
L 0 -0 
z
" style="fill: #ffffff"/>
  </g>
  <g id="axes_1">
   <g id="patch_2">
    <path d="M 78.265625 333.182437 
L 734.959625 333.182437 
L 734.959625 49.598438 
L 78.265625 49.598438 
z
" style="fill: #ffffff"/>
   </g>
   <g id="matplotlib.axis_1">
    <g id="xtick_1">
     <g id="text_1">
      <!-- epithelial cell -->
      <g style="fill: #262626" transform="translate(146.6944 409.2215) rotate(-90) scale(0.1 -0.1)">
       <defs>
        <path id="DejaVuSans-65" d="M 3597 1894 
L 3597 1613 
L 953 1613 
Q 991 1019 1311 708 
Q 1631 397 2203 397 
Q 2534 397 2845 478 
Q 3156 559 3463 722 
L 3463 178 
Q 3153 47 2828 -22 
Q 2503 -91 2169 -91 
Q 1331 -91 842 396 
Q 353 884 353 1716 
Q 353 2575 817 3079 
Q 1281 3584 2069 3584 
Q 2775 3584 3186 3129 
Q 3597 2675 3597 1894 
z
M 3022 2063 
Q 3016 2534 2758 2815 
Q 2500 3097 2075 3097 
Q 1594 3097 1305 2825 
Q 1016 2553 972 2059 
L 3022 2063 
z
" transform="scale(0.015625)"/>
        <path id="DejaVuSans-70" d="M 1159 525 
L 1159 -1331 
L 581 -1331 
L 581 3500 
L 1159 3500 
L 1159 2969 
Q 1341 3281 1617 3432 
Q 1894 3584 2278 3584 
Q 2916 3584 3314 3078 
Q 3713 2572 3713 1747 
Q 3713 922 3314 415 
Q 2916 -91 2278 -91 
Q 1894 -91 1617 61 
Q 1341 213 1159 525 
z
M 3116 1747 
Q 3116 2381 2855 2742 
Q 2594 3103 2138 3103 
Q 1681 3103 1420 2742 
Q 1159 2381 1159 1747 
Q 1159 1113 1420 752 
Q 1681 391 2138 391 
Q 2594 391 2855 752 
Q 3116 1113 3116 1747 
z
" transform="scale(0.015625)"/>
        <path id="DejaVuSans-69" d="M 603 3500 
L 1178 3500 
L 1178 0 
L 603 0 
L 603 3500 
z
M 603 4863 
L 1178 4863 
L 1178 4134 
L 603 4134 
L 603 4863 
z
" transform="scale(0.015625)"/>
        <path id="DejaVuSans-74" d="M 1172 4494 
L 1172 3500 
L 2356 3500 
L 2356 3053 
L 1172 3053 
L 1172 1153 
Q 1172 725 1289 603 
Q 1406 481 1766 481 
L 2356 481 
L 2356 0 
L 1766 0 
Q 1100 0 847 248 
Q 594 497 594 1153 
L 594 3053 
L 172 3053 
L 172 3500 
L 594 3500 
L 594 4494 
L 1172 4494 
z
" transform="scale(0.015625)"/>
        <path id="DejaVuSans-68" d="M 3513 2113 
L 3513 0 
L 2938 0 
L 2938 2094 
Q 2938 2591 2744 2837 
Q 2550 3084 2163 3084 
Q 1697 3084 1428 2787 
Q 1159 2491 1159 1978 
L 1159 0 
L 581 0 
L 581 4863 
L 1159 4863 
L 1159 2956 
Q 1366 3272 1645 3428 
Q 1925 3584 2291 3584 
Q 2894 3584 3203 3211 
Q 3513 2838 3513 2113 
z
" transform="scale(0.015625)"/>
        <path id="DejaVuSans-6c" d="M 603 4863 
L 1178 4863 
L 1178 0 
L 603 0 
L 603 4863 
z
" transform="scale(0.015625)"/>
        <path id="DejaVuSans-61" d="M 2194 1759 
Q 1497 1759 1228 1600 
Q 959 1441 959 1056 
Q 959 750 1161 570 
Q 1363 391 1709 391 
Q 2188 391 2477 730 
Q 2766 1069 2766 1631 
L 2766 1759 
L 2194 1759 
z
M 3341 1997 
L 3341 0 
L 2766 0 
L 2766 531 
Q 2569 213 2275 61 
Q 1981 -91 1556 -91 
Q 1019 -91 701 211 
Q 384 513 384 1019 
Q 384 1609 779 1909 
Q 1175 2209 1959 2209 
L 2766 2209 
L 2766 2266 
Q 2766 2663 2505 2880 
Q 2244 3097 1772 3097 
Q 1472 3097 1187 3025 
Q 903 2953 641 2809 
L 641 3341 
Q 956 3463 1253 3523 
Q 1550 3584 1831 3584 
Q 2591 3584 2966 3190 
Q 3341 2797 3341 1997 
z
" transform="scale(0.015625)"/>
        <path id="DejaVuSans-20" transform="scale(0.015625)"/>
        <path id="DejaVuSans-63" d="M 3122 3366 
L 3122 2828 
Q 2878 2963 2633 3030 
Q 2388 3097 2138 3097 
Q 1578 3097 1268 2742 
Q 959 2388 959 1747 
Q 959 1106 1268 751 
Q 1578 397 2138 397 
Q 2388 397 2633 464 
Q 2878 531 3122 666 
L 3122 134 
Q 2881 22 2623 -34 
Q 2366 -91 2075 -91 
Q 1284 -91 818 406 
Q 353 903 353 1747 
Q 353 2603 823 3093 
Q 1294 3584 2113 3584 
Q 2378 3584 2631 3529 
Q 2884 3475 3122 3366 
z
" transform="scale(0.015625)"/>
       </defs>
       <use xlink:href="#DejaVuSans-65"/>
       <use xlink:href="#DejaVuSans-70" transform="translate(61.523438 0)"/>
       <use xlink:href="#DejaVuSans-69" transform="translate(125 0)"/>
       <use xlink:href="#DejaVuSans-74" transform="translate(152.783203 0)"/>
       <use xlink:href="#DejaVuSans-68" transform="translate(191.992188 0)"/>
       <use xlink:href="#DejaVuSans-65" transform="translate(255.371094 0)"/>
       <use xlink:href="#DejaVuSans-6c" transform="translate(316.894531 0)"/>
       <use xlink:href="#DejaVuSans-69" transform="translate(344.677734 0)"/>
       <use xlink:href="#DejaVuSans-61" transform="translate(372.460938 0)"/>
       <use xlink:href="#DejaVuSans-6c" transform="translate(433.740234 0)"/>
       <use xlink:href="#DejaVuSans-20" transform="translate(461.523438 0)"/>
       <use xlink:href="#DejaVuSans-63" transform="translate(493.310547 0)"/>
       <use xlink:href="#DejaVuSans-65" transform="translate(548.291016 0)"/>
       <use xlink:href="#DejaVuSans-6c" transform="translate(609.814453 0)"/>
       <use xlink:href="#DejaVuSans-6c" transform="translate(637.597656 0)"/>
      </g>
     </g>
    </g>
    <g id="xtick_2">
     <g id="text_2">
      <!-- mesenchymal cell -->
      <g style="fill: #262626" transform="translate(278.0332 433.063688) rotate(-90) scale(0.1 -0.1)">
       <defs>
        <path id="DejaVuSans-6d" d="M 3328 2828 
Q 3544 3216 3844 3400 
Q 4144 3584 4550 3584 
Q 5097 3584 5394 3201 
Q 5691 2819 5691 2113 
L 5691 0 
L 5113 0 
L 5113 2094 
Q 5113 2597 4934 2840 
Q 4756 3084 4391 3084 
Q 3944 3084 3684 2787 
Q 3425 2491 3425 1978 
L 3425 0 
L 2847 0 
L 2847 2094 
Q 2847 2600 2669 2842 
Q 2491 3084 2119 3084 
Q 1678 3084 1418 2786 
Q 1159 2488 1159 1978 
L 1159 0 
L 581 0 
L 581 3500 
L 1159 3500 
L 1159 2956 
Q 1356 3278 1631 3431 
Q 1906 3584 2284 3584 
Q 2666 3584 2933 3390 
Q 3200 3197 3328 2828 
z
" transform="scale(0.015625)"/>
        <path id="DejaVuSans-73" d="M 2834 3397 
L 2834 2853 
Q 2591 2978 2328 3040 
Q 2066 3103 1784 3103 
Q 1356 3103 1142 2972 
Q 928 2841 928 2578 
Q 928 2378 1081 2264 
Q 1234 2150 1697 2047 
L 1894 2003 
Q 2506 1872 2764 1633 
Q 3022 1394 3022 966 
Q 3022 478 2636 193 
Q 2250 -91 1575 -91 
Q 1294 -91 989 -36 
Q 684 19 347 128 
L 347 722 
Q 666 556 975 473 
Q 1284 391 1588 391 
Q 1994 391 2212 530 
Q 2431 669 2431 922 
Q 2431 1156 2273 1281 
Q 2116 1406 1581 1522 
L 1381 1569 
Q 847 1681 609 1914 
Q 372 2147 372 2553 
Q 372 3047 722 3315 
Q 1072 3584 1716 3584 
Q 2034 3584 2315 3537 
Q 2597 3491 2834 3397 
z
" transform="scale(0.015625)"/>
        <path id="DejaVuSans-6e" d="M 3513 2113 
L 3513 0 
L 2938 0 
L 2938 2094 
Q 2938 2591 2744 2837 
Q 2550 3084 2163 3084 
Q 1697 3084 1428 2787 
Q 1159 2491 1159 1978 
L 1159 0 
L 581 0 
L 581 3500 
L 1159 3500 
L 1159 2956 
Q 1366 3272 1645 3428 
Q 1925 3584 2291 3584 
Q 2894 3584 3203 3211 
Q 3513 2838 3513 2113 
z
" transform="scale(0.015625)"/>
        <path id="DejaVuSans-79" d="M 2059 -325 
Q 1816 -950 1584 -1140 
Q 1353 -1331 966 -1331 
L 506 -1331 
L 506 -850 
L 844 -850 
Q 1081 -850 1212 -737 
Q 1344 -625 1503 -206 
L 1606 56 
L 191 3500 
L 800 3500 
L 1894 763 
L 2988 3500 
L 3597 3500 
L 2059 -325 
z
" transform="scale(0.015625)"/>
       </defs>
       <use xlink:href="#DejaVuSans-6d"/>
       <use xlink:href="#DejaVuSans-65" transform="translate(97.412109 0)"/>
       <use xlink:href="#DejaVuSans-73" transform="translate(158.935547 0)"/>
       <use xlink:href="#DejaVuSans-65" transform="translate(211.035156 0)"/>
       <use xlink:href="#DejaVuSans-6e" transform="translate(272.558594 0)"/>
       <use xlink:href="#DejaVuSans-63" transform="translate(335.9375 0)"/>
       <use xlink:href="#DejaVuSans-68" transform="translate(390.917969 0)"/>
       <use xlink:href="#DejaVuSans-79" transform="translate(454.296875 0)"/>
       <use xlink:href="#DejaVuSans-6d" transform="translate(513.476562 0)"/>
       <use xlink:href="#DejaVuSans-61" transform="translate(610.888672 0)"/>
       <use xlink:href="#DejaVuSans-6c" transform="translate(672.167969 0)"/>
       <use xlink:href="#DejaVuSans-20" transform="translate(699.951172 0)"/>
       <use xlink:href="#DejaVuSans-63" transform="translate(731.738281 0)"/>
       <use xlink:href="#DejaVuSans-65" transform="translate(786.71875 0)"/>
       <use xlink:href="#DejaVuSans-6c" transform="translate(848.242188 0)"/>
       <use xlink:href="#DejaVuSans-6c" transform="translate(876.025391 0)"/>
      </g>
     </g>
    </g>
    <g id="xtick_3">
     <g id="text_3">
      <!-- immune cell -->
      <g style="fill: #262626" transform="translate(409.372 404.155875) rotate(-90) scale(0.1 -0.1)">
       <defs>
        <path id="DejaVuSans-75" d="M 544 1381 
L 544 3500 
L 1119 3500 
L 1119 1403 
Q 1119 906 1312 657 
Q 1506 409 1894 409 
Q 2359 409 2629 706 
Q 2900 1003 2900 1516 
L 2900 3500 
L 3475 3500 
L 3475 0 
L 2900 0 
L 2900 538 
Q 2691 219 2414 64 
Q 2138 -91 1772 -91 
Q 1169 -91 856 284 
Q 544 659 544 1381 
z
M 1991 3584 
L 1991 3584 
z
" transform="scale(0.015625)"/>
       </defs>
       <use xlink:href="#DejaVuSans-69"/>
       <use xlink:href="#DejaVuSans-6d" transform="translate(27.783203 0)"/>
       <use xlink:href="#DejaVuSans-6d" transform="translate(125.195312 0)"/>
       <use xlink:href="#DejaVuSans-75" transform="translate(222.607422 0)"/>
       <use xlink:href="#DejaVuSans-6e" transform="translate(285.986328 0)"/>
       <use xlink:href="#DejaVuSans-65" transform="translate(349.365234 0)"/>
       <use xlink:href="#DejaVuSans-20" transform="translate(410.888672 0)"/>
       <use xlink:href="#DejaVuSans-63" transform="translate(442.675781 0)"/>
       <use xlink:href="#DejaVuSans-65" transform="translate(497.65625 0)"/>
       <use xlink:href="#DejaVuSans-6c" transform="translate(559.179688 0)"/>
       <use xlink:href="#DejaVuSans-6c" transform="translate(586.962891 0)"/>
      </g>
     </g>
    </g>
    <g id="xtick_4">
     <g id="text_4">
      <!-- unknown cell -->
      <g style="fill: #262626" transform="translate(540.7108 408.505875) rotate(-90) scale(0.1 -0.1)">
       <defs>
        <path id="DejaVuSans-6b" d="M 581 4863 
L 1159 4863 
L 1159 1991 
L 2875 3500 
L 3609 3500 
L 1753 1863 
L 3688 0 
L 2938 0 
L 1159 1709 
L 1159 0 
L 581 0 
L 581 4863 
z
" transform="scale(0.015625)"/>
        <path id="DejaVuSans-6f" d="M 1959 3097 
Q 1497 3097 1228 2736 
Q 959 2375 959 1747 
Q 959 1119 1226 758 
Q 1494 397 1959 397 
Q 2419 397 2687 759 
Q 2956 1122 2956 1747 
Q 2956 2369 2687 2733 
Q 2419 3097 1959 3097 
z
M 1959 3584 
Q 2709 3584 3137 3096 
Q 3566 2609 3566 1747 
Q 3566 888 3137 398 
Q 2709 -91 1959 -91 
Q 1206 -91 779 398 
Q 353 888 353 1747 
Q 353 2609 779 3096 
Q 1206 3584 1959 3584 
z
" transform="scale(0.015625)"/>
        <path id="DejaVuSans-77" d="M 269 3500 
L 844 3500 
L 1563 769 
L 2278 3500 
L 2956 3500 
L 3675 769 
L 4391 3500 
L 4966 3500 
L 4050 0 
L 3372 0 
L 2619 2869 
L 1863 0 
L 1184 0 
L 269 3500 
z
" transform="scale(0.015625)"/>
       </defs>
       <use xlink:href="#DejaVuSans-75"/>
       <use xlink:href="#DejaVuSans-6e" transform="translate(63.378906 0)"/>
       <use xlink:href="#DejaVuSans-6b" transform="translate(126.757812 0)"/>
       <use xlink:href="#DejaVuSans-6e" transform="translate(184.667969 0)"/>
       <use xlink:href="#DejaVuSans-6f" transform="translate(248.046875 0)"/>
       <use xlink:href="#DejaVuSans-77" transform="translate(309.228516 0)"/>
       <use xlink:href="#DejaVuSans-6e" transform="translate(391.015625 0)"/>
       <use xlink:href="#DejaVuSans-20" transform="translate(454.394531 0)"/>
       <use xlink:href="#DejaVuSans-63" transform="translate(486.181641 0)"/>
       <use xlink:href="#DejaVuSans-65" transform="translate(541.162109 0)"/>
       <use xlink:href="#DejaVuSans-6c" transform="translate(602.685547 0)"/>
       <use xlink:href="#DejaVuSans-6c" transform="translate(630.46875 0)"/>
      </g>
     </g>
    </g>
    <g id="xtick_5">
     <g id="text_5">
      <!-- neural cell -->
      <g style="fill: #262626" transform="translate(672.0496 394.913688) rotate(-90) scale(0.1 -0.1)">
       <defs>
        <path id="DejaVuSans-72" d="M 2631 2963 
Q 2534 3019 2420 3045 
Q 2306 3072 2169 3072 
Q 1681 3072 1420 2755 
Q 1159 2438 1159 1844 
L 1159 0 
L 581 0 
L 581 3500 
L 1159 3500 
L 1159 2956 
Q 1341 3275 1631 3429 
Q 1922 3584 2338 3584 
Q 2397 3584 2469 3576 
Q 2541 3569 2628 3553 
L 2631 2963 
z
" transform="scale(0.015625)"/>
       </defs>
       <use xlink:href="#DejaVuSans-6e"/>
       <use xlink:href="#DejaVuSans-65" transform="translate(63.378906 0)"/>
       <use xlink:href="#DejaVuSans-75" transform="translate(124.902344 0)"/>
       <use xlink:href="#DejaVuSans-72" transform="translate(188.28125 0)"/>
       <use xlink:href="#DejaVuSans-61" transform="translate(229.394531 0)"/>
       <use xlink:href="#DejaVuSans-6c" transform="translate(290.673828 0)"/>
       <use xlink:href="#DejaVuSans-20" transform="translate(318.457031 0)"/>
       <use xlink:href="#DejaVuSans-63" transform="translate(350.244141 0)"/>
       <use xlink:href="#DejaVuSans-65" transform="translate(405.224609 0)"/>
       <use xlink:href="#DejaVuSans-6c" transform="translate(466.748047 0)"/>
       <use xlink:href="#DejaVuSans-6c" transform="translate(494.53125 0)"/>
      </g>
     </g>
    </g>
    <g id="text_6">
     <!-- Level One Cell Type -->
     <g style="fill: #262626" transform="translate(357.635281 444.662125) scale(0.1 -0.1)">
      <defs>
       <path id="DejaVuSans-4c" d="M 628 4666 
L 1259 4666 
L 1259 531 
L 3531 531 
L 3531 0 
L 628 0 
L 628 4666 
z
" transform="scale(0.015625)"/>
       <path id="DejaVuSans-76" d="M 191 3500 
L 800 3500 
L 1894 563 
L 2988 3500 
L 3597 3500 
L 2284 0 
L 1503 0 
L 191 3500 
z
" transform="scale(0.015625)"/>
       <path id="DejaVuSans-4f" d="M 2522 4238 
Q 1834 4238 1429 3725 
Q 1025 3213 1025 2328 
Q 1025 1447 1429 934 
Q 1834 422 2522 422 
Q 3209 422 3611 934 
Q 4013 1447 4013 2328 
Q 4013 3213 3611 3725 
Q 3209 4238 2522 4238 
z
M 2522 4750 
Q 3503 4750 4090 4092 
Q 4678 3434 4678 2328 
Q 4678 1225 4090 567 
Q 3503 -91 2522 -91 
Q 1538 -91 948 565 
Q 359 1222 359 2328 
Q 359 3434 948 4092 
Q 1538 4750 2522 4750 
z
" transform="scale(0.015625)"/>
       <path id="DejaVuSans-43" d="M 4122 4306 
L 4122 3641 
Q 3803 3938 3442 4084 
Q 3081 4231 2675 4231 
Q 1875 4231 1450 3742 
Q 1025 3253 1025 2328 
Q 1025 1406 1450 917 
Q 1875 428 2675 428 
Q 3081 428 3442 575 
Q 3803 722 4122 1019 
L 4122 359 
Q 3791 134 3420 21 
Q 3050 -91 2638 -91 
Q 1578 -91 968 557 
Q 359 1206 359 2328 
Q 359 3453 968 4101 
Q 1578 4750 2638 4750 
Q 3056 4750 3426 4639 
Q 3797 4528 4122 4306 
z
" transform="scale(0.015625)"/>
       <path id="DejaVuSans-54" d="M -19 4666 
L 3928 4666 
L 3928 4134 
L 2272 4134 
L 2272 0 
L 1638 0 
L 1638 4134 
L -19 4134 
L -19 4666 
z
" transform="scale(0.015625)"/>
      </defs>
      <use xlink:href="#DejaVuSans-4c"/>
      <use xlink:href="#DejaVuSans-65" transform="translate(53.962891 0)"/>
      <use xlink:href="#DejaVuSans-76" transform="translate(115.486328 0)"/>
      <use xlink:href="#DejaVuSans-65" transform="translate(174.666016 0)"/>
      <use xlink:href="#DejaVuSans-6c" transform="translate(236.189453 0)"/>
      <use xlink:href="#DejaVuSans-20" transform="translate(263.972656 0)"/>
      <use xlink:href="#DejaVuSans-4f" transform="translate(295.759766 0)"/>
      <use xlink:href="#DejaVuSans-6e" transform="translate(374.470703 0)"/>
      <use xlink:href="#DejaVuSans-65" transform="translate(437.849609 0)"/>
      <use xlink:href="#DejaVuSans-20" transform="translate(499.373047 0)"/>
      <use xlink:href="#DejaVuSans-43" transform="translate(531.160156 0)"/>
      <use xlink:href="#DejaVuSans-65" transform="translate(600.984375 0)"/>
      <use xlink:href="#DejaVuSans-6c" transform="translate(662.507812 0)"/>
      <use xlink:href="#DejaVuSans-6c" transform="translate(690.291016 0)"/>
      <use xlink:href="#DejaVuSans-20" transform="translate(718.074219 0)"/>
      <use xlink:href="#DejaVuSans-54" transform="translate(749.861328 0)"/>
      <use xlink:href="#DejaVuSans-79" transform="translate(795.320312 0)"/>
      <use xlink:href="#DejaVuSans-70" transform="translate(854.5 0)"/>
      <use xlink:href="#DejaVuSans-65" transform="translate(917.976562 0)"/>
     </g>
    </g>
   </g>
   <g id="matplotlib.axis_2">
    <g id="ytick_1">
     <g id="line2d_1">
      <path d="M 78.265625 321.142933 
L 734.959625 321.142933 
" clip-path="url(#pc66b78b2e6)" style="fill: none; stroke: #cccccc; stroke-width: 2; stroke-linecap: round"/>
     </g>
     <g id="text_7">
      <!-- 0 -->
      <g style="fill: #262626" transform="translate(62.403125 324.942151) scale(0.1 -0.1)">
       <defs>
        <path id="DejaVuSans-30" d="M 2034 4250 
Q 1547 4250 1301 3770 
Q 1056 3291 1056 2328 
Q 1056 1369 1301 889 
Q 1547 409 2034 409 
Q 2525 409 2770 889 
Q 3016 1369 3016 2328 
Q 3016 3291 2770 3770 
Q 2525 4250 2034 4250 
z
M 2034 4750 
Q 2819 4750 3233 4129 
Q 3647 3509 3647 2328 
Q 3647 1150 3233 529 
Q 2819 -91 2034 -91 
Q 1250 -91 836 529 
Q 422 1150 422 2328 
Q 422 3509 836 4129 
Q 1250 4750 2034 4750 
z
" transform="scale(0.015625)"/>
       </defs>
       <use xlink:href="#DejaVuSans-30"/>
      </g>
     </g>
    </g>
    <g id="ytick_2">
     <g id="line2d_2">
      <path d="M 78.265625 288.811133 
L 734.959625 288.811133 
" clip-path="url(#pc66b78b2e6)" style="fill: none; stroke: #cccccc; stroke-width: 2; stroke-linecap: round"/>
     </g>
     <g id="text_8">
      <!-- 25 -->
      <g style="fill: #262626" transform="translate(56.040625 292.610352) scale(0.1 -0.1)">
       <defs>
        <path id="DejaVuSans-32" d="M 1228 531 
L 3431 531 
L 3431 0 
L 469 0 
L 469 531 
Q 828 903 1448 1529 
Q 2069 2156 2228 2338 
Q 2531 2678 2651 2914 
Q 2772 3150 2772 3378 
Q 2772 3750 2511 3984 
Q 2250 4219 1831 4219 
Q 1534 4219 1204 4116 
Q 875 4013 500 3803 
L 500 4441 
Q 881 4594 1212 4672 
Q 1544 4750 1819 4750 
Q 2544 4750 2975 4387 
Q 3406 4025 3406 3419 
Q 3406 3131 3298 2873 
Q 3191 2616 2906 2266 
Q 2828 2175 2409 1742 
Q 1991 1309 1228 531 
z
" transform="scale(0.015625)"/>
        <path id="DejaVuSans-35" d="M 691 4666 
L 3169 4666 
L 3169 4134 
L 1269 4134 
L 1269 2991 
Q 1406 3038 1543 3061 
Q 1681 3084 1819 3084 
Q 2600 3084 3056 2656 
Q 3513 2228 3513 1497 
Q 3513 744 3044 326 
Q 2575 -91 1722 -91 
Q 1428 -91 1123 -41 
Q 819 9 494 109 
L 494 744 
Q 775 591 1075 516 
Q 1375 441 1709 441 
Q 2250 441 2565 725 
Q 2881 1009 2881 1497 
Q 2881 1984 2565 2268 
Q 2250 2553 1709 2553 
Q 1456 2553 1204 2497 
Q 953 2441 691 2322 
L 691 4666 
z
" transform="scale(0.015625)"/>
       </defs>
       <use xlink:href="#DejaVuSans-32"/>
       <use xlink:href="#DejaVuSans-35" transform="translate(63.623047 0)"/>
      </g>
     </g>
    </g>
    <g id="ytick_3">
     <g id="line2d_3">
      <path d="M 78.265625 256.479334 
L 734.959625 256.479334 
" clip-path="url(#pc66b78b2e6)" style="fill: none; stroke: #cccccc; stroke-width: 2; stroke-linecap: round"/>
     </g>
     <g id="text_9">
      <!-- 50 -->
      <g style="fill: #262626" transform="translate(56.040625 260.278552) scale(0.1 -0.1)">
       <use xlink:href="#DejaVuSans-35"/>
       <use xlink:href="#DejaVuSans-30" transform="translate(63.623047 0)"/>
      </g>
     </g>
    </g>
    <g id="ytick_4">
     <g id="line2d_4">
      <path d="M 78.265625 224.147534 
L 734.959625 224.147534 
" clip-path="url(#pc66b78b2e6)" style="fill: none; stroke: #cccccc; stroke-width: 2; stroke-linecap: round"/>
     </g>
     <g id="text_10">
      <!-- 75 -->
      <g style="fill: #262626" transform="translate(56.040625 227.946753) scale(0.1 -0.1)">
       <defs>
        <path id="DejaVuSans-37" d="M 525 4666 
L 3525 4666 
L 3525 4397 
L 1831 0 
L 1172 0 
L 2766 4134 
L 525 4134 
L 525 4666 
z
" transform="scale(0.015625)"/>
       </defs>
       <use xlink:href="#DejaVuSans-37"/>
       <use xlink:href="#DejaVuSans-35" transform="translate(63.623047 0)"/>
      </g>
     </g>
    </g>
    <g id="ytick_5">
     <g id="line2d_5">
      <path d="M 78.265625 191.815735 
L 734.959625 191.815735 
" clip-path="url(#pc66b78b2e6)" style="fill: none; stroke: #cccccc; stroke-width: 2; stroke-linecap: round"/>
     </g>
     <g id="text_11">
      <!-- 100 -->
      <g style="fill: #262626" transform="translate(49.678125 195.614953) scale(0.1 -0.1)">
       <defs>
        <path id="DejaVuSans-31" d="M 794 531 
L 1825 531 
L 1825 4091 
L 703 3866 
L 703 4441 
L 1819 4666 
L 2450 4666 
L 2450 531 
L 3481 531 
L 3481 0 
L 794 0 
L 794 531 
z
" transform="scale(0.015625)"/>
       </defs>
       <use xlink:href="#DejaVuSans-31"/>
       <use xlink:href="#DejaVuSans-30" transform="translate(63.623047 0)"/>
       <use xlink:href="#DejaVuSans-30" transform="translate(127.246094 0)"/>
      </g>
     </g>
    </g>
    <g id="ytick_6">
     <g id="line2d_6">
      <path d="M 78.265625 159.483935 
L 734.959625 159.483935 
" clip-path="url(#pc66b78b2e6)" style="fill: none; stroke: #cccccc; stroke-width: 2; stroke-linecap: round"/>
     </g>
     <g id="text_12">
      <!-- 125 -->
      <g style="fill: #262626" transform="translate(49.678125 163.283154) scale(0.1 -0.1)">
       <use xlink:href="#DejaVuSans-31"/>
       <use xlink:href="#DejaVuSans-32" transform="translate(63.623047 0)"/>
       <use xlink:href="#DejaVuSans-35" transform="translate(127.246094 0)"/>
      </g>
     </g>
    </g>
    <g id="ytick_7">
     <g id="line2d_7">
      <path d="M 78.265625 127.152136 
L 734.959625 127.152136 
" clip-path="url(#pc66b78b2e6)" style="fill: none; stroke: #cccccc; stroke-width: 2; stroke-linecap: round"/>
     </g>
     <g id="text_13">
      <!-- 150 -->
      <g style="fill: #262626" transform="translate(49.678125 130.951354) scale(0.1 -0.1)">
       <use xlink:href="#DejaVuSans-31"/>
       <use xlink:href="#DejaVuSans-35" transform="translate(63.623047 0)"/>
       <use xlink:href="#DejaVuSans-30" transform="translate(127.246094 0)"/>
      </g>
     </g>
    </g>
    <g id="ytick_8">
     <g id="line2d_8">
      <path d="M 78.265625 94.820336 
L 734.959625 94.820336 
" clip-path="url(#pc66b78b2e6)" style="fill: none; stroke: #cccccc; stroke-width: 2; stroke-linecap: round"/>
     </g>
     <g id="text_14">
      <!-- 175 -->
      <g style="fill: #262626" transform="translate(49.678125 98.619555) scale(0.1 -0.1)">
       <use xlink:href="#DejaVuSans-31"/>
       <use xlink:href="#DejaVuSans-37" transform="translate(63.623047 0)"/>
       <use xlink:href="#DejaVuSans-35" transform="translate(127.246094 0)"/>
      </g>
     </g>
    </g>
    <g id="ytick_9">
     <g id="line2d_9">
      <path d="M 78.265625 62.488537 
L 734.959625 62.488537 
" clip-path="url(#pc66b78b2e6)" style="fill: none; stroke: #cccccc; stroke-width: 2; stroke-linecap: round"/>
     </g>
     <g id="text_15">
      <!-- 200 -->
      <g style="fill: #262626" transform="translate(49.678125 66.287755) scale(0.1 -0.1)">
       <use xlink:href="#DejaVuSans-32"/>
       <use xlink:href="#DejaVuSans-30" transform="translate(63.623047 0)"/>
       <use xlink:href="#DejaVuSans-30" transform="translate(127.246094 0)"/>
      </g>
     </g>
    </g>
    <g id="text_16">
     <!-- Distance (μm) -->
     <g style="fill: #262626" transform="translate(43.598437 226.795125) rotate(-90) scale(0.1 -0.1)">
      <defs>
       <path id="DejaVuSans-44" d="M 1259 4147 
L 1259 519 
L 2022 519 
Q 2988 519 3436 956 
Q 3884 1394 3884 2338 
Q 3884 3275 3436 3711 
Q 2988 4147 2022 4147 
L 1259 4147 
z
M 628 4666 
L 1925 4666 
Q 3281 4666 3915 4102 
Q 4550 3538 4550 2338 
Q 4550 1131 3912 565 
Q 3275 0 1925 0 
L 628 0 
L 628 4666 
z
" transform="scale(0.015625)"/>
       <path id="DejaVuSans-28" d="M 1984 4856 
Q 1566 4138 1362 3434 
Q 1159 2731 1159 2009 
Q 1159 1288 1364 580 
Q 1569 -128 1984 -844 
L 1484 -844 
Q 1016 -109 783 600 
Q 550 1309 550 2009 
Q 550 2706 781 3412 
Q 1013 4119 1484 4856 
L 1984 4856 
z
" transform="scale(0.015625)"/>
       <path id="DejaVuSans-3bc" d="M 544 -1331 
L 544 3500 
L 1119 3500 
L 1119 1325 
Q 1119 872 1334 640 
Q 1550 409 1972 409 
Q 2434 409 2667 671 
Q 2900 934 2900 1459 
L 2900 3500 
L 3475 3500 
L 3475 806 
Q 3475 619 3529 530 
Q 3584 441 3700 441 
Q 3728 441 3778 458 
Q 3828 475 3916 513 
L 3916 50 
Q 3788 -22 3673 -56 
Q 3559 -91 3450 -91 
Q 3234 -91 3106 31 
Q 2978 153 2931 403 
Q 2775 156 2548 32 
Q 2322 -91 2016 -91 
Q 1697 -91 1473 31 
Q 1250 153 1119 397 
L 1119 -1331 
L 544 -1331 
z
" transform="scale(0.015625)"/>
       <path id="DejaVuSans-29" d="M 513 4856 
L 1013 4856 
Q 1481 4119 1714 3412 
Q 1947 2706 1947 2009 
Q 1947 1309 1714 600 
Q 1481 -109 1013 -844 
L 513 -844 
Q 928 -128 1133 580 
Q 1338 1288 1338 2009 
Q 1338 2731 1133 3434 
Q 928 4138 513 4856 
z
" transform="scale(0.015625)"/>
      </defs>
      <use xlink:href="#DejaVuSans-44"/>
      <use xlink:href="#DejaVuSans-69" transform="translate(77.001953 0)"/>
      <use xlink:href="#DejaVuSans-73" transform="translate(104.785156 0)"/>
      <use xlink:href="#DejaVuSans-74" transform="translate(156.884766 0)"/>
      <use xlink:href="#DejaVuSans-61" transform="translate(196.09375 0)"/>
      <use xlink:href="#DejaVuSans-6e" transform="translate(257.373047 0)"/>
      <use xlink:href="#DejaVuSans-63" transform="translate(320.751953 0)"/>
      <use xlink:href="#DejaVuSans-65" transform="translate(375.732422 0)"/>
      <use xlink:href="#DejaVuSans-20" transform="translate(437.255859 0)"/>
      <use xlink:href="#DejaVuSans-28" transform="translate(469.042969 0)"/>
      <use xlink:href="#DejaVuSans-3bc" transform="translate(508.056641 0)"/>
      <use xlink:href="#DejaVuSans-6d" transform="translate(571.679688 0)"/>
      <use xlink:href="#DejaVuSans-29" transform="translate(669.091797 0)"/>
     </g>
    </g>
   </g>
   <g id="FillBetweenPolyCollection_1">
    <defs>
     <path id="m0b5197e77b" d="M 144.071069 -162.449557 
L 143.798981 -162.449557 
L 143.331562 -165.053634 
L 142.443471 -167.657711 
L 141.395479 -170.261788 
L 140.258453 -172.865865 
L 138.90479 -175.469942 
L 137.31279 -178.07402 
L 135.566047 -180.678097 
L 133.831269 -183.282174 
L 132.305273 -185.886251 
L 131.128846 -188.490328 
L 130.311795 -191.094405 
L 129.761857 -193.698482 
L 129.390749 -196.30256 
L 129.161611 -198.906637 
L 129.065845 -201.510714 
L 129.086058 -204.114791 
L 129.2155 -206.718868 
L 129.433149 -209.322945 
L 129.690357 -211.927022 
L 129.972462 -214.5311 
L 130.271138 -217.135177 
L 130.579578 -219.739254 
L 130.888209 -222.343331 
L 131.198013 -224.947408 
L 131.516269 -227.551485 
L 131.841526 -230.155562 
L 132.151989 -232.759639 
L 132.440038 -235.363717 
L 132.722313 -237.967794 
L 133.013597 -240.571871 
L 133.300932 -243.175948 
L 133.570532 -245.780025 
L 133.830881 -248.384102 
L 134.078966 -250.988179 
L 134.33528 -253.592257 
L 134.602698 -256.196334 
L 134.858068 -258.800411 
L 135.107378 -261.404488 
L 135.348194 -264.008565 
L 135.590529 -266.612642 
L 135.83001 -269.216719 
L 136.047707 -271.820796 
L 136.258049 -274.424874 
L 136.480275 -277.028951 
L 136.714856 -279.633028 
L 136.936369 -282.237105 
L 137.146974 -284.841182 
L 137.353411 -287.445259 
L 137.55095 -290.049336 
L 137.752824 -292.653414 
L 137.954197 -295.257491 
L 138.148698 -297.861568 
L 138.325359 -300.465645 
L 138.486955 -303.069722 
L 138.654361 -305.673799 
L 138.825201 -308.277876 
L 138.99891 -310.881954 
L 139.170934 -313.486031 
L 139.334642 -316.090108 
L 139.486007 -318.694185 
L 139.623248 -321.298262 
L 139.761099 -323.902339 
L 139.903903 -326.506416 
L 140.042296 -329.110493 
L 140.176329 -331.714571 
L 140.299408 -334.318648 
L 140.409398 -336.922725 
L 140.521767 -339.526802 
L 140.637356 -342.130879 
L 140.753409 -344.734956 
L 140.872203 -347.339033 
L 140.983464 -349.943111 
L 141.077127 -352.547188 
L 141.171194 -355.151265 
L 141.272138 -357.755342 
L 141.361864 -360.359419 
L 141.443414 -362.963496 
L 141.526274 -365.567573 
L 141.610772 -368.17165 
L 141.694493 -370.775728 
L 141.7745 -373.379805 
L 141.846919 -375.983882 
L 141.918733 -378.587959 
L 141.986236 -381.192036 
L 142.046562 -383.796113 
L 142.110798 -386.40019 
L 142.173908 -389.004268 
L 142.236059 -391.608345 
L 142.296415 -394.212422 
L 142.351174 -396.816499 
L 142.403196 -399.420576 
L 142.45504 -402.024653 
L 142.506943 -404.62873 
L 142.557567 -407.232808 
L 142.60598 -409.836885 
L 142.650514 -412.440962 
L 142.716361 -415.045039 
L 142.912595 -417.649116 
L 143.34345 -420.253193 
L 144.5266 -420.253193 
L 144.5266 -420.253193 
L 144.957455 -417.649116 
L 145.153689 -415.045039 
L 145.219536 -412.440962 
L 145.26407 -409.836885 
L 145.312483 -407.232808 
L 145.363107 -404.62873 
L 145.41501 -402.024653 
L 145.466854 -399.420576 
L 145.518876 -396.816499 
L 145.573635 -394.212422 
L 145.633991 -391.608345 
L 145.696142 -389.004268 
L 145.759252 -386.40019 
L 145.823488 -383.796113 
L 145.883814 -381.192036 
L 145.951317 -378.587959 
L 146.023131 -375.983882 
L 146.09555 -373.379805 
L 146.175557 -370.775728 
L 146.259278 -368.17165 
L 146.343776 -365.567573 
L 146.426636 -362.963496 
L 146.508186 -360.359419 
L 146.597912 -357.755342 
L 146.698856 -355.151265 
L 146.792923 -352.547188 
L 146.886586 -349.943111 
L 146.997847 -347.339033 
L 147.116641 -344.734956 
L 147.232694 -342.130879 
L 147.348283 -339.526802 
L 147.460652 -336.922725 
L 147.570642 -334.318648 
L 147.693721 -331.714571 
L 147.827754 -329.110493 
L 147.966147 -326.506416 
L 148.108951 -323.902339 
L 148.246802 -321.298262 
L 148.384043 -318.694185 
L 148.535408 -316.090108 
L 148.699116 -313.486031 
L 148.87114 -310.881954 
L 149.044849 -308.277876 
L 149.215689 -305.673799 
L 149.383095 -303.069722 
L 149.544691 -300.465645 
L 149.721352 -297.861568 
L 149.915853 -295.257491 
L 150.117226 -292.653414 
L 150.3191 -290.049336 
L 150.516639 -287.445259 
L 150.723076 -284.841182 
L 150.933681 -282.237105 
L 151.155194 -279.633028 
L 151.389775 -277.028951 
L 151.612001 -274.424874 
L 151.822343 -271.820796 
L 152.04004 -269.216719 
L 152.279521 -266.612642 
L 152.521856 -264.008565 
L 152.762672 -261.404488 
L 153.011982 -258.800411 
L 153.267352 -256.196334 
L 153.53477 -253.592257 
L 153.791084 -250.988179 
L 154.039169 -248.384102 
L 154.299518 -245.780025 
L 154.569118 -243.175948 
L 154.856453 -240.571871 
L 155.147737 -237.967794 
L 155.430012 -235.363717 
L 155.718061 -232.759639 
L 156.028524 -230.155562 
L 156.353781 -227.551485 
L 156.672037 -224.947408 
L 156.981841 -222.343331 
L 157.290472 -219.739254 
L 157.598912 -217.135177 
L 157.897588 -214.5311 
L 158.179693 -211.927022 
L 158.436901 -209.322945 
L 158.65455 -206.718868 
L 158.783992 -204.114791 
L 158.804205 -201.510714 
L 158.708439 -198.906637 
L 158.479301 -196.30256 
L 158.108193 -193.698482 
L 157.558255 -191.094405 
L 156.741204 -188.490328 
L 155.564777 -185.886251 
L 154.038781 -183.282174 
L 152.304003 -180.678097 
L 150.55726 -178.07402 
L 148.96526 -175.469942 
L 147.611597 -172.865865 
L 146.474571 -170.261788 
L 145.426579 -167.657711 
L 144.538488 -165.053634 
L 144.071069 -162.449557 
z
" style="stroke: #4d4d4d; stroke-opacity: 0.9; stroke-width: 1.25"/>
    </defs>
    <g clip-path="url(#pc66b78b2e6)">
     <use xlink:href="#m0b5197e77b" x="0" y="482.741813" style="fill: #d56b5b; fill-opacity: 0.9; stroke: #4d4d4d; stroke-opacity: 0.9; stroke-width: 1.25"/>
    </g>
   </g>
   <g id="FillBetweenPolyCollection_2">
    <defs>
     <path id="m80b861afbb" d="M 276.773492 -163.018712 
L 273.774158 -163.018712 
L 270.798061 -165.617031 
L 266.448106 -168.215351 
L 262.354527 -170.81367 
L 259.281016 -173.411989 
L 256.915063 -176.010308 
L 255.126478 -178.608628 
L 254.128999 -181.206947 
L 254.021503 -183.805266 
L 254.623511 -186.403586 
L 255.620886 -189.001905 
L 256.760776 -191.600224 
L 257.89474 -194.198543 
L 258.936887 -196.796863 
L 259.84302 -199.395182 
L 260.613721 -201.993501 
L 261.28463 -204.59182 
L 261.890394 -207.19014 
L 262.438518 -209.788459 
L 262.916546 -212.386778 
L 263.316975 -214.985098 
L 263.665542 -217.583417 
L 263.99804 -220.181736 
L 264.314015 -222.780055 
L 264.605819 -225.378375 
L 264.898616 -227.976694 
L 265.20063 -230.575013 
L 265.491592 -233.173333 
L 265.765152 -235.771652 
L 266.019343 -238.369971 
L 266.252851 -240.96829 
L 266.478984 -243.56661 
L 266.709348 -246.164929 
L 266.954041 -248.763248 
L 267.212269 -251.361567 
L 267.450527 -253.959887 
L 267.668378 -256.558206 
L 267.902025 -259.156525 
L 268.151163 -261.754845 
L 268.393976 -264.353164 
L 268.623555 -266.951483 
L 268.845047 -269.549802 
L 269.068079 -272.148122 
L 269.285568 -274.746441 
L 269.479733 -277.34476 
L 269.660473 -279.94308 
L 269.863002 -282.541399 
L 270.07807 -285.139718 
L 270.267659 -287.738037 
L 270.441623 -290.336357 
L 270.625458 -292.934676 
L 270.810549 -295.532995 
L 270.976329 -298.131314 
L 271.131196 -300.729634 
L 271.290342 -303.327953 
L 271.452347 -305.926272 
L 271.610821 -308.524592 
L 271.755797 -311.122911 
L 271.889363 -313.72123 
L 272.027188 -316.319549 
L 272.171107 -318.917869 
L 272.309529 -321.516188 
L 272.433522 -324.114507 
L 272.544606 -326.712827 
L 272.651166 -329.311146 
L 272.760474 -331.909465 
L 272.871777 -334.507784 
L 272.974879 -337.106104 
L 273.061022 -339.704423 
L 273.136474 -342.302742 
L 273.214584 -344.901061 
L 273.299956 -347.499381 
L 273.384941 -350.0977 
L 273.464557 -352.696019 
L 273.542506 -355.294339 
L 273.61916 -357.892658 
L 273.691994 -360.490977 
L 273.758196 -363.089296 
L 273.818485 -365.687616 
L 273.877729 -368.285935 
L 273.93428 -370.884254 
L 273.9875 -373.482574 
L 274.039965 -376.080893 
L 274.09211 -378.679212 
L 274.139393 -381.277531 
L 274.177355 -383.875851 
L 274.211312 -386.47417 
L 274.248741 -389.072489 
L 274.291992 -391.670808 
L 274.339469 -394.269128 
L 274.383654 -396.867447 
L 274.415867 -399.465766 
L 274.439499 -402.064086 
L 274.464596 -404.662405 
L 274.494073 -407.260724 
L 274.524055 -409.859043 
L 274.552774 -412.457363 
L 274.597272 -415.055682 
L 274.712151 -417.654001 
L 274.925036 -420.252321 
L 275.622614 -420.252321 
L 275.622614 -420.252321 
L 275.835499 -417.654001 
L 275.950378 -415.055682 
L 275.994876 -412.457363 
L 276.023595 -409.859043 
L 276.053577 -407.260724 
L 276.083054 -404.662405 
L 276.108151 -402.064086 
L 276.131783 -399.465766 
L 276.163996 -396.867447 
L 276.208181 -394.269128 
L 276.255658 -391.670808 
L 276.298909 -389.072489 
L 276.336338 -386.47417 
L 276.370295 -383.875851 
L 276.408257 -381.277531 
L 276.45554 -378.679212 
L 276.507685 -376.080893 
L 276.56015 -373.482574 
L 276.61337 -370.884254 
L 276.669921 -368.285935 
L 276.729165 -365.687616 
L 276.789454 -363.089296 
L 276.855656 -360.490977 
L 276.92849 -357.892658 
L 277.005144 -355.294339 
L 277.083093 -352.696019 
L 277.162709 -350.0977 
L 277.247694 -347.499381 
L 277.333066 -344.901061 
L 277.411176 -342.302742 
L 277.486628 -339.704423 
L 277.572771 -337.106104 
L 277.675873 -334.507784 
L 277.787176 -331.909465 
L 277.896484 -329.311146 
L 278.003044 -326.712827 
L 278.114128 -324.114507 
L 278.238121 -321.516188 
L 278.376543 -318.917869 
L 278.520462 -316.319549 
L 278.658287 -313.72123 
L 278.791853 -311.122911 
L 278.936829 -308.524592 
L 279.095303 -305.926272 
L 279.257308 -303.327953 
L 279.416454 -300.729634 
L 279.571321 -298.131314 
L 279.737101 -295.532995 
L 279.922192 -292.934676 
L 280.106027 -290.336357 
L 280.279991 -287.738037 
L 280.46958 -285.139718 
L 280.684648 -282.541399 
L 280.887177 -279.94308 
L 281.067917 -277.34476 
L 281.262082 -274.746441 
L 281.479571 -272.148122 
L 281.702603 -269.549802 
L 281.924095 -266.951483 
L 282.153674 -264.353164 
L 282.396487 -261.754845 
L 282.645625 -259.156525 
L 282.879272 -256.558206 
L 283.097123 -253.959887 
L 283.335381 -251.361567 
L 283.593609 -248.763248 
L 283.838302 -246.164929 
L 284.068666 -243.56661 
L 284.294799 -240.96829 
L 284.528307 -238.369971 
L 284.782498 -235.771652 
L 285.056058 -233.173333 
L 285.34702 -230.575013 
L 285.649034 -227.976694 
L 285.941831 -225.378375 
L 286.233635 -222.780055 
L 286.54961 -220.181736 
L 286.882108 -217.583417 
L 287.230675 -214.985098 
L 287.631104 -212.386778 
L 288.109132 -209.788459 
L 288.657256 -207.19014 
L 289.26302 -204.59182 
L 289.933929 -201.993501 
L 290.70463 -199.395182 
L 291.610763 -196.796863 
L 292.65291 -194.198543 
L 293.786874 -191.600224 
L 294.926764 -189.001905 
L 295.924139 -186.403586 
L 296.526147 -183.805266 
L 296.418651 -181.206947 
L 295.421172 -178.608628 
L 293.632587 -176.010308 
L 291.266634 -173.411989 
L 288.193123 -170.81367 
L 284.099544 -168.215351 
L 279.749589 -165.617031 
L 276.773492 -163.018712 
z
" style="stroke: #4d4d4d; stroke-opacity: 0.9; stroke-width: 1.25"/>
    </defs>
    <g clip-path="url(#pc66b78b2e6)">
     <use xlink:href="#m80b861afbb" x="0" y="482.741813" style="fill: #ecbd81; fill-opacity: 0.9; stroke: #4d4d4d; stroke-opacity: 0.9; stroke-width: 1.25"/>
    </g>
   </g>
   <g id="FillBetweenPolyCollection_3">
    <defs>
     <path id="ma2b92ff6ac" d="M 407.146244 -163.598017 
L 406.079006 -163.598017 
L 404.640556 -166.190492 
L 402.568184 -168.782967 
L 400.455989 -171.375442 
L 397.580221 -173.967917 
L 393.738176 -176.560392 
L 389.964607 -179.152867 
L 387.248386 -181.745342 
L 385.900475 -184.337817 
L 385.676825 -186.930291 
L 386.087264 -189.522766 
L 386.73847 -192.115241 
L 387.456897 -194.707716 
L 388.16609 -197.300191 
L 388.834003 -199.892666 
L 389.465446 -202.485141 
L 390.076723 -205.077616 
L 390.690853 -207.670091 
L 391.295081 -210.262566 
L 391.865649 -212.855041 
L 392.401633 -215.447516 
L 392.924089 -218.039991 
L 393.433103 -220.632465 
L 393.901591 -223.22494 
L 394.358602 -225.817415 
L 394.809796 -228.40989 
L 395.247066 -231.002365 
L 395.671992 -233.59484 
L 396.074731 -236.187315 
L 396.456357 -238.77979 
L 396.827575 -241.372265 
L 397.18989 -243.96474 
L 397.546426 -246.557215 
L 397.889768 -249.14969 
L 398.222932 -251.742164 
L 398.5499 -254.334639 
L 398.867639 -256.927114 
L 399.156217 -259.519589 
L 399.42239 -262.112064 
L 399.70037 -264.704539 
L 399.977635 -267.297014 
L 400.227315 -269.889489 
L 400.4686 -272.481964 
L 400.704131 -275.074439 
L 400.938275 -277.666914 
L 401.17524 -280.259389 
L 401.402126 -282.851864 
L 401.609927 -285.444338 
L 401.798582 -288.036813 
L 401.976008 -290.629288 
L 402.152113 -293.221763 
L 402.330203 -295.814238 
L 402.500044 -298.406713 
L 402.658442 -300.999188 
L 402.815147 -303.591663 
L 402.970919 -306.184138 
L 403.125812 -308.776613 
L 403.268445 -311.369088 
L 403.389668 -313.961563 
L 403.508635 -316.554037 
L 403.643516 -319.146512 
L 403.763923 -321.738987 
L 403.87086 -324.331462 
L 403.985188 -326.923937 
L 404.100316 -329.516412 
L 404.206863 -332.108887 
L 404.305806 -334.701362 
L 404.395081 -337.293837 
L 404.47732 -339.886312 
L 404.555223 -342.478787 
L 404.634834 -345.071262 
L 404.716202 -347.663737 
L 404.799252 -350.256211 
L 404.878902 -352.848686 
L 404.951899 -355.441161 
L 405.021339 -358.033636 
L 405.08518 -360.626111 
L 405.136408 -363.218586 
L 405.188207 -365.811061 
L 405.246595 -368.403536 
L 405.303507 -370.996011 
L 405.358464 -373.588486 
L 405.406503 -376.180961 
L 405.447274 -378.773436 
L 405.487762 -381.36591 
L 405.531368 -383.958385 
L 405.571957 -386.55086 
L 405.608152 -389.143335 
L 405.6419 -391.73581 
L 405.674557 -394.328285 
L 405.707904 -396.92076 
L 405.740414 -399.513235 
L 405.772719 -402.10571 
L 405.805853 -404.698185 
L 405.832352 -407.29066 
L 405.85482 -409.883135 
L 405.880589 -412.47561 
L 405.909882 -415.068084 
L 406.009796 -417.660559 
L 406.266404 -420.253034 
L 406.958846 -420.253034 
L 406.958846 -420.253034 
L 407.215454 -417.660559 
L 407.315368 -415.068084 
L 407.344661 -412.47561 
L 407.37043 -409.883135 
L 407.392898 -407.29066 
L 407.419397 -404.698185 
L 407.452531 -402.10571 
L 407.484836 -399.513235 
L 407.517346 -396.92076 
L 407.550693 -394.328285 
L 407.58335 -391.73581 
L 407.617098 -389.143335 
L 407.653293 -386.55086 
L 407.693882 -383.958385 
L 407.737488 -381.36591 
L 407.777976 -378.773436 
L 407.818747 -376.180961 
L 407.866786 -373.588486 
L 407.921743 -370.996011 
L 407.978655 -368.403536 
L 408.037043 -365.811061 
L 408.088842 -363.218586 
L 408.14007 -360.626111 
L 408.203911 -358.033636 
L 408.273351 -355.441161 
L 408.346348 -352.848686 
L 408.425998 -350.256211 
L 408.509048 -347.663737 
L 408.590416 -345.071262 
L 408.670027 -342.478787 
L 408.74793 -339.886312 
L 408.830169 -337.293837 
L 408.919444 -334.701362 
L 409.018387 -332.108887 
L 409.124934 -329.516412 
L 409.240062 -326.923937 
L 409.35439 -324.331462 
L 409.461327 -321.738987 
L 409.581734 -319.146512 
L 409.716615 -316.554037 
L 409.835582 -313.961563 
L 409.956805 -311.369088 
L 410.099438 -308.776613 
L 410.254331 -306.184138 
L 410.410103 -303.591663 
L 410.566808 -300.999188 
L 410.725206 -298.406713 
L 410.895047 -295.814238 
L 411.073137 -293.221763 
L 411.249242 -290.629288 
L 411.426668 -288.036813 
L 411.615323 -285.444338 
L 411.823124 -282.851864 
L 412.05001 -280.259389 
L 412.286975 -277.666914 
L 412.521119 -275.074439 
L 412.75665 -272.481964 
L 412.997935 -269.889489 
L 413.247615 -267.297014 
L 413.52488 -264.704539 
L 413.80286 -262.112064 
L 414.069033 -259.519589 
L 414.357611 -256.927114 
L 414.67535 -254.334639 
L 415.002318 -251.742164 
L 415.335482 -249.14969 
L 415.678824 -246.557215 
L 416.03536 -243.96474 
L 416.397675 -241.372265 
L 416.768893 -238.77979 
L 417.150519 -236.187315 
L 417.553258 -233.59484 
L 417.978184 -231.002365 
L 418.415454 -228.40989 
L 418.866648 -225.817415 
L 419.323659 -223.22494 
L 419.792147 -220.632465 
L 420.301161 -218.039991 
L 420.823617 -215.447516 
L 421.359601 -212.855041 
L 421.930169 -210.262566 
L 422.534397 -207.670091 
L 423.148527 -205.077616 
L 423.759804 -202.485141 
L 424.391247 -199.892666 
L 425.05916 -197.300191 
L 425.768353 -194.707716 
L 426.48678 -192.115241 
L 427.137986 -189.522766 
L 427.548425 -186.930291 
L 427.324775 -184.337817 
L 425.976864 -181.745342 
L 423.260643 -179.152867 
L 419.487074 -176.560392 
L 415.645029 -173.967917 
L 412.769261 -171.375442 
L 410.657066 -168.782967 
L 408.584694 -166.190492 
L 407.146244 -163.598017 
z
" style="stroke: #4d4d4d; stroke-opacity: 0.9; stroke-width: 1.25"/>
    </defs>
    <g clip-path="url(#pc66b78b2e6)">
     <use xlink:href="#ma2b92ff6ac" x="0" y="482.741813" style="fill: #f7f7c6; fill-opacity: 0.9; stroke: #4d4d4d; stroke-opacity: 0.9; stroke-width: 1.25"/>
    </g>
   </g>
   <g id="FillBetweenPolyCollection_4">
    <defs>
     <path id="m2b423ace68" d="M 539.270594 -163.857459 
L 536.632256 -163.857459 
L 535.197335 -166.447261 
L 533.182687 -169.037063 
L 530.494235 -171.626865 
L 527.04334 -174.216667 
L 523.190115 -176.806468 
L 519.693278 -179.39627 
L 517.180963 -181.986072 
L 515.840604 -184.575874 
L 515.495938 -187.165676 
L 515.815533 -189.755478 
L 516.492854 -192.34528 
L 517.335357 -194.935082 
L 518.246979 -197.524884 
L 519.176706 -200.114686 
L 520.084642 -202.704487 
L 520.932934 -205.294289 
L 521.708799 -207.884091 
L 522.429826 -210.473893 
L 523.11718 -213.063695 
L 523.790971 -215.653497 
L 524.47338 -218.243299 
L 525.157342 -220.833101 
L 525.797704 -223.422903 
L 526.363949 -226.012704 
L 526.871057 -228.602506 
L 527.352548 -231.192308 
L 527.823807 -233.78211 
L 528.269409 -236.371912 
L 528.673991 -238.961714 
L 529.054065 -241.551516 
L 529.438383 -244.141318 
L 529.831869 -246.73112 
L 530.207989 -249.320922 
L 530.534889 -251.910723 
L 530.810025 -254.500525 
L 531.065887 -257.090327 
L 531.335674 -259.680129 
L 531.613147 -262.269931 
L 531.869348 -264.859733 
L 532.10278 -267.449535 
L 532.334576 -270.039337 
L 532.573464 -272.629139 
L 532.808326 -275.21894 
L 533.024647 -277.808742 
L 533.220938 -280.398544 
L 533.400467 -282.988346 
L 533.562331 -285.578148 
L 533.710372 -288.16795 
L 533.854895 -290.757752 
L 534.002624 -293.347554 
L 534.151813 -295.937356 
L 534.299006 -298.527158 
L 534.445952 -301.116959 
L 534.590315 -303.706761 
L 534.718022 -306.296563 
L 534.82248 -308.886365 
L 534.918622 -311.476167 
L 535.022519 -314.065969 
L 535.131396 -316.655771 
L 535.233151 -319.245573 
L 535.321571 -321.835375 
L 535.399375 -324.425176 
L 535.473457 -327.014978 
L 535.547656 -329.60478 
L 535.620628 -332.194582 
L 535.691285 -334.784384 
L 535.762081 -337.374186 
L 535.833568 -339.963988 
L 535.901491 -342.55379 
L 535.961418 -345.143592 
L 536.015749 -347.733394 
L 536.072691 -350.323195 
L 536.134297 -352.912997 
L 536.1951 -355.502799 
L 536.252533 -358.092601 
L 536.307846 -360.682403 
L 536.360931 -363.272205 
L 536.410218 -365.862007 
L 536.454118 -368.451809 
L 536.494198 -371.041611 
L 536.535675 -373.631412 
L 536.579177 -376.221214 
L 536.618887 -378.811016 
L 536.651417 -381.400818 
L 536.679316 -383.99062 
L 536.707138 -386.580422 
L 536.736931 -389.170224 
L 536.769073 -391.760026 
L 536.802867 -394.349828 
L 536.83379 -396.93963 
L 536.858242 -399.529431 
L 536.879679 -402.119233 
L 536.902181 -404.709035 
L 536.924143 -407.298837 
L 536.944849 -409.888639 
L 536.977544 -412.478441 
L 537.059469 -415.068243 
L 537.232881 -417.658045 
L 537.484323 -420.247847 
L 538.418527 -420.247847 
L 538.418527 -420.247847 
L 538.669969 -417.658045 
L 538.843381 -415.068243 
L 538.925306 -412.478441 
L 538.958001 -409.888639 
L 538.978707 -407.298837 
L 539.000669 -404.709035 
L 539.023171 -402.119233 
L 539.044608 -399.529431 
L 539.06906 -396.93963 
L 539.099983 -394.349828 
L 539.133777 -391.760026 
L 539.165919 -389.170224 
L 539.195712 -386.580422 
L 539.223534 -383.99062 
L 539.251433 -381.400818 
L 539.283963 -378.811016 
L 539.323673 -376.221214 
L 539.367175 -373.631412 
L 539.408652 -371.041611 
L 539.448732 -368.451809 
L 539.492632 -365.862007 
L 539.541919 -363.272205 
L 539.595004 -360.682403 
L 539.650317 -358.092601 
L 539.70775 -355.502799 
L 539.768553 -352.912997 
L 539.830159 -350.323195 
L 539.887101 -347.733394 
L 539.941432 -345.143592 
L 540.001359 -342.55379 
L 540.069282 -339.963988 
L 540.140769 -337.374186 
L 540.211565 -334.784384 
L 540.282222 -332.194582 
L 540.355194 -329.60478 
L 540.429393 -327.014978 
L 540.503475 -324.425176 
L 540.581279 -321.835375 
L 540.669699 -319.245573 
L 540.771454 -316.655771 
L 540.880331 -314.065969 
L 540.984228 -311.476167 
L 541.08037 -308.886365 
L 541.184828 -306.296563 
L 541.312535 -303.706761 
L 541.456898 -301.116959 
L 541.603844 -298.527158 
L 541.751037 -295.937356 
L 541.900226 -293.347554 
L 542.047955 -290.757752 
L 542.192478 -288.16795 
L 542.340519 -285.578148 
L 542.502383 -282.988346 
L 542.681912 -280.398544 
L 542.878203 -277.808742 
L 543.094524 -275.21894 
L 543.329386 -272.629139 
L 543.568274 -270.039337 
L 543.80007 -267.449535 
L 544.033502 -264.859733 
L 544.289703 -262.269931 
L 544.567176 -259.680129 
L 544.836963 -257.090327 
L 545.092825 -254.500525 
L 545.367961 -251.910723 
L 545.694861 -249.320922 
L 546.070981 -246.73112 
L 546.464467 -244.141318 
L 546.848785 -241.551516 
L 547.228859 -238.961714 
L 547.633441 -236.371912 
L 548.079043 -233.78211 
L 548.550302 -231.192308 
L 549.031793 -228.602506 
L 549.538901 -226.012704 
L 550.105146 -223.422903 
L 550.745508 -220.833101 
L 551.42947 -218.243299 
L 552.111879 -215.653497 
L 552.78567 -213.063695 
L 553.473024 -210.473893 
L 554.194051 -207.884091 
L 554.969916 -205.294289 
L 555.818208 -202.704487 
L 556.726144 -200.114686 
L 557.655871 -197.524884 
L 558.567493 -194.935082 
L 559.409996 -192.34528 
L 560.087317 -189.755478 
L 560.406912 -187.165676 
L 560.062246 -184.575874 
L 558.721887 -181.986072 
L 556.209572 -179.39627 
L 552.712735 -176.806468 
L 548.85951 -174.216667 
L 545.408615 -171.626865 
L 542.720163 -169.037063 
L 540.705515 -166.447261 
L 539.270594 -163.857459 
z
" style="stroke: #4d4d4d; stroke-opacity: 0.9; stroke-width: 1.25"/>
    </defs>
    <g clip-path="url(#pc66b78b2e6)">
     <use xlink:href="#m2b423ace68" x="0" y="482.741813" style="fill: #c0dca9; fill-opacity: 0.9; stroke: #4d4d4d; stroke-opacity: 0.9; stroke-width: 1.25"/>
    </g>
   </g>
   <g id="FillBetweenPolyCollection_5">
    <defs>
     <path id="mdb62c90f09" d="M 675.461374 -163.885145 
L 663.119076 -163.885145 
L 651.080441 -166.453954 
L 635.513834 -169.022763 
L 623.925352 -171.591571 
L 618.235269 -174.16038 
L 616.754705 -176.729189 
L 618.662471 -179.297998 
L 622.66477 -181.866806 
L 627.226959 -184.435615 
L 631.643525 -187.004424 
L 635.791996 -189.573233 
L 639.883389 -192.142041 
L 643.901526 -194.71085 
L 647.337114 -197.279659 
L 650.160998 -199.848468 
L 652.644024 -202.417277 
L 654.863857 -204.986085 
L 656.696628 -207.554894 
L 658.271567 -210.123703 
L 659.629997 -212.692512 
L 660.727955 -215.26132 
L 661.855987 -217.830129 
L 662.98129 -220.398938 
L 663.809753 -222.967747 
L 664.362787 -225.536556 
L 664.917096 -228.105364 
L 665.547452 -230.674173 
L 666.050286 -233.242982 
L 666.407391 -235.811791 
L 666.675851 -238.380599 
L 666.927627 -240.949408 
L 667.261038 -243.518217 
L 667.535914 -246.087026 
L 667.661844 -248.655834 
L 667.753446 -251.224643 
L 667.895846 -253.793452 
L 668.037536 -256.362261 
L 668.138869 -258.93107 
L 668.269902 -261.499878 
L 668.417108 -264.068687 
L 668.533732 -266.637496 
L 668.619322 -269.206305 
L 668.705198 -271.775113 
L 668.789231 -274.343922 
L 668.863293 -276.912731 
L 668.942244 -279.48154 
L 668.984814 -282.050349 
L 668.971553 -284.619157 
L 668.956748 -287.187966 
L 668.993017 -289.756775 
L 669.055932 -292.325584 
L 669.083543 -294.894392 
L 669.066005 -297.463201 
L 669.079528 -300.03201 
L 669.117332 -302.600819 
L 669.144875 -305.169628 
L 669.187685 -307.738436 
L 669.218655 -310.307245 
L 669.215709 -312.876054 
L 669.202547 -315.444863 
L 669.207058 -318.013671 
L 669.232567 -320.58248 
L 669.252202 -323.151289 
L 669.254878 -325.720098 
L 669.252669 -328.288906 
L 669.258608 -330.857715 
L 669.264047 -333.426524 
L 669.263885 -335.995333 
L 669.270989 -338.564142 
L 669.281024 -341.13295 
L 669.279139 -343.701759 
L 669.267995 -346.270568 
L 669.261511 -348.839377 
L 669.259711 -351.408185 
L 669.260911 -353.976994 
L 669.268281 -356.545803 
L 669.279879 -359.114612 
L 669.287039 -361.683421 
L 669.286087 -364.252229 
L 669.281292 -366.821038 
L 669.281585 -369.389847 
L 669.286453 -371.958656 
L 669.28745 -374.527464 
L 669.28307 -377.096273 
L 669.280526 -379.665082 
L 669.284691 -382.233891 
L 669.288898 -384.802699 
L 669.289976 -387.371508 
L 669.289007 -389.940317 
L 669.284943 -392.509126 
L 669.28059 -395.077935 
L 669.282807 -397.646743 
L 669.28707 -400.215552 
L 669.285617 -402.784361 
L 669.279883 -405.35317 
L 669.276633 -407.921978 
L 669.277215 -410.490787 
L 669.280593 -413.059596 
L 669.281473 -415.628405 
L 669.280116 -418.197214 
L 669.300334 -418.197214 
L 669.300334 -418.197214 
L 669.298977 -415.628405 
L 669.299857 -413.059596 
L 669.303235 -410.490787 
L 669.303817 -407.921978 
L 669.300567 -405.35317 
L 669.294833 -402.784361 
L 669.29338 -400.215552 
L 669.297643 -397.646743 
L 669.29986 -395.077935 
L 669.295507 -392.509126 
L 669.291443 -389.940317 
L 669.290474 -387.371508 
L 669.291552 -384.802699 
L 669.295759 -382.233891 
L 669.299924 -379.665082 
L 669.29738 -377.096273 
L 669.293 -374.527464 
L 669.293997 -371.958656 
L 669.298865 -369.389847 
L 669.299158 -366.821038 
L 669.294363 -364.252229 
L 669.293411 -361.683421 
L 669.300571 -359.114612 
L 669.312169 -356.545803 
L 669.319539 -353.976994 
L 669.320739 -351.408185 
L 669.318939 -348.839377 
L 669.312455 -346.270568 
L 669.301311 -343.701759 
L 669.299426 -341.13295 
L 669.309461 -338.564142 
L 669.316565 -335.995333 
L 669.316403 -333.426524 
L 669.321842 -330.857715 
L 669.327781 -328.288906 
L 669.325572 -325.720098 
L 669.328248 -323.151289 
L 669.347883 -320.58248 
L 669.373392 -318.013671 
L 669.377903 -315.444863 
L 669.364741 -312.876054 
L 669.361795 -310.307245 
L 669.392765 -307.738436 
L 669.435575 -305.169628 
L 669.463118 -302.600819 
L 669.500922 -300.03201 
L 669.514445 -297.463201 
L 669.496907 -294.894392 
L 669.524518 -292.325584 
L 669.587433 -289.756775 
L 669.623702 -287.187966 
L 669.608897 -284.619157 
L 669.595636 -282.050349 
L 669.638206 -279.48154 
L 669.717157 -276.912731 
L 669.791219 -274.343922 
L 669.875252 -271.775113 
L 669.961128 -269.206305 
L 670.046718 -266.637496 
L 670.163342 -264.068687 
L 670.310548 -261.499878 
L 670.441581 -258.93107 
L 670.542914 -256.362261 
L 670.684604 -253.793452 
L 670.827004 -251.224643 
L 670.918606 -248.655834 
L 671.044536 -246.087026 
L 671.319412 -243.518217 
L 671.652823 -240.949408 
L 671.904599 -238.380599 
L 672.173059 -235.811791 
L 672.530164 -233.242982 
L 673.032998 -230.674173 
L 673.663354 -228.105364 
L 674.217663 -225.536556 
L 674.770697 -222.967747 
L 675.59916 -220.398938 
L 676.724463 -217.830129 
L 677.852495 -215.26132 
L 678.950453 -212.692512 
L 680.308883 -210.123703 
L 681.883822 -207.554894 
L 683.716593 -204.986085 
L 685.936426 -202.417277 
L 688.419452 -199.848468 
L 691.243336 -197.279659 
L 694.678924 -194.71085 
L 698.697061 -192.142041 
L 702.788454 -189.573233 
L 706.936925 -187.004424 
L 711.353491 -184.435615 
L 715.91568 -181.866806 
L 719.917979 -179.297998 
L 721.825745 -176.729189 
L 720.345181 -174.16038 
L 714.655098 -171.591571 
L 703.066616 -169.022763 
L 687.500009 -166.453954 
L 675.461374 -163.885145 
z
" style="stroke: #4d4d4d; stroke-opacity: 0.9; stroke-width: 1.25"/>
    </defs>
    <g clip-path="url(#pc66b78b2e6)">
     <use xlink:href="#mdb62c90f09" x="0" y="482.741813" style="fill: #5fa2a2; fill-opacity: 0.9; stroke: #4d4d4d; stroke-opacity: 0.9; stroke-width: 1.25"/>
    </g>
   </g>
   <g id="line2d_10">
    <path d="M 143.935025 320.292256 
L 143.935025 74.077993 
" clip-path="url(#pc66b78b2e6)" style="fill: none; stroke: #4d4d4d; stroke-width: 1.875; stroke-linecap: round"/>
   </g>
   <g id="line2d_11">
    <path d="M 143.935025 275.483131 
L 143.935025 194.921044 
" clip-path="url(#pc66b78b2e6)" style="fill: none; stroke: #4d4d4d; stroke-width: 5.625; stroke-linecap: round"/>
   </g>
   <g id="line2d_12">
    <path d="M 143.935025 243.104691 
" clip-path="url(#pc66b78b2e6)" style="fill: none; stroke: #4d4d4d; stroke-width: 1.5; stroke-linecap: round"/>
    <defs>
     <path id="m671d99ad26" d="M 2.34375 0 
L -2.34375 -0 
" style="stroke: #ffffff; stroke-width: 1.125"/>
    </defs>
    <g clip-path="url(#pc66b78b2e6)">
     <use xlink:href="#m671d99ad26" x="143.935025" y="243.104691" style="fill: #ffffff; stroke: #ffffff; stroke-width: 1.125"/>
    </g>
   </g>
   <g id="line2d_13">
    <path d="M 275.273825 319.723101 
L 275.273825 105.891622 
" clip-path="url(#pc66b78b2e6)" style="fill: none; stroke: #4d4d4d; stroke-width: 1.875; stroke-linecap: round"/>
   </g>
   <g id="line2d_14">
    <path d="M 275.273825 293.159211 
L 275.273825 218.252039 
" clip-path="url(#pc66b78b2e6)" style="fill: none; stroke: #4d4d4d; stroke-width: 5.625; stroke-linecap: round"/>
   </g>
   <g id="line2d_15">
    <path d="M 275.273825 264.403906 
" clip-path="url(#pc66b78b2e6)" style="fill: none; stroke: #4d4d4d; stroke-width: 1.5; stroke-linecap: round"/>
    <g clip-path="url(#pc66b78b2e6)">
     <use xlink:href="#m671d99ad26" x="275.273825" y="264.403906" style="fill: #ffffff; stroke: #ffffff; stroke-width: 1.125"/>
    </g>
   </g>
   <g id="line2d_16">
    <path d="M 406.612625 319.143795 
L 406.612625 117.064319 
" clip-path="url(#pc66b78b2e6)" style="fill: none; stroke: #4d4d4d; stroke-width: 1.875; stroke-linecap: round"/>
   </g>
   <g id="line2d_17">
    <path d="M 406.612625 288.251292 
L 406.612625 219.776451 
" clip-path="url(#pc66b78b2e6)" style="fill: none; stroke: #4d4d4d; stroke-width: 5.625; stroke-linecap: round"/>
   </g>
   <g id="line2d_18">
    <path d="M 406.612625 262.169221 
" clip-path="url(#pc66b78b2e6)" style="fill: none; stroke: #4d4d4d; stroke-width: 1.5; stroke-linecap: round"/>
    <g clip-path="url(#pc66b78b2e6)">
     <use xlink:href="#m671d99ad26" x="406.612625" y="262.169221" style="fill: #ffffff; stroke: #ffffff; stroke-width: 1.125"/>
    </g>
   </g>
   <g id="line2d_19">
    <path d="M 537.951425 318.884354 
L 537.951425 122.137535 
" clip-path="url(#pc66b78b2e6)" style="fill: none; stroke: #4d4d4d; stroke-width: 1.875; stroke-linecap: round"/>
   </g>
   <g id="line2d_20">
    <path d="M 537.951425 290.236322 
L 537.951425 222.996327 
" clip-path="url(#pc66b78b2e6)" style="fill: none; stroke: #4d4d4d; stroke-width: 5.625; stroke-linecap: round"/>
   </g>
   <g id="line2d_21">
    <path d="M 537.951425 266.290473 
" clip-path="url(#pc66b78b2e6)" style="fill: none; stroke: #4d4d4d; stroke-width: 1.5; stroke-linecap: round"/>
    <g clip-path="url(#pc66b78b2e6)">
     <use xlink:href="#m671d99ad26" x="537.951425" y="266.290473" style="fill: #ffffff; stroke: #ffffff; stroke-width: 1.125"/>
    </g>
   </g>
   <g id="line2d_22">
    <path d="M 669.290225 318.856668 
L 669.290225 252.945607 
" clip-path="url(#pc66b78b2e6)" style="fill: none; stroke: #4d4d4d; stroke-width: 1.875; stroke-linecap: round"/>
   </g>
   <g id="line2d_23">
    <path d="M 669.290225 306.91469 
L 669.290225 285.318845 
" clip-path="url(#pc66b78b2e6)" style="fill: none; stroke: #4d4d4d; stroke-width: 5.625; stroke-linecap: round"/>
   </g>
   <g id="line2d_24">
    <path d="M 669.290225 298.580439 
" clip-path="url(#pc66b78b2e6)" style="fill: none; stroke: #4d4d4d; stroke-width: 1.5; stroke-linecap: round"/>
    <g clip-path="url(#pc66b78b2e6)">
     <use xlink:href="#m671d99ad26" x="669.290225" y="298.580439" style="fill: #ffffff; stroke: #ffffff; stroke-width: 1.125"/>
    </g>
   </g>
   <g id="patch_3">
    <path d="M 78.265625 333.182438 
L 78.265625 49.598438 
" style="fill: none; stroke: #cccccc; stroke-width: 1.25; stroke-linejoin: miter; stroke-linecap: square"/>
   </g>
   <g id="patch_4">
    <path d="M 734.959625 333.182438 
L 734.959625 49.598438 
" style="fill: none; stroke: #cccccc; stroke-width: 1.25; stroke-linejoin: miter; stroke-linecap: square"/>
   </g>
   <g id="patch_5">
    <path d="M 78.265625 333.182437 
L 734.959625 333.182437 
" style="fill: none; stroke: #cccccc; stroke-width: 1.25; stroke-linejoin: miter; stroke-linecap: square"/>
   </g>
   <g id="patch_6">
    <path d="M 78.265625 49.598438 
L 734.959625 49.598438 
" style="fill: none; stroke: #cccccc; stroke-width: 1.25; stroke-linejoin: miter; stroke-linecap: square"/>
   </g>
   <g id="text_17">
    <!-- Violin Plot of distances by Level One Cell Type (Density Normalization: area) -->
    <g style="fill: #262626" transform="translate(216.563406 43.598438) scale(0.1 -0.1)">
     <defs>
      <path id="DejaVuSans-56" d="M 1831 0 
L 50 4666 
L 709 4666 
L 2188 738 
L 3669 4666 
L 4325 4666 
L 2547 0 
L 1831 0 
z
" transform="scale(0.015625)"/>
      <path id="DejaVuSans-50" d="M 1259 4147 
L 1259 2394 
L 2053 2394 
Q 2494 2394 2734 2622 
Q 2975 2850 2975 3272 
Q 2975 3691 2734 3919 
Q 2494 4147 2053 4147 
L 1259 4147 
z
M 628 4666 
L 2053 4666 
Q 2838 4666 3239 4311 
Q 3641 3956 3641 3272 
Q 3641 2581 3239 2228 
Q 2838 1875 2053 1875 
L 1259 1875 
L 1259 0 
L 628 0 
L 628 4666 
z
" transform="scale(0.015625)"/>
      <path id="DejaVuSans-66" d="M 2375 4863 
L 2375 4384 
L 1825 4384 
Q 1516 4384 1395 4259 
Q 1275 4134 1275 3809 
L 1275 3500 
L 2222 3500 
L 2222 3053 
L 1275 3053 
L 1275 0 
L 697 0 
L 697 3053 
L 147 3053 
L 147 3500 
L 697 3500 
L 697 3744 
Q 697 4328 969 4595 
Q 1241 4863 1831 4863 
L 2375 4863 
z
" transform="scale(0.015625)"/>
      <path id="DejaVuSans-64" d="M 2906 2969 
L 2906 4863 
L 3481 4863 
L 3481 0 
L 2906 0 
L 2906 525 
Q 2725 213 2448 61 
Q 2172 -91 1784 -91 
Q 1150 -91 751 415 
Q 353 922 353 1747 
Q 353 2572 751 3078 
Q 1150 3584 1784 3584 
Q 2172 3584 2448 3432 
Q 2725 3281 2906 2969 
z
M 947 1747 
Q 947 1113 1208 752 
Q 1469 391 1925 391 
Q 2381 391 2643 752 
Q 2906 1113 2906 1747 
Q 2906 2381 2643 2742 
Q 2381 3103 1925 3103 
Q 1469 3103 1208 2742 
Q 947 2381 947 1747 
z
" transform="scale(0.015625)"/>
      <path id="DejaVuSans-62" d="M 3116 1747 
Q 3116 2381 2855 2742 
Q 2594 3103 2138 3103 
Q 1681 3103 1420 2742 
Q 1159 2381 1159 1747 
Q 1159 1113 1420 752 
Q 1681 391 2138 391 
Q 2594 391 2855 752 
Q 3116 1113 3116 1747 
z
M 1159 2969 
Q 1341 3281 1617 3432 
Q 1894 3584 2278 3584 
Q 2916 3584 3314 3078 
Q 3713 2572 3713 1747 
Q 3713 922 3314 415 
Q 2916 -91 2278 -91 
Q 1894 -91 1617 61 
Q 1341 213 1159 525 
L 1159 0 
L 581 0 
L 581 4863 
L 1159 4863 
L 1159 2969 
z
" transform="scale(0.015625)"/>
      <path id="DejaVuSans-4e" d="M 628 4666 
L 1478 4666 
L 3547 763 
L 3547 4666 
L 4159 4666 
L 4159 0 
L 3309 0 
L 1241 3903 
L 1241 0 
L 628 0 
L 628 4666 
z
" transform="scale(0.015625)"/>
      <path id="DejaVuSans-7a" d="M 353 3500 
L 3084 3500 
L 3084 2975 
L 922 459 
L 3084 459 
L 3084 0 
L 275 0 
L 275 525 
L 2438 3041 
L 353 3041 
L 353 3500 
z
" transform="scale(0.015625)"/>
      <path id="DejaVuSans-3a" d="M 750 794 
L 1409 794 
L 1409 0 
L 750 0 
L 750 794 
z
M 750 3309 
L 1409 3309 
L 1409 2516 
L 750 2516 
L 750 3309 
z
" transform="scale(0.015625)"/>
     </defs>
     <use xlink:href="#DejaVuSans-56"/>
     <use xlink:href="#DejaVuSans-69" transform="translate(66.158203 0)"/>
     <use xlink:href="#DejaVuSans-6f" transform="translate(93.941406 0)"/>
     <use xlink:href="#DejaVuSans-6c" transform="translate(155.123047 0)"/>
     <use xlink:href="#DejaVuSans-69" transform="translate(182.90625 0)"/>
     <use xlink:href="#DejaVuSans-6e" transform="translate(210.689453 0)"/>
     <use xlink:href="#DejaVuSans-20" transform="translate(274.068359 0)"/>
     <use xlink:href="#DejaVuSans-50" transform="translate(305.855469 0)"/>
     <use xlink:href="#DejaVuSans-6c" transform="translate(366.158203 0)"/>
     <use xlink:href="#DejaVuSans-6f" transform="translate(393.941406 0)"/>
     <use xlink:href="#DejaVuSans-74" transform="translate(455.123047 0)"/>
     <use xlink:href="#DejaVuSans-20" transform="translate(494.332031 0)"/>
     <use xlink:href="#DejaVuSans-6f" transform="translate(526.119141 0)"/>
     <use xlink:href="#DejaVuSans-66" transform="translate(587.300781 0)"/>
     <use xlink:href="#DejaVuSans-20" transform="translate(622.505859 0)"/>
     <use xlink:href="#DejaVuSans-64" transform="translate(654.292969 0)"/>
     <use xlink:href="#DejaVuSans-69" transform="translate(717.769531 0)"/>
     <use xlink:href="#DejaVuSans-73" transform="translate(745.552734 0)"/>
     <use xlink:href="#DejaVuSans-74" transform="translate(797.652344 0)"/>
     <use xlink:href="#DejaVuSans-61" transform="translate(836.861328 0)"/>
     <use xlink:href="#DejaVuSans-6e" transform="translate(898.140625 0)"/>
     <use xlink:href="#DejaVuSans-63" transform="translate(961.519531 0)"/>
     <use xlink:href="#DejaVuSans-65" transform="translate(1016.5 0)"/>
     <use xlink:href="#DejaVuSans-73" transform="translate(1078.023438 0)"/>
     <use xlink:href="#DejaVuSans-20" transform="translate(1130.123047 0)"/>
     <use xlink:href="#DejaVuSans-62" transform="translate(1161.910156 0)"/>
     <use xlink:href="#DejaVuSans-79" transform="translate(1225.386719 0)"/>
     <use xlink:href="#DejaVuSans-20" transform="translate(1284.566406 0)"/>
     <use xlink:href="#DejaVuSans-4c" transform="translate(1316.353516 0)"/>
     <use xlink:href="#DejaVuSans-65" transform="translate(1370.316406 0)"/>
     <use xlink:href="#DejaVuSans-76" transform="translate(1431.839844 0)"/>
     <use xlink:href="#DejaVuSans-65" transform="translate(1491.019531 0)"/>
     <use xlink:href="#DejaVuSans-6c" transform="translate(1552.542969 0)"/>
     <use xlink:href="#DejaVuSans-20" transform="translate(1580.326172 0)"/>
     <use xlink:href="#DejaVuSans-4f" transform="translate(1612.113281 0)"/>
     <use xlink:href="#DejaVuSans-6e" transform="translate(1690.824219 0)"/>
     <use xlink:href="#DejaVuSans-65" transform="translate(1754.203125 0)"/>
     <use xlink:href="#DejaVuSans-20" transform="translate(1815.726562 0)"/>
     <use xlink:href="#DejaVuSans-43" transform="translate(1847.513672 0)"/>
     <use xlink:href="#DejaVuSans-65" transform="translate(1917.337891 0)"/>
     <use xlink:href="#DejaVuSans-6c" transform="translate(1978.861328 0)"/>
     <use xlink:href="#DejaVuSans-6c" transform="translate(2006.644531 0)"/>
     <use xlink:href="#DejaVuSans-20" transform="translate(2034.427734 0)"/>
     <use xlink:href="#DejaVuSans-54" transform="translate(2066.214844 0)"/>
     <use xlink:href="#DejaVuSans-79" transform="translate(2111.673828 0)"/>
     <use xlink:href="#DejaVuSans-70" transform="translate(2170.853516 0)"/>
     <use xlink:href="#DejaVuSans-65" transform="translate(2234.330078 0)"/>
     <use xlink:href="#DejaVuSans-20" transform="translate(2295.853516 0)"/>
     <use xlink:href="#DejaVuSans-28" transform="translate(2327.640625 0)"/>
     <use xlink:href="#DejaVuSans-44" transform="translate(2366.654297 0)"/>
     <use xlink:href="#DejaVuSans-65" transform="translate(2443.65625 0)"/>
     <use xlink:href="#DejaVuSans-6e" transform="translate(2505.179688 0)"/>
     <use xlink:href="#DejaVuSans-73" transform="translate(2568.558594 0)"/>
     <use xlink:href="#DejaVuSans-69" transform="translate(2620.658203 0)"/>
     <use xlink:href="#DejaVuSans-74" transform="translate(2648.441406 0)"/>
     <use xlink:href="#DejaVuSans-79" transform="translate(2687.650391 0)"/>
     <use xlink:href="#DejaVuSans-20" transform="translate(2746.830078 0)"/>
     <use xlink:href="#DejaVuSans-4e" transform="translate(2778.617188 0)"/>
     <use xlink:href="#DejaVuSans-6f" transform="translate(2853.421875 0)"/>
     <use xlink:href="#DejaVuSans-72" transform="translate(2914.603516 0)"/>
     <use xlink:href="#DejaVuSans-6d" transform="translate(2953.966797 0)"/>
     <use xlink:href="#DejaVuSans-61" transform="translate(3051.378906 0)"/>
     <use xlink:href="#DejaVuSans-6c" transform="translate(3112.658203 0)"/>
     <use xlink:href="#DejaVuSans-69" transform="translate(3140.441406 0)"/>
     <use xlink:href="#DejaVuSans-7a" transform="translate(3168.224609 0)"/>
     <use xlink:href="#DejaVuSans-61" transform="translate(3220.714844 0)"/>
     <use xlink:href="#DejaVuSans-74" transform="translate(3281.994141 0)"/>
     <use xlink:href="#DejaVuSans-69" transform="translate(3321.203125 0)"/>
     <use xlink:href="#DejaVuSans-6f" transform="translate(3348.986328 0)"/>
     <use xlink:href="#DejaVuSans-6e" transform="translate(3410.167969 0)"/>
     <use xlink:href="#DejaVuSans-3a" transform="translate(3473.546875 0)"/>
     <use xlink:href="#DejaVuSans-20" transform="translate(3507.238281 0)"/>
     <use xlink:href="#DejaVuSans-61" transform="translate(3539.025391 0)"/>
     <use xlink:href="#DejaVuSans-72" transform="translate(3600.304688 0)"/>
     <use xlink:href="#DejaVuSans-65" transform="translate(3639.167969 0)"/>
     <use xlink:href="#DejaVuSans-61" transform="translate(3700.691406 0)"/>
     <use xlink:href="#DejaVuSans-29" transform="translate(3761.970703 0)"/>
    </g>
   </g>
   <g id="legend_1">
    <g id="patch_7">
     <path d="M 723.959625 62.598438 
L 727.959625 62.598438 
Q 729.959625 62.598438 729.959625 60.598438 
L 729.959625 56.598438 
Q 729.959625 54.598438 727.959625 54.598438 
L 723.959625 54.598438 
Q 721.959625 54.598438 721.959625 56.598438 
L 721.959625 60.598438 
Q 721.959625 62.598438 723.959625 62.598438 
z
" style="fill: #ffffff; opacity: 0.8; stroke: #cccccc; stroke-width: 0.8; stroke-linejoin: miter"/>
    </g>
   </g>
  </g>
 </g>
 <defs>
  <clipPath id="pc66b78b2e6">
   <rect x="78.265625" y="49.598438" width="656.694" height="283.584"/>
  </clipPath>
 </defs>
</svg>
