<?xml version="1.0" encoding="utf-8" standalone="no"?>
<!DOCTYPE svg PUBLIC "-//W3C//DTD SVG 1.1//EN"
  "http://www.w3.org/Graphics/SVG/1.1/DTD/svg11.dtd">
<svg xmlns:xlink="http://www.w3.org/1999/xlink" width="770.959625pt" height="482.741813pt" viewBox="0 0 770.959625 482.741813" xmlns="http://www.w3.org/2000/svg" version="1.1">
 <metadata>
  <rdf:RDF xmlns:dc="http://purl.org/dc/elements/1.1/" xmlns:cc="http://creativecommons.org/ns#" xmlns:rdf="http://www.w3.org/1999/02/22-rdf-syntax-ns#">
   <cc:Work>
    <dc:type rdf:resource="http://purl.org/dc/dcmitype/StillImage"/>
    <dc:date>2025-08-04T14:48:05.206761</dc:date>
    <dc:format>image/svg+xml</dc:format>
    <dc:creator>
     <cc:Agent>
      <dc:title>Matplotlib v3.10.3, https://matplotlib.org/</dc:title>
     </cc:Agent>
    </dc:creator>
   </cc:Work>
  </rdf:RDF>
 </metadata>
 <defs>
  <style type="text/css">*{stroke-linejoin: round; stroke-linecap: butt}</style>
 </defs>
 <g id="figure_1">
  <g id="patch_1">
   <path d="M 0 482.741813 
L 770.959625 482.741813 
L 770.959625 -0 
L 0 -0 
z
" style="fill: #ffffff"/>
  </g>
  <g id="axes_1">
   <g id="patch_2">
    <path d="M 78.265625 333.182437 
L 734.959625 333.182437 
L 734.959625 49.598438 
L 78.265625 49.598438 
z
" style="fill: #ffffff"/>
   </g>
   <g id="matplotlib.axis_1">
    <g id="xtick_1">
     <g id="text_1">
      <text style="font-size: 10px; font-family: 'Arial', 'DejaVu Sans', 'Liberation Sans', 'Bitstream Vera Sans', sans-serif; fill: #262626" transform="translate(146.6944 409.2215) rotate(-90)">epithelial cell</text>
     </g>
    </g>
    <g id="xtick_2">
     <g id="text_2">
      <text style="font-size: 10px; font-family: 'Arial', 'DejaVu Sans', 'Liberation Sans', 'Bitstream Vera Sans', sans-serif; fill: #262626" transform="translate(278.0332 433.063688) rotate(-90)">mesenchymal cell</text>
     </g>
    </g>
    <g id="xtick_3">
     <g id="text_3">
      <text style="font-size: 10px; font-family: 'Arial', 'DejaVu Sans', 'Liberation Sans', 'Bitstream Vera Sans', sans-serif; fill: #262626" transform="translate(409.372 404.155875) rotate(-90)">immune cell</text>
     </g>
    </g>
    <g id="xtick_4">
     <g id="text_4">
      <text style="font-size: 10px; font-family: 'Arial', 'DejaVu Sans', 'Liberation Sans', 'Bitstream Vera Sans', sans-serif; fill: #262626" transform="translate(540.7108 408.505875) rotate(-90)">unknown cell</text>
     </g>
    </g>
    <g id="xtick_5">
     <g id="text_5">
      <text style="font-size: 10px; font-family: 'Arial', 'DejaVu Sans', 'Liberation Sans', 'Bitstream Vera Sans', sans-serif; fill: #262626" transform="translate(672.0496 394.913688) rotate(-90)">neural cell</text>
     </g>
    </g>
    <g id="text_6">
     <text style="font-size: 10px; font-family: 'Arial', 'DejaVu Sans', 'Liberation Sans', 'Bitstream Vera Sans', sans-serif; text-anchor: middle; fill: #262626" x="406.612625" y="444.662125" transform="rotate(-0 406.612625 444.662125)">Level One Cell Type</text>
    </g>
   </g>
   <g id="matplotlib.axis_2">
    <g id="ytick_1">
     <g id="line2d_1">
      <path d="M 78.265625 321.142933 
L 734.959625 321.142933 
" clip-path="url(#p93e8d9d90e)" style="fill: none; stroke: #cccccc; stroke-width: 2; stroke-linecap: round"/>
     </g>
     <g id="text_7">
      <text style="font-size: 10px; font-family: 'Arial', 'DejaVu Sans', 'Liberation Sans', 'Bitstream Vera Sans', sans-serif; text-anchor: end; fill: #262626" x="68.765625" y="324.942152" transform="rotate(-0 68.765625 324.942152)">0</text>
     </g>
    </g>
    <g id="ytick_2">
     <g id="line2d_2">
      <path d="M 78.265625 288.811127 
L 734.959625 288.811127 
" clip-path="url(#p93e8d9d90e)" style="fill: none; stroke: #cccccc; stroke-width: 2; stroke-linecap: round"/>
     </g>
     <g id="text_8">
      <text style="font-size: 10px; font-family: 'Arial', 'DejaVu Sans', 'Liberation Sans', 'Bitstream Vera Sans', sans-serif; text-anchor: end; fill: #262626" x="68.765625" y="292.610346" transform="rotate(-0 68.765625 292.610346)">25</text>
     </g>
    </g>
    <g id="ytick_3">
     <g id="line2d_3">
      <path d="M 78.265625 256.479322 
L 734.959625 256.479322 
" clip-path="url(#p93e8d9d90e)" style="fill: none; stroke: #cccccc; stroke-width: 2; stroke-linecap: round"/>
     </g>
     <g id="text_9">
      <text style="font-size: 10px; font-family: 'Arial', 'DejaVu Sans', 'Liberation Sans', 'Bitstream Vera Sans', sans-serif; text-anchor: end; fill: #262626" x="68.765625" y="260.27854" transform="rotate(-0 68.765625 260.27854)">50</text>
     </g>
    </g>
    <g id="ytick_4">
     <g id="line2d_4">
      <path d="M 78.265625 224.147516 
L 734.959625 224.147516 
" clip-path="url(#p93e8d9d90e)" style="fill: none; stroke: #cccccc; stroke-width: 2; stroke-linecap: round"/>
     </g>
     <g id="text_10">
      <text style="font-size: 10px; font-family: 'Arial', 'DejaVu Sans', 'Liberation Sans', 'Bitstream Vera Sans', sans-serif; text-anchor: end; fill: #262626" x="68.765625" y="227.946735" transform="rotate(-0 68.765625 227.946735)">75</text>
     </g>
    </g>
    <g id="ytick_5">
     <g id="line2d_5">
      <path d="M 78.265625 191.81571 
L 734.959625 191.81571 
" clip-path="url(#p93e8d9d90e)" style="fill: none; stroke: #cccccc; stroke-width: 2; stroke-linecap: round"/>
     </g>
     <g id="text_11">
      <text style="font-size: 10px; font-family: 'Arial', 'DejaVu Sans', 'Liberation Sans', 'Bitstream Vera Sans', sans-serif; text-anchor: end; fill: #262626" x="68.765625" y="195.614929" transform="rotate(-0 68.765625 195.614929)">100</text>
     </g>
    </g>
    <g id="ytick_6">
     <g id="line2d_6">
      <path d="M 78.265625 159.483905 
L 734.959625 159.483905 
" clip-path="url(#p93e8d9d90e)" style="fill: none; stroke: #cccccc; stroke-width: 2; stroke-linecap: round"/>
     </g>
     <g id="text_12">
      <text style="font-size: 10px; font-family: 'Arial', 'DejaVu Sans', 'Liberation Sans', 'Bitstream Vera Sans', sans-serif; text-anchor: end; fill: #262626" x="68.765625" y="163.283123" transform="rotate(-0 68.765625 163.283123)">125</text>
     </g>
    </g>
    <g id="ytick_7">
     <g id="line2d_7">
      <path d="M 78.265625 127.152099 
L 734.959625 127.152099 
" clip-path="url(#p93e8d9d90e)" style="fill: none; stroke: #cccccc; stroke-width: 2; stroke-linecap: round"/>
     </g>
     <g id="text_13">
      <text style="font-size: 10px; font-family: 'Arial', 'DejaVu Sans', 'Liberation Sans', 'Bitstream Vera Sans', sans-serif; text-anchor: end; fill: #262626" x="68.765625" y="130.951318" transform="rotate(-0 68.765625 130.951318)">150</text>
     </g>
    </g>
    <g id="ytick_8">
     <g id="line2d_8">
      <path d="M 78.265625 94.820293 
L 734.959625 94.820293 
" clip-path="url(#p93e8d9d90e)" style="fill: none; stroke: #cccccc; stroke-width: 2; stroke-linecap: round"/>
     </g>
     <g id="text_14">
      <text style="font-size: 10px; font-family: 'Arial', 'DejaVu Sans', 'Liberation Sans', 'Bitstream Vera Sans', sans-serif; text-anchor: end; fill: #262626" x="68.765625" y="98.619512" transform="rotate(-0 68.765625 98.619512)">175</text>
     </g>
    </g>
    <g id="ytick_9">
     <g id="line2d_9">
      <path d="M 78.265625 62.488488 
L 734.959625 62.488488 
" clip-path="url(#p93e8d9d90e)" style="fill: none; stroke: #cccccc; stroke-width: 2; stroke-linecap: round"/>
     </g>
     <g id="text_15">
      <text style="font-size: 10px; font-family: 'Arial', 'DejaVu Sans', 'Liberation Sans', 'Bitstream Vera Sans', sans-serif; text-anchor: end; fill: #262626" x="68.765625" y="66.287706" transform="rotate(-0 68.765625 66.287706)">200</text>
     </g>
    </g>
    <g id="text_16">
     <text style="font-size: 10px; font-family: 'Arial', 'DejaVu Sans', 'Liberation Sans', 'Bitstream Vera Sans', sans-serif; text-anchor: middle; fill: #262626" x="43.598437" y="191.390438" transform="rotate(-90 43.598437 191.390438)">Distance (μm)</text>
    </g>
   </g>
   <g id="FillBetweenPolyCollection_1">
    <defs>
     <path id="m9c2de2fc0e" d="M 144.002184 -162.449557 
L 143.867866 -162.449557 
L 143.441385 -165.053634 
L 142.39832 -167.657711 
L 140.809042 -170.261788 
L 138.354065 -172.865865 
L 135.102693 -175.469942 
L 131.889726 -178.07402 
L 129.357891 -180.678097 
L 127.45759 -183.282174 
L 125.952311 -185.886251 
L 124.755043 -188.490328 
L 123.859302 -191.094405 
L 123.303492 -193.698482 
L 123.017905 -196.30256 
L 122.924983 -198.906637 
L 123.032126 -201.510714 
L 123.327282 -204.114791 
L 123.79585 -206.718868 
L 124.370652 -209.322945 
L 124.994034 -211.927022 
L 125.684314 -214.5311 
L 126.383119 -217.135177 
L 127.080383 -219.739254 
L 127.824849 -222.343331 
L 128.582286 -224.947408 
L 129.311883 -227.551485 
L 130.039429 -230.155562 
L 130.733764 -232.759639 
L 131.368286 -235.363717 
L 132.012564 -237.967794 
L 132.638751 -240.571871 
L 133.229069 -243.175948 
L 133.792362 -245.780025 
L 134.351377 -248.384102 
L 134.872165 -250.988179 
L 135.328478 -253.592257 
L 135.776654 -256.196334 
L 136.230331 -258.800411 
L 136.671836 -261.404488 
L 137.067491 -264.008565 
L 137.421457 -266.612642 
L 137.774479 -269.216719 
L 138.115138 -271.820796 
L 138.422061 -274.424874 
L 138.699193 -277.028951 
L 138.985079 -279.633028 
L 139.275071 -282.237105 
L 139.53272 -284.841182 
L 139.763136 -287.445259 
L 139.988696 -290.049336 
L 140.191822 -292.653414 
L 140.390625 -295.257491 
L 140.585821 -297.861568 
L 140.765394 -300.465645 
L 140.932271 -303.069722 
L 141.087131 -305.673799 
L 141.236223 -308.277876 
L 141.381377 -310.881954 
L 141.520223 -313.486031 
L 141.644532 -316.090108 
L 141.763639 -318.694185 
L 141.881681 -321.298262 
L 141.989845 -323.902339 
L 142.090758 -326.506416 
L 142.188112 -329.110493 
L 142.273732 -331.714571 
L 142.357094 -334.318648 
L 142.443526 -336.922725 
L 142.530272 -339.526802 
L 142.601113 -342.130879 
L 142.651095 -344.734956 
L 142.708974 -347.339033 
L 142.769444 -349.943111 
L 142.828342 -352.547188 
L 142.878569 -355.151265 
L 142.928548 -357.755342 
L 142.981239 -360.359419 
L 143.029238 -362.963496 
L 143.062608 -365.567573 
L 143.101461 -368.17165 
L 143.145065 -370.775728 
L 143.175792 -373.379805 
L 143.205733 -375.983882 
L 143.245317 -378.587959 
L 143.275286 -381.192036 
L 143.304141 -383.796113 
L 143.335269 -386.40019 
L 143.357916 -389.004268 
L 143.377248 -391.608345 
L 143.401033 -394.212422 
L 143.428594 -396.816499 
L 143.454844 -399.420576 
L 143.47375 -402.024653 
L 143.491926 -404.62873 
L 143.509793 -407.232808 
L 143.525592 -409.836885 
L 143.537169 -412.440962 
L 143.555178 -415.045039 
L 143.605339 -417.649116 
L 143.755849 -420.253193 
L 144.114201 -420.253193 
L 144.114201 -420.253193 
L 144.264711 -417.649116 
L 144.314872 -415.045039 
L 144.332881 -412.440962 
L 144.344458 -409.836885 
L 144.360257 -407.232808 
L 144.378124 -404.62873 
L 144.3963 -402.024653 
L 144.415206 -399.420576 
L 144.441456 -396.816499 
L 144.469017 -394.212422 
L 144.492802 -391.608345 
L 144.512134 -389.004268 
L 144.534781 -386.40019 
L 144.565909 -383.796113 
L 144.594764 -381.192036 
L 144.624733 -378.587959 
L 144.664317 -375.983882 
L 144.694258 -373.379805 
L 144.724985 -370.775728 
L 144.768589 -368.17165 
L 144.807442 -365.567573 
L 144.840812 -362.963496 
L 144.888811 -360.359419 
L 144.941502 -357.755342 
L 144.991481 -355.151265 
L 145.041708 -352.547188 
L 145.100606 -349.943111 
L 145.161076 -347.339033 
L 145.218955 -344.734956 
L 145.268937 -342.130879 
L 145.339778 -339.526802 
L 145.426524 -336.922725 
L 145.512956 -334.318648 
L 145.596318 -331.714571 
L 145.681938 -329.110493 
L 145.779292 -326.506416 
L 145.880205 -323.902339 
L 145.988369 -321.298262 
L 146.106411 -318.694185 
L 146.225518 -316.090108 
L 146.349827 -313.486031 
L 146.488673 -310.881954 
L 146.633827 -308.277876 
L 146.782919 -305.673799 
L 146.937779 -303.069722 
L 147.104656 -300.465645 
L 147.284229 -297.861568 
L 147.479425 -295.257491 
L 147.678228 -292.653414 
L 147.881354 -290.049336 
L 148.106914 -287.445259 
L 148.33733 -284.841182 
L 148.594979 -282.237105 
L 148.884971 -279.633028 
L 149.170857 -277.028951 
L 149.447989 -274.424874 
L 149.754912 -271.820796 
L 150.095571 -269.216719 
L 150.448593 -266.612642 
L 150.802559 -264.008565 
L 151.198214 -261.404488 
L 151.639719 -258.800411 
L 152.093396 -256.196334 
L 152.541572 -253.592257 
L 152.997885 -250.988179 
L 153.518673 -248.384102 
L 154.077688 -245.780025 
L 154.640981 -243.175948 
L 155.231299 -240.571871 
L 155.857486 -237.967794 
L 156.501764 -235.363717 
L 157.136286 -232.759639 
L 157.830621 -230.155562 
L 158.558167 -227.551485 
L 159.287764 -224.947408 
L 160.045201 -222.343331 
L 160.789667 -219.739254 
L 161.486931 -217.135177 
L 162.185736 -214.5311 
L 162.876016 -211.927022 
L 163.499398 -209.322945 
L 164.0742 -206.718868 
L 164.542768 -204.114791 
L 164.837924 -201.510714 
L 164.945067 -198.906637 
L 164.852145 -196.30256 
L 164.566558 -193.698482 
L 164.010748 -191.094405 
L 163.115007 -188.490328 
L 161.917739 -185.886251 
L 160.41246 -183.282174 
L 158.512159 -180.678097 
L 155.980324 -178.07402 
L 152.767357 -175.469942 
L 149.515985 -172.865865 
L 147.061008 -170.261788 
L 145.47173 -167.657711 
L 144.428665 -165.053634 
L 144.002184 -162.449557 
z
" style="stroke: #4d4d4d; stroke-opacity: 0.9; stroke-width: 1.25"/>
    </defs>
    <g clip-path="url(#p93e8d9d90e)">
     <use xlink:href="#m9c2de2fc0e" x="0" y="482.741813" style="fill: #d56b5b; fill-opacity: 0.9; stroke: #4d4d4d; stroke-opacity: 0.9; stroke-width: 1.25"/>
    </g>
   </g>
   <g id="FillBetweenPolyCollection_2">
    <defs>
     <path id="m425b5dc719" d="M 276.179317 -163.018712 
L 274.368333 -163.018712 
L 271.028972 -165.616977 
L 264.353925 -168.215242 
L 256.515923 -170.813507 
L 250.232528 -173.411772 
L 246.863899 -176.010036 
L 246.159927 -178.608301 
L 247.004895 -181.206566 
L 248.404211 -183.804831 
L 249.867794 -186.403096 
L 251.22678 -189.001361 
L 252.488845 -191.599626 
L 253.708333 -194.197891 
L 254.853789 -196.796155 
L 255.868957 -199.39442 
L 256.80128 -201.992685 
L 257.715677 -204.59095 
L 258.619009 -207.189215 
L 259.473937 -209.78748 
L 260.243912 -212.385745 
L 260.929636 -214.98401 
L 261.609001 -217.582274 
L 262.309072 -220.180539 
L 262.946171 -222.778804 
L 263.562499 -225.377069 
L 264.203299 -227.975334 
L 264.814951 -230.573599 
L 265.388006 -233.171864 
L 265.931475 -235.770128 
L 266.419038 -238.368393 
L 266.914729 -240.966658 
L 267.400495 -243.564923 
L 267.851637 -246.163188 
L 268.301927 -248.761453 
L 268.7116 -251.359718 
L 269.1018 -253.957983 
L 269.491841 -256.556247 
L 269.854473 -259.154512 
L 270.192107 -261.752777 
L 270.527629 -264.351042 
L 270.842364 -266.949307 
L 271.123992 -269.547572 
L 271.389311 -272.145837 
L 271.64817 -274.744102 
L 271.871863 -277.342366 
L 272.062826 -279.940631 
L 272.26005 -282.538896 
L 272.459885 -285.137161 
L 272.651976 -287.735426 
L 272.830273 -290.333691 
L 272.987505 -292.931956 
L 273.130304 -295.53022 
L 273.264049 -298.128485 
L 273.389273 -300.72675 
L 273.508145 -303.325015 
L 273.607874 -305.92328 
L 273.694558 -308.521545 
L 273.792539 -311.11981 
L 273.898169 -313.718075 
L 273.980323 -316.316339 
L 274.041045 -318.914604 
L 274.106807 -321.512869 
L 274.17035 -324.111134 
L 274.216371 -326.709399 
L 274.261003 -329.307664 
L 274.319202 -331.905929 
L 274.369071 -334.504194 
L 274.408043 -337.102458 
L 274.445921 -339.700723 
L 274.486119 -342.298988 
L 274.526484 -344.897253 
L 274.566586 -347.495518 
L 274.602932 -350.093783 
L 274.632707 -352.692048 
L 274.653313 -355.290313 
L 274.673306 -357.888577 
L 274.701657 -360.486842 
L 274.728425 -363.085107 
L 274.752967 -365.683372 
L 274.778289 -368.281637 
L 274.797766 -370.879902 
L 274.810962 -373.478167 
L 274.825935 -376.076431 
L 274.841967 -378.674696 
L 274.853684 -381.272961 
L 274.865098 -383.871226 
L 274.880136 -386.469491 
L 274.901192 -389.067756 
L 274.91665 -391.666021 
L 274.920789 -394.264286 
L 274.923385 -396.86255 
L 274.933952 -399.460815 
L 274.939213 -402.05908 
L 274.941075 -404.657345 
L 274.949636 -407.25561 
L 274.962067 -409.853875 
L 274.971727 -412.45214 
L 274.983459 -415.050405 
L 275.024562 -417.648669 
L 275.128145 -420.246934 
L 275.419505 -420.246934 
L 275.419505 -420.246934 
L 275.523088 -417.648669 
L 275.564191 -415.050405 
L 275.575923 -412.45214 
L 275.585583 -409.853875 
L 275.598014 -407.25561 
L 275.606575 -404.657345 
L 275.608437 -402.05908 
L 275.613698 -399.460815 
L 275.624265 -396.86255 
L 275.626861 -394.264286 
L 275.631 -391.666021 
L 275.646458 -389.067756 
L 275.667514 -386.469491 
L 275.682552 -383.871226 
L 275.693966 -381.272961 
L 275.705683 -378.674696 
L 275.721715 -376.076431 
L 275.736688 -373.478167 
L 275.749884 -370.879902 
L 275.769361 -368.281637 
L 275.794683 -365.683372 
L 275.819225 -363.085107 
L 275.845993 -360.486842 
L 275.874344 -357.888577 
L 275.894337 -355.290313 
L 275.914943 -352.692048 
L 275.944718 -350.093783 
L 275.981064 -347.495518 
L 276.021166 -344.897253 
L 276.061531 -342.298988 
L 276.101729 -339.700723 
L 276.139607 -337.102458 
L 276.178579 -334.504194 
L 276.228448 -331.905929 
L 276.286647 -329.307664 
L 276.331279 -326.709399 
L 276.3773 -324.111134 
L 276.440843 -321.512869 
L 276.506605 -318.914604 
L 276.567327 -316.316339 
L 276.649481 -313.718075 
L 276.755111 -311.11981 
L 276.853092 -308.521545 
L 276.939776 -305.92328 
L 277.039505 -303.325015 
L 277.158377 -300.72675 
L 277.283601 -298.128485 
L 277.417346 -295.53022 
L 277.560145 -292.931956 
L 277.717377 -290.333691 
L 277.895674 -287.735426 
L 278.087765 -285.137161 
L 278.2876 -282.538896 
L 278.484824 -279.940631 
L 278.675787 -277.342366 
L 278.89948 -274.744102 
L 279.158339 -272.145837 
L 279.423658 -269.547572 
L 279.705286 -266.949307 
L 280.020021 -264.351042 
L 280.355543 -261.752777 
L 280.693177 -259.154512 
L 281.055809 -256.556247 
L 281.44585 -253.957983 
L 281.83605 -251.359718 
L 282.245723 -248.761453 
L 282.696013 -246.163188 
L 283.147155 -243.564923 
L 283.632921 -240.966658 
L 284.128612 -238.368393 
L 284.616175 -235.770128 
L 285.159644 -233.171864 
L 285.732699 -230.573599 
L 286.344351 -227.975334 
L 286.985151 -225.377069 
L 287.601479 -222.778804 
L 288.238578 -220.180539 
L 288.938649 -217.582274 
L 289.618014 -214.98401 
L 290.303738 -212.385745 
L 291.073713 -209.78748 
L 291.928641 -207.189215 
L 292.831973 -204.59095 
L 293.74637 -201.992685 
L 294.678693 -199.39442 
L 295.693861 -196.796155 
L 296.839317 -194.197891 
L 298.058805 -191.599626 
L 299.32087 -189.001361 
L 300.679856 -186.403096 
L 302.143439 -183.804831 
L 303.542755 -181.206566 
L 304.387723 -178.608301 
L 303.683751 -176.010036 
L 300.315122 -173.411772 
L 294.031727 -170.813507 
L 286.193725 -168.215242 
L 279.518678 -165.616977 
L 276.179317 -163.018712 
z
" style="stroke: #4d4d4d; stroke-opacity: 0.9; stroke-width: 1.25"/>
    </defs>
    <g clip-path="url(#p93e8d9d90e)">
     <use xlink:href="#m425b5dc719" x="0" y="482.741813" style="fill: #ecbd81; fill-opacity: 0.9; stroke: #4d4d4d; stroke-opacity: 0.9; stroke-width: 1.25"/>
    </g>
   </g>
   <g id="FillBetweenPolyCollection_3">
    <defs>
     <path id="md2206ad692" d="M 406.964194 -163.598017 
L 406.261056 -163.598017 
L 404.329738 -166.190449 
L 399.005145 -168.78288 
L 390.298195 -171.375312 
L 381.907803 -173.967743 
L 377.372674 -176.560175 
L 376.471234 -179.152606 
L 377.198426 -181.745038 
L 378.312699 -184.337469 
L 379.501859 -186.9299 
L 380.720466 -189.522332 
L 382.017458 -192.114763 
L 383.31694 -194.707195 
L 384.574792 -197.299626 
L 385.798895 -199.892058 
L 386.940244 -202.484489 
L 388.022447 -205.076921 
L 389.067526 -207.669352 
L 390.078802 -210.261783 
L 391.046499 -212.854215 
L 391.954908 -215.446646 
L 392.823956 -218.039078 
L 393.653568 -220.631509 
L 394.448128 -223.223941 
L 395.168135 -225.816372 
L 395.855684 -228.408804 
L 396.519954 -231.001235 
L 397.11716 -233.593667 
L 397.687278 -236.186098 
L 398.254571 -238.778529 
L 398.789429 -241.370961 
L 399.261053 -243.963392 
L 399.695396 -246.555824 
L 400.120907 -249.148255 
L 400.517603 -251.740687 
L 400.894378 -254.333118 
L 401.262094 -256.92555 
L 401.594329 -259.517981 
L 401.886098 -262.110412 
L 402.188633 -264.702844 
L 402.458389 -267.295275 
L 402.726616 -269.887707 
L 402.982758 -272.480138 
L 403.208589 -275.07257 
L 403.407859 -277.665001 
L 403.594105 -280.257433 
L 403.784048 -282.849864 
L 403.972214 -285.442295 
L 404.14284 -288.034727 
L 404.295763 -290.627158 
L 404.421855 -293.21959 
L 404.550741 -295.812021 
L 404.681904 -298.404453 
L 404.797425 -300.996884 
L 404.893775 -303.589316 
L 404.991093 -306.181747 
L 405.082406 -308.774179 
L 405.1623 -311.36661 
L 405.238147 -313.959041 
L 405.312961 -316.551473 
L 405.387138 -319.143904 
L 405.449632 -321.736336 
L 405.504467 -324.328767 
L 405.551647 -326.921199 
L 405.603347 -329.51363 
L 405.656191 -332.106062 
L 405.705166 -334.698493 
L 405.750828 -337.290924 
L 405.789829 -339.883356 
L 405.824279 -342.475787 
L 405.856032 -345.068219 
L 405.891358 -347.66065 
L 405.929369 -350.253082 
L 405.960971 -352.845513 
L 405.99044 -355.437945 
L 406.010621 -358.030376 
L 406.025504 -360.622807 
L 406.046144 -363.215239 
L 406.069288 -365.80767 
L 406.093131 -368.400102 
L 406.112332 -370.992533 
L 406.128524 -373.584965 
L 406.15222 -376.177396 
L 406.17703 -378.769828 
L 406.200523 -381.362259 
L 406.213407 -383.95469 
L 406.214468 -386.547122 
L 406.226745 -389.139553 
L 406.231633 -391.731985 
L 406.243653 -394.324416 
L 406.253664 -396.916848 
L 406.26794 -399.509279 
L 406.285255 -402.101711 
L 406.29027 -404.694142 
L 406.300057 -407.286574 
L 406.30956 -409.879005 
L 406.309447 -412.471436 
L 406.323106 -415.063868 
L 406.356479 -417.656299 
L 406.473683 -420.248731 
L 406.751567 -420.248731 
L 406.751567 -420.248731 
L 406.868771 -417.656299 
L 406.902144 -415.063868 
L 406.915803 -412.471436 
L 406.91569 -409.879005 
L 406.925193 -407.286574 
L 406.93498 -404.694142 
L 406.939995 -402.101711 
L 406.95731 -399.509279 
L 406.971586 -396.916848 
L 406.981597 -394.324416 
L 406.993617 -391.731985 
L 406.998505 -389.139553 
L 407.010782 -386.547122 
L 407.011843 -383.95469 
L 407.024727 -381.362259 
L 407.04822 -378.769828 
L 407.07303 -376.177396 
L 407.096726 -373.584965 
L 407.112918 -370.992533 
L 407.132119 -368.400102 
L 407.155962 -365.80767 
L 407.179106 -363.215239 
L 407.199746 -360.622807 
L 407.214629 -358.030376 
L 407.23481 -355.437945 
L 407.264279 -352.845513 
L 407.295881 -350.253082 
L 407.333892 -347.66065 
L 407.369218 -345.068219 
L 407.400971 -342.475787 
L 407.435421 -339.883356 
L 407.474422 -337.290924 
L 407.520084 -334.698493 
L 407.569059 -332.106062 
L 407.621903 -329.51363 
L 407.673603 -326.921199 
L 407.720783 -324.328767 
L 407.775618 -321.736336 
L 407.838112 -319.143904 
L 407.912289 -316.551473 
L 407.987103 -313.959041 
L 408.06295 -311.36661 
L 408.142844 -308.774179 
L 408.234157 -306.181747 
L 408.331475 -303.589316 
L 408.427825 -300.996884 
L 408.543346 -298.404453 
L 408.674509 -295.812021 
L 408.803395 -293.21959 
L 408.929487 -290.627158 
L 409.08241 -288.034727 
L 409.253036 -285.442295 
L 409.441202 -282.849864 
L 409.631145 -280.257433 
L 409.817391 -277.665001 
L 410.016661 -275.07257 
L 410.242492 -272.480138 
L 410.498634 -269.887707 
L 410.766861 -267.295275 
L 411.036617 -264.702844 
L 411.339152 -262.110412 
L 411.630921 -259.517981 
L 411.963156 -256.92555 
L 412.330872 -254.333118 
L 412.707647 -251.740687 
L 413.104343 -249.148255 
L 413.529854 -246.555824 
L 413.964197 -243.963392 
L 414.435821 -241.370961 
L 414.970679 -238.778529 
L 415.537972 -236.186098 
L 416.10809 -233.593667 
L 416.705296 -231.001235 
L 417.369566 -228.408804 
L 418.057115 -225.816372 
L 418.777122 -223.223941 
L 419.571682 -220.631509 
L 420.401294 -218.039078 
L 421.270342 -215.446646 
L 422.178751 -212.854215 
L 423.146448 -210.261783 
L 424.157724 -207.669352 
L 425.202803 -205.076921 
L 426.285006 -202.484489 
L 427.426355 -199.892058 
L 428.650458 -197.299626 
L 429.90831 -194.707195 
L 431.207792 -192.114763 
L 432.504784 -189.522332 
L 433.723391 -186.9299 
L 434.912551 -184.337469 
L 436.026824 -181.745038 
L 436.754016 -179.152606 
L 435.852576 -176.560175 
L 431.317447 -173.967743 
L 422.927055 -171.375312 
L 414.220105 -168.78288 
L 408.895512 -166.190449 
L 406.964194 -163.598017 
z
" style="stroke: #4d4d4d; stroke-opacity: 0.9; stroke-width: 1.25"/>
    </defs>
    <g clip-path="url(#p93e8d9d90e)">
     <use xlink:href="#md2206ad692" x="0" y="482.741813" style="fill: #f7f7c6; fill-opacity: 0.9; stroke: #4d4d4d; stroke-opacity: 0.9; stroke-width: 1.25"/>
    </g>
   </g>
   <g id="FillBetweenPolyCollection_4">
    <defs>
     <path id="meb5b8d49f4" d="M 539.634605 -163.857459 
L 536.268245 -163.857459 
L 533.00588 -166.447275 
L 527.051116 -169.037091 
L 519.371985 -171.626907 
L 512.476577 -174.216722 
L 508.289825 -176.806538 
L 506.891911 -179.396354 
L 507.296988 -181.98617 
L 508.57307 -184.575986 
L 510.170667 -187.165801 
L 511.798238 -189.755617 
L 513.34614 -192.345433 
L 514.851365 -194.935249 
L 516.378776 -197.525065 
L 517.905882 -200.11488 
L 519.331331 -202.704696 
L 520.608708 -205.294512 
L 521.792608 -207.884328 
L 522.908125 -210.474143 
L 523.929555 -213.063959 
L 524.875791 -215.653775 
L 525.761735 -218.243591 
L 526.551496 -220.833407 
L 527.252943 -223.423222 
L 527.922554 -226.013038 
L 528.561743 -228.602854 
L 529.152065 -231.19267 
L 529.710299 -233.782486 
L 530.235136 -236.372301 
L 530.706711 -238.962117 
L 531.124078 -241.551933 
L 531.501696 -244.141749 
L 531.864105 -246.731565 
L 532.228261 -249.32138 
L 532.586597 -251.911196 
L 532.913316 -254.501012 
L 533.189794 -257.090828 
L 533.437962 -259.680643 
L 533.684096 -262.270459 
L 533.913068 -264.860275 
L 534.110783 -267.450091 
L 534.291264 -270.039907 
L 534.467799 -272.629722 
L 534.642803 -275.219538 
L 534.811596 -277.809354 
L 534.96321 -280.39917 
L 535.098653 -282.988986 
L 535.232442 -285.578801 
L 535.367315 -288.168617 
L 535.497105 -290.758433 
L 535.618014 -293.348249 
L 535.726263 -295.938065 
L 535.82402 -298.52788 
L 535.917322 -301.117696 
L 536.002791 -303.707512 
L 536.076146 -306.297328 
L 536.144053 -308.887143 
L 536.214873 -311.476959 
L 536.286563 -314.066775 
L 536.350006 -316.656591 
L 536.40438 -319.246407 
L 536.453939 -321.836222 
L 536.503344 -324.426038 
L 536.562715 -327.015854 
L 536.633032 -329.60567 
L 536.700107 -332.195486 
L 536.749881 -334.785301 
L 536.778261 -337.375117 
L 536.798277 -339.964933 
L 536.827045 -342.554749 
L 536.86496 -345.144565 
L 536.896218 -347.73438 
L 536.916166 -350.324196 
L 536.942713 -352.914012 
L 536.980857 -355.503828 
L 537.016538 -358.093643 
L 537.041226 -360.683459 
L 537.059388 -363.273275 
L 537.081224 -365.863091 
L 537.108665 -368.452907 
L 537.13493 -371.042722 
L 537.155872 -373.632538 
L 537.174236 -376.222354 
L 537.194839 -378.81217 
L 537.217386 -381.401986 
L 537.236089 -383.991801 
L 537.248735 -386.581617 
L 537.263224 -389.171433 
L 537.283619 -391.761249 
L 537.302428 -394.351065 
L 537.313405 -396.94088 
L 537.316329 -399.530696 
L 537.319618 -402.120512 
L 537.334223 -404.710328 
L 537.358599 -407.300143 
L 537.379825 -409.889959 
L 537.39359 -412.479775 
L 537.422803 -415.069591 
L 537.515433 -417.659407 
L 537.679376 -420.249222 
L 538.223474 -420.249222 
L 538.223474 -420.249222 
L 538.387417 -417.659407 
L 538.480047 -415.069591 
L 538.50926 -412.479775 
L 538.523025 -409.889959 
L 538.544251 -407.300143 
L 538.568627 -404.710328 
L 538.583232 -402.120512 
L 538.586521 -399.530696 
L 538.589445 -396.94088 
L 538.600422 -394.351065 
L 538.619231 -391.761249 
L 538.639626 -389.171433 
L 538.654115 -386.581617 
L 538.666761 -383.991801 
L 538.685464 -381.401986 
L 538.708011 -378.81217 
L 538.728614 -376.222354 
L 538.746978 -373.632538 
L 538.76792 -371.042722 
L 538.794185 -368.452907 
L 538.821626 -365.863091 
L 538.843462 -363.273275 
L 538.861624 -360.683459 
L 538.886312 -358.093643 
L 538.921993 -355.503828 
L 538.960137 -352.914012 
L 538.986684 -350.324196 
L 539.006632 -347.73438 
L 539.03789 -345.144565 
L 539.075805 -342.554749 
L 539.104573 -339.964933 
L 539.124589 -337.375117 
L 539.152969 -334.785301 
L 539.202743 -332.195486 
L 539.269818 -329.60567 
L 539.340135 -327.015854 
L 539.399506 -324.426038 
L 539.448911 -321.836222 
L 539.49847 -319.246407 
L 539.552844 -316.656591 
L 539.616287 -314.066775 
L 539.687977 -311.476959 
L 539.758797 -308.887143 
L 539.826704 -306.297328 
L 539.900059 -303.707512 
L 539.985528 -301.117696 
L 540.07883 -298.52788 
L 540.176587 -295.938065 
L 540.284836 -293.348249 
L 540.405745 -290.758433 
L 540.535535 -288.168617 
L 540.670408 -285.578801 
L 540.804197 -282.988986 
L 540.93964 -280.39917 
L 541.091254 -277.809354 
L 541.260047 -275.219538 
L 541.435051 -272.629722 
L 541.611586 -270.039907 
L 541.792067 -267.450091 
L 541.989782 -264.860275 
L 542.218754 -262.270459 
L 542.464888 -259.680643 
L 542.713056 -257.090828 
L 542.989534 -254.501012 
L 543.316253 -251.911196 
L 543.674589 -249.32138 
L 544.038745 -246.731565 
L 544.401154 -244.141749 
L 544.778772 -241.551933 
L 545.196139 -238.962117 
L 545.667714 -236.372301 
L 546.192551 -233.782486 
L 546.750785 -231.19267 
L 547.341107 -228.602854 
L 547.980296 -226.013038 
L 548.649907 -223.423222 
L 549.351354 -220.833407 
L 550.141115 -218.243591 
L 551.027059 -215.653775 
L 551.973295 -213.063959 
L 552.994725 -210.474143 
L 554.110242 -207.884328 
L 555.294142 -205.294512 
L 556.571519 -202.704696 
L 557.996968 -200.11488 
L 559.524074 -197.525065 
L 561.051485 -194.935249 
L 562.55671 -192.345433 
L 564.104612 -189.755617 
L 565.732183 -187.165801 
L 567.32978 -184.575986 
L 568.605862 -181.98617 
L 569.010939 -179.396354 
L 567.613025 -176.806538 
L 563.426273 -174.216722 
L 556.530865 -171.626907 
L 548.851734 -169.037091 
L 542.89697 -166.447275 
L 539.634605 -163.857459 
z
" style="stroke: #4d4d4d; stroke-opacity: 0.9; stroke-width: 1.25"/>
    </defs>
    <g clip-path="url(#p93e8d9d90e)">
     <use xlink:href="#meb5b8d49f4" x="0" y="482.741813" style="fill: #c0dca9; fill-opacity: 0.9; stroke: #4d4d4d; stroke-opacity: 0.9; stroke-width: 1.25"/>
    </g>
   </g>
   <g id="FillBetweenPolyCollection_5">
    <defs>
     <path id="m48a3f79e99" d="M 675.461374 -163.885145 
L 663.119076 -163.885145 
L 651.080441 -166.453954 
L 635.513834 -169.022764 
L 623.925352 -171.591573 
L 618.235269 -174.160382 
L 616.754705 -176.729192 
L 618.662471 -179.298001 
L 622.66477 -181.86681 
L 627.226959 -184.435619 
L 631.643525 -187.004429 
L 635.791996 -189.573238 
L 639.883389 -192.142047 
L 643.901526 -194.710856 
L 647.337114 -197.279666 
L 650.160998 -199.848475 
L 652.644024 -202.417284 
L 654.863857 -204.986093 
L 656.696628 -207.554903 
L 658.271567 -210.123712 
L 659.629997 -212.692521 
L 660.727955 -215.26133 
L 661.855987 -217.83014 
L 662.98129 -220.398949 
L 663.809753 -222.967758 
L 664.362787 -225.536568 
L 664.917096 -228.105377 
L 665.547452 -230.674186 
L 666.050286 -233.242995 
L 666.407391 -235.811805 
L 666.675851 -238.380614 
L 666.927627 -240.949423 
L 667.261038 -243.518232 
L 667.535914 -246.087042 
L 667.661844 -248.655851 
L 667.753446 -251.22466 
L 667.895846 -253.793469 
L 668.037536 -256.362279 
L 668.138869 -258.931088 
L 668.269902 -261.499897 
L 668.417108 -264.068706 
L 668.533732 -266.637516 
L 668.619322 -269.206325 
L 668.705198 -271.775134 
L 668.789231 -274.343944 
L 668.863293 -276.912753 
L 668.942244 -279.481562 
L 668.984814 -282.050371 
L 668.971553 -284.619181 
L 668.956748 -287.18799 
L 668.993017 -289.756799 
L 669.055932 -292.325608 
L 669.083543 -294.894418 
L 669.066005 -297.463227 
L 669.079528 -300.032036 
L 669.117332 -302.600845 
L 669.144875 -305.169655 
L 669.187685 -307.738464 
L 669.218655 -310.307273 
L 669.215709 -312.876082 
L 669.202547 -315.444892 
L 669.207058 -318.013701 
L 669.232567 -320.58251 
L 669.252202 -323.15132 
L 669.254878 -325.720129 
L 669.252669 -328.288938 
L 669.258608 -330.857747 
L 669.264047 -333.426557 
L 669.263885 -335.995366 
L 669.270989 -338.564175 
L 669.281024 -341.132984 
L 669.279139 -343.701794 
L 669.267995 -346.270603 
L 669.261511 -348.839412 
L 669.259711 -351.408221 
L 669.260911 -353.977031 
L 669.268281 -356.54584 
L 669.279879 -359.114649 
L 669.287039 -361.683458 
L 669.286087 -364.252268 
L 669.281292 -366.821077 
L 669.281585 -369.389886 
L 669.286453 -371.958696 
L 669.28745 -374.527505 
L 669.28307 -377.096314 
L 669.280526 -379.665123 
L 669.284691 -382.233933 
L 669.288898 -384.802742 
L 669.289976 -387.371551 
L 669.289007 -389.94036 
L 669.284943 -392.50917 
L 669.28059 -395.077979 
L 669.282807 -397.646788 
L 669.28707 -400.215597 
L 669.285617 -402.784407 
L 669.279883 -405.353216 
L 669.276633 -407.922025 
L 669.277215 -410.490834 
L 669.280593 -413.059644 
L 669.281473 -415.628453 
L 669.280116 -418.197262 
L 669.300334 -418.197262 
L 669.300334 -418.197262 
L 669.298977 -415.628453 
L 669.299857 -413.059644 
L 669.303235 -410.490834 
L 669.303817 -407.922025 
L 669.300567 -405.353216 
L 669.294833 -402.784407 
L 669.29338 -400.215597 
L 669.297643 -397.646788 
L 669.29986 -395.077979 
L 669.295507 -392.50917 
L 669.291443 -389.94036 
L 669.290474 -387.371551 
L 669.291552 -384.802742 
L 669.295759 -382.233933 
L 669.299924 -379.665123 
L 669.29738 -377.096314 
L 669.293 -374.527505 
L 669.293997 -371.958696 
L 669.298865 -369.389886 
L 669.299158 -366.821077 
L 669.294363 -364.252268 
L 669.293411 -361.683458 
L 669.300571 -359.114649 
L 669.312169 -356.54584 
L 669.319539 -353.977031 
L 669.320739 -351.408221 
L 669.318939 -348.839412 
L 669.312455 -346.270603 
L 669.301311 -343.701794 
L 669.299426 -341.132984 
L 669.309461 -338.564175 
L 669.316565 -335.995366 
L 669.316403 -333.426557 
L 669.321842 -330.857747 
L 669.327781 -328.288938 
L 669.325572 -325.720129 
L 669.328248 -323.15132 
L 669.347883 -320.58251 
L 669.373392 -318.013701 
L 669.377903 -315.444892 
L 669.364741 -312.876082 
L 669.361795 -310.307273 
L 669.392765 -307.738464 
L 669.435575 -305.169655 
L 669.463118 -302.600845 
L 669.500922 -300.032036 
L 669.514445 -297.463227 
L 669.496907 -294.894418 
L 669.524518 -292.325608 
L 669.587433 -289.756799 
L 669.623702 -287.18799 
L 669.608897 -284.619181 
L 669.595636 -282.050371 
L 669.638206 -279.481562 
L 669.717157 -276.912753 
L 669.791219 -274.343944 
L 669.875252 -271.775134 
L 669.961128 -269.206325 
L 670.046718 -266.637516 
L 670.163342 -264.068706 
L 670.310548 -261.499897 
L 670.441581 -258.931088 
L 670.542914 -256.362279 
L 670.684604 -253.793469 
L 670.827004 -251.22466 
L 670.918606 -248.655851 
L 671.044536 -246.087042 
L 671.319412 -243.518232 
L 671.652823 -240.949423 
L 671.904599 -238.380614 
L 672.173059 -235.811805 
L 672.530164 -233.242995 
L 673.032998 -230.674186 
L 673.663354 -228.105377 
L 674.217663 -225.536568 
L 674.770697 -222.967758 
L 675.59916 -220.398949 
L 676.724463 -217.83014 
L 677.852495 -215.26133 
L 678.950453 -212.692521 
L 680.308883 -210.123712 
L 681.883822 -207.554903 
L 683.716593 -204.986093 
L 685.936426 -202.417284 
L 688.419452 -199.848475 
L 691.243336 -197.279666 
L 694.678924 -194.710856 
L 698.697061 -192.142047 
L 702.788454 -189.573238 
L 706.936925 -187.004429 
L 711.353491 -184.435619 
L 715.91568 -181.86681 
L 719.917979 -179.298001 
L 721.825745 -176.729192 
L 720.345181 -174.160382 
L 714.655098 -171.591573 
L 703.066616 -169.022764 
L 687.500009 -166.453954 
L 675.461374 -163.885145 
z
" style="stroke: #4d4d4d; stroke-opacity: 0.9; stroke-width: 1.25"/>
    </defs>
    <g clip-path="url(#p93e8d9d90e)">
     <use xlink:href="#m48a3f79e99" x="0" y="482.741813" style="fill: #5fa2a2; fill-opacity: 0.9; stroke: #4d4d4d; stroke-opacity: 0.9; stroke-width: 1.25"/>
    </g>
   </g>
   <g id="line2d_10">
    <path d="M 143.935025 320.292256 
L 143.935025 150.203418 
" clip-path="url(#p93e8d9d90e)" style="fill: none; stroke: #4d4d4d; stroke-width: 1.875; stroke-linecap: round"/>
   </g>
   <g id="line2d_11">
    <path d="M 143.935025 285.273664 
L 143.935025 231.245525 
" clip-path="url(#p93e8d9d90e)" style="fill: none; stroke: #4d4d4d; stroke-width: 5.625; stroke-linecap: round"/>
   </g>
   <g id="line2d_12">
    <path d="M 143.935025 263.978367 
" clip-path="url(#p93e8d9d90e)" style="fill: none; stroke: #4d4d4d; stroke-width: 1.5; stroke-linecap: round"/>
    <defs>
     <path id="mc7d4c46151" d="M 2.34375 0 
L -2.34375 -0 
" style="stroke: #ffffff; stroke-width: 1.125"/>
    </defs>
    <g clip-path="url(#p93e8d9d90e)">
     <use xlink:href="#mc7d4c46151" x="143.935025" y="263.978367" style="fill: #ffffff; stroke: #ffffff; stroke-width: 1.125"/>
    </g>
   </g>
   <g id="line2d_13">
    <path d="M 275.273825 319.7231 
L 275.273825 175.144991 
" clip-path="url(#p93e8d9d90e)" style="fill: none; stroke: #4d4d4d; stroke-width: 1.875; stroke-linecap: round"/>
   </g>
   <g id="line2d_14">
    <path d="M 275.273825 298.86058 
L 275.273825 249.374337 
" clip-path="url(#p93e8d9d90e)" style="fill: none; stroke: #4d4d4d; stroke-width: 5.625; stroke-linecap: round"/>
   </g>
   <g id="line2d_15">
    <path d="M 275.273825 279.956831 
" clip-path="url(#p93e8d9d90e)" style="fill: none; stroke: #4d4d4d; stroke-width: 1.5; stroke-linecap: round"/>
    <g clip-path="url(#p93e8d9d90e)">
     <use xlink:href="#mc7d4c46151" x="275.273825" y="279.956831" style="fill: #ffffff; stroke: #ffffff; stroke-width: 1.125"/>
    </g>
   </g>
   <g id="line2d_16">
    <path d="M 406.612625 319.143795 
L 406.612625 181.143843 
" clip-path="url(#p93e8d9d90e)" style="fill: none; stroke: #4d4d4d; stroke-width: 1.875; stroke-linecap: round"/>
   </g>
   <g id="line2d_17">
    <path d="M 406.612625 297.809556 
L 406.612625 251.143207 
" clip-path="url(#p93e8d9d90e)" style="fill: none; stroke: #4d4d4d; stroke-width: 5.625; stroke-linecap: round"/>
   </g>
   <g id="line2d_18">
    <path d="M 406.612625 280.272402 
" clip-path="url(#p93e8d9d90e)" style="fill: none; stroke: #4d4d4d; stroke-width: 1.5; stroke-linecap: round"/>
    <g clip-path="url(#p93e8d9d90e)">
     <use xlink:href="#mc7d4c46151" x="406.612625" y="280.272402" style="fill: #ffffff; stroke: #ffffff; stroke-width: 1.125"/>
    </g>
   </g>
   <g id="line2d_19">
    <path d="M 537.951425 318.884353 
L 537.951425 176.843484 
" clip-path="url(#p93e8d9d90e)" style="fill: none; stroke: #4d4d4d; stroke-width: 1.875; stroke-linecap: round"/>
   </g>
   <g id="line2d_20">
    <path d="M 537.951425 298.891433 
L 537.951425 250.072236 
" clip-path="url(#p93e8d9d90e)" style="fill: none; stroke: #4d4d4d; stroke-width: 5.625; stroke-linecap: round"/>
   </g>
   <g id="line2d_21">
    <path d="M 537.951425 281.955191 
" clip-path="url(#p93e8d9d90e)" style="fill: none; stroke: #4d4d4d; stroke-width: 1.5; stroke-linecap: round"/>
    <g clip-path="url(#p93e8d9d90e)">
     <use xlink:href="#mc7d4c46151" x="537.951425" y="281.955191" style="fill: #ffffff; stroke: #ffffff; stroke-width: 1.125"/>
    </g>
   </g>
   <g id="line2d_22">
    <path d="M 669.290225 318.856667 
L 669.290225 252.945595 
" clip-path="url(#p93e8d9d90e)" style="fill: none; stroke: #4d4d4d; stroke-width: 1.875; stroke-linecap: round"/>
   </g>
   <g id="line2d_23">
    <path d="M 669.290225 306.914687 
L 669.290225 285.318838 
" clip-path="url(#p93e8d9d90e)" style="fill: none; stroke: #4d4d4d; stroke-width: 5.625; stroke-linecap: round"/>
   </g>
   <g id="line2d_24">
    <path d="M 669.290225 298.580435 
" clip-path="url(#p93e8d9d90e)" style="fill: none; stroke: #4d4d4d; stroke-width: 1.5; stroke-linecap: round"/>
    <g clip-path="url(#p93e8d9d90e)">
     <use xlink:href="#mc7d4c46151" x="669.290225" y="298.580435" style="fill: #ffffff; stroke: #ffffff; stroke-width: 1.125"/>
    </g>
   </g>
   <g id="patch_3">
    <path d="M 78.265625 333.182438 
L 78.265625 49.598438 
" style="fill: none; stroke: #cccccc; stroke-width: 1.25; stroke-linejoin: miter; stroke-linecap: square"/>
   </g>
   <g id="patch_4">
    <path d="M 734.959625 333.182438 
L 734.959625 49.598438 
" style="fill: none; stroke: #cccccc; stroke-width: 1.25; stroke-linejoin: miter; stroke-linecap: square"/>
   </g>
   <g id="patch_5">
    <path d="M 78.265625 333.182437 
L 734.959625 333.182437 
" style="fill: none; stroke: #cccccc; stroke-width: 1.25; stroke-linejoin: miter; stroke-linecap: square"/>
   </g>
   <g id="patch_6">
    <path d="M 78.265625 49.598438 
L 734.959625 49.598438 
" style="fill: none; stroke: #cccccc; stroke-width: 1.25; stroke-linejoin: miter; stroke-linecap: square"/>
   </g>
   <g id="text_17">
    <text style="font-size: 10px; font-family: 'Arial', 'DejaVu Sans', 'Liberation Sans', 'Bitstream Vera Sans', sans-serif; text-anchor: middle; fill: #262626" x="406.612625" y="43.598438" transform="rotate(-0 406.612625 43.598438)">Violin Plot of distances by Level One Cell Type (Density Normalization: area)</text>
   </g>
   <g id="legend_1">
    <g id="patch_7">
     <path d="M 723.959625 62.598438 
L 727.959625 62.598438 
Q 729.959625 62.598438 729.959625 60.598438 
L 729.959625 56.598438 
Q 729.959625 54.598438 727.959625 54.598438 
L 723.959625 54.598438 
Q 721.959625 54.598438 721.959625 56.598438 
L 721.959625 60.598438 
Q 721.959625 62.598438 723.959625 62.598438 
z
" style="fill: #ffffff; opacity: 0.8; stroke: #cccccc; stroke-width: 0.8; stroke-linejoin: miter"/>
    </g>
   </g>
  </g>
 </g>
 <defs>
  <clipPath id="p93e8d9d90e">
   <rect x="78.265625" y="49.598438" width="656.694" height="283.584"/>
  </clipPath>
 </defs>
</svg>
