<?xml version="1.0" encoding="utf-8" standalone="no"?>
<!DOCTYPE svg PUBLIC "-//W3C//DTD SVG 1.1//EN"
  "http://www.w3.org/Graphics/SVG/1.1/DTD/svg11.dtd">
<svg xmlns:xlink="http://www.w3.org/1999/xlink" width="1139.831225pt" height="770.741813pt" viewBox="0 0 1139.831225 770.741813" xmlns="http://www.w3.org/2000/svg" version="1.1">
 <metadata>
  <rdf:RDF xmlns:dc="http://purl.org/dc/elements/1.1/" xmlns:cc="http://creativecommons.org/ns#" xmlns:rdf="http://www.w3.org/1999/02/22-rdf-syntax-ns#">
   <cc:Work>
    <dc:type rdf:resource="http://purl.org/dc/dcmitype/StillImage"/>
    <dc:date>2025-07-01T16:55:46.793993</dc:date>
    <dc:format>image/svg+xml</dc:format>
    <dc:creator>
     <cc:Agent>
      <dc:title>Matplotlib v3.10.3, https://matplotlib.org/</dc:title>
     </cc:Agent>
    </dc:creator>
   </cc:Work>
  </rdf:RDF>
 </metadata>
 <defs>
  <style type="text/css">*{stroke-linejoin: round; stroke-linecap: butt}</style>
 </defs>
 <g id="figure_1">
  <g id="patch_1">
   <path d="M 0 770.741813 
L 1139.831225 770.741813 
L 1139.831225 0 
L 0 0 
z
" style="fill: #ffffff"/>
  </g>
  <g id="axes_1">
   <g id="patch_2">
    <path d="M 78.265625 621.182437 
L 974.409625 621.182437 
L 974.409625 49.598438 
L 78.265625 49.598438 
z
" style="fill: #ffffff"/>
   </g>
   <g id="matplotlib.axis_1">
    <g id="xtick_1">
     <g id="text_1">
      <!-- epithelial cell -->
      <g style="fill: #262626" transform="translate(170.6394 697.2215) rotate(-90) scale(0.1 -0.1)">
       <defs>
        <path id="DejaVuSans-65" d="M 3597 1894 
L 3597 1613 
L 953 1613 
Q 991 1019 1311 708 
Q 1631 397 2203 397 
Q 2534 397 2845 478 
Q 3156 559 3463 722 
L 3463 178 
Q 3153 47 2828 -22 
Q 2503 -91 2169 -91 
Q 1331 -91 842 396 
Q 353 884 353 1716 
Q 353 2575 817 3079 
Q 1281 3584 2069 3584 
Q 2775 3584 3186 3129 
Q 3597 2675 3597 1894 
z
M 3022 2063 
Q 3016 2534 2758 2815 
Q 2500 3097 2075 3097 
Q 1594 3097 1305 2825 
Q 1016 2553 972 2059 
L 3022 2063 
z
" transform="scale(0.015625)"/>
        <path id="DejaVuSans-70" d="M 1159 525 
L 1159 -1331 
L 581 -1331 
L 581 3500 
L 1159 3500 
L 1159 2969 
Q 1341 3281 1617 3432 
Q 1894 3584 2278 3584 
Q 2916 3584 3314 3078 
Q 3713 2572 3713 1747 
Q 3713 922 3314 415 
Q 2916 -91 2278 -91 
Q 1894 -91 1617 61 
Q 1341 213 1159 525 
z
M 3116 1747 
Q 3116 2381 2855 2742 
Q 2594 3103 2138 3103 
Q 1681 3103 1420 2742 
Q 1159 2381 1159 1747 
Q 1159 1113 1420 752 
Q 1681 391 2138 391 
Q 2594 391 2855 752 
Q 3116 1113 3116 1747 
z
" transform="scale(0.015625)"/>
        <path id="DejaVuSans-69" d="M 603 3500 
L 1178 3500 
L 1178 0 
L 603 0 
L 603 3500 
z
M 603 4863 
L 1178 4863 
L 1178 4134 
L 603 4134 
L 603 4863 
z
" transform="scale(0.015625)"/>
        <path id="DejaVuSans-74" d="M 1172 4494 
L 1172 3500 
L 2356 3500 
L 2356 3053 
L 1172 3053 
L 1172 1153 
Q 1172 725 1289 603 
Q 1406 481 1766 481 
L 2356 481 
L 2356 0 
L 1766 0 
Q 1100 0 847 248 
Q 594 497 594 1153 
L 594 3053 
L 172 3053 
L 172 3500 
L 594 3500 
L 594 4494 
L 1172 4494 
z
" transform="scale(0.015625)"/>
        <path id="DejaVuSans-68" d="M 3513 2113 
L 3513 0 
L 2938 0 
L 2938 2094 
Q 2938 2591 2744 2837 
Q 2550 3084 2163 3084 
Q 1697 3084 1428 2787 
Q 1159 2491 1159 1978 
L 1159 0 
L 581 0 
L 581 4863 
L 1159 4863 
L 1159 2956 
Q 1366 3272 1645 3428 
Q 1925 3584 2291 3584 
Q 2894 3584 3203 3211 
Q 3513 2838 3513 2113 
z
" transform="scale(0.015625)"/>
        <path id="DejaVuSans-6c" d="M 603 4863 
L 1178 4863 
L 1178 0 
L 603 0 
L 603 4863 
z
" transform="scale(0.015625)"/>
        <path id="DejaVuSans-61" d="M 2194 1759 
Q 1497 1759 1228 1600 
Q 959 1441 959 1056 
Q 959 750 1161 570 
Q 1363 391 1709 391 
Q 2188 391 2477 730 
Q 2766 1069 2766 1631 
L 2766 1759 
L 2194 1759 
z
M 3341 1997 
L 3341 0 
L 2766 0 
L 2766 531 
Q 2569 213 2275 61 
Q 1981 -91 1556 -91 
Q 1019 -91 701 211 
Q 384 513 384 1019 
Q 384 1609 779 1909 
Q 1175 2209 1959 2209 
L 2766 2209 
L 2766 2266 
Q 2766 2663 2505 2880 
Q 2244 3097 1772 3097 
Q 1472 3097 1187 3025 
Q 903 2953 641 2809 
L 641 3341 
Q 956 3463 1253 3523 
Q 1550 3584 1831 3584 
Q 2591 3584 2966 3190 
Q 3341 2797 3341 1997 
z
" transform="scale(0.015625)"/>
        <path id="DejaVuSans-20" transform="scale(0.015625)"/>
        <path id="DejaVuSans-63" d="M 3122 3366 
L 3122 2828 
Q 2878 2963 2633 3030 
Q 2388 3097 2138 3097 
Q 1578 3097 1268 2742 
Q 959 2388 959 1747 
Q 959 1106 1268 751 
Q 1578 397 2138 397 
Q 2388 397 2633 464 
Q 2878 531 3122 666 
L 3122 134 
Q 2881 22 2623 -34 
Q 2366 -91 2075 -91 
Q 1284 -91 818 406 
Q 353 903 353 1747 
Q 353 2603 823 3093 
Q 1294 3584 2113 3584 
Q 2378 3584 2631 3529 
Q 2884 3475 3122 3366 
z
" transform="scale(0.015625)"/>
       </defs>
       <use xlink:href="#DejaVuSans-65"/>
       <use xlink:href="#DejaVuSans-70" transform="translate(61.523438 0)"/>
       <use xlink:href="#DejaVuSans-69" transform="translate(125 0)"/>
       <use xlink:href="#DejaVuSans-74" transform="translate(152.783203 0)"/>
       <use xlink:href="#DejaVuSans-68" transform="translate(191.992188 0)"/>
       <use xlink:href="#DejaVuSans-65" transform="translate(255.371094 0)"/>
       <use xlink:href="#DejaVuSans-6c" transform="translate(316.894531 0)"/>
       <use xlink:href="#DejaVuSans-69" transform="translate(344.677734 0)"/>
       <use xlink:href="#DejaVuSans-61" transform="translate(372.460938 0)"/>
       <use xlink:href="#DejaVuSans-6c" transform="translate(433.740234 0)"/>
       <use xlink:href="#DejaVuSans-20" transform="translate(461.523438 0)"/>
       <use xlink:href="#DejaVuSans-63" transform="translate(493.310547 0)"/>
       <use xlink:href="#DejaVuSans-65" transform="translate(548.291016 0)"/>
       <use xlink:href="#DejaVuSans-6c" transform="translate(609.814453 0)"/>
       <use xlink:href="#DejaVuSans-6c" transform="translate(637.597656 0)"/>
      </g>
     </g>
    </g>
    <g id="xtick_2">
     <g id="text_2">
      <!-- mesenchymal cell -->
      <g style="fill: #262626" transform="translate(349.8682 721.063688) rotate(-90) scale(0.1 -0.1)">
       <defs>
        <path id="DejaVuSans-6d" d="M 3328 2828 
Q 3544 3216 3844 3400 
Q 4144 3584 4550 3584 
Q 5097 3584 5394 3201 
Q 5691 2819 5691 2113 
L 5691 0 
L 5113 0 
L 5113 2094 
Q 5113 2597 4934 2840 
Q 4756 3084 4391 3084 
Q 3944 3084 3684 2787 
Q 3425 2491 3425 1978 
L 3425 0 
L 2847 0 
L 2847 2094 
Q 2847 2600 2669 2842 
Q 2491 3084 2119 3084 
Q 1678 3084 1418 2786 
Q 1159 2488 1159 1978 
L 1159 0 
L 581 0 
L 581 3500 
L 1159 3500 
L 1159 2956 
Q 1356 3278 1631 3431 
Q 1906 3584 2284 3584 
Q 2666 3584 2933 3390 
Q 3200 3197 3328 2828 
z
" transform="scale(0.015625)"/>
        <path id="DejaVuSans-73" d="M 2834 3397 
L 2834 2853 
Q 2591 2978 2328 3040 
Q 2066 3103 1784 3103 
Q 1356 3103 1142 2972 
Q 928 2841 928 2578 
Q 928 2378 1081 2264 
Q 1234 2150 1697 2047 
L 1894 2003 
Q 2506 1872 2764 1633 
Q 3022 1394 3022 966 
Q 3022 478 2636 193 
Q 2250 -91 1575 -91 
Q 1294 -91 989 -36 
Q 684 19 347 128 
L 347 722 
Q 666 556 975 473 
Q 1284 391 1588 391 
Q 1994 391 2212 530 
Q 2431 669 2431 922 
Q 2431 1156 2273 1281 
Q 2116 1406 1581 1522 
L 1381 1569 
Q 847 1681 609 1914 
Q 372 2147 372 2553 
Q 372 3047 722 3315 
Q 1072 3584 1716 3584 
Q 2034 3584 2315 3537 
Q 2597 3491 2834 3397 
z
" transform="scale(0.015625)"/>
        <path id="DejaVuSans-6e" d="M 3513 2113 
L 3513 0 
L 2938 0 
L 2938 2094 
Q 2938 2591 2744 2837 
Q 2550 3084 2163 3084 
Q 1697 3084 1428 2787 
Q 1159 2491 1159 1978 
L 1159 0 
L 581 0 
L 581 3500 
L 1159 3500 
L 1159 2956 
Q 1366 3272 1645 3428 
Q 1925 3584 2291 3584 
Q 2894 3584 3203 3211 
Q 3513 2838 3513 2113 
z
" transform="scale(0.015625)"/>
        <path id="DejaVuSans-79" d="M 2059 -325 
Q 1816 -950 1584 -1140 
Q 1353 -1331 966 -1331 
L 506 -1331 
L 506 -850 
L 844 -850 
Q 1081 -850 1212 -737 
Q 1344 -625 1503 -206 
L 1606 56 
L 191 3500 
L 800 3500 
L 1894 763 
L 2988 3500 
L 3597 3500 
L 2059 -325 
z
" transform="scale(0.015625)"/>
       </defs>
       <use xlink:href="#DejaVuSans-6d"/>
       <use xlink:href="#DejaVuSans-65" transform="translate(97.412109 0)"/>
       <use xlink:href="#DejaVuSans-73" transform="translate(158.935547 0)"/>
       <use xlink:href="#DejaVuSans-65" transform="translate(211.035156 0)"/>
       <use xlink:href="#DejaVuSans-6e" transform="translate(272.558594 0)"/>
       <use xlink:href="#DejaVuSans-63" transform="translate(335.9375 0)"/>
       <use xlink:href="#DejaVuSans-68" transform="translate(390.917969 0)"/>
       <use xlink:href="#DejaVuSans-79" transform="translate(454.296875 0)"/>
       <use xlink:href="#DejaVuSans-6d" transform="translate(513.476562 0)"/>
       <use xlink:href="#DejaVuSans-61" transform="translate(610.888672 0)"/>
       <use xlink:href="#DejaVuSans-6c" transform="translate(672.167969 0)"/>
       <use xlink:href="#DejaVuSans-20" transform="translate(699.951172 0)"/>
       <use xlink:href="#DejaVuSans-63" transform="translate(731.738281 0)"/>
       <use xlink:href="#DejaVuSans-65" transform="translate(786.71875 0)"/>
       <use xlink:href="#DejaVuSans-6c" transform="translate(848.242188 0)"/>
       <use xlink:href="#DejaVuSans-6c" transform="translate(876.025391 0)"/>
      </g>
     </g>
    </g>
    <g id="xtick_3">
     <g id="text_3">
      <!-- immune cell -->
      <g style="fill: #262626" transform="translate(529.097 692.155875) rotate(-90) scale(0.1 -0.1)">
       <defs>
        <path id="DejaVuSans-75" d="M 544 1381 
L 544 3500 
L 1119 3500 
L 1119 1403 
Q 1119 906 1312 657 
Q 1506 409 1894 409 
Q 2359 409 2629 706 
Q 2900 1003 2900 1516 
L 2900 3500 
L 3475 3500 
L 3475 0 
L 2900 0 
L 2900 538 
Q 2691 219 2414 64 
Q 2138 -91 1772 -91 
Q 1169 -91 856 284 
Q 544 659 544 1381 
z
M 1991 3584 
L 1991 3584 
z
" transform="scale(0.015625)"/>
       </defs>
       <use xlink:href="#DejaVuSans-69"/>
       <use xlink:href="#DejaVuSans-6d" transform="translate(27.783203 0)"/>
       <use xlink:href="#DejaVuSans-6d" transform="translate(125.195312 0)"/>
       <use xlink:href="#DejaVuSans-75" transform="translate(222.607422 0)"/>
       <use xlink:href="#DejaVuSans-6e" transform="translate(285.986328 0)"/>
       <use xlink:href="#DejaVuSans-65" transform="translate(349.365234 0)"/>
       <use xlink:href="#DejaVuSans-20" transform="translate(410.888672 0)"/>
       <use xlink:href="#DejaVuSans-63" transform="translate(442.675781 0)"/>
       <use xlink:href="#DejaVuSans-65" transform="translate(497.65625 0)"/>
       <use xlink:href="#DejaVuSans-6c" transform="translate(559.179688 0)"/>
       <use xlink:href="#DejaVuSans-6c" transform="translate(586.962891 0)"/>
      </g>
     </g>
    </g>
    <g id="xtick_4">
     <g id="text_4">
      <!-- unknown cell -->
      <g style="fill: #262626" transform="translate(708.3258 696.505875) rotate(-90) scale(0.1 -0.1)">
       <defs>
        <path id="DejaVuSans-6b" d="M 581 4863 
L 1159 4863 
L 1159 1991 
L 2875 3500 
L 3609 3500 
L 1753 1863 
L 3688 0 
L 2938 0 
L 1159 1709 
L 1159 0 
L 581 0 
L 581 4863 
z
" transform="scale(0.015625)"/>
        <path id="DejaVuSans-6f" d="M 1959 3097 
Q 1497 3097 1228 2736 
Q 959 2375 959 1747 
Q 959 1119 1226 758 
Q 1494 397 1959 397 
Q 2419 397 2687 759 
Q 2956 1122 2956 1747 
Q 2956 2369 2687 2733 
Q 2419 3097 1959 3097 
z
M 1959 3584 
Q 2709 3584 3137 3096 
Q 3566 2609 3566 1747 
Q 3566 888 3137 398 
Q 2709 -91 1959 -91 
Q 1206 -91 779 398 
Q 353 888 353 1747 
Q 353 2609 779 3096 
Q 1206 3584 1959 3584 
z
" transform="scale(0.015625)"/>
        <path id="DejaVuSans-77" d="M 269 3500 
L 844 3500 
L 1563 769 
L 2278 3500 
L 2956 3500 
L 3675 769 
L 4391 3500 
L 4966 3500 
L 4050 0 
L 3372 0 
L 2619 2869 
L 1863 0 
L 1184 0 
L 269 3500 
z
" transform="scale(0.015625)"/>
       </defs>
       <use xlink:href="#DejaVuSans-75"/>
       <use xlink:href="#DejaVuSans-6e" transform="translate(63.378906 0)"/>
       <use xlink:href="#DejaVuSans-6b" transform="translate(126.757812 0)"/>
       <use xlink:href="#DejaVuSans-6e" transform="translate(184.667969 0)"/>
       <use xlink:href="#DejaVuSans-6f" transform="translate(248.046875 0)"/>
       <use xlink:href="#DejaVuSans-77" transform="translate(309.228516 0)"/>
       <use xlink:href="#DejaVuSans-6e" transform="translate(391.015625 0)"/>
       <use xlink:href="#DejaVuSans-20" transform="translate(454.394531 0)"/>
       <use xlink:href="#DejaVuSans-63" transform="translate(486.181641 0)"/>
       <use xlink:href="#DejaVuSans-65" transform="translate(541.162109 0)"/>
       <use xlink:href="#DejaVuSans-6c" transform="translate(602.685547 0)"/>
       <use xlink:href="#DejaVuSans-6c" transform="translate(630.46875 0)"/>
      </g>
     </g>
    </g>
    <g id="xtick_5">
     <g id="text_5">
      <!-- neural cell -->
      <g style="fill: #262626" transform="translate(887.5546 682.913688) rotate(-90) scale(0.1 -0.1)">
       <defs>
        <path id="DejaVuSans-72" d="M 2631 2963 
Q 2534 3019 2420 3045 
Q 2306 3072 2169 3072 
Q 1681 3072 1420 2755 
Q 1159 2438 1159 1844 
L 1159 0 
L 581 0 
L 581 3500 
L 1159 3500 
L 1159 2956 
Q 1341 3275 1631 3429 
Q 1922 3584 2338 3584 
Q 2397 3584 2469 3576 
Q 2541 3569 2628 3553 
L 2631 2963 
z
" transform="scale(0.015625)"/>
       </defs>
       <use xlink:href="#DejaVuSans-6e"/>
       <use xlink:href="#DejaVuSans-65" transform="translate(63.378906 0)"/>
       <use xlink:href="#DejaVuSans-75" transform="translate(124.902344 0)"/>
       <use xlink:href="#DejaVuSans-72" transform="translate(188.28125 0)"/>
       <use xlink:href="#DejaVuSans-61" transform="translate(229.394531 0)"/>
       <use xlink:href="#DejaVuSans-6c" transform="translate(290.673828 0)"/>
       <use xlink:href="#DejaVuSans-20" transform="translate(318.457031 0)"/>
       <use xlink:href="#DejaVuSans-63" transform="translate(350.244141 0)"/>
       <use xlink:href="#DejaVuSans-65" transform="translate(405.224609 0)"/>
       <use xlink:href="#DejaVuSans-6c" transform="translate(466.748047 0)"/>
       <use xlink:href="#DejaVuSans-6c" transform="translate(494.53125 0)"/>
      </g>
     </g>
    </g>
    <g id="text_6">
     <!-- Cell Type -->
     <g style="fill: #262626" transform="translate(503.919656 732.662125) scale(0.1 -0.1)">
      <defs>
       <path id="DejaVuSans-43" d="M 4122 4306 
L 4122 3641 
Q 3803 3938 3442 4084 
Q 3081 4231 2675 4231 
Q 1875 4231 1450 3742 
Q 1025 3253 1025 2328 
Q 1025 1406 1450 917 
Q 1875 428 2675 428 
Q 3081 428 3442 575 
Q 3803 722 4122 1019 
L 4122 359 
Q 3791 134 3420 21 
Q 3050 -91 2638 -91 
Q 1578 -91 968 557 
Q 359 1206 359 2328 
Q 359 3453 968 4101 
Q 1578 4750 2638 4750 
Q 3056 4750 3426 4639 
Q 3797 4528 4122 4306 
z
" transform="scale(0.015625)"/>
       <path id="DejaVuSans-54" d="M -19 4666 
L 3928 4666 
L 3928 4134 
L 2272 4134 
L 2272 0 
L 1638 0 
L 1638 4134 
L -19 4134 
L -19 4666 
z
" transform="scale(0.015625)"/>
      </defs>
      <use xlink:href="#DejaVuSans-43"/>
      <use xlink:href="#DejaVuSans-65" transform="translate(69.824219 0)"/>
      <use xlink:href="#DejaVuSans-6c" transform="translate(131.347656 0)"/>
      <use xlink:href="#DejaVuSans-6c" transform="translate(159.130859 0)"/>
      <use xlink:href="#DejaVuSans-20" transform="translate(186.914062 0)"/>
      <use xlink:href="#DejaVuSans-54" transform="translate(218.701172 0)"/>
      <use xlink:href="#DejaVuSans-79" transform="translate(264.160156 0)"/>
      <use xlink:href="#DejaVuSans-70" transform="translate(323.339844 0)"/>
      <use xlink:href="#DejaVuSans-65" transform="translate(386.816406 0)"/>
     </g>
    </g>
   </g>
   <g id="matplotlib.axis_2">
    <g id="ytick_1">
     <g id="line2d_1">
      <path d="M 78.265625 596.915947 
L 974.409625 596.915947 
" clip-path="url(#paace54d3ff)" style="fill: none; stroke: #cccccc; stroke-width: 2; stroke-linecap: round"/>
     </g>
     <g id="text_7">
      <!-- 0 -->
      <g style="fill: #262626" transform="translate(62.403125 600.715166) scale(0.1 -0.1)">
       <defs>
        <path id="DejaVuSans-30" d="M 2034 4250 
Q 1547 4250 1301 3770 
Q 1056 3291 1056 2328 
Q 1056 1369 1301 889 
Q 1547 409 2034 409 
Q 2525 409 2770 889 
Q 3016 1369 3016 2328 
Q 3016 3291 2770 3770 
Q 2525 4250 2034 4250 
z
M 2034 4750 
Q 2819 4750 3233 4129 
Q 3647 3509 3647 2328 
Q 3647 1150 3233 529 
Q 2819 -91 2034 -91 
Q 1250 -91 836 529 
Q 422 1150 422 2328 
Q 422 3509 836 4129 
Q 1250 4750 2034 4750 
z
" transform="scale(0.015625)"/>
       </defs>
       <use xlink:href="#DejaVuSans-30"/>
      </g>
     </g>
    </g>
    <g id="ytick_2">
     <g id="line2d_2">
      <path d="M 78.265625 531.748874 
L 974.409625 531.748874 
" clip-path="url(#paace54d3ff)" style="fill: none; stroke: #cccccc; stroke-width: 2; stroke-linecap: round"/>
     </g>
     <g id="text_8">
      <!-- 25 -->
      <g style="fill: #262626" transform="translate(56.040625 535.548093) scale(0.1 -0.1)">
       <defs>
        <path id="DejaVuSans-32" d="M 1228 531 
L 3431 531 
L 3431 0 
L 469 0 
L 469 531 
Q 828 903 1448 1529 
Q 2069 2156 2228 2338 
Q 2531 2678 2651 2914 
Q 2772 3150 2772 3378 
Q 2772 3750 2511 3984 
Q 2250 4219 1831 4219 
Q 1534 4219 1204 4116 
Q 875 4013 500 3803 
L 500 4441 
Q 881 4594 1212 4672 
Q 1544 4750 1819 4750 
Q 2544 4750 2975 4387 
Q 3406 4025 3406 3419 
Q 3406 3131 3298 2873 
Q 3191 2616 2906 2266 
Q 2828 2175 2409 1742 
Q 1991 1309 1228 531 
z
" transform="scale(0.015625)"/>
        <path id="DejaVuSans-35" d="M 691 4666 
L 3169 4666 
L 3169 4134 
L 1269 4134 
L 1269 2991 
Q 1406 3038 1543 3061 
Q 1681 3084 1819 3084 
Q 2600 3084 3056 2656 
Q 3513 2228 3513 1497 
Q 3513 744 3044 326 
Q 2575 -91 1722 -91 
Q 1428 -91 1123 -41 
Q 819 9 494 109 
L 494 744 
Q 775 591 1075 516 
Q 1375 441 1709 441 
Q 2250 441 2565 725 
Q 2881 1009 2881 1497 
Q 2881 1984 2565 2268 
Q 2250 2553 1709 2553 
Q 1456 2553 1204 2497 
Q 953 2441 691 2322 
L 691 4666 
z
" transform="scale(0.015625)"/>
       </defs>
       <use xlink:href="#DejaVuSans-32"/>
       <use xlink:href="#DejaVuSans-35" transform="translate(63.623047 0)"/>
      </g>
     </g>
    </g>
    <g id="ytick_3">
     <g id="line2d_3">
      <path d="M 78.265625 466.581801 
L 974.409625 466.581801 
" clip-path="url(#paace54d3ff)" style="fill: none; stroke: #cccccc; stroke-width: 2; stroke-linecap: round"/>
     </g>
     <g id="text_9">
      <!-- 50 -->
      <g style="fill: #262626" transform="translate(56.040625 470.38102) scale(0.1 -0.1)">
       <use xlink:href="#DejaVuSans-35"/>
       <use xlink:href="#DejaVuSans-30" transform="translate(63.623047 0)"/>
      </g>
     </g>
    </g>
    <g id="ytick_4">
     <g id="line2d_4">
      <path d="M 78.265625 401.414728 
L 974.409625 401.414728 
" clip-path="url(#paace54d3ff)" style="fill: none; stroke: #cccccc; stroke-width: 2; stroke-linecap: round"/>
     </g>
     <g id="text_10">
      <!-- 75 -->
      <g style="fill: #262626" transform="translate(56.040625 405.213947) scale(0.1 -0.1)">
       <defs>
        <path id="DejaVuSans-37" d="M 525 4666 
L 3525 4666 
L 3525 4397 
L 1831 0 
L 1172 0 
L 2766 4134 
L 525 4134 
L 525 4666 
z
" transform="scale(0.015625)"/>
       </defs>
       <use xlink:href="#DejaVuSans-37"/>
       <use xlink:href="#DejaVuSans-35" transform="translate(63.623047 0)"/>
      </g>
     </g>
    </g>
    <g id="ytick_5">
     <g id="line2d_5">
      <path d="M 78.265625 336.247655 
L 974.409625 336.247655 
" clip-path="url(#paace54d3ff)" style="fill: none; stroke: #cccccc; stroke-width: 2; stroke-linecap: round"/>
     </g>
     <g id="text_11">
      <!-- 100 -->
      <g style="fill: #262626" transform="translate(49.678125 340.046873) scale(0.1 -0.1)">
       <defs>
        <path id="DejaVuSans-31" d="M 794 531 
L 1825 531 
L 1825 4091 
L 703 3866 
L 703 4441 
L 1819 4666 
L 2450 4666 
L 2450 531 
L 3481 531 
L 3481 0 
L 794 0 
L 794 531 
z
" transform="scale(0.015625)"/>
       </defs>
       <use xlink:href="#DejaVuSans-31"/>
       <use xlink:href="#DejaVuSans-30" transform="translate(63.623047 0)"/>
       <use xlink:href="#DejaVuSans-30" transform="translate(127.246094 0)"/>
      </g>
     </g>
    </g>
    <g id="ytick_6">
     <g id="line2d_6">
      <path d="M 78.265625 271.080582 
L 974.409625 271.080582 
" clip-path="url(#paace54d3ff)" style="fill: none; stroke: #cccccc; stroke-width: 2; stroke-linecap: round"/>
     </g>
     <g id="text_12">
      <!-- 125 -->
      <g style="fill: #262626" transform="translate(49.678125 274.8798) scale(0.1 -0.1)">
       <use xlink:href="#DejaVuSans-31"/>
       <use xlink:href="#DejaVuSans-32" transform="translate(63.623047 0)"/>
       <use xlink:href="#DejaVuSans-35" transform="translate(127.246094 0)"/>
      </g>
     </g>
    </g>
    <g id="ytick_7">
     <g id="line2d_7">
      <path d="M 78.265625 205.913508 
L 974.409625 205.913508 
" clip-path="url(#paace54d3ff)" style="fill: none; stroke: #cccccc; stroke-width: 2; stroke-linecap: round"/>
     </g>
     <g id="text_13">
      <!-- 150 -->
      <g style="fill: #262626" transform="translate(49.678125 209.712727) scale(0.1 -0.1)">
       <use xlink:href="#DejaVuSans-31"/>
       <use xlink:href="#DejaVuSans-35" transform="translate(63.623047 0)"/>
       <use xlink:href="#DejaVuSans-30" transform="translate(127.246094 0)"/>
      </g>
     </g>
    </g>
    <g id="ytick_8">
     <g id="line2d_8">
      <path d="M 78.265625 140.746435 
L 974.409625 140.746435 
" clip-path="url(#paace54d3ff)" style="fill: none; stroke: #cccccc; stroke-width: 2; stroke-linecap: round"/>
     </g>
     <g id="text_14">
      <!-- 175 -->
      <g style="fill: #262626" transform="translate(49.678125 144.545654) scale(0.1 -0.1)">
       <use xlink:href="#DejaVuSans-31"/>
       <use xlink:href="#DejaVuSans-37" transform="translate(63.623047 0)"/>
       <use xlink:href="#DejaVuSans-35" transform="translate(127.246094 0)"/>
      </g>
     </g>
    </g>
    <g id="ytick_9">
     <g id="line2d_9">
      <path d="M 78.265625 75.579362 
L 974.409625 75.579362 
" clip-path="url(#paace54d3ff)" style="fill: none; stroke: #cccccc; stroke-width: 2; stroke-linecap: round"/>
     </g>
     <g id="text_15">
      <!-- 200 -->
      <g style="fill: #262626" transform="translate(49.678125 79.378581) scale(0.1 -0.1)">
       <use xlink:href="#DejaVuSans-32"/>
       <use xlink:href="#DejaVuSans-30" transform="translate(63.623047 0)"/>
       <use xlink:href="#DejaVuSans-30" transform="translate(127.246094 0)"/>
      </g>
     </g>
    </g>
    <g id="text_16">
     <!-- Distance (μm) -->
     <g style="fill: #262626" transform="translate(43.598437 370.795125) rotate(-90) scale(0.1 -0.1)">
      <defs>
       <path id="DejaVuSans-44" d="M 1259 4147 
L 1259 519 
L 2022 519 
Q 2988 519 3436 956 
Q 3884 1394 3884 2338 
Q 3884 3275 3436 3711 
Q 2988 4147 2022 4147 
L 1259 4147 
z
M 628 4666 
L 1925 4666 
Q 3281 4666 3915 4102 
Q 4550 3538 4550 2338 
Q 4550 1131 3912 565 
Q 3275 0 1925 0 
L 628 0 
L 628 4666 
z
" transform="scale(0.015625)"/>
       <path id="DejaVuSans-28" d="M 1984 4856 
Q 1566 4138 1362 3434 
Q 1159 2731 1159 2009 
Q 1159 1288 1364 580 
Q 1569 -128 1984 -844 
L 1484 -844 
Q 1016 -109 783 600 
Q 550 1309 550 2009 
Q 550 2706 781 3412 
Q 1013 4119 1484 4856 
L 1984 4856 
z
" transform="scale(0.015625)"/>
       <path id="DejaVuSans-3bc" d="M 544 -1331 
L 544 3500 
L 1119 3500 
L 1119 1325 
Q 1119 872 1334 640 
Q 1550 409 1972 409 
Q 2434 409 2667 671 
Q 2900 934 2900 1459 
L 2900 3500 
L 3475 3500 
L 3475 806 
Q 3475 619 3529 530 
Q 3584 441 3700 441 
Q 3728 441 3778 458 
Q 3828 475 3916 513 
L 3916 50 
Q 3788 -22 3673 -56 
Q 3559 -91 3450 -91 
Q 3234 -91 3106 31 
Q 2978 153 2931 403 
Q 2775 156 2548 32 
Q 2322 -91 2016 -91 
Q 1697 -91 1473 31 
Q 1250 153 1119 397 
L 1119 -1331 
L 544 -1331 
z
" transform="scale(0.015625)"/>
       <path id="DejaVuSans-29" d="M 513 4856 
L 1013 4856 
Q 1481 4119 1714 3412 
Q 1947 2706 1947 2009 
Q 1947 1309 1714 600 
Q 1481 -109 1013 -844 
L 513 -844 
Q 928 -128 1133 580 
Q 1338 1288 1338 2009 
Q 1338 2731 1133 3434 
Q 928 4138 513 4856 
z
" transform="scale(0.015625)"/>
      </defs>
      <use xlink:href="#DejaVuSans-44"/>
      <use xlink:href="#DejaVuSans-69" transform="translate(77.001953 0)"/>
      <use xlink:href="#DejaVuSans-73" transform="translate(104.785156 0)"/>
      <use xlink:href="#DejaVuSans-74" transform="translate(156.884766 0)"/>
      <use xlink:href="#DejaVuSans-61" transform="translate(196.09375 0)"/>
      <use xlink:href="#DejaVuSans-6e" transform="translate(257.373047 0)"/>
      <use xlink:href="#DejaVuSans-63" transform="translate(320.751953 0)"/>
      <use xlink:href="#DejaVuSans-65" transform="translate(375.732422 0)"/>
      <use xlink:href="#DejaVuSans-20" transform="translate(437.255859 0)"/>
      <use xlink:href="#DejaVuSans-28" transform="translate(469.042969 0)"/>
      <use xlink:href="#DejaVuSans-3bc" transform="translate(508.056641 0)"/>
      <use xlink:href="#DejaVuSans-6d" transform="translate(571.679688 0)"/>
      <use xlink:href="#DejaVuSans-29" transform="translate(669.091797 0)"/>
     </g>
    </g>
   </g>
   <g id="FillBetweenPolyCollection_1">
    <defs>
     <path id="m217e041804" d="M 167.880025 -175.540466 
L 167.806496 -175.540466 
L 166.723937 -180.788876 
L 163.716768 -186.037286 
L 160.830267 -191.285696 
L 158.103739 -196.534106 
L 155.197647 -201.782516 
L 152.541693 -207.030926 
L 150.222573 -212.279336 
L 148.437695 -217.527746 
L 147.169842 -222.776156 
L 146.436652 -228.024566 
L 146.111717 -233.272976 
L 146.2023 -238.521386 
L 146.623687 -243.769796 
L 147.231935 -249.018206 
L 148.186073 -254.266616 
L 149.373707 -259.515027 
L 150.698359 -264.763437 
L 152.157744 -270.011847 
L 153.457095 -275.260257 
L 154.767662 -280.508667 
L 156.032982 -285.757077 
L 157.227826 -291.005487 
L 158.348421 -296.253897 
L 159.42693 -301.502307 
L 160.387794 -306.750717 
L 161.273871 -311.999127 
L 162.078759 -317.247537 
L 162.735464 -322.495947 
L 163.3145 -327.744357 
L 163.859965 -332.992767 
L 164.331499 -338.241177 
L 164.751954 -343.489587 
L 165.153423 -348.737997 
L 165.495548 -353.986407 
L 165.766994 -359.234817 
L 166.025887 -364.483227 
L 166.250086 -369.731637 
L 166.467148 -374.980047 
L 166.645559 -380.228457 
L 166.780633 -385.476867 
L 166.898893 -390.725278 
L 167.011707 -395.973688 
L 167.114638 -401.222098 
L 167.191377 -406.470508 
L 167.276188 -411.718918 
L 167.361532 -416.967328 
L 167.407691 -422.215738 
L 167.460598 -427.464148 
L 167.496721 -432.712558 
L 167.543147 -437.960968 
L 167.578248 -443.209378 
L 167.607696 -448.457788 
L 167.628001 -453.706198 
L 167.651306 -458.954608 
L 167.683716 -464.203018 
L 167.703465 -469.451428 
L 167.717002 -474.699838 
L 167.732229 -479.948248 
L 167.744512 -485.196658 
L 167.754163 -490.445068 
L 167.768067 -495.693478 
L 167.776227 -500.941888 
L 167.781118 -506.190298 
L 167.787427 -511.438708 
L 167.793617 -516.687118 
L 167.79516 -521.935529 
L 167.799222 -527.183939 
L 167.809541 -532.432349 
L 167.814563 -537.680759 
L 167.813474 -542.929169 
L 167.815275 -548.177579 
L 167.816878 -553.425989 
L 167.81824 -558.674399 
L 167.818662 -563.922809 
L 167.827245 -569.171219 
L 167.833703 -574.419629 
L 167.834004 -579.668039 
L 167.837401 -584.916449 
L 167.840754 -590.164859 
L 167.845105 -595.413269 
L 167.846497 -600.661679 
L 167.845348 -605.910089 
L 167.85262 -611.158499 
L 167.853635 -616.406909 
L 167.851394 -621.655319 
L 167.852757 -626.903729 
L 167.856754 -632.152139 
L 167.857301 -637.400549 
L 167.855675 -642.648959 
L 167.853305 -647.897369 
L 167.85613 -653.145779 
L 167.858419 -658.39419 
L 167.862098 -663.6426 
L 167.862053 -668.89101 
L 167.861687 -674.13942 
L 167.862809 -679.38783 
L 167.865454 -684.63624 
L 167.864372 -689.88465 
L 167.872465 -695.13306 
L 167.880025 -695.13306 
L 167.880025 -695.13306 
L 167.880025 -689.88465 
L 167.880025 -684.63624 
L 167.880025 -679.38783 
L 167.880025 -674.13942 
L 167.880025 -668.89101 
L 167.880025 -663.6426 
L 167.880025 -658.39419 
L 167.880025 -653.145779 
L 167.880025 -647.897369 
L 167.880025 -642.648959 
L 167.880025 -637.400549 
L 167.880025 -632.152139 
L 167.880025 -626.903729 
L 167.880025 -621.655319 
L 167.880025 -616.406909 
L 167.880025 -611.158499 
L 167.880025 -605.910089 
L 167.880025 -600.661679 
L 167.880025 -595.413269 
L 167.880025 -590.164859 
L 167.880025 -584.916449 
L 167.880025 -579.668039 
L 167.880025 -574.419629 
L 167.880025 -569.171219 
L 167.880025 -563.922809 
L 167.880025 -558.674399 
L 167.880025 -553.425989 
L 167.880025 -548.177579 
L 167.880025 -542.929169 
L 167.880025 -537.680759 
L 167.880025 -532.432349 
L 167.880025 -527.183939 
L 167.880025 -521.935529 
L 167.880025 -516.687118 
L 167.880025 -511.438708 
L 167.880025 -506.190298 
L 167.880025 -500.941888 
L 167.880025 -495.693478 
L 167.880025 -490.445068 
L 167.880025 -485.196658 
L 167.880025 -479.948248 
L 167.880025 -474.699838 
L 167.880025 -469.451428 
L 167.880025 -464.203018 
L 167.880025 -458.954608 
L 167.880025 -453.706198 
L 167.880025 -448.457788 
L 167.880025 -443.209378 
L 167.880025 -437.960968 
L 167.880025 -432.712558 
L 167.880025 -427.464148 
L 167.880025 -422.215738 
L 167.880025 -416.967328 
L 167.880025 -411.718918 
L 167.880025 -406.470508 
L 167.880025 -401.222098 
L 167.880025 -395.973688 
L 167.880025 -390.725278 
L 167.880025 -385.476867 
L 167.880025 -380.228457 
L 167.880025 -374.980047 
L 167.880025 -369.731637 
L 167.880025 -364.483227 
L 167.880025 -359.234817 
L 167.880025 -353.986407 
L 167.880025 -348.737997 
L 167.880025 -343.489587 
L 167.880025 -338.241177 
L 167.880025 -332.992767 
L 167.880025 -327.744357 
L 167.880025 -322.495947 
L 167.880025 -317.247537 
L 167.880025 -311.999127 
L 167.880025 -306.750717 
L 167.880025 -301.502307 
L 167.880025 -296.253897 
L 167.880025 -291.005487 
L 167.880025 -285.757077 
L 167.880025 -280.508667 
L 167.880025 -275.260257 
L 167.880025 -270.011847 
L 167.880025 -264.763437 
L 167.880025 -259.515027 
L 167.880025 -254.266616 
L 167.880025 -249.018206 
L 167.880025 -243.769796 
L 167.880025 -238.521386 
L 167.880025 -233.272976 
L 167.880025 -228.024566 
L 167.880025 -222.776156 
L 167.880025 -217.527746 
L 167.880025 -212.279336 
L 167.880025 -207.030926 
L 167.880025 -201.782516 
L 167.880025 -196.534106 
L 167.880025 -191.285696 
L 167.880025 -186.037286 
L 167.880025 -180.788876 
L 167.880025 -175.540466 
z
" style="stroke: #6d6d6d; stroke-opacity: 0.9; stroke-width: 1.25"/>
    </defs>
    <g clip-path="url(#paace54d3ff)">
     <use xlink:href="#m217e041804" x="0" y="770.741813" style="fill: #ecbd81; fill-opacity: 0.9; stroke: #6d6d6d; stroke-opacity: 0.9; stroke-width: 1.25"/>
    </g>
   </g>
   <g id="FillBetweenPolyCollection_2">
    <defs>
     <path id="m30c14d7626" d="M 168.208807 -191.660383 
L 167.880025 -191.660383 
L 167.880025 -196.746261 
L 167.880025 -201.832139 
L 167.880025 -206.918017 
L 167.880025 -212.003895 
L 167.880025 -217.089772 
L 167.880025 -222.17565 
L 167.880025 -227.261528 
L 167.880025 -232.347406 
L 167.880025 -237.433284 
L 167.880025 -242.519161 
L 167.880025 -247.605039 
L 167.880025 -252.690917 
L 167.880025 -257.776795 
L 167.880025 -262.862672 
L 167.880025 -267.94855 
L 167.880025 -273.034428 
L 167.880025 -278.120306 
L 167.880025 -283.206184 
L 167.880025 -288.292061 
L 167.880025 -293.377939 
L 167.880025 -298.463817 
L 167.880025 -303.549695 
L 167.880025 -308.635573 
L 167.880025 -313.72145 
L 167.880025 -318.807328 
L 167.880025 -323.893206 
L 167.880025 -328.979084 
L 167.880025 -334.064961 
L 167.880025 -339.150839 
L 167.880025 -344.236717 
L 167.880025 -349.322595 
L 167.880025 -354.408473 
L 167.880025 -359.49435 
L 167.880025 -364.580228 
L 167.880025 -369.666106 
L 167.880025 -374.751984 
L 167.880025 -379.837861 
L 167.880025 -384.923739 
L 167.880025 -390.009617 
L 167.880025 -395.095495 
L 167.880025 -400.181373 
L 167.880025 -405.26725 
L 167.880025 -410.353128 
L 167.880025 -415.439006 
L 167.880025 -420.524884 
L 167.880025 -425.610762 
L 167.880025 -430.696639 
L 167.880025 -435.782517 
L 167.880025 -440.868395 
L 167.880025 -445.954273 
L 167.880025 -451.04015 
L 167.880025 -456.126028 
L 167.880025 -461.211906 
L 167.880025 -466.297784 
L 167.880025 -471.383662 
L 167.880025 -476.469539 
L 167.880025 -481.555417 
L 167.880025 -486.641295 
L 167.880025 -491.727173 
L 167.880025 -496.813051 
L 167.880025 -501.898928 
L 167.880025 -506.984806 
L 167.880025 -512.070684 
L 167.880025 -517.156562 
L 167.880025 -522.242439 
L 167.880025 -527.328317 
L 167.880025 -532.414195 
L 167.880025 -537.500073 
L 167.880025 -542.585951 
L 167.880025 -547.671828 
L 167.880025 -552.757706 
L 167.880025 -557.843584 
L 167.880025 -562.929462 
L 167.880025 -568.015339 
L 167.880025 -573.101217 
L 167.880025 -578.187095 
L 167.880025 -583.272973 
L 167.880025 -588.358851 
L 167.880025 -593.444728 
L 167.880025 -598.530606 
L 167.880025 -603.616484 
L 167.880025 -608.702362 
L 167.880025 -613.78824 
L 167.880025 -618.874117 
L 167.880025 -623.959995 
L 167.880025 -629.045873 
L 167.880025 -634.131751 
L 167.880025 -639.217628 
L 167.880025 -644.303506 
L 167.880025 -649.389384 
L 167.880025 -654.475262 
L 167.880025 -659.56114 
L 167.880025 -664.647017 
L 167.880025 -669.732895 
L 167.880025 -674.818773 
L 167.880025 -679.904651 
L 167.880025 -684.990529 
L 167.880025 -690.076406 
L 167.880025 -695.162284 
L 172.220688 -695.162284 
L 172.220688 -695.162284 
L 175.239816 -690.076406 
L 176.734924 -684.990529 
L 177.259203 -679.904651 
L 177.580701 -674.818773 
L 177.920556 -669.732895 
L 178.278563 -664.647017 
L 178.641841 -659.56114 
L 179.005812 -654.475262 
L 179.371141 -649.389384 
L 179.754765 -644.303506 
L 180.175526 -639.217628 
L 180.618198 -634.131751 
L 181.057667 -629.045873 
L 181.51319 -623.959995 
L 181.953014 -618.874117 
L 182.402393 -613.78824 
L 182.899704 -608.702362 
L 183.402401 -603.616484 
L 183.937923 -598.530606 
L 184.517103 -593.444728 
L 185.108492 -588.358851 
L 185.700578 -583.272973 
L 186.280607 -578.187095 
L 186.863369 -573.101217 
L 187.513265 -568.015339 
L 188.215576 -562.929462 
L 188.872249 -557.843584 
L 189.555165 -552.757706 
L 190.355133 -547.671828 
L 191.197302 -542.585951 
L 192.021883 -537.500073 
L 192.833872 -532.414195 
L 193.617661 -527.328317 
L 194.392064 -522.242439 
L 195.252861 -517.156562 
L 196.190806 -512.070684 
L 197.159186 -506.984806 
L 198.158715 -501.898928 
L 199.132212 -496.813051 
L 200.077695 -491.727173 
L 201.099145 -486.641295 
L 202.216325 -481.555417 
L 203.390377 -476.469539 
L 204.594687 -471.383662 
L 205.77136 -466.297784 
L 206.918209 -461.211906 
L 208.015101 -456.126028 
L 209.150588 -451.04015 
L 210.417887 -445.954273 
L 211.750514 -440.868395 
L 213.096208 -435.782517 
L 214.415191 -430.696639 
L 215.728398 -425.610762 
L 217.090394 -420.524884 
L 218.445489 -415.439006 
L 219.863163 -410.353128 
L 221.312512 -405.26725 
L 222.650591 -400.181373 
L 223.893509 -395.095495 
L 225.184473 -390.009617 
L 226.586046 -384.923739 
L 227.940088 -379.837861 
L 229.207598 -374.751984 
L 230.453284 -369.666106 
L 231.690915 -364.580228 
L 232.944489 -359.49435 
L 234.058263 -354.408473 
L 234.980561 -349.322595 
L 235.843309 -344.236717 
L 236.680367 -339.150839 
L 237.514843 -334.064961 
L 238.265164 -328.979084 
L 238.822102 -323.893206 
L 239.203497 -318.807328 
L 239.445987 -313.72145 
L 239.571545 -308.635573 
L 239.481935 -303.549695 
L 239.099497 -298.463817 
L 238.499425 -293.377939 
L 237.744346 -288.292061 
L 236.791356 -283.206184 
L 235.609954 -278.120306 
L 234.204031 -273.034428 
L 232.476238 -267.94855 
L 230.329115 -262.862672 
L 227.751663 -257.776795 
L 224.861088 -252.690917 
L 221.762388 -247.605039 
L 218.398318 -242.519161 
L 214.675186 -237.433284 
L 210.442034 -232.347406 
L 205.220627 -227.261528 
L 198.596516 -222.17565 
L 190.892743 -217.089772 
L 183.135644 -212.003895 
L 176.528007 -206.918017 
L 171.866832 -201.832139 
L 169.26553 -196.746261 
L 168.208807 -191.660383 
z
" style="stroke: #6d6d6d; stroke-opacity: 0.9; stroke-width: 1.25"/>
    </defs>
    <g clip-path="url(#paace54d3ff)">
     <use xlink:href="#m30c14d7626" x="0" y="770.741813" style="fill: #c0dca9; fill-opacity: 0.9; stroke: #6d6d6d; stroke-opacity: 0.9; stroke-width: 1.25"/>
    </g>
   </g>
   <g id="FillBetweenPolyCollection_3">
    <defs>
     <path id="m83e861133c" d="M 347.108825 -176.687639 
L 346.992985 -176.687639 
L 345.537684 -181.853663 
L 342.140189 -187.019686 
L 340.019347 -192.18571 
L 339.454383 -197.351733 
L 339.540314 -202.517757 
L 339.874249 -207.68378 
L 340.413422 -212.849804 
L 341.061049 -218.015827 
L 341.755608 -223.181851 
L 342.393618 -228.347874 
L 342.97178 -233.513898 
L 343.506465 -238.679921 
L 344.027543 -243.845945 
L 344.479565 -249.011968 
L 344.809269 -254.177992 
L 345.141499 -259.344015 
L 345.415373 -264.510039 
L 345.667342 -269.676062 
L 345.874684 -274.842086 
L 346.033936 -280.008109 
L 346.165257 -285.174133 
L 346.300454 -290.340156 
L 346.402495 -295.50618 
L 346.484969 -300.672203 
L 346.555947 -305.838227 
L 346.632673 -311.00425 
L 346.692614 -316.170274 
L 346.741822 -321.336297 
L 346.791354 -326.502321 
L 346.816619 -331.668344 
L 346.846226 -336.834368 
L 346.87955 -342.000391 
L 346.901073 -347.166415 
L 346.928696 -352.332438 
L 346.946083 -357.498462 
L 346.96173 -362.664485 
L 346.980282 -367.830509 
L 346.998309 -372.996532 
L 347.010113 -378.162556 
L 347.013554 -383.328579 
L 347.029389 -388.494603 
L 347.04263 -393.660626 
L 347.047699 -398.82665 
L 347.055448 -403.992673 
L 347.06234 -409.158697 
L 347.06687 -414.32472 
L 347.06986 -419.490744 
L 347.077003 -424.656767 
L 347.084172 -429.822791 
L 347.085868 -434.988814 
L 347.087716 -440.154838 
L 347.090525 -445.320861 
L 347.092759 -450.486885 
L 347.094612 -455.652908 
L 347.095959 -460.818932 
L 347.097984 -465.984955 
L 347.09943 -471.150979 
L 347.101099 -476.317002 
L 347.102849 -481.483026 
L 347.103377 -486.649049 
L 347.103982 -491.815073 
L 347.10509 -496.981096 
L 347.105593 -502.14712 
L 347.105699 -507.313143 
L 347.106491 -512.479167 
L 347.107256 -517.64519 
L 347.107456 -522.811214 
L 347.107027 -527.977237 
L 347.106851 -533.143261 
L 347.107151 -538.309284 
L 347.107563 -543.475308 
L 347.107356 -548.641332 
L 347.10787 -553.807355 
L 347.10776 -558.973379 
L 347.107599 -564.139402 
L 347.10759 -569.305426 
L 347.107986 -574.471449 
L 347.108037 -579.637473 
L 347.108115 -584.803496 
L 347.107998 -589.96952 
L 347.10783 -595.135543 
L 347.108243 -600.301567 
L 347.108292 -605.46759 
L 347.108417 -610.633614 
L 347.108438 -615.799637 
L 347.108101 -620.965661 
L 347.108066 -626.131684 
L 347.108333 -631.297708 
L 347.108381 -636.463731 
L 347.108133 -641.629755 
L 347.10855 -646.795778 
L 347.108518 -651.961802 
L 347.108488 -657.127825 
L 347.108481 -662.293849 
L 347.108748 -667.459872 
L 347.108807 -672.625896 
L 347.108518 -677.791919 
L 347.108287 -682.957943 
L 347.108602 -688.123966 
L 347.108825 -688.123966 
L 347.108825 -688.123966 
L 347.108825 -682.957943 
L 347.108825 -677.791919 
L 347.108825 -672.625896 
L 347.108825 -667.459872 
L 347.108825 -662.293849 
L 347.108825 -657.127825 
L 347.108825 -651.961802 
L 347.108825 -646.795778 
L 347.108825 -641.629755 
L 347.108825 -636.463731 
L 347.108825 -631.297708 
L 347.108825 -626.131684 
L 347.108825 -620.965661 
L 347.108825 -615.799637 
L 347.108825 -610.633614 
L 347.108825 -605.46759 
L 347.108825 -600.301567 
L 347.108825 -595.135543 
L 347.108825 -589.96952 
L 347.108825 -584.803496 
L 347.108825 -579.637473 
L 347.108825 -574.471449 
L 347.108825 -569.305426 
L 347.108825 -564.139402 
L 347.108825 -558.973379 
L 347.108825 -553.807355 
L 347.108825 -548.641332 
L 347.108825 -543.475308 
L 347.108825 -538.309284 
L 347.108825 -533.143261 
L 347.108825 -527.977237 
L 347.108825 -522.811214 
L 347.108825 -517.64519 
L 347.108825 -512.479167 
L 347.108825 -507.313143 
L 347.108825 -502.14712 
L 347.108825 -496.981096 
L 347.108825 -491.815073 
L 347.108825 -486.649049 
L 347.108825 -481.483026 
L 347.108825 -476.317002 
L 347.108825 -471.150979 
L 347.108825 -465.984955 
L 347.108825 -460.818932 
L 347.108825 -455.652908 
L 347.108825 -450.486885 
L 347.108825 -445.320861 
L 347.108825 -440.154838 
L 347.108825 -434.988814 
L 347.108825 -429.822791 
L 347.108825 -424.656767 
L 347.108825 -419.490744 
L 347.108825 -414.32472 
L 347.108825 -409.158697 
L 347.108825 -403.992673 
L 347.108825 -398.82665 
L 347.108825 -393.660626 
L 347.108825 -388.494603 
L 347.108825 -383.328579 
L 347.108825 -378.162556 
L 347.108825 -372.996532 
L 347.108825 -367.830509 
L 347.108825 -362.664485 
L 347.108825 -357.498462 
L 347.108825 -352.332438 
L 347.108825 -347.166415 
L 347.108825 -342.000391 
L 347.108825 -336.834368 
L 347.108825 -331.668344 
L 347.108825 -326.502321 
L 347.108825 -321.336297 
L 347.108825 -316.170274 
L 347.108825 -311.00425 
L 347.108825 -305.838227 
L 347.108825 -300.672203 
L 347.108825 -295.50618 
L 347.108825 -290.340156 
L 347.108825 -285.174133 
L 347.108825 -280.008109 
L 347.108825 -274.842086 
L 347.108825 -269.676062 
L 347.108825 -264.510039 
L 347.108825 -259.344015 
L 347.108825 -254.177992 
L 347.108825 -249.011968 
L 347.108825 -243.845945 
L 347.108825 -238.679921 
L 347.108825 -233.513898 
L 347.108825 -228.347874 
L 347.108825 -223.181851 
L 347.108825 -218.015827 
L 347.108825 -212.849804 
L 347.108825 -207.68378 
L 347.108825 -202.517757 
L 347.108825 -197.351733 
L 347.108825 -192.18571 
L 347.108825 -187.019686 
L 347.108825 -181.853663 
L 347.108825 -176.687639 
z
" style="stroke: #6d6d6d; stroke-opacity: 0.9; stroke-width: 1.25"/>
    </defs>
    <g clip-path="url(#paace54d3ff)">
     <use xlink:href="#m83e861133c" x="0" y="770.741813" style="fill: #ecbd81; fill-opacity: 0.9; stroke: #6d6d6d; stroke-opacity: 0.9; stroke-width: 1.25"/>
    </g>
   </g>
   <g id="FillBetweenPolyCollection_4">
    <defs>
     <path id="m68d44f6b7c" d="M 347.982277 -189.304691 
L 347.108825 -189.304691 
L 347.108825 -194.414346 
L 347.108825 -199.524 
L 347.108825 -204.633655 
L 347.108825 -209.74331 
L 347.108825 -214.852965 
L 347.108825 -219.96262 
L 347.108825 -225.072275 
L 347.108825 -230.18193 
L 347.108825 -235.291585 
L 347.108825 -240.40124 
L 347.108825 -245.510894 
L 347.108825 -250.620549 
L 347.108825 -255.730204 
L 347.108825 -260.839859 
L 347.108825 -265.949514 
L 347.108825 -271.059169 
L 347.108825 -276.168824 
L 347.108825 -281.278479 
L 347.108825 -286.388134 
L 347.108825 -291.497789 
L 347.108825 -296.607443 
L 347.108825 -301.717098 
L 347.108825 -306.826753 
L 347.108825 -311.936408 
L 347.108825 -317.046063 
L 347.108825 -322.155718 
L 347.108825 -327.265373 
L 347.108825 -332.375028 
L 347.108825 -337.484683 
L 347.108825 -342.594337 
L 347.108825 -347.703992 
L 347.108825 -352.813647 
L 347.108825 -357.923302 
L 347.108825 -363.032957 
L 347.108825 -368.142612 
L 347.108825 -373.252267 
L 347.108825 -378.361922 
L 347.108825 -383.471577 
L 347.108825 -388.581232 
L 347.108825 -393.690886 
L 347.108825 -398.800541 
L 347.108825 -403.910196 
L 347.108825 -409.019851 
L 347.108825 -414.129506 
L 347.108825 -419.239161 
L 347.108825 -424.348816 
L 347.108825 -429.458471 
L 347.108825 -434.568126 
L 347.108825 -439.67778 
L 347.108825 -444.787435 
L 347.108825 -449.89709 
L 347.108825 -455.006745 
L 347.108825 -460.1164 
L 347.108825 -465.226055 
L 347.108825 -470.33571 
L 347.108825 -475.445365 
L 347.108825 -480.55502 
L 347.108825 -485.664675 
L 347.108825 -490.774329 
L 347.108825 -495.883984 
L 347.108825 -500.993639 
L 347.108825 -506.103294 
L 347.108825 -511.212949 
L 347.108825 -516.322604 
L 347.108825 -521.432259 
L 347.108825 -526.541914 
L 347.108825 -531.651569 
L 347.108825 -536.761223 
L 347.108825 -541.870878 
L 347.108825 -546.980533 
L 347.108825 -552.090188 
L 347.108825 -557.199843 
L 347.108825 -562.309498 
L 347.108825 -567.419153 
L 347.108825 -572.528808 
L 347.108825 -577.638463 
L 347.108825 -582.748118 
L 347.108825 -587.857772 
L 347.108825 -592.967427 
L 347.108825 -598.077082 
L 347.108825 -603.186737 
L 347.108825 -608.296392 
L 347.108825 -613.406047 
L 347.108825 -618.515702 
L 347.108825 -623.625357 
L 347.108825 -628.735012 
L 347.108825 -633.844666 
L 347.108825 -638.954321 
L 347.108825 -644.063976 
L 347.108825 -649.173631 
L 347.108825 -654.283286 
L 347.108825 -659.392941 
L 347.108825 -664.502596 
L 347.108825 -669.612251 
L 347.108825 -674.721906 
L 347.108825 -679.831561 
L 347.108825 -684.941215 
L 347.108825 -690.05087 
L 347.108825 -695.160525 
L 347.808024 -695.160525 
L 347.808024 -695.160525 
L 348.209299 -690.05087 
L 348.445424 -684.941215 
L 348.545894 -679.831561 
L 348.605592 -674.721906 
L 348.663796 -669.612251 
L 348.721227 -664.502596 
L 348.771677 -659.392941 
L 348.818504 -654.283286 
L 348.877401 -649.173631 
L 348.957914 -644.063976 
L 349.049422 -638.954321 
L 349.136483 -633.844666 
L 349.212971 -628.735012 
L 349.281253 -623.625357 
L 349.352236 -618.515702 
L 349.438018 -613.406047 
L 349.536801 -608.296392 
L 349.638916 -603.186737 
L 349.741645 -598.077082 
L 349.848591 -592.967427 
L 349.96224 -587.857772 
L 350.078883 -582.748118 
L 350.201251 -577.638463 
L 350.336092 -572.528808 
L 350.481274 -567.419153 
L 350.632321 -562.309498 
L 350.785586 -557.199843 
L 350.944504 -552.090188 
L 351.111132 -546.980533 
L 351.273386 -541.870878 
L 351.423431 -536.761223 
L 351.575307 -531.651569 
L 351.751485 -526.541914 
L 351.956271 -521.432259 
L 352.171811 -516.322604 
L 352.382673 -511.212949 
L 352.590408 -506.103294 
L 352.808673 -500.993639 
L 353.050901 -495.883984 
L 353.31823 -490.774329 
L 353.594781 -485.664675 
L 353.860793 -480.55502 
L 354.119196 -475.445365 
L 354.395474 -470.33571 
L 354.696189 -465.226055 
L 355.005688 -460.1164 
L 355.311143 -455.006745 
L 355.608994 -449.89709 
L 355.920561 -444.787435 
L 356.265346 -439.67778 
L 356.617118 -434.568126 
L 356.948847 -429.458471 
L 357.289674 -424.348816 
L 357.675044 -419.239161 
L 358.064116 -414.129506 
L 358.411331 -409.019851 
L 358.755128 -403.910196 
L 359.136474 -398.800541 
L 359.537723 -393.690886 
L 359.931798 -388.581232 
L 360.330767 -383.471577 
L 360.753771 -378.361922 
L 361.191216 -373.252267 
L 361.609866 -368.142612 
L 361.98702 -363.032957 
L 362.359818 -357.923302 
L 362.770204 -352.813647 
L 363.181634 -347.703992 
L 363.553076 -342.594337 
L 363.894462 -337.484683 
L 364.226526 -332.375028 
L 364.56675 -327.265373 
L 364.916812 -322.155718 
L 365.269244 -317.046063 
L 365.619688 -311.936408 
L 365.951191 -306.826753 
L 366.240333 -301.717098 
L 366.498681 -296.607443 
L 366.739117 -291.497789 
L 366.941082 -286.388134 
L 367.113742 -281.278479 
L 367.296337 -276.168824 
L 367.493654 -271.059169 
L 367.680641 -265.949514 
L 367.841435 -260.839859 
L 367.988413 -255.730204 
L 368.152295 -250.620549 
L 368.337198 -245.510894 
L 368.539377 -240.40124 
L 368.7454 -235.291585 
L 368.836936 -230.18193 
L 368.555271 -225.072275 
L 367.529942 -219.96262 
L 365.376163 -214.852965 
L 361.938118 -209.74331 
L 357.566308 -204.633655 
L 353.171335 -199.524 
L 349.817704 -194.414346 
L 347.982277 -189.304691 
z
" style="stroke: #6d6d6d; stroke-opacity: 0.9; stroke-width: 1.25"/>
    </defs>
    <g clip-path="url(#paace54d3ff)">
     <use xlink:href="#m68d44f6b7c" x="0" y="770.741813" style="fill: #c0dca9; fill-opacity: 0.9; stroke: #6d6d6d; stroke-opacity: 0.9; stroke-width: 1.25"/>
    </g>
   </g>
   <g id="FillBetweenPolyCollection_5">
    <defs>
     <path id="m18af6ff390" d="M 526.337625 -177.855271 
L 526.066394 -177.855271 
L 523.641495 -183.074336 
L 519.624484 -188.293402 
L 518.006543 -193.512468 
L 517.583663 -198.731533 
L 517.573052 -203.950599 
L 517.877305 -209.169665 
L 518.35923 -214.388731 
L 518.973004 -219.607796 
L 519.688121 -224.826862 
L 520.333212 -230.045928 
L 520.940267 -235.264993 
L 521.572095 -240.484059 
L 522.197398 -245.703125 
L 522.72624 -250.922191 
L 523.198748 -256.141256 
L 523.578303 -261.360322 
L 523.894847 -266.579388 
L 524.185214 -271.798453 
L 524.507471 -277.017519 
L 524.741152 -282.236585 
L 524.95302 -287.455651 
L 525.132784 -292.674716 
L 525.289461 -297.893782 
L 525.426688 -303.112848 
L 525.56382 -308.331913 
L 525.674843 -313.550979 
L 525.758854 -318.770045 
L 525.822634 -323.98911 
L 525.888165 -329.208176 
L 525.947533 -334.427242 
L 526.001003 -339.646308 
L 526.046288 -344.865373 
L 526.089982 -350.084439 
L 526.123336 -355.303505 
L 526.15094 -360.52257 
L 526.175244 -365.741636 
L 526.196885 -370.960702 
L 526.212563 -376.179768 
L 526.229993 -381.398833 
L 526.243957 -386.617899 
L 526.258069 -391.836965 
L 526.270667 -397.05603 
L 526.278514 -402.275096 
L 526.288836 -407.494162 
L 526.295554 -412.713227 
L 526.301336 -417.932293 
L 526.306785 -423.151359 
L 526.308632 -428.370425 
L 526.311643 -433.58949 
L 526.313544 -438.808556 
L 526.317443 -444.027622 
L 526.321826 -449.246687 
L 526.323083 -454.465753 
L 526.322451 -459.684819 
L 526.323799 -464.903885 
L 526.32701 -470.12295 
L 526.327874 -475.342016 
L 526.327477 -480.561082 
L 526.327956 -485.780147 
L 526.32839 -490.999213 
L 526.328481 -496.218279 
L 526.328774 -501.437345 
L 526.330836 -506.65641 
L 526.330303 -511.875476 
L 526.330625 -517.094542 
L 526.33147 -522.313607 
L 526.331442 -527.532673 
L 526.32998 -532.751739 
L 526.330732 -537.970804 
L 526.331247 -543.18987 
L 526.330688 -548.408936 
L 526.331522 -553.628002 
L 526.332761 -558.847067 
L 526.332346 -564.066133 
L 526.333299 -569.285199 
L 526.332809 -574.504264 
L 526.331917 -579.72333 
L 526.333154 -584.942396 
L 526.333331 -590.161462 
L 526.333998 -595.380527 
L 526.335056 -600.599593 
L 526.335009 -605.818659 
L 526.33409 -611.037724 
L 526.334703 -616.25679 
L 526.334903 -621.475856 
L 526.335236 -626.694921 
L 526.33558 -631.913987 
L 526.335368 -637.133053 
L 526.334721 -642.352119 
L 526.33529 -647.571184 
L 526.33586 -652.79025 
L 526.336373 -658.009316 
L 526.336445 -663.228381 
L 526.33602 -668.447447 
L 526.336668 -673.666513 
L 526.336651 -678.885579 
L 526.33654 -684.104644 
L 526.336377 -689.32371 
L 526.33663 -694.542776 
L 526.337625 -694.542776 
L 526.337625 -694.542776 
L 526.337625 -689.32371 
L 526.337625 -684.104644 
L 526.337625 -678.885579 
L 526.337625 -673.666513 
L 526.337625 -668.447447 
L 526.337625 -663.228381 
L 526.337625 -658.009316 
L 526.337625 -652.79025 
L 526.337625 -647.571184 
L 526.337625 -642.352119 
L 526.337625 -637.133053 
L 526.337625 -631.913987 
L 526.337625 -626.694921 
L 526.337625 -621.475856 
L 526.337625 -616.25679 
L 526.337625 -611.037724 
L 526.337625 -605.818659 
L 526.337625 -600.599593 
L 526.337625 -595.380527 
L 526.337625 -590.161462 
L 526.337625 -584.942396 
L 526.337625 -579.72333 
L 526.337625 -574.504264 
L 526.337625 -569.285199 
L 526.337625 -564.066133 
L 526.337625 -558.847067 
L 526.337625 -553.628002 
L 526.337625 -548.408936 
L 526.337625 -543.18987 
L 526.337625 -537.970804 
L 526.337625 -532.751739 
L 526.337625 -527.532673 
L 526.337625 -522.313607 
L 526.337625 -517.094542 
L 526.337625 -511.875476 
L 526.337625 -506.65641 
L 526.337625 -501.437345 
L 526.337625 -496.218279 
L 526.337625 -490.999213 
L 526.337625 -485.780147 
L 526.337625 -480.561082 
L 526.337625 -475.342016 
L 526.337625 -470.12295 
L 526.337625 -464.903885 
L 526.337625 -459.684819 
L 526.337625 -454.465753 
L 526.337625 -449.246687 
L 526.337625 -444.027622 
L 526.337625 -438.808556 
L 526.337625 -433.58949 
L 526.337625 -428.370425 
L 526.337625 -423.151359 
L 526.337625 -417.932293 
L 526.337625 -412.713227 
L 526.337625 -407.494162 
L 526.337625 -402.275096 
L 526.337625 -397.05603 
L 526.337625 -391.836965 
L 526.337625 -386.617899 
L 526.337625 -381.398833 
L 526.337625 -376.179768 
L 526.337625 -370.960702 
L 526.337625 -365.741636 
L 526.337625 -360.52257 
L 526.337625 -355.303505 
L 526.337625 -350.084439 
L 526.337625 -344.865373 
L 526.337625 -339.646308 
L 526.337625 -334.427242 
L 526.337625 -329.208176 
L 526.337625 -323.98911 
L 526.337625 -318.770045 
L 526.337625 -313.550979 
L 526.337625 -308.331913 
L 526.337625 -303.112848 
L 526.337625 -297.893782 
L 526.337625 -292.674716 
L 526.337625 -287.455651 
L 526.337625 -282.236585 
L 526.337625 -277.017519 
L 526.337625 -271.798453 
L 526.337625 -266.579388 
L 526.337625 -261.360322 
L 526.337625 -256.141256 
L 526.337625 -250.922191 
L 526.337625 -245.703125 
L 526.337625 -240.484059 
L 526.337625 -235.264993 
L 526.337625 -230.045928 
L 526.337625 -224.826862 
L 526.337625 -219.607796 
L 526.337625 -214.388731 
L 526.337625 -209.169665 
L 526.337625 -203.950599 
L 526.337625 -198.731533 
L 526.337625 -193.512468 
L 526.337625 -188.293402 
L 526.337625 -183.074336 
L 526.337625 -177.855271 
z
" style="stroke: #6d6d6d; stroke-opacity: 0.9; stroke-width: 1.25"/>
    </defs>
    <g clip-path="url(#paace54d3ff)">
     <use xlink:href="#m18af6ff390" x="0" y="770.741813" style="fill: #ecbd81; fill-opacity: 0.9; stroke: #6d6d6d; stroke-opacity: 0.9; stroke-width: 1.25"/>
    </g>
   </g>
   <g id="FillBetweenPolyCollection_6">
    <defs>
     <path id="m4ca02f36f5" d="M 527.517262 -189.114372 
L 526.337625 -189.114372 
L 526.337625 -194.225964 
L 526.337625 -199.337555 
L 526.337625 -204.449147 
L 526.337625 -209.560739 
L 526.337625 -214.672331 
L 526.337625 -219.783923 
L 526.337625 -224.895515 
L 526.337625 -230.007107 
L 526.337625 -235.118698 
L 526.337625 -240.23029 
L 526.337625 -245.341882 
L 526.337625 -250.453474 
L 526.337625 -255.565066 
L 526.337625 -260.676658 
L 526.337625 -265.788249 
L 526.337625 -270.899841 
L 526.337625 -276.011433 
L 526.337625 -281.123025 
L 526.337625 -286.234617 
L 526.337625 -291.346209 
L 526.337625 -296.4578 
L 526.337625 -301.569392 
L 526.337625 -306.680984 
L 526.337625 -311.792576 
L 526.337625 -316.904168 
L 526.337625 -322.01576 
L 526.337625 -327.127351 
L 526.337625 -332.238943 
L 526.337625 -337.350535 
L 526.337625 -342.462127 
L 526.337625 -347.573719 
L 526.337625 -352.685311 
L 526.337625 -357.796902 
L 526.337625 -362.908494 
L 526.337625 -368.020086 
L 526.337625 -373.131678 
L 526.337625 -378.24327 
L 526.337625 -383.354862 
L 526.337625 -388.466454 
L 526.337625 -393.578045 
L 526.337625 -398.689637 
L 526.337625 -403.801229 
L 526.337625 -408.912821 
L 526.337625 -414.024413 
L 526.337625 -419.136005 
L 526.337625 -424.247596 
L 526.337625 -429.359188 
L 526.337625 -434.47078 
L 526.337625 -439.582372 
L 526.337625 -444.693964 
L 526.337625 -449.805556 
L 526.337625 -454.917147 
L 526.337625 -460.028739 
L 526.337625 -465.140331 
L 526.337625 -470.251923 
L 526.337625 -475.363515 
L 526.337625 -480.475107 
L 526.337625 -485.586698 
L 526.337625 -490.69829 
L 526.337625 -495.809882 
L 526.337625 -500.921474 
L 526.337625 -506.033066 
L 526.337625 -511.144658 
L 526.337625 -516.256249 
L 526.337625 -521.367841 
L 526.337625 -526.479433 
L 526.337625 -531.591025 
L 526.337625 -536.702617 
L 526.337625 -541.814209 
L 526.337625 -546.925801 
L 526.337625 -552.037392 
L 526.337625 -557.148984 
L 526.337625 -562.260576 
L 526.337625 -567.372168 
L 526.337625 -572.48376 
L 526.337625 -577.595352 
L 526.337625 -582.706943 
L 526.337625 -587.818535 
L 526.337625 -592.930127 
L 526.337625 -598.041719 
L 526.337625 -603.153311 
L 526.337625 -608.264903 
L 526.337625 -613.376494 
L 526.337625 -618.488086 
L 526.337625 -623.599678 
L 526.337625 -628.71127 
L 526.337625 -633.822862 
L 526.337625 -638.934454 
L 526.337625 -644.046045 
L 526.337625 -649.157637 
L 526.337625 -654.269229 
L 526.337625 -659.380821 
L 526.337625 -664.492413 
L 526.337625 -669.604005 
L 526.337625 -674.715596 
L 526.337625 -679.827188 
L 526.337625 -684.93878 
L 526.337625 -690.050372 
L 526.337625 -695.161964 
L 527.778075 -695.161964 
L 527.778075 -695.161964 
L 528.811086 -690.050372 
L 529.245998 -684.93878 
L 529.376141 -679.827188 
L 529.480644 -674.715596 
L 529.573328 -669.604005 
L 529.67742 -664.492413 
L 529.809966 -659.380821 
L 529.941798 -654.269229 
L 530.072052 -649.157637 
L 530.206685 -644.046045 
L 530.340349 -638.934454 
L 530.47683 -633.822862 
L 530.620897 -628.71127 
L 530.779558 -623.599678 
L 530.954714 -618.488086 
L 531.12423 -613.376494 
L 531.286861 -608.264903 
L 531.470521 -603.153311 
L 531.683796 -598.041719 
L 531.911431 -592.930127 
L 532.146302 -587.818535 
L 532.37189 -582.706943 
L 532.572838 -577.595352 
L 532.807372 -572.48376 
L 533.081444 -567.372168 
L 533.36899 -562.260576 
L 533.6757 -557.148984 
L 534.007034 -552.037392 
L 534.341654 -546.925801 
L 534.671322 -541.814209 
L 534.990626 -536.702617 
L 535.311863 -531.591025 
L 535.655758 -526.479433 
L 536.029861 -521.367841 
L 536.439939 -516.256249 
L 536.880997 -511.144658 
L 537.35253 -506.033066 
L 537.808436 -500.921474 
L 538.246098 -495.809882 
L 538.749163 -490.69829 
L 539.291274 -485.586698 
L 539.77248 -480.475107 
L 540.272742 -475.363515 
L 540.854124 -470.251923 
L 541.479168 -465.140331 
L 542.110209 -460.028739 
L 542.747245 -454.917147 
L 543.389112 -449.805556 
L 544.069025 -444.693964 
L 544.783706 -439.582372 
L 545.494884 -434.47078 
L 546.209707 -429.359188 
L 546.962111 -424.247596 
L 547.784332 -419.136005 
L 548.679951 -414.024413 
L 549.622859 -408.912821 
L 550.558542 -403.801229 
L 551.488963 -398.689637 
L 552.43912 -393.578045 
L 553.405315 -388.466454 
L 554.461721 -383.354862 
L 555.567843 -378.24327 
L 556.617613 -373.131678 
L 557.695277 -368.020086 
L 558.890385 -362.908494 
L 560.14325 -357.796902 
L 561.408255 -352.685311 
L 562.686294 -347.573719 
L 564.000668 -342.462127 
L 565.338775 -337.350535 
L 566.686308 -332.238943 
L 568.057208 -327.127351 
L 569.475589 -322.01576 
L 570.964098 -316.904168 
L 572.475032 -311.792576 
L 573.970232 -306.680984 
L 575.477364 -301.569392 
L 576.966745 -296.4578 
L 578.500681 -291.346209 
L 580.113718 -286.234617 
L 581.689703 -281.123025 
L 583.235287 -276.011433 
L 584.828449 -270.899841 
L 586.517257 -265.788249 
L 588.153 -260.676658 
L 589.63206 -255.565066 
L 591.009582 -250.453474 
L 592.350997 -245.341882 
L 593.695968 -240.23029 
L 595.006075 -235.118698 
L 596.026136 -230.007107 
L 595.977075 -224.895515 
L 593.347777 -219.783923 
L 586.462551 -214.672331 
L 574.505682 -209.560739 
L 558.708479 -204.449147 
L 542.998674 -199.337555 
L 532.12648 -194.225964 
L 527.517262 -189.114372 
z
" style="stroke: #6d6d6d; stroke-opacity: 0.9; stroke-width: 1.25"/>
    </defs>
    <g clip-path="url(#paace54d3ff)">
     <use xlink:href="#m4ca02f36f5" x="0" y="770.741813" style="fill: #c0dca9; fill-opacity: 0.9; stroke: #6d6d6d; stroke-opacity: 0.9; stroke-width: 1.25"/>
    </g>
   </g>
   <g id="FillBetweenPolyCollection_7">
    <defs>
     <path id="m66ec51b67b" d="M 705.566425 -178.378194 
L 705.313037 -178.378194 
L 704.985402 -183.598127 
L 704.641831 -188.818059 
L 704.411509 -194.037992 
L 704.29934 -199.257924 
L 704.258919 -204.477857 
L 704.261038 -209.697789 
L 704.299378 -214.917721 
L 704.372627 -220.137654 
L 704.464496 -225.357586 
L 704.558806 -230.577519 
L 704.652573 -235.797451 
L 704.746661 -241.017384 
L 704.837452 -246.237316 
L 704.921081 -251.457249 
L 704.997757 -256.677181 
L 705.066782 -261.897114 
L 705.12942 -267.117046 
L 705.187607 -272.336978 
L 705.236956 -277.556911 
L 705.275234 -282.776843 
L 705.307737 -287.996776 
L 705.33879 -293.216708 
L 705.367605 -298.436641 
L 705.393312 -303.656573 
L 705.41538 -308.876506 
L 705.432888 -314.096438 
L 705.446517 -319.316371 
L 705.457713 -324.536303 
L 705.467103 -329.756236 
L 705.475879 -334.976168 
L 705.484707 -340.1961 
L 705.493482 -345.416033 
L 705.502569 -350.635965 
L 705.510925 -355.855898 
L 705.516837 -361.07583 
L 705.520769 -366.295763 
L 705.52456 -371.515695 
L 705.528847 -376.735628 
L 705.532319 -381.95556 
L 705.534734 -387.175493 
L 705.537352 -392.395425 
L 705.540448 -397.615358 
L 705.54356 -402.83529 
L 705.546313 -408.055222 
L 705.54844 -413.275155 
L 705.549777 -418.495087 
L 705.550683 -423.71502 
L 705.551625 -428.934952 
L 705.552697 -434.154885 
L 705.553784 -439.374817 
L 705.55457 -444.59475 
L 705.554711 -449.814682 
L 705.554648 -455.034615 
L 705.555338 -460.254547 
L 705.556422 -465.474479 
L 705.557072 -470.694412 
L 705.557519 -475.914344 
L 705.558027 -481.134277 
L 705.558283 -486.354209 
L 705.558336 -491.574142 
L 705.558585 -496.794074 
L 705.558899 -502.014007 
L 705.559086 -507.233939 
L 705.55934 -512.453872 
L 705.559711 -517.673804 
L 705.559658 -522.893737 
L 705.558997 -528.113669 
L 705.558541 -533.333601 
L 705.558767 -538.553534 
L 705.559343 -543.773466 
L 705.559865 -548.993399 
L 705.560179 -554.213331 
L 705.560357 -559.433264 
L 705.560596 -564.653196 
L 705.560911 -569.873129 
L 705.56107 -575.093061 
L 705.561066 -580.312994 
L 705.561031 -585.532926 
L 705.56095 -590.752858 
L 705.560868 -595.972791 
L 705.560765 -601.192723 
L 705.560557 -606.412656 
L 705.560493 -611.632588 
L 705.560693 -616.852521 
L 705.560883 -622.072453 
L 705.561059 -627.292386 
L 705.561374 -632.512318 
L 705.561693 -637.732251 
L 705.561828 -642.952183 
L 705.561532 -648.172116 
L 705.560799 -653.392048 
L 705.56024 -658.61198 
L 705.56019 -663.831913 
L 705.56031 -669.051845 
L 705.56007 -674.271778 
L 705.559772 -679.49171 
L 705.560051 -684.711643 
L 705.561259 -689.931575 
L 705.563319 -695.151508 
L 705.566425 -695.151508 
L 705.566425 -695.151508 
L 705.566425 -689.931575 
L 705.566425 -684.711643 
L 705.566425 -679.49171 
L 705.566425 -674.271778 
L 705.566425 -669.051845 
L 705.566425 -663.831913 
L 705.566425 -658.61198 
L 705.566425 -653.392048 
L 705.566425 -648.172116 
L 705.566425 -642.952183 
L 705.566425 -637.732251 
L 705.566425 -632.512318 
L 705.566425 -627.292386 
L 705.566425 -622.072453 
L 705.566425 -616.852521 
L 705.566425 -611.632588 
L 705.566425 -606.412656 
L 705.566425 -601.192723 
L 705.566425 -595.972791 
L 705.566425 -590.752858 
L 705.566425 -585.532926 
L 705.566425 -580.312994 
L 705.566425 -575.093061 
L 705.566425 -569.873129 
L 705.566425 -564.653196 
L 705.566425 -559.433264 
L 705.566425 -554.213331 
L 705.566425 -548.993399 
L 705.566425 -543.773466 
L 705.566425 -538.553534 
L 705.566425 -533.333601 
L 705.566425 -528.113669 
L 705.566425 -522.893737 
L 705.566425 -517.673804 
L 705.566425 -512.453872 
L 705.566425 -507.233939 
L 705.566425 -502.014007 
L 705.566425 -496.794074 
L 705.566425 -491.574142 
L 705.566425 -486.354209 
L 705.566425 -481.134277 
L 705.566425 -475.914344 
L 705.566425 -470.694412 
L 705.566425 -465.474479 
L 705.566425 -460.254547 
L 705.566425 -455.034615 
L 705.566425 -449.814682 
L 705.566425 -444.59475 
L 705.566425 -439.374817 
L 705.566425 -434.154885 
L 705.566425 -428.934952 
L 705.566425 -423.71502 
L 705.566425 -418.495087 
L 705.566425 -413.275155 
L 705.566425 -408.055222 
L 705.566425 -402.83529 
L 705.566425 -397.615358 
L 705.566425 -392.395425 
L 705.566425 -387.175493 
L 705.566425 -381.95556 
L 705.566425 -376.735628 
L 705.566425 -371.515695 
L 705.566425 -366.295763 
L 705.566425 -361.07583 
L 705.566425 -355.855898 
L 705.566425 -350.635965 
L 705.566425 -345.416033 
L 705.566425 -340.1961 
L 705.566425 -334.976168 
L 705.566425 -329.756236 
L 705.566425 -324.536303 
L 705.566425 -319.316371 
L 705.566425 -314.096438 
L 705.566425 -308.876506 
L 705.566425 -303.656573 
L 705.566425 -298.436641 
L 705.566425 -293.216708 
L 705.566425 -287.996776 
L 705.566425 -282.776843 
L 705.566425 -277.556911 
L 705.566425 -272.336978 
L 705.566425 -267.117046 
L 705.566425 -261.897114 
L 705.566425 -256.677181 
L 705.566425 -251.457249 
L 705.566425 -246.237316 
L 705.566425 -241.017384 
L 705.566425 -235.797451 
L 705.566425 -230.577519 
L 705.566425 -225.357586 
L 705.566425 -220.137654 
L 705.566425 -214.917721 
L 705.566425 -209.697789 
L 705.566425 -204.477857 
L 705.566425 -199.257924 
L 705.566425 -194.037992 
L 705.566425 -188.818059 
L 705.566425 -183.598127 
L 705.566425 -178.378194 
z
" style="stroke: #6d6d6d; stroke-opacity: 0.9; stroke-width: 1.25"/>
    </defs>
    <g clip-path="url(#paace54d3ff)">
     <use xlink:href="#m66ec51b67b" x="0" y="770.741813" style="fill: #ecbd81; fill-opacity: 0.9; stroke: #6d6d6d; stroke-opacity: 0.9; stroke-width: 1.25"/>
    </g>
   </g>
   <g id="FillBetweenPolyCollection_8">
    <defs>
     <path id="m013d16a111" d="M 706.426878 -191.196498 
L 705.566425 -191.196498 
L 705.566425 -196.286905 
L 705.566425 -201.377313 
L 705.566425 -206.467721 
L 705.566425 -211.558129 
L 705.566425 -216.648537 
L 705.566425 -221.738945 
L 705.566425 -226.829353 
L 705.566425 -231.919761 
L 705.566425 -237.010169 
L 705.566425 -242.100577 
L 705.566425 -247.190985 
L 705.566425 -252.281392 
L 705.566425 -257.3718 
L 705.566425 -262.462208 
L 705.566425 -267.552616 
L 705.566425 -272.643024 
L 705.566425 -277.733432 
L 705.566425 -282.82384 
L 705.566425 -287.914248 
L 705.566425 -293.004656 
L 705.566425 -298.095064 
L 705.566425 -303.185471 
L 705.566425 -308.275879 
L 705.566425 -313.366287 
L 705.566425 -318.456695 
L 705.566425 -323.547103 
L 705.566425 -328.637511 
L 705.566425 -333.727919 
L 705.566425 -338.818327 
L 705.566425 -343.908735 
L 705.566425 -348.999143 
L 705.566425 -354.08955 
L 705.566425 -359.179958 
L 705.566425 -364.270366 
L 705.566425 -369.360774 
L 705.566425 -374.451182 
L 705.566425 -379.54159 
L 705.566425 -384.631998 
L 705.566425 -389.722406 
L 705.566425 -394.812814 
L 705.566425 -399.903222 
L 705.566425 -404.993629 
L 705.566425 -410.084037 
L 705.566425 -415.174445 
L 705.566425 -420.264853 
L 705.566425 -425.355261 
L 705.566425 -430.445669 
L 705.566425 -435.536077 
L 705.566425 -440.626485 
L 705.566425 -445.716893 
L 705.566425 -450.807301 
L 705.566425 -455.897708 
L 705.566425 -460.988116 
L 705.566425 -466.078524 
L 705.566425 -471.168932 
L 705.566425 -476.25934 
L 705.566425 -481.349748 
L 705.566425 -486.440156 
L 705.566425 -491.530564 
L 705.566425 -496.620972 
L 705.566425 -501.71138 
L 705.566425 -506.801788 
L 705.566425 -511.892195 
L 705.566425 -516.982603 
L 705.566425 -522.073011 
L 705.566425 -527.163419 
L 705.566425 -532.253827 
L 705.566425 -537.344235 
L 705.566425 -542.434643 
L 705.566425 -547.525051 
L 705.566425 -552.615459 
L 705.566425 -557.705867 
L 705.566425 -562.796274 
L 705.566425 -567.886682 
L 705.566425 -572.97709 
L 705.566425 -578.067498 
L 705.566425 -583.157906 
L 705.566425 -588.248314 
L 705.566425 -593.338722 
L 705.566425 -598.42913 
L 705.566425 -603.519538 
L 705.566425 -608.609946 
L 705.566425 -613.700353 
L 705.566425 -618.790761 
L 705.566425 -623.881169 
L 705.566425 -628.971577 
L 705.566425 -634.061985 
L 705.566425 -639.152393 
L 705.566425 -644.242801 
L 705.566425 -649.333209 
L 705.566425 -654.423617 
L 705.566425 -659.514025 
L 705.566425 -664.604432 
L 705.566425 -669.69484 
L 705.566425 -674.785248 
L 705.566425 -679.875656 
L 705.566425 -684.966064 
L 705.566425 -690.056472 
L 705.566425 -695.14688 
L 705.791573 -695.14688 
L 705.791573 -695.14688 
L 705.906148 -690.056472 
L 705.988611 -684.966064 
L 706.031097 -679.875656 
L 706.049625 -674.785248 
L 706.060615 -669.69484 
L 706.071188 -664.604432 
L 706.082289 -659.514025 
L 706.093586 -654.423617 
L 706.10612 -649.333209 
L 706.120992 -644.242801 
L 706.137074 -639.152393 
L 706.152447 -634.061985 
L 706.166614 -628.971577 
L 706.179878 -623.881169 
L 706.192872 -618.790761 
L 706.207306 -613.700353 
L 706.224975 -608.609946 
L 706.245514 -603.519538 
L 706.266346 -598.42913 
L 706.286115 -593.338722 
L 706.306431 -588.248314 
L 706.328971 -583.157906 
L 706.353628 -578.067498 
L 706.379556 -572.97709 
L 706.406229 -567.886682 
L 706.434037 -562.796274 
L 706.46315 -557.705867 
L 706.491658 -552.615459 
L 706.517863 -547.525051 
L 706.543808 -542.434643 
L 706.572984 -537.344235 
L 706.606118 -532.253827 
L 706.6412 -527.163419 
L 706.676055 -522.073011 
L 706.710465 -516.982603 
L 706.745333 -511.892195 
L 706.780578 -506.801788 
L 706.816037 -501.71138 
L 706.853508 -496.620972 
L 706.895986 -491.530564 
L 706.944475 -486.440156 
L 706.995969 -481.349748 
L 707.045349 -476.25934 
L 707.091402 -471.168932 
L 707.140223 -466.078524 
L 707.19856 -460.988116 
L 707.265626 -455.897708 
L 707.335838 -450.807301 
L 707.406305 -445.716893 
L 707.476852 -440.626485 
L 707.546538 -435.536077 
L 707.614654 -430.445669 
L 707.683423 -425.355261 
L 707.757116 -420.264853 
L 707.838129 -415.174445 
L 707.926078 -410.084037 
L 708.021521 -404.993629 
L 708.125409 -399.903222 
L 708.234136 -394.812814 
L 708.341927 -389.722406 
L 708.44818 -384.631998 
L 708.559415 -379.54159 
L 708.680747 -374.451182 
L 708.805617 -369.360774 
L 708.924208 -364.270366 
L 709.040039 -359.179958 
L 709.167681 -354.08955 
L 709.316983 -348.999143 
L 709.483611 -343.908735 
L 709.654243 -338.818327 
L 709.820757 -333.727919 
L 709.988019 -328.637511 
L 710.166904 -323.547103 
L 710.359862 -318.456695 
L 710.557801 -313.366287 
L 710.754471 -308.275879 
L 710.957412 -303.185471 
L 711.181446 -298.095064 
L 711.432406 -293.004656 
L 711.697528 -287.914248 
L 711.956832 -282.82384 
L 712.201257 -277.733432 
L 712.43457 -272.643024 
L 712.666961 -267.552616 
L 712.911324 -262.462208 
L 713.175776 -257.3718 
L 713.455115 -252.281392 
L 713.733625 -247.190985 
L 713.994552 -242.100577 
L 714.219817 -237.010169 
L 714.375076 -231.919761 
L 714.387274 -226.829353 
L 714.138397 -221.738945 
L 713.497855 -216.648537 
L 712.383123 -211.558129 
L 710.836146 -206.467721 
L 709.089607 -201.377313 
L 707.518558 -196.286905 
L 706.426878 -191.196498 
z
" style="stroke: #6d6d6d; stroke-opacity: 0.9; stroke-width: 1.25"/>
    </defs>
    <g clip-path="url(#paace54d3ff)">
     <use xlink:href="#m013d16a111" x="0" y="770.741813" style="fill: #c0dca9; fill-opacity: 0.9; stroke: #6d6d6d; stroke-opacity: 0.9; stroke-width: 1.25"/>
    </g>
   </g>
   <g id="FillBetweenPolyCollection_9">
    <defs>
     <path id="m35d9b41168" d="M 884.795225 -178.433997 
L 884.749403 -178.433997 
L 884.660015 -183.611617 
L 884.54443 -188.789236 
L 884.458384 -193.966855 
L 884.416134 -199.144475 
L 884.405141 -204.322094 
L 884.419306 -209.499713 
L 884.449024 -214.677332 
L 884.482899 -219.854952 
L 884.515692 -225.032571 
L 884.546495 -230.21019 
L 884.576875 -235.38781 
L 884.60671 -240.565429 
L 884.63222 -245.743048 
L 884.653187 -250.920668 
L 884.671624 -256.098287 
L 884.688107 -261.275906 
L 884.701716 -266.453526 
L 884.71341 -271.631145 
L 884.723496 -276.808764 
L 884.731649 -281.986383 
L 884.740025 -287.164003 
L 884.74838 -292.341622 
L 884.754532 -297.519241 
L 884.758638 -302.696861 
L 884.762754 -307.87448 
L 884.767434 -313.052099 
L 884.771168 -318.229719 
L 884.77382 -323.407338 
L 884.775813 -328.584957 
L 884.777682 -333.762577 
L 884.780158 -338.940196 
L 884.782199 -344.117815 
L 884.783134 -349.295435 
L 884.783814 -354.473054 
L 884.784872 -359.650673 
L 884.785924 -364.828292 
L 884.786676 -370.005912 
L 884.787649 -375.183531 
L 884.788742 -380.36115 
L 884.789608 -385.53877 
L 884.790243 -390.716389 
L 884.790881 -395.894008 
L 884.791505 -401.071628 
L 884.792055 -406.249247 
L 884.792641 -411.426866 
L 884.792957 -416.604486 
L 884.792859 -421.782105 
L 884.792749 -426.959724 
L 884.793018 -432.137343 
L 884.793485 -437.314963 
L 884.79369 -442.492582 
L 884.79356 -447.670201 
L 884.793661 -452.847821 
L 884.793941 -458.02544 
L 884.794146 -463.203059 
L 884.794464 -468.380679 
L 884.794694 -473.558298 
L 884.794672 -478.735917 
L 884.794574 -483.913537 
L 884.794607 -489.091156 
L 884.794797 -494.268775 
L 884.794943 -499.446394 
L 884.794963 -504.624014 
L 884.794946 -509.801633 
L 884.79499 -514.979252 
L 884.795031 -520.156872 
L 884.795029 -525.334491 
L 884.795082 -530.51211 
L 884.795157 -535.68973 
L 884.795143 -540.867349 
L 884.79506 -546.044968 
L 884.795012 -551.222588 
L 884.794998 -556.400207 
L 884.795007 -561.577826 
L 884.795062 -566.755445 
L 884.795148 -571.933065 
L 884.795201 -577.110684 
L 884.795194 -582.288303 
L 884.795159 -587.465923 
L 884.795161 -592.643542 
L 884.795197 -597.821161 
L 884.795204 -602.998781 
L 884.795172 -608.1764 
L 884.795153 -613.354019 
L 884.795184 -618.531639 
L 884.795215 -623.709258 
L 884.795223 -628.886877 
L 884.795216 -634.064496 
L 884.795186 -639.242116 
L 884.795153 -644.419735 
L 884.79517 -649.597354 
L 884.795202 -654.774974 
L 884.795191 -659.952593 
L 884.795148 -665.130212 
L 884.795124 -670.307832 
L 884.795128 -675.485451 
L 884.795153 -680.66307 
L 884.79516 -685.84069 
L 884.79515 -691.018309 
L 884.795225 -691.018309 
L 884.795225 -691.018309 
L 884.795225 -685.84069 
L 884.795225 -680.66307 
L 884.795225 -675.485451 
L 884.795225 -670.307832 
L 884.795225 -665.130212 
L 884.795225 -659.952593 
L 884.795225 -654.774974 
L 884.795225 -649.597354 
L 884.795225 -644.419735 
L 884.795225 -639.242116 
L 884.795225 -634.064496 
L 884.795225 -628.886877 
L 884.795225 -623.709258 
L 884.795225 -618.531639 
L 884.795225 -613.354019 
L 884.795225 -608.1764 
L 884.795225 -602.998781 
L 884.795225 -597.821161 
L 884.795225 -592.643542 
L 884.795225 -587.465923 
L 884.795225 -582.288303 
L 884.795225 -577.110684 
L 884.795225 -571.933065 
L 884.795225 -566.755445 
L 884.795225 -561.577826 
L 884.795225 -556.400207 
L 884.795225 -551.222588 
L 884.795225 -546.044968 
L 884.795225 -540.867349 
L 884.795225 -535.68973 
L 884.795225 -530.51211 
L 884.795225 -525.334491 
L 884.795225 -520.156872 
L 884.795225 -514.979252 
L 884.795225 -509.801633 
L 884.795225 -504.624014 
L 884.795225 -499.446394 
L 884.795225 -494.268775 
L 884.795225 -489.091156 
L 884.795225 -483.913537 
L 884.795225 -478.735917 
L 884.795225 -473.558298 
L 884.795225 -468.380679 
L 884.795225 -463.203059 
L 884.795225 -458.02544 
L 884.795225 -452.847821 
L 884.795225 -447.670201 
L 884.795225 -442.492582 
L 884.795225 -437.314963 
L 884.795225 -432.137343 
L 884.795225 -426.959724 
L 884.795225 -421.782105 
L 884.795225 -416.604486 
L 884.795225 -411.426866 
L 884.795225 -406.249247 
L 884.795225 -401.071628 
L 884.795225 -395.894008 
L 884.795225 -390.716389 
L 884.795225 -385.53877 
L 884.795225 -380.36115 
L 884.795225 -375.183531 
L 884.795225 -370.005912 
L 884.795225 -364.828292 
L 884.795225 -359.650673 
L 884.795225 -354.473054 
L 884.795225 -349.295435 
L 884.795225 -344.117815 
L 884.795225 -338.940196 
L 884.795225 -333.762577 
L 884.795225 -328.584957 
L 884.795225 -323.407338 
L 884.795225 -318.229719 
L 884.795225 -313.052099 
L 884.795225 -307.87448 
L 884.795225 -302.696861 
L 884.795225 -297.519241 
L 884.795225 -292.341622 
L 884.795225 -287.164003 
L 884.795225 -281.986383 
L 884.795225 -276.808764 
L 884.795225 -271.631145 
L 884.795225 -266.453526 
L 884.795225 -261.275906 
L 884.795225 -256.098287 
L 884.795225 -250.920668 
L 884.795225 -245.743048 
L 884.795225 -240.565429 
L 884.795225 -235.38781 
L 884.795225 -230.21019 
L 884.795225 -225.032571 
L 884.795225 -219.854952 
L 884.795225 -214.677332 
L 884.795225 -209.499713 
L 884.795225 -204.322094 
L 884.795225 -199.144475 
L 884.795225 -193.966855 
L 884.795225 -188.789236 
L 884.795225 -183.611617 
L 884.795225 -178.433997 
z
" style="stroke: #6d6d6d; stroke-opacity: 0.9; stroke-width: 1.25"/>
    </defs>
    <g clip-path="url(#paace54d3ff)">
     <use xlink:href="#m35d9b41168" x="0" y="770.741813" style="fill: #ecbd81; fill-opacity: 0.9; stroke: #6d6d6d; stroke-opacity: 0.9; stroke-width: 1.25"/>
    </g>
   </g>
   <g id="patch_3">
    <path d="M 167.880025 596.915947 
L 167.880025 596.915947 
L 167.880025 596.915947 
L 167.880025 596.915947 
z
" clip-path="url(#paace54d3ff)" style="fill: #ecbd81; opacity: 0.9; stroke: #6d6d6d; stroke-width: 1.25; stroke-linejoin: miter"/>
   </g>
   <g id="patch_4">
    <path d="M 167.880025 596.915947 
L 167.880025 596.915947 
L 167.880025 596.915947 
L 167.880025 596.915947 
z
" clip-path="url(#paace54d3ff)" style="fill: #c0dca9; opacity: 0.9; stroke: #6d6d6d; stroke-width: 1.25; stroke-linejoin: miter"/>
   </g>
   <g id="line2d_10">
    <path d="M 165.067525 595.201347 
L 165.067525 399.455045 
" clip-path="url(#paace54d3ff)" style="fill: none; stroke: #6d6d6d; stroke-width: 1.875; stroke-linecap: round"/>
   </g>
   <g id="line2d_11">
    <path d="M 165.067525 546.166984 
L 165.067525 487.482137 
" clip-path="url(#paace54d3ff)" style="fill: none; stroke: #6d6d6d; stroke-width: 5.625; stroke-linecap: round"/>
   </g>
   <g id="line2d_12">
    <path d="M 165.067525 520.554924 
" clip-path="url(#paace54d3ff)" style="fill: none; stroke: #6d6d6d; stroke-width: 1.5; stroke-linecap: round"/>
    <defs>
     <path id="m9079cc7cb4" d="M 2.34375 0 
L -2.34375 -0 
" style="stroke: #ffffff; stroke-width: 1.125"/>
    </defs>
    <g clip-path="url(#paace54d3ff)">
     <use xlink:href="#m9079cc7cb4" x="165.067525" y="520.554924" style="fill: #ffffff; stroke: #ffffff; stroke-width: 1.125"/>
    </g>
   </g>
   <g id="line2d_13">
    <path d="M 170.692525 579.081429 
L 170.692525 75.579528 
" clip-path="url(#paace54d3ff)" style="fill: none; stroke: #6d6d6d; stroke-width: 1.875; stroke-linecap: round"/>
   </g>
   <g id="line2d_14">
    <path d="M 170.692525 472.421893 
L 170.692525 310.455553 
" clip-path="url(#paace54d3ff)" style="fill: none; stroke: #6d6d6d; stroke-width: 5.625; stroke-linecap: round"/>
   </g>
   <g id="line2d_15">
    <path d="M 170.692525 403.556838 
" clip-path="url(#paace54d3ff)" style="fill: none; stroke: #6d6d6d; stroke-width: 1.5; stroke-linecap: round"/>
    <g clip-path="url(#paace54d3ff)">
     <use xlink:href="#m9079cc7cb4" x="170.692525" y="403.556838" style="fill: #ffffff; stroke: #ffffff; stroke-width: 1.125"/>
    </g>
   </g>
   <g id="line2d_16">
    <path d="M 344.296325 594.054173 
L 344.296325 466.058272 
" clip-path="url(#paace54d3ff)" style="fill: none; stroke: #6d6d6d; stroke-width: 1.875; stroke-linecap: round"/>
   </g>
   <g id="line2d_17">
    <path d="M 344.296325 570.097808 
L 344.296325 528.481742 
" clip-path="url(#paace54d3ff)" style="fill: none; stroke: #6d6d6d; stroke-width: 5.625; stroke-linecap: round"/>
   </g>
   <g id="line2d_18">
    <path d="M 344.296325 553.670297 
" clip-path="url(#paace54d3ff)" style="fill: none; stroke: #6d6d6d; stroke-width: 1.5; stroke-linecap: round"/>
    <g clip-path="url(#paace54d3ff)">
     <use xlink:href="#m9079cc7cb4" x="344.296325" y="553.670297" style="fill: #ffffff; stroke: #ffffff; stroke-width: 1.125"/>
    </g>
   </g>
   <g id="line2d_19">
    <path d="M 349.921325 581.437122 
L 349.921325 124.647336 
" clip-path="url(#paace54d3ff)" style="fill: none; stroke: #6d6d6d; stroke-width: 1.875; stroke-linecap: round"/>
   </g>
   <g id="line2d_20">
    <path d="M 349.921325 507.308735 
L 349.921325 354.243945 
" clip-path="url(#paace54d3ff)" style="fill: none; stroke: #6d6d6d; stroke-width: 5.625; stroke-linecap: round"/>
   </g>
   <g id="line2d_21">
    <path d="M 349.921325 442.603408 
" clip-path="url(#paace54d3ff)" style="fill: none; stroke: #6d6d6d; stroke-width: 1.5; stroke-linecap: round"/>
    <g clip-path="url(#paace54d3ff)">
     <use xlink:href="#m9079cc7cb4" x="349.921325" y="442.603408" style="fill: #ffffff; stroke: #ffffff; stroke-width: 1.125"/>
    </g>
   </g>
   <g id="line2d_22">
    <path d="M 523.525125 592.886542 
L 523.525125 455.473765 
" clip-path="url(#paace54d3ff)" style="fill: none; stroke: #6d6d6d; stroke-width: 1.875; stroke-linecap: round"/>
   </g>
   <g id="line2d_23">
    <path d="M 523.525125 568.325789 
L 523.525125 523.184141 
" clip-path="url(#paace54d3ff)" style="fill: none; stroke: #6d6d6d; stroke-width: 5.625; stroke-linecap: round"/>
   </g>
   <g id="line2d_24">
    <path d="M 523.525125 550.153605 
" clip-path="url(#paace54d3ff)" style="fill: none; stroke: #6d6d6d; stroke-width: 1.5; stroke-linecap: round"/>
    <g clip-path="url(#paace54d3ff)">
     <use xlink:href="#m9079cc7cb4" x="523.525125" y="550.153605" style="fill: #ffffff; stroke: #ffffff; stroke-width: 1.125"/>
    </g>
   </g>
   <g id="line2d_25">
    <path d="M 529.150125 581.627441 
L 529.150125 167.456848 
" clip-path="url(#paace54d3ff)" style="fill: none; stroke: #6d6d6d; stroke-width: 1.875; stroke-linecap: round"/>
   </g>
   <g id="line2d_26">
    <path d="M 529.150125 520.02066 
L 529.150125 378.994792 
" clip-path="url(#paace54d3ff)" style="fill: none; stroke: #6d6d6d; stroke-width: 5.625; stroke-linecap: round"/>
   </g>
   <g id="line2d_27">
    <path d="M 529.150125 464.638488 
" clip-path="url(#paace54d3ff)" style="fill: none; stroke: #6d6d6d; stroke-width: 1.5; stroke-linecap: round"/>
    <g clip-path="url(#paace54d3ff)">
     <use xlink:href="#m9079cc7cb4" x="529.150125" y="464.638488" style="fill: #ffffff; stroke: #ffffff; stroke-width: 1.125"/>
    </g>
   </g>
   <g id="line2d_28">
    <path d="M 702.753925 592.363618 
L 702.753925 439.295742 
" clip-path="url(#paace54d3ff)" style="fill: none; stroke: #6d6d6d; stroke-width: 1.875; stroke-linecap: round"/>
   </g>
   <g id="line2d_29">
    <path d="M 702.753925 566.230318 
L 702.753925 515.452836 
" clip-path="url(#paace54d3ff)" style="fill: none; stroke: #6d6d6d; stroke-width: 5.625; stroke-linecap: round"/>
   </g>
   <g id="line2d_30">
    <path d="M 702.753925 546.010649 
" clip-path="url(#paace54d3ff)" style="fill: none; stroke: #6d6d6d; stroke-width: 1.5; stroke-linecap: round"/>
    <g clip-path="url(#paace54d3ff)">
     <use xlink:href="#m9079cc7cb4" x="702.753925" y="546.010649" style="fill: #ffffff; stroke: #ffffff; stroke-width: 1.125"/>
    </g>
   </g>
   <g id="line2d_31">
    <path d="M 708.378925 579.545315 
L 708.378925 170.218836 
" clip-path="url(#paace54d3ff)" style="fill: none; stroke: #6d6d6d; stroke-width: 1.875; stroke-linecap: round"/>
   </g>
   <g id="line2d_32">
    <path d="M 708.378925 525.508186 
L 708.378925 383.387443 
" clip-path="url(#paace54d3ff)" style="fill: none; stroke: #6d6d6d; stroke-width: 5.625; stroke-linecap: round"/>
   </g>
   <g id="line2d_33">
    <path d="M 708.378925 473.121507 
" clip-path="url(#paace54d3ff)" style="fill: none; stroke: #6d6d6d; stroke-width: 1.5; stroke-linecap: round"/>
    <g clip-path="url(#paace54d3ff)">
     <use xlink:href="#m9079cc7cb4" x="708.378925" y="473.121507" style="fill: #ffffff; stroke: #ffffff; stroke-width: 1.125"/>
    </g>
   </g>
   <g id="line2d_34">
    <path d="M 881.982725 592.307815 
L 881.982725 459.459321 
" clip-path="url(#paace54d3ff)" style="fill: none; stroke: #6d6d6d; stroke-width: 1.875; stroke-linecap: round"/>
   </g>
   <g id="line2d_35">
    <path d="M 881.982725 568.237898 
L 881.982725 524.709916 
" clip-path="url(#paace54d3ff)" style="fill: none; stroke: #6d6d6d; stroke-width: 5.625; stroke-linecap: round"/>
   </g>
   <g id="line2d_36">
    <path d="M 881.982725 551.439615 
" clip-path="url(#paace54d3ff)" style="fill: none; stroke: #6d6d6d; stroke-width: 1.5; stroke-linecap: round"/>
    <g clip-path="url(#paace54d3ff)">
     <use xlink:href="#m9079cc7cb4" x="881.982725" y="551.439615" style="fill: #ffffff; stroke: #ffffff; stroke-width: 1.125"/>
    </g>
   </g>
   <g id="patch_5">
    <path d="M 78.265625 621.182438 
L 78.265625 49.598438 
" style="fill: none; stroke: #cccccc; stroke-width: 1.25; stroke-linejoin: miter; stroke-linecap: square"/>
   </g>
   <g id="patch_6">
    <path d="M 974.409625 621.182438 
L 974.409625 49.598438 
" style="fill: none; stroke: #cccccc; stroke-width: 1.25; stroke-linejoin: miter; stroke-linecap: square"/>
   </g>
   <g id="patch_7">
    <path d="M 78.265625 621.182437 
L 974.409625 621.182437 
" style="fill: none; stroke: #cccccc; stroke-width: 1.25; stroke-linejoin: miter; stroke-linecap: square"/>
   </g>
   <g id="patch_8">
    <path d="M 78.265625 49.598438 
L 974.409625 49.598438 
" style="fill: none; stroke: #cccccc; stroke-width: 1.25; stroke-linejoin: miter; stroke-linecap: square"/>
   </g>
   <g id="text_17">
    <!-- Split violin plot of distances by Level One Cell Type (Density Normalization: count) -->
    <g style="fill: #262626" transform="translate(320.843094 43.598438) scale(0.1 -0.1)">
     <defs>
      <path id="DejaVuSans-53" d="M 3425 4513 
L 3425 3897 
Q 3066 4069 2747 4153 
Q 2428 4238 2131 4238 
Q 1616 4238 1336 4038 
Q 1056 3838 1056 3469 
Q 1056 3159 1242 3001 
Q 1428 2844 1947 2747 
L 2328 2669 
Q 3034 2534 3370 2195 
Q 3706 1856 3706 1288 
Q 3706 609 3251 259 
Q 2797 -91 1919 -91 
Q 1588 -91 1214 -16 
Q 841 59 441 206 
L 441 856 
Q 825 641 1194 531 
Q 1563 422 1919 422 
Q 2459 422 2753 634 
Q 3047 847 3047 1241 
Q 3047 1584 2836 1778 
Q 2625 1972 2144 2069 
L 1759 2144 
Q 1053 2284 737 2584 
Q 422 2884 422 3419 
Q 422 4038 858 4394 
Q 1294 4750 2059 4750 
Q 2388 4750 2728 4690 
Q 3069 4631 3425 4513 
z
" transform="scale(0.015625)"/>
      <path id="DejaVuSans-76" d="M 191 3500 
L 800 3500 
L 1894 563 
L 2988 3500 
L 3597 3500 
L 2284 0 
L 1503 0 
L 191 3500 
z
" transform="scale(0.015625)"/>
      <path id="DejaVuSans-66" d="M 2375 4863 
L 2375 4384 
L 1825 4384 
Q 1516 4384 1395 4259 
Q 1275 4134 1275 3809 
L 1275 3500 
L 2222 3500 
L 2222 3053 
L 1275 3053 
L 1275 0 
L 697 0 
L 697 3053 
L 147 3053 
L 147 3500 
L 697 3500 
L 697 3744 
Q 697 4328 969 4595 
Q 1241 4863 1831 4863 
L 2375 4863 
z
" transform="scale(0.015625)"/>
      <path id="DejaVuSans-64" d="M 2906 2969 
L 2906 4863 
L 3481 4863 
L 3481 0 
L 2906 0 
L 2906 525 
Q 2725 213 2448 61 
Q 2172 -91 1784 -91 
Q 1150 -91 751 415 
Q 353 922 353 1747 
Q 353 2572 751 3078 
Q 1150 3584 1784 3584 
Q 2172 3584 2448 3432 
Q 2725 3281 2906 2969 
z
M 947 1747 
Q 947 1113 1208 752 
Q 1469 391 1925 391 
Q 2381 391 2643 752 
Q 2906 1113 2906 1747 
Q 2906 2381 2643 2742 
Q 2381 3103 1925 3103 
Q 1469 3103 1208 2742 
Q 947 2381 947 1747 
z
" transform="scale(0.015625)"/>
      <path id="DejaVuSans-62" d="M 3116 1747 
Q 3116 2381 2855 2742 
Q 2594 3103 2138 3103 
Q 1681 3103 1420 2742 
Q 1159 2381 1159 1747 
Q 1159 1113 1420 752 
Q 1681 391 2138 391 
Q 2594 391 2855 752 
Q 3116 1113 3116 1747 
z
M 1159 2969 
Q 1341 3281 1617 3432 
Q 1894 3584 2278 3584 
Q 2916 3584 3314 3078 
Q 3713 2572 3713 1747 
Q 3713 922 3314 415 
Q 2916 -91 2278 -91 
Q 1894 -91 1617 61 
Q 1341 213 1159 525 
L 1159 0 
L 581 0 
L 581 4863 
L 1159 4863 
L 1159 2969 
z
" transform="scale(0.015625)"/>
      <path id="DejaVuSans-4c" d="M 628 4666 
L 1259 4666 
L 1259 531 
L 3531 531 
L 3531 0 
L 628 0 
L 628 4666 
z
" transform="scale(0.015625)"/>
      <path id="DejaVuSans-4f" d="M 2522 4238 
Q 1834 4238 1429 3725 
Q 1025 3213 1025 2328 
Q 1025 1447 1429 934 
Q 1834 422 2522 422 
Q 3209 422 3611 934 
Q 4013 1447 4013 2328 
Q 4013 3213 3611 3725 
Q 3209 4238 2522 4238 
z
M 2522 4750 
Q 3503 4750 4090 4092 
Q 4678 3434 4678 2328 
Q 4678 1225 4090 567 
Q 3503 -91 2522 -91 
Q 1538 -91 948 565 
Q 359 1222 359 2328 
Q 359 3434 948 4092 
Q 1538 4750 2522 4750 
z
" transform="scale(0.015625)"/>
      <path id="DejaVuSans-4e" d="M 628 4666 
L 1478 4666 
L 3547 763 
L 3547 4666 
L 4159 4666 
L 4159 0 
L 3309 0 
L 1241 3903 
L 1241 0 
L 628 0 
L 628 4666 
z
" transform="scale(0.015625)"/>
      <path id="DejaVuSans-7a" d="M 353 3500 
L 3084 3500 
L 3084 2975 
L 922 459 
L 3084 459 
L 3084 0 
L 275 0 
L 275 525 
L 2438 3041 
L 353 3041 
L 353 3500 
z
" transform="scale(0.015625)"/>
      <path id="DejaVuSans-3a" d="M 750 794 
L 1409 794 
L 1409 0 
L 750 0 
L 750 794 
z
M 750 3309 
L 1409 3309 
L 1409 2516 
L 750 2516 
L 750 3309 
z
" transform="scale(0.015625)"/>
     </defs>
     <use xlink:href="#DejaVuSans-53"/>
     <use xlink:href="#DejaVuSans-70" transform="translate(63.476562 0)"/>
     <use xlink:href="#DejaVuSans-6c" transform="translate(126.953125 0)"/>
     <use xlink:href="#DejaVuSans-69" transform="translate(154.736328 0)"/>
     <use xlink:href="#DejaVuSans-74" transform="translate(182.519531 0)"/>
     <use xlink:href="#DejaVuSans-20" transform="translate(221.728516 0)"/>
     <use xlink:href="#DejaVuSans-76" transform="translate(253.515625 0)"/>
     <use xlink:href="#DejaVuSans-69" transform="translate(312.695312 0)"/>
     <use xlink:href="#DejaVuSans-6f" transform="translate(340.478516 0)"/>
     <use xlink:href="#DejaVuSans-6c" transform="translate(401.660156 0)"/>
     <use xlink:href="#DejaVuSans-69" transform="translate(429.443359 0)"/>
     <use xlink:href="#DejaVuSans-6e" transform="translate(457.226562 0)"/>
     <use xlink:href="#DejaVuSans-20" transform="translate(520.605469 0)"/>
     <use xlink:href="#DejaVuSans-70" transform="translate(552.392578 0)"/>
     <use xlink:href="#DejaVuSans-6c" transform="translate(615.869141 0)"/>
     <use xlink:href="#DejaVuSans-6f" transform="translate(643.652344 0)"/>
     <use xlink:href="#DejaVuSans-74" transform="translate(704.833984 0)"/>
     <use xlink:href="#DejaVuSans-20" transform="translate(744.042969 0)"/>
     <use xlink:href="#DejaVuSans-6f" transform="translate(775.830078 0)"/>
     <use xlink:href="#DejaVuSans-66" transform="translate(837.011719 0)"/>
     <use xlink:href="#DejaVuSans-20" transform="translate(872.216797 0)"/>
     <use xlink:href="#DejaVuSans-64" transform="translate(904.003906 0)"/>
     <use xlink:href="#DejaVuSans-69" transform="translate(967.480469 0)"/>
     <use xlink:href="#DejaVuSans-73" transform="translate(995.263672 0)"/>
     <use xlink:href="#DejaVuSans-74" transform="translate(1047.363281 0)"/>
     <use xlink:href="#DejaVuSans-61" transform="translate(1086.572266 0)"/>
     <use xlink:href="#DejaVuSans-6e" transform="translate(1147.851562 0)"/>
     <use xlink:href="#DejaVuSans-63" transform="translate(1211.230469 0)"/>
     <use xlink:href="#DejaVuSans-65" transform="translate(1266.210938 0)"/>
     <use xlink:href="#DejaVuSans-73" transform="translate(1327.734375 0)"/>
     <use xlink:href="#DejaVuSans-20" transform="translate(1379.833984 0)"/>
     <use xlink:href="#DejaVuSans-62" transform="translate(1411.621094 0)"/>
     <use xlink:href="#DejaVuSans-79" transform="translate(1475.097656 0)"/>
     <use xlink:href="#DejaVuSans-20" transform="translate(1534.277344 0)"/>
     <use xlink:href="#DejaVuSans-4c" transform="translate(1566.064453 0)"/>
     <use xlink:href="#DejaVuSans-65" transform="translate(1620.027344 0)"/>
     <use xlink:href="#DejaVuSans-76" transform="translate(1681.550781 0)"/>
     <use xlink:href="#DejaVuSans-65" transform="translate(1740.730469 0)"/>
     <use xlink:href="#DejaVuSans-6c" transform="translate(1802.253906 0)"/>
     <use xlink:href="#DejaVuSans-20" transform="translate(1830.037109 0)"/>
     <use xlink:href="#DejaVuSans-4f" transform="translate(1861.824219 0)"/>
     <use xlink:href="#DejaVuSans-6e" transform="translate(1940.535156 0)"/>
     <use xlink:href="#DejaVuSans-65" transform="translate(2003.914062 0)"/>
     <use xlink:href="#DejaVuSans-20" transform="translate(2065.4375 0)"/>
     <use xlink:href="#DejaVuSans-43" transform="translate(2097.224609 0)"/>
     <use xlink:href="#DejaVuSans-65" transform="translate(2167.048828 0)"/>
     <use xlink:href="#DejaVuSans-6c" transform="translate(2228.572266 0)"/>
     <use xlink:href="#DejaVuSans-6c" transform="translate(2256.355469 0)"/>
     <use xlink:href="#DejaVuSans-20" transform="translate(2284.138672 0)"/>
     <use xlink:href="#DejaVuSans-54" transform="translate(2315.925781 0)"/>
     <use xlink:href="#DejaVuSans-79" transform="translate(2361.384766 0)"/>
     <use xlink:href="#DejaVuSans-70" transform="translate(2420.564453 0)"/>
     <use xlink:href="#DejaVuSans-65" transform="translate(2484.041016 0)"/>
     <use xlink:href="#DejaVuSans-20" transform="translate(2545.564453 0)"/>
     <use xlink:href="#DejaVuSans-28" transform="translate(2577.351562 0)"/>
     <use xlink:href="#DejaVuSans-44" transform="translate(2616.365234 0)"/>
     <use xlink:href="#DejaVuSans-65" transform="translate(2693.367188 0)"/>
     <use xlink:href="#DejaVuSans-6e" transform="translate(2754.890625 0)"/>
     <use xlink:href="#DejaVuSans-73" transform="translate(2818.269531 0)"/>
     <use xlink:href="#DejaVuSans-69" transform="translate(2870.369141 0)"/>
     <use xlink:href="#DejaVuSans-74" transform="translate(2898.152344 0)"/>
     <use xlink:href="#DejaVuSans-79" transform="translate(2937.361328 0)"/>
     <use xlink:href="#DejaVuSans-20" transform="translate(2996.541016 0)"/>
     <use xlink:href="#DejaVuSans-4e" transform="translate(3028.328125 0)"/>
     <use xlink:href="#DejaVuSans-6f" transform="translate(3103.132812 0)"/>
     <use xlink:href="#DejaVuSans-72" transform="translate(3164.314453 0)"/>
     <use xlink:href="#DejaVuSans-6d" transform="translate(3203.677734 0)"/>
     <use xlink:href="#DejaVuSans-61" transform="translate(3301.089844 0)"/>
     <use xlink:href="#DejaVuSans-6c" transform="translate(3362.369141 0)"/>
     <use xlink:href="#DejaVuSans-69" transform="translate(3390.152344 0)"/>
     <use xlink:href="#DejaVuSans-7a" transform="translate(3417.935547 0)"/>
     <use xlink:href="#DejaVuSans-61" transform="translate(3470.425781 0)"/>
     <use xlink:href="#DejaVuSans-74" transform="translate(3531.705078 0)"/>
     <use xlink:href="#DejaVuSans-69" transform="translate(3570.914062 0)"/>
     <use xlink:href="#DejaVuSans-6f" transform="translate(3598.697266 0)"/>
     <use xlink:href="#DejaVuSans-6e" transform="translate(3659.878906 0)"/>
     <use xlink:href="#DejaVuSans-3a" transform="translate(3723.257812 0)"/>
     <use xlink:href="#DejaVuSans-20" transform="translate(3756.949219 0)"/>
     <use xlink:href="#DejaVuSans-63" transform="translate(3788.736328 0)"/>
     <use xlink:href="#DejaVuSans-6f" transform="translate(3843.716797 0)"/>
     <use xlink:href="#DejaVuSans-75" transform="translate(3904.898438 0)"/>
     <use xlink:href="#DejaVuSans-6e" transform="translate(3968.277344 0)"/>
     <use xlink:href="#DejaVuSans-74" transform="translate(4031.65625 0)"/>
     <use xlink:href="#DejaVuSans-29" transform="translate(4070.865234 0)"/>
    </g>
   </g>
   <g id="legend_1">
    <g id="patch_9">
     <path d="M 987.751538 86.954688 
L 1101.831225 86.954688 
Q 1103.831225 86.954688 1103.831225 84.954688 
L 1103.831225 56.598438 
Q 1103.831225 54.598438 1101.831225 54.598438 
L 987.751538 54.598438 
Q 985.751538 54.598438 985.751538 56.598438 
L 985.751538 84.954688 
Q 985.751538 86.954688 987.751538 86.954688 
z
" style="fill: #ffffff; opacity: 0.8; stroke: #cccccc; stroke-width: 0.8; stroke-linejoin: miter"/>
    </g>
    <g id="patch_10">
     <path d="M 989.751538 66.196875 
L 1009.751538 66.196875 
L 1009.751538 59.196875 
L 989.751538 59.196875 
z
" style="fill: #ecbd81; opacity: 0.9; stroke: #6d6d6d; stroke-width: 1.25; stroke-linejoin: miter"/>
    </g>
    <g id="text_18">
     <!-- xenium-stanford -->
     <g style="fill: #262626" transform="translate(1017.751538 66.196875) scale(0.1 -0.1)">
      <defs>
       <path id="DejaVuSans-78" d="M 3513 3500 
L 2247 1797 
L 3578 0 
L 2900 0 
L 1881 1375 
L 863 0 
L 184 0 
L 1544 1831 
L 300 3500 
L 978 3500 
L 1906 2253 
L 2834 3500 
L 3513 3500 
z
" transform="scale(0.015625)"/>
       <path id="DejaVuSans-2d" d="M 313 2009 
L 1997 2009 
L 1997 1497 
L 313 1497 
L 313 2009 
z
" transform="scale(0.015625)"/>
      </defs>
      <use xlink:href="#DejaVuSans-78"/>
      <use xlink:href="#DejaVuSans-65" transform="translate(56.054688 0)"/>
      <use xlink:href="#DejaVuSans-6e" transform="translate(117.578125 0)"/>
      <use xlink:href="#DejaVuSans-69" transform="translate(180.957031 0)"/>
      <use xlink:href="#DejaVuSans-75" transform="translate(208.740234 0)"/>
      <use xlink:href="#DejaVuSans-6d" transform="translate(272.119141 0)"/>
      <use xlink:href="#DejaVuSans-2d" transform="translate(369.53125 0)"/>
      <use xlink:href="#DejaVuSans-73" transform="translate(405.615234 0)"/>
      <use xlink:href="#DejaVuSans-74" transform="translate(457.714844 0)"/>
      <use xlink:href="#DejaVuSans-61" transform="translate(496.923828 0)"/>
      <use xlink:href="#DejaVuSans-6e" transform="translate(558.203125 0)"/>
      <use xlink:href="#DejaVuSans-66" transform="translate(621.582031 0)"/>
      <use xlink:href="#DejaVuSans-6f" transform="translate(656.787109 0)"/>
      <use xlink:href="#DejaVuSans-72" transform="translate(717.96875 0)"/>
      <use xlink:href="#DejaVuSans-64" transform="translate(757.332031 0)"/>
     </g>
    </g>
    <g id="patch_11">
     <path d="M 989.751538 80.875 
L 1009.751538 80.875 
L 1009.751538 73.875 
L 989.751538 73.875 
z
" style="fill: #c0dca9; opacity: 0.9; stroke: #6d6d6d; stroke-width: 1.25; stroke-linejoin: miter"/>
    </g>
    <g id="text_19">
     <!-- cycif-sorgerlab -->
     <g style="fill: #262626" transform="translate(1017.751538 80.875) scale(0.1 -0.1)">
      <defs>
       <path id="DejaVuSans-67" d="M 2906 1791 
Q 2906 2416 2648 2759 
Q 2391 3103 1925 3103 
Q 1463 3103 1205 2759 
Q 947 2416 947 1791 
Q 947 1169 1205 825 
Q 1463 481 1925 481 
Q 2391 481 2648 825 
Q 2906 1169 2906 1791 
z
M 3481 434 
Q 3481 -459 3084 -895 
Q 2688 -1331 1869 -1331 
Q 1566 -1331 1297 -1286 
Q 1028 -1241 775 -1147 
L 775 -588 
Q 1028 -725 1275 -790 
Q 1522 -856 1778 -856 
Q 2344 -856 2625 -561 
Q 2906 -266 2906 331 
L 2906 616 
Q 2728 306 2450 153 
Q 2172 0 1784 0 
Q 1141 0 747 490 
Q 353 981 353 1791 
Q 353 2603 747 3093 
Q 1141 3584 1784 3584 
Q 2172 3584 2450 3431 
Q 2728 3278 2906 2969 
L 2906 3500 
L 3481 3500 
L 3481 434 
z
" transform="scale(0.015625)"/>
      </defs>
      <use xlink:href="#DejaVuSans-63"/>
      <use xlink:href="#DejaVuSans-79" transform="translate(54.980469 0)"/>
      <use xlink:href="#DejaVuSans-63" transform="translate(114.160156 0)"/>
      <use xlink:href="#DejaVuSans-69" transform="translate(169.140625 0)"/>
      <use xlink:href="#DejaVuSans-66" transform="translate(196.923828 0)"/>
      <use xlink:href="#DejaVuSans-2d" transform="translate(226.628906 0)"/>
      <use xlink:href="#DejaVuSans-73" transform="translate(262.712891 0)"/>
      <use xlink:href="#DejaVuSans-6f" transform="translate(314.8125 0)"/>
      <use xlink:href="#DejaVuSans-72" transform="translate(375.994141 0)"/>
      <use xlink:href="#DejaVuSans-67" transform="translate(415.357422 0)"/>
      <use xlink:href="#DejaVuSans-65" transform="translate(478.833984 0)"/>
      <use xlink:href="#DejaVuSans-72" transform="translate(540.357422 0)"/>
      <use xlink:href="#DejaVuSans-6c" transform="translate(581.470703 0)"/>
      <use xlink:href="#DejaVuSans-61" transform="translate(609.253906 0)"/>
      <use xlink:href="#DejaVuSans-62" transform="translate(670.533203 0)"/>
     </g>
    </g>
   </g>
  </g>
 </g>
 <defs>
  <clipPath id="paace54d3ff">
   <rect x="78.265625" y="49.598438" width="896.144" height="571.584"/>
  </clipPath>
 </defs>
</svg>
