<?xml version="1.0" encoding="utf-8" standalone="no"?>
<!DOCTYPE svg PUBLIC "-//W3C//DTD SVG 1.1//EN"
  "http://www.w3.org/Graphics/SVG/1.1/DTD/svg11.dtd">
<svg xmlns:xlink="http://www.w3.org/1999/xlink" width="765.775625pt" height="1173.6pt" viewBox="0 0 765.775625 1173.6" xmlns="http://www.w3.org/2000/svg" version="1.1">
 <metadata>
  <rdf:RDF xmlns:dc="http://purl.org/dc/elements/1.1/" xmlns:cc="http://creativecommons.org/ns#" xmlns:rdf="http://www.w3.org/1999/02/22-rdf-syntax-ns#">
   <cc:Work>
    <dc:type rdf:resource="http://purl.org/dc/dcmitype/StillImage"/>
    <dc:date>2025-08-04T14:49:08.142372</dc:date>
    <dc:format>image/svg+xml</dc:format>
    <dc:creator>
     <cc:Agent>
      <dc:title>Matplotlib v3.10.3, https://matplotlib.org/</dc:title>
     </cc:Agent>
    </dc:creator>
   </cc:Work>
  </rdf:RDF>
 </metadata>
 <defs>
  <style type="text/css">*{stroke-linejoin: round; stroke-linecap: butt}</style>
 </defs>
 <g id="figure_1">
  <g id="patch_1">
   <path d="M 0 1173.6 
L 765.775625 1173.6 
L 765.775625 0 
L 0 0 
z
" style="fill: #ffffff"/>
  </g>
  <g id="axes_1">
   <g id="patch_2">
    <path d="M 78.265625 531.38 
L 729.775625 531.38 
L 729.775625 86.28 
L 78.265625 86.28 
z
" style="fill: #ffffff"/>
   </g>
   <g id="matplotlib.axis_1">
    <g id="xtick_1"/>
    <g id="xtick_2"/>
    <g id="xtick_3"/>
    <g id="xtick_4"/>
    <g id="xtick_5"/>
   </g>
   <g id="matplotlib.axis_2">
    <g id="ytick_1">
     <g id="line2d_1">
      <path d="M 78.265625 512.483392 
L 729.775625 512.483392 
" clip-path="url(#p832fbb0259)" style="fill: none; stroke: #cccccc; stroke-linecap: round"/>
     </g>
     <g id="text_1">
      <text style="font-size: 10px; font-family: 'Arial', 'DejaVu Sans', 'Liberation Sans', 'Bitstream Vera Sans', sans-serif; text-anchor: end; fill: #262626" x="68.765625" y="516.282611" transform="rotate(-0 68.765625 516.282611)">0</text>
     </g>
    </g>
    <g id="ytick_2">
     <g id="line2d_2">
      <path d="M 78.265625 461.73588 
L 729.775625 461.73588 
" clip-path="url(#p832fbb0259)" style="fill: none; stroke: #cccccc; stroke-linecap: round"/>
     </g>
     <g id="text_2">
      <text style="font-size: 10px; font-family: 'Arial', 'DejaVu Sans', 'Liberation Sans', 'Bitstream Vera Sans', sans-serif; text-anchor: end; fill: #262626" x="68.765625" y="465.535099" transform="rotate(-0 68.765625 465.535099)">25</text>
     </g>
    </g>
    <g id="ytick_3">
     <g id="line2d_3">
      <path d="M 78.265625 410.988368 
L 729.775625 410.988368 
" clip-path="url(#p832fbb0259)" style="fill: none; stroke: #cccccc; stroke-linecap: round"/>
     </g>
     <g id="text_3">
      <text style="font-size: 10px; font-family: 'Arial', 'DejaVu Sans', 'Liberation Sans', 'Bitstream Vera Sans', sans-serif; text-anchor: end; fill: #262626" x="68.765625" y="414.787587" transform="rotate(-0 68.765625 414.787587)">50</text>
     </g>
    </g>
    <g id="ytick_4">
     <g id="line2d_4">
      <path d="M 78.265625 360.240856 
L 729.775625 360.240856 
" clip-path="url(#p832fbb0259)" style="fill: none; stroke: #cccccc; stroke-linecap: round"/>
     </g>
     <g id="text_4">
      <text style="font-size: 10px; font-family: 'Arial', 'DejaVu Sans', 'Liberation Sans', 'Bitstream Vera Sans', sans-serif; text-anchor: end; fill: #262626" x="68.765625" y="364.040075" transform="rotate(-0 68.765625 364.040075)">75</text>
     </g>
    </g>
    <g id="ytick_5">
     <g id="line2d_5">
      <path d="M 78.265625 309.493344 
L 729.775625 309.493344 
" clip-path="url(#p832fbb0259)" style="fill: none; stroke: #cccccc; stroke-linecap: round"/>
     </g>
     <g id="text_5">
      <text style="font-size: 10px; font-family: 'Arial', 'DejaVu Sans', 'Liberation Sans', 'Bitstream Vera Sans', sans-serif; text-anchor: end; fill: #262626" x="68.765625" y="313.292563" transform="rotate(-0 68.765625 313.292563)">100</text>
     </g>
    </g>
    <g id="ytick_6">
     <g id="line2d_6">
      <path d="M 78.265625 258.745832 
L 729.775625 258.745832 
" clip-path="url(#p832fbb0259)" style="fill: none; stroke: #cccccc; stroke-linecap: round"/>
     </g>
     <g id="text_6">
      <text style="font-size: 10px; font-family: 'Arial', 'DejaVu Sans', 'Liberation Sans', 'Bitstream Vera Sans', sans-serif; text-anchor: end; fill: #262626" x="68.765625" y="262.545051" transform="rotate(-0 68.765625 262.545051)">125</text>
     </g>
    </g>
    <g id="ytick_7">
     <g id="line2d_7">
      <path d="M 78.265625 207.99832 
L 729.775625 207.99832 
" clip-path="url(#p832fbb0259)" style="fill: none; stroke: #cccccc; stroke-linecap: round"/>
     </g>
     <g id="text_7">
      <text style="font-size: 10px; font-family: 'Arial', 'DejaVu Sans', 'Liberation Sans', 'Bitstream Vera Sans', sans-serif; text-anchor: end; fill: #262626" x="68.765625" y="211.797539" transform="rotate(-0 68.765625 211.797539)">150</text>
     </g>
    </g>
    <g id="ytick_8">
     <g id="line2d_8">
      <path d="M 78.265625 157.250808 
L 729.775625 157.250808 
" clip-path="url(#p832fbb0259)" style="fill: none; stroke: #cccccc; stroke-linecap: round"/>
     </g>
     <g id="text_8">
      <text style="font-size: 10px; font-family: 'Arial', 'DejaVu Sans', 'Liberation Sans', 'Bitstream Vera Sans', sans-serif; text-anchor: end; fill: #262626" x="68.765625" y="161.050027" transform="rotate(-0 68.765625 161.050027)">175</text>
     </g>
    </g>
    <g id="ytick_9">
     <g id="line2d_9">
      <path d="M 78.265625 106.503297 
L 729.775625 106.503297 
" clip-path="url(#p832fbb0259)" style="fill: none; stroke: #cccccc; stroke-linecap: round"/>
     </g>
     <g id="text_9">
      <text style="font-size: 10px; font-family: 'Arial', 'DejaVu Sans', 'Liberation Sans', 'Bitstream Vera Sans', sans-serif; text-anchor: end; fill: #262626" x="68.765625" y="110.302515" transform="rotate(-0 68.765625 110.302515)">200</text>
     </g>
    </g>
    <g id="text_10">
     <text style="font-size: 10px; font-family: 'Arial', 'DejaVu Sans', 'Liberation Sans', 'Bitstream Vera Sans', sans-serif; text-anchor: middle; fill: #262626" x="43.598437" y="308.83" transform="rotate(-90 43.598437 308.83)">Distance (μm)</text>
    </g>
   </g>
   <g id="FillBetweenPolyCollection_1">
    <defs>
     <path id="md0ab9996db" d="M 143.592679 -662.451818 
L 143.240571 -662.451818 
L 140.648555 -666.538909 
L 133.448359 -670.626 
L 126.537085 -674.713091 
L 120.008841 -678.800182 
L 113.05066 -682.887273 
L 106.691394 -686.974364 
L 101.138625 -691.061454 
L 96.865014 -695.148545 
L 93.82934 -699.235636 
L 92.073831 -703.322727 
L 91.295825 -707.409818 
L 91.51271 -711.496909 
L 92.521656 -715.584 
L 93.978012 -719.671091 
L 96.262544 -723.758181 
L 99.106149 -727.845272 
L 102.277821 -731.932363 
L 105.772089 -736.019454 
L 108.88318 -740.106545 
L 112.021127 -744.193636 
L 115.050738 -748.280727 
L 117.911604 -752.367818 
L 120.594693 -756.454909 
L 123.177014 -760.541999 
L 125.477653 -764.62909 
L 127.599225 -768.716181 
L 129.526404 -772.803272 
L 131.098781 -776.890363 
L 132.485192 -780.977454 
L 133.791222 -785.064545 
L 134.920236 -789.151636 
L 135.92695 -793.238727 
L 136.888205 -797.325817 
L 137.707369 -801.412908 
L 138.357304 -805.499999 
L 138.977183 -809.58709 
L 139.513991 -813.674181 
L 140.033712 -817.761272 
L 140.46089 -821.848363 
L 140.784304 -825.935454 
L 141.067457 -830.022545 
L 141.337573 -834.109635 
L 141.584026 -838.196726 
L 141.767765 -842.283817 
L 141.970833 -846.370908 
L 142.175174 -850.457999 
L 142.285694 -854.54509 
L 142.412372 -858.632181 
L 142.498864 -862.719272 
L 142.610024 -866.806363 
L 142.694068 -870.893453 
L 142.764576 -874.980544 
L 142.813193 -879.067635 
L 142.868993 -883.154726 
L 142.946594 -887.241817 
L 142.993879 -891.328908 
L 143.026291 -895.415999 
L 143.06275 -899.50309 
L 143.092161 -903.59018 
L 143.115268 -907.677271 
L 143.148558 -911.764362 
L 143.168096 -915.851453 
L 143.179808 -919.938544 
L 143.194915 -924.025635 
L 143.209734 -928.112726 
L 143.213429 -932.199817 
L 143.223155 -936.286908 
L 143.247862 -940.373998 
L 143.259887 -944.461089 
L 143.257278 -948.54818 
L 143.261592 -952.635271 
L 143.26543 -956.722362 
L 143.26869 -960.809453 
L 143.269701 -964.896544 
L 143.290251 -968.983635 
L 143.305715 -973.070726 
L 143.306435 -977.157816 
L 143.314569 -981.244907 
L 143.322597 -985.331998 
L 143.333014 -989.419089 
L 143.336348 -993.50618 
L 143.333596 -997.593271 
L 143.351009 -1001.680362 
L 143.353438 -1005.767453 
L 143.348072 -1009.854544 
L 143.351337 -1013.941634 
L 143.360907 -1018.028725 
L 143.362216 -1022.115816 
L 143.358322 -1026.202907 
L 143.352649 -1030.289998 
L 143.359412 -1034.377089 
L 143.364892 -1038.46418 
L 143.373703 -1042.551271 
L 143.373594 -1046.638362 
L 143.372718 -1050.725452 
L 143.375405 -1054.812543 
L 143.381737 -1058.899634 
L 143.379145 -1062.986725 
L 143.398525 -1067.073816 
L 143.434725 -1067.073816 
L 143.434725 -1067.073816 
L 143.454105 -1062.986725 
L 143.451513 -1058.899634 
L 143.457845 -1054.812543 
L 143.460532 -1050.725452 
L 143.459656 -1046.638362 
L 143.459547 -1042.551271 
L 143.468358 -1038.46418 
L 143.473838 -1034.377089 
L 143.480601 -1030.289998 
L 143.474928 -1026.202907 
L 143.471034 -1022.115816 
L 143.472343 -1018.028725 
L 143.481913 -1013.941634 
L 143.485178 -1009.854544 
L 143.479812 -1005.767453 
L 143.482241 -1001.680362 
L 143.499654 -997.593271 
L 143.496902 -993.50618 
L 143.500236 -989.419089 
L 143.510653 -985.331998 
L 143.518681 -981.244907 
L 143.526815 -977.157816 
L 143.527535 -973.070726 
L 143.542999 -968.983635 
L 143.563549 -964.896544 
L 143.56456 -960.809453 
L 143.56782 -956.722362 
L 143.571658 -952.635271 
L 143.575972 -948.54818 
L 143.573363 -944.461089 
L 143.585388 -940.373998 
L 143.610095 -936.286908 
L 143.619821 -932.199817 
L 143.623516 -928.112726 
L 143.638335 -924.025635 
L 143.653442 -919.938544 
L 143.665154 -915.851453 
L 143.684692 -911.764362 
L 143.717982 -907.677271 
L 143.741089 -903.59018 
L 143.7705 -899.50309 
L 143.806959 -895.415999 
L 143.839371 -891.328908 
L 143.886656 -887.241817 
L 143.964257 -883.154726 
L 144.020057 -879.067635 
L 144.068674 -874.980544 
L 144.139182 -870.893453 
L 144.223226 -866.806363 
L 144.334386 -862.719272 
L 144.420878 -858.632181 
L 144.547556 -854.54509 
L 144.658076 -850.457999 
L 144.862417 -846.370908 
L 145.065485 -842.283817 
L 145.249224 -838.196726 
L 145.495677 -834.109635 
L 145.765793 -830.022545 
L 146.048946 -825.935454 
L 146.37236 -821.848363 
L 146.799538 -817.761272 
L 147.319259 -813.674181 
L 147.856067 -809.58709 
L 148.475946 -805.499999 
L 149.125881 -801.412908 
L 149.945045 -797.325817 
L 150.9063 -793.238727 
L 151.913014 -789.151636 
L 153.042028 -785.064545 
L 154.348058 -780.977454 
L 155.734469 -776.890363 
L 157.306846 -772.803272 
L 159.234025 -768.716181 
L 161.355597 -764.62909 
L 163.656236 -760.541999 
L 166.238557 -756.454909 
L 168.921646 -752.367818 
L 171.782512 -748.280727 
L 174.812123 -744.193636 
L 177.95007 -740.106545 
L 181.061161 -736.019454 
L 184.555429 -731.932363 
L 187.727101 -727.845272 
L 190.570706 -723.758181 
L 192.855238 -719.671091 
L 194.311594 -715.584 
L 195.32054 -711.496909 
L 195.537425 -707.409818 
L 194.759419 -703.322727 
L 193.00391 -699.235636 
L 189.968236 -695.148545 
L 185.694625 -691.061454 
L 180.141856 -686.974364 
L 173.78259 -682.887273 
L 166.824409 -678.800182 
L 160.296165 -674.713091 
L 153.384891 -670.626 
L 146.184695 -666.538909 
L 143.592679 -662.451818 
z
" style="stroke: #4d4d4d; stroke-opacity: 0.9; stroke-width: 1.25"/>
    </defs>
    <g clip-path="url(#p832fbb0259)">
     <use xlink:href="#md0ab9996db" x="0" y="1173.6" style="fill: #d56b5b; fill-opacity: 0.9; stroke: #4d4d4d; stroke-opacity: 0.9; stroke-width: 1.25"/>
    </g>
   </g>
   <g id="FillBetweenPolyCollection_2">
    <defs>
     <path id="mb8514bd904" d="M 274.368044 -664.254425 
L 273.069206 -664.254425 
L 267.263165 -668.318664 
L 257.645063 -672.382904 
L 253.771156 -676.447143 
L 252.758636 -680.511383 
L 252.733229 -684.575623 
L 253.461716 -688.639862 
L 254.615608 -692.704102 
L 256.085195 -696.768341 
L 257.797429 -700.832581 
L 259.341999 -704.89682 
L 260.795497 -708.96106 
L 262.308312 -713.0253 
L 263.805501 -717.089539 
L 265.07173 -721.153779 
L 266.203075 -725.218018 
L 267.111861 -729.282258 
L 267.869775 -733.346498 
L 268.565014 -737.410737 
L 269.336608 -741.474977 
L 269.896121 -745.539216 
L 270.403405 -749.603456 
L 270.833823 -753.667696 
L 271.20896 -757.731935 
L 271.537528 -761.796175 
L 271.865871 -765.860414 
L 272.131698 -769.924654 
L 272.332849 -773.988894 
L 272.485559 -778.053133 
L 272.642464 -782.117373 
L 272.784612 -786.181612 
L 272.912637 -790.245852 
L 273.021065 -794.310092 
L 273.125683 -798.374331 
L 273.205544 -802.438571 
L 273.271637 -806.50281 
L 273.32983 -810.56705 
L 273.381646 -814.63129 
L 273.419183 -818.695529 
L 273.460916 -822.759769 
L 273.494352 -826.824008 
L 273.52814 -830.888248 
L 273.558306 -834.952488 
L 273.577092 -839.016727 
L 273.601808 -843.080967 
L 273.617894 -847.145206 
L 273.631736 -851.209446 
L 273.644784 -855.273685 
L 273.649205 -859.337925 
L 273.656416 -863.402165 
L 273.660966 -867.466404 
L 273.670301 -871.530644 
L 273.680797 -875.594883 
L 273.683807 -879.659123 
L 273.682294 -883.723363 
L 273.685521 -887.787602 
L 273.693208 -891.851842 
L 273.695278 -895.916081 
L 273.694328 -899.980321 
L 273.695473 -904.044561 
L 273.696514 -908.1088 
L 273.696731 -912.17304 
L 273.697434 -916.237279 
L 273.702369 -920.301519 
L 273.701094 -924.365759 
L 273.701864 -928.429998 
L 273.703889 -932.494238 
L 273.70382 -936.558477 
L 273.70032 -940.622717 
L 273.702121 -944.686957 
L 273.703353 -948.751196 
L 273.702017 -952.815436 
L 273.704012 -956.879675 
L 273.706978 -960.943915 
L 273.705984 -965.008155 
L 273.708268 -969.072394 
L 273.707093 -973.136634 
L 273.704957 -977.200873 
L 273.70792 -981.265113 
L 273.708343 -985.329352 
L 273.709941 -989.393592 
L 273.712473 -993.457832 
L 273.712362 -997.522071 
L 273.71016 -1001.586311 
L 273.711629 -1005.65055 
L 273.712107 -1009.71479 
L 273.712904 -1013.77903 
L 273.713729 -1017.843269 
L 273.713221 -1021.907509 
L 273.711672 -1025.971748 
L 273.713034 -1030.035988 
L 273.714399 -1034.100228 
L 273.715627 -1038.164467 
L 273.715801 -1042.228707 
L 273.714783 -1046.292946 
L 273.716334 -1050.357186 
L 273.716292 -1054.421426 
L 273.716027 -1058.485665 
L 273.715636 -1062.549905 
L 273.716243 -1066.614144 
L 273.721007 -1066.614144 
L 273.721007 -1066.614144 
L 273.721614 -1062.549905 
L 273.721223 -1058.485665 
L 273.720958 -1054.421426 
L 273.720916 -1050.357186 
L 273.722467 -1046.292946 
L 273.721449 -1042.228707 
L 273.721623 -1038.164467 
L 273.722851 -1034.100228 
L 273.724216 -1030.035988 
L 273.725578 -1025.971748 
L 273.724029 -1021.907509 
L 273.723521 -1017.843269 
L 273.724346 -1013.77903 
L 273.725143 -1009.71479 
L 273.725621 -1005.65055 
L 273.72709 -1001.586311 
L 273.724888 -997.522071 
L 273.724777 -993.457832 
L 273.727309 -989.393592 
L 273.728907 -985.329352 
L 273.72933 -981.265113 
L 273.732293 -977.200873 
L 273.730157 -973.136634 
L 273.728982 -969.072394 
L 273.731266 -965.008155 
L 273.730272 -960.943915 
L 273.733238 -956.879675 
L 273.735233 -952.815436 
L 273.733897 -948.751196 
L 273.735129 -944.686957 
L 273.73693 -940.622717 
L 273.73343 -936.558477 
L 273.733361 -932.494238 
L 273.735386 -928.429998 
L 273.736156 -924.365759 
L 273.734881 -920.301519 
L 273.739816 -916.237279 
L 273.740519 -912.17304 
L 273.740736 -908.1088 
L 273.741777 -904.044561 
L 273.742922 -899.980321 
L 273.741972 -895.916081 
L 273.744042 -891.851842 
L 273.751729 -887.787602 
L 273.754956 -883.723363 
L 273.753443 -879.659123 
L 273.756453 -875.594883 
L 273.766949 -871.530644 
L 273.776284 -867.466404 
L 273.780834 -863.402165 
L 273.788045 -859.337925 
L 273.792466 -855.273685 
L 273.805514 -851.209446 
L 273.819356 -847.145206 
L 273.835442 -843.080967 
L 273.860158 -839.016727 
L 273.878944 -834.952488 
L 273.90911 -830.888248 
L 273.942898 -826.824008 
L 273.976334 -822.759769 
L 274.018067 -818.695529 
L 274.055604 -814.63129 
L 274.10742 -810.56705 
L 274.165613 -806.50281 
L 274.231706 -802.438571 
L 274.311567 -798.374331 
L 274.416185 -794.310092 
L 274.524613 -790.245852 
L 274.652638 -786.181612 
L 274.794786 -782.117373 
L 274.951691 -778.053133 
L 275.104401 -773.988894 
L 275.305552 -769.924654 
L 275.571379 -765.860414 
L 275.899722 -761.796175 
L 276.22829 -757.731935 
L 276.603427 -753.667696 
L 277.033845 -749.603456 
L 277.541129 -745.539216 
L 278.100642 -741.474977 
L 278.872236 -737.410737 
L 279.567475 -733.346498 
L 280.325389 -729.282258 
L 281.234175 -725.218018 
L 282.36552 -721.153779 
L 283.631749 -717.089539 
L 285.128938 -713.0253 
L 286.641753 -708.96106 
L 288.095251 -704.89682 
L 289.639821 -700.832581 
L 291.352055 -696.768341 
L 292.821642 -692.704102 
L 293.975534 -688.639862 
L 294.704021 -684.575623 
L 294.678614 -680.511383 
L 293.666094 -676.447143 
L 289.792187 -672.382904 
L 280.174085 -668.318664 
L 274.368044 -664.254425 
z
" style="stroke: #4d4d4d; stroke-opacity: 0.9; stroke-width: 1.25"/>
    </defs>
    <g clip-path="url(#p832fbb0259)">
     <use xlink:href="#mb8514bd904" x="0" y="1173.6" style="fill: #ecbd81; fill-opacity: 0.9; stroke: #4d4d4d; stroke-opacity: 0.9; stroke-width: 1.25"/>
    </g>
   </g>
   <g id="FillBetweenPolyCollection_3">
    <defs>
     <path id="md1dbc90a68" d="M 404.297986 -663.345156 
L 403.743264 -663.345156 
L 400.258775 -667.36809 
L 392.124006 -671.391024 
L 387.045981 -675.413958 
L 385.693264 -679.436892 
L 385.899012 -683.459826 
L 386.698566 -687.48276 
L 387.989533 -691.505694 
L 389.540174 -695.528628 
L 391.203187 -699.551562 
L 392.7308 -703.574496 
L 394.115119 -707.597431 
L 395.395339 -711.620365 
L 396.642979 -715.643299 
L 397.725275 -719.666233 
L 398.5147 -723.689167 
L 399.310171 -727.712101 
L 399.96592 -731.735035 
L 400.569219 -735.757969 
L 401.065669 -739.780903 
L 401.446972 -743.803837 
L 401.761399 -747.826771 
L 402.085107 -751.849705 
L 402.329428 -755.872639 
L 402.526899 -759.895573 
L 402.696845 -763.918508 
L 402.880555 -767.941442 
L 403.024074 -771.964376 
L 403.141895 -775.98731 
L 403.260491 -780.010244 
L 403.320983 -784.033178 
L 403.391873 -788.056112 
L 403.471663 -792.079046 
L 403.523196 -796.10198 
L 403.589334 -800.124914 
L 403.630964 -804.147848 
L 403.668428 -808.170782 
L 403.712848 -812.193716 
L 403.756013 -816.216651 
L 403.784275 -820.239585 
L 403.792513 -824.262519 
L 403.830428 -828.285453 
L 403.862132 -832.308387 
L 403.874267 -836.331321 
L 403.892823 -840.354255 
L 403.909325 -844.377189 
L 403.920169 -848.400123 
L 403.92733 -852.423057 
L 403.944432 -856.445991 
L 403.961598 -860.468925 
L 403.965659 -864.491859 
L 403.970083 -868.514793 
L 403.976808 -872.537728 
L 403.982158 -876.560662 
L 403.986595 -880.583596 
L 403.989821 -884.60653 
L 403.994668 -888.629464 
L 403.998129 -892.652398 
L 404.002127 -896.675332 
L 404.006317 -900.698266 
L 404.007579 -904.7212 
L 404.009029 -908.744134 
L 404.011683 -912.767068 
L 404.012886 -916.790002 
L 404.01314 -920.812936 
L 404.015037 -924.835871 
L 404.016867 -928.858805 
L 404.017347 -932.881739 
L 404.01632 -936.904673 
L 404.015898 -940.927607 
L 404.016616 -944.950541 
L 404.017603 -948.973475 
L 404.017109 -952.996409 
L 404.018338 -957.019343 
L 404.018076 -961.042277 
L 404.017689 -965.065211 
L 404.017669 -969.088145 
L 404.018616 -973.111079 
L 404.018738 -977.134013 
L 404.018925 -981.156948 
L 404.018644 -985.179882 
L 404.018243 -989.202816 
L 404.019232 -993.22575 
L 404.019349 -997.248684 
L 404.019647 -1001.271618 
L 404.0197 -1005.294552 
L 404.018892 -1009.317486 
L 404.018808 -1013.34042 
L 404.019446 -1017.363354 
L 404.019562 -1021.386288 
L 404.018967 -1025.409222 
L 404.019966 -1029.432156 
L 404.019891 -1033.455091 
L 404.019817 -1037.478025 
L 404.019801 -1041.500959 
L 404.02044 -1045.523893 
L 404.020582 -1049.546827 
L 404.01989 -1053.569761 
L 404.019336 -1057.592695 
L 404.020092 -1061.615629 
L 404.021158 -1061.615629 
L 404.021158 -1061.615629 
L 404.021914 -1057.592695 
L 404.02136 -1053.569761 
L 404.020668 -1049.546827 
L 404.02081 -1045.523893 
L 404.021449 -1041.500959 
L 404.021433 -1037.478025 
L 404.021359 -1033.455091 
L 404.021284 -1029.432156 
L 404.022283 -1025.409222 
L 404.021688 -1021.386288 
L 404.021804 -1017.363354 
L 404.022442 -1013.34042 
L 404.022358 -1009.317486 
L 404.02155 -1005.294552 
L 404.021603 -1001.271618 
L 404.021901 -997.248684 
L 404.022018 -993.22575 
L 404.023007 -989.202816 
L 404.022606 -985.179882 
L 404.022325 -981.156948 
L 404.022512 -977.134013 
L 404.022634 -973.111079 
L 404.023581 -969.088145 
L 404.023561 -965.065211 
L 404.023174 -961.042277 
L 404.022912 -957.019343 
L 404.024141 -952.996409 
L 404.023647 -948.973475 
L 404.024634 -944.950541 
L 404.025352 -940.927607 
L 404.02493 -936.904673 
L 404.023903 -932.881739 
L 404.024383 -928.858805 
L 404.026213 -924.835871 
L 404.02811 -920.812936 
L 404.028364 -916.790002 
L 404.029567 -912.767068 
L 404.032221 -908.744134 
L 404.033671 -904.7212 
L 404.034933 -900.698266 
L 404.039123 -896.675332 
L 404.043121 -892.652398 
L 404.046582 -888.629464 
L 404.051429 -884.60653 
L 404.054655 -880.583596 
L 404.059092 -876.560662 
L 404.064442 -872.537728 
L 404.071167 -868.514793 
L 404.075591 -864.491859 
L 404.079652 -860.468925 
L 404.096818 -856.445991 
L 404.11392 -852.423057 
L 404.121081 -848.400123 
L 404.131925 -844.377189 
L 404.148427 -840.354255 
L 404.166983 -836.331321 
L 404.179118 -832.308387 
L 404.210822 -828.285453 
L 404.248737 -824.262519 
L 404.256975 -820.239585 
L 404.285237 -816.216651 
L 404.328402 -812.193716 
L 404.372822 -808.170782 
L 404.410286 -804.147848 
L 404.451916 -800.124914 
L 404.518054 -796.10198 
L 404.569587 -792.079046 
L 404.649377 -788.056112 
L 404.720267 -784.033178 
L 404.780759 -780.010244 
L 404.899355 -775.98731 
L 405.017176 -771.964376 
L 405.160695 -767.941442 
L 405.344405 -763.918508 
L 405.514351 -759.895573 
L 405.711822 -755.872639 
L 405.956143 -751.849705 
L 406.279851 -747.826771 
L 406.594278 -743.803837 
L 406.975581 -739.780903 
L 407.472031 -735.757969 
L 408.07533 -731.735035 
L 408.731079 -727.712101 
L 409.52655 -723.689167 
L 410.315975 -719.666233 
L 411.398271 -715.643299 
L 412.645911 -711.620365 
L 413.926131 -707.597431 
L 415.31045 -703.574496 
L 416.838063 -699.551562 
L 418.501076 -695.528628 
L 420.051717 -691.505694 
L 421.342684 -687.48276 
L 422.142238 -683.459826 
L 422.347986 -679.436892 
L 420.995269 -675.413958 
L 415.917244 -671.391024 
L 407.782475 -667.36809 
L 404.297986 -663.345156 
z
" style="stroke: #4d4d4d; stroke-opacity: 0.9; stroke-width: 1.25"/>
    </defs>
    <g clip-path="url(#p832fbb0259)">
     <use xlink:href="#md1dbc90a68" x="0" y="1173.6" style="fill: #f7f7c6; fill-opacity: 0.9; stroke: #4d4d4d; stroke-opacity: 0.9; stroke-width: 1.25"/>
    </g>
   </g>
   <g id="FillBetweenPolyCollection_4">
    <defs>
     <path id="m0c562634ff" d="M 534.432338 -664.705096 
L 534.212912 -664.705096 
L 533.998885 -668.73706 
L 533.722136 -672.769024 
L 533.516111 -676.800988 
L 533.414951 -680.832952 
L 533.388629 -684.864916 
L 533.422546 -688.89688 
L 533.4937 -692.928844 
L 533.574809 -696.960809 
L 533.653328 -700.992773 
L 533.727081 -705.024737 
L 533.799819 -709.056701 
L 533.871255 -713.088665 
L 533.932334 -717.120629 
L 533.982538 -721.152593 
L 534.026683 -725.184557 
L 534.066148 -729.216521 
L 534.098731 -733.248485 
L 534.126731 -737.280449 
L 534.150882 -741.312413 
L 534.170402 -745.344377 
L 534.190456 -749.376341 
L 534.210462 -753.408305 
L 534.225191 -757.44027 
L 534.235023 -761.472234 
L 534.244878 -765.504198 
L 534.256085 -769.536162 
L 534.265024 -773.568126 
L 534.271373 -777.60009 
L 534.276146 -781.632054 
L 534.280622 -785.664018 
L 534.286549 -789.695982 
L 534.291436 -793.727946 
L 534.293675 -797.75991 
L 534.295304 -801.791874 
L 534.297835 -805.823838 
L 534.300354 -809.855802 
L 534.302156 -813.887766 
L 534.304485 -817.919731 
L 534.307102 -821.951695 
L 534.309176 -825.983659 
L 534.310697 -830.015623 
L 534.312224 -834.047587 
L 534.313718 -838.079551 
L 534.315035 -842.111515 
L 534.316438 -846.143479 
L 534.317195 -850.175443 
L 534.31696 -854.207407 
L 534.316696 -858.239371 
L 534.317341 -862.271335 
L 534.31846 -866.303299 
L 534.318951 -870.335263 
L 534.318639 -874.367228 
L 534.318879 -878.399192 
L 534.319551 -882.431156 
L 534.320041 -886.46312 
L 534.320802 -890.495084 
L 534.321353 -894.527048 
L 534.3213 -898.559012 
L 534.321066 -902.590976 
L 534.321146 -906.62294 
L 534.3216 -910.654904 
L 534.321949 -914.686868 
L 534.321997 -918.718832 
L 534.321957 -922.750796 
L 534.322063 -926.78276 
L 534.32216 -930.814724 
L 534.322157 -934.846689 
L 534.322283 -938.878653 
L 534.322461 -942.910617 
L 534.322428 -946.942581 
L 534.32223 -950.974545 
L 534.322115 -955.006509 
L 534.322083 -959.038473 
L 534.322104 -963.070437 
L 534.322235 -967.102401 
L 534.322441 -971.134365 
L 534.322568 -975.166329 
L 534.322551 -979.198293 
L 534.322466 -983.230257 
L 534.322471 -987.262221 
L 534.322558 -991.294185 
L 534.322576 -995.32615 
L 534.322498 -999.358114 
L 534.322453 -1003.390078 
L 534.322527 -1007.422042 
L 534.322601 -1011.454006 
L 534.322621 -1015.48597 
L 534.322603 -1019.517934 
L 534.322531 -1023.549898 
L 534.322454 -1027.581862 
L 534.322493 -1031.613826 
L 534.322569 -1035.64579 
L 534.322543 -1039.677754 
L 534.322441 -1043.709718 
L 534.322383 -1047.741682 
L 534.322394 -1051.773646 
L 534.322454 -1055.805611 
L 534.322469 -1059.837575 
L 534.322445 -1063.869539 
L 534.322805 -1063.869539 
L 534.322805 -1063.869539 
L 534.322781 -1059.837575 
L 534.322796 -1055.805611 
L 534.322856 -1051.773646 
L 534.322867 -1047.741682 
L 534.322809 -1043.709718 
L 534.322707 -1039.677754 
L 534.322681 -1035.64579 
L 534.322757 -1031.613826 
L 534.322796 -1027.581862 
L 534.322719 -1023.549898 
L 534.322647 -1019.517934 
L 534.322629 -1015.48597 
L 534.322649 -1011.454006 
L 534.322723 -1007.422042 
L 534.322797 -1003.390078 
L 534.322752 -999.358114 
L 534.322674 -995.32615 
L 534.322692 -991.294185 
L 534.322779 -987.262221 
L 534.322784 -983.230257 
L 534.322699 -979.198293 
L 534.322682 -975.166329 
L 534.322809 -971.134365 
L 534.323015 -967.102401 
L 534.323146 -963.070437 
L 534.323167 -959.038473 
L 534.323135 -955.006509 
L 534.32302 -950.974545 
L 534.322822 -946.942581 
L 534.322789 -942.910617 
L 534.322967 -938.878653 
L 534.323093 -934.846689 
L 534.32309 -930.814724 
L 534.323187 -926.78276 
L 534.323293 -922.750796 
L 534.323253 -918.718832 
L 534.323301 -914.686868 
L 534.32365 -910.654904 
L 534.324104 -906.62294 
L 534.324184 -902.590976 
L 534.32395 -898.559012 
L 534.323897 -894.527048 
L 534.324448 -890.495084 
L 534.325209 -886.46312 
L 534.325699 -882.431156 
L 534.326371 -878.399192 
L 534.326611 -874.367228 
L 534.326299 -870.335263 
L 534.32679 -866.303299 
L 534.327909 -862.271335 
L 534.328554 -858.239371 
L 534.32829 -854.207407 
L 534.328055 -850.175443 
L 534.328812 -846.143479 
L 534.330215 -842.111515 
L 534.331532 -838.079551 
L 534.333026 -834.047587 
L 534.334553 -830.015623 
L 534.336074 -825.983659 
L 534.338148 -821.951695 
L 534.340765 -817.919731 
L 534.343094 -813.887766 
L 534.344896 -809.855802 
L 534.347415 -805.823838 
L 534.349946 -801.791874 
L 534.351575 -797.75991 
L 534.353814 -793.727946 
L 534.358701 -789.695982 
L 534.364628 -785.664018 
L 534.369104 -781.632054 
L 534.373877 -777.60009 
L 534.380226 -773.568126 
L 534.389165 -769.536162 
L 534.400372 -765.504198 
L 534.410227 -761.472234 
L 534.420059 -757.44027 
L 534.434788 -753.408305 
L 534.454794 -749.376341 
L 534.474848 -745.344377 
L 534.494368 -741.312413 
L 534.518519 -737.280449 
L 534.546519 -733.248485 
L 534.579102 -729.216521 
L 534.618567 -725.184557 
L 534.662712 -721.152593 
L 534.712916 -717.120629 
L 534.773995 -713.088665 
L 534.845431 -709.056701 
L 534.918169 -705.024737 
L 534.991922 -700.992773 
L 535.070441 -696.960809 
L 535.15155 -692.928844 
L 535.222704 -688.89688 
L 535.256621 -684.864916 
L 535.230299 -680.832952 
L 535.129139 -676.800988 
L 534.923114 -672.769024 
L 534.646365 -668.73706 
L 534.432338 -664.705096 
z
" style="stroke: #4d4d4d; stroke-opacity: 0.9; stroke-width: 1.25"/>
    </defs>
    <g clip-path="url(#p832fbb0259)">
     <use xlink:href="#m0c562634ff" x="0" y="1173.6" style="fill: #c0dca9; fill-opacity: 0.9; stroke: #4d4d4d; stroke-opacity: 0.9; stroke-width: 1.25"/>
    </g>
   </g>
   <g id="FillBetweenPolyCollection_5">
    <defs>
     <path id="m66c81e3897" d="M 665.231324 -664.66164 
L 664.017926 -664.66164 
L 663.233457 -668.726555 
L 662.410829 -672.79147 
L 661.85936 -676.856384 
L 661.590789 -680.921299 
L 661.494006 -684.986213 
L 661.49908 -689.051128 
L 661.59088 -693.116042 
L 661.766262 -697.180957 
L 661.98623 -701.245872 
L 662.21204 -705.310786 
L 662.43655 -709.375701 
L 662.661829 -713.440615 
L 662.879214 -717.50553 
L 663.07945 -721.570444 
L 663.263038 -725.635359 
L 663.428308 -729.700273 
L 663.578286 -733.765188 
L 663.717605 -737.830103 
L 663.835763 -741.895017 
L 663.927414 -745.959932 
L 664.005237 -750.024846 
L 664.07959 -754.089761 
L 664.148582 -758.154675 
L 664.210132 -762.21959 
L 664.262971 -766.284504 
L 664.304893 -770.349419 
L 664.337524 -774.414334 
L 664.36433 -778.479248 
L 664.386813 -782.544163 
L 664.407827 -786.609077 
L 664.428964 -790.673992 
L 664.449974 -794.738906 
L 664.471731 -798.803821 
L 664.491738 -802.868735 
L 664.505895 -806.93365 
L 664.515309 -810.998565 
L 664.524385 -815.063479 
L 664.534649 -819.128394 
L 664.542964 -823.193308 
L 664.548746 -827.258223 
L 664.555015 -831.323137 
L 664.562427 -835.388052 
L 664.569878 -839.452967 
L 664.576469 -843.517881 
L 664.581563 -847.582796 
L 664.584763 -851.64771 
L 664.586933 -855.712625 
L 664.589189 -859.777539 
L 664.591755 -863.842454 
L 664.594357 -867.907368 
L 664.596239 -871.972283 
L 664.596579 -876.037198 
L 664.596428 -880.102112 
L 664.59808 -884.167027 
L 664.600675 -888.231941 
L 664.602231 -892.296856 
L 664.603301 -896.36177 
L 664.604518 -900.426685 
L 664.60513 -904.491599 
L 664.605258 -908.556514 
L 664.605854 -912.621429 
L 664.606606 -916.686343 
L 664.607053 -920.751258 
L 664.607661 -924.816172 
L 664.608549 -928.881087 
L 664.608422 -932.946001 
L 664.606839 -937.010916 
L 664.605748 -941.07583 
L 664.606289 -945.140745 
L 664.607669 -949.20566 
L 664.608919 -953.270574 
L 664.609671 -957.335489 
L 664.610097 -961.400403 
L 664.610668 -965.465318 
L 664.611424 -969.530232 
L 664.611804 -973.595147 
L 664.611795 -977.660062 
L 664.611709 -981.724976 
L 664.611516 -985.789891 
L 664.611319 -989.854805 
L 664.611074 -993.91972 
L 664.610574 -997.984634 
L 664.610421 -1002.049549 
L 664.610901 -1006.114463 
L 664.611356 -1010.179378 
L 664.611776 -1014.244293 
L 664.612532 -1018.309207 
L 664.613295 -1022.374122 
L 664.613619 -1026.439036 
L 664.61291 -1030.503951 
L 664.611155 -1034.568865 
L 664.609817 -1038.63378 
L 664.609697 -1042.698694 
L 664.609983 -1046.763609 
L 664.60941 -1050.828524 
L 664.608696 -1054.893438 
L 664.609363 -1058.958353 
L 664.612256 -1063.023267 
L 664.617188 -1067.088182 
L 664.632062 -1067.088182 
L 664.632062 -1067.088182 
L 664.636994 -1063.023267 
L 664.639887 -1058.958353 
L 664.640554 -1054.893438 
L 664.63984 -1050.828524 
L 664.639267 -1046.763609 
L 664.639553 -1042.698694 
L 664.639433 -1038.63378 
L 664.638095 -1034.568865 
L 664.63634 -1030.503951 
L 664.635631 -1026.439036 
L 664.635955 -1022.374122 
L 664.636718 -1018.309207 
L 664.637474 -1014.244293 
L 664.637894 -1010.179378 
L 664.638349 -1006.114463 
L 664.638829 -1002.049549 
L 664.638676 -997.984634 
L 664.638176 -993.91972 
L 664.637931 -989.854805 
L 664.637734 -985.789891 
L 664.637541 -981.724976 
L 664.637455 -977.660062 
L 664.637446 -973.595147 
L 664.637826 -969.530232 
L 664.638582 -965.465318 
L 664.639153 -961.400403 
L 664.639579 -957.335489 
L 664.640331 -953.270574 
L 664.641581 -949.20566 
L 664.642961 -945.140745 
L 664.643502 -941.07583 
L 664.642411 -937.010916 
L 664.640828 -932.946001 
L 664.640701 -928.881087 
L 664.641589 -924.816172 
L 664.642197 -920.751258 
L 664.642644 -916.686343 
L 664.643396 -912.621429 
L 664.643992 -908.556514 
L 664.64412 -904.491599 
L 664.644732 -900.426685 
L 664.645949 -896.36177 
L 664.647019 -892.296856 
L 664.648575 -888.231941 
L 664.65117 -884.167027 
L 664.652822 -880.102112 
L 664.652671 -876.037198 
L 664.653011 -871.972283 
L 664.654893 -867.907368 
L 664.657495 -863.842454 
L 664.660061 -859.777539 
L 664.662317 -855.712625 
L 664.664487 -851.64771 
L 664.667687 -847.582796 
L 664.672781 -843.517881 
L 664.679372 -839.452967 
L 664.686823 -835.388052 
L 664.694235 -831.323137 
L 664.700504 -827.258223 
L 664.706286 -823.193308 
L 664.714601 -819.128394 
L 664.724865 -815.063479 
L 664.733941 -810.998565 
L 664.743355 -806.93365 
L 664.757512 -802.868735 
L 664.777519 -798.803821 
L 664.799276 -794.738906 
L 664.820286 -790.673992 
L 664.841423 -786.609077 
L 664.862437 -782.544163 
L 664.88492 -778.479248 
L 664.911726 -774.414334 
L 664.944357 -770.349419 
L 664.986279 -766.284504 
L 665.039118 -762.21959 
L 665.100668 -758.154675 
L 665.16966 -754.089761 
L 665.244013 -750.024846 
L 665.321836 -745.959932 
L 665.413487 -741.895017 
L 665.531645 -737.830103 
L 665.670964 -733.765188 
L 665.820942 -729.700273 
L 665.986212 -725.635359 
L 666.1698 -721.570444 
L 666.370036 -717.50553 
L 666.587421 -713.440615 
L 666.8127 -709.375701 
L 667.03721 -705.310786 
L 667.26302 -701.245872 
L 667.482988 -697.180957 
L 667.65837 -693.116042 
L 667.75017 -689.051128 
L 667.755244 -684.986213 
L 667.658461 -680.921299 
L 667.38989 -676.856384 
L 666.838421 -672.79147 
L 666.015793 -668.726555 
L 665.231324 -664.66164 
z
" style="stroke: #4d4d4d; stroke-opacity: 0.9; stroke-width: 1.25"/>
    </defs>
    <g clip-path="url(#p832fbb0259)">
     <use xlink:href="#m66c81e3897" x="0" y="1173.6" style="fill: #5fa2a2; fill-opacity: 0.9; stroke: #4d4d4d; stroke-opacity: 0.9; stroke-width: 1.25"/>
    </g>
   </g>
   <g id="line2d_10">
    <path d="M 143.416625 511.148182 
L 143.416625 358.714794 
" clip-path="url(#p832fbb0259)" style="fill: none; stroke: #4d4d4d; stroke-width: 1.875; stroke-linecap: round"/>
   </g>
   <g id="line2d_11">
    <path d="M 143.416625 472.963685 
L 143.416625 427.264073 
" clip-path="url(#p832fbb0259)" style="fill: none; stroke: #4d4d4d; stroke-width: 5.625; stroke-linecap: round"/>
   </g>
   <g id="line2d_12">
    <path d="M 143.416625 453.018822 
" clip-path="url(#p832fbb0259)" style="fill: none; stroke: #4d4d4d; stroke-width: 1.5; stroke-linecap: round"/>
    <defs>
     <path id="m260525dc45" d="M 2.34375 0 
L -2.34375 -0 
" style="stroke: #ffffff; stroke-width: 1.125"/>
    </defs>
    <g clip-path="url(#p832fbb0259)">
     <use xlink:href="#m260525dc45" x="143.416625" y="453.018822" style="fill: #ffffff; stroke: #ffffff; stroke-width: 1.125"/>
    </g>
   </g>
   <g id="line2d_13">
    <path d="M 273.718625 509.345575 
L 273.718625 402.338215 
" clip-path="url(#p832fbb0259)" style="fill: none; stroke: #4d4d4d; stroke-width: 1.875; stroke-linecap: round"/>
   </g>
   <g id="line2d_14">
    <path d="M 273.718625 490.219397 
L 273.718625 455.066271 
" clip-path="url(#p832fbb0259)" style="fill: none; stroke: #4d4d4d; stroke-width: 5.625; stroke-linecap: round"/>
   </g>
   <g id="line2d_15">
    <path d="M 273.718625 476.068184 
" clip-path="url(#p832fbb0259)" style="fill: none; stroke: #4d4d4d; stroke-width: 1.5; stroke-linecap: round"/>
    <g clip-path="url(#p832fbb0259)">
     <use xlink:href="#m260525dc45" x="273.718625" y="476.068184" style="fill: #ffffff; stroke: #ffffff; stroke-width: 1.125"/>
    </g>
   </g>
   <g id="line2d_16">
    <path d="M 404.020625 510.254844 
L 404.020625 410.580681 
" clip-path="url(#p832fbb0259)" style="fill: none; stroke: #4d4d4d; stroke-width: 1.875; stroke-linecap: round"/>
   </g>
   <g id="line2d_17">
    <path d="M 404.020625 491.599319 
L 404.020625 459.191668 
" clip-path="url(#p832fbb0259)" style="fill: none; stroke: #4d4d4d; stroke-width: 5.625; stroke-linecap: round"/>
   </g>
   <g id="line2d_18">
    <path d="M 404.020625 478.806735 
" clip-path="url(#p832fbb0259)" style="fill: none; stroke: #4d4d4d; stroke-width: 1.5; stroke-linecap: round"/>
    <g clip-path="url(#p832fbb0259)">
     <use xlink:href="#m260525dc45" x="404.020625" y="478.806735" style="fill: #ffffff; stroke: #ffffff; stroke-width: 1.125"/>
    </g>
   </g>
   <g id="line2d_19">
    <path d="M 534.322625 508.894904 
L 534.322625 405.441884 
" clip-path="url(#p832fbb0259)" style="fill: none; stroke: #4d4d4d; stroke-width: 1.875; stroke-linecap: round"/>
   </g>
   <g id="line2d_20">
    <path d="M 534.322625 490.150953 
L 534.322625 456.254437 
" clip-path="url(#p832fbb0259)" style="fill: none; stroke: #4d4d4d; stroke-width: 5.625; stroke-linecap: round"/>
   </g>
   <g id="line2d_21">
    <path d="M 534.322625 477.069638 
" clip-path="url(#p832fbb0259)" style="fill: none; stroke: #4d4d4d; stroke-width: 1.5; stroke-linecap: round"/>
    <g clip-path="url(#p832fbb0259)">
     <use xlink:href="#m260525dc45" x="534.322625" y="477.069638" style="fill: #ffffff; stroke: #ffffff; stroke-width: 1.125"/>
    </g>
   </g>
   <g id="line2d_22">
    <path d="M 664.624625 508.93836 
L 664.624625 389.739913 
" clip-path="url(#p832fbb0259)" style="fill: none; stroke: #4d4d4d; stroke-width: 1.875; stroke-linecap: round"/>
   </g>
   <g id="line2d_23">
    <path d="M 664.624625 488.587592 
L 664.624625 449.045677 
" clip-path="url(#p832fbb0259)" style="fill: none; stroke: #4d4d4d; stroke-width: 5.625; stroke-linecap: round"/>
   </g>
   <g id="line2d_24">
    <path d="M 664.624625 472.841943 
" clip-path="url(#p832fbb0259)" style="fill: none; stroke: #4d4d4d; stroke-width: 1.5; stroke-linecap: round"/>
    <g clip-path="url(#p832fbb0259)">
     <use xlink:href="#m260525dc45" x="664.624625" y="472.841943" style="fill: #ffffff; stroke: #ffffff; stroke-width: 1.125"/>
    </g>
   </g>
   <g id="patch_3">
    <path d="M 78.265625 531.38 
L 78.265625 86.28 
" style="fill: none; stroke: #cccccc; stroke-width: 1.25; stroke-linejoin: miter; stroke-linecap: square"/>
   </g>
   <g id="patch_4">
    <path d="M 729.775625 531.38 
L 729.775625 86.28 
" style="fill: none; stroke: #cccccc; stroke-width: 1.25; stroke-linejoin: miter; stroke-linecap: square"/>
   </g>
   <g id="patch_5">
    <path d="M 78.265625 531.38 
L 729.775625 531.38 
" style="fill: none; stroke: #cccccc; stroke-width: 1.25; stroke-linejoin: miter; stroke-linecap: square"/>
   </g>
   <g id="patch_6">
    <path d="M 78.265625 86.28 
L 729.775625 86.28 
" style="fill: none; stroke: #cccccc; stroke-width: 1.25; stroke-linejoin: miter; stroke-linecap: square"/>
   </g>
   <g id="text_11">
    <text style="font-size: 10px; font-family: 'Arial', 'DejaVu Sans', 'Liberation Sans', 'Bitstream Vera Sans', sans-serif; text-anchor: middle; fill: #262626" x="404.020625" y="80.28" transform="rotate(-0 404.020625 80.28)">xenium-stanford</text>
   </g>
  </g>
  <g id="axes_2">
   <g id="patch_7">
    <path d="M 78.265625 1003.36 
L 729.775625 1003.36 
L 729.775625 558.26 
L 78.265625 558.26 
z
" style="fill: #ffffff"/>
   </g>
   <g id="matplotlib.axis_3">
    <g id="xtick_6">
     <g id="text_12">
      <text style="font-size: 10px; font-family: 'Arial', 'DejaVu Sans', 'Liberation Sans', 'Bitstream Vera Sans', sans-serif; fill: #262626" transform="translate(141.336938 1079.399063) rotate(-90)">epithelial cell</text>
     </g>
    </g>
    <g id="xtick_7">
     <g id="text_13">
      <text style="font-size: 10px; font-family: 'Arial', 'DejaVu Sans', 'Liberation Sans', 'Bitstream Vera Sans', sans-serif; fill: #262626" transform="translate(271.638937 1074.333438) rotate(-90)">immune cell</text>
     </g>
    </g>
    <g id="xtick_8">
     <g id="text_14">
      <text style="font-size: 10px; font-family: 'Arial', 'DejaVu Sans', 'Liberation Sans', 'Bitstream Vera Sans', sans-serif; fill: #262626" transform="translate(401.940938 1103.24125) rotate(-90)">mesenchymal cell</text>
     </g>
    </g>
    <g id="xtick_9">
     <g id="text_15">
      <text style="font-size: 10px; font-family: 'Arial', 'DejaVu Sans', 'Liberation Sans', 'Bitstream Vera Sans', sans-serif; fill: #262626" transform="translate(532.242938 1065.09125) rotate(-90)">neural cell</text>
     </g>
    </g>
    <g id="xtick_10">
     <g id="text_16">
      <text style="font-size: 10px; font-family: 'Arial', 'DejaVu Sans', 'Liberation Sans', 'Bitstream Vera Sans', sans-serif; fill: #262626" transform="translate(662.544937 1078.683438) rotate(-90)">unknown cell</text>
     </g>
    </g>
   </g>
   <g id="matplotlib.axis_4">
    <g id="ytick_10">
     <g id="line2d_25">
      <path d="M 78.265625 990.991098 
L 729.775625 990.991098 
" clip-path="url(#p3baa02a6c3)" style="fill: none; stroke: #cccccc; stroke-linecap: round"/>
     </g>
     <g id="text_17">
      <text style="font-size: 10px; font-family: 'Arial', 'DejaVu Sans', 'Liberation Sans', 'Bitstream Vera Sans', sans-serif; text-anchor: end; fill: #262626" x="68.765625" y="994.790317" transform="rotate(-0 68.765625 994.790317)">0</text>
     </g>
    </g>
    <g id="ytick_11">
     <g id="line2d_26">
      <path d="M 78.265625 939.428662 
L 729.775625 939.428662 
" clip-path="url(#p3baa02a6c3)" style="fill: none; stroke: #cccccc; stroke-linecap: round"/>
     </g>
     <g id="text_18">
      <text style="font-size: 10px; font-family: 'Arial', 'DejaVu Sans', 'Liberation Sans', 'Bitstream Vera Sans', sans-serif; text-anchor: end; fill: #262626" x="68.765625" y="943.22788" transform="rotate(-0 68.765625 943.22788)">25</text>
     </g>
    </g>
    <g id="ytick_12">
     <g id="line2d_27">
      <path d="M 78.265625 887.866225 
L 729.775625 887.866225 
" clip-path="url(#p3baa02a6c3)" style="fill: none; stroke: #cccccc; stroke-linecap: round"/>
     </g>
     <g id="text_19">
      <text style="font-size: 10px; font-family: 'Arial', 'DejaVu Sans', 'Liberation Sans', 'Bitstream Vera Sans', sans-serif; text-anchor: end; fill: #262626" x="68.765625" y="891.665444" transform="rotate(-0 68.765625 891.665444)">50</text>
     </g>
    </g>
    <g id="ytick_13">
     <g id="line2d_28">
      <path d="M 78.265625 836.303789 
L 729.775625 836.303789 
" clip-path="url(#p3baa02a6c3)" style="fill: none; stroke: #cccccc; stroke-linecap: round"/>
     </g>
     <g id="text_20">
      <text style="font-size: 10px; font-family: 'Arial', 'DejaVu Sans', 'Liberation Sans', 'Bitstream Vera Sans', sans-serif; text-anchor: end; fill: #262626" x="68.765625" y="840.103008" transform="rotate(-0 68.765625 840.103008)">75</text>
     </g>
    </g>
    <g id="ytick_14">
     <g id="line2d_29">
      <path d="M 78.265625 784.741353 
L 729.775625 784.741353 
" clip-path="url(#p3baa02a6c3)" style="fill: none; stroke: #cccccc; stroke-linecap: round"/>
     </g>
     <g id="text_21">
      <text style="font-size: 10px; font-family: 'Arial', 'DejaVu Sans', 'Liberation Sans', 'Bitstream Vera Sans', sans-serif; text-anchor: end; fill: #262626" x="68.765625" y="788.540572" transform="rotate(-0 68.765625 788.540572)">100</text>
     </g>
    </g>
    <g id="ytick_15">
     <g id="line2d_30">
      <path d="M 78.265625 733.178917 
L 729.775625 733.178917 
" clip-path="url(#p3baa02a6c3)" style="fill: none; stroke: #cccccc; stroke-linecap: round"/>
     </g>
     <g id="text_22">
      <text style="font-size: 10px; font-family: 'Arial', 'DejaVu Sans', 'Liberation Sans', 'Bitstream Vera Sans', sans-serif; text-anchor: end; fill: #262626" x="68.765625" y="736.978136" transform="rotate(-0 68.765625 736.978136)">125</text>
     </g>
    </g>
    <g id="ytick_16">
     <g id="line2d_31">
      <path d="M 78.265625 681.616481 
L 729.775625 681.616481 
" clip-path="url(#p3baa02a6c3)" style="fill: none; stroke: #cccccc; stroke-linecap: round"/>
     </g>
     <g id="text_23">
      <text style="font-size: 10px; font-family: 'Arial', 'DejaVu Sans', 'Liberation Sans', 'Bitstream Vera Sans', sans-serif; text-anchor: end; fill: #262626" x="68.765625" y="685.415699" transform="rotate(-0 68.765625 685.415699)">150</text>
     </g>
    </g>
    <g id="ytick_17">
     <g id="line2d_32">
      <path d="M 78.265625 630.054044 
L 729.775625 630.054044 
" clip-path="url(#p3baa02a6c3)" style="fill: none; stroke: #cccccc; stroke-linecap: round"/>
     </g>
     <g id="text_24">
      <text style="font-size: 10px; font-family: 'Arial', 'DejaVu Sans', 'Liberation Sans', 'Bitstream Vera Sans', sans-serif; text-anchor: end; fill: #262626" x="68.765625" y="633.853263" transform="rotate(-0 68.765625 633.853263)">175</text>
     </g>
    </g>
    <g id="ytick_18">
     <g id="line2d_33">
      <path d="M 78.265625 578.491608 
L 729.775625 578.491608 
" clip-path="url(#p3baa02a6c3)" style="fill: none; stroke: #cccccc; stroke-linecap: round"/>
     </g>
     <g id="text_25">
      <text style="font-size: 10px; font-family: 'Arial', 'DejaVu Sans', 'Liberation Sans', 'Bitstream Vera Sans', sans-serif; text-anchor: end; fill: #262626" x="68.765625" y="582.290827" transform="rotate(-0 68.765625 582.290827)">200</text>
     </g>
    </g>
    <g id="text_26">
     <text style="font-size: 10px; font-family: 'Arial', 'DejaVu Sans', 'Liberation Sans', 'Bitstream Vera Sans', sans-serif; text-anchor: middle; fill: #262626" x="43.598437" y="780.81" transform="rotate(-90 43.598437 780.81)">Distance (μm)</text>
    </g>
   </g>
   <g id="FillBetweenPolyCollection_6">
    <defs>
     <path id="m5cf23ce3e7" d="M 143.855076 -191.781238 
L 142.978174 -191.781238 
L 141.060353 -195.855248 
L 136.175665 -199.929257 
L 128.466775 -204.003267 
L 120.150816 -208.077276 
L 113.439979 -212.151286 
L 108.499202 -216.225295 
L 104.493285 -220.299305 
L 101.012855 -224.373314 
L 98.034076 -228.447324 
L 95.731009 -232.521333 
L 94.049547 -236.595343 
L 92.812009 -240.669353 
L 91.935439 -244.743362 
L 91.404244 -248.817372 
L 91.295825 -252.891381 
L 91.516983 -256.965391 
L 92.000077 -261.0394 
L 92.770795 -265.11341 
L 93.700945 -269.187419 
L 94.690718 -273.261429 
L 95.844635 -277.335438 
L 97.207256 -281.409448 
L 98.620186 -285.483457 
L 100.084965 -289.557467 
L 101.621136 -293.631476 
L 103.096143 -297.705486 
L 104.60113 -301.779496 
L 106.200651 -305.853505 
L 107.761893 -309.927515 
L 109.280358 -314.001524 
L 110.783854 -318.075534 
L 112.286667 -322.149543 
L 113.689909 -326.223553 
L 114.974731 -330.297562 
L 116.279666 -334.371572 
L 117.62267 -338.445581 
L 118.920912 -342.519591 
L 120.096571 -346.5936 
L 121.19915 -350.66761 
L 122.311538 -354.741619 
L 123.380871 -358.815629 
L 124.345406 -362.889638 
L 125.243724 -366.963648 
L 126.164865 -371.037658 
L 127.098383 -375.111667 
L 127.951792 -379.185677 
L 128.722872 -383.259686 
L 129.474778 -387.333696 
L 130.157272 -391.407705 
L 130.822812 -395.481715 
L 131.48544 -399.555724 
L 132.10677 -403.629734 
L 132.677958 -407.703743 
L 133.205075 -411.777753 
L 133.712293 -415.851762 
L 134.215355 -419.925772 
L 134.699225 -423.999781 
L 135.13946 -428.073791 
L 135.554827 -432.147801 
L 135.963434 -436.22181 
L 136.350084 -440.29582 
L 136.707711 -444.369829 
L 137.055643 -448.443839 
L 137.366656 -452.517848 
L 137.662442 -456.591858 
L 137.961982 -460.665867 
L 138.265018 -464.739877 
L 138.538162 -468.813886 
L 138.740797 -472.887896 
L 138.930607 -476.961905 
L 139.143416 -481.035915 
L 139.356864 -485.109924 
L 139.549679 -489.183934 
L 139.722102 -493.257944 
L 139.896012 -497.331953 
L 140.077188 -501.405963 
L 140.221831 -505.479972 
L 140.340922 -509.553982 
L 140.485927 -513.627991 
L 140.623324 -517.702001 
L 140.724897 -521.77601 
L 140.844669 -525.85002 
L 140.971132 -529.924029 
L 141.074152 -533.998039 
L 141.182168 -538.072048 
L 141.284239 -542.146058 
L 141.356931 -546.220067 
L 141.429929 -550.294077 
L 141.519264 -554.368086 
L 141.619492 -558.442096 
L 141.705545 -562.516106 
L 141.769519 -566.590115 
L 141.831633 -570.664125 
L 141.894154 -574.738134 
L 141.94901 -578.812144 
L 141.991023 -582.886153 
L 142.060008 -586.960163 
L 142.261728 -591.034172 
L 142.771871 -595.108182 
L 144.061379 -595.108182 
L 144.061379 -595.108182 
L 144.571522 -591.034172 
L 144.773242 -586.960163 
L 144.842227 -582.886153 
L 144.88424 -578.812144 
L 144.939096 -574.738134 
L 145.001617 -570.664125 
L 145.063731 -566.590115 
L 145.127705 -562.516106 
L 145.213758 -558.442096 
L 145.313986 -554.368086 
L 145.403321 -550.294077 
L 145.476319 -546.220067 
L 145.549011 -542.146058 
L 145.651082 -538.072048 
L 145.759098 -533.998039 
L 145.862118 -529.924029 
L 145.988581 -525.85002 
L 146.108353 -521.77601 
L 146.209926 -517.702001 
L 146.347323 -513.627991 
L 146.492328 -509.553982 
L 146.611419 -505.479972 
L 146.756062 -501.405963 
L 146.937238 -497.331953 
L 147.111148 -493.257944 
L 147.283571 -489.183934 
L 147.476386 -485.109924 
L 147.689834 -481.035915 
L 147.902643 -476.961905 
L 148.092453 -472.887896 
L 148.295088 -468.813886 
L 148.568232 -464.739877 
L 148.871268 -460.665867 
L 149.170808 -456.591858 
L 149.466594 -452.517848 
L 149.777607 -448.443839 
L 150.125539 -444.369829 
L 150.483166 -440.29582 
L 150.869816 -436.22181 
L 151.278423 -432.147801 
L 151.69379 -428.073791 
L 152.134025 -423.999781 
L 152.617895 -419.925772 
L 153.120957 -415.851762 
L 153.628175 -411.777753 
L 154.155292 -407.703743 
L 154.72648 -403.629734 
L 155.34781 -399.555724 
L 156.010438 -395.481715 
L 156.675978 -391.407705 
L 157.358472 -387.333696 
L 158.110378 -383.259686 
L 158.881458 -379.185677 
L 159.734867 -375.111667 
L 160.668385 -371.037658 
L 161.589526 -366.963648 
L 162.487844 -362.889638 
L 163.452379 -358.815629 
L 164.521712 -354.741619 
L 165.6341 -350.66761 
L 166.736679 -346.5936 
L 167.912338 -342.519591 
L 169.21058 -338.445581 
L 170.553584 -334.371572 
L 171.858519 -330.297562 
L 173.143341 -326.223553 
L 174.546583 -322.149543 
L 176.049396 -318.075534 
L 177.552892 -314.001524 
L 179.071357 -309.927515 
L 180.632599 -305.853505 
L 182.23212 -301.779496 
L 183.737107 -297.705486 
L 185.212114 -293.631476 
L 186.748285 -289.557467 
L 188.213064 -285.483457 
L 189.625994 -281.409448 
L 190.988615 -277.335438 
L 192.142532 -273.261429 
L 193.132305 -269.187419 
L 194.062455 -265.11341 
L 194.833173 -261.0394 
L 195.316267 -256.965391 
L 195.537425 -252.891381 
L 195.429006 -248.817372 
L 194.897811 -244.743362 
L 194.021241 -240.669353 
L 192.783703 -236.595343 
L 191.102241 -232.521333 
L 188.799174 -228.447324 
L 185.820395 -224.373314 
L 182.339965 -220.299305 
L 178.334048 -216.225295 
L 173.393271 -212.151286 
L 166.682434 -208.077276 
L 158.366475 -204.003267 
L 150.657585 -199.929257 
L 145.772897 -195.855248 
L 143.855076 -191.781238 
z
" style="stroke: #4d4d4d; stroke-opacity: 0.9; stroke-width: 1.25"/>
    </defs>
    <g clip-path="url(#p3baa02a6c3)">
     <use xlink:href="#m5cf23ce3e7" x="0" y="1173.6" style="fill: #d56b5b; fill-opacity: 0.9; stroke: #4d4d4d; stroke-opacity: 0.9; stroke-width: 1.25"/>
    </g>
   </g>
   <g id="FillBetweenPolyCollection_7">
    <defs>
     <path id="mdc05aca304" d="M 275.233631 -190.471818 
L 272.203619 -190.471818 
L 264.774335 -194.558982 
L 249.50571 -198.646146 
L 234.378244 -202.733311 
L 226.22317 -206.820475 
L 224.3836 -210.907639 
L 225.266082 -214.994803 
L 226.708441 -219.081967 
L 228.207754 -223.169131 
L 229.822307 -227.256295 
L 231.617876 -231.343459 
L 233.401181 -235.430623 
L 235.132816 -239.517788 
L 236.880782 -243.604952 
L 238.560665 -247.692116 
L 240.218416 -251.77928 
L 241.877097 -255.866444 
L 243.498698 -259.953608 
L 245.033859 -264.040772 
L 246.521479 -268.127936 
L 247.974986 -272.2151 
L 249.384591 -276.302265 
L 250.755989 -280.389429 
L 252.016202 -284.476593 
L 253.201284 -288.563757 
L 254.376816 -292.650921 
L 255.458207 -296.738085 
L 256.496607 -300.825249 
L 257.52965 -304.912413 
L 258.520777 -308.999577 
L 259.403784 -313.086742 
L 260.206925 -317.173906 
L 260.991343 -321.26107 
L 261.74022 -325.348234 
L 262.448837 -329.435398 
L 263.1434 -333.522562 
L 263.792202 -337.609726 
L 264.355297 -341.69689 
L 264.922994 -345.784054 
L 265.454448 -349.871219 
L 265.957518 -353.958383 
L 266.457168 -358.045547 
L 266.90793 -362.132711 
L 267.303523 -366.219875 
L 267.663688 -370.307039 
L 268.024098 -374.394203 
L 268.390064 -378.481367 
L 268.734596 -382.568531 
L 269.046016 -386.655696 
L 269.310977 -390.74286 
L 269.550828 -394.830024 
L 269.804623 -398.917188 
L 270.044497 -403.004352 
L 270.247428 -407.091516 
L 270.433734 -411.17868 
L 270.618686 -415.265844 
L 270.782831 -419.353008 
L 270.933571 -423.440173 
L 271.081038 -427.527337 
L 271.226225 -431.614501 
L 271.363948 -435.701665 
L 271.475665 -439.788829 
L 271.577431 -443.875993 
L 271.66731 -447.963157 
L 271.774608 -452.050321 
L 271.871172 -456.137485 
L 271.967099 -460.22465 
L 272.050308 -464.311814 
L 272.125234 -468.398978 
L 272.188085 -472.486142 
L 272.252406 -476.573306 
L 272.323854 -480.66047 
L 272.39406 -484.747634 
L 272.453373 -488.834798 
L 272.506649 -492.921962 
L 272.541224 -497.009127 
L 272.572842 -501.096291 
L 272.61605 -505.183455 
L 272.660217 -509.270619 
L 272.705527 -513.357783 
L 272.739271 -517.444947 
L 272.773047 -521.532111 
L 272.8211 -525.619275 
L 272.869415 -529.706439 
L 272.913226 -533.793604 
L 272.931612 -537.880768 
L 272.937329 -541.967932 
L 272.959313 -546.055096 
L 272.970378 -550.14226 
L 272.994559 -554.229424 
L 273.013361 -558.316588 
L 273.042577 -562.403752 
L 273.073141 -566.490916 
L 273.083599 -570.578081 
L 273.10351 -574.665245 
L 273.11965 -578.752409 
L 273.121472 -582.839573 
L 273.148567 -586.926737 
L 273.220067 -591.013901 
L 273.444563 -595.101065 
L 273.992687 -595.101065 
L 273.992687 -595.101065 
L 274.217183 -591.013901 
L 274.288683 -586.926737 
L 274.315778 -582.839573 
L 274.3176 -578.752409 
L 274.33374 -574.665245 
L 274.353651 -570.578081 
L 274.364109 -566.490916 
L 274.394673 -562.403752 
L 274.423889 -558.316588 
L 274.442691 -554.229424 
L 274.466872 -550.14226 
L 274.477937 -546.055096 
L 274.499921 -541.967932 
L 274.505638 -537.880768 
L 274.524024 -533.793604 
L 274.567835 -529.706439 
L 274.61615 -525.619275 
L 274.664203 -521.532111 
L 274.697979 -517.444947 
L 274.731723 -513.357783 
L 274.777033 -509.270619 
L 274.8212 -505.183455 
L 274.864408 -501.096291 
L 274.896026 -497.009127 
L 274.930601 -492.921962 
L 274.983877 -488.834798 
L 275.04319 -484.747634 
L 275.113396 -480.66047 
L 275.184844 -476.573306 
L 275.249165 -472.486142 
L 275.312016 -468.398978 
L 275.386942 -464.311814 
L 275.470151 -460.22465 
L 275.566078 -456.137485 
L 275.662642 -452.050321 
L 275.76994 -447.963157 
L 275.859819 -443.875993 
L 275.961585 -439.788829 
L 276.073302 -435.701665 
L 276.211025 -431.614501 
L 276.356212 -427.527337 
L 276.503679 -423.440173 
L 276.654419 -419.353008 
L 276.818564 -415.265844 
L 277.003516 -411.17868 
L 277.189822 -407.091516 
L 277.392753 -403.004352 
L 277.632627 -398.917188 
L 277.886422 -394.830024 
L 278.126273 -390.74286 
L 278.391234 -386.655696 
L 278.702654 -382.568531 
L 279.047186 -378.481367 
L 279.413152 -374.394203 
L 279.773562 -370.307039 
L 280.133727 -366.219875 
L 280.52932 -362.132711 
L 280.980082 -358.045547 
L 281.479732 -353.958383 
L 281.982802 -349.871219 
L 282.514256 -345.784054 
L 283.081953 -341.69689 
L 283.645048 -337.609726 
L 284.29385 -333.522562 
L 284.988413 -329.435398 
L 285.69703 -325.348234 
L 286.445907 -321.26107 
L 287.230325 -317.173906 
L 288.033466 -313.086742 
L 288.916473 -308.999577 
L 289.9076 -304.912413 
L 290.940643 -300.825249 
L 291.979043 -296.738085 
L 293.060434 -292.650921 
L 294.235966 -288.563757 
L 295.421048 -284.476593 
L 296.681261 -280.389429 
L 298.052659 -276.302265 
L 299.462264 -272.2151 
L 300.915771 -268.127936 
L 302.403391 -264.040772 
L 303.938552 -259.953608 
L 305.560153 -255.866444 
L 307.218834 -251.77928 
L 308.876585 -247.692116 
L 310.556468 -243.604952 
L 312.304434 -239.517788 
L 314.036069 -235.430623 
L 315.819374 -231.343459 
L 317.614943 -227.256295 
L 319.229496 -223.169131 
L 320.728809 -219.081967 
L 322.171168 -214.994803 
L 323.05365 -210.907639 
L 321.21408 -206.820475 
L 313.059006 -202.733311 
L 297.93154 -198.646146 
L 282.662915 -194.558982 
L 275.233631 -190.471818 
z
" style="stroke: #4d4d4d; stroke-opacity: 0.9; stroke-width: 1.25"/>
    </defs>
    <g clip-path="url(#p3baa02a6c3)">
     <use xlink:href="#mdc05aca304" x="0" y="1173.6" style="fill: #ecbd81; fill-opacity: 0.9; stroke: #4d4d4d; stroke-opacity: 0.9; stroke-width: 1.25"/>
    </g>
   </g>
   <g id="FillBetweenPolyCollection_8">
    <defs>
     <path id="m80ddfc32a2" d="M 405.017313 -190.5697 
L 403.023937 -190.5697 
L 400.450903 -194.655846 
L 396.184287 -198.741993 
L 392.007052 -202.828139 
L 389.466735 -206.914285 
L 388.576612 -211.000432 
L 388.547591 -215.086578 
L 388.747685 -219.172725 
L 388.948775 -223.258871 
L 389.127818 -227.345018 
L 389.317799 -231.431164 
L 389.526824 -235.517311 
L 389.733297 -239.603457 
L 389.962482 -243.689604 
L 390.239826 -247.77575 
L 390.568273 -251.861897 
L 390.943626 -255.948043 
L 391.333712 -260.03419 
L 391.71711 -264.120336 
L 392.098674 -268.206483 
L 392.511054 -272.292629 
L 392.955712 -276.378775 
L 393.389857 -280.464922 
L 393.837041 -284.551068 
L 394.3099 -288.637215 
L 394.76897 -292.723361 
L 395.212578 -296.809508 
L 395.638528 -300.895654 
L 396.038898 -304.981801 
L 396.452926 -309.067947 
L 396.85971 -313.154094 
L 397.24302 -317.24024 
L 397.623044 -321.326387 
L 397.978084 -325.412533 
L 398.318551 -329.49868 
L 398.656865 -333.584826 
L 398.974159 -337.670973 
L 399.272768 -341.757119 
L 399.572964 -345.843265 
L 399.857274 -349.929412 
L 400.109162 -354.015558 
L 400.345962 -358.101705 
L 400.578991 -362.187851 
L 400.787449 -366.273998 
L 400.966098 -370.360144 
L 401.142897 -374.446291 
L 401.323357 -378.532437 
L 401.496819 -382.618584 
L 401.66172 -386.70473 
L 401.812579 -390.790877 
L 401.948056 -394.877023 
L 402.073804 -398.96317 
L 402.191626 -403.049316 
L 402.303507 -407.135463 
L 402.402483 -411.221609 
L 402.485897 -415.307755 
L 402.57126 -419.393902 
L 402.666341 -423.480048 
L 402.752721 -427.566195 
L 402.816933 -431.652341 
L 402.875351 -435.738488 
L 402.936096 -439.824634 
L 402.987136 -443.910781 
L 403.028168 -447.996927 
L 403.076236 -452.083074 
L 403.127569 -456.16922 
L 403.169601 -460.255367 
L 403.206252 -464.341513 
L 403.243235 -468.42766 
L 403.281105 -472.513806 
L 403.319086 -476.599953 
L 403.355549 -480.686099 
L 403.387528 -484.772245 
L 403.412599 -488.858392 
L 403.431631 -492.944538 
L 403.453349 -497.030685 
L 403.479654 -501.116831 
L 403.503928 -505.202978 
L 403.527715 -509.289124 
L 403.550298 -513.375271 
L 403.56686 -517.461417 
L 403.579567 -521.547564 
L 403.594012 -525.63371 
L 403.608009 -529.719857 
L 403.619282 -533.806003 
L 403.631035 -537.89215 
L 403.646583 -541.978296 
L 403.665211 -546.064443 
L 403.677863 -550.150589 
L 403.681662 -554.236735 
L 403.685554 -558.322882 
L 403.69427 -562.409028 
L 403.698879 -566.495175 
L 403.701718 -570.581321 
L 403.709788 -574.667468 
L 403.721054 -578.753614 
L 403.730853 -582.839761 
L 403.744869 -586.925907 
L 403.788033 -591.012054 
L 403.880612 -595.0982 
L 404.160638 -595.0982 
L 404.160638 -595.0982 
L 404.253217 -591.012054 
L 404.296381 -586.925907 
L 404.310397 -582.839761 
L 404.320196 -578.753614 
L 404.331462 -574.667468 
L 404.339532 -570.581321 
L 404.342371 -566.495175 
L 404.34698 -562.409028 
L 404.355696 -558.322882 
L 404.359588 -554.236735 
L 404.363387 -550.150589 
L 404.376039 -546.064443 
L 404.394667 -541.978296 
L 404.410215 -537.89215 
L 404.421968 -533.806003 
L 404.433241 -529.719857 
L 404.447238 -525.63371 
L 404.461683 -521.547564 
L 404.47439 -517.461417 
L 404.490952 -513.375271 
L 404.513535 -509.289124 
L 404.537322 -505.202978 
L 404.561596 -501.116831 
L 404.587901 -497.030685 
L 404.609619 -492.944538 
L 404.628651 -488.858392 
L 404.653722 -484.772245 
L 404.685701 -480.686099 
L 404.722164 -476.599953 
L 404.760145 -472.513806 
L 404.798015 -468.42766 
L 404.834998 -464.341513 
L 404.871649 -460.255367 
L 404.913681 -456.16922 
L 404.965014 -452.083074 
L 405.013082 -447.996927 
L 405.054114 -443.910781 
L 405.105154 -439.824634 
L 405.165899 -435.738488 
L 405.224317 -431.652341 
L 405.288529 -427.566195 
L 405.374909 -423.480048 
L 405.46999 -419.393902 
L 405.555353 -415.307755 
L 405.638767 -411.221609 
L 405.737743 -407.135463 
L 405.849624 -403.049316 
L 405.967446 -398.96317 
L 406.093194 -394.877023 
L 406.228671 -390.790877 
L 406.37953 -386.70473 
L 406.544431 -382.618584 
L 406.717893 -378.532437 
L 406.898353 -374.446291 
L 407.075152 -370.360144 
L 407.253801 -366.273998 
L 407.462259 -362.187851 
L 407.695288 -358.101705 
L 407.932088 -354.015558 
L 408.183976 -349.929412 
L 408.468286 -345.843265 
L 408.768482 -341.757119 
L 409.067091 -337.670973 
L 409.384385 -333.584826 
L 409.722699 -329.49868 
L 410.063166 -325.412533 
L 410.418206 -321.326387 
L 410.79823 -317.24024 
L 411.18154 -313.154094 
L 411.588324 -309.067947 
L 412.002352 -304.981801 
L 412.402722 -300.895654 
L 412.828672 -296.809508 
L 413.27228 -292.723361 
L 413.73135 -288.637215 
L 414.204209 -284.551068 
L 414.651393 -280.464922 
L 415.085538 -276.378775 
L 415.530196 -272.292629 
L 415.942576 -268.206483 
L 416.32414 -264.120336 
L 416.707538 -260.03419 
L 417.097624 -255.948043 
L 417.472977 -251.861897 
L 417.801424 -247.77575 
L 418.078768 -243.689604 
L 418.307953 -239.603457 
L 418.514426 -235.517311 
L 418.723451 -231.431164 
L 418.913432 -227.345018 
L 419.092475 -223.258871 
L 419.293565 -219.172725 
L 419.493659 -215.086578 
L 419.464638 -211.000432 
L 418.574515 -206.914285 
L 416.034198 -202.828139 
L 411.856963 -198.741993 
L 407.590347 -194.655846 
L 405.017313 -190.5697 
z
" style="stroke: #4d4d4d; stroke-opacity: 0.9; stroke-width: 1.25"/>
    </defs>
    <g clip-path="url(#p3baa02a6c3)">
     <use xlink:href="#m80ddfc32a2" x="0" y="1173.6" style="fill: #f7f7c6; fill-opacity: 0.9; stroke: #4d4d4d; stroke-opacity: 0.9; stroke-width: 1.25"/>
    </g>
   </g>
   <g id="FillBetweenPolyCollection_9">
    <defs>
     <path id="mc6befafd9a" d="M 665.583519 -191.542661 
L 663.665731 -191.542661 
L 662.377378 -195.619016 
L 660.739765 -199.695371 
L 659.3255 -203.771727 
L 658.507906 -207.848082 
L 658.260353 -211.924438 
L 658.35898 -216.000793 
L 658.610413 -220.077149 
L 658.910994 -224.153504 
L 659.211256 -228.229859 
L 659.494659 -232.306215 
L 659.771508 -236.38257 
L 660.056373 -240.458926 
L 660.343543 -244.535281 
L 660.611967 -248.611637 
L 660.854486 -252.687992 
L 661.080816 -256.764348 
L 661.294784 -260.840703 
L 661.495588 -264.917058 
L 661.688022 -268.993414 
L 661.870144 -273.069769 
L 662.032113 -277.146125 
L 662.176283 -281.22248 
L 662.314493 -285.298836 
L 662.448607 -289.375191 
L 662.575984 -293.451547 
L 662.698769 -297.527902 
L 662.815816 -301.604257 
L 662.922359 -305.680613 
L 663.01676 -309.756968 
L 663.101489 -313.833324 
L 663.181815 -317.909679 
L 663.261767 -321.986035 
L 663.341097 -326.06239 
L 663.415721 -330.138746 
L 663.481095 -334.215101 
L 663.539114 -338.291456 
L 663.595099 -342.367812 
L 663.648351 -346.444167 
L 663.695664 -350.520523 
L 663.738079 -354.596878 
L 663.778476 -358.673234 
L 663.81825 -362.749589 
L 663.857098 -366.825945 
L 663.893126 -370.9023 
L 663.925756 -374.978655 
L 663.957401 -379.055011 
L 663.989368 -383.131366 
L 664.020505 -387.207722 
L 664.049753 -391.284077 
L 664.076464 -395.360433 
L 664.100842 -399.436788 
L 664.123958 -403.513143 
L 664.145287 -407.589499 
L 664.163523 -411.665854 
L 664.179749 -415.74221 
L 664.196154 -419.818565 
L 664.213183 -423.894921 
L 664.229316 -427.971276 
L 664.243443 -432.047632 
L 664.255938 -436.123987 
L 664.267674 -440.200342 
L 664.280581 -444.276698 
L 664.296235 -448.353053 
L 664.312916 -452.429409 
L 664.327335 -456.505764 
L 664.337476 -460.58212 
L 664.343886 -464.658475 
L 664.349726 -468.734831 
L 664.357412 -472.811186 
L 664.365663 -476.887541 
L 664.371706 -480.963897 
L 664.376753 -485.040252 
L 664.384131 -489.116608 
L 664.39308 -493.192963 
L 664.400667 -497.269319 
L 664.406027 -501.345674 
L 664.410708 -505.42203 
L 664.416528 -509.498385 
L 664.423256 -513.57474 
L 664.429405 -517.651096 
L 664.434477 -521.727451 
L 664.439257 -525.803807 
L 664.444417 -529.880162 
L 664.449558 -533.956518 
L 664.453614 -538.032873 
L 664.456588 -542.109229 
L 664.460131 -546.185584 
L 664.464746 -550.261939 
L 664.468974 -554.338295 
L 664.471739 -558.41465 
L 664.473157 -562.491006 
L 664.474831 -566.567361 
L 664.478689 -570.643717 
L 664.484387 -574.720072 
L 664.489567 -578.796427 
L 664.493595 -582.872783 
L 664.501751 -586.949138 
L 664.523762 -591.025494 
L 664.560284 -595.101849 
L 664.688966 -595.101849 
L 664.688966 -595.101849 
L 664.725488 -591.025494 
L 664.747499 -586.949138 
L 664.755655 -582.872783 
L 664.759683 -578.796427 
L 664.764863 -574.720072 
L 664.770561 -570.643717 
L 664.774419 -566.567361 
L 664.776093 -562.491006 
L 664.777511 -558.41465 
L 664.780276 -554.338295 
L 664.784504 -550.261939 
L 664.789119 -546.185584 
L 664.792662 -542.109229 
L 664.795636 -538.032873 
L 664.799692 -533.956518 
L 664.804833 -529.880162 
L 664.809993 -525.803807 
L 664.814773 -521.727451 
L 664.819845 -517.651096 
L 664.825994 -513.57474 
L 664.832722 -509.498385 
L 664.838542 -505.42203 
L 664.843223 -501.345674 
L 664.848583 -497.269319 
L 664.85617 -493.192963 
L 664.865119 -489.116608 
L 664.872497 -485.040252 
L 664.877544 -480.963897 
L 664.883587 -476.887541 
L 664.891838 -472.811186 
L 664.899524 -468.734831 
L 664.905364 -464.658475 
L 664.911774 -460.58212 
L 664.921915 -456.505764 
L 664.936334 -452.429409 
L 664.953015 -448.353053 
L 664.968669 -444.276698 
L 664.981576 -440.200342 
L 664.993312 -436.123987 
L 665.005807 -432.047632 
L 665.019934 -427.971276 
L 665.036067 -423.894921 
L 665.053096 -419.818565 
L 665.069501 -415.74221 
L 665.085727 -411.665854 
L 665.103963 -407.589499 
L 665.125292 -403.513143 
L 665.148408 -399.436788 
L 665.172786 -395.360433 
L 665.199497 -391.284077 
L 665.228745 -387.207722 
L 665.259882 -383.131366 
L 665.291849 -379.055011 
L 665.323494 -374.978655 
L 665.356124 -370.9023 
L 665.392152 -366.825945 
L 665.431 -362.749589 
L 665.470774 -358.673234 
L 665.511171 -354.596878 
L 665.553586 -350.520523 
L 665.600899 -346.444167 
L 665.654151 -342.367812 
L 665.710136 -338.291456 
L 665.768155 -334.215101 
L 665.833529 -330.138746 
L 665.908153 -326.06239 
L 665.987483 -321.986035 
L 666.067435 -317.909679 
L 666.147761 -313.833324 
L 666.23249 -309.756968 
L 666.326891 -305.680613 
L 666.433434 -301.604257 
L 666.550481 -297.527902 
L 666.673266 -293.451547 
L 666.800643 -289.375191 
L 666.934757 -285.298836 
L 667.072967 -281.22248 
L 667.217137 -277.146125 
L 667.379106 -273.069769 
L 667.561228 -268.993414 
L 667.753662 -264.917058 
L 667.954466 -260.840703 
L 668.168434 -256.764348 
L 668.394764 -252.687992 
L 668.637283 -248.611637 
L 668.905707 -244.535281 
L 669.192877 -240.458926 
L 669.477742 -236.38257 
L 669.754591 -232.306215 
L 670.037994 -228.229859 
L 670.338256 -224.153504 
L 670.638837 -220.077149 
L 670.89027 -216.000793 
L 670.988897 -211.924438 
L 670.741344 -207.848082 
L 669.92375 -203.771727 
L 668.509485 -199.695371 
L 666.871872 -195.619016 
L 665.583519 -191.542661 
z
" style="stroke: #4d4d4d; stroke-opacity: 0.9; stroke-width: 1.25"/>
    </defs>
    <g clip-path="url(#p3baa02a6c3)">
     <use xlink:href="#mc6befafd9a" x="0" y="1173.6" style="fill: #5fa2a2; fill-opacity: 0.9; stroke: #4d4d4d; stroke-opacity: 0.9; stroke-width: 1.25"/>
    </g>
   </g>
   <g id="line2d_34">
    <path d="M 143.416625 981.818762 
L 143.416625 691.511011 
" clip-path="url(#p3baa02a6c3)" style="fill: none; stroke: #4d4d4d; stroke-width: 1.875; stroke-linecap: round"/>
   </g>
   <g id="line2d_35">
    <path d="M 143.416625 924.895841 
L 143.416625 831.541897 
" clip-path="url(#p3baa02a6c3)" style="fill: none; stroke: #4d4d4d; stroke-width: 5.625; stroke-linecap: round"/>
   </g>
   <g id="line2d_36">
    <path d="M 143.416625 886.789879 
" clip-path="url(#p3baa02a6c3)" style="fill: none; stroke: #4d4d4d; stroke-width: 1.5; stroke-linecap: round"/>
    <g clip-path="url(#p3baa02a6c3)">
     <use xlink:href="#m260525dc45" x="143.416625" y="886.789879" style="fill: #ffffff; stroke: #ffffff; stroke-width: 1.125"/>
    </g>
   </g>
   <g id="line2d_37">
    <path d="M 273.718625 983.128182 
L 273.718625 755.873454 
" clip-path="url(#p3baa02a6c3)" style="fill: none; stroke: #4d4d4d; stroke-width: 1.875; stroke-linecap: round"/>
   </g>
   <g id="line2d_38">
    <path d="M 273.718625 950.639336 
L 273.718625 872.732912 
" clip-path="url(#p3baa02a6c3)" style="fill: none; stroke: #4d4d4d; stroke-width: 5.625; stroke-linecap: round"/>
   </g>
   <g id="line2d_39">
    <path d="M 273.718625 920.753124 
" clip-path="url(#p3baa02a6c3)" style="fill: none; stroke: #4d4d4d; stroke-width: 1.5; stroke-linecap: round"/>
    <g clip-path="url(#p3baa02a6c3)">
     <use xlink:href="#m260525dc45" x="273.718625" y="920.753124" style="fill: #ffffff; stroke: #ffffff; stroke-width: 1.125"/>
    </g>
   </g>
   <g id="line2d_40">
    <path d="M 404.020625 983.0303 
L 404.020625 731.63207 
" clip-path="url(#p3baa02a6c3)" style="fill: none; stroke: #4d4d4d; stroke-width: 1.875; stroke-linecap: round"/>
   </g>
   <g id="line2d_41">
    <path d="M 404.020625 943.70611 
L 404.020625 858.875701 
" clip-path="url(#p3baa02a6c3)" style="fill: none; stroke: #4d4d4d; stroke-width: 5.625; stroke-linecap: round"/>
   </g>
   <g id="line2d_42">
    <path d="M 404.020625 908.729157 
" clip-path="url(#p3baa02a6c3)" style="fill: none; stroke: #4d4d4d; stroke-width: 1.5; stroke-linecap: round"/>
    <g clip-path="url(#p3baa02a6c3)">
     <use xlink:href="#m260525dc45" x="404.020625" y="908.729157" style="fill: #ffffff; stroke: #ffffff; stroke-width: 1.125"/>
    </g>
   </g>
   <g id="line2d_43">
    <path d="M 664.624625 982.057339 
L 664.624625 745.03153 
" clip-path="url(#p3baa02a6c3)" style="fill: none; stroke: #4d4d4d; stroke-width: 1.875; stroke-linecap: round"/>
   </g>
   <g id="line2d_44">
    <path d="M 664.624625 953.069534 
L 664.624625 869.852826 
" clip-path="url(#p3baa02a6c3)" style="fill: none; stroke: #4d4d4d; stroke-width: 5.625; stroke-linecap: round"/>
   </g>
   <g id="line2d_45">
    <path d="M 664.624625 923.726032 
" clip-path="url(#p3baa02a6c3)" style="fill: none; stroke: #4d4d4d; stroke-width: 1.5; stroke-linecap: round"/>
    <g clip-path="url(#p3baa02a6c3)">
     <use xlink:href="#m260525dc45" x="664.624625" y="923.726032" style="fill: #ffffff; stroke: #ffffff; stroke-width: 1.125"/>
    </g>
   </g>
   <g id="patch_8">
    <path d="M 78.265625 1003.36 
L 78.265625 558.26 
" style="fill: none; stroke: #cccccc; stroke-width: 1.25; stroke-linejoin: miter; stroke-linecap: square"/>
   </g>
   <g id="patch_9">
    <path d="M 729.775625 1003.36 
L 729.775625 558.26 
" style="fill: none; stroke: #cccccc; stroke-width: 1.25; stroke-linejoin: miter; stroke-linecap: square"/>
   </g>
   <g id="patch_10">
    <path d="M 78.265625 1003.36 
L 729.775625 1003.36 
" style="fill: none; stroke: #cccccc; stroke-width: 1.25; stroke-linejoin: miter; stroke-linecap: square"/>
   </g>
   <g id="patch_11">
    <path d="M 78.265625 558.26 
L 729.775625 558.26 
" style="fill: none; stroke: #cccccc; stroke-width: 1.25; stroke-linejoin: miter; stroke-linecap: square"/>
   </g>
   <g id="text_27">
    <text style="font-size: 10px; font-family: 'Arial', 'DejaVu Sans', 'Liberation Sans', 'Bitstream Vera Sans', sans-serif; text-anchor: middle; fill: #262626" x="404.020625" y="552.26" transform="rotate(-0 404.020625 552.26)">cycif-sorgerlab</text>
   </g>
  </g>
  <g id="text_28">
   <text style="font-size: 10px; font-family: 'Arial', 'DejaVu Sans', 'Liberation Sans', 'Bitstream Vera Sans', sans-serif; text-anchor: middle; fill: #262626" x="382.735625" y="43.998438" transform="rotate(-0 382.735625 43.998438)">Distance distribution per Level One Cell Type in `colon-cycif-sorgerlab-xenium-stanford` (density normalization = count)</text>
  </g>
  <g id="text_29">
   <text style="font-size: 10px; font-family: 'Arial', 'DejaVu Sans', 'Liberation Sans', 'Bitstream Vera Sans', sans-serif; text-anchor: middle; fill: #262626" x="382.735625" y="1135.520313" transform="rotate(-0 382.735625 1135.520313)">Level One Cell Type</text>
  </g>
 </g>
 <defs>
  <clipPath id="p832fbb0259">
   <rect x="78.265625" y="86.28" width="651.51" height="445.1"/>
  </clipPath>
  <clipPath id="p3baa02a6c3">
   <rect x="78.265625" y="558.26" width="651.51" height="445.1"/>
  </clipPath>
 </defs>
</svg>
