<?xml version="1.0" encoding="utf-8" standalone="no"?>
<!DOCTYPE svg PUBLIC "-//W3C//DTD SVG 1.1//EN"
  "http://www.w3.org/Graphics/SVG/1.1/DTD/svg11.dtd">
<svg xmlns:xlink="http://www.w3.org/1999/xlink" width="1139.831225pt" height="770.741813pt" viewBox="0 0 1139.831225 770.741813" xmlns="http://www.w3.org/2000/svg" version="1.1">
 <metadata>
  <rdf:RDF xmlns:dc="http://purl.org/dc/elements/1.1/" xmlns:cc="http://creativecommons.org/ns#" xmlns:rdf="http://www.w3.org/1999/02/22-rdf-syntax-ns#">
   <cc:Work>
    <dc:type rdf:resource="http://purl.org/dc/dcmitype/StillImage"/>
    <dc:date>2025-07-25T12:56:37.394184</dc:date>
    <dc:format>image/svg+xml</dc:format>
    <dc:creator>
     <cc:Agent>
      <dc:title>Matplotlib v3.10.3, https://matplotlib.org/</dc:title>
     </cc:Agent>
    </dc:creator>
   </cc:Work>
  </rdf:RDF>
 </metadata>
 <defs>
  <style type="text/css">*{stroke-linejoin: round; stroke-linecap: butt}</style>
 </defs>
 <g id="figure_1">
  <g id="patch_1">
   <path d="M 0 770.741813 
L 1139.831225 770.741813 
L 1139.831225 0 
L 0 0 
z
" style="fill: #ffffff"/>
  </g>
  <g id="axes_1">
   <g id="patch_2">
    <path d="M 78.265625 621.182437 
L 974.409625 621.182437 
L 974.409625 49.598438 
L 78.265625 49.598438 
z
" style="fill: #ffffff"/>
   </g>
   <g id="matplotlib.axis_1">
    <g id="xtick_1">
     <g id="text_1">
      <text style="font-size: 10px; font-family: 'Arial', 'DejaVu Sans', 'Liberation Sans', 'Bitstream Vera Sans', sans-serif; fill: #262626" transform="translate(170.6394 697.2215) rotate(-90)">epithelial cell</text>
     </g>
    </g>
    <g id="xtick_2">
     <g id="text_2">
      <text style="font-size: 10px; font-family: 'Arial', 'DejaVu Sans', 'Liberation Sans', 'Bitstream Vera Sans', sans-serif; fill: #262626" transform="translate(349.8682 721.063688) rotate(-90)">mesenchymal cell</text>
     </g>
    </g>
    <g id="xtick_3">
     <g id="text_3">
      <text style="font-size: 10px; font-family: 'Arial', 'DejaVu Sans', 'Liberation Sans', 'Bitstream Vera Sans', sans-serif; fill: #262626" transform="translate(529.097 692.155875) rotate(-90)">immune cell</text>
     </g>
    </g>
    <g id="xtick_4">
     <g id="text_4">
      <text style="font-size: 10px; font-family: 'Arial', 'DejaVu Sans', 'Liberation Sans', 'Bitstream Vera Sans', sans-serif; fill: #262626" transform="translate(708.3258 696.505875) rotate(-90)">unknown cell</text>
     </g>
    </g>
    <g id="xtick_5">
     <g id="text_5">
      <text style="font-size: 10px; font-family: 'Arial', 'DejaVu Sans', 'Liberation Sans', 'Bitstream Vera Sans', sans-serif; fill: #262626" transform="translate(887.5546 682.913688) rotate(-90)">neural cell</text>
     </g>
    </g>
    <g id="text_6">
     <text style="font-size: 10px; font-family: 'Arial', 'DejaVu Sans', 'Liberation Sans', 'Bitstream Vera Sans', sans-serif; text-anchor: middle; fill: #262626" x="526.337625" y="732.662125" transform="rotate(-0 526.337625 732.662125)">Cell Type</text>
    </g>
   </g>
   <g id="matplotlib.axis_2">
    <g id="ytick_1">
     <g id="line2d_1">
      <path d="M 78.265625 596.915947 
L 974.409625 596.915947 
" clip-path="url(#p1858f8e142)" style="fill: none; stroke: #cccccc; stroke-width: 2; stroke-linecap: round"/>
     </g>
     <g id="text_7">
      <text style="font-size: 10px; font-family: 'Arial', 'DejaVu Sans', 'Liberation Sans', 'Bitstream Vera Sans', sans-serif; text-anchor: end; fill: #262626" x="68.765625" y="600.715166" transform="rotate(-0 68.765625 600.715166)">0</text>
     </g>
    </g>
    <g id="ytick_2">
     <g id="line2d_2">
      <path d="M 78.265625 531.748874 
L 974.409625 531.748874 
" clip-path="url(#p1858f8e142)" style="fill: none; stroke: #cccccc; stroke-width: 2; stroke-linecap: round"/>
     </g>
     <g id="text_8">
      <text style="font-size: 10px; font-family: 'Arial', 'DejaVu Sans', 'Liberation Sans', 'Bitstream Vera Sans', sans-serif; text-anchor: end; fill: #262626" x="68.765625" y="535.548093" transform="rotate(-0 68.765625 535.548093)">25</text>
     </g>
    </g>
    <g id="ytick_3">
     <g id="line2d_3">
      <path d="M 78.265625 466.581801 
L 974.409625 466.581801 
" clip-path="url(#p1858f8e142)" style="fill: none; stroke: #cccccc; stroke-width: 2; stroke-linecap: round"/>
     </g>
     <g id="text_9">
      <text style="font-size: 10px; font-family: 'Arial', 'DejaVu Sans', 'Liberation Sans', 'Bitstream Vera Sans', sans-serif; text-anchor: end; fill: #262626" x="68.765625" y="470.38102" transform="rotate(-0 68.765625 470.38102)">50</text>
     </g>
    </g>
    <g id="ytick_4">
     <g id="line2d_4">
      <path d="M 78.265625 401.414728 
L 974.409625 401.414728 
" clip-path="url(#p1858f8e142)" style="fill: none; stroke: #cccccc; stroke-width: 2; stroke-linecap: round"/>
     </g>
     <g id="text_10">
      <text style="font-size: 10px; font-family: 'Arial', 'DejaVu Sans', 'Liberation Sans', 'Bitstream Vera Sans', sans-serif; text-anchor: end; fill: #262626" x="68.765625" y="405.213947" transform="rotate(-0 68.765625 405.213947)">75</text>
     </g>
    </g>
    <g id="ytick_5">
     <g id="line2d_5">
      <path d="M 78.265625 336.247655 
L 974.409625 336.247655 
" clip-path="url(#p1858f8e142)" style="fill: none; stroke: #cccccc; stroke-width: 2; stroke-linecap: round"/>
     </g>
     <g id="text_11">
      <text style="font-size: 10px; font-family: 'Arial', 'DejaVu Sans', 'Liberation Sans', 'Bitstream Vera Sans', sans-serif; text-anchor: end; fill: #262626" x="68.765625" y="340.046873" transform="rotate(-0 68.765625 340.046873)">100</text>
     </g>
    </g>
    <g id="ytick_6">
     <g id="line2d_6">
      <path d="M 78.265625 271.080582 
L 974.409625 271.080582 
" clip-path="url(#p1858f8e142)" style="fill: none; stroke: #cccccc; stroke-width: 2; stroke-linecap: round"/>
     </g>
     <g id="text_12">
      <text style="font-size: 10px; font-family: 'Arial', 'DejaVu Sans', 'Liberation Sans', 'Bitstream Vera Sans', sans-serif; text-anchor: end; fill: #262626" x="68.765625" y="274.8798" transform="rotate(-0 68.765625 274.8798)">125</text>
     </g>
    </g>
    <g id="ytick_7">
     <g id="line2d_7">
      <path d="M 78.265625 205.913508 
L 974.409625 205.913508 
" clip-path="url(#p1858f8e142)" style="fill: none; stroke: #cccccc; stroke-width: 2; stroke-linecap: round"/>
     </g>
     <g id="text_13">
      <text style="font-size: 10px; font-family: 'Arial', 'DejaVu Sans', 'Liberation Sans', 'Bitstream Vera Sans', sans-serif; text-anchor: end; fill: #262626" x="68.765625" y="209.712727" transform="rotate(-0 68.765625 209.712727)">150</text>
     </g>
    </g>
    <g id="ytick_8">
     <g id="line2d_8">
      <path d="M 78.265625 140.746435 
L 974.409625 140.746435 
" clip-path="url(#p1858f8e142)" style="fill: none; stroke: #cccccc; stroke-width: 2; stroke-linecap: round"/>
     </g>
     <g id="text_14">
      <text style="font-size: 10px; font-family: 'Arial', 'DejaVu Sans', 'Liberation Sans', 'Bitstream Vera Sans', sans-serif; text-anchor: end; fill: #262626" x="68.765625" y="144.545654" transform="rotate(-0 68.765625 144.545654)">175</text>
     </g>
    </g>
    <g id="ytick_9">
     <g id="line2d_9">
      <path d="M 78.265625 75.579362 
L 974.409625 75.579362 
" clip-path="url(#p1858f8e142)" style="fill: none; stroke: #cccccc; stroke-width: 2; stroke-linecap: round"/>
     </g>
     <g id="text_15">
      <text style="font-size: 10px; font-family: 'Arial', 'DejaVu Sans', 'Liberation Sans', 'Bitstream Vera Sans', sans-serif; text-anchor: end; fill: #262626" x="68.765625" y="79.378581" transform="rotate(-0 68.765625 79.378581)">200</text>
     </g>
    </g>
    <g id="text_16">
     <text style="font-size: 10px; font-family: 'Arial', 'DejaVu Sans', 'Liberation Sans', 'Bitstream Vera Sans', sans-serif; text-anchor: middle; fill: #262626" x="43.598437" y="335.390438" transform="rotate(-90 43.598437 335.390438)">Distance (μm)</text>
    </g>
   </g>
   <g id="FillBetweenPolyCollection_1">
    <defs>
     <path id="m96d69e14e4" d="M 167.880025 -175.540466 
L 167.806496 -175.540466 
L 166.723937 -180.788876 
L 163.716768 -186.037286 
L 160.830267 -191.285696 
L 158.103739 -196.534106 
L 155.197647 -201.782516 
L 152.541693 -207.030926 
L 150.222573 -212.279336 
L 148.437695 -217.527746 
L 147.169842 -222.776156 
L 146.436652 -228.024566 
L 146.111717 -233.272976 
L 146.2023 -238.521386 
L 146.623687 -243.769796 
L 147.231935 -249.018206 
L 148.186073 -254.266616 
L 149.373707 -259.515027 
L 150.698359 -264.763437 
L 152.157744 -270.011847 
L 153.457095 -275.260257 
L 154.767662 -280.508667 
L 156.032982 -285.757077 
L 157.227826 -291.005487 
L 158.348421 -296.253897 
L 159.42693 -301.502307 
L 160.387794 -306.750717 
L 161.273871 -311.999127 
L 162.078759 -317.247537 
L 162.735464 -322.495947 
L 163.3145 -327.744357 
L 163.859965 -332.992767 
L 164.331499 -338.241177 
L 164.751954 -343.489587 
L 165.153423 -348.737997 
L 165.495548 -353.986407 
L 165.766994 -359.234817 
L 166.025887 -364.483227 
L 166.250086 -369.731637 
L 166.467148 -374.980047 
L 166.645559 -380.228457 
L 166.780633 -385.476867 
L 166.898893 -390.725278 
L 167.011707 -395.973688 
L 167.114638 -401.222098 
L 167.191377 -406.470508 
L 167.276188 -411.718918 
L 167.361532 -416.967328 
L 167.407691 -422.215738 
L 167.460598 -427.464148 
L 167.496721 -432.712558 
L 167.543147 -437.960968 
L 167.578248 -443.209378 
L 167.607696 -448.457788 
L 167.628001 -453.706198 
L 167.651306 -458.954608 
L 167.683716 -464.203018 
L 167.703465 -469.451428 
L 167.717002 -474.699838 
L 167.732229 -479.948248 
L 167.744512 -485.196658 
L 167.754163 -490.445068 
L 167.768067 -495.693478 
L 167.776227 -500.941888 
L 167.781118 -506.190298 
L 167.787427 -511.438708 
L 167.793617 -516.687118 
L 167.79516 -521.935529 
L 167.799222 -527.183939 
L 167.809541 -532.432349 
L 167.814563 -537.680759 
L 167.813474 -542.929169 
L 167.815275 -548.177579 
L 167.816878 -553.425989 
L 167.81824 -558.674399 
L 167.818662 -563.922809 
L 167.827245 -569.171219 
L 167.833703 -574.419629 
L 167.834004 -579.668039 
L 167.837401 -584.916449 
L 167.840754 -590.164859 
L 167.845105 -595.413269 
L 167.846497 -600.661679 
L 167.845348 -605.910089 
L 167.85262 -611.158499 
L 167.853635 -616.406909 
L 167.851394 -621.655319 
L 167.852757 -626.903729 
L 167.856754 -632.152139 
L 167.857301 -637.400549 
L 167.855675 -642.648959 
L 167.853305 -647.897369 
L 167.85613 -653.145779 
L 167.858419 -658.39419 
L 167.862098 -663.6426 
L 167.862053 -668.89101 
L 167.861687 -674.13942 
L 167.862809 -679.38783 
L 167.865454 -684.63624 
L 167.864372 -689.88465 
L 167.872465 -695.13306 
L 167.880025 -695.13306 
L 167.880025 -695.13306 
L 167.880025 -689.88465 
L 167.880025 -684.63624 
L 167.880025 -679.38783 
L 167.880025 -674.13942 
L 167.880025 -668.89101 
L 167.880025 -663.6426 
L 167.880025 -658.39419 
L 167.880025 -653.145779 
L 167.880025 -647.897369 
L 167.880025 -642.648959 
L 167.880025 -637.400549 
L 167.880025 -632.152139 
L 167.880025 -626.903729 
L 167.880025 -621.655319 
L 167.880025 -616.406909 
L 167.880025 -611.158499 
L 167.880025 -605.910089 
L 167.880025 -600.661679 
L 167.880025 -595.413269 
L 167.880025 -590.164859 
L 167.880025 -584.916449 
L 167.880025 -579.668039 
L 167.880025 -574.419629 
L 167.880025 -569.171219 
L 167.880025 -563.922809 
L 167.880025 -558.674399 
L 167.880025 -553.425989 
L 167.880025 -548.177579 
L 167.880025 -542.929169 
L 167.880025 -537.680759 
L 167.880025 -532.432349 
L 167.880025 -527.183939 
L 167.880025 -521.935529 
L 167.880025 -516.687118 
L 167.880025 -511.438708 
L 167.880025 -506.190298 
L 167.880025 -500.941888 
L 167.880025 -495.693478 
L 167.880025 -490.445068 
L 167.880025 -485.196658 
L 167.880025 -479.948248 
L 167.880025 -474.699838 
L 167.880025 -469.451428 
L 167.880025 -464.203018 
L 167.880025 -458.954608 
L 167.880025 -453.706198 
L 167.880025 -448.457788 
L 167.880025 -443.209378 
L 167.880025 -437.960968 
L 167.880025 -432.712558 
L 167.880025 -427.464148 
L 167.880025 -422.215738 
L 167.880025 -416.967328 
L 167.880025 -411.718918 
L 167.880025 -406.470508 
L 167.880025 -401.222098 
L 167.880025 -395.973688 
L 167.880025 -390.725278 
L 167.880025 -385.476867 
L 167.880025 -380.228457 
L 167.880025 -374.980047 
L 167.880025 -369.731637 
L 167.880025 -364.483227 
L 167.880025 -359.234817 
L 167.880025 -353.986407 
L 167.880025 -348.737997 
L 167.880025 -343.489587 
L 167.880025 -338.241177 
L 167.880025 -332.992767 
L 167.880025 -327.744357 
L 167.880025 -322.495947 
L 167.880025 -317.247537 
L 167.880025 -311.999127 
L 167.880025 -306.750717 
L 167.880025 -301.502307 
L 167.880025 -296.253897 
L 167.880025 -291.005487 
L 167.880025 -285.757077 
L 167.880025 -280.508667 
L 167.880025 -275.260257 
L 167.880025 -270.011847 
L 167.880025 -264.763437 
L 167.880025 -259.515027 
L 167.880025 -254.266616 
L 167.880025 -249.018206 
L 167.880025 -243.769796 
L 167.880025 -238.521386 
L 167.880025 -233.272976 
L 167.880025 -228.024566 
L 167.880025 -222.776156 
L 167.880025 -217.527746 
L 167.880025 -212.279336 
L 167.880025 -207.030926 
L 167.880025 -201.782516 
L 167.880025 -196.534106 
L 167.880025 -191.285696 
L 167.880025 -186.037286 
L 167.880025 -180.788876 
L 167.880025 -175.540466 
z
" style="stroke: #6d6d6d; stroke-opacity: 0.9; stroke-width: 1.25"/>
    </defs>
    <g clip-path="url(#p1858f8e142)">
     <use xlink:href="#m96d69e14e4" x="0" y="770.741813" style="fill: #ecbd81; fill-opacity: 0.9; stroke: #6d6d6d; stroke-opacity: 0.9; stroke-width: 1.25"/>
    </g>
   </g>
   <g id="FillBetweenPolyCollection_2">
    <defs>
     <path id="m51e1ed5cfd" d="M 168.208807 -191.660383 
L 167.880025 -191.660383 
L 167.880025 -196.746261 
L 167.880025 -201.832139 
L 167.880025 -206.918017 
L 167.880025 -212.003895 
L 167.880025 -217.089772 
L 167.880025 -222.17565 
L 167.880025 -227.261528 
L 167.880025 -232.347406 
L 167.880025 -237.433284 
L 167.880025 -242.519161 
L 167.880025 -247.605039 
L 167.880025 -252.690917 
L 167.880025 -257.776795 
L 167.880025 -262.862672 
L 167.880025 -267.94855 
L 167.880025 -273.034428 
L 167.880025 -278.120306 
L 167.880025 -283.206184 
L 167.880025 -288.292061 
L 167.880025 -293.377939 
L 167.880025 -298.463817 
L 167.880025 -303.549695 
L 167.880025 -308.635573 
L 167.880025 -313.72145 
L 167.880025 -318.807328 
L 167.880025 -323.893206 
L 167.880025 -328.979084 
L 167.880025 -334.064961 
L 167.880025 -339.150839 
L 167.880025 -344.236717 
L 167.880025 -349.322595 
L 167.880025 -354.408473 
L 167.880025 -359.49435 
L 167.880025 -364.580228 
L 167.880025 -369.666106 
L 167.880025 -374.751984 
L 167.880025 -379.837861 
L 167.880025 -384.923739 
L 167.880025 -390.009617 
L 167.880025 -395.095495 
L 167.880025 -400.181373 
L 167.880025 -405.26725 
L 167.880025 -410.353128 
L 167.880025 -415.439006 
L 167.880025 -420.524884 
L 167.880025 -425.610762 
L 167.880025 -430.696639 
L 167.880025 -435.782517 
L 167.880025 -440.868395 
L 167.880025 -445.954273 
L 167.880025 -451.04015 
L 167.880025 -456.126028 
L 167.880025 -461.211906 
L 167.880025 -466.297784 
L 167.880025 -471.383662 
L 167.880025 -476.469539 
L 167.880025 -481.555417 
L 167.880025 -486.641295 
L 167.880025 -491.727173 
L 167.880025 -496.813051 
L 167.880025 -501.898928 
L 167.880025 -506.984806 
L 167.880025 -512.070684 
L 167.880025 -517.156562 
L 167.880025 -522.242439 
L 167.880025 -527.328317 
L 167.880025 -532.414195 
L 167.880025 -537.500073 
L 167.880025 -542.585951 
L 167.880025 -547.671828 
L 167.880025 -552.757706 
L 167.880025 -557.843584 
L 167.880025 -562.929462 
L 167.880025 -568.015339 
L 167.880025 -573.101217 
L 167.880025 -578.187095 
L 167.880025 -583.272973 
L 167.880025 -588.358851 
L 167.880025 -593.444728 
L 167.880025 -598.530606 
L 167.880025 -603.616484 
L 167.880025 -608.702362 
L 167.880025 -613.78824 
L 167.880025 -618.874117 
L 167.880025 -623.959995 
L 167.880025 -629.045873 
L 167.880025 -634.131751 
L 167.880025 -639.217628 
L 167.880025 -644.303506 
L 167.880025 -649.389384 
L 167.880025 -654.475262 
L 167.880025 -659.56114 
L 167.880025 -664.647017 
L 167.880025 -669.732895 
L 167.880025 -674.818773 
L 167.880025 -679.904651 
L 167.880025 -684.990529 
L 167.880025 -690.076406 
L 167.880025 -695.162284 
L 172.220688 -695.162284 
L 172.220688 -695.162284 
L 175.239816 -690.076406 
L 176.734924 -684.990529 
L 177.259203 -679.904651 
L 177.580701 -674.818773 
L 177.920556 -669.732895 
L 178.278563 -664.647017 
L 178.641841 -659.56114 
L 179.005812 -654.475262 
L 179.371141 -649.389384 
L 179.754765 -644.303506 
L 180.175526 -639.217628 
L 180.618198 -634.131751 
L 181.057667 -629.045873 
L 181.51319 -623.959995 
L 181.953014 -618.874117 
L 182.402393 -613.78824 
L 182.899704 -608.702362 
L 183.402401 -603.616484 
L 183.937923 -598.530606 
L 184.517103 -593.444728 
L 185.108492 -588.358851 
L 185.700578 -583.272973 
L 186.280607 -578.187095 
L 186.863369 -573.101217 
L 187.513265 -568.015339 
L 188.215576 -562.929462 
L 188.872249 -557.843584 
L 189.555165 -552.757706 
L 190.355133 -547.671828 
L 191.197302 -542.585951 
L 192.021883 -537.500073 
L 192.833872 -532.414195 
L 193.617661 -527.328317 
L 194.392064 -522.242439 
L 195.252861 -517.156562 
L 196.190806 -512.070684 
L 197.159186 -506.984806 
L 198.158715 -501.898928 
L 199.132212 -496.813051 
L 200.077695 -491.727173 
L 201.099145 -486.641295 
L 202.216325 -481.555417 
L 203.390377 -476.469539 
L 204.594687 -471.383662 
L 205.77136 -466.297784 
L 206.918209 -461.211906 
L 208.015101 -456.126028 
L 209.150588 -451.04015 
L 210.417887 -445.954273 
L 211.750514 -440.868395 
L 213.096208 -435.782517 
L 214.415191 -430.696639 
L 215.728398 -425.610762 
L 217.090394 -420.524884 
L 218.445489 -415.439006 
L 219.863163 -410.353128 
L 221.312512 -405.26725 
L 222.650591 -400.181373 
L 223.893509 -395.095495 
L 225.184473 -390.009617 
L 226.586046 -384.923739 
L 227.940088 -379.837861 
L 229.207598 -374.751984 
L 230.453284 -369.666106 
L 231.690915 -364.580228 
L 232.944489 -359.49435 
L 234.058263 -354.408473 
L 234.980561 -349.322595 
L 235.843309 -344.236717 
L 236.680367 -339.150839 
L 237.514843 -334.064961 
L 238.265164 -328.979084 
L 238.822102 -323.893206 
L 239.203497 -318.807328 
L 239.445987 -313.72145 
L 239.571545 -308.635573 
L 239.481935 -303.549695 
L 239.099497 -298.463817 
L 238.499425 -293.377939 
L 237.744346 -288.292061 
L 236.791356 -283.206184 
L 235.609954 -278.120306 
L 234.204031 -273.034428 
L 232.476238 -267.94855 
L 230.329115 -262.862672 
L 227.751663 -257.776795 
L 224.861088 -252.690917 
L 221.762388 -247.605039 
L 218.398318 -242.519161 
L 214.675186 -237.433284 
L 210.442034 -232.347406 
L 205.220627 -227.261528 
L 198.596516 -222.17565 
L 190.892743 -217.089772 
L 183.135644 -212.003895 
L 176.528007 -206.918017 
L 171.866832 -201.832139 
L 169.26553 -196.746261 
L 168.208807 -191.660383 
z
" style="stroke: #6d6d6d; stroke-opacity: 0.9; stroke-width: 1.25"/>
    </defs>
    <g clip-path="url(#p1858f8e142)">
     <use xlink:href="#m51e1ed5cfd" x="0" y="770.741813" style="fill: #c0dca9; fill-opacity: 0.9; stroke: #6d6d6d; stroke-opacity: 0.9; stroke-width: 1.25"/>
    </g>
   </g>
   <g id="FillBetweenPolyCollection_3">
    <defs>
     <path id="m6d801883de" d="M 347.108825 -176.687639 
L 346.992985 -176.687639 
L 345.537684 -181.853663 
L 342.140189 -187.019686 
L 340.019347 -192.18571 
L 339.454383 -197.351733 
L 339.540314 -202.517757 
L 339.874249 -207.68378 
L 340.413422 -212.849804 
L 341.061049 -218.015827 
L 341.755608 -223.181851 
L 342.393618 -228.347874 
L 342.97178 -233.513898 
L 343.506465 -238.679921 
L 344.027543 -243.845945 
L 344.479565 -249.011968 
L 344.809269 -254.177992 
L 345.141499 -259.344015 
L 345.415373 -264.510039 
L 345.667342 -269.676062 
L 345.874684 -274.842086 
L 346.033936 -280.008109 
L 346.165257 -285.174133 
L 346.300454 -290.340156 
L 346.402495 -295.50618 
L 346.484969 -300.672203 
L 346.555947 -305.838227 
L 346.632673 -311.00425 
L 346.692614 -316.170274 
L 346.741822 -321.336297 
L 346.791354 -326.502321 
L 346.816619 -331.668344 
L 346.846226 -336.834368 
L 346.87955 -342.000391 
L 346.901073 -347.166415 
L 346.928696 -352.332438 
L 346.946083 -357.498462 
L 346.96173 -362.664485 
L 346.980282 -367.830509 
L 346.998309 -372.996532 
L 347.010113 -378.162556 
L 347.013554 -383.328579 
L 347.029389 -388.494603 
L 347.04263 -393.660626 
L 347.047699 -398.82665 
L 347.055448 -403.992673 
L 347.06234 -409.158697 
L 347.06687 -414.32472 
L 347.06986 -419.490744 
L 347.077003 -424.656767 
L 347.084172 -429.822791 
L 347.085868 -434.988814 
L 347.087716 -440.154838 
L 347.090525 -445.320861 
L 347.092759 -450.486885 
L 347.094612 -455.652908 
L 347.095959 -460.818932 
L 347.097984 -465.984955 
L 347.09943 -471.150979 
L 347.101099 -476.317002 
L 347.102849 -481.483026 
L 347.103377 -486.649049 
L 347.103982 -491.815073 
L 347.10509 -496.981096 
L 347.105593 -502.14712 
L 347.105699 -507.313143 
L 347.106491 -512.479167 
L 347.107256 -517.64519 
L 347.107456 -522.811214 
L 347.107027 -527.977237 
L 347.106851 -533.143261 
L 347.107151 -538.309284 
L 347.107563 -543.475308 
L 347.107356 -548.641332 
L 347.10787 -553.807355 
L 347.10776 -558.973379 
L 347.107599 -564.139402 
L 347.10759 -569.305426 
L 347.107986 -574.471449 
L 347.108037 -579.637473 
L 347.108115 -584.803496 
L 347.107998 -589.96952 
L 347.10783 -595.135543 
L 347.108243 -600.301567 
L 347.108292 -605.46759 
L 347.108417 -610.633614 
L 347.108438 -615.799637 
L 347.108101 -620.965661 
L 347.108066 -626.131684 
L 347.108333 -631.297708 
L 347.108381 -636.463731 
L 347.108133 -641.629755 
L 347.10855 -646.795778 
L 347.108518 -651.961802 
L 347.108488 -657.127825 
L 347.108481 -662.293849 
L 347.108748 -667.459872 
L 347.108807 -672.625896 
L 347.108518 -677.791919 
L 347.108287 -682.957943 
L 347.108602 -688.123966 
L 347.108825 -688.123966 
L 347.108825 -688.123966 
L 347.108825 -682.957943 
L 347.108825 -677.791919 
L 347.108825 -672.625896 
L 347.108825 -667.459872 
L 347.108825 -662.293849 
L 347.108825 -657.127825 
L 347.108825 -651.961802 
L 347.108825 -646.795778 
L 347.108825 -641.629755 
L 347.108825 -636.463731 
L 347.108825 -631.297708 
L 347.108825 -626.131684 
L 347.108825 -620.965661 
L 347.108825 -615.799637 
L 347.108825 -610.633614 
L 347.108825 -605.46759 
L 347.108825 -600.301567 
L 347.108825 -595.135543 
L 347.108825 -589.96952 
L 347.108825 -584.803496 
L 347.108825 -579.637473 
L 347.108825 -574.471449 
L 347.108825 -569.305426 
L 347.108825 -564.139402 
L 347.108825 -558.973379 
L 347.108825 -553.807355 
L 347.108825 -548.641332 
L 347.108825 -543.475308 
L 347.108825 -538.309284 
L 347.108825 -533.143261 
L 347.108825 -527.977237 
L 347.108825 -522.811214 
L 347.108825 -517.64519 
L 347.108825 -512.479167 
L 347.108825 -507.313143 
L 347.108825 -502.14712 
L 347.108825 -496.981096 
L 347.108825 -491.815073 
L 347.108825 -486.649049 
L 347.108825 -481.483026 
L 347.108825 -476.317002 
L 347.108825 -471.150979 
L 347.108825 -465.984955 
L 347.108825 -460.818932 
L 347.108825 -455.652908 
L 347.108825 -450.486885 
L 347.108825 -445.320861 
L 347.108825 -440.154838 
L 347.108825 -434.988814 
L 347.108825 -429.822791 
L 347.108825 -424.656767 
L 347.108825 -419.490744 
L 347.108825 -414.32472 
L 347.108825 -409.158697 
L 347.108825 -403.992673 
L 347.108825 -398.82665 
L 347.108825 -393.660626 
L 347.108825 -388.494603 
L 347.108825 -383.328579 
L 347.108825 -378.162556 
L 347.108825 -372.996532 
L 347.108825 -367.830509 
L 347.108825 -362.664485 
L 347.108825 -357.498462 
L 347.108825 -352.332438 
L 347.108825 -347.166415 
L 347.108825 -342.000391 
L 347.108825 -336.834368 
L 347.108825 -331.668344 
L 347.108825 -326.502321 
L 347.108825 -321.336297 
L 347.108825 -316.170274 
L 347.108825 -311.00425 
L 347.108825 -305.838227 
L 347.108825 -300.672203 
L 347.108825 -295.50618 
L 347.108825 -290.340156 
L 347.108825 -285.174133 
L 347.108825 -280.008109 
L 347.108825 -274.842086 
L 347.108825 -269.676062 
L 347.108825 -264.510039 
L 347.108825 -259.344015 
L 347.108825 -254.177992 
L 347.108825 -249.011968 
L 347.108825 -243.845945 
L 347.108825 -238.679921 
L 347.108825 -233.513898 
L 347.108825 -228.347874 
L 347.108825 -223.181851 
L 347.108825 -218.015827 
L 347.108825 -212.849804 
L 347.108825 -207.68378 
L 347.108825 -202.517757 
L 347.108825 -197.351733 
L 347.108825 -192.18571 
L 347.108825 -187.019686 
L 347.108825 -181.853663 
L 347.108825 -176.687639 
z
" style="stroke: #6d6d6d; stroke-opacity: 0.9; stroke-width: 1.25"/>
    </defs>
    <g clip-path="url(#p1858f8e142)">
     <use xlink:href="#m6d801883de" x="0" y="770.741813" style="fill: #ecbd81; fill-opacity: 0.9; stroke: #6d6d6d; stroke-opacity: 0.9; stroke-width: 1.25"/>
    </g>
   </g>
   <g id="FillBetweenPolyCollection_4">
    <defs>
     <path id="m4c5aeb4088" d="M 347.982277 -189.304691 
L 347.108825 -189.304691 
L 347.108825 -194.414346 
L 347.108825 -199.524 
L 347.108825 -204.633655 
L 347.108825 -209.74331 
L 347.108825 -214.852965 
L 347.108825 -219.96262 
L 347.108825 -225.072275 
L 347.108825 -230.18193 
L 347.108825 -235.291585 
L 347.108825 -240.40124 
L 347.108825 -245.510894 
L 347.108825 -250.620549 
L 347.108825 -255.730204 
L 347.108825 -260.839859 
L 347.108825 -265.949514 
L 347.108825 -271.059169 
L 347.108825 -276.168824 
L 347.108825 -281.278479 
L 347.108825 -286.388134 
L 347.108825 -291.497789 
L 347.108825 -296.607443 
L 347.108825 -301.717098 
L 347.108825 -306.826753 
L 347.108825 -311.936408 
L 347.108825 -317.046063 
L 347.108825 -322.155718 
L 347.108825 -327.265373 
L 347.108825 -332.375028 
L 347.108825 -337.484683 
L 347.108825 -342.594337 
L 347.108825 -347.703992 
L 347.108825 -352.813647 
L 347.108825 -357.923302 
L 347.108825 -363.032957 
L 347.108825 -368.142612 
L 347.108825 -373.252267 
L 347.108825 -378.361922 
L 347.108825 -383.471577 
L 347.108825 -388.581232 
L 347.108825 -393.690886 
L 347.108825 -398.800541 
L 347.108825 -403.910196 
L 347.108825 -409.019851 
L 347.108825 -414.129506 
L 347.108825 -419.239161 
L 347.108825 -424.348816 
L 347.108825 -429.458471 
L 347.108825 -434.568126 
L 347.108825 -439.67778 
L 347.108825 -444.787435 
L 347.108825 -449.89709 
L 347.108825 -455.006745 
L 347.108825 -460.1164 
L 347.108825 -465.226055 
L 347.108825 -470.33571 
L 347.108825 -475.445365 
L 347.108825 -480.55502 
L 347.108825 -485.664675 
L 347.108825 -490.774329 
L 347.108825 -495.883984 
L 347.108825 -500.993639 
L 347.108825 -506.103294 
L 347.108825 -511.212949 
L 347.108825 -516.322604 
L 347.108825 -521.432259 
L 347.108825 -526.541914 
L 347.108825 -531.651569 
L 347.108825 -536.761223 
L 347.108825 -541.870878 
L 347.108825 -546.980533 
L 347.108825 -552.090188 
L 347.108825 -557.199843 
L 347.108825 -562.309498 
L 347.108825 -567.419153 
L 347.108825 -572.528808 
L 347.108825 -577.638463 
L 347.108825 -582.748118 
L 347.108825 -587.857772 
L 347.108825 -592.967427 
L 347.108825 -598.077082 
L 347.108825 -603.186737 
L 347.108825 -608.296392 
L 347.108825 -613.406047 
L 347.108825 -618.515702 
L 347.108825 -623.625357 
L 347.108825 -628.735012 
L 347.108825 -633.844666 
L 347.108825 -638.954321 
L 347.108825 -644.063976 
L 347.108825 -649.173631 
L 347.108825 -654.283286 
L 347.108825 -659.392941 
L 347.108825 -664.502596 
L 347.108825 -669.612251 
L 347.108825 -674.721906 
L 347.108825 -679.831561 
L 347.108825 -684.941215 
L 347.108825 -690.05087 
L 347.108825 -695.160525 
L 347.808024 -695.160525 
L 347.808024 -695.160525 
L 348.209299 -690.05087 
L 348.445424 -684.941215 
L 348.545894 -679.831561 
L 348.605592 -674.721906 
L 348.663796 -669.612251 
L 348.721227 -664.502596 
L 348.771677 -659.392941 
L 348.818504 -654.283286 
L 348.877401 -649.173631 
L 348.957914 -644.063976 
L 349.049422 -638.954321 
L 349.136483 -633.844666 
L 349.212971 -628.735012 
L 349.281253 -623.625357 
L 349.352236 -618.515702 
L 349.438018 -613.406047 
L 349.536801 -608.296392 
L 349.638916 -603.186737 
L 349.741645 -598.077082 
L 349.848591 -592.967427 
L 349.96224 -587.857772 
L 350.078883 -582.748118 
L 350.201251 -577.638463 
L 350.336092 -572.528808 
L 350.481274 -567.419153 
L 350.632321 -562.309498 
L 350.785586 -557.199843 
L 350.944504 -552.090188 
L 351.111132 -546.980533 
L 351.273386 -541.870878 
L 351.423431 -536.761223 
L 351.575307 -531.651569 
L 351.751485 -526.541914 
L 351.956271 -521.432259 
L 352.171811 -516.322604 
L 352.382673 -511.212949 
L 352.590408 -506.103294 
L 352.808673 -500.993639 
L 353.050901 -495.883984 
L 353.31823 -490.774329 
L 353.594781 -485.664675 
L 353.860793 -480.55502 
L 354.119196 -475.445365 
L 354.395474 -470.33571 
L 354.696189 -465.226055 
L 355.005688 -460.1164 
L 355.311143 -455.006745 
L 355.608994 -449.89709 
L 355.920561 -444.787435 
L 356.265346 -439.67778 
L 356.617118 -434.568126 
L 356.948847 -429.458471 
L 357.289674 -424.348816 
L 357.675044 -419.239161 
L 358.064116 -414.129506 
L 358.411331 -409.019851 
L 358.755128 -403.910196 
L 359.136474 -398.800541 
L 359.537723 -393.690886 
L 359.931798 -388.581232 
L 360.330767 -383.471577 
L 360.753771 -378.361922 
L 361.191216 -373.252267 
L 361.609866 -368.142612 
L 361.98702 -363.032957 
L 362.359818 -357.923302 
L 362.770204 -352.813647 
L 363.181634 -347.703992 
L 363.553076 -342.594337 
L 363.894462 -337.484683 
L 364.226526 -332.375028 
L 364.56675 -327.265373 
L 364.916812 -322.155718 
L 365.269244 -317.046063 
L 365.619688 -311.936408 
L 365.951191 -306.826753 
L 366.240333 -301.717098 
L 366.498681 -296.607443 
L 366.739117 -291.497789 
L 366.941082 -286.388134 
L 367.113742 -281.278479 
L 367.296337 -276.168824 
L 367.493654 -271.059169 
L 367.680641 -265.949514 
L 367.841435 -260.839859 
L 367.988413 -255.730204 
L 368.152295 -250.620549 
L 368.337198 -245.510894 
L 368.539377 -240.40124 
L 368.7454 -235.291585 
L 368.836936 -230.18193 
L 368.555271 -225.072275 
L 367.529942 -219.96262 
L 365.376163 -214.852965 
L 361.938118 -209.74331 
L 357.566308 -204.633655 
L 353.171335 -199.524 
L 349.817704 -194.414346 
L 347.982277 -189.304691 
z
" style="stroke: #6d6d6d; stroke-opacity: 0.9; stroke-width: 1.25"/>
    </defs>
    <g clip-path="url(#p1858f8e142)">
     <use xlink:href="#m4c5aeb4088" x="0" y="770.741813" style="fill: #c0dca9; fill-opacity: 0.9; stroke: #6d6d6d; stroke-opacity: 0.9; stroke-width: 1.25"/>
    </g>
   </g>
   <g id="FillBetweenPolyCollection_5">
    <defs>
     <path id="m18061f3f31" d="M 526.337625 -177.855271 
L 526.066394 -177.855271 
L 523.641495 -183.074336 
L 519.624484 -188.293402 
L 518.006543 -193.512468 
L 517.583663 -198.731533 
L 517.573052 -203.950599 
L 517.877305 -209.169665 
L 518.35923 -214.388731 
L 518.973004 -219.607796 
L 519.688121 -224.826862 
L 520.333212 -230.045928 
L 520.940267 -235.264993 
L 521.572095 -240.484059 
L 522.197398 -245.703125 
L 522.72624 -250.922191 
L 523.198748 -256.141256 
L 523.578303 -261.360322 
L 523.894847 -266.579388 
L 524.185214 -271.798453 
L 524.507471 -277.017519 
L 524.741152 -282.236585 
L 524.95302 -287.455651 
L 525.132784 -292.674716 
L 525.289461 -297.893782 
L 525.426688 -303.112848 
L 525.56382 -308.331913 
L 525.674843 -313.550979 
L 525.758854 -318.770045 
L 525.822634 -323.98911 
L 525.888165 -329.208176 
L 525.947533 -334.427242 
L 526.001003 -339.646308 
L 526.046288 -344.865373 
L 526.089982 -350.084439 
L 526.123336 -355.303505 
L 526.15094 -360.52257 
L 526.175244 -365.741636 
L 526.196885 -370.960702 
L 526.212563 -376.179768 
L 526.229993 -381.398833 
L 526.243957 -386.617899 
L 526.258069 -391.836965 
L 526.270667 -397.05603 
L 526.278514 -402.275096 
L 526.288836 -407.494162 
L 526.295554 -412.713227 
L 526.301336 -417.932293 
L 526.306785 -423.151359 
L 526.308632 -428.370425 
L 526.311643 -433.58949 
L 526.313544 -438.808556 
L 526.317443 -444.027622 
L 526.321826 -449.246687 
L 526.323083 -454.465753 
L 526.322451 -459.684819 
L 526.323799 -464.903885 
L 526.32701 -470.12295 
L 526.327874 -475.342016 
L 526.327477 -480.561082 
L 526.327956 -485.780147 
L 526.32839 -490.999213 
L 526.328481 -496.218279 
L 526.328774 -501.437345 
L 526.330836 -506.65641 
L 526.330303 -511.875476 
L 526.330625 -517.094542 
L 526.33147 -522.313607 
L 526.331442 -527.532673 
L 526.32998 -532.751739 
L 526.330732 -537.970804 
L 526.331247 -543.18987 
L 526.330688 -548.408936 
L 526.331522 -553.628002 
L 526.332761 -558.847067 
L 526.332346 -564.066133 
L 526.333299 -569.285199 
L 526.332809 -574.504264 
L 526.331917 -579.72333 
L 526.333154 -584.942396 
L 526.333331 -590.161462 
L 526.333998 -595.380527 
L 526.335056 -600.599593 
L 526.335009 -605.818659 
L 526.33409 -611.037724 
L 526.334703 -616.25679 
L 526.334903 -621.475856 
L 526.335236 -626.694921 
L 526.33558 -631.913987 
L 526.335368 -637.133053 
L 526.334721 -642.352119 
L 526.33529 -647.571184 
L 526.33586 -652.79025 
L 526.336373 -658.009316 
L 526.336445 -663.228381 
L 526.33602 -668.447447 
L 526.336668 -673.666513 
L 526.336651 -678.885579 
L 526.33654 -684.104644 
L 526.336377 -689.32371 
L 526.33663 -694.542776 
L 526.337625 -694.542776 
L 526.337625 -694.542776 
L 526.337625 -689.32371 
L 526.337625 -684.104644 
L 526.337625 -678.885579 
L 526.337625 -673.666513 
L 526.337625 -668.447447 
L 526.337625 -663.228381 
L 526.337625 -658.009316 
L 526.337625 -652.79025 
L 526.337625 -647.571184 
L 526.337625 -642.352119 
L 526.337625 -637.133053 
L 526.337625 -631.913987 
L 526.337625 -626.694921 
L 526.337625 -621.475856 
L 526.337625 -616.25679 
L 526.337625 -611.037724 
L 526.337625 -605.818659 
L 526.337625 -600.599593 
L 526.337625 -595.380527 
L 526.337625 -590.161462 
L 526.337625 -584.942396 
L 526.337625 -579.72333 
L 526.337625 -574.504264 
L 526.337625 -569.285199 
L 526.337625 -564.066133 
L 526.337625 -558.847067 
L 526.337625 -553.628002 
L 526.337625 -548.408936 
L 526.337625 -543.18987 
L 526.337625 -537.970804 
L 526.337625 -532.751739 
L 526.337625 -527.532673 
L 526.337625 -522.313607 
L 526.337625 -517.094542 
L 526.337625 -511.875476 
L 526.337625 -506.65641 
L 526.337625 -501.437345 
L 526.337625 -496.218279 
L 526.337625 -490.999213 
L 526.337625 -485.780147 
L 526.337625 -480.561082 
L 526.337625 -475.342016 
L 526.337625 -470.12295 
L 526.337625 -464.903885 
L 526.337625 -459.684819 
L 526.337625 -454.465753 
L 526.337625 -449.246687 
L 526.337625 -444.027622 
L 526.337625 -438.808556 
L 526.337625 -433.58949 
L 526.337625 -428.370425 
L 526.337625 -423.151359 
L 526.337625 -417.932293 
L 526.337625 -412.713227 
L 526.337625 -407.494162 
L 526.337625 -402.275096 
L 526.337625 -397.05603 
L 526.337625 -391.836965 
L 526.337625 -386.617899 
L 526.337625 -381.398833 
L 526.337625 -376.179768 
L 526.337625 -370.960702 
L 526.337625 -365.741636 
L 526.337625 -360.52257 
L 526.337625 -355.303505 
L 526.337625 -350.084439 
L 526.337625 -344.865373 
L 526.337625 -339.646308 
L 526.337625 -334.427242 
L 526.337625 -329.208176 
L 526.337625 -323.98911 
L 526.337625 -318.770045 
L 526.337625 -313.550979 
L 526.337625 -308.331913 
L 526.337625 -303.112848 
L 526.337625 -297.893782 
L 526.337625 -292.674716 
L 526.337625 -287.455651 
L 526.337625 -282.236585 
L 526.337625 -277.017519 
L 526.337625 -271.798453 
L 526.337625 -266.579388 
L 526.337625 -261.360322 
L 526.337625 -256.141256 
L 526.337625 -250.922191 
L 526.337625 -245.703125 
L 526.337625 -240.484059 
L 526.337625 -235.264993 
L 526.337625 -230.045928 
L 526.337625 -224.826862 
L 526.337625 -219.607796 
L 526.337625 -214.388731 
L 526.337625 -209.169665 
L 526.337625 -203.950599 
L 526.337625 -198.731533 
L 526.337625 -193.512468 
L 526.337625 -188.293402 
L 526.337625 -183.074336 
L 526.337625 -177.855271 
z
" style="stroke: #6d6d6d; stroke-opacity: 0.9; stroke-width: 1.25"/>
    </defs>
    <g clip-path="url(#p1858f8e142)">
     <use xlink:href="#m18061f3f31" x="0" y="770.741813" style="fill: #ecbd81; fill-opacity: 0.9; stroke: #6d6d6d; stroke-opacity: 0.9; stroke-width: 1.25"/>
    </g>
   </g>
   <g id="FillBetweenPolyCollection_6">
    <defs>
     <path id="mccd637677a" d="M 527.517262 -189.114372 
L 526.337625 -189.114372 
L 526.337625 -194.225964 
L 526.337625 -199.337555 
L 526.337625 -204.449147 
L 526.337625 -209.560739 
L 526.337625 -214.672331 
L 526.337625 -219.783923 
L 526.337625 -224.895515 
L 526.337625 -230.007107 
L 526.337625 -235.118698 
L 526.337625 -240.23029 
L 526.337625 -245.341882 
L 526.337625 -250.453474 
L 526.337625 -255.565066 
L 526.337625 -260.676658 
L 526.337625 -265.788249 
L 526.337625 -270.899841 
L 526.337625 -276.011433 
L 526.337625 -281.123025 
L 526.337625 -286.234617 
L 526.337625 -291.346209 
L 526.337625 -296.4578 
L 526.337625 -301.569392 
L 526.337625 -306.680984 
L 526.337625 -311.792576 
L 526.337625 -316.904168 
L 526.337625 -322.01576 
L 526.337625 -327.127351 
L 526.337625 -332.238943 
L 526.337625 -337.350535 
L 526.337625 -342.462127 
L 526.337625 -347.573719 
L 526.337625 -352.685311 
L 526.337625 -357.796902 
L 526.337625 -362.908494 
L 526.337625 -368.020086 
L 526.337625 -373.131678 
L 526.337625 -378.24327 
L 526.337625 -383.354862 
L 526.337625 -388.466454 
L 526.337625 -393.578045 
L 526.337625 -398.689637 
L 526.337625 -403.801229 
L 526.337625 -408.912821 
L 526.337625 -414.024413 
L 526.337625 -419.136005 
L 526.337625 -424.247596 
L 526.337625 -429.359188 
L 526.337625 -434.47078 
L 526.337625 -439.582372 
L 526.337625 -444.693964 
L 526.337625 -449.805556 
L 526.337625 -454.917147 
L 526.337625 -460.028739 
L 526.337625 -465.140331 
L 526.337625 -470.251923 
L 526.337625 -475.363515 
L 526.337625 -480.475107 
L 526.337625 -485.586698 
L 526.337625 -490.69829 
L 526.337625 -495.809882 
L 526.337625 -500.921474 
L 526.337625 -506.033066 
L 526.337625 -511.144658 
L 526.337625 -516.256249 
L 526.337625 -521.367841 
L 526.337625 -526.479433 
L 526.337625 -531.591025 
L 526.337625 -536.702617 
L 526.337625 -541.814209 
L 526.337625 -546.925801 
L 526.337625 -552.037392 
L 526.337625 -557.148984 
L 526.337625 -562.260576 
L 526.337625 -567.372168 
L 526.337625 -572.48376 
L 526.337625 -577.595352 
L 526.337625 -582.706943 
L 526.337625 -587.818535 
L 526.337625 -592.930127 
L 526.337625 -598.041719 
L 526.337625 -603.153311 
L 526.337625 -608.264903 
L 526.337625 -613.376494 
L 526.337625 -618.488086 
L 526.337625 -623.599678 
L 526.337625 -628.71127 
L 526.337625 -633.822862 
L 526.337625 -638.934454 
L 526.337625 -644.046045 
L 526.337625 -649.157637 
L 526.337625 -654.269229 
L 526.337625 -659.380821 
L 526.337625 -664.492413 
L 526.337625 -669.604005 
L 526.337625 -674.715596 
L 526.337625 -679.827188 
L 526.337625 -684.93878 
L 526.337625 -690.050372 
L 526.337625 -695.161964 
L 527.778075 -695.161964 
L 527.778075 -695.161964 
L 528.811086 -690.050372 
L 529.245998 -684.93878 
L 529.376141 -679.827188 
L 529.480644 -674.715596 
L 529.573328 -669.604005 
L 529.67742 -664.492413 
L 529.809966 -659.380821 
L 529.941798 -654.269229 
L 530.072052 -649.157637 
L 530.206685 -644.046045 
L 530.340349 -638.934454 
L 530.47683 -633.822862 
L 530.620897 -628.71127 
L 530.779558 -623.599678 
L 530.954714 -618.488086 
L 531.12423 -613.376494 
L 531.286861 -608.264903 
L 531.470521 -603.153311 
L 531.683796 -598.041719 
L 531.911431 -592.930127 
L 532.146302 -587.818535 
L 532.37189 -582.706943 
L 532.572838 -577.595352 
L 532.807372 -572.48376 
L 533.081444 -567.372168 
L 533.36899 -562.260576 
L 533.6757 -557.148984 
L 534.007034 -552.037392 
L 534.341654 -546.925801 
L 534.671322 -541.814209 
L 534.990626 -536.702617 
L 535.311863 -531.591025 
L 535.655758 -526.479433 
L 536.029861 -521.367841 
L 536.439939 -516.256249 
L 536.880997 -511.144658 
L 537.35253 -506.033066 
L 537.808436 -500.921474 
L 538.246098 -495.809882 
L 538.749163 -490.69829 
L 539.291274 -485.586698 
L 539.77248 -480.475107 
L 540.272742 -475.363515 
L 540.854124 -470.251923 
L 541.479168 -465.140331 
L 542.110209 -460.028739 
L 542.747245 -454.917147 
L 543.389112 -449.805556 
L 544.069025 -444.693964 
L 544.783706 -439.582372 
L 545.494884 -434.47078 
L 546.209707 -429.359188 
L 546.962111 -424.247596 
L 547.784332 -419.136005 
L 548.679951 -414.024413 
L 549.622859 -408.912821 
L 550.558542 -403.801229 
L 551.488963 -398.689637 
L 552.43912 -393.578045 
L 553.405315 -388.466454 
L 554.461721 -383.354862 
L 555.567843 -378.24327 
L 556.617613 -373.131678 
L 557.695277 -368.020086 
L 558.890385 -362.908494 
L 560.14325 -357.796902 
L 561.408255 -352.685311 
L 562.686294 -347.573719 
L 564.000668 -342.462127 
L 565.338775 -337.350535 
L 566.686308 -332.238943 
L 568.057208 -327.127351 
L 569.475589 -322.01576 
L 570.964098 -316.904168 
L 572.475032 -311.792576 
L 573.970232 -306.680984 
L 575.477364 -301.569392 
L 576.966745 -296.4578 
L 578.500681 -291.346209 
L 580.113718 -286.234617 
L 581.689703 -281.123025 
L 583.235287 -276.011433 
L 584.828449 -270.899841 
L 586.517257 -265.788249 
L 588.153 -260.676658 
L 589.63206 -255.565066 
L 591.009582 -250.453474 
L 592.350997 -245.341882 
L 593.695968 -240.23029 
L 595.006075 -235.118698 
L 596.026136 -230.007107 
L 595.977075 -224.895515 
L 593.347777 -219.783923 
L 586.462551 -214.672331 
L 574.505682 -209.560739 
L 558.708479 -204.449147 
L 542.998674 -199.337555 
L 532.12648 -194.225964 
L 527.517262 -189.114372 
z
" style="stroke: #6d6d6d; stroke-opacity: 0.9; stroke-width: 1.25"/>
    </defs>
    <g clip-path="url(#p1858f8e142)">
     <use xlink:href="#mccd637677a" x="0" y="770.741813" style="fill: #c0dca9; fill-opacity: 0.9; stroke: #6d6d6d; stroke-opacity: 0.9; stroke-width: 1.25"/>
    </g>
   </g>
   <g id="FillBetweenPolyCollection_7">
    <defs>
     <path id="ma453a6c30e" d="M 705.566425 -178.378194 
L 705.313037 -178.378194 
L 704.985402 -183.598127 
L 704.641831 -188.818059 
L 704.411509 -194.037992 
L 704.29934 -199.257924 
L 704.258919 -204.477857 
L 704.261038 -209.697789 
L 704.299378 -214.917721 
L 704.372627 -220.137654 
L 704.464496 -225.357586 
L 704.558806 -230.577519 
L 704.652573 -235.797451 
L 704.746661 -241.017384 
L 704.837452 -246.237316 
L 704.921081 -251.457249 
L 704.997757 -256.677181 
L 705.066782 -261.897114 
L 705.12942 -267.117046 
L 705.187607 -272.336978 
L 705.236956 -277.556911 
L 705.275234 -282.776843 
L 705.307737 -287.996776 
L 705.33879 -293.216708 
L 705.367605 -298.436641 
L 705.393312 -303.656573 
L 705.41538 -308.876506 
L 705.432888 -314.096438 
L 705.446517 -319.316371 
L 705.457713 -324.536303 
L 705.467103 -329.756236 
L 705.475879 -334.976168 
L 705.484707 -340.1961 
L 705.493482 -345.416033 
L 705.502569 -350.635965 
L 705.510925 -355.855898 
L 705.516837 -361.07583 
L 705.520769 -366.295763 
L 705.52456 -371.515695 
L 705.528847 -376.735628 
L 705.532319 -381.95556 
L 705.534734 -387.175493 
L 705.537352 -392.395425 
L 705.540448 -397.615358 
L 705.54356 -402.83529 
L 705.546313 -408.055222 
L 705.54844 -413.275155 
L 705.549777 -418.495087 
L 705.550683 -423.71502 
L 705.551625 -428.934952 
L 705.552697 -434.154885 
L 705.553784 -439.374817 
L 705.55457 -444.59475 
L 705.554711 -449.814682 
L 705.554648 -455.034615 
L 705.555338 -460.254547 
L 705.556422 -465.474479 
L 705.557072 -470.694412 
L 705.557519 -475.914344 
L 705.558027 -481.134277 
L 705.558283 -486.354209 
L 705.558336 -491.574142 
L 705.558585 -496.794074 
L 705.558899 -502.014007 
L 705.559086 -507.233939 
L 705.55934 -512.453872 
L 705.559711 -517.673804 
L 705.559658 -522.893737 
L 705.558997 -528.113669 
L 705.558541 -533.333601 
L 705.558767 -538.553534 
L 705.559343 -543.773466 
L 705.559865 -548.993399 
L 705.560179 -554.213331 
L 705.560357 -559.433264 
L 705.560596 -564.653196 
L 705.560911 -569.873129 
L 705.56107 -575.093061 
L 705.561066 -580.312994 
L 705.561031 -585.532926 
L 705.56095 -590.752858 
L 705.560868 -595.972791 
L 705.560765 -601.192723 
L 705.560557 -606.412656 
L 705.560493 -611.632588 
L 705.560693 -616.852521 
L 705.560883 -622.072453 
L 705.561059 -627.292386 
L 705.561374 -632.512318 
L 705.561693 -637.732251 
L 705.561828 -642.952183 
L 705.561532 -648.172116 
L 705.560799 -653.392048 
L 705.56024 -658.61198 
L 705.56019 -663.831913 
L 705.56031 -669.051845 
L 705.56007 -674.271778 
L 705.559772 -679.49171 
L 705.560051 -684.711643 
L 705.561259 -689.931575 
L 705.563319 -695.151508 
L 705.566425 -695.151508 
L 705.566425 -695.151508 
L 705.566425 -689.931575 
L 705.566425 -684.711643 
L 705.566425 -679.49171 
L 705.566425 -674.271778 
L 705.566425 -669.051845 
L 705.566425 -663.831913 
L 705.566425 -658.61198 
L 705.566425 -653.392048 
L 705.566425 -648.172116 
L 705.566425 -642.952183 
L 705.566425 -637.732251 
L 705.566425 -632.512318 
L 705.566425 -627.292386 
L 705.566425 -622.072453 
L 705.566425 -616.852521 
L 705.566425 -611.632588 
L 705.566425 -606.412656 
L 705.566425 -601.192723 
L 705.566425 -595.972791 
L 705.566425 -590.752858 
L 705.566425 -585.532926 
L 705.566425 -580.312994 
L 705.566425 -575.093061 
L 705.566425 -569.873129 
L 705.566425 -564.653196 
L 705.566425 -559.433264 
L 705.566425 -554.213331 
L 705.566425 -548.993399 
L 705.566425 -543.773466 
L 705.566425 -538.553534 
L 705.566425 -533.333601 
L 705.566425 -528.113669 
L 705.566425 -522.893737 
L 705.566425 -517.673804 
L 705.566425 -512.453872 
L 705.566425 -507.233939 
L 705.566425 -502.014007 
L 705.566425 -496.794074 
L 705.566425 -491.574142 
L 705.566425 -486.354209 
L 705.566425 -481.134277 
L 705.566425 -475.914344 
L 705.566425 -470.694412 
L 705.566425 -465.474479 
L 705.566425 -460.254547 
L 705.566425 -455.034615 
L 705.566425 -449.814682 
L 705.566425 -444.59475 
L 705.566425 -439.374817 
L 705.566425 -434.154885 
L 705.566425 -428.934952 
L 705.566425 -423.71502 
L 705.566425 -418.495087 
L 705.566425 -413.275155 
L 705.566425 -408.055222 
L 705.566425 -402.83529 
L 705.566425 -397.615358 
L 705.566425 -392.395425 
L 705.566425 -387.175493 
L 705.566425 -381.95556 
L 705.566425 -376.735628 
L 705.566425 -371.515695 
L 705.566425 -366.295763 
L 705.566425 -361.07583 
L 705.566425 -355.855898 
L 705.566425 -350.635965 
L 705.566425 -345.416033 
L 705.566425 -340.1961 
L 705.566425 -334.976168 
L 705.566425 -329.756236 
L 705.566425 -324.536303 
L 705.566425 -319.316371 
L 705.566425 -314.096438 
L 705.566425 -308.876506 
L 705.566425 -303.656573 
L 705.566425 -298.436641 
L 705.566425 -293.216708 
L 705.566425 -287.996776 
L 705.566425 -282.776843 
L 705.566425 -277.556911 
L 705.566425 -272.336978 
L 705.566425 -267.117046 
L 705.566425 -261.897114 
L 705.566425 -256.677181 
L 705.566425 -251.457249 
L 705.566425 -246.237316 
L 705.566425 -241.017384 
L 705.566425 -235.797451 
L 705.566425 -230.577519 
L 705.566425 -225.357586 
L 705.566425 -220.137654 
L 705.566425 -214.917721 
L 705.566425 -209.697789 
L 705.566425 -204.477857 
L 705.566425 -199.257924 
L 705.566425 -194.037992 
L 705.566425 -188.818059 
L 705.566425 -183.598127 
L 705.566425 -178.378194 
z
" style="stroke: #6d6d6d; stroke-opacity: 0.9; stroke-width: 1.25"/>
    </defs>
    <g clip-path="url(#p1858f8e142)">
     <use xlink:href="#ma453a6c30e" x="0" y="770.741813" style="fill: #ecbd81; fill-opacity: 0.9; stroke: #6d6d6d; stroke-opacity: 0.9; stroke-width: 1.25"/>
    </g>
   </g>
   <g id="FillBetweenPolyCollection_8">
    <defs>
     <path id="mbbb2afcc8e" d="M 706.426878 -191.196498 
L 705.566425 -191.196498 
L 705.566425 -196.286905 
L 705.566425 -201.377313 
L 705.566425 -206.467721 
L 705.566425 -211.558129 
L 705.566425 -216.648537 
L 705.566425 -221.738945 
L 705.566425 -226.829353 
L 705.566425 -231.919761 
L 705.566425 -237.010169 
L 705.566425 -242.100577 
L 705.566425 -247.190985 
L 705.566425 -252.281392 
L 705.566425 -257.3718 
L 705.566425 -262.462208 
L 705.566425 -267.552616 
L 705.566425 -272.643024 
L 705.566425 -277.733432 
L 705.566425 -282.82384 
L 705.566425 -287.914248 
L 705.566425 -293.004656 
L 705.566425 -298.095064 
L 705.566425 -303.185471 
L 705.566425 -308.275879 
L 705.566425 -313.366287 
L 705.566425 -318.456695 
L 705.566425 -323.547103 
L 705.566425 -328.637511 
L 705.566425 -333.727919 
L 705.566425 -338.818327 
L 705.566425 -343.908735 
L 705.566425 -348.999143 
L 705.566425 -354.08955 
L 705.566425 -359.179958 
L 705.566425 -364.270366 
L 705.566425 -369.360774 
L 705.566425 -374.451182 
L 705.566425 -379.54159 
L 705.566425 -384.631998 
L 705.566425 -389.722406 
L 705.566425 -394.812814 
L 705.566425 -399.903222 
L 705.566425 -404.993629 
L 705.566425 -410.084037 
L 705.566425 -415.174445 
L 705.566425 -420.264853 
L 705.566425 -425.355261 
L 705.566425 -430.445669 
L 705.566425 -435.536077 
L 705.566425 -440.626485 
L 705.566425 -445.716893 
L 705.566425 -450.807301 
L 705.566425 -455.897708 
L 705.566425 -460.988116 
L 705.566425 -466.078524 
L 705.566425 -471.168932 
L 705.566425 -476.25934 
L 705.566425 -481.349748 
L 705.566425 -486.440156 
L 705.566425 -491.530564 
L 705.566425 -496.620972 
L 705.566425 -501.71138 
L 705.566425 -506.801788 
L 705.566425 -511.892195 
L 705.566425 -516.982603 
L 705.566425 -522.073011 
L 705.566425 -527.163419 
L 705.566425 -532.253827 
L 705.566425 -537.344235 
L 705.566425 -542.434643 
L 705.566425 -547.525051 
L 705.566425 -552.615459 
L 705.566425 -557.705867 
L 705.566425 -562.796274 
L 705.566425 -567.886682 
L 705.566425 -572.97709 
L 705.566425 -578.067498 
L 705.566425 -583.157906 
L 705.566425 -588.248314 
L 705.566425 -593.338722 
L 705.566425 -598.42913 
L 705.566425 -603.519538 
L 705.566425 -608.609946 
L 705.566425 -613.700353 
L 705.566425 -618.790761 
L 705.566425 -623.881169 
L 705.566425 -628.971577 
L 705.566425 -634.061985 
L 705.566425 -639.152393 
L 705.566425 -644.242801 
L 705.566425 -649.333209 
L 705.566425 -654.423617 
L 705.566425 -659.514025 
L 705.566425 -664.604432 
L 705.566425 -669.69484 
L 705.566425 -674.785248 
L 705.566425 -679.875656 
L 705.566425 -684.966064 
L 705.566425 -690.056472 
L 705.566425 -695.14688 
L 705.791573 -695.14688 
L 705.791573 -695.14688 
L 705.906148 -690.056472 
L 705.988611 -684.966064 
L 706.031097 -679.875656 
L 706.049625 -674.785248 
L 706.060615 -669.69484 
L 706.071188 -664.604432 
L 706.082289 -659.514025 
L 706.093586 -654.423617 
L 706.10612 -649.333209 
L 706.120992 -644.242801 
L 706.137074 -639.152393 
L 706.152447 -634.061985 
L 706.166614 -628.971577 
L 706.179878 -623.881169 
L 706.192872 -618.790761 
L 706.207306 -613.700353 
L 706.224975 -608.609946 
L 706.245514 -603.519538 
L 706.266346 -598.42913 
L 706.286115 -593.338722 
L 706.306431 -588.248314 
L 706.328971 -583.157906 
L 706.353628 -578.067498 
L 706.379556 -572.97709 
L 706.406229 -567.886682 
L 706.434037 -562.796274 
L 706.46315 -557.705867 
L 706.491658 -552.615459 
L 706.517863 -547.525051 
L 706.543808 -542.434643 
L 706.572984 -537.344235 
L 706.606118 -532.253827 
L 706.6412 -527.163419 
L 706.676055 -522.073011 
L 706.710465 -516.982603 
L 706.745333 -511.892195 
L 706.780578 -506.801788 
L 706.816037 -501.71138 
L 706.853508 -496.620972 
L 706.895986 -491.530564 
L 706.944475 -486.440156 
L 706.995969 -481.349748 
L 707.045349 -476.25934 
L 707.091402 -471.168932 
L 707.140223 -466.078524 
L 707.19856 -460.988116 
L 707.265626 -455.897708 
L 707.335838 -450.807301 
L 707.406305 -445.716893 
L 707.476852 -440.626485 
L 707.546538 -435.536077 
L 707.614654 -430.445669 
L 707.683423 -425.355261 
L 707.757116 -420.264853 
L 707.838129 -415.174445 
L 707.926078 -410.084037 
L 708.021521 -404.993629 
L 708.125409 -399.903222 
L 708.234136 -394.812814 
L 708.341927 -389.722406 
L 708.44818 -384.631998 
L 708.559415 -379.54159 
L 708.680747 -374.451182 
L 708.805617 -369.360774 
L 708.924208 -364.270366 
L 709.040039 -359.179958 
L 709.167681 -354.08955 
L 709.316983 -348.999143 
L 709.483611 -343.908735 
L 709.654243 -338.818327 
L 709.820757 -333.727919 
L 709.988019 -328.637511 
L 710.166904 -323.547103 
L 710.359862 -318.456695 
L 710.557801 -313.366287 
L 710.754471 -308.275879 
L 710.957412 -303.185471 
L 711.181446 -298.095064 
L 711.432406 -293.004656 
L 711.697528 -287.914248 
L 711.956832 -282.82384 
L 712.201257 -277.733432 
L 712.43457 -272.643024 
L 712.666961 -267.552616 
L 712.911324 -262.462208 
L 713.175776 -257.3718 
L 713.455115 -252.281392 
L 713.733625 -247.190985 
L 713.994552 -242.100577 
L 714.219817 -237.010169 
L 714.375076 -231.919761 
L 714.387274 -226.829353 
L 714.138397 -221.738945 
L 713.497855 -216.648537 
L 712.383123 -211.558129 
L 710.836146 -206.467721 
L 709.089607 -201.377313 
L 707.518558 -196.286905 
L 706.426878 -191.196498 
z
" style="stroke: #6d6d6d; stroke-opacity: 0.9; stroke-width: 1.25"/>
    </defs>
    <g clip-path="url(#p1858f8e142)">
     <use xlink:href="#mbbb2afcc8e" x="0" y="770.741813" style="fill: #c0dca9; fill-opacity: 0.9; stroke: #6d6d6d; stroke-opacity: 0.9; stroke-width: 1.25"/>
    </g>
   </g>
   <g id="FillBetweenPolyCollection_9">
    <defs>
     <path id="m09adcc5851" d="M 884.795225 -178.433997 
L 884.749403 -178.433997 
L 884.660015 -183.611617 
L 884.54443 -188.789236 
L 884.458384 -193.966855 
L 884.416134 -199.144475 
L 884.405141 -204.322094 
L 884.419306 -209.499713 
L 884.449024 -214.677332 
L 884.482899 -219.854952 
L 884.515692 -225.032571 
L 884.546495 -230.21019 
L 884.576875 -235.38781 
L 884.60671 -240.565429 
L 884.63222 -245.743048 
L 884.653187 -250.920668 
L 884.671624 -256.098287 
L 884.688107 -261.275906 
L 884.701716 -266.453526 
L 884.71341 -271.631145 
L 884.723496 -276.808764 
L 884.731649 -281.986383 
L 884.740025 -287.164003 
L 884.74838 -292.341622 
L 884.754532 -297.519241 
L 884.758638 -302.696861 
L 884.762754 -307.87448 
L 884.767434 -313.052099 
L 884.771168 -318.229719 
L 884.77382 -323.407338 
L 884.775813 -328.584957 
L 884.777682 -333.762577 
L 884.780158 -338.940196 
L 884.782199 -344.117815 
L 884.783134 -349.295435 
L 884.783814 -354.473054 
L 884.784872 -359.650673 
L 884.785924 -364.828292 
L 884.786676 -370.005912 
L 884.787649 -375.183531 
L 884.788742 -380.36115 
L 884.789608 -385.53877 
L 884.790243 -390.716389 
L 884.790881 -395.894008 
L 884.791505 -401.071628 
L 884.792055 -406.249247 
L 884.792641 -411.426866 
L 884.792957 -416.604486 
L 884.792859 -421.782105 
L 884.792749 -426.959724 
L 884.793018 -432.137343 
L 884.793485 -437.314963 
L 884.79369 -442.492582 
L 884.79356 -447.670201 
L 884.793661 -452.847821 
L 884.793941 -458.02544 
L 884.794146 -463.203059 
L 884.794464 -468.380679 
L 884.794694 -473.558298 
L 884.794672 -478.735917 
L 884.794574 -483.913537 
L 884.794607 -489.091156 
L 884.794797 -494.268775 
L 884.794943 -499.446394 
L 884.794963 -504.624014 
L 884.794946 -509.801633 
L 884.79499 -514.979252 
L 884.795031 -520.156872 
L 884.795029 -525.334491 
L 884.795082 -530.51211 
L 884.795157 -535.68973 
L 884.795143 -540.867349 
L 884.79506 -546.044968 
L 884.795012 -551.222588 
L 884.794998 -556.400207 
L 884.795007 -561.577826 
L 884.795062 -566.755445 
L 884.795148 -571.933065 
L 884.795201 -577.110684 
L 884.795194 -582.288303 
L 884.795159 -587.465923 
L 884.795161 -592.643542 
L 884.795197 -597.821161 
L 884.795204 -602.998781 
L 884.795172 -608.1764 
L 884.795153 -613.354019 
L 884.795184 -618.531639 
L 884.795215 -623.709258 
L 884.795223 -628.886877 
L 884.795216 -634.064496 
L 884.795186 -639.242116 
L 884.795153 -644.419735 
L 884.79517 -649.597354 
L 884.795202 -654.774974 
L 884.795191 -659.952593 
L 884.795148 -665.130212 
L 884.795124 -670.307832 
L 884.795128 -675.485451 
L 884.795153 -680.66307 
L 884.79516 -685.84069 
L 884.79515 -691.018309 
L 884.795225 -691.018309 
L 884.795225 -691.018309 
L 884.795225 -685.84069 
L 884.795225 -680.66307 
L 884.795225 -675.485451 
L 884.795225 -670.307832 
L 884.795225 -665.130212 
L 884.795225 -659.952593 
L 884.795225 -654.774974 
L 884.795225 -649.597354 
L 884.795225 -644.419735 
L 884.795225 -639.242116 
L 884.795225 -634.064496 
L 884.795225 -628.886877 
L 884.795225 -623.709258 
L 884.795225 -618.531639 
L 884.795225 -613.354019 
L 884.795225 -608.1764 
L 884.795225 -602.998781 
L 884.795225 -597.821161 
L 884.795225 -592.643542 
L 884.795225 -587.465923 
L 884.795225 -582.288303 
L 884.795225 -577.110684 
L 884.795225 -571.933065 
L 884.795225 -566.755445 
L 884.795225 -561.577826 
L 884.795225 -556.400207 
L 884.795225 -551.222588 
L 884.795225 -546.044968 
L 884.795225 -540.867349 
L 884.795225 -535.68973 
L 884.795225 -530.51211 
L 884.795225 -525.334491 
L 884.795225 -520.156872 
L 884.795225 -514.979252 
L 884.795225 -509.801633 
L 884.795225 -504.624014 
L 884.795225 -499.446394 
L 884.795225 -494.268775 
L 884.795225 -489.091156 
L 884.795225 -483.913537 
L 884.795225 -478.735917 
L 884.795225 -473.558298 
L 884.795225 -468.380679 
L 884.795225 -463.203059 
L 884.795225 -458.02544 
L 884.795225 -452.847821 
L 884.795225 -447.670201 
L 884.795225 -442.492582 
L 884.795225 -437.314963 
L 884.795225 -432.137343 
L 884.795225 -426.959724 
L 884.795225 -421.782105 
L 884.795225 -416.604486 
L 884.795225 -411.426866 
L 884.795225 -406.249247 
L 884.795225 -401.071628 
L 884.795225 -395.894008 
L 884.795225 -390.716389 
L 884.795225 -385.53877 
L 884.795225 -380.36115 
L 884.795225 -375.183531 
L 884.795225 -370.005912 
L 884.795225 -364.828292 
L 884.795225 -359.650673 
L 884.795225 -354.473054 
L 884.795225 -349.295435 
L 884.795225 -344.117815 
L 884.795225 -338.940196 
L 884.795225 -333.762577 
L 884.795225 -328.584957 
L 884.795225 -323.407338 
L 884.795225 -318.229719 
L 884.795225 -313.052099 
L 884.795225 -307.87448 
L 884.795225 -302.696861 
L 884.795225 -297.519241 
L 884.795225 -292.341622 
L 884.795225 -287.164003 
L 884.795225 -281.986383 
L 884.795225 -276.808764 
L 884.795225 -271.631145 
L 884.795225 -266.453526 
L 884.795225 -261.275906 
L 884.795225 -256.098287 
L 884.795225 -250.920668 
L 884.795225 -245.743048 
L 884.795225 -240.565429 
L 884.795225 -235.38781 
L 884.795225 -230.21019 
L 884.795225 -225.032571 
L 884.795225 -219.854952 
L 884.795225 -214.677332 
L 884.795225 -209.499713 
L 884.795225 -204.322094 
L 884.795225 -199.144475 
L 884.795225 -193.966855 
L 884.795225 -188.789236 
L 884.795225 -183.611617 
L 884.795225 -178.433997 
z
" style="stroke: #6d6d6d; stroke-opacity: 0.9; stroke-width: 1.25"/>
    </defs>
    <g clip-path="url(#p1858f8e142)">
     <use xlink:href="#m09adcc5851" x="0" y="770.741813" style="fill: #ecbd81; fill-opacity: 0.9; stroke: #6d6d6d; stroke-opacity: 0.9; stroke-width: 1.25"/>
    </g>
   </g>
   <g id="patch_3">
    <path d="M 167.880025 596.915947 
L 167.880025 596.915947 
L 167.880025 596.915947 
L 167.880025 596.915947 
z
" clip-path="url(#p1858f8e142)" style="fill: #ecbd81; opacity: 0.9; stroke: #6d6d6d; stroke-width: 1.25; stroke-linejoin: miter"/>
   </g>
   <g id="patch_4">
    <path d="M 167.880025 596.915947 
L 167.880025 596.915947 
L 167.880025 596.915947 
L 167.880025 596.915947 
z
" clip-path="url(#p1858f8e142)" style="fill: #c0dca9; opacity: 0.9; stroke: #6d6d6d; stroke-width: 1.25; stroke-linejoin: miter"/>
   </g>
   <g id="line2d_10">
    <path d="M 165.067525 595.201347 
L 165.067525 399.455045 
" clip-path="url(#p1858f8e142)" style="fill: none; stroke: #6d6d6d; stroke-width: 1.875; stroke-linecap: round"/>
   </g>
   <g id="line2d_11">
    <path d="M 165.067525 546.166984 
L 165.067525 487.482137 
" clip-path="url(#p1858f8e142)" style="fill: none; stroke: #6d6d6d; stroke-width: 5.625; stroke-linecap: round"/>
   </g>
   <g id="line2d_12">
    <path d="M 165.067525 520.554924 
" clip-path="url(#p1858f8e142)" style="fill: none; stroke: #6d6d6d; stroke-width: 1.5; stroke-linecap: round"/>
    <defs>
     <path id="mdb5f1166d8" d="M 2.34375 0 
L -2.34375 -0 
" style="stroke: #ffffff; stroke-width: 1.125"/>
    </defs>
    <g clip-path="url(#p1858f8e142)">
     <use xlink:href="#mdb5f1166d8" x="165.067525" y="520.554924" style="fill: #ffffff; stroke: #ffffff; stroke-width: 1.125"/>
    </g>
   </g>
   <g id="line2d_13">
    <path d="M 170.692525 579.081429 
L 170.692525 75.579528 
" clip-path="url(#p1858f8e142)" style="fill: none; stroke: #6d6d6d; stroke-width: 1.875; stroke-linecap: round"/>
   </g>
   <g id="line2d_14">
    <path d="M 170.692525 472.421893 
L 170.692525 310.455553 
" clip-path="url(#p1858f8e142)" style="fill: none; stroke: #6d6d6d; stroke-width: 5.625; stroke-linecap: round"/>
   </g>
   <g id="line2d_15">
    <path d="M 170.692525 403.556838 
" clip-path="url(#p1858f8e142)" style="fill: none; stroke: #6d6d6d; stroke-width: 1.5; stroke-linecap: round"/>
    <g clip-path="url(#p1858f8e142)">
     <use xlink:href="#mdb5f1166d8" x="170.692525" y="403.556838" style="fill: #ffffff; stroke: #ffffff; stroke-width: 1.125"/>
    </g>
   </g>
   <g id="line2d_16">
    <path d="M 344.296325 594.054173 
L 344.296325 466.058272 
" clip-path="url(#p1858f8e142)" style="fill: none; stroke: #6d6d6d; stroke-width: 1.875; stroke-linecap: round"/>
   </g>
   <g id="line2d_17">
    <path d="M 344.296325 570.097808 
L 344.296325 528.481742 
" clip-path="url(#p1858f8e142)" style="fill: none; stroke: #6d6d6d; stroke-width: 5.625; stroke-linecap: round"/>
   </g>
   <g id="line2d_18">
    <path d="M 344.296325 553.670297 
" clip-path="url(#p1858f8e142)" style="fill: none; stroke: #6d6d6d; stroke-width: 1.5; stroke-linecap: round"/>
    <g clip-path="url(#p1858f8e142)">
     <use xlink:href="#mdb5f1166d8" x="344.296325" y="553.670297" style="fill: #ffffff; stroke: #ffffff; stroke-width: 1.125"/>
    </g>
   </g>
   <g id="line2d_19">
    <path d="M 349.921325 581.437122 
L 349.921325 124.647336 
" clip-path="url(#p1858f8e142)" style="fill: none; stroke: #6d6d6d; stroke-width: 1.875; stroke-linecap: round"/>
   </g>
   <g id="line2d_20">
    <path d="M 349.921325 507.308735 
L 349.921325 354.243945 
" clip-path="url(#p1858f8e142)" style="fill: none; stroke: #6d6d6d; stroke-width: 5.625; stroke-linecap: round"/>
   </g>
   <g id="line2d_21">
    <path d="M 349.921325 442.603408 
" clip-path="url(#p1858f8e142)" style="fill: none; stroke: #6d6d6d; stroke-width: 1.5; stroke-linecap: round"/>
    <g clip-path="url(#p1858f8e142)">
     <use xlink:href="#mdb5f1166d8" x="349.921325" y="442.603408" style="fill: #ffffff; stroke: #ffffff; stroke-width: 1.125"/>
    </g>
   </g>
   <g id="line2d_22">
    <path d="M 523.525125 592.886542 
L 523.525125 455.473765 
" clip-path="url(#p1858f8e142)" style="fill: none; stroke: #6d6d6d; stroke-width: 1.875; stroke-linecap: round"/>
   </g>
   <g id="line2d_23">
    <path d="M 523.525125 568.325789 
L 523.525125 523.184141 
" clip-path="url(#p1858f8e142)" style="fill: none; stroke: #6d6d6d; stroke-width: 5.625; stroke-linecap: round"/>
   </g>
   <g id="line2d_24">
    <path d="M 523.525125 550.153605 
" clip-path="url(#p1858f8e142)" style="fill: none; stroke: #6d6d6d; stroke-width: 1.5; stroke-linecap: round"/>
    <g clip-path="url(#p1858f8e142)">
     <use xlink:href="#mdb5f1166d8" x="523.525125" y="550.153605" style="fill: #ffffff; stroke: #ffffff; stroke-width: 1.125"/>
    </g>
   </g>
   <g id="line2d_25">
    <path d="M 529.150125 581.627441 
L 529.150125 167.456848 
" clip-path="url(#p1858f8e142)" style="fill: none; stroke: #6d6d6d; stroke-width: 1.875; stroke-linecap: round"/>
   </g>
   <g id="line2d_26">
    <path d="M 529.150125 520.02066 
L 529.150125 378.994792 
" clip-path="url(#p1858f8e142)" style="fill: none; stroke: #6d6d6d; stroke-width: 5.625; stroke-linecap: round"/>
   </g>
   <g id="line2d_27">
    <path d="M 529.150125 464.638488 
" clip-path="url(#p1858f8e142)" style="fill: none; stroke: #6d6d6d; stroke-width: 1.5; stroke-linecap: round"/>
    <g clip-path="url(#p1858f8e142)">
     <use xlink:href="#mdb5f1166d8" x="529.150125" y="464.638488" style="fill: #ffffff; stroke: #ffffff; stroke-width: 1.125"/>
    </g>
   </g>
   <g id="line2d_28">
    <path d="M 702.753925 592.363618 
L 702.753925 439.295742 
" clip-path="url(#p1858f8e142)" style="fill: none; stroke: #6d6d6d; stroke-width: 1.875; stroke-linecap: round"/>
   </g>
   <g id="line2d_29">
    <path d="M 702.753925 566.230318 
L 702.753925 515.452836 
" clip-path="url(#p1858f8e142)" style="fill: none; stroke: #6d6d6d; stroke-width: 5.625; stroke-linecap: round"/>
   </g>
   <g id="line2d_30">
    <path d="M 702.753925 546.010649 
" clip-path="url(#p1858f8e142)" style="fill: none; stroke: #6d6d6d; stroke-width: 1.5; stroke-linecap: round"/>
    <g clip-path="url(#p1858f8e142)">
     <use xlink:href="#mdb5f1166d8" x="702.753925" y="546.010649" style="fill: #ffffff; stroke: #ffffff; stroke-width: 1.125"/>
    </g>
   </g>
   <g id="line2d_31">
    <path d="M 708.378925 579.545315 
L 708.378925 170.218836 
" clip-path="url(#p1858f8e142)" style="fill: none; stroke: #6d6d6d; stroke-width: 1.875; stroke-linecap: round"/>
   </g>
   <g id="line2d_32">
    <path d="M 708.378925 525.508186 
L 708.378925 383.387443 
" clip-path="url(#p1858f8e142)" style="fill: none; stroke: #6d6d6d; stroke-width: 5.625; stroke-linecap: round"/>
   </g>
   <g id="line2d_33">
    <path d="M 708.378925 473.121507 
" clip-path="url(#p1858f8e142)" style="fill: none; stroke: #6d6d6d; stroke-width: 1.5; stroke-linecap: round"/>
    <g clip-path="url(#p1858f8e142)">
     <use xlink:href="#mdb5f1166d8" x="708.378925" y="473.121507" style="fill: #ffffff; stroke: #ffffff; stroke-width: 1.125"/>
    </g>
   </g>
   <g id="line2d_34">
    <path d="M 881.982725 592.307815 
L 881.982725 459.459321 
" clip-path="url(#p1858f8e142)" style="fill: none; stroke: #6d6d6d; stroke-width: 1.875; stroke-linecap: round"/>
   </g>
   <g id="line2d_35">
    <path d="M 881.982725 568.237898 
L 881.982725 524.709916 
" clip-path="url(#p1858f8e142)" style="fill: none; stroke: #6d6d6d; stroke-width: 5.625; stroke-linecap: round"/>
   </g>
   <g id="line2d_36">
    <path d="M 881.982725 551.439615 
" clip-path="url(#p1858f8e142)" style="fill: none; stroke: #6d6d6d; stroke-width: 1.5; stroke-linecap: round"/>
    <g clip-path="url(#p1858f8e142)">
     <use xlink:href="#mdb5f1166d8" x="881.982725" y="551.439615" style="fill: #ffffff; stroke: #ffffff; stroke-width: 1.125"/>
    </g>
   </g>
   <g id="patch_5">
    <path d="M 78.265625 621.182438 
L 78.265625 49.598438 
" style="fill: none; stroke: #cccccc; stroke-width: 1.25; stroke-linejoin: miter; stroke-linecap: square"/>
   </g>
   <g id="patch_6">
    <path d="M 974.409625 621.182438 
L 974.409625 49.598438 
" style="fill: none; stroke: #cccccc; stroke-width: 1.25; stroke-linejoin: miter; stroke-linecap: square"/>
   </g>
   <g id="patch_7">
    <path d="M 78.265625 621.182437 
L 974.409625 621.182437 
" style="fill: none; stroke: #cccccc; stroke-width: 1.25; stroke-linejoin: miter; stroke-linecap: square"/>
   </g>
   <g id="patch_8">
    <path d="M 78.265625 49.598438 
L 974.409625 49.598438 
" style="fill: none; stroke: #cccccc; stroke-width: 1.25; stroke-linejoin: miter; stroke-linecap: square"/>
   </g>
   <g id="text_17">
    <text style="font-size: 10px; font-family: 'Arial', 'DejaVu Sans', 'Liberation Sans', 'Bitstream Vera Sans', sans-serif; text-anchor: middle; fill: #262626" x="526.337625" y="43.598438" transform="rotate(-0 526.337625 43.598438)">Split violin plot of distances by Level One Cell Type (Density Normalization: count)</text>
   </g>
   <g id="legend_1">
    <g id="patch_9">
     <path d="M 987.751538 86.954688 
L 1101.831225 86.954688 
Q 1103.831225 86.954688 1103.831225 84.954688 
L 1103.831225 56.598438 
Q 1103.831225 54.598438 1101.831225 54.598438 
L 987.751538 54.598438 
Q 985.751538 54.598438 985.751538 56.598438 
L 985.751538 84.954688 
Q 985.751538 86.954688 987.751538 86.954688 
z
" style="fill: #ffffff; opacity: 0.8; stroke: #cccccc; stroke-width: 0.8; stroke-linejoin: miter"/>
    </g>
    <g id="patch_10">
     <path d="M 989.751538 66.196875 
L 1009.751538 66.196875 
L 1009.751538 59.196875 
L 989.751538 59.196875 
z
" style="fill: #ecbd81; opacity: 0.9; stroke: #6d6d6d; stroke-width: 1.25; stroke-linejoin: miter"/>
    </g>
    <g id="text_18">
     <text style="font-size: 10px; font-family: 'Arial', 'DejaVu Sans', 'Liberation Sans', 'Bitstream Vera Sans', sans-serif; text-anchor: start; fill: #262626" x="1017.751538" y="66.196875" transform="rotate(-0 1017.751538 66.196875)">xenium-stanford</text>
    </g>
    <g id="patch_11">
     <path d="M 989.751538 80.875 
L 1009.751538 80.875 
L 1009.751538 73.875 
L 989.751538 73.875 
z
" style="fill: #c0dca9; opacity: 0.9; stroke: #6d6d6d; stroke-width: 1.25; stroke-linejoin: miter"/>
    </g>
    <g id="text_19">
     <text style="font-size: 10px; font-family: 'Arial', 'DejaVu Sans', 'Liberation Sans', 'Bitstream Vera Sans', sans-serif; text-anchor: start; fill: #262626" x="1017.751538" y="80.875" transform="rotate(-0 1017.751538 80.875)">cycif-sorgerlab</text>
    </g>
   </g>
  </g>
 </g>
 <defs>
  <clipPath id="p1858f8e142">
   <rect x="78.265625" y="49.598438" width="896.144" height="571.584"/>
  </clipPath>
 </defs>
</svg>
