<svg class="main-svg" xmlns="http://www.w3.org/2000/svg" xmlns:xlink="http://www.w3.org/1999/xlink" width="800" height="600" style="" viewBox="0 0 800 600"><rect x="0" y="0" width="800" height="600" style="fill: rgb(255, 255, 255); fill-opacity: 1;"/><defs id="defs-46cc58"><g class="clips"/><g class="gradients"/><g class="patterns"/></defs><g class="bglayer"/><g class="layer-below"><g class="imagelayer"/><g class="shapelayer"/></g><g class="cartesianlayer"/><g class="polarlayer"/><g class="smithlayer"/><g class="ternarylayer"/><g class="geolayer"/><g class="funnelarealayer"/><g class="pielayer"><g class="trace" stroke-linejoin="round" style="opacity: 1;"><g class="slice"><path class="surface" d="M286.48044964120135,393.0617894029108a84,84 0 1 0 12.519550358798655,-167.0617894029108l0,-126a210,210 0 1 1 -31.298875896996638,417.654473507277Z" style="pointer-events: none; fill: rgb(141, 211, 199); fill-opacity: 1; stroke-width: 2; stroke: rgb(255, 255, 255); stroke-opacity: 1;"/><g class="slicetext"><text data-notex="1" class="slicetext" transform="translate(410.8093255954046,318.3789506108965)rotate(-85.71428571428567)" text-anchor="middle" x="0" y="0" style="font-family: 'Open Sans', verdana, arial, sans-serif; font-size: 9px; fill: rgb(68, 68, 68); fill-opacity: 1; white-space: pre;"><tspan class="line" dy="0em" x="0" y="0">maternalfetalinterface-mibitof-stanford</tspan><tspan class="line" dy="1.3em" x="0" y="0">52.4%</tspan><tspan class="line" dy="2.6em" x="0" y="0">(209)</tspan></text></g></g><g class="slice"><path class="surface" d="M299,226a84,84 0 0 0 -71.03672510158356,39.169388953059666l-106.55508765237533,-67.2459165704105a210,210 0 0 1 177.5918127539589,-97.92347238264917Z" style="pointer-events: none; fill: rgb(255, 255, 179); fill-opacity: 1; stroke-width: 2; stroke: rgb(255, 255, 255); stroke-opacity: 1;"/><g class="slicetext"><text data-notex="1" class="slicetext" transform="translate(228.01998412167478,172.57204021567867)" text-anchor="middle" x="0" y="0" style="font-family: 'Open Sans', verdana, arial, sans-serif; font-size: 9px; fill: rgb(68, 68, 68); fill-opacity: 1; white-space: pre;"><tspan class="line" dy="0em" x="0" y="0">intestine-codex-stanford</tspan><tspan class="line" dy="1.3em" x="0" y="0">16%</tspan><tspan class="line" dy="2.6em" x="0" y="0">(64)</tspan></text></g></g><g class="slice"><path class="surface" d="M227.96327489841644,265.16938895305964a84,84 0 0 0 -12.489183761959044,35.91867811860345l-125.28886329531389,-13.367899392505322a210,210 0 0 1 31.22295940489761,-89.79669529650863Z" style="pointer-events: none; fill: rgb(190, 186, 218); fill-opacity: 1; stroke-width: 2; stroke: rgb(255, 255, 255); stroke-opacity: 1;"/><g class="slicetext"><text data-notex="1" class="slicetext" transform="translate(159.15269301063938,252.16296026801172)rotate(19.172932330827052)" text-anchor="middle" x="0" y="0" style="font-family: 'Open Sans', verdana, arial, sans-serif; font-size: 9px; fill: rgb(68, 68, 68); fill-opacity: 1; white-space: pre;"><tspan class="line" dy="0em" x="0" y="0">colon-xenium-stanford</tspan><tspan class="line" dy="1.3em" x="0" y="0">7.27%</tspan><tspan class="line" dy="2.6em" x="0" y="0">(29)</tspan></text></g></g><g class="slice"><path class="surface" d="M215.4740911364574,301.0880670716631a84,84 0 0 0 2.970976854517835,32.72165634171147l-120.83239801353714,35.71458512006188a210,210 0 0 1 -7.427442136294587,-81.80414085427867Z" style="pointer-events: none; fill: rgb(251, 128, 114); fill-opacity: 1; stroke-width: 2; stroke: rgb(255, 255, 255); stroke-opacity: 1;"/><g class="slicetext"><text data-notex="1" class="slicetext" transform="translate(141.9145202500224,315.5266605786842)rotate(-5.187969924812023)" text-anchor="middle" x="0" y="0" style="font-family: 'Open Sans', verdana, arial, sans-serif; font-size: 9px; fill: rgb(68, 68, 68); fill-opacity: 1; white-space: pre;"><tspan class="line" dy="0em" x="0" y="0">colon-cycif-sorgerlab</tspan><tspan class="line" dy="1.3em" x="0" y="0">6.27%</tspan><tspan class="line" dy="2.6em" x="0" y="0">(25)</tspan></text></g></g><g class="slice"><path class="surface" d="M218.44506799097525,333.80972341337457a84,84 0 0 0 11.337698862036802,23.78202624426577l-103.82584972048194,71.38762448646052a210,210 0 0 1 -28.344247155092006,-59.45506561066442Z" style="pointer-events: none; fill: rgb(128, 177, 211); fill-opacity: 1; stroke-width: 2; stroke: rgb(255, 255, 255); stroke-opacity: 1;"/><g class="slicetext"><text data-notex="1" class="slicetext" transform="translate(152.28642606247612,370.3714073533741)scale(0.9931151185187513)rotate(-25.48872180451133)" text-anchor="middle" x="0" y="0" style="font-family: 'Open Sans', verdana, arial, sans-serif; font-size: 9px; fill: rgb(68, 68, 68); fill-opacity: 1; white-space: pre;"><tspan class="line" dy="0em" x="0" y="0">bonemarrow-codex-chop</tspan><tspan class="line" dy="1.3em" x="0" y="0">5.01%</tspan><tspan class="line" dy="2.6em" x="0" y="0">(20)</tspan></text></g></g><g class="slice"><path class="surface" d="M229.78276685301205,357.5917496576404a84,84 0 0 0 11.120183851069193,13.077294039352138l-87.14557394387815,91.00356554548874a210,210 0 0 1 -27.80045962767298,-32.69323509838034Z" style="pointer-events: none; fill: rgb(253, 180, 98); fill-opacity: 1; stroke-width: 2; stroke: rgb(255, 255, 255); stroke-opacity: 1;"/><g class="slicetext"><text data-notex="1" class="slicetext" transform="translate(160.7548381120101,417.93629500226234)scale(0.8423064346409781)rotate(-40.37593984962405)" text-anchor="middle" x="0" y="0" style="font-family: 'Open Sans', verdana, arial, sans-serif; font-size: 9px; fill: rgb(68, 68, 68); fill-opacity: 1; white-space: pre;"><tspan class="line" dy="0em" x="0" y="0">oralcavity-codex-czi</tspan><tspan class="line" dy="1.3em" x="0" y="0">3.26%</tspan><tspan class="line" dy="2.6em" x="0" y="0">(13)</tspan></text></g></g><g class="slice"><path class="surface" d="M240.90295070408123,370.6690436969925a84,84 0 0 0 12.430605231202719,9.833267516783758l-68.49966609707407,105.75346682066437a210,210 0 0 1 -31.076513078006798,-24.583168791959395Z" style="pointer-events: none; fill: rgb(179, 222, 105); fill-opacity: 1; stroke-width: 2; stroke: rgb(255, 255, 255); stroke-opacity: 1;"/><g class="slicetext"><text data-notex="1" class="slicetext" transform="translate(183.77711226149944,444.4965254196725)scale(0.7958918509637093)rotate(-51.654135338345895)" text-anchor="middle" x="0" y="0" style="font-family: 'Open Sans', verdana, arial, sans-serif; font-size: 9px; fill: rgb(68, 68, 68); fill-opacity: 1; white-space: pre;"><tspan class="line" dy="0em" x="0" y="0">pancreas-geomx-ufl</tspan><tspan class="line" dy="1.3em" x="0" y="0">3.01%</tspan><tspan class="line" dy="2.6em" x="0" y="0">(12)</tspan></text></g></g><g class="slice"><path class="surface" d="M253.33355593528395,380.50231121377624a84,84 0 0 0 11.621449945707532,6.289214200403899l-51.06749117851278,115.18728812127021a210,210 0 0 1 -29.053624864268826,-15.723035501009747Z" style="pointer-events: none; fill: rgb(252, 205, 229); fill-opacity: 1; stroke-width: 2; stroke: rgb(255, 255, 255); stroke-opacity: 1;"/><g class="slicetext"><text data-notex="1" class="slicetext" transform="translate(204.84918602818266,470.37581851991126)scale(0.7439737361873154)rotate(-61.57894736842104)" text-anchor="middle" x="0" y="0" style="font-family: 'Open Sans', verdana, arial, sans-serif; font-size: 9px; fill: rgb(68, 68, 68); fill-opacity: 1; white-space: pre;"><tspan class="line" dy="0em" x="0" y="0">skin-celldive-ge</tspan><tspan class="line" dy="1.3em" x="0" y="0">2.51%</tspan><tspan class="line" dy="2.6em" x="0" y="0">(10)</tspan></text></g></g><g class="slice"><path class="surface" d="M264.9550058809915,386.79152541418017a84,84 0 0 0 7.39662978682224,2.869410297240302l-39.97254649827942,119.49140356713067a210,210 0 0 1 -18.4915744670556,-7.173525743100754Z" style="pointer-events: none; fill: rgb(217, 217, 217); fill-opacity: 1; stroke-width: 2; stroke: rgb(255, 255, 255); stroke-opacity: 1;"/><g class="slicetext"><text data-notex="1" class="slicetext" transform="translate(225.14265805863525,488.69131065370175)scale(0.48615489066435114)rotate(-68.796992481203)" text-anchor="middle" x="0" y="0" style="font-family: 'Open Sans', verdana, arial, sans-serif; font-size: 9px; fill: rgb(68, 68, 68); fill-opacity: 1; white-space: pre;"><tspan class="line" dy="0em" x="0" y="0">spleen-codex-ufl</tspan><tspan class="line" dy="1.3em" x="0" y="0">1.5%</tspan><tspan class="line" dy="2.6em" x="0" y="0">(6)</tspan></text></g></g><g class="slice"><path class="surface" d="M272.3516356678137,389.66093571142045a84,84 0 0 0 6.348317197436782,1.8492359625917971l-30.450070702124247,122.26525751101836a210,210 0 0 1 -15.870792993591955,-4.623089906479493Z" style="pointer-events: none; fill: rgb(188, 128, 189); fill-opacity: 1; stroke-width: 2; stroke: rgb(255, 255, 255); stroke-opacity: 1;"/><g class="slicetext"><text data-notex="1" class="slicetext" transform="translate(242.15567459408808,492.8161980478923)scale(0.39625653533600236)rotate(-73.75939849624069)" text-anchor="middle" x="0" y="0" style="font-family: 'Open Sans', verdana, arial, sans-serif; font-size: 9px; fill: rgb(68, 68, 68); fill-opacity: 1; white-space: pre;"><tspan class="line" dy="0em" x="0" y="0">lymphnode-codex-yale</tspan><tspan class="line" dy="1.3em" x="0" y="0">1.25%</tspan><tspan class="line" dy="2.6em" x="0" y="0">(5)</tspan></text></g></g><g class="slice"><path class="surface" d="M278.6999528652505,391.51017167401227a84,84 0 0 0 2.5767781449811853,0.5988152660073979l-26.58490348465247,123.16348041002946a210,210 0 0 1 -6.441945362452962,-1.4970381650184947Z" style="pointer-events: none; fill: rgb(204, 235, 197); fill-opacity: 1; stroke-width: 2; stroke: rgb(255, 255, 255); stroke-opacity: 1;"/><g class="slicetext"><text data-notex="1" class="slicetext" transform="translate(251.88839312317413,505.9302906566756)scale(0.1768393150936372)rotate(-76.91729323308277)" text-anchor="middle" x="0" y="0" style="font-family: 'Open Sans', verdana, arial, sans-serif; font-size: 9px; fill: rgb(68, 68, 68); fill-opacity: 1; white-space: pre;"><tspan class="line" dy="0em" x="0" y="0">skin-confocal-sorgerlab</tspan><tspan class="line" dy="1.3em" x="0" y="0">0.501%</tspan><tspan class="line" dy="2.6em" x="0" y="0">(2)</tspan></text></g></g><g class="slice"><path class="surface" d="M281.2767310102317,392.10898694001963a84,84 0 0 0 2.594356647143107,0.5173769599436809l-22.69336851393781,123.93954584994498a210,210 0 0 1 -6.485891617857767,-1.2934423998592024Z" style="pointer-events: none; fill: rgb(255, 237, 111); fill-opacity: 1; stroke-width: 2; stroke: rgb(255, 255, 255); stroke-opacity: 1;"/><g class="slicetext"><text data-notex="1" class="slicetext" transform="translate(257.61170293056284,509.4944294384253)scale(0.18083970046232778)rotate(-78.72180451127815)" text-anchor="middle" x="0" y="0" style="font-family: 'Open Sans', verdana, arial, sans-serif; font-size: 9px; fill: rgb(68, 68, 68); fill-opacity: 1; white-space: pre;"><tspan class="line" dy="0em" x="0" y="0">lung-codex-urmc</tspan><tspan class="line" dy="1.3em" x="0" y="0">0.501%</tspan><tspan class="line" dy="2.6em" x="0" y="0">(2)</tspan></text></g></g><g class="slice"><path class="surface" d="M283.8710876573748,392.62636389996334a84,84 0 0 0 1.302966759043548,0.22798558586534912l-20.73891837537249,124.28152422874301a210,210 0 0 1 -3.25741689760887,-0.5699639646633727Z" style="pointer-events: none; fill: rgb(215, 239, 235); fill-opacity: 1; stroke-width: 2; stroke: rgb(255, 255, 255); stroke-opacity: 1;"/><g class="slicetext"><text data-notex="1" class="slicetext" transform="translate(262.88735217367673,511.76572380999426)scale(0.09157772401500335)rotate(-80.07518796992485)" text-anchor="middle" x="0" y="0" style="font-family: 'Open Sans', verdana, arial, sans-serif; font-size: 9px; fill: rgb(68, 68, 68); fill-opacity: 1; white-space: pre;"><tspan class="line" dy="0em" x="0" y="0">esophagus-codex-stanford</tspan><tspan class="line" dy="1.3em" x="0" y="0">0.251%</tspan><tspan class="line" dy="2.6em" x="0" y="0">(1)</tspan></text></g></g><g class="slice"><path class="surface" d="M285.17405441641836,392.85434948582866a84,84 0 0 0 1.3063952247829833,0.2074399170821266l-18.779325538198012,124.5926841043662a210,210 0 0 1 -3.265988061957458,-0.5185997927053165Z" style="pointer-events: none; fill: rgb(255, 255, 255); fill-opacity: 1; stroke-width: 2; stroke: rgb(255, 255, 255); stroke-opacity: 1;"/><g class="slicetext"><text data-notex="1" class="slicetext" transform="translate(265.8969747562578,513.3394631238956)scale(0.09253440711665765)rotate(-80.97744360902254)" text-anchor="middle" x="0" y="0" style="font-family: 'Open Sans', verdana, arial, sans-serif; font-size: 9px; fill: rgb(68, 68, 68); fill-opacity: 1; white-space: pre;"><tspan class="line" dy="0em" x="0" y="0">tonsil-codex-stanford</tspan><tspan class="line" dy="1.3em" x="0" y="0">0.251%</tspan><tspan class="line" dy="2.6em" x="0" y="0">(1)</tspan></text></g></g></g></g><g class="iciclelayer"/><g class="treemaplayer"/><g class="sunburstlayer"/><g class="glimages"/><defs id="topdefs-46cc58"><g class="clips"/><clipPath id="legend46cc58"><rect width="248" height="276" x="0" y="0"/></clipPath></defs><g class="layer-above"><g class="imagelayer"/><g class="shapelayer"/></g><g class="infolayer"><g class="legend" pointer-events="all" transform="translate(539.9000000000001,172)"><rect class="bg" shape-rendering="crispEdges" style="stroke: rgb(68, 68, 68); stroke-opacity: 1; fill: rgb(255, 255, 255); fill-opacity: 1; stroke-width: 0px;" width="248" height="276" x="0" y="0"/><g class="scrollbox" transform="" clip-path="url(#legend46cc58)"><g class="groups"><g class="traces" transform="translate(0,14.5)" style="opacity: 1;"><text class="legendtext" text-anchor="start" x="40" y="4.680000000000001" style="font-family: 'Open Sans', verdana, arial, sans-serif; font-size: 12px; fill: rgb(42, 63, 95); fill-opacity: 1; white-space: pre;">maternalfetalinterface-mibitof-stanford</text><g class="layers" style="opacity: 1;"><g class="legendfill"/><g class="legendlines"/><g class="legendsymbols"><g class="legendpoints"><path class="legendpie" d="M6,6H-6V-6H6Z" transform="translate(20,0)" style="fill: rgb(141, 211, 199); fill-opacity: 1; stroke-width: 2; stroke: rgb(255, 255, 255); stroke-opacity: 1;"/></g></g></g><rect class="legendtoggle" x="0" y="-9.5" width="242.09375" height="19" style="fill: rgb(0, 0, 0); fill-opacity: 0;"/></g><g class="traces" transform="translate(0,33.5)" style="opacity: 1;"><text class="legendtext" text-anchor="start" x="40" y="4.680000000000001" style="font-family: 'Open Sans', verdana, arial, sans-serif; font-size: 12px; fill: rgb(42, 63, 95); fill-opacity: 1; white-space: pre;">intestine-codex-stanford</text><g class="layers" style="opacity: 1;"><g class="legendfill"/><g class="legendlines"/><g class="legendsymbols"><g class="legendpoints"><path class="legendpie" d="M6,6H-6V-6H6Z" transform="translate(20,0)" style="fill: rgb(255, 255, 179); fill-opacity: 1; stroke-width: 2; stroke: rgb(255, 255, 255); stroke-opacity: 1;"/></g></g></g><rect class="legendtoggle" x="0" y="-9.5" width="242.09375" height="19" style="fill: rgb(0, 0, 0); fill-opacity: 0;"/></g><g class="traces" transform="translate(0,52.5)" style="opacity: 1;"><text class="legendtext" text-anchor="start" x="40" y="4.680000000000001" style="font-family: 'Open Sans', verdana, arial, sans-serif; font-size: 12px; fill: rgb(42, 63, 95); fill-opacity: 1; white-space: pre;">colon-xenium-stanford</text><g class="layers" style="opacity: 1;"><g class="legendfill"/><g class="legendlines"/><g class="legendsymbols"><g class="legendpoints"><path class="legendpie" d="M6,6H-6V-6H6Z" transform="translate(20,0)" style="fill: rgb(190, 186, 218); fill-opacity: 1; stroke-width: 2; stroke: rgb(255, 255, 255); stroke-opacity: 1;"/></g></g></g><rect class="legendtoggle" x="0" y="-9.5" width="242.09375" height="19" style="fill: rgb(0, 0, 0); fill-opacity: 0;"/></g><g class="traces" transform="translate(0,71.5)" style="opacity: 1;"><text class="legendtext" text-anchor="start" x="40" y="4.680000000000001" style="font-family: 'Open Sans', verdana, arial, sans-serif; font-size: 12px; fill: rgb(42, 63, 95); fill-opacity: 1; white-space: pre;">colon-cycif-sorgerlab</text><g class="layers" style="opacity: 1;"><g class="legendfill"/><g class="legendlines"/><g class="legendsymbols"><g class="legendpoints"><path class="legendpie" d="M6,6H-6V-6H6Z" transform="translate(20,0)" style="fill: rgb(251, 128, 114); fill-opacity: 1; stroke-width: 2; stroke: rgb(255, 255, 255); stroke-opacity: 1;"/></g></g></g><rect class="legendtoggle" x="0" y="-9.5" width="242.09375" height="19" style="fill: rgb(0, 0, 0); fill-opacity: 0;"/></g><g class="traces" transform="translate(0,90.5)" style="opacity: 1;"><text class="legendtext" text-anchor="start" x="40" y="4.680000000000001" style="font-family: 'Open Sans', verdana, arial, sans-serif; font-size: 12px; fill: rgb(42, 63, 95); fill-opacity: 1; white-space: pre;">bonemarrow-codex-chop</text><g class="layers" style="opacity: 1;"><g class="legendfill"/><g class="legendlines"/><g class="legendsymbols"><g class="legendpoints"><path class="legendpie" d="M6,6H-6V-6H6Z" transform="translate(20,0)" style="fill: rgb(128, 177, 211); fill-opacity: 1; stroke-width: 2; stroke: rgb(255, 255, 255); stroke-opacity: 1;"/></g></g></g><rect class="legendtoggle" x="0" y="-9.5" width="242.09375" height="19" style="fill: rgb(0, 0, 0); fill-opacity: 0;"/></g><g class="traces" transform="translate(0,109.5)" style="opacity: 1;"><text class="legendtext" text-anchor="start" x="40" y="4.680000000000001" style="font-family: 'Open Sans', verdana, arial, sans-serif; font-size: 12px; fill: rgb(42, 63, 95); fill-opacity: 1; white-space: pre;">oralcavity-codex-czi</text><g class="layers" style="opacity: 1;"><g class="legendfill"/><g class="legendlines"/><g class="legendsymbols"><g class="legendpoints"><path class="legendpie" d="M6,6H-6V-6H6Z" transform="translate(20,0)" style="fill: rgb(253, 180, 98); fill-opacity: 1; stroke-width: 2; stroke: rgb(255, 255, 255); stroke-opacity: 1;"/></g></g></g><rect class="legendtoggle" x="0" y="-9.5" width="242.09375" height="19" style="fill: rgb(0, 0, 0); fill-opacity: 0;"/></g><g class="traces" transform="translate(0,128.5)" style="opacity: 1;"><text class="legendtext" text-anchor="start" x="40" y="4.680000000000001" style="font-family: 'Open Sans', verdana, arial, sans-serif; font-size: 12px; fill: rgb(42, 63, 95); fill-opacity: 1; white-space: pre;">pancreas-geomx-ufl</text><g class="layers" style="opacity: 1;"><g class="legendfill"/><g class="legendlines"/><g class="legendsymbols"><g class="legendpoints"><path class="legendpie" d="M6,6H-6V-6H6Z" transform="translate(20,0)" style="fill: rgb(179, 222, 105); fill-opacity: 1; stroke-width: 2; stroke: rgb(255, 255, 255); stroke-opacity: 1;"/></g></g></g><rect class="legendtoggle" x="0" y="-9.5" width="242.09375" height="19" style="fill: rgb(0, 0, 0); fill-opacity: 0;"/></g><g class="traces" transform="translate(0,147.5)" style="opacity: 1;"><text class="legendtext" text-anchor="start" x="40" y="4.680000000000001" style="font-family: 'Open Sans', verdana, arial, sans-serif; font-size: 12px; fill: rgb(42, 63, 95); fill-opacity: 1; white-space: pre;">skin-celldive-ge</text><g class="layers" style="opacity: 1;"><g class="legendfill"/><g class="legendlines"/><g class="legendsymbols"><g class="legendpoints"><path class="legendpie" d="M6,6H-6V-6H6Z" transform="translate(20,0)" style="fill: rgb(252, 205, 229); fill-opacity: 1; stroke-width: 2; stroke: rgb(255, 255, 255); stroke-opacity: 1;"/></g></g></g><rect class="legendtoggle" x="0" y="-9.5" width="242.09375" height="19" style="fill: rgb(0, 0, 0); fill-opacity: 0;"/></g><g class="traces" transform="translate(0,166.5)" style="opacity: 1;"><text class="legendtext" text-anchor="start" x="40" y="4.680000000000001" style="font-family: 'Open Sans', verdana, arial, sans-serif; font-size: 12px; fill: rgb(42, 63, 95); fill-opacity: 1; white-space: pre;">spleen-codex-ufl</text><g class="layers" style="opacity: 1;"><g class="legendfill"/><g class="legendlines"/><g class="legendsymbols"><g class="legendpoints"><path class="legendpie" d="M6,6H-6V-6H6Z" transform="translate(20,0)" style="fill: rgb(217, 217, 217); fill-opacity: 1; stroke-width: 2; stroke: rgb(255, 255, 255); stroke-opacity: 1;"/></g></g></g><rect class="legendtoggle" x="0" y="-9.5" width="242.09375" height="19" style="fill: rgb(0, 0, 0); fill-opacity: 0;"/></g><g class="traces" transform="translate(0,185.5)" style="opacity: 1;"><text class="legendtext" text-anchor="start" x="40" y="4.680000000000001" style="font-family: 'Open Sans', verdana, arial, sans-serif; font-size: 12px; fill: rgb(42, 63, 95); fill-opacity: 1; white-space: pre;">lymphnode-codex-yale</text><g class="layers" style="opacity: 1;"><g class="legendfill"/><g class="legendlines"/><g class="legendsymbols"><g class="legendpoints"><path class="legendpie" d="M6,6H-6V-6H6Z" transform="translate(20,0)" style="fill: rgb(188, 128, 189); fill-opacity: 1; stroke-width: 2; stroke: rgb(255, 255, 255); stroke-opacity: 1;"/></g></g></g><rect class="legendtoggle" x="0" y="-9.5" width="242.09375" height="19" style="fill: rgb(0, 0, 0); fill-opacity: 0;"/></g><g class="traces" transform="translate(0,204.5)" style="opacity: 1;"><text class="legendtext" text-anchor="start" x="40" y="4.680000000000001" style="font-family: 'Open Sans', verdana, arial, sans-serif; font-size: 12px; fill: rgb(42, 63, 95); fill-opacity: 1; white-space: pre;">skin-confocal-sorgerlab</text><g class="layers" style="opacity: 1;"><g class="legendfill"/><g class="legendlines"/><g class="legendsymbols"><g class="legendpoints"><path class="legendpie" d="M6,6H-6V-6H6Z" transform="translate(20,0)" style="fill: rgb(204, 235, 197); fill-opacity: 1; stroke-width: 2; stroke: rgb(255, 255, 255); stroke-opacity: 1;"/></g></g></g><rect class="legendtoggle" x="0" y="-9.5" width="242.09375" height="19" style="fill: rgb(0, 0, 0); fill-opacity: 0;"/></g><g class="traces" transform="translate(0,223.5)" style="opacity: 1;"><text class="legendtext" text-anchor="start" x="40" y="4.680000000000001" style="font-family: 'Open Sans', verdana, arial, sans-serif; font-size: 12px; fill: rgb(42, 63, 95); fill-opacity: 1; white-space: pre;">lung-codex-urmc</text><g class="layers" style="opacity: 1;"><g class="legendfill"/><g class="legendlines"/><g class="legendsymbols"><g class="legendpoints"><path class="legendpie" d="M6,6H-6V-6H6Z" transform="translate(20,0)" style="fill: rgb(255, 237, 111); fill-opacity: 1; stroke-width: 2; stroke: rgb(255, 255, 255); stroke-opacity: 1;"/></g></g></g><rect class="legendtoggle" x="0" y="-9.5" width="242.09375" height="19" style="fill: rgb(0, 0, 0); fill-opacity: 0;"/></g><g class="traces" transform="translate(0,242.5)" style="opacity: 1;"><text class="legendtext" text-anchor="start" x="40" y="4.680000000000001" style="font-family: 'Open Sans', verdana, arial, sans-serif; font-size: 12px; fill: rgb(42, 63, 95); fill-opacity: 1; white-space: pre;">esophagus-codex-stanford</text><g class="layers" style="opacity: 1;"><g class="legendfill"/><g class="legendlines"/><g class="legendsymbols"><g class="legendpoints"><path class="legendpie" d="M6,6H-6V-6H6Z" transform="translate(20,0)" style="fill: rgb(215, 239, 235); fill-opacity: 1; stroke-width: 2; stroke: rgb(255, 255, 255); stroke-opacity: 1;"/></g></g></g><rect class="legendtoggle" x="0" y="-9.5" width="242.09375" height="19" style="fill: rgb(0, 0, 0); fill-opacity: 0;"/></g><g class="traces" transform="translate(0,261.5)" style="opacity: 1;"><text class="legendtext" text-anchor="start" x="40" y="4.680000000000001" style="font-family: 'Open Sans', verdana, arial, sans-serif; font-size: 12px; fill: rgb(42, 63, 95); fill-opacity: 1; white-space: pre;">tonsil-codex-stanford</text><g class="layers" style="opacity: 1;"><g class="legendfill"/><g class="legendlines"/><g class="legendsymbols"><g class="legendpoints"><path class="legendpie" d="M6,6H-6V-6H6Z" transform="translate(20,0)" style="fill: rgb(255, 255, 255); fill-opacity: 1; stroke-width: 2; stroke: rgb(255, 255, 255); stroke-opacity: 1;"/></g></g></g><rect class="legendtoggle" x="0" y="-9.5" width="242.09375" height="19" style="fill: rgb(0, 0, 0); fill-opacity: 0;"/></g></g></g><rect class="scrollbar" rx="20" ry="3" width="0" height="0" style="fill: rgb(128, 139, 164); fill-opacity: 1;" x="0" y="0"/></g><g class="g-gtitle"><text class="gtitle" x="400" y="50" text-anchor="middle" dy="0em" style="opacity: 1; font-family: 'Open Sans', verdana, arial, sans-serif; font-size: 17px; fill: rgb(42, 63, 95); fill-opacity: 1; white-space: pre;">Distribution of Unique Datasets per Tissue Type</text></g><g class="annotation" data-index="0" style="opacity: 1;"><g class="annotation-text-g" transform="rotate(0,299,310)"><g class="cursor-pointer" transform="translate(266,279)"><rect class="bg" x="0.5" y="0.5" width="66" height="62" style="stroke-width: 1px; stroke: rgb(0, 0, 0); stroke-opacity: 0; fill: rgb(0, 0, 0); fill-opacity: 0;"/><text class="annotation-text" text-anchor="middle" x="33.5703125" y="16" style="font-family: 'Open Sans', verdana, arial, sans-serif; font-size: 16px; fill: rgb(0, 0, 0); fill-opacity: 1; white-space: pre;"><tspan class="line" dy="0em" x="33.5703125" y="16">Total</tspan><tspan class="line" dy="1.3em" x="33.5703125" y="16">399</tspan><tspan class="line" dy="2.6em" x="33.5703125" y="16">Datasets</tspan></text></g></g></g></g></svg>