<?xml version="1.0" encoding="utf-8" standalone="no"?>
<!DOCTYPE svg PUBLIC "-//W3C//DTD SVG 1.1//EN"
  "http://www.w3.org/Graphics/SVG/1.1/DTD/svg11.dtd">
<svg xmlns:xlink="http://www.w3.org/1999/xlink" width="1125.775625pt" height="621.37625pt" viewBox="0 0 1125.775625 621.37625" xmlns="http://www.w3.org/2000/svg" version="1.1">
 <metadata>
  <rdf:RDF xmlns:dc="http://purl.org/dc/elements/1.1/" xmlns:cc="http://creativecommons.org/ns#" xmlns:rdf="http://www.w3.org/1999/02/22-rdf-syntax-ns#">
   <cc:Work>
    <dc:type rdf:resource="http://purl.org/dc/dcmitype/StillImage"/>
    <dc:date>2025-07-25T12:43:34.690023</dc:date>
    <dc:format>image/svg+xml</dc:format>
    <dc:creator>
     <cc:Agent>
      <dc:title>Matplotlib v3.10.3, https://matplotlib.org/</dc:title>
     </cc:Agent>
    </dc:creator>
   </cc:Work>
  </rdf:RDF>
 </metadata>
 <defs>
  <style type="text/css">*{stroke-linejoin: round; stroke-linecap: butt}</style>
 </defs>
 <g id="figure_1">
  <g id="patch_1">
   <path d="M 0 621.37625 
L 1125.775625 621.37625 
L 1125.775625 0 
L 0 0 
z
" style="fill: #ffffff"/>
  </g>
  <g id="axes_1">
   <g id="patch_2">
    <path d="M 78.265625 457.368438 
L 1089.775625 457.368438 
L 1089.775625 49.998438 
L 78.265625 49.998438 
z
" style="fill: #ffffff"/>
   </g>
   <g id="matplotlib.axis_1">
    <g id="xtick_1">
     <g id="text_1">
      <text style="font-size: 10px; font-family: 'Arial', 'DejaVu Sans', 'Liberation Sans', 'Bitstream Vera Sans', sans-serif; fill: #262626" transform="translate(126.761437 531.527813) rotate(-90)">dendritic cell</text>
     </g>
    </g>
    <g id="xtick_2">
     <g id="text_2">
      <text style="font-size: 10px; font-family: 'Arial', 'DejaVu Sans', 'Liberation Sans', 'Bitstream Vera Sans', sans-serif; fill: #262626" transform="translate(227.912438 513.904375) rotate(-90)">fibroblast</text>
     </g>
    </g>
    <g id="xtick_3">
     <g id="text_3">
      <text style="font-size: 10px; font-family: 'Arial', 'DejaVu Sans', 'Liberation Sans', 'Bitstream Vera Sans', sans-serif; fill: #262626" transform="translate(329.063438 571.698125) rotate(-90)">gland epithelium cell</text>
     </g>
    </g>
    <g id="xtick_4">
     <g id="text_4">
      <text style="font-size: 10px; font-family: 'Arial', 'DejaVu Sans', 'Liberation Sans', 'Bitstream Vera Sans', sans-serif; fill: #262626" transform="translate(430.214438 529.555938) rotate(-90)">macrophage</text>
     </g>
    </g>
    <g id="xtick_5">
     <g id="text_5">
      <text style="font-size: 10px; font-family: 'Arial', 'DejaVu Sans', 'Liberation Sans', 'Bitstream Vera Sans', sans-serif; fill: #262626" transform="translate(531.365438 512.252813) rotate(-90)">mast cell</text>
     </g>
    </g>
    <g id="xtick_6">
     <g id="text_6">
      <text style="font-size: 10px; font-family: 'Arial', 'DejaVu Sans', 'Liberation Sans', 'Bitstream Vera Sans', sans-serif; fill: #262626" transform="translate(632.516438 522.971563) rotate(-90)">muscle cell</text>
     </g>
    </g>
    <g id="xtick_7">
     <g id="text_7">
      <text style="font-size: 10px; font-family: 'Arial', 'DejaVu Sans', 'Liberation Sans', 'Bitstream Vera Sans', sans-serif; fill: #262626" transform="translate(733.667438 550.562188) rotate(-90)">natural killer cell</text>
     </g>
    </g>
    <g id="xtick_8">
     <g id="text_8">
      <text style="font-size: 10px; font-family: 'Arial', 'DejaVu Sans', 'Liberation Sans', 'Bitstream Vera Sans', sans-serif; fill: #262626" transform="translate(834.818438 491.174688) rotate(-90)">t cell</text>
     </g>
    </g>
    <g id="xtick_9">
     <g id="text_9">
      <text style="font-size: 10px; font-family: 'Arial', 'DejaVu Sans', 'Liberation Sans', 'Bitstream Vera Sans', sans-serif; fill: #262626" transform="translate(935.969438 527.160625) rotate(-90)">trophoblast </text>
     </g>
    </g>
    <g id="xtick_10">
     <g id="text_10">
      <text style="font-size: 10px; font-family: 'Arial', 'DejaVu Sans', 'Liberation Sans', 'Bitstream Vera Sans', sans-serif; fill: #262626" transform="translate(1037.120437 532.691875) rotate(-90)">unknown cell</text>
     </g>
    </g>
    <g id="text_11">
     <text style="font-size: 10px; font-family: 'Arial', 'DejaVu Sans', 'Liberation Sans', 'Bitstream Vera Sans', sans-serif; text-anchor: middle; fill: #262626" x="584.020625" y="583.296563" transform="rotate(-0 584.020625 583.296563)">Level Two Cell Type</text>
    </g>
   </g>
   <g id="matplotlib.axis_2">
    <g id="ytick_1">
     <g id="line2d_1">
      <path d="M 78.265625 445.442788 
L 1089.775625 445.442788 
" clip-path="url(#p67f6531843)" style="fill: none; stroke: #cccccc; stroke-linecap: round"/>
     </g>
     <g id="text_12">
      <text style="font-size: 10px; font-family: 'Arial', 'DejaVu Sans', 'Liberation Sans', 'Bitstream Vera Sans', sans-serif; text-anchor: end; fill: #262626" x="68.765625" y="449.242006" transform="rotate(-0 68.765625 449.242006)">0</text>
     </g>
    </g>
    <g id="ytick_2">
     <g id="line2d_2">
      <path d="M 78.265625 398.325459 
L 1089.775625 398.325459 
" clip-path="url(#p67f6531843)" style="fill: none; stroke: #cccccc; stroke-linecap: round"/>
     </g>
     <g id="text_13">
      <text style="font-size: 10px; font-family: 'Arial', 'DejaVu Sans', 'Liberation Sans', 'Bitstream Vera Sans', sans-serif; text-anchor: end; fill: #262626" x="68.765625" y="402.124678" transform="rotate(-0 68.765625 402.124678)">25</text>
     </g>
    </g>
    <g id="ytick_3">
     <g id="line2d_3">
      <path d="M 78.265625 351.20813 
L 1089.775625 351.20813 
" clip-path="url(#p67f6531843)" style="fill: none; stroke: #cccccc; stroke-linecap: round"/>
     </g>
     <g id="text_14">
      <text style="font-size: 10px; font-family: 'Arial', 'DejaVu Sans', 'Liberation Sans', 'Bitstream Vera Sans', sans-serif; text-anchor: end; fill: #262626" x="68.765625" y="355.007349" transform="rotate(-0 68.765625 355.007349)">50</text>
     </g>
    </g>
    <g id="ytick_4">
     <g id="line2d_4">
      <path d="M 78.265625 304.090801 
L 1089.775625 304.090801 
" clip-path="url(#p67f6531843)" style="fill: none; stroke: #cccccc; stroke-linecap: round"/>
     </g>
     <g id="text_15">
      <text style="font-size: 10px; font-family: 'Arial', 'DejaVu Sans', 'Liberation Sans', 'Bitstream Vera Sans', sans-serif; text-anchor: end; fill: #262626" x="68.765625" y="307.89002" transform="rotate(-0 68.765625 307.89002)">75</text>
     </g>
    </g>
    <g id="ytick_5">
     <g id="line2d_5">
      <path d="M 78.265625 256.973472 
L 1089.775625 256.973472 
" clip-path="url(#p67f6531843)" style="fill: none; stroke: #cccccc; stroke-linecap: round"/>
     </g>
     <g id="text_16">
      <text style="font-size: 10px; font-family: 'Arial', 'DejaVu Sans', 'Liberation Sans', 'Bitstream Vera Sans', sans-serif; text-anchor: end; fill: #262626" x="68.765625" y="260.772691" transform="rotate(-0 68.765625 260.772691)">100</text>
     </g>
    </g>
    <g id="ytick_6">
     <g id="line2d_6">
      <path d="M 78.265625 209.856144 
L 1089.775625 209.856144 
" clip-path="url(#p67f6531843)" style="fill: none; stroke: #cccccc; stroke-linecap: round"/>
     </g>
     <g id="text_17">
      <text style="font-size: 10px; font-family: 'Arial', 'DejaVu Sans', 'Liberation Sans', 'Bitstream Vera Sans', sans-serif; text-anchor: end; fill: #262626" x="68.765625" y="213.655362" transform="rotate(-0 68.765625 213.655362)">125</text>
     </g>
    </g>
    <g id="ytick_7">
     <g id="line2d_7">
      <path d="M 78.265625 162.738815 
L 1089.775625 162.738815 
" clip-path="url(#p67f6531843)" style="fill: none; stroke: #cccccc; stroke-linecap: round"/>
     </g>
     <g id="text_18">
      <text style="font-size: 10px; font-family: 'Arial', 'DejaVu Sans', 'Liberation Sans', 'Bitstream Vera Sans', sans-serif; text-anchor: end; fill: #262626" x="68.765625" y="166.538033" transform="rotate(-0 68.765625 166.538033)">150</text>
     </g>
    </g>
    <g id="ytick_8">
     <g id="line2d_8">
      <path d="M 78.265625 115.621486 
L 1089.775625 115.621486 
" clip-path="url(#p67f6531843)" style="fill: none; stroke: #cccccc; stroke-linecap: round"/>
     </g>
     <g id="text_19">
      <text style="font-size: 10px; font-family: 'Arial', 'DejaVu Sans', 'Liberation Sans', 'Bitstream Vera Sans', sans-serif; text-anchor: end; fill: #262626" x="68.765625" y="119.420705" transform="rotate(-0 68.765625 119.420705)">175</text>
     </g>
    </g>
    <g id="ytick_9">
     <g id="line2d_9">
      <path d="M 78.265625 68.504157 
L 1089.775625 68.504157 
" clip-path="url(#p67f6531843)" style="fill: none; stroke: #cccccc; stroke-linecap: round"/>
     </g>
     <g id="text_20">
      <text style="font-size: 10px; font-family: 'Arial', 'DejaVu Sans', 'Liberation Sans', 'Bitstream Vera Sans', sans-serif; text-anchor: end; fill: #262626" x="68.765625" y="72.303376" transform="rotate(-0 68.765625 72.303376)">200</text>
     </g>
    </g>
    <g id="text_21">
     <text style="font-size: 10px; font-family: 'Arial', 'DejaVu Sans', 'Liberation Sans', 'Bitstream Vera Sans', sans-serif; text-anchor: middle; fill: #262626" x="43.598437" y="253.683438" transform="rotate(-90 43.598437 253.683438)">Distance (μm)</text>
    </g>
   </g>
   <g id="FillBetweenPolyCollection_1">
    <defs>
     <path id="m102e358474" d="M 128.987432 -185.541659 
L 128.694818 -185.541659 
L 128.665696 -189.245721 
L 128.636519 -192.949784 
L 128.608494 -196.653847 
L 128.582671 -200.357909 
L 128.559829 -204.061972 
L 128.540423 -207.766035 
L 128.524592 -211.470098 
L 128.512212 -215.17416 
L 128.502985 -218.878223 
L 128.496516 -222.582286 
L 128.492383 -226.286348 
L 128.490184 -229.990411 
L 128.489561 -233.694474 
L 128.490217 -237.398536 
L 128.491929 -241.102599 
L 128.494559 -244.806662 
L 128.498057 -248.510724 
L 128.502464 -252.214787 
L 128.507886 -255.91885 
L 128.514465 -259.622912 
L 128.522333 -263.326975 
L 128.531565 -267.031038 
L 128.542137 -270.735101 
L 128.553911 -274.439163 
L 128.566626 -278.143226 
L 128.579928 -281.847289 
L 128.59341 -285.551351 
L 128.60666 -289.255414 
L 128.619314 -292.959477 
L 128.631097 -296.663539 
L 128.641841 -300.367602 
L 128.651491 -304.071665 
L 128.660081 -307.775727 
L 128.66771 -311.47979 
L 128.674505 -315.183853 
L 128.680599 -318.887915 
L 128.686116 -322.591978 
L 128.691166 -326.296041 
L 128.695854 -330.000103 
L 128.700282 -333.704166 
L 128.704553 -337.408229 
L 128.708764 -341.112292 
L 128.712996 -344.816354 
L 128.717297 -348.520417 
L 128.72168 -352.22448 
L 128.726114 -355.928542 
L 128.730532 -359.632605 
L 128.734854 -363.336668 
L 128.739002 -367.04073 
L 128.742926 -370.744793 
L 128.746616 -374.448856 
L 128.750111 -378.152918 
L 128.753484 -381.856981 
L 128.756824 -385.561044 
L 128.760209 -389.265106 
L 128.763679 -392.969169 
L 128.767224 -396.673232 
L 128.770782 -400.377295 
L 128.774246 -404.081357 
L 128.777489 -407.78542 
L 128.78039 -411.489483 
L 128.782853 -415.193545 
L 128.784825 -418.897608 
L 128.786307 -422.601671 
L 128.787354 -426.305733 
L 128.788068 -430.009796 
L 128.788596 -433.713859 
L 128.789104 -437.417921 
L 128.789769 -441.121984 
L 128.790749 -444.826047 
L 128.792164 -448.530109 
L 128.794078 -452.234172 
L 128.796485 -455.938235 
L 128.799309 -459.642298 
L 128.802416 -463.34636 
L 128.805637 -467.050423 
L 128.808791 -470.754486 
L 128.811712 -474.458548 
L 128.814272 -478.162611 
L 128.816385 -481.866674 
L 128.818016 -485.570736 
L 128.819172 -489.274799 
L 128.819893 -492.978862 
L 128.820245 -496.682924 
L 128.820311 -500.386987 
L 128.820181 -504.09105 
L 128.819953 -507.795112 
L 128.819722 -511.499175 
L 128.819574 -515.203238 
L 128.819585 -518.907301 
L 128.819812 -522.611363 
L 128.820294 -526.315426 
L 128.821047 -530.019489 
L 128.822072 -533.723551 
L 128.823352 -537.427614 
L 128.824856 -541.131677 
L 128.826539 -544.835739 
L 128.828342 -548.539802 
L 128.8302 -552.243865 
L 128.85205 -552.243865 
L 128.85205 -552.243865 
L 128.853908 -548.539802 
L 128.855711 -544.835739 
L 128.857394 -541.131677 
L 128.858898 -537.427614 
L 128.860178 -533.723551 
L 128.861203 -530.019489 
L 128.861956 -526.315426 
L 128.862438 -522.611363 
L 128.862665 -518.907301 
L 128.862676 -515.203238 
L 128.862528 -511.499175 
L 128.862297 -507.795112 
L 128.862069 -504.09105 
L 128.861939 -500.386987 
L 128.862005 -496.682924 
L 128.862357 -492.978862 
L 128.863078 -489.274799 
L 128.864234 -485.570736 
L 128.865865 -481.866674 
L 128.867978 -478.162611 
L 128.870538 -474.458548 
L 128.873459 -470.754486 
L 128.876613 -467.050423 
L 128.879834 -463.34636 
L 128.882941 -459.642298 
L 128.885765 -455.938235 
L 128.888172 -452.234172 
L 128.890086 -448.530109 
L 128.891501 -444.826047 
L 128.892481 -441.121984 
L 128.893146 -437.417921 
L 128.893654 -433.713859 
L 128.894182 -430.009796 
L 128.894896 -426.305733 
L 128.895943 -422.601671 
L 128.897425 -418.897608 
L 128.899397 -415.193545 
L 128.90186 -411.489483 
L 128.904761 -407.78542 
L 128.908004 -404.081357 
L 128.911468 -400.377295 
L 128.915026 -396.673232 
L 128.918571 -392.969169 
L 128.922041 -389.265106 
L 128.925426 -385.561044 
L 128.928766 -381.856981 
L 128.932139 -378.152918 
L 128.935634 -374.448856 
L 128.939324 -370.744793 
L 128.943248 -367.04073 
L 128.947396 -363.336668 
L 128.951718 -359.632605 
L 128.956136 -355.928542 
L 128.96057 -352.22448 
L 128.964953 -348.520417 
L 128.969254 -344.816354 
L 128.973486 -341.112292 
L 128.977697 -337.408229 
L 128.981968 -333.704166 
L 128.986396 -330.000103 
L 128.991084 -326.296041 
L 128.996134 -322.591978 
L 129.001651 -318.887915 
L 129.007745 -315.183853 
L 129.01454 -311.47979 
L 129.022169 -307.775727 
L 129.030759 -304.071665 
L 129.040409 -300.367602 
L 129.051153 -296.663539 
L 129.062936 -292.959477 
L 129.07559 -289.255414 
L 129.08884 -285.551351 
L 129.102322 -281.847289 
L 129.115624 -278.143226 
L 129.128339 -274.439163 
L 129.140113 -270.735101 
L 129.150685 -267.031038 
L 129.159917 -263.326975 
L 129.167785 -259.622912 
L 129.174364 -255.91885 
L 129.179786 -252.214787 
L 129.184193 -248.510724 
L 129.187691 -244.806662 
L 129.190321 -241.102599 
L 129.192033 -237.398536 
L 129.192689 -233.694474 
L 129.192066 -229.990411 
L 129.189867 -226.286348 
L 129.185734 -222.582286 
L 129.179265 -218.878223 
L 129.170038 -215.17416 
L 129.157658 -211.470098 
L 129.141827 -207.766035 
L 129.122421 -204.061972 
L 129.099579 -200.357909 
L 129.073756 -196.653847 
L 129.045731 -192.949784 
L 129.016554 -189.245721 
L 128.987432 -185.541659 
z
" style="stroke: #484848; stroke-opacity: 0.9; stroke-width: 1.25"/>
    </defs>
    <g clip-path="url(#p67f6531843)">
     <use xlink:href="#m102e358474" x="0" y="621.37625" style="fill: #bd4b5b; fill-opacity: 0.9; stroke: #484848; stroke-opacity: 0.9; stroke-width: 1.25"/>
    </g>
   </g>
   <g id="FillBetweenPolyCollection_2">
    <defs>
     <path id="m1d76a0ec08" d="M 237.931918 -183.302613 
L 222.052332 -183.302613 
L 215.571688 -187.035409 
L 207.783195 -190.768206 
L 200.362503 -194.501002 
L 194.8004 -198.233799 
L 191.567399 -201.966595 
L 190.147444 -205.699392 
L 189.695629 -209.432188 
L 189.590244 -213.164985 
L 189.55418 -216.897781 
L 189.531725 -220.630578 
L 189.561275 -224.363374 
L 189.698311 -228.096171 
L 189.964001 -231.828967 
L 190.32904 -235.561764 
L 190.7434 -239.29456 
L 191.178586 -243.027357 
L 191.639948 -246.760153 
L 192.145742 -250.49295 
L 192.702855 -254.225747 
L 193.300663 -257.958543 
L 193.918762 -261.69134 
L 194.539503 -265.424136 
L 195.159898 -269.156933 
L 195.790589 -272.889729 
L 196.436654 -276.622526 
L 197.083535 -280.355322 
L 197.714022 -284.088119 
L 198.337375 -287.820915 
L 198.986264 -291.553712 
L 199.68199 -295.286508 
L 200.414 -299.019305 
L 201.156082 -302.752101 
L 201.894227 -306.484898 
L 202.633889 -310.217694 
L 203.383873 -313.950491 
L 204.142545 -317.683287 
L 204.90454 -321.416084 
L 205.669479 -325.14888 
L 206.431237 -328.881677 
L 207.168495 -332.614474 
L 207.861494 -336.34727 
L 208.510686 -340.080067 
L 209.125433 -343.812863 
L 209.701183 -347.54566 
L 210.22343 -351.278456 
L 210.698202 -355.011253 
L 211.16934 -358.744049 
L 211.691888 -362.476846 
L 212.282584 -366.209642 
L 212.901845 -369.942439 
L 213.487316 -373.675235 
L 214.002615 -377.408032 
L 214.459048 -381.140828 
L 214.900617 -384.873625 
L 215.367217 -388.606421 
L 215.863183 -392.339218 
L 216.357355 -396.072014 
L 216.81411 -399.804811 
L 217.224009 -403.537607 
L 217.60696 -407.270404 
L 217.991565 -411.003201 
L 218.391498 -414.735997 
L 218.795475 -418.468794 
L 219.176772 -422.20159 
L 219.514517 -425.934387 
L 219.808873 -429.667183 
L 220.079222 -433.39998 
L 220.349809 -437.132776 
L 220.633854 -440.865573 
L 220.927311 -444.598369 
L 221.217618 -448.331166 
L 221.496703 -452.063962 
L 221.762683 -455.796759 
L 222.014028 -459.529555 
L 222.250446 -463.262352 
L 222.479254 -466.995148 
L 222.715723 -470.727945 
L 222.975822 -474.460741 
L 223.26648 -478.193538 
L 223.576584 -481.926334 
L 223.876678 -485.659131 
L 224.135205 -489.391928 
L 224.341383 -493.124724 
L 224.512509 -496.857521 
L 224.677021 -500.590317 
L 224.849613 -504.323114 
L 225.023973 -508.05591 
L 225.189098 -511.788707 
L 225.346626 -515.521503 
L 225.507318 -519.2543 
L 225.674514 -522.987096 
L 225.837895 -526.719893 
L 225.983669 -530.452689 
L 226.109965 -534.185486 
L 226.242228 -537.918282 
L 226.445652 -541.651079 
L 226.810566 -545.383875 
L 227.388561 -549.116672 
L 228.120814 -552.849468 
L 231.863436 -552.849468 
L 231.863436 -552.849468 
L 232.595689 -549.116672 
L 233.173684 -545.383875 
L 233.538598 -541.651079 
L 233.742022 -537.918282 
L 233.874285 -534.185486 
L 234.000581 -530.452689 
L 234.146355 -526.719893 
L 234.309736 -522.987096 
L 234.476932 -519.2543 
L 234.637624 -515.521503 
L 234.795152 -511.788707 
L 234.960277 -508.05591 
L 235.134637 -504.323114 
L 235.307229 -500.590317 
L 235.471741 -496.857521 
L 235.642867 -493.124724 
L 235.849045 -489.391928 
L 236.107572 -485.659131 
L 236.407666 -481.926334 
L 236.71777 -478.193538 
L 237.008428 -474.460741 
L 237.268527 -470.727945 
L 237.504996 -466.995148 
L 237.733804 -463.262352 
L 237.970222 -459.529555 
L 238.221567 -455.796759 
L 238.487547 -452.063962 
L 238.766632 -448.331166 
L 239.056939 -444.598369 
L 239.350396 -440.865573 
L 239.634441 -437.132776 
L 239.905028 -433.39998 
L 240.175377 -429.667183 
L 240.469733 -425.934387 
L 240.807478 -422.20159 
L 241.188775 -418.468794 
L 241.592752 -414.735997 
L 241.992685 -411.003201 
L 242.37729 -407.270404 
L 242.760241 -403.537607 
L 243.17014 -399.804811 
L 243.626895 -396.072014 
L 244.121067 -392.339218 
L 244.617033 -388.606421 
L 245.083633 -384.873625 
L 245.525202 -381.140828 
L 245.981635 -377.408032 
L 246.496934 -373.675235 
L 247.082405 -369.942439 
L 247.701666 -366.209642 
L 248.292362 -362.476846 
L 248.81491 -358.744049 
L 249.286048 -355.011253 
L 249.76082 -351.278456 
L 250.283067 -347.54566 
L 250.858817 -343.812863 
L 251.473564 -340.080067 
L 252.122756 -336.34727 
L 252.815755 -332.614474 
L 253.553013 -328.881677 
L 254.314771 -325.14888 
L 255.07971 -321.416084 
L 255.841705 -317.683287 
L 256.600377 -313.950491 
L 257.350361 -310.217694 
L 258.090023 -306.484898 
L 258.828168 -302.752101 
L 259.57025 -299.019305 
L 260.30226 -295.286508 
L 260.997986 -291.553712 
L 261.646875 -287.820915 
L 262.270228 -284.088119 
L 262.900715 -280.355322 
L 263.547596 -276.622526 
L 264.193661 -272.889729 
L 264.824352 -269.156933 
L 265.444747 -265.424136 
L 266.065488 -261.69134 
L 266.683587 -257.958543 
L 267.281395 -254.225747 
L 267.838508 -250.49295 
L 268.344302 -246.760153 
L 268.805664 -243.027357 
L 269.24085 -239.29456 
L 269.65521 -235.561764 
L 270.020249 -231.828967 
L 270.285939 -228.096171 
L 270.422975 -224.363374 
L 270.452525 -220.630578 
L 270.43007 -216.897781 
L 270.394006 -213.164985 
L 270.288621 -209.432188 
L 269.836806 -205.699392 
L 268.416851 -201.966595 
L 265.18385 -198.233799 
L 259.621747 -194.501002 
L 252.201055 -190.768206 
L 244.412562 -187.035409 
L 237.931918 -183.302613 
z
" style="stroke: #484848; stroke-opacity: 0.9; stroke-width: 1.25"/>
    </defs>
    <g clip-path="url(#p67f6531843)">
     <use xlink:href="#m1d76a0ec08" x="0" y="621.37625" style="fill: #d9715a; fill-opacity: 0.9; stroke: #484848; stroke-opacity: 0.9; stroke-width: 1.25"/>
    </g>
   </g>
   <g id="FillBetweenPolyCollection_3">
    <defs>
     <path id="m3316bca33e" d="M 332.061013 -187.206095 
L 330.225237 -187.206095 
L 329.770577 -190.897504 
L 329.274392 -194.588914 
L 328.796207 -198.280323 
L 328.385482 -201.971733 
L 328.068264 -205.663142 
L 327.847474 -209.354552 
L 327.711623 -213.045961 
L 327.643908 -216.737371 
L 327.627881 -220.42878 
L 327.65005 -224.12019 
L 327.700456 -227.811599 
L 327.771689 -231.503009 
L 327.857118 -235.194418 
L 327.9497 -238.885828 
L 328.042304 -242.577237 
L 328.129351 -246.268647 
L 328.208618 -249.960056 
L 328.281773 -253.651466 
L 328.352825 -257.342875 
L 328.425249 -261.034285 
L 328.500011 -264.725694 
L 328.576233 -268.417104 
L 328.65372 -272.108514 
L 328.734628 -275.799923 
L 328.822463 -279.491333 
L 328.91936 -283.182742 
L 329.024083 -286.874152 
L 329.132415 -290.565561 
L 329.239675 -294.256971 
L 329.343489 -297.94838 
L 329.444554 -301.63979 
L 329.544691 -305.331199 
L 329.643963 -309.022609 
L 329.739605 -312.714018 
L 329.827733 -316.405428 
L 329.906148 -320.096837 
L 329.975712 -323.788247 
L 330.039371 -327.479656 
L 330.099964 -331.171066 
L 330.15862 -334.862475 
L 330.214609 -338.553885 
L 330.266348 -342.245294 
L 330.312776 -345.936704 
L 330.354225 -349.628113 
L 330.392215 -353.319523 
L 330.428442 -357.010932 
L 330.464039 -360.702342 
L 330.499761 -364.393752 
L 330.536413 -368.085161 
L 330.574453 -371.776571 
L 330.612989 -375.46798 
L 330.649606 -379.15939 
L 330.681721 -382.850799 
L 330.708317 -386.542209 
L 330.730357 -390.233618 
L 330.74961 -393.925028 
L 330.767312 -397.616437 
L 330.783885 -401.307847 
L 330.799501 -404.999256 
L 330.814509 -408.690666 
L 330.829307 -412.382075 
L 330.844109 -416.073485 
L 330.858993 -419.764894 
L 330.873992 -423.456304 
L 330.888905 -427.147713 
L 330.903063 -430.839123 
L 330.915488 -434.530532 
L 330.925386 -438.221942 
L 330.932507 -441.913351 
L 330.93711 -445.604761 
L 330.939787 -449.29617 
L 330.941461 -452.98758 
L 330.943469 -456.67899 
L 330.947409 -460.370399 
L 330.954563 -464.061809 
L 330.965239 -467.753218 
L 330.978564 -471.444628 
L 330.992937 -475.136037 
L 331.006756 -478.827447 
L 331.018901 -482.518856 
L 331.028836 -486.210266 
L 331.036539 -489.901675 
L 331.042433 -493.593085 
L 331.047207 -497.284494 
L 331.051502 -500.975904 
L 331.055636 -504.667313 
L 331.05964 -508.358723 
L 331.063573 -512.050132 
L 331.067784 -515.741542 
L 331.072809 -519.432951 
L 331.078943 -523.124361 
L 331.085882 -526.81577 
L 331.092799 -530.50718 
L 331.098846 -534.198589 
L 331.103718 -537.889999 
L 331.107859 -541.581408 
L 331.112137 -545.272818 
L 331.117222 -548.964227 
L 331.123109 -552.655637 
L 331.163141 -552.655637 
L 331.163141 -552.655637 
L 331.169028 -548.964227 
L 331.174113 -545.272818 
L 331.178391 -541.581408 
L 331.182532 -537.889999 
L 331.187404 -534.198589 
L 331.193451 -530.50718 
L 331.200368 -526.81577 
L 331.207307 -523.124361 
L 331.213441 -519.432951 
L 331.218466 -515.741542 
L 331.222677 -512.050132 
L 331.22661 -508.358723 
L 331.230614 -504.667313 
L 331.234748 -500.975904 
L 331.239043 -497.284494 
L 331.243817 -493.593085 
L 331.249711 -489.901675 
L 331.257414 -486.210266 
L 331.267349 -482.518856 
L 331.279494 -478.827447 
L 331.293313 -475.136037 
L 331.307686 -471.444628 
L 331.321011 -467.753218 
L 331.331687 -464.061809 
L 331.338841 -460.370399 
L 331.342781 -456.67899 
L 331.344789 -452.98758 
L 331.346463 -449.29617 
L 331.34914 -445.604761 
L 331.353743 -441.913351 
L 331.360864 -438.221942 
L 331.370762 -434.530532 
L 331.383187 -430.839123 
L 331.397345 -427.147713 
L 331.412258 -423.456304 
L 331.427257 -419.764894 
L 331.442141 -416.073485 
L 331.456943 -412.382075 
L 331.471741 -408.690666 
L 331.486749 -404.999256 
L 331.502365 -401.307847 
L 331.518938 -397.616437 
L 331.53664 -393.925028 
L 331.555893 -390.233618 
L 331.577933 -386.542209 
L 331.604529 -382.850799 
L 331.636644 -379.15939 
L 331.673261 -375.46798 
L 331.711797 -371.776571 
L 331.749837 -368.085161 
L 331.786489 -364.393752 
L 331.822211 -360.702342 
L 331.857808 -357.010932 
L 331.894035 -353.319523 
L 331.932025 -349.628113 
L 331.973474 -345.936704 
L 332.019902 -342.245294 
L 332.071641 -338.553885 
L 332.12763 -334.862475 
L 332.186286 -331.171066 
L 332.246879 -327.479656 
L 332.310538 -323.788247 
L 332.380102 -320.096837 
L 332.458517 -316.405428 
L 332.546645 -312.714018 
L 332.642287 -309.022609 
L 332.741559 -305.331199 
L 332.841696 -301.63979 
L 332.942761 -297.94838 
L 333.046575 -294.256971 
L 333.153835 -290.565561 
L 333.262167 -286.874152 
L 333.36689 -283.182742 
L 333.463787 -279.491333 
L 333.551622 -275.799923 
L 333.63253 -272.108514 
L 333.710017 -268.417104 
L 333.786239 -264.725694 
L 333.861001 -261.034285 
L 333.933425 -257.342875 
L 334.004477 -253.651466 
L 334.077632 -249.960056 
L 334.156899 -246.268647 
L 334.243946 -242.577237 
L 334.33655 -238.885828 
L 334.429132 -235.194418 
L 334.514561 -231.503009 
L 334.585794 -227.811599 
L 334.6362 -224.12019 
L 334.658369 -220.42878 
L 334.642342 -216.737371 
L 334.574627 -213.045961 
L 334.438776 -209.354552 
L 334.217986 -205.663142 
L 333.900768 -201.971733 
L 333.490043 -198.280323 
L 333.011858 -194.588914 
L 332.515673 -190.897504 
L 332.061013 -187.206095 
z
" style="stroke: #484848; stroke-opacity: 0.9; stroke-width: 1.25"/>
    </defs>
    <g clip-path="url(#p67f6531843)">
     <use xlink:href="#m3316bca33e" x="0" y="621.37625" style="fill: #e69e6c; fill-opacity: 0.9; stroke: #484848; stroke-opacity: 0.9; stroke-width: 1.25"/>
    </g>
   </g>
   <g id="FillBetweenPolyCollection_4">
    <defs>
     <path id="mfe597b843b" d="M 434.35949 -182.727483 
L 430.22876 -182.727483 
L 428.95883 -186.466169 
L 427.43345 -190.204855 
L 425.827367 -193.943541 
L 424.331442 -197.682227 
L 423.080962 -201.420913 
L 422.123152 -205.159599 
L 421.433221 -208.898285 
L 420.952749 -212.636971 
L 420.621119 -216.375657 
L 420.390535 -220.114343 
L 420.229463 -223.853029 
L 420.11913 -227.591715 
L 420.045336 -231.330401 
L 419.990929 -235.069087 
L 419.936292 -238.807772 
L 419.868687 -242.546458 
L 419.791705 -246.285144 
L 419.724838 -250.02383 
L 419.692554 -253.762516 
L 419.711874 -257.501202 
L 419.787218 -261.239888 
L 419.913115 -264.978574 
L 420.079225 -268.71726 
L 420.273229 -272.455946 
L 420.482171 -276.194632 
L 420.694981 -279.933318 
L 420.906438 -283.672004 
L 421.119456 -287.41069 
L 421.342523 -291.149376 
L 421.582854 -294.888062 
L 421.840076 -298.626748 
L 422.10585 -302.365434 
L 422.369845 -306.10412 
L 422.6263 -309.842806 
L 422.875267 -313.581492 
L 423.118979 -317.320177 
L 423.35873 -321.058863 
L 423.595502 -324.797549 
L 423.832012 -328.536235 
L 424.072038 -332.274921 
L 424.316582 -336.013607 
L 424.560571 -339.752293 
L 424.793688 -343.490979 
L 425.005099 -347.229665 
L 425.188902 -350.968351 
L 425.347228 -354.707037 
L 425.489726 -358.445723 
L 425.629806 -362.184409 
L 425.779297 -365.923095 
L 425.944132 -369.661781 
L 426.123236 -373.400467 
L 426.310745 -377.139153 
L 426.499475 -380.877839 
L 426.683352 -384.616525 
L 426.858251 -388.355211 
L 427.022243 -392.093897 
L 427.176066 -395.832582 
L 427.323201 -399.571268 
L 427.46848 -403.309954 
L 427.615396 -407.04864 
L 427.764054 -410.787326 
L 427.911578 -414.526012 
L 428.054437 -418.264698 
L 428.190316 -422.003384 
L 428.318098 -425.74207 
L 428.437068 -429.480756 
L 428.547154 -433.219442 
L 428.650087 -436.958128 
L 428.749647 -440.696814 
L 428.850146 -444.4355 
L 428.954704 -448.174186 
L 429.064947 -451.912872 
L 429.181321 -455.651558 
L 429.302374 -459.390244 
L 429.423568 -463.12893 
L 429.538119 -466.867616 
L 429.640606 -470.606302 
L 429.730624 -474.344988 
L 429.813011 -478.083673 
L 429.894139 -481.822359 
L 429.977397 -485.561045 
L 430.0616 -489.299731 
L 430.143144 -493.038417 
L 430.219463 -496.777103 
L 430.29082 -500.515789 
L 430.359422 -504.254475 
L 430.427121 -507.993161 
L 430.493776 -511.731847 
L 430.557664 -515.470533 
L 430.617588 -519.209219 
L 430.674889 -522.947905 
L 430.733798 -526.686591 
L 430.80035 -530.425277 
L 430.881265 -534.163963 
L 430.983633 -537.902649 
L 431.114362 -541.641335 
L 431.277485 -545.380021 
L 431.469285 -549.118707 
L 431.674868 -552.857393 
L 432.913382 -552.857393 
L 432.913382 -552.857393 
L 433.118965 -549.118707 
L 433.310765 -545.380021 
L 433.473888 -541.641335 
L 433.604617 -537.902649 
L 433.706985 -534.163963 
L 433.7879 -530.425277 
L 433.854452 -526.686591 
L 433.913361 -522.947905 
L 433.970662 -519.209219 
L 434.030586 -515.470533 
L 434.094474 -511.731847 
L 434.161129 -507.993161 
L 434.228828 -504.254475 
L 434.29743 -500.515789 
L 434.368787 -496.777103 
L 434.445106 -493.038417 
L 434.52665 -489.299731 
L 434.610853 -485.561045 
L 434.694111 -481.822359 
L 434.775239 -478.083673 
L 434.857626 -474.344988 
L 434.947644 -470.606302 
L 435.050131 -466.867616 
L 435.164682 -463.12893 
L 435.285876 -459.390244 
L 435.406929 -455.651558 
L 435.523303 -451.912872 
L 435.633546 -448.174186 
L 435.738104 -444.4355 
L 435.838603 -440.696814 
L 435.938163 -436.958128 
L 436.041096 -433.219442 
L 436.151182 -429.480756 
L 436.270152 -425.74207 
L 436.397934 -422.003384 
L 436.533813 -418.264698 
L 436.676672 -414.526012 
L 436.824196 -410.787326 
L 436.972854 -407.04864 
L 437.11977 -403.309954 
L 437.265049 -399.571268 
L 437.412184 -395.832582 
L 437.566007 -392.093897 
L 437.729999 -388.355211 
L 437.904898 -384.616525 
L 438.088775 -380.877839 
L 438.277505 -377.139153 
L 438.465014 -373.400467 
L 438.644118 -369.661781 
L 438.808953 -365.923095 
L 438.958444 -362.184409 
L 439.098524 -358.445723 
L 439.241022 -354.707037 
L 439.399348 -350.968351 
L 439.583151 -347.229665 
L 439.794562 -343.490979 
L 440.027679 -339.752293 
L 440.271668 -336.013607 
L 440.516212 -332.274921 
L 440.756238 -328.536235 
L 440.992748 -324.797549 
L 441.22952 -321.058863 
L 441.469271 -317.320177 
L 441.712983 -313.581492 
L 441.96195 -309.842806 
L 442.218405 -306.10412 
L 442.4824 -302.365434 
L 442.748174 -298.626748 
L 443.005396 -294.888062 
L 443.245727 -291.149376 
L 443.468794 -287.41069 
L 443.681812 -283.672004 
L 443.893269 -279.933318 
L 444.106079 -276.194632 
L 444.315021 -272.455946 
L 444.509025 -268.71726 
L 444.675135 -264.978574 
L 444.801032 -261.239888 
L 444.876376 -257.501202 
L 444.895696 -253.762516 
L 444.863412 -250.02383 
L 444.796545 -246.285144 
L 444.719563 -242.546458 
L 444.651958 -238.807772 
L 444.597321 -235.069087 
L 444.542914 -231.330401 
L 444.46912 -227.591715 
L 444.358787 -223.853029 
L 444.197715 -220.114343 
L 443.967131 -216.375657 
L 443.635501 -212.636971 
L 443.155029 -208.898285 
L 442.465098 -205.159599 
L 441.507288 -201.420913 
L 440.256808 -197.682227 
L 438.760883 -193.943541 
L 437.1548 -190.204855 
L 435.62942 -186.466169 
L 434.35949 -182.727483 
z
" style="stroke: #484848; stroke-opacity: 0.9; stroke-width: 1.25"/>
    </defs>
    <g clip-path="url(#p67f6531843)">
     <use xlink:href="#mfe597b843b" x="0" y="621.37625" style="fill: #edca8c; fill-opacity: 0.9; stroke: #484848; stroke-opacity: 0.9; stroke-width: 1.25"/>
    </g>
   </g>
   <g id="FillBetweenPolyCollection_5">
    <defs>
     <path id="md8928a56e0" d="M 533.498969 -188.086976 
L 533.391281 -188.086976 
L 533.382501 -191.685485 
L 533.373544 -195.283995 
L 533.364647 -198.882504 
L 533.356044 -202.481013 
L 533.347955 -206.079522 
L 533.340566 -209.678031 
L 533.334019 -213.276541 
L 533.328406 -216.87505 
L 533.323768 -220.473559 
L 533.320094 -224.072068 
L 533.317335 -227.670577 
L 533.315408 -231.269087 
L 533.314211 -234.867596 
L 533.313633 -238.466105 
L 533.313564 -242.064614 
L 533.313903 -245.663123 
L 533.314564 -249.261632 
L 533.315477 -252.860142 
L 533.31659 -256.458651 
L 533.31787 -260.05716 
L 533.319299 -263.655669 
L 533.320872 -267.254178 
L 533.322594 -270.852688 
L 533.324476 -274.451197 
L 533.326533 -278.049706 
L 533.328775 -281.648215 
L 533.33121 -285.246724 
L 533.333834 -288.845234 
L 533.336637 -292.443743 
L 533.339594 -296.042252 
L 533.342676 -299.640761 
L 533.345845 -303.23927 
L 533.349061 -306.83778 
L 533.352287 -310.436289 
L 533.35549 -314.034798 
L 533.358645 -317.633307 
L 533.361736 -321.231816 
L 533.364758 -324.830325 
L 533.367712 -328.428835 
L 533.370606 -332.027344 
L 533.373452 -335.625853 
L 533.376264 -339.224362 
L 533.379054 -342.822871 
L 533.381831 -346.421381 
L 533.384601 -350.01989 
L 533.387362 -353.618399 
L 533.390105 -357.216908 
L 533.392814 -360.815417 
L 533.395464 -364.413927 
L 533.398024 -368.012436 
L 533.400459 -371.610945 
L 533.40273 -375.209454 
L 533.404804 -378.807963 
L 533.406655 -382.406473 
L 533.408271 -386.004982 
L 533.409654 -389.603491 
L 533.410824 -393.202 
L 533.411817 -396.800509 
L 533.412678 -400.399018 
L 533.413461 -403.997528 
L 533.414218 -407.596037 
L 533.414995 -411.194546 
L 533.415827 -414.793055 
L 533.416733 -418.391564 
L 533.417716 -421.990074 
L 533.418765 -425.588583 
L 533.419854 -429.187092 
L 533.420953 -432.785601 
L 533.422025 -436.38411 
L 533.423035 -439.98262 
L 533.423956 -443.581129 
L 533.424767 -447.179638 
L 533.42546 -450.778147 
L 533.426038 -454.376656 
L 533.426515 -457.975166 
L 533.426917 -461.573675 
L 533.427275 -465.172184 
L 533.427622 -468.770693 
L 533.427991 -472.369202 
L 533.428411 -475.967711 
L 533.4289 -479.566221 
L 533.429465 -483.16473 
L 533.430103 -486.763239 
L 533.430796 -490.361748 
L 533.431523 -493.960257 
L 533.432255 -497.558767 
L 533.432965 -501.157276 
L 533.433631 -504.755785 
L 533.434239 -508.354294 
L 533.434787 -511.952803 
L 533.435281 -515.551313 
L 533.435736 -519.149822 
L 533.436176 -522.748331 
L 533.436621 -526.34684 
L 533.437095 -529.945349 
L 533.437612 -533.543859 
L 533.438181 -537.142368 
L 533.438799 -540.740877 
L 533.439458 -544.339386 
L 533.450792 -544.339386 
L 533.450792 -544.339386 
L 533.451451 -540.740877 
L 533.452069 -537.142368 
L 533.452638 -533.543859 
L 533.453155 -529.945349 
L 533.453629 -526.34684 
L 533.454074 -522.748331 
L 533.454514 -519.149822 
L 533.454969 -515.551313 
L 533.455463 -511.952803 
L 533.456011 -508.354294 
L 533.456619 -504.755785 
L 533.457285 -501.157276 
L 533.457995 -497.558767 
L 533.458727 -493.960257 
L 533.459454 -490.361748 
L 533.460147 -486.763239 
L 533.460785 -483.16473 
L 533.46135 -479.566221 
L 533.461839 -475.967711 
L 533.462259 -472.369202 
L 533.462628 -468.770693 
L 533.462975 -465.172184 
L 533.463333 -461.573675 
L 533.463735 -457.975166 
L 533.464212 -454.376656 
L 533.46479 -450.778147 
L 533.465483 -447.179638 
L 533.466294 -443.581129 
L 533.467215 -439.98262 
L 533.468225 -436.38411 
L 533.469297 -432.785601 
L 533.470396 -429.187092 
L 533.471485 -425.588583 
L 533.472534 -421.990074 
L 533.473517 -418.391564 
L 533.474423 -414.793055 
L 533.475255 -411.194546 
L 533.476032 -407.596037 
L 533.476789 -403.997528 
L 533.477572 -400.399018 
L 533.478433 -396.800509 
L 533.479426 -393.202 
L 533.480596 -389.603491 
L 533.481979 -386.004982 
L 533.483595 -382.406473 
L 533.485446 -378.807963 
L 533.48752 -375.209454 
L 533.489791 -371.610945 
L 533.492226 -368.012436 
L 533.494786 -364.413927 
L 533.497436 -360.815417 
L 533.500145 -357.216908 
L 533.502888 -353.618399 
L 533.505649 -350.01989 
L 533.508419 -346.421381 
L 533.511196 -342.822871 
L 533.513986 -339.224362 
L 533.516798 -335.625853 
L 533.519644 -332.027344 
L 533.522538 -328.428835 
L 533.525492 -324.830325 
L 533.528514 -321.231816 
L 533.531605 -317.633307 
L 533.53476 -314.034798 
L 533.537963 -310.436289 
L 533.541189 -306.83778 
L 533.544405 -303.23927 
L 533.547574 -299.640761 
L 533.550656 -296.042252 
L 533.553613 -292.443743 
L 533.556416 -288.845234 
L 533.55904 -285.246724 
L 533.561475 -281.648215 
L 533.563717 -278.049706 
L 533.565774 -274.451197 
L 533.567656 -270.852688 
L 533.569378 -267.254178 
L 533.570951 -263.655669 
L 533.57238 -260.05716 
L 533.57366 -256.458651 
L 533.574773 -252.860142 
L 533.575686 -249.261632 
L 533.576347 -245.663123 
L 533.576686 -242.064614 
L 533.576617 -238.466105 
L 533.576039 -234.867596 
L 533.574842 -231.269087 
L 533.572915 -227.670577 
L 533.570156 -224.072068 
L 533.566482 -220.473559 
L 533.561844 -216.87505 
L 533.556231 -213.276541 
L 533.549684 -209.678031 
L 533.542295 -206.079522 
L 533.534206 -202.481013 
L 533.525603 -198.882504 
L 533.516706 -195.283995 
L 533.507749 -191.685485 
L 533.498969 -188.086976 
z
" style="stroke: #484848; stroke-opacity: 0.9; stroke-width: 1.25"/>
    </defs>
    <g clip-path="url(#p67f6531843)">
     <use xlink:href="#md8928a56e0" x="0" y="621.37625" style="fill: #f4eab2; fill-opacity: 0.9; stroke: #484848; stroke-opacity: 0.9; stroke-width: 1.25"/>
    </g>
   </g>
   <g id="FillBetweenPolyCollection_6">
    <defs>
     <path id="m18afdde155" d="M 634.849203 -186.276558 
L 634.343047 -186.276558 
L 634.271548 -189.935512 
L 634.198872 -193.594467 
L 634.130603 -197.253421 
L 634.071892 -200.912376 
L 634.026578 -204.571331 
L 633.996676 -208.230285 
L 633.982313 -211.88924 
L 633.98204 -215.548194 
L 633.993349 -219.207149 
L 634.013236 -222.866104 
L 634.038706 -226.525058 
L 634.067156 -230.184013 
L 634.096608 -233.842967 
L 634.125784 -237.501922 
L 634.154021 -241.160877 
L 634.181076 -244.819831 
L 634.206892 -248.478786 
L 634.231414 -252.13774 
L 634.254504 -255.796695 
L 634.27596 -259.45565 
L 634.29561 -263.114604 
L 634.313396 -266.773559 
L 634.329419 -270.432513 
L 634.343911 -274.091468 
L 634.357152 -277.750423 
L 634.369386 -281.409377 
L 634.380756 -285.068332 
L 634.391292 -288.727286 
L 634.400945 -292.386241 
L 634.409665 -296.045196 
L 634.417479 -299.70415 
L 634.424541 -303.363105 
L 634.431128 -307.022059 
L 634.437573 -310.681014 
L 634.444165 -314.339969 
L 634.451047 -317.998923 
L 634.458175 -321.657878 
L 634.465354 -325.316832 
L 634.472334 -328.975787 
L 634.47892 -332.634742 
L 634.485034 -336.293696 
L 634.490717 -339.952651 
L 634.496068 -343.611605 
L 634.501164 -347.27056 
L 634.506019 -350.929515 
L 634.510577 -354.588469 
L 634.514763 -358.247424 
L 634.518531 -361.906378 
L 634.5219 -365.565333 
L 634.52495 -369.224288 
L 634.527778 -372.883242 
L 634.530458 -376.542197 
L 634.533014 -380.201151 
L 634.535426 -383.860106 
L 634.537661 -387.519061 
L 634.539703 -391.178015 
L 634.541575 -394.83697 
L 634.543333 -398.495924 
L 634.545041 -402.154879 
L 634.54675 -405.813834 
L 634.54848 -409.472788 
L 634.550223 -413.131743 
L 634.551953 -416.790697 
L 634.553644 -420.449652 
L 634.555282 -424.108607 
L 634.556876 -427.767561 
L 634.558456 -431.426516 
L 634.560063 -435.08547 
L 634.561733 -438.744425 
L 634.563475 -442.40338 
L 634.565254 -446.062334 
L 634.566986 -449.721289 
L 634.568557 -453.380243 
L 634.569857 -457.039198 
L 634.570815 -460.698153 
L 634.571432 -464.357107 
L 634.571781 -468.016062 
L 634.571997 -471.675016 
L 634.572238 -475.333971 
L 634.572648 -478.992926 
L 634.573328 -482.65188 
L 634.574317 -486.310835 
L 634.575593 -489.969789 
L 634.577087 -493.628744 
L 634.578708 -497.287699 
L 634.580367 -500.946653 
L 634.581996 -504.605608 
L 634.583556 -508.264562 
L 634.585028 -511.923517 
L 634.586403 -515.582472 
L 634.58767 -519.241426 
L 634.58881 -522.900381 
L 634.589802 -526.559335 
L 634.590633 -530.21829 
L 634.591309 -533.877245 
L 634.591861 -537.536199 
L 634.592336 -541.195154 
L 634.592785 -544.854108 
L 634.593243 -548.513063 
L 634.599007 -548.513063 
L 634.599007 -548.513063 
L 634.599465 -544.854108 
L 634.599914 -541.195154 
L 634.600389 -537.536199 
L 634.600941 -533.877245 
L 634.601617 -530.21829 
L 634.602448 -526.559335 
L 634.60344 -522.900381 
L 634.60458 -519.241426 
L 634.605847 -515.582472 
L 634.607222 -511.923517 
L 634.608694 -508.264562 
L 634.610254 -504.605608 
L 634.611883 -500.946653 
L 634.613542 -497.287699 
L 634.615163 -493.628744 
L 634.616657 -489.969789 
L 634.617933 -486.310835 
L 634.618922 -482.65188 
L 634.619602 -478.992926 
L 634.620012 -475.333971 
L 634.620253 -471.675016 
L 634.620469 -468.016062 
L 634.620818 -464.357107 
L 634.621435 -460.698153 
L 634.622393 -457.039198 
L 634.623693 -453.380243 
L 634.625264 -449.721289 
L 634.626996 -446.062334 
L 634.628775 -442.40338 
L 634.630517 -438.744425 
L 634.632187 -435.08547 
L 634.633794 -431.426516 
L 634.635374 -427.767561 
L 634.636968 -424.108607 
L 634.638606 -420.449652 
L 634.640297 -416.790697 
L 634.642027 -413.131743 
L 634.64377 -409.472788 
L 634.6455 -405.813834 
L 634.647209 -402.154879 
L 634.648917 -398.495924 
L 634.650675 -394.83697 
L 634.652547 -391.178015 
L 634.654589 -387.519061 
L 634.656824 -383.860106 
L 634.659236 -380.201151 
L 634.661792 -376.542197 
L 634.664472 -372.883242 
L 634.6673 -369.224288 
L 634.67035 -365.565333 
L 634.673719 -361.906378 
L 634.677487 -358.247424 
L 634.681673 -354.588469 
L 634.686231 -350.929515 
L 634.691086 -347.27056 
L 634.696182 -343.611605 
L 634.701533 -339.952651 
L 634.707216 -336.293696 
L 634.71333 -332.634742 
L 634.719916 -328.975787 
L 634.726896 -325.316832 
L 634.734075 -321.657878 
L 634.741203 -317.998923 
L 634.748085 -314.339969 
L 634.754677 -310.681014 
L 634.761122 -307.022059 
L 634.767709 -303.363105 
L 634.774771 -299.70415 
L 634.782585 -296.045196 
L 634.791305 -292.386241 
L 634.800958 -288.727286 
L 634.811494 -285.068332 
L 634.822864 -281.409377 
L 634.835098 -277.750423 
L 634.848339 -274.091468 
L 634.862831 -270.432513 
L 634.878854 -266.773559 
L 634.89664 -263.114604 
L 634.91629 -259.45565 
L 634.937746 -255.796695 
L 634.960836 -252.13774 
L 634.985358 -248.478786 
L 635.011174 -244.819831 
L 635.038229 -241.160877 
L 635.066466 -237.501922 
L 635.095642 -233.842967 
L 635.125094 -230.184013 
L 635.153544 -226.525058 
L 635.179014 -222.866104 
L 635.198901 -219.207149 
L 635.21021 -215.548194 
L 635.209937 -211.88924 
L 635.195574 -208.230285 
L 635.165672 -204.571331 
L 635.120358 -200.912376 
L 635.061647 -197.253421 
L 634.993378 -193.594467 
L 634.920702 -189.935512 
L 634.849203 -186.276558 
z
" style="stroke: #484848; stroke-opacity: 0.9; stroke-width: 1.25"/>
    </defs>
    <g clip-path="url(#p67f6531843)">
     <use xlink:href="#m18afdde155" x="0" y="621.37625" style="fill: #ecf1b7; fill-opacity: 0.9; stroke: #484848; stroke-opacity: 0.9; stroke-width: 1.25"/>
    </g>
   </g>
   <g id="FillBetweenPolyCollection_7">
    <defs>
     <path id="mfbe39b1868" d="M 737.374959 -182.524631 
L 734.119291 -182.524631 
L 733.074116 -186.264194 
L 731.819473 -190.003757 
L 730.508394 -193.743321 
L 729.293319 -197.482884 
L 728.260762 -201.222447 
L 727.415456 -204.96201 
L 726.715291 -208.701574 
L 726.118988 -212.441137 
L 725.610492 -216.1807 
L 725.193822 -219.920264 
L 724.874899 -223.659827 
L 724.647974 -227.39939 
L 724.493729 -231.138953 
L 724.386977 -234.878517 
L 724.307682 -238.61808 
L 724.248628 -242.357643 
L 724.215689 -246.097207 
L 724.220701 -249.83677 
L 724.271175 -253.576333 
L 724.36406 -257.315896 
L 724.488865 -261.05546 
L 724.637093 -264.795023 
L 724.808028 -268.534586 
L 725.004901 -272.27415 
L 725.226827 -276.013713 
L 725.466532 -279.753276 
L 725.716327 -283.492839 
L 725.974694 -287.232403 
L 726.245293 -290.971966 
L 726.529409 -294.711529 
L 726.820463 -298.451093 
L 727.106389 -302.190656 
L 727.376931 -305.930219 
L 727.628686 -309.669783 
L 727.864535 -313.409346 
L 728.089854 -317.148909 
L 728.309474 -320.888472 
L 728.526824 -324.628036 
L 728.744142 -328.367599 
L 728.962858 -332.107162 
L 729.184048 -335.846726 
L 729.408418 -339.586289 
L 729.634991 -343.325852 
L 729.859679 -347.065415 
L 730.076448 -350.804979 
L 730.281221 -354.544542 
L 730.474575 -358.284105 
L 730.659914 -362.023669 
L 730.839156 -365.763232 
L 731.01074 -369.502795 
L 731.171388 -373.242358 
L 731.319178 -376.981922 
L 731.455552 -380.721485 
L 731.5856 -384.461048 
L 731.716108 -388.200612 
L 731.851508 -391.940175 
L 731.99041 -395.679738 
L 732.126209 -399.419301 
L 732.251703 -403.158865 
L 732.363967 -406.898428 
L 732.466083 -410.637991 
L 732.565252 -414.377555 
L 732.668697 -418.117118 
L 732.779251 -421.856681 
L 732.893097 -425.596244 
L 733.001861 -429.335808 
L 733.098497 -433.075371 
L 733.18266 -436.814934 
L 733.260944 -440.554498 
L 733.341861 -444.294061 
L 733.430222 -448.033624 
L 733.525602 -451.773188 
L 733.624938 -455.512751 
L 733.725555 -459.252314 
L 733.825689 -462.991877 
L 733.923121 -466.731441 
L 734.014577 -470.471004 
L 734.09715 -474.210567 
L 734.170234 -477.950131 
L 734.235742 -481.689694 
L 734.296362 -485.429257 
L 734.35369 -489.16882 
L 734.407973 -492.908384 
L 734.459278 -496.647947 
L 734.508539 -500.38751 
L 734.557266 -504.127074 
L 734.606156 -507.866637 
L 734.6541 -511.6062 
L 734.698906 -515.345763 
L 734.739149 -519.085327 
L 734.775147 -522.82489 
L 734.808307 -526.564453 
L 734.840517 -530.304017 
L 734.875373 -534.04358 
L 734.920242 -537.783143 
L 734.985818 -541.522706 
L 735.080993 -545.26227 
L 735.205426 -549.001833 
L 735.345915 -552.741396 
L 736.148335 -552.741396 
L 736.148335 -552.741396 
L 736.288824 -549.001833 
L 736.413257 -545.26227 
L 736.508432 -541.522706 
L 736.574008 -537.783143 
L 736.618877 -534.04358 
L 736.653733 -530.304017 
L 736.685943 -526.564453 
L 736.719103 -522.82489 
L 736.755101 -519.085327 
L 736.795344 -515.345763 
L 736.84015 -511.6062 
L 736.888094 -507.866637 
L 736.936984 -504.127074 
L 736.985711 -500.38751 
L 737.034972 -496.647947 
L 737.086277 -492.908384 
L 737.14056 -489.16882 
L 737.197888 -485.429257 
L 737.258508 -481.689694 
L 737.324016 -477.950131 
L 737.3971 -474.210567 
L 737.479673 -470.471004 
L 737.571129 -466.731441 
L 737.668561 -462.991877 
L 737.768695 -459.252314 
L 737.869312 -455.512751 
L 737.968648 -451.773188 
L 738.064028 -448.033624 
L 738.152389 -444.294061 
L 738.233306 -440.554498 
L 738.31159 -436.814934 
L 738.395753 -433.075371 
L 738.492389 -429.335808 
L 738.601153 -425.596244 
L 738.714999 -421.856681 
L 738.825553 -418.117118 
L 738.928998 -414.377555 
L 739.028167 -410.637991 
L 739.130283 -406.898428 
L 739.242547 -403.158865 
L 739.368041 -399.419301 
L 739.50384 -395.679738 
L 739.642742 -391.940175 
L 739.778142 -388.200612 
L 739.90865 -384.461048 
L 740.038698 -380.721485 
L 740.175072 -376.981922 
L 740.322862 -373.242358 
L 740.48351 -369.502795 
L 740.655094 -365.763232 
L 740.834336 -362.023669 
L 741.019675 -358.284105 
L 741.213029 -354.544542 
L 741.417802 -350.804979 
L 741.634571 -347.065415 
L 741.859259 -343.325852 
L 742.085832 -339.586289 
L 742.310202 -335.846726 
L 742.531392 -332.107162 
L 742.750108 -328.367599 
L 742.967426 -324.628036 
L 743.184776 -320.888472 
L 743.404396 -317.148909 
L 743.629715 -313.409346 
L 743.865564 -309.669783 
L 744.117319 -305.930219 
L 744.387861 -302.190656 
L 744.673787 -298.451093 
L 744.964841 -294.711529 
L 745.248957 -290.971966 
L 745.519556 -287.232403 
L 745.777923 -283.492839 
L 746.027718 -279.753276 
L 746.267423 -276.013713 
L 746.489349 -272.27415 
L 746.686222 -268.534586 
L 746.857157 -264.795023 
L 747.005385 -261.05546 
L 747.13019 -257.315896 
L 747.223075 -253.576333 
L 747.273549 -249.83677 
L 747.278561 -246.097207 
L 747.245622 -242.357643 
L 747.186568 -238.61808 
L 747.107273 -234.878517 
L 747.000521 -231.138953 
L 746.846276 -227.39939 
L 746.619351 -223.659827 
L 746.300428 -219.920264 
L 745.883758 -216.1807 
L 745.375262 -212.441137 
L 744.778959 -208.701574 
L 744.078794 -204.96201 
L 743.233488 -201.222447 
L 742.200931 -197.482884 
L 740.985856 -193.743321 
L 739.674777 -190.003757 
L 738.420134 -186.264194 
L 737.374959 -182.524631 
z
" style="stroke: #484848; stroke-opacity: 0.9; stroke-width: 1.25"/>
    </defs>
    <g clip-path="url(#p67f6531843)">
     <use xlink:href="#mfbe39b1868" x="0" y="621.37625" style="fill: #cee2a6; fill-opacity: 0.9; stroke: #484848; stroke-opacity: 0.9; stroke-width: 1.25"/>
    </g>
   </g>
   <g id="FillBetweenPolyCollection_8">
    <defs>
     <path id="m22485be13e" d="M 837.536433 -184.558832 
L 836.259817 -184.558832 
L 836.044396 -188.268957 
L 835.818512 -191.979083 
L 835.598555 -195.689208 
L 835.39794 -199.399334 
L 835.224578 -203.109459 
L 835.080744 -206.819585 
L 834.964892 -210.52971 
L 834.874043 -214.239836 
L 834.805495 -217.949961 
L 834.757301 -221.660086 
L 834.72781 -225.370212 
L 834.714936 -229.080337 
L 834.715774 -232.790463 
L 834.726806 -236.500588 
L 834.744548 -240.210714 
L 834.766264 -243.920839 
L 834.790372 -247.630965 
L 834.81638 -251.34109 
L 834.844482 -255.051216 
L 834.875087 -258.761341 
L 834.908525 -262.471467 
L 834.944997 -266.181592 
L 834.984656 -269.891718 
L 835.027671 -273.601843 
L 835.074153 -277.311969 
L 835.12399 -281.022094 
L 835.176705 -284.73222 
L 835.231457 -288.442345 
L 835.28723 -292.152471 
L 835.343115 -295.862596 
L 835.398532 -299.572722 
L 835.453302 -303.282847 
L 835.507559 -306.992973 
L 835.561576 -310.703098 
L 835.615548 -314.413224 
L 835.669383 -318.123349 
L 835.722551 -321.833475 
L 835.774064 -325.5436 
L 835.822669 -329.253726 
L 835.867203 -332.963851 
L 835.906976 -336.673977 
L 835.941986 -340.384102 
L 835.972857 -344.094228 
L 836.000549 -347.804353 
L 836.026012 -351.514479 
L 836.049956 -355.224604 
L 836.07282 -358.93473 
L 836.094915 -362.644855 
L 836.116616 -366.354981 
L 836.138497 -370.065106 
L 836.161281 -373.775232 
L 836.185638 -377.485357 
L 836.211904 -381.195483 
L 836.239887 -384.905608 
L 836.268869 -388.615734 
L 836.297803 -392.325859 
L 836.325599 -396.035985 
L 836.351379 -399.74611 
L 836.374628 -403.456236 
L 836.395249 -407.166361 
L 836.413529 -410.876487 
L 836.430056 -414.586612 
L 836.445567 -418.296738 
L 836.460793 -422.006863 
L 836.476314 -425.716989 
L 836.492482 -429.427114 
L 836.509377 -433.13724 
L 836.526811 -436.847365 
L 836.544392 -440.557491 
L 836.561655 -444.267616 
L 836.578221 -447.977742 
L 836.593917 -451.687867 
L 836.608773 -455.397993 
L 836.62291 -459.108118 
L 836.636382 -462.818244 
L 836.649081 -466.528369 
L 836.660755 -470.238495 
L 836.671124 -473.94862 
L 836.680024 -477.658746 
L 836.687512 -481.368871 
L 836.693874 -485.078997 
L 836.699537 -488.789122 
L 836.704922 -492.499248 
L 836.71031 -496.209373 
L 836.715773 -499.919499 
L 836.721215 -503.629624 
L 836.72648 -507.33975 
L 836.731498 -511.049875 
L 836.736372 -514.760001 
L 836.74139 -518.470126 
L 836.746948 -522.180252 
L 836.753456 -525.890377 
L 836.761271 -529.600503 
L 836.770674 -533.310628 
L 836.781848 -537.020754 
L 836.794819 -540.730879 
L 836.809358 -544.441005 
L 836.824895 -548.15113 
L 836.840548 -551.861256 
L 836.955702 -551.861256 
L 836.955702 -551.861256 
L 836.971355 -548.15113 
L 836.986892 -544.441005 
L 837.001431 -540.730879 
L 837.014402 -537.020754 
L 837.025576 -533.310628 
L 837.034979 -529.600503 
L 837.042794 -525.890377 
L 837.049302 -522.180252 
L 837.05486 -518.470126 
L 837.059878 -514.760001 
L 837.064752 -511.049875 
L 837.06977 -507.33975 
L 837.075035 -503.629624 
L 837.080477 -499.919499 
L 837.08594 -496.209373 
L 837.091328 -492.499248 
L 837.096713 -488.789122 
L 837.102376 -485.078997 
L 837.108738 -481.368871 
L 837.116226 -477.658746 
L 837.125126 -473.94862 
L 837.135495 -470.238495 
L 837.147169 -466.528369 
L 837.159868 -462.818244 
L 837.17334 -459.108118 
L 837.187477 -455.397993 
L 837.202333 -451.687867 
L 837.218029 -447.977742 
L 837.234595 -444.267616 
L 837.251858 -440.557491 
L 837.269439 -436.847365 
L 837.286873 -433.13724 
L 837.303768 -429.427114 
L 837.319936 -425.716989 
L 837.335457 -422.006863 
L 837.350683 -418.296738 
L 837.366194 -414.586612 
L 837.382721 -410.876487 
L 837.401001 -407.166361 
L 837.421622 -403.456236 
L 837.444871 -399.74611 
L 837.470651 -396.035985 
L 837.498447 -392.325859 
L 837.527381 -388.615734 
L 837.556363 -384.905608 
L 837.584346 -381.195483 
L 837.610612 -377.485357 
L 837.634969 -373.775232 
L 837.657753 -370.065106 
L 837.679634 -366.354981 
L 837.701335 -362.644855 
L 837.72343 -358.93473 
L 837.746294 -355.224604 
L 837.770238 -351.514479 
L 837.795701 -347.804353 
L 837.823393 -344.094228 
L 837.854264 -340.384102 
L 837.889274 -336.673977 
L 837.929047 -332.963851 
L 837.973581 -329.253726 
L 838.022186 -325.5436 
L 838.073699 -321.833475 
L 838.126867 -318.123349 
L 838.180702 -314.413224 
L 838.234674 -310.703098 
L 838.288691 -306.992973 
L 838.342948 -303.282847 
L 838.397718 -299.572722 
L 838.453135 -295.862596 
L 838.50902 -292.152471 
L 838.564793 -288.442345 
L 838.619545 -284.73222 
L 838.67226 -281.022094 
L 838.722097 -277.311969 
L 838.768579 -273.601843 
L 838.811594 -269.891718 
L 838.851253 -266.181592 
L 838.887725 -262.471467 
L 838.921163 -258.761341 
L 838.951768 -255.051216 
L 838.97987 -251.34109 
L 839.005878 -247.630965 
L 839.029986 -243.920839 
L 839.051702 -240.210714 
L 839.069444 -236.500588 
L 839.080476 -232.790463 
L 839.081314 -229.080337 
L 839.06844 -225.370212 
L 839.038949 -221.660086 
L 838.990755 -217.949961 
L 838.922207 -214.239836 
L 838.831358 -210.52971 
L 838.715506 -206.819585 
L 838.571672 -203.109459 
L 838.39831 -199.399334 
L 838.197695 -195.689208 
L 837.977738 -191.979083 
L 837.751854 -188.268957 
L 837.536433 -184.558832 
z
" style="stroke: #484848; stroke-opacity: 0.9; stroke-width: 1.25"/>
    </defs>
    <g clip-path="url(#p67f6531843)">
     <use xlink:href="#m22485be13e" x="0" y="621.37625" style="fill: #9fcda9; fill-opacity: 0.9; stroke: #484848; stroke-opacity: 0.9; stroke-width: 1.25"/>
    </g>
   </g>
   <g id="FillBetweenPolyCollection_9">
    <defs>
     <path id="m0b4f2dec37" d="M 939.642124 -185.513358 
L 936.456126 -185.513358 
L 935.784211 -189.22394 
L 935.039851 -192.934522 
L 934.285557 -196.645104 
L 933.582165 -200.355686 
L 932.973052 -204.066269 
L 932.476442 -207.776851 
L 932.087436 -211.487433 
L 931.786535 -215.198015 
L 931.549548 -218.908597 
L 931.355091 -222.61918 
L 931.188367 -226.329762 
L 931.041658 -230.040344 
L 930.912612 -233.750926 
L 930.801558 -237.461508 
L 930.709092 -241.17209 
L 930.634831 -244.882673 
L 930.577603 -248.593255 
L 930.536561 -252.303837 
L 930.512242 -256.014419 
L 930.506633 -259.725001 
L 930.521848 -263.435584 
L 930.558014 -267.146166 
L 930.611831 -270.856748 
L 930.677172 -274.56733 
L 930.74772 -278.277912 
L 930.819889 -281.988495 
L 930.893789 -285.699077 
L 930.971386 -289.409659 
L 931.053309 -293.120241 
L 931.136927 -296.830823 
L 931.21742 -300.541405 
L 931.291223 -304.251988 
L 931.359337 -307.96257 
L 931.427993 -311.673152 
L 931.506059 -315.383734 
L 931.60085 -319.094316 
L 931.715007 -322.804899 
L 931.846024 -326.515481 
L 931.988039 -330.226063 
L 932.134309 -333.936645 
L 932.279019 -337.647227 
L 932.418147 -341.35781 
L 932.549686 -345.068392 
L 932.673486 -348.778974 
L 932.790729 -352.489556 
L 932.903109 -356.200138 
L 933.011986 -359.910721 
L 933.117861 -363.621303 
L 933.220373 -367.331885 
L 933.31882 -371.042467 
L 933.412916 -374.753049 
L 933.503352 -378.463631 
L 933.591749 -382.174214 
L 933.680032 -385.884796 
L 933.769694 -389.595378 
L 933.861421 -393.30596 
L 933.955117 -397.016542 
L 934.049987 -400.727125 
L 934.144556 -404.437707 
L 934.236907 -408.148289 
L 934.325439 -411.858871 
L 934.409878 -415.569453 
L 934.491794 -419.280036 
L 934.574023 -422.990618 
L 934.659219 -426.7012 
L 934.74846 -430.411782 
L 934.840782 -434.122364 
L 934.933766 -437.832946 
L 935.024548 -441.543529 
L 935.110554 -445.254111 
L 935.189794 -448.964693 
L 935.261039 -452.675275 
L 935.324148 -456.385857 
L 935.380368 -460.09644 
L 935.432129 -463.807022 
L 935.482212 -467.517604 
L 935.532703 -471.228186 
L 935.584412 -474.938768 
L 935.637098 -478.649351 
L 935.690235 -482.359933 
L 935.743728 -486.070515 
L 935.798102 -489.781097 
L 935.854129 -493.491679 
L 935.912163 -497.202261 
L 935.971616 -500.912844 
L 936.030909 -504.623426 
L 936.088005 -508.334008 
L 936.14126 -512.04459 
L 936.190154 -515.755172 
L 936.235618 -519.465755 
L 936.2801 -523.176337 
L 936.327762 -526.886919 
L 936.384915 -530.597501 
L 936.460128 -534.308083 
L 936.563023 -538.018666 
L 936.701239 -541.729248 
L 936.876303 -545.43983 
L 937.080555 -549.150412 
L 937.297379 -552.860994 
L 938.800871 -552.860994 
L 938.800871 -552.860994 
L 939.017695 -549.150412 
L 939.221947 -545.43983 
L 939.397011 -541.729248 
L 939.535227 -538.018666 
L 939.638122 -534.308083 
L 939.713335 -530.597501 
L 939.770488 -526.886919 
L 939.81815 -523.176337 
L 939.862632 -519.465755 
L 939.908096 -515.755172 
L 939.95699 -512.04459 
L 940.010245 -508.334008 
L 940.067341 -504.623426 
L 940.126634 -500.912844 
L 940.186087 -497.202261 
L 940.244121 -493.491679 
L 940.300148 -489.781097 
L 940.354522 -486.070515 
L 940.408015 -482.359933 
L 940.461152 -478.649351 
L 940.513838 -474.938768 
L 940.565547 -471.228186 
L 940.616038 -467.517604 
L 940.666121 -463.807022 
L 940.717882 -460.09644 
L 940.774102 -456.385857 
L 940.837211 -452.675275 
L 940.908456 -448.964693 
L 940.987696 -445.254111 
L 941.073702 -441.543529 
L 941.164484 -437.832946 
L 941.257468 -434.122364 
L 941.34979 -430.411782 
L 941.439031 -426.7012 
L 941.524227 -422.990618 
L 941.606456 -419.280036 
L 941.688372 -415.569453 
L 941.772811 -411.858871 
L 941.861343 -408.148289 
L 941.953694 -404.437707 
L 942.048263 -400.727125 
L 942.143133 -397.016542 
L 942.236829 -393.30596 
L 942.328556 -389.595378 
L 942.418218 -385.884796 
L 942.506501 -382.174214 
L 942.594898 -378.463631 
L 942.685334 -374.753049 
L 942.77943 -371.042467 
L 942.877877 -367.331885 
L 942.980389 -363.621303 
L 943.086264 -359.910721 
L 943.195141 -356.200138 
L 943.307521 -352.489556 
L 943.424764 -348.778974 
L 943.548564 -345.068392 
L 943.680103 -341.35781 
L 943.819231 -337.647227 
L 943.963941 -333.936645 
L 944.110211 -330.226063 
L 944.252226 -326.515481 
L 944.383243 -322.804899 
L 944.4974 -319.094316 
L 944.592191 -315.383734 
L 944.670257 -311.673152 
L 944.738913 -307.96257 
L 944.807027 -304.251988 
L 944.88083 -300.541405 
L 944.961323 -296.830823 
L 945.044941 -293.120241 
L 945.126864 -289.409659 
L 945.204461 -285.699077 
L 945.278361 -281.988495 
L 945.35053 -278.277912 
L 945.421078 -274.56733 
L 945.486419 -270.856748 
L 945.540236 -267.146166 
L 945.576402 -263.435584 
L 945.591617 -259.725001 
L 945.586008 -256.014419 
L 945.561689 -252.303837 
L 945.520647 -248.593255 
L 945.463419 -244.882673 
L 945.389158 -241.17209 
L 945.296692 -237.461508 
L 945.185638 -233.750926 
L 945.056592 -230.040344 
L 944.909883 -226.329762 
L 944.743159 -222.61918 
L 944.548702 -218.908597 
L 944.311715 -215.198015 
L 944.010814 -211.487433 
L 943.621808 -207.776851 
L 943.125198 -204.066269 
L 942.516085 -200.355686 
L 941.812693 -196.645104 
L 941.058399 -192.934522 
L 940.314039 -189.22394 
L 939.642124 -185.513358 
z
" style="stroke: #484848; stroke-opacity: 0.9; stroke-width: 1.25"/>
    </defs>
    <g clip-path="url(#p67f6531843)">
     <use xlink:href="#m0b4f2dec37" x="0" y="621.37625" style="fill: #67aba2; fill-opacity: 0.9; stroke: #484848; stroke-opacity: 0.9; stroke-width: 1.25"/>
    </g>
   </g>
   <g id="FillBetweenPolyCollection_10">
    <defs>
     <path id="m03f615c9af" d="M 1040.806704 -183.87028 
L 1037.593546 -183.87028 
L 1036.741302 -187.597423 
L 1035.78384 -191.324565 
L 1034.842118 -195.051708 
L 1034.026453 -198.77885 
L 1033.396988 -202.505993 
L 1032.954316 -206.233135 
L 1032.659346 -209.960278 
L 1032.463134 -213.68742 
L 1032.328369 -217.414563 
L 1032.23669 -221.141706 
L 1032.185816 -224.868848 
L 1032.182072 -228.595991 
L 1032.231855 -232.323133 
L 1032.334525 -236.050276 
L 1032.479336 -239.777418 
L 1032.6481 -243.504561 
L 1032.82234 -247.231703 
L 1032.990934 -250.958846 
L 1033.153798 -254.685988 
L 1033.319317 -258.413131 
L 1033.496966 -262.140274 
L 1033.689899 -265.867416 
L 1033.892648 -269.594559 
L 1034.095291 -273.321701 
L 1034.290438 -277.048844 
L 1034.477647 -280.775986 
L 1034.662573 -284.503129 
L 1034.852104 -288.230271 
L 1035.048927 -291.957414 
L 1035.248754 -295.684557 
L 1035.441735 -299.411699 
L 1035.617167 -303.138842 
L 1035.768508 -306.865984 
L 1035.895638 -310.593127 
L 1036.003564 -314.320269 
L 1036.099405 -318.047412 
L 1036.190005 -321.774554 
L 1036.280882 -325.501697 
L 1036.375762 -329.22884 
L 1036.476112 -332.955982 
L 1036.581018 -336.683125 
L 1036.687777 -340.410267 
L 1036.793028 -344.13741 
L 1036.893893 -347.864552 
L 1036.988666 -351.591695 
L 1037.076843 -355.318837 
L 1037.158659 -359.04598 
L 1037.234731 -362.773122 
L 1037.306186 -366.500265 
L 1037.37494 -370.227408 
L 1037.443387 -373.95455 
L 1037.513429 -377.681693 
L 1037.585574 -381.408835 
L 1037.658782 -385.135978 
L 1037.730956 -388.86312 
L 1037.799593 -392.590263 
L 1037.862414 -396.317405 
L 1037.91807 -400.044548 
L 1037.966849 -403.771691 
L 1038.010838 -407.498833 
L 1038.053123 -411.225976 
L 1038.09627 -414.953118 
L 1038.141045 -418.680261 
L 1038.186194 -422.407403 
L 1038.229363 -426.134546 
L 1038.268485 -429.861688 
L 1038.302801 -433.588831 
L 1038.333141 -437.315973 
L 1038.361476 -441.043116 
L 1038.389982 -444.770259 
L 1038.419948 -448.497401 
L 1038.451051 -452.224544 
L 1038.481426 -455.951686 
L 1038.508552 -459.678829 
L 1038.530549 -463.405971 
L 1038.547268 -467.133114 
L 1038.560552 -470.860256 
L 1038.573401 -474.587399 
L 1038.58846 -478.314542 
L 1038.606767 -482.041684 
L 1038.627576 -485.768827 
L 1038.649235 -489.495969 
L 1038.670419 -493.223112 
L 1038.690787 -496.950254 
L 1038.710637 -500.677397 
L 1038.729969 -504.404539 
L 1038.747921 -508.131682 
L 1038.76318 -511.858824 
L 1038.775018 -515.585967 
L 1038.784006 -519.31311 
L 1038.791879 -523.040252 
L 1038.800851 -526.767395 
L 1038.813107 -530.494537 
L 1038.83074 -534.22168 
L 1038.855829 -537.948822 
L 1038.890081 -541.675965 
L 1038.933858 -545.403107 
L 1038.985106 -549.13025 
L 1039.039128 -552.857393 
L 1039.361122 -552.857393 
L 1039.361122 -552.857393 
L 1039.415144 -549.13025 
L 1039.466392 -545.403107 
L 1039.510169 -541.675965 
L 1039.544421 -537.948822 
L 1039.56951 -534.22168 
L 1039.587143 -530.494537 
L 1039.599399 -526.767395 
L 1039.608371 -523.040252 
L 1039.616244 -519.31311 
L 1039.625232 -515.585967 
L 1039.63707 -511.858824 
L 1039.652329 -508.131682 
L 1039.670281 -504.404539 
L 1039.689613 -500.677397 
L 1039.709463 -496.950254 
L 1039.729831 -493.223112 
L 1039.751015 -489.495969 
L 1039.772674 -485.768827 
L 1039.793483 -482.041684 
L 1039.81179 -478.314542 
L 1039.826849 -474.587399 
L 1039.839698 -470.860256 
L 1039.852982 -467.133114 
L 1039.869701 -463.405971 
L 1039.891698 -459.678829 
L 1039.918824 -455.951686 
L 1039.949199 -452.224544 
L 1039.980302 -448.497401 
L 1040.010268 -444.770259 
L 1040.038774 -441.043116 
L 1040.067109 -437.315973 
L 1040.097449 -433.588831 
L 1040.131765 -429.861688 
L 1040.170887 -426.134546 
L 1040.214056 -422.407403 
L 1040.259205 -418.680261 
L 1040.30398 -414.953118 
L 1040.347127 -411.225976 
L 1040.389412 -407.498833 
L 1040.433401 -403.771691 
L 1040.48218 -400.044548 
L 1040.537836 -396.317405 
L 1040.600657 -392.590263 
L 1040.669294 -388.86312 
L 1040.741468 -385.135978 
L 1040.814676 -381.408835 
L 1040.886821 -377.681693 
L 1040.956863 -373.95455 
L 1041.02531 -370.227408 
L 1041.094064 -366.500265 
L 1041.165519 -362.773122 
L 1041.241591 -359.04598 
L 1041.323407 -355.318837 
L 1041.411584 -351.591695 
L 1041.506357 -347.864552 
L 1041.607222 -344.13741 
L 1041.712473 -340.410267 
L 1041.819232 -336.683125 
L 1041.924138 -332.955982 
L 1042.024488 -329.22884 
L 1042.119368 -325.501697 
L 1042.210245 -321.774554 
L 1042.300845 -318.047412 
L 1042.396686 -314.320269 
L 1042.504612 -310.593127 
L 1042.631742 -306.865984 
L 1042.783083 -303.138842 
L 1042.958515 -299.411699 
L 1043.151496 -295.684557 
L 1043.351323 -291.957414 
L 1043.548146 -288.230271 
L 1043.737677 -284.503129 
L 1043.922603 -280.775986 
L 1044.109812 -277.048844 
L 1044.304959 -273.321701 
L 1044.507602 -269.594559 
L 1044.710351 -265.867416 
L 1044.903284 -262.140274 
L 1045.080933 -258.413131 
L 1045.246452 -254.685988 
L 1045.409316 -250.958846 
L 1045.57791 -247.231703 
L 1045.75215 -243.504561 
L 1045.920914 -239.777418 
L 1046.065725 -236.050276 
L 1046.168395 -232.323133 
L 1046.218178 -228.595991 
L 1046.214434 -224.868848 
L 1046.16356 -221.141706 
L 1046.071881 -217.414563 
L 1045.937116 -213.68742 
L 1045.740904 -209.960278 
L 1045.445934 -206.233135 
L 1045.003262 -202.505993 
L 1044.373797 -198.77885 
L 1043.558132 -195.051708 
L 1042.61641 -191.324565 
L 1041.658948 -187.597423 
L 1040.806704 -183.87028 
z
" style="stroke: #484848; stroke-opacity: 0.9; stroke-width: 1.25"/>
    </defs>
    <g clip-path="url(#p67f6531843)">
     <use xlink:href="#m03f615c9af" x="0" y="621.37625" style="fill: #4780aa; fill-opacity: 0.9; stroke: #484848; stroke-opacity: 0.9; stroke-width: 1.25"/>
    </g>
   </g>
   <g id="line2d_10">
    <path d="M 128.841125 435.834591 
L 128.841125 149.938945 
" clip-path="url(#p67f6531843)" style="fill: none; stroke: #484848; stroke-width: 1.875; stroke-linecap: round"/>
   </g>
   <g id="line2d_11">
    <path d="M 128.841125 394.382499 
L 128.841125 296.132456 
" clip-path="url(#p67f6531843)" style="fill: none; stroke: #484848; stroke-width: 5.625; stroke-linecap: round"/>
   </g>
   <g id="line2d_12">
    <path d="M 128.841125 356.26389 
" clip-path="url(#p67f6531843)" style="fill: none; stroke: #484848; stroke-width: 1.5; stroke-linecap: round"/>
    <defs>
     <path id="m65ce2454bb" d="M 2.34375 0 
L -2.34375 -0 
" style="stroke: #ffffff; stroke-width: 1.125"/>
    </defs>
    <g clip-path="url(#p67f6531843)">
     <use xlink:href="#m65ce2454bb" x="128.841125" y="356.26389" style="fill: #ffffff; stroke: #ffffff; stroke-width: 1.125"/>
    </g>
   </g>
   <g id="line2d_13">
    <path d="M 229.992125 438.073637 
L 229.992125 83.272482 
" clip-path="url(#p67f6531843)" style="fill: none; stroke: #484848; stroke-width: 1.875; stroke-linecap: round"/>
   </g>
   <g id="line2d_14">
    <path d="M 229.992125 386.764266 
L 229.992125 265.354868 
" clip-path="url(#p67f6531843)" style="fill: none; stroke: #484848; stroke-width: 5.625; stroke-linecap: round"/>
   </g>
   <g id="line2d_15">
    <path d="M 229.992125 336.833413 
" clip-path="url(#p67f6531843)" style="fill: none; stroke: #484848; stroke-width: 1.5; stroke-linecap: round"/>
    <g clip-path="url(#p67f6531843)">
     <use xlink:href="#m65ce2454bb" x="229.992125" y="336.833413" style="fill: #ffffff; stroke: #ffffff; stroke-width: 1.125"/>
    </g>
   </g>
   <g id="line2d_16">
    <path d="M 331.143125 434.170155 
L 331.143125 199.594638 
" clip-path="url(#p67f6531843)" style="fill: none; stroke: #484848; stroke-width: 1.875; stroke-linecap: round"/>
   </g>
   <g id="line2d_17">
    <path d="M 331.143125 397.737866 
L 331.143125 318.477767 
" clip-path="url(#p67f6531843)" style="fill: none; stroke: #484848; stroke-width: 5.625; stroke-linecap: round"/>
   </g>
   <g id="line2d_18">
    <path d="M 331.143125 364.549789 
" clip-path="url(#p67f6531843)" style="fill: none; stroke: #484848; stroke-width: 1.5; stroke-linecap: round"/>
    <g clip-path="url(#p67f6531843)">
     <use xlink:href="#m65ce2454bb" x="331.143125" y="364.549789" style="fill: #ffffff; stroke: #ffffff; stroke-width: 1.125"/>
    </g>
   </g>
   <g id="line2d_19">
    <path d="M 432.294125 438.648767 
L 432.294125 72.196238 
" clip-path="url(#p67f6531843)" style="fill: none; stroke: #484848; stroke-width: 1.875; stroke-linecap: round"/>
   </g>
   <g id="line2d_20">
    <path d="M 432.294125 377.682661 
L 432.294125 255.445144 
" clip-path="url(#p67f6531843)" style="fill: none; stroke: #484848; stroke-width: 5.625; stroke-linecap: round"/>
   </g>
   <g id="line2d_21">
    <path d="M 432.294125 327.460414 
" clip-path="url(#p67f6531843)" style="fill: none; stroke: #484848; stroke-width: 1.5; stroke-linecap: round"/>
    <g clip-path="url(#p67f6531843)">
     <use xlink:href="#m65ce2454bb" x="432.294125" y="327.460414" style="fill: #ffffff; stroke: #ffffff; stroke-width: 1.125"/>
    </g>
   </g>
   <g id="line2d_22">
    <path d="M 533.445125 433.289274 
L 533.445125 132.351885 
" clip-path="url(#p67f6531843)" style="fill: none; stroke: #484848; stroke-width: 1.875; stroke-linecap: round"/>
   </g>
   <g id="line2d_23">
    <path d="M 533.445125 388.280873 
L 533.445125 285.820879 
" clip-path="url(#p67f6531843)" style="fill: none; stroke: #484848; stroke-width: 5.625; stroke-linecap: round"/>
   </g>
   <g id="line2d_24">
    <path d="M 533.445125 343.063308 
" clip-path="url(#p67f6531843)" style="fill: none; stroke: #484848; stroke-width: 1.5; stroke-linecap: round"/>
    <g clip-path="url(#p67f6531843)">
     <use xlink:href="#m65ce2454bb" x="533.445125" y="343.063308" style="fill: #ffffff; stroke: #ffffff; stroke-width: 1.125"/>
    </g>
   </g>
   <g id="line2d_25">
    <path d="M 634.596125 435.099692 
L 634.596125 216.35346 
" clip-path="url(#p67f6531843)" style="fill: none; stroke: #484848; stroke-width: 1.875; stroke-linecap: round"/>
   </g>
   <g id="line2d_26">
    <path d="M 634.596125 408.468306 
L 634.596125 331.301228 
" clip-path="url(#p67f6531843)" style="fill: none; stroke: #484848; stroke-width: 5.625; stroke-linecap: round"/>
   </g>
   <g id="line2d_27">
    <path d="M 634.596125 382.001735 
" clip-path="url(#p67f6531843)" style="fill: none; stroke: #484848; stroke-width: 1.5; stroke-linecap: round"/>
    <g clip-path="url(#p67f6531843)">
     <use xlink:href="#m65ce2454bb" x="634.596125" y="382.001735" style="fill: #ffffff; stroke: #ffffff; stroke-width: 1.125"/>
    </g>
   </g>
   <g id="line2d_28">
    <path d="M 735.747125 438.851619 
L 735.747125 104.873223 
" clip-path="url(#p67f6531843)" style="fill: none; stroke: #484848; stroke-width: 1.875; stroke-linecap: round"/>
   </g>
   <g id="line2d_29">
    <path d="M 735.747125 380.506398 
L 735.747125 270.231265 
" clip-path="url(#p67f6531843)" style="fill: none; stroke: #484848; stroke-width: 5.625; stroke-linecap: round"/>
   </g>
   <g id="line2d_30">
    <path d="M 735.747125 335.447266 
" clip-path="url(#p67f6531843)" style="fill: none; stroke: #484848; stroke-width: 1.5; stroke-linecap: round"/>
    <g clip-path="url(#p67f6531843)">
     <use xlink:href="#m65ce2454bb" x="735.747125" y="335.447266" style="fill: #ffffff; stroke: #ffffff; stroke-width: 1.125"/>
    </g>
   </g>
   <g id="line2d_31">
    <path d="M 836.898125 436.817418 
L 836.898125 126.161225 
" clip-path="url(#p67f6531843)" style="fill: none; stroke: #484848; stroke-width: 1.875; stroke-linecap: round"/>
   </g>
   <g id="line2d_32">
    <path d="M 836.898125 388.954514 
L 836.898125 283.824706 
" clip-path="url(#p67f6531843)" style="fill: none; stroke: #484848; stroke-width: 5.625; stroke-linecap: round"/>
   </g>
   <g id="line2d_33">
    <path d="M 836.898125 346.495651 
" clip-path="url(#p67f6531843)" style="fill: none; stroke: #484848; stroke-width: 1.5; stroke-linecap: round"/>
    <g clip-path="url(#p67f6531843)">
     <use xlink:href="#m65ce2454bb" x="836.898125" y="346.495651" style="fill: #ffffff; stroke: #ffffff; stroke-width: 1.125"/>
    </g>
   </g>
   <g id="line2d_34">
    <path d="M 938.049125 435.862892 
L 938.049125 68.515256 
" clip-path="url(#p67f6531843)" style="fill: none; stroke: #484848; stroke-width: 1.875; stroke-linecap: round"/>
   </g>
   <g id="line2d_35">
    <path d="M 938.049125 366.444947 
L 938.049125 229.626054 
" clip-path="url(#p67f6531843)" style="fill: none; stroke: #484848; stroke-width: 5.625; stroke-linecap: round"/>
   </g>
   <g id="line2d_36">
    <path d="M 938.049125 308.05803 
" clip-path="url(#p67f6531843)" style="fill: none; stroke: #484848; stroke-width: 1.5; stroke-linecap: round"/>
    <g clip-path="url(#p67f6531843)">
     <use xlink:href="#m65ce2454bb" x="938.049125" y="308.05803" style="fill: #ffffff; stroke: #ffffff; stroke-width: 1.125"/>
    </g>
   </g>
   <g id="line2d_37">
    <path d="M 1039.200125 437.50597 
L 1039.200125 144.415932 
" clip-path="url(#p67f6531843)" style="fill: none; stroke: #484848; stroke-width: 1.875; stroke-linecap: round"/>
   </g>
   <g id="line2d_38">
    <path d="M 1039.200125 394.06443 
L 1039.200125 294.204556 
" clip-path="url(#p67f6531843)" style="fill: none; stroke: #484848; stroke-width: 5.625; stroke-linecap: round"/>
   </g>
   <g id="line2d_39">
    <path d="M 1039.200125 356.023684 
" clip-path="url(#p67f6531843)" style="fill: none; stroke: #484848; stroke-width: 1.5; stroke-linecap: round"/>
    <g clip-path="url(#p67f6531843)">
     <use xlink:href="#m65ce2454bb" x="1039.200125" y="356.023684" style="fill: #ffffff; stroke: #ffffff; stroke-width: 1.125"/>
    </g>
   </g>
   <g id="patch_3">
    <path d="M 78.265625 457.368438 
L 78.265625 49.998438 
" style="fill: none; stroke: #cccccc; stroke-width: 1.25; stroke-linejoin: miter; stroke-linecap: square"/>
   </g>
   <g id="patch_4">
    <path d="M 1089.775625 457.368438 
L 1089.775625 49.998438 
" style="fill: none; stroke: #cccccc; stroke-width: 1.25; stroke-linejoin: miter; stroke-linecap: square"/>
   </g>
   <g id="patch_5">
    <path d="M 78.265625 457.368438 
L 1089.775625 457.368438 
" style="fill: none; stroke: #cccccc; stroke-width: 1.25; stroke-linejoin: miter; stroke-linecap: square"/>
   </g>
   <g id="patch_6">
    <path d="M 78.265625 49.998438 
L 1089.775625 49.998438 
" style="fill: none; stroke: #cccccc; stroke-width: 1.25; stroke-linejoin: miter; stroke-linecap: square"/>
   </g>
   <g id="text_22">
    <text style="font-size: 10px; font-family: 'Arial', 'DejaVu Sans', 'Liberation Sans', 'Bitstream Vera Sans', sans-serif; text-anchor: middle; fill: #262626" x="584.020625" y="43.998438" transform="rotate(-0 584.020625 43.998438)">Distance distribution per Level Two Cell Type in `maternalfetalinterface-mibitof-stanford` (density normalization = count)</text>
   </g>
  </g>
 </g>
 <defs>
  <clipPath id="p67f6531843">
   <rect x="78.265625" y="49.998438" width="1011.51" height="407.37"/>
  </clipPath>
 </defs>
</svg>
