<?xml version="1.0" encoding="utf-8" standalone="no"?>
<!DOCTYPE svg PUBLIC "-//W3C//DTD SVG 1.1//EN"
  "http://www.w3.org/Graphics/SVG/1.1/DTD/svg11.dtd">
<svg xmlns:xlink="http://www.w3.org/1999/xlink" width="680.017187pt" height="391.197812pt" viewBox="0 0 680.017187 391.197812" xmlns="http://www.w3.org/2000/svg" version="1.1">
 <metadata>
  <rdf:RDF xmlns:dc="http://purl.org/dc/elements/1.1/" xmlns:cc="http://creativecommons.org/ns#" xmlns:rdf="http://www.w3.org/1999/02/22-rdf-syntax-ns#">
   <cc:Work>
    <dc:type rdf:resource="http://purl.org/dc/dcmitype/StillImage"/>
    <dc:date>2025-07-02T16:37:21.281589</dc:date>
    <dc:format>image/svg+xml</dc:format>
    <dc:creator>
     <cc:Agent>
      <dc:title>Matplotlib v3.10.3, https://matplotlib.org/</dc:title>
     </cc:Agent>
    </dc:creator>
   </cc:Work>
  </rdf:RDF>
 </metadata>
 <defs>
  <style type="text/css">*{stroke-linejoin: round; stroke-linecap: butt}</style>
 </defs>
 <g id="figure_1">
  <g id="patch_1">
   <path d="M 0 391.197812 
L 680.017187 391.197812 
L 680.017187 0 
L 0 0 
z
" style="fill: #ffffff"/>
  </g>
  <g id="axes_1">
   <g id="patch_2">
    <path d="M 143.853594 241.638437 
L 536.163594 241.638437 
L 536.163594 49.998437 
L 143.853594 49.998437 
z
" style="fill: #ffffff"/>
   </g>
   <g id="matplotlib.axis_1">
    <g id="xtick_1">
     <g id="text_1">
      <!-- epithelial cell -->
      <g style="fill: #262626" transform="translate(190.812656 317.6775) rotate(-90) scale(0.1 -0.1)">
       <defs>
        <path id="DejaVuSans-65" d="M 3597 1894 
L 3597 1613 
L 953 1613 
Q 991 1019 1311 708 
Q 1631 397 2203 397 
Q 2534 397 2845 478 
Q 3156 559 3463 722 
L 3463 178 
Q 3153 47 2828 -22 
Q 2503 -91 2169 -91 
Q 1331 -91 842 396 
Q 353 884 353 1716 
Q 353 2575 817 3079 
Q 1281 3584 2069 3584 
Q 2775 3584 3186 3129 
Q 3597 2675 3597 1894 
z
M 3022 2063 
Q 3016 2534 2758 2815 
Q 2500 3097 2075 3097 
Q 1594 3097 1305 2825 
Q 1016 2553 972 2059 
L 3022 2063 
z
" transform="scale(0.015625)"/>
        <path id="DejaVuSans-70" d="M 1159 525 
L 1159 -1331 
L 581 -1331 
L 581 3500 
L 1159 3500 
L 1159 2969 
Q 1341 3281 1617 3432 
Q 1894 3584 2278 3584 
Q 2916 3584 3314 3078 
Q 3713 2572 3713 1747 
Q 3713 922 3314 415 
Q 2916 -91 2278 -91 
Q 1894 -91 1617 61 
Q 1341 213 1159 525 
z
M 3116 1747 
Q 3116 2381 2855 2742 
Q 2594 3103 2138 3103 
Q 1681 3103 1420 2742 
Q 1159 2381 1159 1747 
Q 1159 1113 1420 752 
Q 1681 391 2138 391 
Q 2594 391 2855 752 
Q 3116 1113 3116 1747 
z
" transform="scale(0.015625)"/>
        <path id="DejaVuSans-69" d="M 603 3500 
L 1178 3500 
L 1178 0 
L 603 0 
L 603 3500 
z
M 603 4863 
L 1178 4863 
L 1178 4134 
L 603 4134 
L 603 4863 
z
" transform="scale(0.015625)"/>
        <path id="DejaVuSans-74" d="M 1172 4494 
L 1172 3500 
L 2356 3500 
L 2356 3053 
L 1172 3053 
L 1172 1153 
Q 1172 725 1289 603 
Q 1406 481 1766 481 
L 2356 481 
L 2356 0 
L 1766 0 
Q 1100 0 847 248 
Q 594 497 594 1153 
L 594 3053 
L 172 3053 
L 172 3500 
L 594 3500 
L 594 4494 
L 1172 4494 
z
" transform="scale(0.015625)"/>
        <path id="DejaVuSans-68" d="M 3513 2113 
L 3513 0 
L 2938 0 
L 2938 2094 
Q 2938 2591 2744 2837 
Q 2550 3084 2163 3084 
Q 1697 3084 1428 2787 
Q 1159 2491 1159 1978 
L 1159 0 
L 581 0 
L 581 4863 
L 1159 4863 
L 1159 2956 
Q 1366 3272 1645 3428 
Q 1925 3584 2291 3584 
Q 2894 3584 3203 3211 
Q 3513 2838 3513 2113 
z
" transform="scale(0.015625)"/>
        <path id="DejaVuSans-6c" d="M 603 4863 
L 1178 4863 
L 1178 0 
L 603 0 
L 603 4863 
z
" transform="scale(0.015625)"/>
        <path id="DejaVuSans-61" d="M 2194 1759 
Q 1497 1759 1228 1600 
Q 959 1441 959 1056 
Q 959 750 1161 570 
Q 1363 391 1709 391 
Q 2188 391 2477 730 
Q 2766 1069 2766 1631 
L 2766 1759 
L 2194 1759 
z
M 3341 1997 
L 3341 0 
L 2766 0 
L 2766 531 
Q 2569 213 2275 61 
Q 1981 -91 1556 -91 
Q 1019 -91 701 211 
Q 384 513 384 1019 
Q 384 1609 779 1909 
Q 1175 2209 1959 2209 
L 2766 2209 
L 2766 2266 
Q 2766 2663 2505 2880 
Q 2244 3097 1772 3097 
Q 1472 3097 1187 3025 
Q 903 2953 641 2809 
L 641 3341 
Q 956 3463 1253 3523 
Q 1550 3584 1831 3584 
Q 2591 3584 2966 3190 
Q 3341 2797 3341 1997 
z
" transform="scale(0.015625)"/>
        <path id="DejaVuSans-20" transform="scale(0.015625)"/>
        <path id="DejaVuSans-63" d="M 3122 3366 
L 3122 2828 
Q 2878 2963 2633 3030 
Q 2388 3097 2138 3097 
Q 1578 3097 1268 2742 
Q 959 2388 959 1747 
Q 959 1106 1268 751 
Q 1578 397 2138 397 
Q 2388 397 2633 464 
Q 2878 531 3122 666 
L 3122 134 
Q 2881 22 2623 -34 
Q 2366 -91 2075 -91 
Q 1284 -91 818 406 
Q 353 903 353 1747 
Q 353 2603 823 3093 
Q 1294 3584 2113 3584 
Q 2378 3584 2631 3529 
Q 2884 3475 3122 3366 
z
" transform="scale(0.015625)"/>
       </defs>
       <use xlink:href="#DejaVuSans-65"/>
       <use xlink:href="#DejaVuSans-70" transform="translate(61.523438 0)"/>
       <use xlink:href="#DejaVuSans-69" transform="translate(125 0)"/>
       <use xlink:href="#DejaVuSans-74" transform="translate(152.783203 0)"/>
       <use xlink:href="#DejaVuSans-68" transform="translate(191.992188 0)"/>
       <use xlink:href="#DejaVuSans-65" transform="translate(255.371094 0)"/>
       <use xlink:href="#DejaVuSans-6c" transform="translate(316.894531 0)"/>
       <use xlink:href="#DejaVuSans-69" transform="translate(344.677734 0)"/>
       <use xlink:href="#DejaVuSans-61" transform="translate(372.460938 0)"/>
       <use xlink:href="#DejaVuSans-6c" transform="translate(433.740234 0)"/>
       <use xlink:href="#DejaVuSans-20" transform="translate(461.523438 0)"/>
       <use xlink:href="#DejaVuSans-63" transform="translate(493.310547 0)"/>
       <use xlink:href="#DejaVuSans-65" transform="translate(548.291016 0)"/>
       <use xlink:href="#DejaVuSans-6c" transform="translate(609.814453 0)"/>
       <use xlink:href="#DejaVuSans-6c" transform="translate(637.597656 0)"/>
      </g>
     </g>
    </g>
    <g id="xtick_2">
     <g id="text_2">
      <!-- immune cell -->
      <g style="fill: #262626" transform="translate(288.890156 312.611875) rotate(-90) scale(0.1 -0.1)">
       <defs>
        <path id="DejaVuSans-6d" d="M 3328 2828 
Q 3544 3216 3844 3400 
Q 4144 3584 4550 3584 
Q 5097 3584 5394 3201 
Q 5691 2819 5691 2113 
L 5691 0 
L 5113 0 
L 5113 2094 
Q 5113 2597 4934 2840 
Q 4756 3084 4391 3084 
Q 3944 3084 3684 2787 
Q 3425 2491 3425 1978 
L 3425 0 
L 2847 0 
L 2847 2094 
Q 2847 2600 2669 2842 
Q 2491 3084 2119 3084 
Q 1678 3084 1418 2786 
Q 1159 2488 1159 1978 
L 1159 0 
L 581 0 
L 581 3500 
L 1159 3500 
L 1159 2956 
Q 1356 3278 1631 3431 
Q 1906 3584 2284 3584 
Q 2666 3584 2933 3390 
Q 3200 3197 3328 2828 
z
" transform="scale(0.015625)"/>
        <path id="DejaVuSans-75" d="M 544 1381 
L 544 3500 
L 1119 3500 
L 1119 1403 
Q 1119 906 1312 657 
Q 1506 409 1894 409 
Q 2359 409 2629 706 
Q 2900 1003 2900 1516 
L 2900 3500 
L 3475 3500 
L 3475 0 
L 2900 0 
L 2900 538 
Q 2691 219 2414 64 
Q 2138 -91 1772 -91 
Q 1169 -91 856 284 
Q 544 659 544 1381 
z
M 1991 3584 
L 1991 3584 
z
" transform="scale(0.015625)"/>
        <path id="DejaVuSans-6e" d="M 3513 2113 
L 3513 0 
L 2938 0 
L 2938 2094 
Q 2938 2591 2744 2837 
Q 2550 3084 2163 3084 
Q 1697 3084 1428 2787 
Q 1159 2491 1159 1978 
L 1159 0 
L 581 0 
L 581 3500 
L 1159 3500 
L 1159 2956 
Q 1366 3272 1645 3428 
Q 1925 3584 2291 3584 
Q 2894 3584 3203 3211 
Q 3513 2838 3513 2113 
z
" transform="scale(0.015625)"/>
       </defs>
       <use xlink:href="#DejaVuSans-69"/>
       <use xlink:href="#DejaVuSans-6d" transform="translate(27.783203 0)"/>
       <use xlink:href="#DejaVuSans-6d" transform="translate(125.195312 0)"/>
       <use xlink:href="#DejaVuSans-75" transform="translate(222.607422 0)"/>
       <use xlink:href="#DejaVuSans-6e" transform="translate(285.986328 0)"/>
       <use xlink:href="#DejaVuSans-65" transform="translate(349.365234 0)"/>
       <use xlink:href="#DejaVuSans-20" transform="translate(410.888672 0)"/>
       <use xlink:href="#DejaVuSans-63" transform="translate(442.675781 0)"/>
       <use xlink:href="#DejaVuSans-65" transform="translate(497.65625 0)"/>
       <use xlink:href="#DejaVuSans-6c" transform="translate(559.179688 0)"/>
       <use xlink:href="#DejaVuSans-6c" transform="translate(586.962891 0)"/>
      </g>
     </g>
    </g>
    <g id="xtick_3">
     <g id="text_3">
      <!-- mesenchymal cell -->
      <g style="fill: #262626" transform="translate(386.967656 341.519687) rotate(-90) scale(0.1 -0.1)">
       <defs>
        <path id="DejaVuSans-73" d="M 2834 3397 
L 2834 2853 
Q 2591 2978 2328 3040 
Q 2066 3103 1784 3103 
Q 1356 3103 1142 2972 
Q 928 2841 928 2578 
Q 928 2378 1081 2264 
Q 1234 2150 1697 2047 
L 1894 2003 
Q 2506 1872 2764 1633 
Q 3022 1394 3022 966 
Q 3022 478 2636 193 
Q 2250 -91 1575 -91 
Q 1294 -91 989 -36 
Q 684 19 347 128 
L 347 722 
Q 666 556 975 473 
Q 1284 391 1588 391 
Q 1994 391 2212 530 
Q 2431 669 2431 922 
Q 2431 1156 2273 1281 
Q 2116 1406 1581 1522 
L 1381 1569 
Q 847 1681 609 1914 
Q 372 2147 372 2553 
Q 372 3047 722 3315 
Q 1072 3584 1716 3584 
Q 2034 3584 2315 3537 
Q 2597 3491 2834 3397 
z
" transform="scale(0.015625)"/>
        <path id="DejaVuSans-79" d="M 2059 -325 
Q 1816 -950 1584 -1140 
Q 1353 -1331 966 -1331 
L 506 -1331 
L 506 -850 
L 844 -850 
Q 1081 -850 1212 -737 
Q 1344 -625 1503 -206 
L 1606 56 
L 191 3500 
L 800 3500 
L 1894 763 
L 2988 3500 
L 3597 3500 
L 2059 -325 
z
" transform="scale(0.015625)"/>
       </defs>
       <use xlink:href="#DejaVuSans-6d"/>
       <use xlink:href="#DejaVuSans-65" transform="translate(97.412109 0)"/>
       <use xlink:href="#DejaVuSans-73" transform="translate(158.935547 0)"/>
       <use xlink:href="#DejaVuSans-65" transform="translate(211.035156 0)"/>
       <use xlink:href="#DejaVuSans-6e" transform="translate(272.558594 0)"/>
       <use xlink:href="#DejaVuSans-63" transform="translate(335.9375 0)"/>
       <use xlink:href="#DejaVuSans-68" transform="translate(390.917969 0)"/>
       <use xlink:href="#DejaVuSans-79" transform="translate(454.296875 0)"/>
       <use xlink:href="#DejaVuSans-6d" transform="translate(513.476562 0)"/>
       <use xlink:href="#DejaVuSans-61" transform="translate(610.888672 0)"/>
       <use xlink:href="#DejaVuSans-6c" transform="translate(672.167969 0)"/>
       <use xlink:href="#DejaVuSans-20" transform="translate(699.951172 0)"/>
       <use xlink:href="#DejaVuSans-63" transform="translate(731.738281 0)"/>
       <use xlink:href="#DejaVuSans-65" transform="translate(786.71875 0)"/>
       <use xlink:href="#DejaVuSans-6c" transform="translate(848.242188 0)"/>
       <use xlink:href="#DejaVuSans-6c" transform="translate(876.025391 0)"/>
      </g>
     </g>
    </g>
    <g id="xtick_4">
     <g id="text_4">
      <!-- unknown cell -->
      <g style="fill: #262626" transform="translate(485.045156 316.961875) rotate(-90) scale(0.1 -0.1)">
       <defs>
        <path id="DejaVuSans-6b" d="M 581 4863 
L 1159 4863 
L 1159 1991 
L 2875 3500 
L 3609 3500 
L 1753 1863 
L 3688 0 
L 2938 0 
L 1159 1709 
L 1159 0 
L 581 0 
L 581 4863 
z
" transform="scale(0.015625)"/>
        <path id="DejaVuSans-6f" d="M 1959 3097 
Q 1497 3097 1228 2736 
Q 959 2375 959 1747 
Q 959 1119 1226 758 
Q 1494 397 1959 397 
Q 2419 397 2687 759 
Q 2956 1122 2956 1747 
Q 2956 2369 2687 2733 
Q 2419 3097 1959 3097 
z
M 1959 3584 
Q 2709 3584 3137 3096 
Q 3566 2609 3566 1747 
Q 3566 888 3137 398 
Q 2709 -91 1959 -91 
Q 1206 -91 779 398 
Q 353 888 353 1747 
Q 353 2609 779 3096 
Q 1206 3584 1959 3584 
z
" transform="scale(0.015625)"/>
        <path id="DejaVuSans-77" d="M 269 3500 
L 844 3500 
L 1563 769 
L 2278 3500 
L 2956 3500 
L 3675 769 
L 4391 3500 
L 4966 3500 
L 4050 0 
L 3372 0 
L 2619 2869 
L 1863 0 
L 1184 0 
L 269 3500 
z
" transform="scale(0.015625)"/>
       </defs>
       <use xlink:href="#DejaVuSans-75"/>
       <use xlink:href="#DejaVuSans-6e" transform="translate(63.378906 0)"/>
       <use xlink:href="#DejaVuSans-6b" transform="translate(126.757812 0)"/>
       <use xlink:href="#DejaVuSans-6e" transform="translate(184.667969 0)"/>
       <use xlink:href="#DejaVuSans-6f" transform="translate(248.046875 0)"/>
       <use xlink:href="#DejaVuSans-77" transform="translate(309.228516 0)"/>
       <use xlink:href="#DejaVuSans-6e" transform="translate(391.015625 0)"/>
       <use xlink:href="#DejaVuSans-20" transform="translate(454.394531 0)"/>
       <use xlink:href="#DejaVuSans-63" transform="translate(486.181641 0)"/>
       <use xlink:href="#DejaVuSans-65" transform="translate(541.162109 0)"/>
       <use xlink:href="#DejaVuSans-6c" transform="translate(602.685547 0)"/>
       <use xlink:href="#DejaVuSans-6c" transform="translate(630.46875 0)"/>
      </g>
     </g>
    </g>
    <g id="text_5">
     <!-- Level One Cell Type -->
     <g style="fill: #262626" transform="translate(291.03125 353.118125) scale(0.1 -0.1)">
      <defs>
       <path id="DejaVuSans-4c" d="M 628 4666 
L 1259 4666 
L 1259 531 
L 3531 531 
L 3531 0 
L 628 0 
L 628 4666 
z
" transform="scale(0.015625)"/>
       <path id="DejaVuSans-76" d="M 191 3500 
L 800 3500 
L 1894 563 
L 2988 3500 
L 3597 3500 
L 2284 0 
L 1503 0 
L 191 3500 
z
" transform="scale(0.015625)"/>
       <path id="DejaVuSans-4f" d="M 2522 4238 
Q 1834 4238 1429 3725 
Q 1025 3213 1025 2328 
Q 1025 1447 1429 934 
Q 1834 422 2522 422 
Q 3209 422 3611 934 
Q 4013 1447 4013 2328 
Q 4013 3213 3611 3725 
Q 3209 4238 2522 4238 
z
M 2522 4750 
Q 3503 4750 4090 4092 
Q 4678 3434 4678 2328 
Q 4678 1225 4090 567 
Q 3503 -91 2522 -91 
Q 1538 -91 948 565 
Q 359 1222 359 2328 
Q 359 3434 948 4092 
Q 1538 4750 2522 4750 
z
" transform="scale(0.015625)"/>
       <path id="DejaVuSans-43" d="M 4122 4306 
L 4122 3641 
Q 3803 3938 3442 4084 
Q 3081 4231 2675 4231 
Q 1875 4231 1450 3742 
Q 1025 3253 1025 2328 
Q 1025 1406 1450 917 
Q 1875 428 2675 428 
Q 3081 428 3442 575 
Q 3803 722 4122 1019 
L 4122 359 
Q 3791 134 3420 21 
Q 3050 -91 2638 -91 
Q 1578 -91 968 557 
Q 359 1206 359 2328 
Q 359 3453 968 4101 
Q 1578 4750 2638 4750 
Q 3056 4750 3426 4639 
Q 3797 4528 4122 4306 
z
" transform="scale(0.015625)"/>
       <path id="DejaVuSans-54" d="M -19 4666 
L 3928 4666 
L 3928 4134 
L 2272 4134 
L 2272 0 
L 1638 0 
L 1638 4134 
L -19 4134 
L -19 4666 
z
" transform="scale(0.015625)"/>
      </defs>
      <use xlink:href="#DejaVuSans-4c"/>
      <use xlink:href="#DejaVuSans-65" transform="translate(53.962891 0)"/>
      <use xlink:href="#DejaVuSans-76" transform="translate(115.486328 0)"/>
      <use xlink:href="#DejaVuSans-65" transform="translate(174.666016 0)"/>
      <use xlink:href="#DejaVuSans-6c" transform="translate(236.189453 0)"/>
      <use xlink:href="#DejaVuSans-20" transform="translate(263.972656 0)"/>
      <use xlink:href="#DejaVuSans-4f" transform="translate(295.759766 0)"/>
      <use xlink:href="#DejaVuSans-6e" transform="translate(374.470703 0)"/>
      <use xlink:href="#DejaVuSans-65" transform="translate(437.849609 0)"/>
      <use xlink:href="#DejaVuSans-20" transform="translate(499.373047 0)"/>
      <use xlink:href="#DejaVuSans-43" transform="translate(531.160156 0)"/>
      <use xlink:href="#DejaVuSans-65" transform="translate(600.984375 0)"/>
      <use xlink:href="#DejaVuSans-6c" transform="translate(662.507812 0)"/>
      <use xlink:href="#DejaVuSans-6c" transform="translate(690.291016 0)"/>
      <use xlink:href="#DejaVuSans-20" transform="translate(718.074219 0)"/>
      <use xlink:href="#DejaVuSans-54" transform="translate(749.861328 0)"/>
      <use xlink:href="#DejaVuSans-79" transform="translate(795.320312 0)"/>
      <use xlink:href="#DejaVuSans-70" transform="translate(854.5 0)"/>
      <use xlink:href="#DejaVuSans-65" transform="translate(917.976562 0)"/>
     </g>
    </g>
   </g>
   <g id="matplotlib.axis_2">
    <g id="ytick_1">
     <g id="line2d_1">
      <path d="M 143.853594 236.028227 
L 536.163594 236.028227 
" clip-path="url(#p53f3459ff1)" style="fill: none; stroke: #cccccc; stroke-linecap: round"/>
     </g>
     <g id="text_6">
      <!-- 0 -->
      <g style="fill: #262626" transform="translate(127.991094 239.827446) scale(0.1 -0.1)">
       <defs>
        <path id="DejaVuSans-30" d="M 2034 4250 
Q 1547 4250 1301 3770 
Q 1056 3291 1056 2328 
Q 1056 1369 1301 889 
Q 1547 409 2034 409 
Q 2525 409 2770 889 
Q 3016 1369 3016 2328 
Q 3016 3291 2770 3770 
Q 2525 4250 2034 4250 
z
M 2034 4750 
Q 2819 4750 3233 4129 
Q 3647 3509 3647 2328 
Q 3647 1150 3233 529 
Q 2819 -91 2034 -91 
Q 1250 -91 836 529 
Q 422 1150 422 2328 
Q 422 3509 836 4129 
Q 1250 4750 2034 4750 
z
" transform="scale(0.015625)"/>
       </defs>
       <use xlink:href="#DejaVuSans-30"/>
      </g>
     </g>
    </g>
    <g id="ytick_2">
     <g id="line2d_2">
      <path d="M 143.853594 191.697201 
L 536.163594 191.697201 
" clip-path="url(#p53f3459ff1)" style="fill: none; stroke: #cccccc; stroke-linecap: round"/>
     </g>
     <g id="text_7">
      <!-- 50 -->
      <g style="fill: #262626" transform="translate(121.628594 195.49642) scale(0.1 -0.1)">
       <defs>
        <path id="DejaVuSans-35" d="M 691 4666 
L 3169 4666 
L 3169 4134 
L 1269 4134 
L 1269 2991 
Q 1406 3038 1543 3061 
Q 1681 3084 1819 3084 
Q 2600 3084 3056 2656 
Q 3513 2228 3513 1497 
Q 3513 744 3044 326 
Q 2575 -91 1722 -91 
Q 1428 -91 1123 -41 
Q 819 9 494 109 
L 494 744 
Q 775 591 1075 516 
Q 1375 441 1709 441 
Q 2250 441 2565 725 
Q 2881 1009 2881 1497 
Q 2881 1984 2565 2268 
Q 2250 2553 1709 2553 
Q 1456 2553 1204 2497 
Q 953 2441 691 2322 
L 691 4666 
z
" transform="scale(0.015625)"/>
       </defs>
       <use xlink:href="#DejaVuSans-35"/>
       <use xlink:href="#DejaVuSans-30" transform="translate(63.623047 0)"/>
      </g>
     </g>
    </g>
    <g id="ytick_3">
     <g id="line2d_3">
      <path d="M 143.853594 147.366176 
L 536.163594 147.366176 
" clip-path="url(#p53f3459ff1)" style="fill: none; stroke: #cccccc; stroke-linecap: round"/>
     </g>
     <g id="text_8">
      <!-- 100 -->
      <g style="fill: #262626" transform="translate(115.266094 151.165395) scale(0.1 -0.1)">
       <defs>
        <path id="DejaVuSans-31" d="M 794 531 
L 1825 531 
L 1825 4091 
L 703 3866 
L 703 4441 
L 1819 4666 
L 2450 4666 
L 2450 531 
L 3481 531 
L 3481 0 
L 794 0 
L 794 531 
z
" transform="scale(0.015625)"/>
       </defs>
       <use xlink:href="#DejaVuSans-31"/>
       <use xlink:href="#DejaVuSans-30" transform="translate(63.623047 0)"/>
       <use xlink:href="#DejaVuSans-30" transform="translate(127.246094 0)"/>
      </g>
     </g>
    </g>
    <g id="ytick_4">
     <g id="line2d_4">
      <path d="M 143.853594 103.035151 
L 536.163594 103.035151 
" clip-path="url(#p53f3459ff1)" style="fill: none; stroke: #cccccc; stroke-linecap: round"/>
     </g>
     <g id="text_9">
      <!-- 150 -->
      <g style="fill: #262626" transform="translate(115.266094 106.83437) scale(0.1 -0.1)">
       <use xlink:href="#DejaVuSans-31"/>
       <use xlink:href="#DejaVuSans-35" transform="translate(63.623047 0)"/>
       <use xlink:href="#DejaVuSans-30" transform="translate(127.246094 0)"/>
      </g>
     </g>
    </g>
    <g id="ytick_5">
     <g id="line2d_5">
      <path d="M 143.853594 58.704125 
L 536.163594 58.704125 
" clip-path="url(#p53f3459ff1)" style="fill: none; stroke: #cccccc; stroke-linecap: round"/>
     </g>
     <g id="text_10">
      <!-- 200 -->
      <g style="fill: #262626" transform="translate(115.266094 62.503344) scale(0.1 -0.1)">
       <defs>
        <path id="DejaVuSans-32" d="M 1228 531 
L 3431 531 
L 3431 0 
L 469 0 
L 469 531 
Q 828 903 1448 1529 
Q 2069 2156 2228 2338 
Q 2531 2678 2651 2914 
Q 2772 3150 2772 3378 
Q 2772 3750 2511 3984 
Q 2250 4219 1831 4219 
Q 1534 4219 1204 4116 
Q 875 4013 500 3803 
L 500 4441 
Q 881 4594 1212 4672 
Q 1544 4750 1819 4750 
Q 2544 4750 2975 4387 
Q 3406 4025 3406 3419 
Q 3406 3131 3298 2873 
Q 3191 2616 2906 2266 
Q 2828 2175 2409 1742 
Q 1991 1309 1228 531 
z
" transform="scale(0.015625)"/>
       </defs>
       <use xlink:href="#DejaVuSans-32"/>
       <use xlink:href="#DejaVuSans-30" transform="translate(63.623047 0)"/>
       <use xlink:href="#DejaVuSans-30" transform="translate(127.246094 0)"/>
      </g>
     </g>
    </g>
    <g id="text_11">
     <!-- Distance (μm) -->
     <g style="fill: #262626" transform="translate(109.186406 181.223125) rotate(-90) scale(0.1 -0.1)">
      <defs>
       <path id="DejaVuSans-44" d="M 1259 4147 
L 1259 519 
L 2022 519 
Q 2988 519 3436 956 
Q 3884 1394 3884 2338 
Q 3884 3275 3436 3711 
Q 2988 4147 2022 4147 
L 1259 4147 
z
M 628 4666 
L 1925 4666 
Q 3281 4666 3915 4102 
Q 4550 3538 4550 2338 
Q 4550 1131 3912 565 
Q 3275 0 1925 0 
L 628 0 
L 628 4666 
z
" transform="scale(0.015625)"/>
       <path id="DejaVuSans-28" d="M 1984 4856 
Q 1566 4138 1362 3434 
Q 1159 2731 1159 2009 
Q 1159 1288 1364 580 
Q 1569 -128 1984 -844 
L 1484 -844 
Q 1016 -109 783 600 
Q 550 1309 550 2009 
Q 550 2706 781 3412 
Q 1013 4119 1484 4856 
L 1984 4856 
z
" transform="scale(0.015625)"/>
       <path id="DejaVuSans-3bc" d="M 544 -1331 
L 544 3500 
L 1119 3500 
L 1119 1325 
Q 1119 872 1334 640 
Q 1550 409 1972 409 
Q 2434 409 2667 671 
Q 2900 934 2900 1459 
L 2900 3500 
L 3475 3500 
L 3475 806 
Q 3475 619 3529 530 
Q 3584 441 3700 441 
Q 3728 441 3778 458 
Q 3828 475 3916 513 
L 3916 50 
Q 3788 -22 3673 -56 
Q 3559 -91 3450 -91 
Q 3234 -91 3106 31 
Q 2978 153 2931 403 
Q 2775 156 2548 32 
Q 2322 -91 2016 -91 
Q 1697 -91 1473 31 
Q 1250 153 1119 397 
L 1119 -1331 
L 544 -1331 
z
" transform="scale(0.015625)"/>
       <path id="DejaVuSans-29" d="M 513 4856 
L 1013 4856 
Q 1481 4119 1714 3412 
Q 1947 2706 1947 2009 
Q 1947 1309 1714 600 
Q 1481 -109 1013 -844 
L 513 -844 
Q 928 -128 1133 580 
Q 1338 1288 1338 2009 
Q 1338 2731 1133 3434 
Q 928 4138 513 4856 
z
" transform="scale(0.015625)"/>
      </defs>
      <use xlink:href="#DejaVuSans-44"/>
      <use xlink:href="#DejaVuSans-69" transform="translate(77.001953 0)"/>
      <use xlink:href="#DejaVuSans-73" transform="translate(104.785156 0)"/>
      <use xlink:href="#DejaVuSans-74" transform="translate(156.884766 0)"/>
      <use xlink:href="#DejaVuSans-61" transform="translate(196.09375 0)"/>
      <use xlink:href="#DejaVuSans-6e" transform="translate(257.373047 0)"/>
      <use xlink:href="#DejaVuSans-63" transform="translate(320.751953 0)"/>
      <use xlink:href="#DejaVuSans-65" transform="translate(375.732422 0)"/>
      <use xlink:href="#DejaVuSans-20" transform="translate(437.255859 0)"/>
      <use xlink:href="#DejaVuSans-28" transform="translate(469.042969 0)"/>
      <use xlink:href="#DejaVuSans-3bc" transform="translate(508.056641 0)"/>
      <use xlink:href="#DejaVuSans-6d" transform="translate(571.679688 0)"/>
      <use xlink:href="#DejaVuSans-29" transform="translate(669.091797 0)"/>
     </g>
    </g>
   </g>
   <g id="FillBetweenPolyCollection_1">
    <defs>
     <path id="md6d7c0f8b8" d="M 195.205646 -159.676278 
L 190.579041 -159.676278 
L 189.411674 -161.421855 
L 188.086795 -163.167433 
L 186.742966 -164.913011 
L 185.516087 -166.658588 
L 184.498338 -168.404166 
L 183.7223 -170.149744 
L 183.171448 -171.895321 
L 182.803196 -173.640899 
L 182.56978 -175.386477 
L 182.43062 -177.132054 
L 182.356895 -178.877632 
L 182.330896 -180.62321 
L 182.342198 -182.368787 
L 182.382845 -184.114365 
L 182.4442 -185.859943 
L 182.517097 -187.60552 
L 182.594568 -189.351098 
L 182.674695 -191.096676 
L 182.761249 -192.842253 
L 182.861435 -194.587831 
L 182.981856 -196.333409 
L 183.124938 -198.078986 
L 183.287943 -199.824564 
L 183.465165 -201.570142 
L 183.651826 -203.315719 
L 183.846775 -205.061297 
L 184.051849 -206.806875 
L 184.268323 -208.552452 
L 184.493433 -210.29803 
L 184.719968 -212.043607 
L 184.939411 -213.789185 
L 185.146286 -215.534763 
L 185.340768 -217.28034 
L 185.528116 -219.025918 
L 185.715576 -220.771496 
L 185.908771 -222.517073 
L 186.109636 -224.262651 
L 186.316633 -226.008229 
L 186.526196 -227.753806 
L 186.733843 -229.499384 
L 186.934614 -231.244962 
L 187.123818 -232.990539 
L 187.298571 -234.736117 
L 187.45913 -236.481695 
L 187.608641 -238.227272 
L 187.751321 -239.97285 
L 187.890566 -241.718428 
L 188.02817 -243.464005 
L 188.164453 -245.209583 
L 188.298486 -246.955161 
L 188.42836 -248.700738 
L 188.552012 -250.446316 
L 188.668444 -252.191894 
L 188.778355 -253.937471 
L 188.883641 -255.683049 
L 188.986351 -257.428627 
L 189.08798 -259.174204 
L 189.189139 -260.919782 
L 189.289282 -262.66536 
L 189.386719 -264.410937 
L 189.479489 -266.156515 
L 189.567001 -267.902093 
L 189.651184 -269.64767 
L 189.735816 -271.393248 
L 189.824125 -273.138826 
L 189.916495 -274.884403 
L 190.010179 -276.629981 
L 190.1011 -278.375559 
L 190.185968 -280.121136 
L 190.263045 -281.866714 
L 190.331655 -283.612291 
L 190.391811 -285.357869 
L 190.444734 -287.103447 
L 190.493485 -288.849024 
L 190.54243 -290.594602 
L 190.59535 -292.34018 
L 190.653536 -294.085757 
L 190.715371 -295.831335 
L 190.777675 -297.576913 
L 190.837676 -299.32249 
L 190.894303 -301.068068 
L 190.948283 -302.813646 
L 191.001378 -304.559223 
L 191.055236 -306.304801 
L 191.110297 -308.050379 
L 191.165332 -309.795956 
L 191.218087 -311.541534 
L 191.266789 -313.287112 
L 191.311342 -315.032689 
L 191.35327 -316.778267 
L 191.394742 -318.523845 
L 191.438083 -320.269422 
L 191.486729 -322.015 
L 191.546994 -323.760578 
L 191.628603 -325.506155 
L 191.742046 -327.251733 
L 191.8929 -328.997311 
L 192.076117 -330.742888 
L 192.274617 -332.488466 
L 193.510071 -332.488466 
L 193.510071 -332.488466 
L 193.70857 -330.742888 
L 193.891787 -328.997311 
L 194.042642 -327.251733 
L 194.156085 -325.506155 
L 194.237693 -323.760578 
L 194.297959 -322.015 
L 194.346604 -320.269422 
L 194.389945 -318.523845 
L 194.431418 -316.778267 
L 194.473345 -315.032689 
L 194.517898 -313.287112 
L 194.566601 -311.541534 
L 194.619356 -309.795956 
L 194.67439 -308.050379 
L 194.729451 -306.304801 
L 194.783309 -304.559223 
L 194.836405 -302.813646 
L 194.890385 -301.068068 
L 194.947011 -299.32249 
L 195.007012 -297.576913 
L 195.069316 -295.831335 
L 195.131152 -294.085757 
L 195.189338 -292.34018 
L 195.242258 -290.594602 
L 195.291202 -288.849024 
L 195.339953 -287.103447 
L 195.392877 -285.357869 
L 195.453033 -283.612291 
L 195.521642 -281.866714 
L 195.598719 -280.121136 
L 195.683588 -278.375559 
L 195.774508 -276.629981 
L 195.868192 -274.884403 
L 195.960562 -273.138826 
L 196.048872 -271.393248 
L 196.133504 -269.64767 
L 196.217687 -267.902093 
L 196.305198 -266.156515 
L 196.397968 -264.410937 
L 196.495405 -262.66536 
L 196.595549 -260.919782 
L 196.696707 -259.174204 
L 196.798336 -257.428627 
L 196.901046 -255.683049 
L 197.006332 -253.937471 
L 197.116244 -252.191894 
L 197.232675 -250.446316 
L 197.356328 -248.700738 
L 197.486202 -246.955161 
L 197.620234 -245.209583 
L 197.756517 -243.464005 
L 197.894122 -241.718428 
L 198.033367 -239.97285 
L 198.176047 -238.227272 
L 198.325557 -236.481695 
L 198.486116 -234.736117 
L 198.660869 -232.990539 
L 198.850074 -231.244962 
L 199.050845 -229.499384 
L 199.258491 -227.753806 
L 199.468054 -226.008229 
L 199.675051 -224.262651 
L 199.875916 -222.517073 
L 200.069112 -220.771496 
L 200.256572 -219.025918 
L 200.443919 -217.28034 
L 200.638401 -215.534763 
L 200.845276 -213.789185 
L 201.06472 -212.043607 
L 201.291255 -210.29803 
L 201.516364 -208.552452 
L 201.732839 -206.806875 
L 201.937912 -205.061297 
L 202.132862 -203.315719 
L 202.319523 -201.570142 
L 202.496745 -199.824564 
L 202.659749 -198.078986 
L 202.802832 -196.333409 
L 202.923252 -194.587831 
L 203.023439 -192.842253 
L 203.109992 -191.096676 
L 203.190119 -189.351098 
L 203.267591 -187.60552 
L 203.340487 -185.859943 
L 203.401842 -184.114365 
L 203.442489 -182.368787 
L 203.453792 -180.62321 
L 203.427793 -178.877632 
L 203.354067 -177.132054 
L 203.214907 -175.386477 
L 202.981491 -173.640899 
L 202.613239 -171.895321 
L 202.062388 -170.149744 
L 201.286349 -168.404166 
L 200.268601 -166.658588 
L 199.041722 -164.913011 
L 197.697893 -163.167433 
L 196.373014 -161.421855 
L 195.205646 -159.676278 
z
" style="stroke: #595959; stroke-opacity: 0.9; stroke-width: 1.25"/>
    </defs>
    <g clip-path="url(#p53f3459ff1)">
     <use xlink:href="#md6d7c0f8b8" x="0" y="391.197812" style="fill: #de7959; fill-opacity: 0.9; stroke: #595959; stroke-opacity: 0.9; stroke-width: 1.25"/>
    </g>
   </g>
   <g id="FillBetweenPolyCollection_2">
    <defs>
     <path id="m590ef8db1f" d="M 294.266825 -158.270284 
L 287.672862 -158.270284 
L 284.987385 -160.030047 
L 281.606685 -161.789809 
L 278.079316 -163.549572 
L 274.967902 -165.309334 
L 272.548024 -167.069097 
L 270.763529 -168.828859 
L 269.412424 -170.588622 
L 268.333868 -172.348384 
L 267.458518 -174.108147 
L 266.769785 -175.867909 
L 266.266504 -177.627672 
L 265.945011 -179.387434 
L 265.779567 -181.147197 
L 265.708786 -182.906959 
L 265.653606 -184.666722 
L 265.562767 -186.426484 
L 265.447915 -188.186247 
L 265.373316 -189.946009 
L 265.403982 -191.705772 
L 265.558244 -193.465534 
L 265.809181 -195.225297 
L 266.12572 -196.985059 
L 266.50128 -198.744822 
L 266.94119 -200.504584 
L 267.435202 -202.264347 
L 267.954501 -204.024109 
L 268.475279 -205.783872 
L 268.999172 -207.543634 
L 269.548362 -209.303397 
L 270.139701 -211.063159 
L 270.761579 -212.822922 
L 271.377527 -214.582684 
L 271.955426 -216.342447 
L 272.491804 -218.102209 
L 273.00616 -219.861972 
L 273.516418 -221.621734 
L 274.025114 -223.381497 
L 274.526364 -225.141259 
L 275.018162 -226.901022 
L 275.505082 -228.660784 
L 275.99301 -230.420547 
L 276.483561 -232.180309 
L 276.969684 -233.940072 
L 277.433602 -235.699834 
L 277.853996 -237.459597 
L 278.222879 -239.219359 
L 278.556085 -240.979122 
L 278.882985 -242.738884 
L 279.224488 -244.498647 
L 279.581545 -246.258409 
L 279.941833 -248.018172 
L 280.292977 -249.777934 
L 280.630225 -251.537697 
L 280.956935 -253.297459 
L 281.280204 -255.057222 
L 281.603635 -256.816984 
L 281.922653 -258.576747 
L 282.2281 -260.336509 
L 282.514281 -262.096272 
L 282.781769 -263.856034 
L 283.034568 -265.615797 
L 283.279224 -267.375559 
L 283.525264 -269.135322 
L 283.779438 -270.895084 
L 284.036566 -272.654847 
L 284.279721 -274.414609 
L 284.493723 -276.174372 
L 284.67971 -277.934134 
L 284.855247 -279.693897 
L 285.039172 -281.453659 
L 285.238315 -283.213422 
L 285.450301 -284.973184 
L 285.674015 -286.732947 
L 285.91036 -288.492709 
L 286.15353 -290.252472 
L 286.387374 -292.012234 
L 286.593737 -293.771997 
L 286.765365 -295.531759 
L 286.911297 -297.291522 
L 287.049129 -299.051284 
L 287.190856 -300.811047 
L 287.335625 -302.570809 
L 287.475038 -304.330572 
L 287.603204 -306.090334 
L 287.721497 -307.850097 
L 287.836104 -309.609859 
L 287.951576 -311.369622 
L 288.065439 -313.129384 
L 288.170298 -314.889147 
L 288.262734 -316.648909 
L 288.348113 -318.408672 
L 288.435432 -320.168434 
L 288.530708 -321.928197 
L 288.638709 -323.687959 
L 288.77164 -325.447722 
L 288.95474 -327.207484 
L 289.217339 -328.967247 
L 289.567268 -330.727009 
L 289.968128 -332.486772 
L 291.971559 -332.486772 
L 291.971559 -332.486772 
L 292.372419 -330.727009 
L 292.722348 -328.967247 
L 292.984948 -327.207484 
L 293.168047 -325.447722 
L 293.300978 -323.687959 
L 293.40898 -321.928197 
L 293.504256 -320.168434 
L 293.591575 -318.408672 
L 293.676954 -316.648909 
L 293.76939 -314.889147 
L 293.874249 -313.129384 
L 293.988112 -311.369622 
L 294.103583 -309.609859 
L 294.218191 -307.850097 
L 294.336484 -306.090334 
L 294.46465 -304.330572 
L 294.604063 -302.570809 
L 294.748832 -300.811047 
L 294.890558 -299.051284 
L 295.02839 -297.291522 
L 295.174322 -295.531759 
L 295.34595 -293.771997 
L 295.552313 -292.012234 
L 295.786158 -290.252472 
L 296.029327 -288.492709 
L 296.265673 -286.732947 
L 296.489387 -284.973184 
L 296.701373 -283.213422 
L 296.900515 -281.453659 
L 297.08444 -279.693897 
L 297.259977 -277.934134 
L 297.445965 -276.174372 
L 297.659966 -274.414609 
L 297.903121 -272.654847 
L 298.16025 -270.895084 
L 298.414424 -269.135322 
L 298.660464 -267.375559 
L 298.905119 -265.615797 
L 299.157918 -263.856034 
L 299.425406 -262.096272 
L 299.711588 -260.336509 
L 300.017034 -258.576747 
L 300.336052 -256.816984 
L 300.659483 -255.057222 
L 300.982752 -253.297459 
L 301.309462 -251.537697 
L 301.646711 -249.777934 
L 301.997855 -248.018172 
L 302.358143 -246.258409 
L 302.7152 -244.498647 
L 303.056703 -242.738884 
L 303.383602 -240.979122 
L 303.716809 -239.219359 
L 304.085691 -237.459597 
L 304.506085 -235.699834 
L 304.970003 -233.940072 
L 305.456127 -232.180309 
L 305.946677 -230.420547 
L 306.434606 -228.660784 
L 306.921525 -226.901022 
L 307.413323 -225.141259 
L 307.914574 -223.381497 
L 308.42327 -221.621734 
L 308.933527 -219.861972 
L 309.447884 -218.102209 
L 309.984262 -216.342447 
L 310.562161 -214.582684 
L 311.178108 -212.822922 
L 311.799986 -211.063159 
L 312.391326 -209.303397 
L 312.940516 -207.543634 
L 313.464409 -205.783872 
L 313.985186 -204.024109 
L 314.504485 -202.264347 
L 314.998497 -200.504584 
L 315.438407 -198.744822 
L 315.813967 -196.985059 
L 316.130507 -195.225297 
L 316.381444 -193.465534 
L 316.535706 -191.705772 
L 316.566372 -189.946009 
L 316.491773 -188.186247 
L 316.376921 -186.426484 
L 316.286082 -184.666722 
L 316.230901 -182.906959 
L 316.16012 -181.147197 
L 315.994677 -179.387434 
L 315.673183 -177.627672 
L 315.169902 -175.867909 
L 314.481169 -174.108147 
L 313.605819 -172.348384 
L 312.527263 -170.588622 
L 311.176158 -168.828859 
L 309.391664 -167.069097 
L 306.971786 -165.309334 
L 303.860371 -163.549572 
L 300.333002 -161.789809 
L 296.952303 -160.030047 
L 294.266825 -158.270284 
z
" style="stroke: #595959; stroke-opacity: 0.9; stroke-width: 1.25"/>
    </defs>
    <g clip-path="url(#p53f3459ff1)">
     <use xlink:href="#m590ef8db1f" x="0" y="391.197812" style="fill: #f0d999; fill-opacity: 0.9; stroke: #595959; stroke-opacity: 0.9; stroke-width: 1.25"/>
    </g>
   </g>
   <g id="FillBetweenPolyCollection_3">
    <defs>
     <path id="m7fe53e2bfe" d="M 396.680056 -158.636272 
L 381.414632 -158.636272 
L 375.130804 -160.3923 
L 367.553274 -162.148328 
L 360.314669 -163.904356 
L 354.878518 -165.660384 
L 351.715575 -167.416412 
L 350.329228 -169.17244 
L 349.897476 -170.928468 
L 349.816344 -172.684496 
L 349.820179 -174.440524 
L 349.856963 -176.196552 
L 349.958059 -177.95258 
L 350.163601 -179.708608 
L 350.480913 -181.464636 
L 350.877161 -183.220664 
L 351.308857 -184.976692 
L 351.757034 -186.73272 
L 352.233281 -188.488748 
L 352.756867 -190.244776 
L 353.331675 -192.000804 
L 353.942497 -193.756832 
L 354.56497 -195.51286 
L 355.179726 -197.268888 
L 355.78559 -199.024916 
L 356.397972 -200.780944 
L 357.02627 -202.536972 
L 357.657022 -204.293 
L 358.271899 -206.049028 
L 358.879039 -207.805056 
L 359.510125 -209.561084 
L 360.184891 -211.317112 
L 360.890755 -213.07314 
L 361.59983 -214.829168 
L 362.298337 -216.585196 
L 362.995533 -218.341224 
L 363.706771 -220.097252 
L 364.435379 -221.85328 
L 365.175003 -223.609308 
L 365.91884 -225.365336 
L 366.654386 -227.121364 
L 367.358861 -228.877392 
L 368.015827 -230.63342 
L 368.630526 -232.389448 
L 369.216073 -234.145476 
L 369.769524 -235.901504 
L 370.274976 -237.657532 
L 370.734145 -239.41356 
L 371.185838 -241.169588 
L 371.68225 -242.925616 
L 372.240934 -244.681644 
L 372.82635 -246.437672 
L 373.381416 -248.1937 
L 373.872936 -249.949728 
L 374.310576 -251.705756 
L 374.733008 -253.461784 
L 375.175966 -255.217812 
L 375.644384 -256.97384 
L 376.111029 -258.729868 
L 376.543406 -260.485896 
L 376.932332 -262.241924 
L 377.296216 -263.997952 
L 377.662165 -265.75398 
L 378.043005 -267.510008 
L 378.427388 -269.266036 
L 378.789536 -271.022064 
L 379.110076 -272.778092 
L 379.389725 -274.53412 
L 379.646542 -276.290148 
L 379.902846 -278.046176 
L 380.171674 -279.802204 
L 380.45098 -281.558232 
L 380.730033 -283.31426 
L 380.999957 -285.070288 
L 381.25604 -286.826316 
L 381.494856 -288.582344 
L 381.716645 -290.338372 
L 381.930121 -292.0944 
L 382.150838 -293.850428 
L 382.394138 -295.606456 
L 382.667004 -297.362484 
L 382.95981 -299.118512 
L 383.245195 -300.87454 
L 383.492827 -302.630568 
L 383.691377 -304.386596 
L 383.856335 -306.142624 
L 384.014504 -307.898652 
L 384.180021 -309.65468 
L 384.346818 -311.410708 
L 384.504284 -313.166736 
L 384.654387 -314.922764 
L 384.808142 -316.678792 
L 384.968887 -318.43482 
L 385.125984 -320.190848 
L 385.265243 -321.946876 
L 385.384288 -323.702904 
L 385.507261 -325.458932 
L 385.696664 -327.21496 
L 386.039544 -328.970988 
L 386.586112 -330.727016 
L 387.280436 -332.483044 
L 390.814252 -332.483044 
L 390.814252 -332.483044 
L 391.508576 -330.727016 
L 392.055143 -328.970988 
L 392.398024 -327.21496 
L 392.587427 -325.458932 
L 392.7104 -323.702904 
L 392.829445 -321.946876 
L 392.968704 -320.190848 
L 393.1258 -318.43482 
L 393.286545 -316.678792 
L 393.4403 -314.922764 
L 393.590404 -313.166736 
L 393.74787 -311.410708 
L 393.914666 -309.65468 
L 394.080184 -307.898652 
L 394.238352 -306.142624 
L 394.40331 -304.386596 
L 394.60186 -302.630568 
L 394.849493 -300.87454 
L 395.134878 -299.118512 
L 395.427683 -297.362484 
L 395.70055 -295.606456 
L 395.943849 -293.850428 
L 396.164566 -292.0944 
L 396.378042 -290.338372 
L 396.599831 -288.582344 
L 396.838648 -286.826316 
L 397.09473 -285.070288 
L 397.364654 -283.31426 
L 397.643707 -281.558232 
L 397.923013 -279.802204 
L 398.191841 -278.046176 
L 398.448145 -276.290148 
L 398.704962 -274.53412 
L 398.984612 -272.778092 
L 399.305152 -271.022064 
L 399.667299 -269.266036 
L 400.051683 -267.510008 
L 400.432522 -265.75398 
L 400.798471 -263.997952 
L 401.162356 -262.241924 
L 401.551282 -260.485896 
L 401.983659 -258.729868 
L 402.450303 -256.97384 
L 402.918721 -255.217812 
L 403.36168 -253.461784 
L 403.784112 -251.705756 
L 404.221752 -249.949728 
L 404.713271 -248.1937 
L 405.268338 -246.437672 
L 405.853753 -244.681644 
L 406.412438 -242.925616 
L 406.90885 -241.169588 
L 407.360542 -239.41356 
L 407.819712 -237.657532 
L 408.325163 -235.901504 
L 408.878615 -234.145476 
L 409.464161 -232.389448 
L 410.07886 -230.63342 
L 410.735827 -228.877392 
L 411.440302 -227.121364 
L 412.175847 -225.365336 
L 412.919685 -223.609308 
L 413.659308 -221.85328 
L 414.387916 -220.097252 
L 415.099155 -218.341224 
L 415.79635 -216.585196 
L 416.494858 -214.829168 
L 417.203933 -213.07314 
L 417.909796 -211.317112 
L 418.584562 -209.561084 
L 419.215649 -207.805056 
L 419.822788 -206.049028 
L 420.437666 -204.293 
L 421.068418 -202.536972 
L 421.696716 -200.780944 
L 422.309097 -199.024916 
L 422.914961 -197.268888 
L 423.529718 -195.51286 
L 424.15219 -193.756832 
L 424.763012 -192.000804 
L 425.337821 -190.244776 
L 425.861407 -188.488748 
L 426.337654 -186.73272 
L 426.78583 -184.976692 
L 427.217527 -183.220664 
L 427.613774 -181.464636 
L 427.931086 -179.708608 
L 428.136629 -177.95258 
L 428.237725 -176.196552 
L 428.274509 -174.440524 
L 428.278344 -172.684496 
L 428.197211 -170.928468 
L 427.765459 -169.17244 
L 426.379113 -167.416412 
L 423.21617 -165.660384 
L 417.780019 -163.904356 
L 410.541414 -162.148328 
L 402.963883 -160.3923 
L 396.680056 -158.636272 
z
" style="stroke: #595959; stroke-opacity: 0.9; stroke-width: 1.25"/>
    </defs>
    <g clip-path="url(#p53f3459ff1)">
     <use xlink:href="#m7fe53e2bfe" x="0" y="391.197812" style="fill: #dee9a4; fill-opacity: 0.9; stroke: #595959; stroke-opacity: 0.9; stroke-width: 1.25"/>
    </g>
   </g>
   <g id="FillBetweenPolyCollection_4">
    <defs>
     <path id="mfa6b844480" d="M 488.659317 -158.903321 
L 485.590371 -158.903321 
L 484.776377 -160.656689 
L 483.861887 -162.410057 
L 482.962431 -164.163426 
L 482.183374 -165.916794 
L 481.58216 -167.670162 
L 481.159356 -169.42353 
L 480.877624 -171.176898 
L 480.690219 -172.930266 
L 480.561502 -174.683635 
L 480.473938 -176.437003 
L 480.425347 -178.190371 
L 480.421771 -179.943739 
L 480.469321 -181.697107 
L 480.567382 -183.450476 
L 480.705693 -185.203844 
L 480.866883 -186.957212 
L 481.033303 -188.71058 
L 481.19433 -190.463948 
L 481.349885 -192.217317 
L 481.507975 -193.970685 
L 481.677651 -195.724053 
L 481.861925 -197.477421 
L 482.055575 -199.230789 
L 482.249123 -200.984157 
L 482.435511 -202.737526 
L 482.614318 -204.490894 
L 482.790944 -206.244262 
L 482.971968 -207.99763 
L 483.159958 -209.750998 
L 483.350816 -211.504367 
L 483.535136 -213.257735 
L 483.702695 -215.011103 
L 483.847243 -216.764471 
L 483.968667 -218.517839 
L 484.071749 -220.271208 
L 484.163289 -222.024576 
L 484.249822 -223.777944 
L 484.336621 -225.531312 
L 484.427242 -227.28468 
L 484.523089 -229.038048 
L 484.623287 -230.791417 
L 484.725254 -232.544785 
L 484.825781 -234.298153 
L 484.922119 -236.051521 
L 485.012639 -237.804889 
L 485.096857 -239.558258 
L 485.175002 -241.311626 
L 485.24766 -243.064994 
L 485.315908 -244.818362 
L 485.381576 -246.57173 
L 485.446951 -248.325099 
L 485.513849 -250.078467 
L 485.582756 -251.831835 
L 485.652679 -253.585203 
L 485.721613 -255.338571 
L 485.78717 -257.091939 
L 485.847171 -258.845308 
L 485.90033 -260.598676 
L 485.946919 -262.352044 
L 485.988934 -264.105412 
L 486.029321 -265.85878 
L 486.070532 -267.612149 
L 486.113297 -269.365517 
L 486.156419 -271.118885 
L 486.197651 -272.872253 
L 486.235017 -274.625621 
L 486.267793 -276.37899 
L 486.296771 -278.132358 
L 486.323835 -279.885726 
L 486.351061 -281.639094 
L 486.379682 -283.392462 
L 486.40939 -285.14583 
L 486.438401 -286.899199 
L 486.464309 -288.652567 
L 486.485319 -290.405935 
L 486.501288 -292.159303 
L 486.513975 -293.912671 
L 486.526248 -295.66604 
L 486.540631 -297.419408 
L 486.558117 -299.172776 
L 486.577991 -300.926144 
L 486.598678 -302.679512 
L 486.618911 -304.432881 
L 486.638366 -306.186249 
L 486.657324 -307.939617 
L 486.675789 -309.692985 
L 486.692935 -311.446353 
L 486.707509 -313.199721 
L 486.718816 -314.95309 
L 486.727401 -316.706458 
L 486.73492 -318.459826 
L 486.74349 -320.213194 
L 486.755195 -321.966562 
L 486.772037 -323.719931 
L 486.796 -325.473299 
L 486.828715 -327.226667 
L 486.870527 -328.980035 
L 486.919475 -330.733403 
L 486.971073 -332.486772 
L 487.278615 -332.486772 
L 487.278615 -332.486772 
L 487.330213 -330.733403 
L 487.37916 -328.980035 
L 487.420973 -327.226667 
L 487.453688 -325.473299 
L 487.477651 -323.719931 
L 487.494492 -321.966562 
L 487.506198 -320.213194 
L 487.514768 -318.459826 
L 487.522286 -316.706458 
L 487.530872 -314.95309 
L 487.542178 -313.199721 
L 487.556753 -311.446353 
L 487.573899 -309.692985 
L 487.592363 -307.939617 
L 487.611322 -306.186249 
L 487.630776 -304.432881 
L 487.651009 -302.679512 
L 487.671696 -300.926144 
L 487.691571 -299.172776 
L 487.709057 -297.419408 
L 487.723439 -295.66604 
L 487.735712 -293.912671 
L 487.7484 -292.159303 
L 487.764368 -290.405935 
L 487.785378 -288.652567 
L 487.811286 -286.899199 
L 487.840298 -285.14583 
L 487.870005 -283.392462 
L 487.898627 -281.639094 
L 487.925853 -279.885726 
L 487.952916 -278.132358 
L 487.981895 -276.37899 
L 488.014671 -274.625621 
L 488.052036 -272.872253 
L 488.093268 -271.118885 
L 488.13639 -269.365517 
L 488.179156 -267.612149 
L 488.220367 -265.85878 
L 488.260753 -264.105412 
L 488.302769 -262.352044 
L 488.349358 -260.598676 
L 488.402516 -258.845308 
L 488.462518 -257.091939 
L 488.528075 -255.338571 
L 488.597009 -253.585203 
L 488.666931 -251.831835 
L 488.735839 -250.078467 
L 488.802736 -248.325099 
L 488.868111 -246.57173 
L 488.933779 -244.818362 
L 489.002028 -243.064994 
L 489.074685 -241.311626 
L 489.15283 -239.558258 
L 489.237049 -237.804889 
L 489.327569 -236.051521 
L 489.423907 -234.298153 
L 489.524434 -232.544785 
L 489.626401 -230.791417 
L 489.726599 -229.038048 
L 489.822445 -227.28468 
L 489.913066 -225.531312 
L 489.999865 -223.777944 
L 490.086399 -222.024576 
L 490.177938 -220.271208 
L 490.281021 -218.517839 
L 490.402445 -216.764471 
L 490.546993 -215.011103 
L 490.714551 -213.257735 
L 490.898871 -211.504367 
L 491.08973 -209.750998 
L 491.277719 -207.99763 
L 491.458743 -206.244262 
L 491.635369 -204.490894 
L 491.814177 -202.737526 
L 492.000565 -200.984157 
L 492.194113 -199.230789 
L 492.387762 -197.477421 
L 492.572036 -195.724053 
L 492.741712 -193.970685 
L 492.899803 -192.217317 
L 493.055357 -190.463948 
L 493.216385 -188.71058 
L 493.382804 -186.957212 
L 493.543994 -185.203844 
L 493.682305 -183.450476 
L 493.780367 -181.697107 
L 493.827916 -179.943739 
L 493.82434 -178.190371 
L 493.77575 -176.437003 
L 493.688185 -174.683635 
L 493.559468 -172.930266 
L 493.372063 -171.176898 
L 493.090331 -169.42353 
L 492.667528 -167.670162 
L 492.066313 -165.916794 
L 491.287257 -164.163426 
L 490.387801 -162.410057 
L 489.473311 -160.656689 
L 488.659317 -158.903321 
z
" style="stroke: #595959; stroke-opacity: 0.9; stroke-width: 1.25"/>
    </defs>
    <g clip-path="url(#p53f3459ff1)">
     <use xlink:href="#mfa6b844480" x="0" y="391.197812" style="fill: #72b6a1; fill-opacity: 0.9; stroke: #595959; stroke-opacity: 0.9; stroke-width: 1.25"/>
    </g>
   </g>
   <g id="line2d_6">
    <path d="M 192.892344 231.521535 
L 192.892344 58.861229 
" clip-path="url(#p53f3459ff1)" style="fill: none; stroke: #595959; stroke-width: 1.875; stroke-linecap: round"/>
   </g>
   <g id="line2d_7">
    <path d="M 192.892344 205.590406 
L 192.892344 146.896631 
" clip-path="url(#p53f3459ff1)" style="fill: none; stroke: #595959; stroke-width: 5.625; stroke-linecap: round"/>
   </g>
   <g id="line2d_8">
    <path d="M 192.892344 182.105932 
" clip-path="url(#p53f3459ff1)" style="fill: none; stroke: #595959; stroke-width: 1.5; stroke-linecap: round"/>
    <defs>
     <path id="m2246ac90d8" d="M 2.34375 0 
L -2.34375 -0 
" style="stroke: #ffffff; stroke-width: 1.125"/>
    </defs>
    <g clip-path="url(#p53f3459ff1)">
     <use xlink:href="#m2246ac90d8" x="192.892344" y="182.105932" style="fill: #ffffff; stroke: #ffffff; stroke-width: 1.125"/>
    </g>
   </g>
   <g id="line2d_9">
    <path d="M 290.969844 232.927528 
L 290.969844 69.228737 
" clip-path="url(#p53f3459ff1)" style="fill: none; stroke: #595959; stroke-width: 1.875; stroke-linecap: round"/>
   </g>
   <g id="line2d_10">
    <path d="M 290.969844 205.409321 
L 290.969844 150.933261 
" clip-path="url(#p53f3459ff1)" style="fill: none; stroke: #595959; stroke-width: 5.625; stroke-linecap: round"/>
   </g>
   <g id="line2d_11">
    <path d="M 290.969844 183.220684 
" clip-path="url(#p53f3459ff1)" style="fill: none; stroke: #595959; stroke-width: 1.5; stroke-linecap: round"/>
    <g clip-path="url(#p53f3459ff1)">
     <use xlink:href="#m2246ac90d8" x="290.969844" y="183.220684" style="fill: #ffffff; stroke: #ffffff; stroke-width: 1.125"/>
    </g>
   </g>
   <g id="line2d_12">
    <path d="M 389.047344 232.561541 
L 389.047344 66.228536 
" clip-path="url(#p53f3459ff1)" style="fill: none; stroke: #595959; stroke-width: 1.875; stroke-linecap: round"/>
   </g>
   <g id="line2d_13">
    <path d="M 389.047344 208.705109 
L 389.047344 151.713601 
" clip-path="url(#p53f3459ff1)" style="fill: none; stroke: #595959; stroke-width: 5.625; stroke-linecap: round"/>
   </g>
   <g id="line2d_14">
    <path d="M 389.047344 185.285366 
" clip-path="url(#p53f3459ff1)" style="fill: none; stroke: #595959; stroke-width: 1.5; stroke-linecap: round"/>
    <g clip-path="url(#p53f3459ff1)">
     <use xlink:href="#m2246ac90d8" x="389.047344" y="185.285366" style="fill: #ffffff; stroke: #ffffff; stroke-width: 1.125"/>
    </g>
   </g>
   <g id="line2d_15">
    <path d="M 487.124844 232.294492 
L 487.124844 94.415475 
" clip-path="url(#p53f3459ff1)" style="fill: none; stroke: #595959; stroke-width: 1.875; stroke-linecap: round"/>
   </g>
   <g id="line2d_16">
    <path d="M 487.124844 211.858188 
L 487.124844 164.88088 
" clip-path="url(#p53f3459ff1)" style="fill: none; stroke: #595959; stroke-width: 5.625; stroke-linecap: round"/>
   </g>
   <g id="line2d_17">
    <path d="M 487.124844 193.962593 
" clip-path="url(#p53f3459ff1)" style="fill: none; stroke: #595959; stroke-width: 1.5; stroke-linecap: round"/>
    <g clip-path="url(#p53f3459ff1)">
     <use xlink:href="#m2246ac90d8" x="487.124844" y="193.962593" style="fill: #ffffff; stroke: #ffffff; stroke-width: 1.125"/>
    </g>
   </g>
   <g id="patch_3">
    <path d="M 143.853594 241.638437 
L 143.853594 49.998437 
" style="fill: none; stroke: #cccccc; stroke-width: 1.25; stroke-linejoin: miter; stroke-linecap: square"/>
   </g>
   <g id="patch_4">
    <path d="M 536.163594 241.638437 
L 536.163594 49.998437 
" style="fill: none; stroke: #cccccc; stroke-width: 1.25; stroke-linejoin: miter; stroke-linecap: square"/>
   </g>
   <g id="patch_5">
    <path d="M 143.853594 241.638437 
L 536.163594 241.638437 
" style="fill: none; stroke: #cccccc; stroke-width: 1.25; stroke-linejoin: miter; stroke-linecap: square"/>
   </g>
   <g id="patch_6">
    <path d="M 143.853594 49.998437 
L 536.163594 49.998437 
" style="fill: none; stroke: #cccccc; stroke-width: 1.25; stroke-linejoin: miter; stroke-linecap: square"/>
   </g>
   <g id="text_12">
    <!-- Distance distribution per Level One Cell Type in `maternalfetalinterface-mibitof-stanford` (density normalization = count) -->
    <g style="fill: #262626" transform="translate(36 43.998437) scale(0.1 -0.1)">
     <defs>
      <path id="DejaVuSans-64" d="M 2906 2969 
L 2906 4863 
L 3481 4863 
L 3481 0 
L 2906 0 
L 2906 525 
Q 2725 213 2448 61 
Q 2172 -91 1784 -91 
Q 1150 -91 751 415 
Q 353 922 353 1747 
Q 353 2572 751 3078 
Q 1150 3584 1784 3584 
Q 2172 3584 2448 3432 
Q 2725 3281 2906 2969 
z
M 947 1747 
Q 947 1113 1208 752 
Q 1469 391 1925 391 
Q 2381 391 2643 752 
Q 2906 1113 2906 1747 
Q 2906 2381 2643 2742 
Q 2381 3103 1925 3103 
Q 1469 3103 1208 2742 
Q 947 2381 947 1747 
z
" transform="scale(0.015625)"/>
      <path id="DejaVuSans-72" d="M 2631 2963 
Q 2534 3019 2420 3045 
Q 2306 3072 2169 3072 
Q 1681 3072 1420 2755 
Q 1159 2438 1159 1844 
L 1159 0 
L 581 0 
L 581 3500 
L 1159 3500 
L 1159 2956 
Q 1341 3275 1631 3429 
Q 1922 3584 2338 3584 
Q 2397 3584 2469 3576 
Q 2541 3569 2628 3553 
L 2631 2963 
z
" transform="scale(0.015625)"/>
      <path id="DejaVuSans-62" d="M 3116 1747 
Q 3116 2381 2855 2742 
Q 2594 3103 2138 3103 
Q 1681 3103 1420 2742 
Q 1159 2381 1159 1747 
Q 1159 1113 1420 752 
Q 1681 391 2138 391 
Q 2594 391 2855 752 
Q 3116 1113 3116 1747 
z
M 1159 2969 
Q 1341 3281 1617 3432 
Q 1894 3584 2278 3584 
Q 2916 3584 3314 3078 
Q 3713 2572 3713 1747 
Q 3713 922 3314 415 
Q 2916 -91 2278 -91 
Q 1894 -91 1617 61 
Q 1341 213 1159 525 
L 1159 0 
L 581 0 
L 581 4863 
L 1159 4863 
L 1159 2969 
z
" transform="scale(0.015625)"/>
      <path id="DejaVuSans-60" d="M 1147 5119 
L 2028 3950 
L 1550 3950 
L 531 5119 
L 1147 5119 
z
" transform="scale(0.015625)"/>
      <path id="DejaVuSans-66" d="M 2375 4863 
L 2375 4384 
L 1825 4384 
Q 1516 4384 1395 4259 
Q 1275 4134 1275 3809 
L 1275 3500 
L 2222 3500 
L 2222 3053 
L 1275 3053 
L 1275 0 
L 697 0 
L 697 3053 
L 147 3053 
L 147 3500 
L 697 3500 
L 697 3744 
Q 697 4328 969 4595 
Q 1241 4863 1831 4863 
L 2375 4863 
z
" transform="scale(0.015625)"/>
      <path id="DejaVuSans-2d" d="M 313 2009 
L 1997 2009 
L 1997 1497 
L 313 1497 
L 313 2009 
z
" transform="scale(0.015625)"/>
      <path id="DejaVuSans-7a" d="M 353 3500 
L 3084 3500 
L 3084 2975 
L 922 459 
L 3084 459 
L 3084 0 
L 275 0 
L 275 525 
L 2438 3041 
L 353 3041 
L 353 3500 
z
" transform="scale(0.015625)"/>
      <path id="DejaVuSans-3d" d="M 678 2906 
L 4684 2906 
L 4684 2381 
L 678 2381 
L 678 2906 
z
M 678 1631 
L 4684 1631 
L 4684 1100 
L 678 1100 
L 678 1631 
z
" transform="scale(0.015625)"/>
     </defs>
     <use xlink:href="#DejaVuSans-44"/>
     <use xlink:href="#DejaVuSans-69" transform="translate(77.001953 0)"/>
     <use xlink:href="#DejaVuSans-73" transform="translate(104.785156 0)"/>
     <use xlink:href="#DejaVuSans-74" transform="translate(156.884766 0)"/>
     <use xlink:href="#DejaVuSans-61" transform="translate(196.09375 0)"/>
     <use xlink:href="#DejaVuSans-6e" transform="translate(257.373047 0)"/>
     <use xlink:href="#DejaVuSans-63" transform="translate(320.751953 0)"/>
     <use xlink:href="#DejaVuSans-65" transform="translate(375.732422 0)"/>
     <use xlink:href="#DejaVuSans-20" transform="translate(437.255859 0)"/>
     <use xlink:href="#DejaVuSans-64" transform="translate(469.042969 0)"/>
     <use xlink:href="#DejaVuSans-69" transform="translate(532.519531 0)"/>
     <use xlink:href="#DejaVuSans-73" transform="translate(560.302734 0)"/>
     <use xlink:href="#DejaVuSans-74" transform="translate(612.402344 0)"/>
     <use xlink:href="#DejaVuSans-72" transform="translate(651.611328 0)"/>
     <use xlink:href="#DejaVuSans-69" transform="translate(692.724609 0)"/>
     <use xlink:href="#DejaVuSans-62" transform="translate(720.507812 0)"/>
     <use xlink:href="#DejaVuSans-75" transform="translate(783.984375 0)"/>
     <use xlink:href="#DejaVuSans-74" transform="translate(847.363281 0)"/>
     <use xlink:href="#DejaVuSans-69" transform="translate(886.572266 0)"/>
     <use xlink:href="#DejaVuSans-6f" transform="translate(914.355469 0)"/>
     <use xlink:href="#DejaVuSans-6e" transform="translate(975.537109 0)"/>
     <use xlink:href="#DejaVuSans-20" transform="translate(1038.916016 0)"/>
     <use xlink:href="#DejaVuSans-70" transform="translate(1070.703125 0)"/>
     <use xlink:href="#DejaVuSans-65" transform="translate(1134.179688 0)"/>
     <use xlink:href="#DejaVuSans-72" transform="translate(1195.703125 0)"/>
     <use xlink:href="#DejaVuSans-20" transform="translate(1236.816406 0)"/>
     <use xlink:href="#DejaVuSans-4c" transform="translate(1268.603516 0)"/>
     <use xlink:href="#DejaVuSans-65" transform="translate(1322.566406 0)"/>
     <use xlink:href="#DejaVuSans-76" transform="translate(1384.089844 0)"/>
     <use xlink:href="#DejaVuSans-65" transform="translate(1443.269531 0)"/>
     <use xlink:href="#DejaVuSans-6c" transform="translate(1504.792969 0)"/>
     <use xlink:href="#DejaVuSans-20" transform="translate(1532.576172 0)"/>
     <use xlink:href="#DejaVuSans-4f" transform="translate(1564.363281 0)"/>
     <use xlink:href="#DejaVuSans-6e" transform="translate(1643.074219 0)"/>
     <use xlink:href="#DejaVuSans-65" transform="translate(1706.453125 0)"/>
     <use xlink:href="#DejaVuSans-20" transform="translate(1767.976562 0)"/>
     <use xlink:href="#DejaVuSans-43" transform="translate(1799.763672 0)"/>
     <use xlink:href="#DejaVuSans-65" transform="translate(1869.587891 0)"/>
     <use xlink:href="#DejaVuSans-6c" transform="translate(1931.111328 0)"/>
     <use xlink:href="#DejaVuSans-6c" transform="translate(1958.894531 0)"/>
     <use xlink:href="#DejaVuSans-20" transform="translate(1986.677734 0)"/>
     <use xlink:href="#DejaVuSans-54" transform="translate(2018.464844 0)"/>
     <use xlink:href="#DejaVuSans-79" transform="translate(2063.923828 0)"/>
     <use xlink:href="#DejaVuSans-70" transform="translate(2123.103516 0)"/>
     <use xlink:href="#DejaVuSans-65" transform="translate(2186.580078 0)"/>
     <use xlink:href="#DejaVuSans-20" transform="translate(2248.103516 0)"/>
     <use xlink:href="#DejaVuSans-69" transform="translate(2279.890625 0)"/>
     <use xlink:href="#DejaVuSans-6e" transform="translate(2307.673828 0)"/>
     <use xlink:href="#DejaVuSans-20" transform="translate(2371.052734 0)"/>
     <use xlink:href="#DejaVuSans-60" transform="translate(2402.839844 0)"/>
     <use xlink:href="#DejaVuSans-6d" transform="translate(2452.839844 0)"/>
     <use xlink:href="#DejaVuSans-61" transform="translate(2550.251953 0)"/>
     <use xlink:href="#DejaVuSans-74" transform="translate(2611.53125 0)"/>
     <use xlink:href="#DejaVuSans-65" transform="translate(2650.740234 0)"/>
     <use xlink:href="#DejaVuSans-72" transform="translate(2712.263672 0)"/>
     <use xlink:href="#DejaVuSans-6e" transform="translate(2751.626953 0)"/>
     <use xlink:href="#DejaVuSans-61" transform="translate(2815.005859 0)"/>
     <use xlink:href="#DejaVuSans-6c" transform="translate(2876.285156 0)"/>
     <use xlink:href="#DejaVuSans-66" transform="translate(2904.068359 0)"/>
     <use xlink:href="#DejaVuSans-65" transform="translate(2939.273438 0)"/>
     <use xlink:href="#DejaVuSans-74" transform="translate(3000.796875 0)"/>
     <use xlink:href="#DejaVuSans-61" transform="translate(3040.005859 0)"/>
     <use xlink:href="#DejaVuSans-6c" transform="translate(3101.285156 0)"/>
     <use xlink:href="#DejaVuSans-69" transform="translate(3129.068359 0)"/>
     <use xlink:href="#DejaVuSans-6e" transform="translate(3156.851562 0)"/>
     <use xlink:href="#DejaVuSans-74" transform="translate(3220.230469 0)"/>
     <use xlink:href="#DejaVuSans-65" transform="translate(3259.439453 0)"/>
     <use xlink:href="#DejaVuSans-72" transform="translate(3320.962891 0)"/>
     <use xlink:href="#DejaVuSans-66" transform="translate(3362.076172 0)"/>
     <use xlink:href="#DejaVuSans-61" transform="translate(3397.28125 0)"/>
     <use xlink:href="#DejaVuSans-63" transform="translate(3458.560547 0)"/>
     <use xlink:href="#DejaVuSans-65" transform="translate(3513.541016 0)"/>
     <use xlink:href="#DejaVuSans-2d" transform="translate(3575.064453 0)"/>
     <use xlink:href="#DejaVuSans-6d" transform="translate(3611.148438 0)"/>
     <use xlink:href="#DejaVuSans-69" transform="translate(3708.560547 0)"/>
     <use xlink:href="#DejaVuSans-62" transform="translate(3736.34375 0)"/>
     <use xlink:href="#DejaVuSans-69" transform="translate(3799.820312 0)"/>
     <use xlink:href="#DejaVuSans-74" transform="translate(3827.603516 0)"/>
     <use xlink:href="#DejaVuSans-6f" transform="translate(3866.8125 0)"/>
     <use xlink:href="#DejaVuSans-66" transform="translate(3927.994141 0)"/>
     <use xlink:href="#DejaVuSans-2d" transform="translate(3957.699219 0)"/>
     <use xlink:href="#DejaVuSans-73" transform="translate(3993.783203 0)"/>
     <use xlink:href="#DejaVuSans-74" transform="translate(4045.882812 0)"/>
     <use xlink:href="#DejaVuSans-61" transform="translate(4085.091797 0)"/>
     <use xlink:href="#DejaVuSans-6e" transform="translate(4146.371094 0)"/>
     <use xlink:href="#DejaVuSans-66" transform="translate(4209.75 0)"/>
     <use xlink:href="#DejaVuSans-6f" transform="translate(4244.955078 0)"/>
     <use xlink:href="#DejaVuSans-72" transform="translate(4306.136719 0)"/>
     <use xlink:href="#DejaVuSans-64" transform="translate(4345.5 0)"/>
     <use xlink:href="#DejaVuSans-60" transform="translate(4408.976562 0)"/>
     <use xlink:href="#DejaVuSans-20" transform="translate(4458.976562 0)"/>
     <use xlink:href="#DejaVuSans-28" transform="translate(4490.763672 0)"/>
     <use xlink:href="#DejaVuSans-64" transform="translate(4529.777344 0)"/>
     <use xlink:href="#DejaVuSans-65" transform="translate(4593.253906 0)"/>
     <use xlink:href="#DejaVuSans-6e" transform="translate(4654.777344 0)"/>
     <use xlink:href="#DejaVuSans-73" transform="translate(4718.15625 0)"/>
     <use xlink:href="#DejaVuSans-69" transform="translate(4770.255859 0)"/>
     <use xlink:href="#DejaVuSans-74" transform="translate(4798.039062 0)"/>
     <use xlink:href="#DejaVuSans-79" transform="translate(4837.248047 0)"/>
     <use xlink:href="#DejaVuSans-20" transform="translate(4896.427734 0)"/>
     <use xlink:href="#DejaVuSans-6e" transform="translate(4928.214844 0)"/>
     <use xlink:href="#DejaVuSans-6f" transform="translate(4991.59375 0)"/>
     <use xlink:href="#DejaVuSans-72" transform="translate(5052.775391 0)"/>
     <use xlink:href="#DejaVuSans-6d" transform="translate(5092.138672 0)"/>
     <use xlink:href="#DejaVuSans-61" transform="translate(5189.550781 0)"/>
     <use xlink:href="#DejaVuSans-6c" transform="translate(5250.830078 0)"/>
     <use xlink:href="#DejaVuSans-69" transform="translate(5278.613281 0)"/>
     <use xlink:href="#DejaVuSans-7a" transform="translate(5306.396484 0)"/>
     <use xlink:href="#DejaVuSans-61" transform="translate(5358.886719 0)"/>
     <use xlink:href="#DejaVuSans-74" transform="translate(5420.166016 0)"/>
     <use xlink:href="#DejaVuSans-69" transform="translate(5459.375 0)"/>
     <use xlink:href="#DejaVuSans-6f" transform="translate(5487.158203 0)"/>
     <use xlink:href="#DejaVuSans-6e" transform="translate(5548.339844 0)"/>
     <use xlink:href="#DejaVuSans-20" transform="translate(5611.71875 0)"/>
     <use xlink:href="#DejaVuSans-3d" transform="translate(5643.505859 0)"/>
     <use xlink:href="#DejaVuSans-20" transform="translate(5727.294922 0)"/>
     <use xlink:href="#DejaVuSans-63" transform="translate(5759.082031 0)"/>
     <use xlink:href="#DejaVuSans-6f" transform="translate(5814.0625 0)"/>
     <use xlink:href="#DejaVuSans-75" transform="translate(5875.244141 0)"/>
     <use xlink:href="#DejaVuSans-6e" transform="translate(5938.623047 0)"/>
     <use xlink:href="#DejaVuSans-74" transform="translate(6002.001953 0)"/>
     <use xlink:href="#DejaVuSans-29" transform="translate(6041.210938 0)"/>
    </g>
   </g>
  </g>
 </g>
 <defs>
  <clipPath id="p53f3459ff1">
   <rect x="143.853594" y="49.998437" width="392.31" height="191.64"/>
  </clipPath>
 </defs>
</svg>
