<?xml version="1.0" encoding="utf-8" standalone="no"?>
<!DOCTYPE svg PUBLIC "-//W3C//DTD SVG 1.1//EN"
  "http://www.w3.org/Graphics/SVG/1.1/DTD/svg11.dtd">
<svg xmlns:xlink="http://www.w3.org/1999/xlink" width="1125.775625pt" height="621.597813pt" viewBox="0 0 1125.775625 621.597813" xmlns="http://www.w3.org/2000/svg" version="1.1">
 <metadata>
  <rdf:RDF xmlns:dc="http://purl.org/dc/elements/1.1/" xmlns:cc="http://creativecommons.org/ns#" xmlns:rdf="http://www.w3.org/1999/02/22-rdf-syntax-ns#">
   <cc:Work>
    <dc:type rdf:resource="http://purl.org/dc/dcmitype/StillImage"/>
    <dc:date>2025-07-25T12:43:25.032507</dc:date>
    <dc:format>image/svg+xml</dc:format>
    <dc:creator>
     <cc:Agent>
      <dc:title>Matplotlib v3.10.3, https://matplotlib.org/</dc:title>
     </cc:Agent>
    </dc:creator>
   </cc:Work>
  </rdf:RDF>
 </metadata>
 <defs>
  <style type="text/css">*{stroke-linejoin: round; stroke-linecap: butt}</style>
 </defs>
 <g id="figure_1">
  <g id="patch_1">
   <path d="M 0 621.597813 
L 1125.775625 621.597813 
L 1125.775625 0 
L 0 0 
z
" style="fill: #ffffff"/>
  </g>
  <g id="axes_1">
   <g id="patch_2">
    <path d="M 78.265625 472.038438 
L 1089.775625 472.038438 
L 1089.775625 49.998438 
L 78.265625 49.998438 
z
" style="fill: #ffffff"/>
   </g>
   <g id="matplotlib.axis_1">
    <g id="xtick_1">
     <g id="text_1">
      <text style="font-size: 10px; font-family: 'Arial', 'DejaVu Sans', 'Liberation Sans', 'Bitstream Vera Sans', sans-serif; fill: #262626" transform="translate(202.624687 548.0775) rotate(-90)">epithelial cell</text>
     </g>
    </g>
    <g id="xtick_2">
     <g id="text_2">
      <text style="font-size: 10px; font-family: 'Arial', 'DejaVu Sans', 'Liberation Sans', 'Bitstream Vera Sans', sans-serif; fill: #262626" transform="translate(455.502187 543.011875) rotate(-90)">immune cell</text>
     </g>
    </g>
    <g id="xtick_3">
     <g id="text_3">
      <text style="font-size: 10px; font-family: 'Arial', 'DejaVu Sans', 'Liberation Sans', 'Bitstream Vera Sans', sans-serif; fill: #262626" transform="translate(708.379688 571.919688) rotate(-90)">mesenchymal cell</text>
     </g>
    </g>
    <g id="xtick_4">
     <g id="text_4">
      <text style="font-size: 10px; font-family: 'Arial', 'DejaVu Sans', 'Liberation Sans', 'Bitstream Vera Sans', sans-serif; fill: #262626" transform="translate(961.257187 547.361875) rotate(-90)">unknown cell</text>
     </g>
    </g>
    <g id="text_5">
     <text style="font-size: 10px; font-family: 'Arial', 'DejaVu Sans', 'Liberation Sans', 'Bitstream Vera Sans', sans-serif; text-anchor: middle; fill: #262626" x="584.020625" y="583.518125" transform="rotate(-0 584.020625 583.518125)">Level One Cell Type</text>
    </g>
   </g>
   <g id="matplotlib.axis_2">
    <g id="ytick_1">
     <g id="line2d_1">
      <path d="M 78.265625 459.683327 
L 1089.775625 459.683327 
" clip-path="url(#p7e3e0e9b10)" style="fill: none; stroke: #cccccc; stroke-linecap: round"/>
     </g>
     <g id="text_6">
      <text style="font-size: 10px; font-family: 'Arial', 'DejaVu Sans', 'Liberation Sans', 'Bitstream Vera Sans', sans-serif; text-anchor: end; fill: #262626" x="68.765625" y="463.482546" transform="rotate(-0 68.765625 463.482546)">0</text>
     </g>
    </g>
    <g id="ytick_2">
     <g id="line2d_2">
      <path d="M 78.265625 410.869233 
L 1089.775625 410.869233 
" clip-path="url(#p7e3e0e9b10)" style="fill: none; stroke: #cccccc; stroke-linecap: round"/>
     </g>
     <g id="text_7">
      <text style="font-size: 10px; font-family: 'Arial', 'DejaVu Sans', 'Liberation Sans', 'Bitstream Vera Sans', sans-serif; text-anchor: end; fill: #262626" x="68.765625" y="414.668452" transform="rotate(-0 68.765625 414.668452)">25</text>
     </g>
    </g>
    <g id="ytick_3">
     <g id="line2d_3">
      <path d="M 78.265625 362.055139 
L 1089.775625 362.055139 
" clip-path="url(#p7e3e0e9b10)" style="fill: none; stroke: #cccccc; stroke-linecap: round"/>
     </g>
     <g id="text_8">
      <text style="font-size: 10px; font-family: 'Arial', 'DejaVu Sans', 'Liberation Sans', 'Bitstream Vera Sans', sans-serif; text-anchor: end; fill: #262626" x="68.765625" y="365.854358" transform="rotate(-0 68.765625 365.854358)">50</text>
     </g>
    </g>
    <g id="ytick_4">
     <g id="line2d_4">
      <path d="M 78.265625 313.241045 
L 1089.775625 313.241045 
" clip-path="url(#p7e3e0e9b10)" style="fill: none; stroke: #cccccc; stroke-linecap: round"/>
     </g>
     <g id="text_9">
      <text style="font-size: 10px; font-family: 'Arial', 'DejaVu Sans', 'Liberation Sans', 'Bitstream Vera Sans', sans-serif; text-anchor: end; fill: #262626" x="68.765625" y="317.040264" transform="rotate(-0 68.765625 317.040264)">75</text>
     </g>
    </g>
    <g id="ytick_5">
     <g id="line2d_5">
      <path d="M 78.265625 264.426951 
L 1089.775625 264.426951 
" clip-path="url(#p7e3e0e9b10)" style="fill: none; stroke: #cccccc; stroke-linecap: round"/>
     </g>
     <g id="text_10">
      <text style="font-size: 10px; font-family: 'Arial', 'DejaVu Sans', 'Liberation Sans', 'Bitstream Vera Sans', sans-serif; text-anchor: end; fill: #262626" x="68.765625" y="268.22617" transform="rotate(-0 68.765625 268.22617)">100</text>
     </g>
    </g>
    <g id="ytick_6">
     <g id="line2d_6">
      <path d="M 78.265625 215.612857 
L 1089.775625 215.612857 
" clip-path="url(#p7e3e0e9b10)" style="fill: none; stroke: #cccccc; stroke-linecap: round"/>
     </g>
     <g id="text_11">
      <text style="font-size: 10px; font-family: 'Arial', 'DejaVu Sans', 'Liberation Sans', 'Bitstream Vera Sans', sans-serif; text-anchor: end; fill: #262626" x="68.765625" y="219.412076" transform="rotate(-0 68.765625 219.412076)">125</text>
     </g>
    </g>
    <g id="ytick_7">
     <g id="line2d_7">
      <path d="M 78.265625 166.798763 
L 1089.775625 166.798763 
" clip-path="url(#p7e3e0e9b10)" style="fill: none; stroke: #cccccc; stroke-linecap: round"/>
     </g>
     <g id="text_12">
      <text style="font-size: 10px; font-family: 'Arial', 'DejaVu Sans', 'Liberation Sans', 'Bitstream Vera Sans', sans-serif; text-anchor: end; fill: #262626" x="68.765625" y="170.597982" transform="rotate(-0 68.765625 170.597982)">150</text>
     </g>
    </g>
    <g id="ytick_8">
     <g id="line2d_8">
      <path d="M 78.265625 117.98467 
L 1089.775625 117.98467 
" clip-path="url(#p7e3e0e9b10)" style="fill: none; stroke: #cccccc; stroke-linecap: round"/>
     </g>
     <g id="text_13">
      <text style="font-size: 10px; font-family: 'Arial', 'DejaVu Sans', 'Liberation Sans', 'Bitstream Vera Sans', sans-serif; text-anchor: end; fill: #262626" x="68.765625" y="121.783888" transform="rotate(-0 68.765625 121.783888)">175</text>
     </g>
    </g>
    <g id="ytick_9">
     <g id="line2d_9">
      <path d="M 78.265625 69.170576 
L 1089.775625 69.170576 
" clip-path="url(#p7e3e0e9b10)" style="fill: none; stroke: #cccccc; stroke-linecap: round"/>
     </g>
     <g id="text_14">
      <text style="font-size: 10px; font-family: 'Arial', 'DejaVu Sans', 'Liberation Sans', 'Bitstream Vera Sans', sans-serif; text-anchor: end; fill: #262626" x="68.765625" y="72.969794" transform="rotate(-0 68.765625 72.969794)">200</text>
     </g>
    </g>
    <g id="text_15">
     <text style="font-size: 10px; font-family: 'Arial', 'DejaVu Sans', 'Liberation Sans', 'Bitstream Vera Sans', sans-serif; text-anchor: middle; fill: #262626" x="43.598437" y="261.018438" transform="rotate(-90 43.598437 261.018438)">Distance (μm)</text>
    </g>
   </g>
   <g id="FillBetweenPolyCollection_1">
    <defs>
     <path id="m5afa75915e" d="M 210.668864 -171.839367 
L 198.739886 -171.839367 
L 195.730012 -175.683573 
L 192.314019 -179.527778 
L 188.849166 -183.371984 
L 185.685849 -187.21619 
L 183.061745 -191.060396 
L 181.060851 -194.904601 
L 179.640566 -198.748807 
L 178.691086 -202.593013 
L 178.089258 -206.437219 
L 177.730456 -210.281425 
L 177.540367 -214.12563 
L 177.473332 -217.969836 
L 177.502474 -221.814042 
L 177.607277 -225.658248 
L 177.765471 -229.502453 
L 177.953422 -233.346659 
L 178.153171 -237.190865 
L 178.359766 -241.035071 
L 178.582931 -244.879277 
L 178.841245 -248.723482 
L 179.151731 -252.567688 
L 179.520647 -256.411894 
L 179.940929 -260.2561 
L 180.397868 -264.100305 
L 180.879144 -267.944511 
L 181.381791 -271.788717 
L 181.910541 -275.632923 
L 182.468686 -279.477129 
L 183.049096 -283.321334 
L 183.633181 -287.16554 
L 184.198982 -291.009746 
L 184.732377 -294.853952 
L 185.233818 -298.698157 
L 185.716864 -302.542363 
L 186.200201 -306.386569 
L 186.698325 -310.230775 
L 187.216224 -314.074981 
L 187.749933 -317.919186 
L 188.290259 -321.763392 
L 188.825643 -325.607598 
L 189.3433 -329.451804 
L 189.831134 -333.296009 
L 190.281707 -337.140215 
L 190.695684 -340.984421 
L 191.081173 -344.828627 
L 191.449051 -348.672833 
L 191.808073 -352.517038 
L 192.162865 -356.361244 
L 192.514249 -360.20545 
L 192.85983 -364.049656 
L 193.194691 -367.893861 
L 193.513508 -371.738067 
L 193.813709 -375.582273 
L 194.097099 -379.426479 
L 194.368562 -383.270684 
L 194.633385 -387.11489 
L 194.895419 -390.959096 
L 195.15624 -394.803302 
L 195.414444 -398.647508 
L 195.66567 -402.491713 
L 195.904863 -406.335919 
L 196.130498 -410.180125 
L 196.347551 -414.024331 
L 196.565761 -417.868536 
L 196.793453 -421.712742 
L 197.031615 -425.556948 
L 197.273164 -429.401154 
L 197.507589 -433.24536 
L 197.726409 -437.089565 
L 197.92514 -440.933771 
L 198.102038 -444.777977 
L 198.257142 -448.622183 
L 198.393596 -452.466388 
L 198.519294 -456.310594 
L 198.645489 -460.1548 
L 198.781935 -463.999006 
L 198.931958 -467.843212 
L 199.091392 -471.687417 
L 199.252033 -475.531623 
L 199.406736 -479.375829 
L 199.552738 -483.220035 
L 199.691918 -487.06424 
L 199.828816 -490.908446 
L 199.96768 -494.752652 
L 200.109647 -498.596858 
L 200.251544 -502.441064 
L 200.387565 -506.285269 
L 200.513136 -510.129475 
L 200.62801 -513.973681 
L 200.736114 -517.817887 
L 200.843043 -521.662092 
L 200.954792 -525.506298 
L 201.080217 -529.350504 
L 201.235602 -533.19471 
L 201.446017 -537.038916 
L 201.738512 -540.883121 
L 202.127466 -544.727327 
L 202.599863 -548.571533 
L 203.111662 -552.415739 
L 206.297088 -552.415739 
L 206.297088 -552.415739 
L 206.808887 -548.571533 
L 207.281284 -544.727327 
L 207.670238 -540.883121 
L 207.962733 -537.038916 
L 208.173148 -533.19471 
L 208.328533 -529.350504 
L 208.453958 -525.506298 
L 208.565707 -521.662092 
L 208.672636 -517.817887 
L 208.78074 -513.973681 
L 208.895614 -510.129475 
L 209.021185 -506.285269 
L 209.157206 -502.441064 
L 209.299103 -498.596858 
L 209.44107 -494.752652 
L 209.579934 -490.908446 
L 209.716832 -487.06424 
L 209.856012 -483.220035 
L 210.002014 -479.375829 
L 210.156717 -475.531623 
L 210.317358 -471.687417 
L 210.476792 -467.843212 
L 210.626815 -463.999006 
L 210.763261 -460.1548 
L 210.889456 -456.310594 
L 211.015154 -452.466388 
L 211.151608 -448.622183 
L 211.306712 -444.777977 
L 211.48361 -440.933771 
L 211.682341 -437.089565 
L 211.901161 -433.24536 
L 212.135586 -429.401154 
L 212.377135 -425.556948 
L 212.615297 -421.712742 
L 212.842989 -417.868536 
L 213.061199 -414.024331 
L 213.278252 -410.180125 
L 213.503887 -406.335919 
L 213.74308 -402.491713 
L 213.994306 -398.647508 
L 214.25251 -394.803302 
L 214.513331 -390.959096 
L 214.775365 -387.11489 
L 215.040188 -383.270684 
L 215.311651 -379.426479 
L 215.595041 -375.582273 
L 215.895242 -371.738067 
L 216.214059 -367.893861 
L 216.54892 -364.049656 
L 216.894501 -360.20545 
L 217.245885 -356.361244 
L 217.600677 -352.517038 
L 217.959699 -348.672833 
L 218.327577 -344.828627 
L 218.713066 -340.984421 
L 219.127043 -337.140215 
L 219.577616 -333.296009 
L 220.06545 -329.451804 
L 220.583107 -325.607598 
L 221.118491 -321.763392 
L 221.658817 -317.919186 
L 222.192526 -314.074981 
L 222.710425 -310.230775 
L 223.208549 -306.386569 
L 223.691886 -302.542363 
L 224.174932 -298.698157 
L 224.676373 -294.853952 
L 225.209768 -291.009746 
L 225.775569 -287.16554 
L 226.359654 -283.321334 
L 226.940064 -279.477129 
L 227.498209 -275.632923 
L 228.026959 -271.788717 
L 228.529606 -267.944511 
L 229.010882 -264.100305 
L 229.467821 -260.2561 
L 229.888103 -256.411894 
L 230.257019 -252.567688 
L 230.567505 -248.723482 
L 230.825819 -244.879277 
L 231.048984 -241.035071 
L 231.255579 -237.190865 
L 231.455328 -233.346659 
L 231.643279 -229.502453 
L 231.801473 -225.658248 
L 231.906276 -221.814042 
L 231.935418 -217.969836 
L 231.868383 -214.12563 
L 231.678294 -210.281425 
L 231.319492 -206.437219 
L 230.717664 -202.593013 
L 229.768184 -198.748807 
L 228.347899 -194.904601 
L 226.347005 -191.060396 
L 223.722901 -187.21619 
L 220.559584 -183.371984 
L 217.094731 -179.527778 
L 213.678738 -175.683573 
L 210.668864 -171.839367 
z
" style="stroke: #595959; stroke-opacity: 0.9; stroke-width: 1.25"/>
    </defs>
    <g clip-path="url(#p7e3e0e9b10)">
     <use xlink:href="#m5afa75915e" x="0" y="621.597813" style="fill: #de7959; fill-opacity: 0.9; stroke: #595959; stroke-opacity: 0.9; stroke-width: 1.25"/>
    </g>
   </g>
   <g id="FillBetweenPolyCollection_2">
    <defs>
     <path id="m57968cb958" d="M 466.082626 -168.743011 
L 449.081124 -168.743011 
L 442.157039 -172.618456 
L 433.440435 -176.4939 
L 424.345666 -180.369345 
L 416.32337 -184.244789 
L 410.084092 -188.120233 
L 405.483052 -191.995678 
L 401.999439 -195.871122 
L 399.218552 -199.746567 
L 396.961598 -203.622011 
L 395.185808 -207.497455 
L 393.888177 -211.3729 
L 393.059255 -215.248344 
L 392.632686 -219.123789 
L 392.450187 -222.999233 
L 392.307913 -226.874677 
L 392.073699 -230.750122 
L 391.777571 -234.625566 
L 391.585229 -238.501011 
L 391.664297 -242.376455 
L 392.062037 -246.251899 
L 392.709039 -250.127344 
L 393.525187 -254.002788 
L 394.493509 -257.878233 
L 395.627748 -261.753677 
L 396.901481 -265.629121 
L 398.240412 -269.504566 
L 399.583156 -273.38001 
L 400.933933 -277.255455 
L 402.349933 -281.130899 
L 403.874609 -285.006343 
L 405.478025 -288.881788 
L 407.066148 -292.757232 
L 408.556171 -296.632677 
L 409.939138 -300.508121 
L 411.265325 -304.383565 
L 412.580945 -308.25901 
L 413.892538 -312.134454 
L 415.184934 -316.009899 
L 416.452959 -319.885343 
L 417.708404 -323.760787 
L 418.966451 -327.636232 
L 420.231259 -331.511676 
L 421.484653 -335.387121 
L 422.680793 -339.262565 
L 423.764713 -343.138009 
L 424.715819 -347.013454 
L 425.57494 -350.888898 
L 426.417798 -354.764343 
L 427.298311 -358.639787 
L 428.218927 -362.515231 
L 429.147873 -366.390676 
L 430.053243 -370.26612 
L 430.922785 -374.141565 
L 431.765156 -378.017009 
L 432.598654 -381.892453 
L 433.43257 -385.767898 
L 434.255109 -389.643342 
L 435.042655 -393.518787 
L 435.780529 -397.394231 
L 436.470206 -401.269675 
L 437.122008 -405.14512 
L 437.752814 -409.020564 
L 438.38719 -412.896009 
L 439.042537 -416.771453 
L 439.705502 -420.646897 
L 440.33244 -424.522342 
L 440.88421 -428.397786 
L 441.36375 -432.273231 
L 441.816344 -436.148675 
L 442.290565 -440.024119 
L 442.804023 -443.899564 
L 443.350596 -447.775008 
L 443.927408 -451.650453 
L 444.536788 -455.525897 
L 445.163762 -459.401341 
L 445.766694 -463.276786 
L 446.298769 -467.15223 
L 446.741284 -471.027675 
L 447.117547 -474.903119 
L 447.472926 -478.778564 
L 447.838346 -482.654008 
L 448.211609 -486.529452 
L 448.571065 -490.404897 
L 448.90152 -494.280341 
L 449.20652 -498.155786 
L 449.502018 -502.03123 
L 449.799742 -505.906674 
L 450.09332 -509.782119 
L 450.363683 -513.657563 
L 450.602015 -517.533008 
L 450.822152 -521.408452 
L 451.04729 -525.283896 
L 451.292944 -529.159341 
L 451.571409 -533.034785 
L 451.914151 -536.91023 
L 452.386244 -540.785674 
L 453.063316 -544.661118 
L 453.965553 -548.536563 
L 454.999108 -552.412007 
L 460.164642 -552.412007 
L 460.164642 -552.412007 
L 461.198197 -548.536563 
L 462.100434 -544.661118 
L 462.777506 -540.785674 
L 463.249599 -536.91023 
L 463.592341 -533.034785 
L 463.870806 -529.159341 
L 464.11646 -525.283896 
L 464.341598 -521.408452 
L 464.561735 -517.533008 
L 464.800067 -513.657563 
L 465.07043 -509.782119 
L 465.364008 -505.906674 
L 465.661732 -502.03123 
L 465.95723 -498.155786 
L 466.26223 -494.280341 
L 466.592685 -490.404897 
L 466.952141 -486.529452 
L 467.325404 -482.654008 
L 467.690824 -478.778564 
L 468.046203 -474.903119 
L 468.422466 -471.027675 
L 468.864981 -467.15223 
L 469.397056 -463.276786 
L 469.999988 -459.401341 
L 470.626962 -455.525897 
L 471.236342 -451.650453 
L 471.813154 -447.775008 
L 472.359727 -443.899564 
L 472.873185 -440.024119 
L 473.347406 -436.148675 
L 473.8 -432.273231 
L 474.27954 -428.397786 
L 474.83131 -424.522342 
L 475.458248 -420.646897 
L 476.121213 -416.771453 
L 476.77656 -412.896009 
L 477.410936 -409.020564 
L 478.041742 -405.14512 
L 478.693544 -401.269675 
L 479.383221 -397.394231 
L 480.121095 -393.518787 
L 480.908641 -389.643342 
L 481.73118 -385.767898 
L 482.565096 -381.892453 
L 483.398594 -378.017009 
L 484.240965 -374.141565 
L 485.110507 -370.26612 
L 486.015877 -366.390676 
L 486.944823 -362.515231 
L 487.865439 -358.639787 
L 488.745952 -354.764343 
L 489.58881 -350.888898 
L 490.447931 -347.013454 
L 491.399037 -343.138009 
L 492.482957 -339.262565 
L 493.679097 -335.387121 
L 494.932491 -331.511676 
L 496.197299 -327.636232 
L 497.455346 -323.760787 
L 498.710791 -319.885343 
L 499.978816 -316.009899 
L 501.271212 -312.134454 
L 502.582805 -308.25901 
L 503.898425 -304.383565 
L 505.224612 -300.508121 
L 506.607579 -296.632677 
L 508.097602 -292.757232 
L 509.685725 -288.881788 
L 511.289141 -285.006343 
L 512.813817 -281.130899 
L 514.229817 -277.255455 
L 515.580594 -273.38001 
L 516.923338 -269.504566 
L 518.262269 -265.629121 
L 519.536002 -261.753677 
L 520.670241 -257.878233 
L 521.638563 -254.002788 
L 522.454711 -250.127344 
L 523.101713 -246.251899 
L 523.499453 -242.376455 
L 523.578521 -238.501011 
L 523.386179 -234.625566 
L 523.090051 -230.750122 
L 522.855837 -226.874677 
L 522.713563 -222.999233 
L 522.531064 -219.123789 
L 522.104495 -215.248344 
L 521.275573 -211.3729 
L 519.977942 -207.497455 
L 518.202152 -203.622011 
L 515.945198 -199.746567 
L 513.164311 -195.871122 
L 509.680698 -191.995678 
L 505.079658 -188.120233 
L 498.84038 -184.244789 
L 490.818084 -180.369345 
L 481.723315 -176.4939 
L 473.006711 -172.618456 
L 466.082626 -168.743011 
z
" style="stroke: #595959; stroke-opacity: 0.9; stroke-width: 1.25"/>
    </defs>
    <g clip-path="url(#p7e3e0e9b10)">
     <use xlink:href="#m57968cb958" x="0" y="621.597813" style="fill: #f0d999; fill-opacity: 0.9; stroke: #595959; stroke-opacity: 0.9; stroke-width: 1.25"/>
    </g>
   </g>
   <g id="FillBetweenPolyCollection_3">
    <defs>
     <path id="m15d45a01c4" d="M 730.13913 -169.54901 
L 690.77962 -169.54901 
L 674.577754 -173.41623 
L 655.040276 -177.28345 
L 636.376665 -181.15067 
L 622.360399 -185.01789 
L 614.205245 -188.88511 
L 610.630767 -192.75233 
L 609.517563 -196.61955 
L 609.308375 -200.48677 
L 609.318263 -204.35399 
L 609.413105 -208.22121 
L 609.673765 -212.08843 
L 610.203724 -215.955651 
L 611.021864 -219.822871 
L 612.043525 -223.690091 
L 613.156588 -227.557311 
L 614.312141 -231.424531 
L 615.540069 -235.291751 
L 616.890054 -239.158971 
L 618.372107 -243.026191 
L 619.947017 -246.893411 
L 621.551965 -250.760631 
L 623.137018 -254.627851 
L 624.699144 -258.495071 
L 626.278074 -262.362292 
L 627.898042 -266.229512 
L 629.524337 -270.096732 
L 631.109703 -273.963952 
L 632.675117 -277.831172 
L 634.302275 -281.698392 
L 636.042054 -285.565612 
L 637.862012 -289.432832 
L 639.690251 -293.300052 
L 641.491243 -297.167272 
L 643.288853 -301.034492 
L 645.12267 -304.901712 
L 647.001273 -308.768933 
L 648.908276 -312.636153 
L 650.826145 -316.503373 
L 652.722634 -320.370593 
L 654.539012 -324.237813 
L 656.232898 -328.105033 
L 657.817803 -331.972253 
L 659.327543 -335.839473 
L 660.754531 -339.706693 
L 662.057759 -343.573913 
L 663.241656 -347.441133 
L 664.406274 -351.308353 
L 665.686194 -355.175573 
L 667.126676 -359.042794 
L 668.636077 -362.910014 
L 670.06723 -366.777234 
L 671.334536 -370.644454 
L 672.462923 -374.511674 
L 673.552097 -378.378894 
L 674.694197 -382.246114 
L 675.901939 -386.113334 
L 677.10511 -389.980554 
L 678.219926 -393.847774 
L 679.22271 -397.714994 
L 680.16093 -401.582214 
L 681.104472 -405.449435 
L 682.086408 -409.316655 
L 683.07748 -413.183875 
L 684.01122 -417.051095 
L 684.837683 -420.918315 
L 685.558716 -424.785535 
L 686.220878 -428.652755 
L 686.881717 -432.519975 
L 687.574849 -436.387195 
L 688.294995 -440.254415 
L 689.01449 -444.121635 
L 689.710447 -447.988855 
L 690.370715 -451.856076 
L 690.986467 -455.723296 
L 691.558315 -459.590516 
L 692.10873 -463.457736 
L 692.677813 -467.324956 
L 693.305123 -471.192176 
L 694.008667 -475.059396 
L 694.76362 -478.926616 
L 695.499441 -482.793836 
L 696.137922 -486.661056 
L 696.649853 -490.528276 
L 697.075171 -494.395496 
L 697.482984 -498.262717 
L 697.909745 -502.129937 
L 698.339804 -505.997157 
L 698.745806 -509.864377 
L 699.132824 -513.731597 
L 699.529256 -517.598817 
L 699.943713 -521.466037 
L 700.348762 -525.333257 
L 700.707819 -529.200477 
L 701.014757 -533.067697 
L 701.331824 -536.934917 
L 701.82017 -540.802137 
L 702.704234 -544.669358 
L 704.113473 -548.536578 
L 705.903679 -552.403798 
L 715.015071 -552.403798 
L 715.015071 -552.403798 
L 716.805277 -548.536578 
L 718.214516 -544.669358 
L 719.09858 -540.802137 
L 719.586926 -536.934917 
L 719.903993 -533.067697 
L 720.210931 -529.200477 
L 720.569988 -525.333257 
L 720.975037 -521.466037 
L 721.389494 -517.598817 
L 721.785926 -513.731597 
L 722.172944 -509.864377 
L 722.578946 -505.997157 
L 723.009005 -502.129937 
L 723.435766 -498.262717 
L 723.843579 -494.395496 
L 724.268897 -490.528276 
L 724.780828 -486.661056 
L 725.419309 -482.793836 
L 726.15513 -478.926616 
L 726.910083 -475.059396 
L 727.613627 -471.192176 
L 728.240937 -467.324956 
L 728.81002 -463.457736 
L 729.360435 -459.590516 
L 729.932283 -455.723296 
L 730.548035 -451.856076 
L 731.208303 -447.988855 
L 731.90426 -444.121635 
L 732.623755 -440.254415 
L 733.343901 -436.387195 
L 734.037033 -432.519975 
L 734.697872 -428.652755 
L 735.360034 -424.785535 
L 736.081067 -420.918315 
L 736.90753 -417.051095 
L 737.84127 -413.183875 
L 738.832342 -409.316655 
L 739.814278 -405.449435 
L 740.75782 -401.582214 
L 741.69604 -397.714994 
L 742.698824 -393.847774 
L 743.81364 -389.980554 
L 745.016811 -386.113334 
L 746.224553 -382.246114 
L 747.366653 -378.378894 
L 748.455827 -374.511674 
L 749.584214 -370.644454 
L 750.85152 -366.777234 
L 752.282673 -362.910014 
L 753.792074 -359.042794 
L 755.232556 -355.175573 
L 756.512476 -351.308353 
L 757.677094 -347.441133 
L 758.860991 -343.573913 
L 760.164219 -339.706693 
L 761.591207 -335.839473 
L 763.100947 -331.972253 
L 764.685852 -328.105033 
L 766.379738 -324.237813 
L 768.196116 -320.370593 
L 770.092605 -316.503373 
L 772.010474 -312.636153 
L 773.917477 -308.768933 
L 775.79608 -304.901712 
L 777.629897 -301.034492 
L 779.427507 -297.167272 
L 781.228499 -293.300052 
L 783.056738 -289.432832 
L 784.876696 -285.565612 
L 786.616475 -281.698392 
L 788.243633 -277.831172 
L 789.809047 -273.963952 
L 791.394413 -270.096732 
L 793.020708 -266.229512 
L 794.640676 -262.362292 
L 796.219606 -258.495071 
L 797.781732 -254.627851 
L 799.366785 -250.760631 
L 800.971733 -246.893411 
L 802.546643 -243.026191 
L 804.028696 -239.158971 
L 805.378681 -235.291751 
L 806.606609 -231.424531 
L 807.762162 -227.557311 
L 808.875225 -223.690091 
L 809.896886 -219.822871 
L 810.715026 -215.955651 
L 811.244985 -212.08843 
L 811.505645 -208.22121 
L 811.600487 -204.35399 
L 811.610375 -200.48677 
L 811.401187 -196.61955 
L 810.287983 -192.75233 
L 806.713505 -188.88511 
L 798.558351 -185.01789 
L 784.542085 -181.15067 
L 765.878474 -177.28345 
L 746.340996 -173.41623 
L 730.13913 -169.54901 
z
" style="stroke: #595959; stroke-opacity: 0.9; stroke-width: 1.25"/>
    </defs>
    <g clip-path="url(#p7e3e0e9b10)">
     <use xlink:href="#m15d45a01c4" x="0" y="621.597813" style="fill: #dee9a4; fill-opacity: 0.9; stroke: #595959; stroke-opacity: 0.9; stroke-width: 1.25"/>
    </g>
   </g>
   <g id="FillBetweenPolyCollection_4">
    <defs>
     <path id="m09b8ac63d5" d="M 967.293274 -170.13712 
L 959.380476 -170.13712 
L 957.28172 -173.998482 
L 954.923851 -177.859845 
L 952.604744 -181.721207 
L 950.596068 -185.58257 
L 949.045931 -189.443932 
L 947.955799 -193.305295 
L 947.229397 -197.166657 
L 946.746202 -201.02802 
L 946.414325 -204.889382 
L 946.188554 -208.750745 
L 946.063271 -212.612107 
L 946.05405 -216.47347 
L 946.176649 -220.334832 
L 946.429485 -224.196195 
L 946.7861 -228.057557 
L 947.201702 -231.91892 
L 947.630789 -235.780282 
L 948.045973 -239.641645 
L 948.447046 -243.503007 
L 948.854658 -247.36437 
L 949.292141 -251.225732 
L 949.767263 -255.087095 
L 950.266557 -258.948457 
L 950.765591 -262.80982 
L 951.246164 -266.671182 
L 951.70719 -270.532545 
L 952.162592 -274.393907 
L 952.629335 -278.25527 
L 953.114037 -282.116632 
L 953.606135 -285.977995 
L 954.081376 -289.839357 
L 954.513398 -293.70072 
L 954.886093 -297.562082 
L 955.199167 -301.423445 
L 955.464949 -305.284807 
L 955.700968 -309.14617 
L 955.924081 -313.007532 
L 956.147879 -316.868895 
L 956.381531 -320.730257 
L 956.628656 -324.59162 
L 956.887001 -328.452982 
L 957.149907 -332.314345 
L 957.4091 -336.175707 
L 957.657493 -340.03707 
L 957.890884 -343.898432 
L 958.108029 -347.759795 
L 958.309513 -351.621157 
L 958.49685 -355.48252 
L 958.672817 -359.343882 
L 958.842132 -363.205245 
L 959.010691 -367.066607 
L 959.183177 -370.92797 
L 959.360843 -374.789332 
L 959.541128 -378.650695 
L 959.718864 -382.512057 
L 959.887892 -386.37342 
L 960.042596 -390.234782 
L 960.179657 -394.096145 
L 960.29978 -397.957507 
L 960.408109 -401.81887 
L 960.512241 -405.680232 
L 960.618496 -409.541595 
L 960.72876 -413.402957 
L 960.839944 -417.26432 
L 960.946254 -421.125682 
L 961.042595 -424.987045 
L 961.127103 -428.848407 
L 961.201819 -432.70977 
L 961.271598 -436.571132 
L 961.341797 -440.432495 
L 961.415592 -444.293857 
L 961.492189 -448.15522 
L 961.566991 -452.016582 
L 961.63379 -455.877945 
L 961.687961 -459.739307 
L 961.729134 -463.60067 
L 961.761846 -467.462032 
L 961.79349 -471.323395 
L 961.830573 -475.184757 
L 961.875658 -479.04612 
L 961.926902 -482.907482 
L 961.980239 -486.768845 
L 962.032407 -490.630207 
L 962.082567 -494.49157 
L 962.131449 -498.352932 
L 962.179057 -502.214295 
L 962.223266 -506.075657 
L 962.260843 -509.93702 
L 962.289995 -513.798382 
L 962.312131 -517.659745 
L 962.331518 -521.521107 
L 962.353613 -525.38247 
L 962.383795 -529.243832 
L 962.427218 -533.105195 
L 962.489002 -536.966557 
L 962.573353 -540.82792 
L 962.68116 -544.689282 
L 962.807363 -548.550645 
L 962.9404 -552.412007 
L 963.73335 -552.412007 
L 963.73335 -552.412007 
L 963.866387 -548.550645 
L 963.99259 -544.689282 
L 964.100397 -540.82792 
L 964.184748 -536.966557 
L 964.246532 -533.105195 
L 964.289955 -529.243832 
L 964.320137 -525.38247 
L 964.342232 -521.521107 
L 964.361619 -517.659745 
L 964.383755 -513.798382 
L 964.412907 -509.93702 
L 964.450484 -506.075657 
L 964.494693 -502.214295 
L 964.542301 -498.352932 
L 964.591183 -494.49157 
L 964.641343 -490.630207 
L 964.693511 -486.768845 
L 964.746848 -482.907482 
L 964.798092 -479.04612 
L 964.843177 -475.184757 
L 964.88026 -471.323395 
L 964.911904 -467.462032 
L 964.944616 -463.60067 
L 964.985789 -459.739307 
L 965.03996 -455.877945 
L 965.106759 -452.016582 
L 965.181561 -448.15522 
L 965.258158 -444.293857 
L 965.331953 -440.432495 
L 965.402152 -436.571132 
L 965.471931 -432.70977 
L 965.546647 -428.848407 
L 965.631155 -424.987045 
L 965.727496 -421.125682 
L 965.833806 -417.26432 
L 965.94499 -413.402957 
L 966.055254 -409.541595 
L 966.161509 -405.680232 
L 966.265641 -401.81887 
L 966.37397 -397.957507 
L 966.494093 -394.096145 
L 966.631154 -390.234782 
L 966.785858 -386.37342 
L 966.954886 -382.512057 
L 967.132622 -378.650695 
L 967.312907 -374.789332 
L 967.490573 -370.92797 
L 967.663059 -367.066607 
L 967.831618 -363.205245 
L 968.000933 -359.343882 
L 968.1769 -355.48252 
L 968.364237 -351.621157 
L 968.565721 -347.759795 
L 968.782866 -343.898432 
L 969.016257 -340.03707 
L 969.26465 -336.175707 
L 969.523843 -332.314345 
L 969.786749 -328.452982 
L 970.045094 -324.59162 
L 970.292219 -320.730257 
L 970.525871 -316.868895 
L 970.749669 -313.007532 
L 970.972782 -309.14617 
L 971.208801 -305.284807 
L 971.474583 -301.423445 
L 971.787657 -297.562082 
L 972.160352 -293.70072 
L 972.592374 -289.839357 
L 973.067615 -285.977995 
L 973.559713 -282.116632 
L 974.044415 -278.25527 
L 974.511158 -274.393907 
L 974.96656 -270.532545 
L 975.427586 -266.671182 
L 975.908159 -262.80982 
L 976.407193 -258.948457 
L 976.906487 -255.087095 
L 977.381609 -251.225732 
L 977.819092 -247.36437 
L 978.226704 -243.503007 
L 978.627777 -239.641645 
L 979.042961 -235.780282 
L 979.472048 -231.91892 
L 979.88765 -228.057557 
L 980.244265 -224.196195 
L 980.497101 -220.334832 
L 980.6197 -216.47347 
L 980.610479 -212.612107 
L 980.485196 -208.750745 
L 980.259425 -204.889382 
L 979.927548 -201.02802 
L 979.444353 -197.166657 
L 978.717951 -193.305295 
L 977.627819 -189.443932 
L 976.077682 -185.58257 
L 974.069006 -181.721207 
L 971.749899 -177.859845 
L 969.39203 -173.998482 
L 967.293274 -170.13712 
z
" style="stroke: #595959; stroke-opacity: 0.9; stroke-width: 1.25"/>
    </defs>
    <g clip-path="url(#p7e3e0e9b10)">
     <use xlink:href="#m09b8ac63d5" x="0" y="621.597813" style="fill: #72b6a1; fill-opacity: 0.9; stroke: #595959; stroke-opacity: 0.9; stroke-width: 1.25"/>
    </g>
   </g>
   <g id="line2d_10">
    <path d="M 204.704375 449.758446 
L 204.704375 69.516558 
" clip-path="url(#p7e3e0e9b10)" style="fill: none; stroke: #595959; stroke-width: 1.875; stroke-linecap: round"/>
   </g>
   <g id="line2d_11">
    <path d="M 204.704375 392.651508 
L 204.704375 263.392893 
" clip-path="url(#p7e3e0e9b10)" style="fill: none; stroke: #595959; stroke-width: 5.625; stroke-linecap: round"/>
   </g>
   <g id="line2d_12">
    <path d="M 204.704375 340.932725 
" clip-path="url(#p7e3e0e9b10)" style="fill: none; stroke: #595959; stroke-width: 1.5; stroke-linecap: round"/>
    <defs>
     <path id="mda5872178f" d="M 2.34375 0 
L -2.34375 -0 
" style="stroke: #ffffff; stroke-width: 1.125"/>
    </defs>
    <g clip-path="url(#p7e3e0e9b10)">
     <use xlink:href="#mda5872178f" x="204.704375" y="340.932725" style="fill: #ffffff; stroke: #ffffff; stroke-width: 1.125"/>
    </g>
   </g>
   <g id="line2d_13">
    <path d="M 457.581875 452.854801 
L 457.581875 92.348447 
" clip-path="url(#p7e3e0e9b10)" style="fill: none; stroke: #595959; stroke-width: 1.875; stroke-linecap: round"/>
   </g>
   <g id="line2d_14">
    <path d="M 457.581875 392.252712 
L 457.581875 272.28258 
" clip-path="url(#p7e3e0e9b10)" style="fill: none; stroke: #595959; stroke-width: 5.625; stroke-linecap: round"/>
   </g>
   <g id="line2d_15">
    <path d="M 457.581875 343.387693 
" clip-path="url(#p7e3e0e9b10)" style="fill: none; stroke: #595959; stroke-width: 1.5; stroke-linecap: round"/>
    <g clip-path="url(#p7e3e0e9b10)">
     <use xlink:href="#mda5872178f" x="457.581875" y="343.387693" style="fill: #ffffff; stroke: #ffffff; stroke-width: 1.125"/>
    </g>
   </g>
   <g id="line2d_16">
    <path d="M 710.459375 452.048803 
L 710.459375 85.741241 
" clip-path="url(#p7e3e0e9b10)" style="fill: none; stroke: #595959; stroke-width: 1.875; stroke-linecap: round"/>
   </g>
   <g id="line2d_17">
    <path d="M 710.459375 399.510876 
L 710.459375 274.001086 
" clip-path="url(#p7e3e0e9b10)" style="fill: none; stroke: #595959; stroke-width: 5.625; stroke-linecap: round"/>
   </g>
   <g id="line2d_18">
    <path d="M 710.459375 347.934649 
" clip-path="url(#p7e3e0e9b10)" style="fill: none; stroke: #595959; stroke-width: 1.5; stroke-linecap: round"/>
    <g clip-path="url(#p7e3e0e9b10)">
     <use xlink:href="#mda5872178f" x="710.459375" y="347.934649" style="fill: #ffffff; stroke: #ffffff; stroke-width: 1.125"/>
    </g>
   </g>
   <g id="line2d_19">
    <path d="M 963.336875 451.460693 
L 963.336875 147.816047 
" clip-path="url(#p7e3e0e9b10)" style="fill: none; stroke: #595959; stroke-width: 1.875; stroke-linecap: round"/>
   </g>
   <g id="line2d_20">
    <path d="M 963.336875 406.454758 
L 963.336875 302.998782 
" clip-path="url(#p7e3e0e9b10)" style="fill: none; stroke: #595959; stroke-width: 5.625; stroke-linecap: round"/>
   </g>
   <g id="line2d_21">
    <path d="M 963.336875 367.044108 
" clip-path="url(#p7e3e0e9b10)" style="fill: none; stroke: #595959; stroke-width: 1.5; stroke-linecap: round"/>
    <g clip-path="url(#p7e3e0e9b10)">
     <use xlink:href="#mda5872178f" x="963.336875" y="367.044108" style="fill: #ffffff; stroke: #ffffff; stroke-width: 1.125"/>
    </g>
   </g>
   <g id="patch_3">
    <path d="M 78.265625 472.038438 
L 78.265625 49.998438 
" style="fill: none; stroke: #cccccc; stroke-width: 1.25; stroke-linejoin: miter; stroke-linecap: square"/>
   </g>
   <g id="patch_4">
    <path d="M 1089.775625 472.038438 
L 1089.775625 49.998438 
" style="fill: none; stroke: #cccccc; stroke-width: 1.25; stroke-linejoin: miter; stroke-linecap: square"/>
   </g>
   <g id="patch_5">
    <path d="M 78.265625 472.038438 
L 1089.775625 472.038438 
" style="fill: none; stroke: #cccccc; stroke-width: 1.25; stroke-linejoin: miter; stroke-linecap: square"/>
   </g>
   <g id="patch_6">
    <path d="M 78.265625 49.998438 
L 1089.775625 49.998438 
" style="fill: none; stroke: #cccccc; stroke-width: 1.25; stroke-linejoin: miter; stroke-linecap: square"/>
   </g>
   <g id="text_16">
    <text style="font-size: 10px; font-family: 'Arial', 'DejaVu Sans', 'Liberation Sans', 'Bitstream Vera Sans', sans-serif; text-anchor: middle; fill: #262626" x="584.020625" y="43.998438" transform="rotate(-0 584.020625 43.998438)">Distance distribution per Level One Cell Type in `maternalfetalinterface-mibitof-stanford` (density normalization = count)</text>
   </g>
  </g>
 </g>
 <defs>
  <clipPath id="p7e3e0e9b10">
   <rect x="78.265625" y="49.998438" width="1011.51" height="422.04"/>
  </clipPath>
 </defs>
</svg>
