<?xml version="1.0" encoding="utf-8" standalone="no"?>
<!DOCTYPE svg PUBLIC "-//W3C//DTD SVG 1.1//EN"
  "http://www.w3.org/Graphics/SVG/1.1/DTD/svg11.dtd">
<svg xmlns:xlink="http://www.w3.org/1999/xlink" width="770.959625pt" height="482.741813pt" viewBox="0 0 770.959625 482.741813" xmlns="http://www.w3.org/2000/svg" version="1.1">
 <metadata>
  <rdf:RDF xmlns:dc="http://purl.org/dc/elements/1.1/" xmlns:cc="http://creativecommons.org/ns#" xmlns:rdf="http://www.w3.org/1999/02/22-rdf-syntax-ns#">
   <cc:Work>
    <dc:type rdf:resource="http://purl.org/dc/dcmitype/StillImage"/>
    <dc:date>2025-07-02T16:33:31.312594</dc:date>
    <dc:format>image/svg+xml</dc:format>
    <dc:creator>
     <cc:Agent>
      <dc:title>Matplotlib v3.10.3, https://matplotlib.org/</dc:title>
     </cc:Agent>
    </dc:creator>
   </cc:Work>
  </rdf:RDF>
 </metadata>
 <defs>
  <style type="text/css">*{stroke-linejoin: round; stroke-linecap: butt}</style>
 </defs>
 <g id="figure_1">
  <g id="patch_1">
   <path d="M 0 482.741813 
L 770.959625 482.741813 
L 770.959625 -0 
L 0 -0 
z
" style="fill: #ffffff"/>
  </g>
  <g id="axes_1">
   <g id="patch_2">
    <path d="M 78.265625 333.182437 
L 734.959625 333.182437 
L 734.959625 49.598438 
L 78.265625 49.598438 
z
" style="fill: #ffffff"/>
   </g>
   <g id="matplotlib.axis_1">
    <g id="xtick_1">
     <g id="text_1">
      <!-- immune cell -->
      <g style="fill: #262626" transform="translate(163.11175 404.155875) rotate(-90) scale(0.1 -0.1)">
       <defs>
        <path id="DejaVuSans-69" d="M 603 3500 
L 1178 3500 
L 1178 0 
L 603 0 
L 603 3500 
z
M 603 4863 
L 1178 4863 
L 1178 4134 
L 603 4134 
L 603 4863 
z
" transform="scale(0.015625)"/>
        <path id="DejaVuSans-6d" d="M 3328 2828 
Q 3544 3216 3844 3400 
Q 4144 3584 4550 3584 
Q 5097 3584 5394 3201 
Q 5691 2819 5691 2113 
L 5691 0 
L 5113 0 
L 5113 2094 
Q 5113 2597 4934 2840 
Q 4756 3084 4391 3084 
Q 3944 3084 3684 2787 
Q 3425 2491 3425 1978 
L 3425 0 
L 2847 0 
L 2847 2094 
Q 2847 2600 2669 2842 
Q 2491 3084 2119 3084 
Q 1678 3084 1418 2786 
Q 1159 2488 1159 1978 
L 1159 0 
L 581 0 
L 581 3500 
L 1159 3500 
L 1159 2956 
Q 1356 3278 1631 3431 
Q 1906 3584 2284 3584 
Q 2666 3584 2933 3390 
Q 3200 3197 3328 2828 
z
" transform="scale(0.015625)"/>
        <path id="DejaVuSans-75" d="M 544 1381 
L 544 3500 
L 1119 3500 
L 1119 1403 
Q 1119 906 1312 657 
Q 1506 409 1894 409 
Q 2359 409 2629 706 
Q 2900 1003 2900 1516 
L 2900 3500 
L 3475 3500 
L 3475 0 
L 2900 0 
L 2900 538 
Q 2691 219 2414 64 
Q 2138 -91 1772 -91 
Q 1169 -91 856 284 
Q 544 659 544 1381 
z
M 1991 3584 
L 1991 3584 
z
" transform="scale(0.015625)"/>
        <path id="DejaVuSans-6e" d="M 3513 2113 
L 3513 0 
L 2938 0 
L 2938 2094 
Q 2938 2591 2744 2837 
Q 2550 3084 2163 3084 
Q 1697 3084 1428 2787 
Q 1159 2491 1159 1978 
L 1159 0 
L 581 0 
L 581 3500 
L 1159 3500 
L 1159 2956 
Q 1366 3272 1645 3428 
Q 1925 3584 2291 3584 
Q 2894 3584 3203 3211 
Q 3513 2838 3513 2113 
z
" transform="scale(0.015625)"/>
        <path id="DejaVuSans-65" d="M 3597 1894 
L 3597 1613 
L 953 1613 
Q 991 1019 1311 708 
Q 1631 397 2203 397 
Q 2534 397 2845 478 
Q 3156 559 3463 722 
L 3463 178 
Q 3153 47 2828 -22 
Q 2503 -91 2169 -91 
Q 1331 -91 842 396 
Q 353 884 353 1716 
Q 353 2575 817 3079 
Q 1281 3584 2069 3584 
Q 2775 3584 3186 3129 
Q 3597 2675 3597 1894 
z
M 3022 2063 
Q 3016 2534 2758 2815 
Q 2500 3097 2075 3097 
Q 1594 3097 1305 2825 
Q 1016 2553 972 2059 
L 3022 2063 
z
" transform="scale(0.015625)"/>
        <path id="DejaVuSans-20" transform="scale(0.015625)"/>
        <path id="DejaVuSans-63" d="M 3122 3366 
L 3122 2828 
Q 2878 2963 2633 3030 
Q 2388 3097 2138 3097 
Q 1578 3097 1268 2742 
Q 959 2388 959 1747 
Q 959 1106 1268 751 
Q 1578 397 2138 397 
Q 2388 397 2633 464 
Q 2878 531 3122 666 
L 3122 134 
Q 2881 22 2623 -34 
Q 2366 -91 2075 -91 
Q 1284 -91 818 406 
Q 353 903 353 1747 
Q 353 2603 823 3093 
Q 1294 3584 2113 3584 
Q 2378 3584 2631 3529 
Q 2884 3475 3122 3366 
z
" transform="scale(0.015625)"/>
        <path id="DejaVuSans-6c" d="M 603 4863 
L 1178 4863 
L 1178 0 
L 603 0 
L 603 4863 
z
" transform="scale(0.015625)"/>
       </defs>
       <use xlink:href="#DejaVuSans-69"/>
       <use xlink:href="#DejaVuSans-6d" transform="translate(27.783203 0)"/>
       <use xlink:href="#DejaVuSans-6d" transform="translate(125.195312 0)"/>
       <use xlink:href="#DejaVuSans-75" transform="translate(222.607422 0)"/>
       <use xlink:href="#DejaVuSans-6e" transform="translate(285.986328 0)"/>
       <use xlink:href="#DejaVuSans-65" transform="translate(349.365234 0)"/>
       <use xlink:href="#DejaVuSans-20" transform="translate(410.888672 0)"/>
       <use xlink:href="#DejaVuSans-63" transform="translate(442.675781 0)"/>
       <use xlink:href="#DejaVuSans-65" transform="translate(497.65625 0)"/>
       <use xlink:href="#DejaVuSans-6c" transform="translate(559.179688 0)"/>
       <use xlink:href="#DejaVuSans-6c" transform="translate(586.962891 0)"/>
      </g>
     </g>
    </g>
    <g id="xtick_2">
     <g id="text_2">
      <!-- unknown cell -->
      <g style="fill: #262626" transform="translate(327.28525 408.505875) rotate(-90) scale(0.1 -0.1)">
       <defs>
        <path id="DejaVuSans-6b" d="M 581 4863 
L 1159 4863 
L 1159 1991 
L 2875 3500 
L 3609 3500 
L 1753 1863 
L 3688 0 
L 2938 0 
L 1159 1709 
L 1159 0 
L 581 0 
L 581 4863 
z
" transform="scale(0.015625)"/>
        <path id="DejaVuSans-6f" d="M 1959 3097 
Q 1497 3097 1228 2736 
Q 959 2375 959 1747 
Q 959 1119 1226 758 
Q 1494 397 1959 397 
Q 2419 397 2687 759 
Q 2956 1122 2956 1747 
Q 2956 2369 2687 2733 
Q 2419 3097 1959 3097 
z
M 1959 3584 
Q 2709 3584 3137 3096 
Q 3566 2609 3566 1747 
Q 3566 888 3137 398 
Q 2709 -91 1959 -91 
Q 1206 -91 779 398 
Q 353 888 353 1747 
Q 353 2609 779 3096 
Q 1206 3584 1959 3584 
z
" transform="scale(0.015625)"/>
        <path id="DejaVuSans-77" d="M 269 3500 
L 844 3500 
L 1563 769 
L 2278 3500 
L 2956 3500 
L 3675 769 
L 4391 3500 
L 4966 3500 
L 4050 0 
L 3372 0 
L 2619 2869 
L 1863 0 
L 1184 0 
L 269 3500 
z
" transform="scale(0.015625)"/>
       </defs>
       <use xlink:href="#DejaVuSans-75"/>
       <use xlink:href="#DejaVuSans-6e" transform="translate(63.378906 0)"/>
       <use xlink:href="#DejaVuSans-6b" transform="translate(126.757812 0)"/>
       <use xlink:href="#DejaVuSans-6e" transform="translate(184.667969 0)"/>
       <use xlink:href="#DejaVuSans-6f" transform="translate(248.046875 0)"/>
       <use xlink:href="#DejaVuSans-77" transform="translate(309.228516 0)"/>
       <use xlink:href="#DejaVuSans-6e" transform="translate(391.015625 0)"/>
       <use xlink:href="#DejaVuSans-20" transform="translate(454.394531 0)"/>
       <use xlink:href="#DejaVuSans-63" transform="translate(486.181641 0)"/>
       <use xlink:href="#DejaVuSans-65" transform="translate(541.162109 0)"/>
       <use xlink:href="#DejaVuSans-6c" transform="translate(602.685547 0)"/>
       <use xlink:href="#DejaVuSans-6c" transform="translate(630.46875 0)"/>
      </g>
     </g>
    </g>
    <g id="xtick_3">
     <g id="text_3">
      <!-- epithelial cell -->
      <g style="fill: #262626" transform="translate(491.45875 409.2215) rotate(-90) scale(0.1 -0.1)">
       <defs>
        <path id="DejaVuSans-70" d="M 1159 525 
L 1159 -1331 
L 581 -1331 
L 581 3500 
L 1159 3500 
L 1159 2969 
Q 1341 3281 1617 3432 
Q 1894 3584 2278 3584 
Q 2916 3584 3314 3078 
Q 3713 2572 3713 1747 
Q 3713 922 3314 415 
Q 2916 -91 2278 -91 
Q 1894 -91 1617 61 
Q 1341 213 1159 525 
z
M 3116 1747 
Q 3116 2381 2855 2742 
Q 2594 3103 2138 3103 
Q 1681 3103 1420 2742 
Q 1159 2381 1159 1747 
Q 1159 1113 1420 752 
Q 1681 391 2138 391 
Q 2594 391 2855 752 
Q 3116 1113 3116 1747 
z
" transform="scale(0.015625)"/>
        <path id="DejaVuSans-74" d="M 1172 4494 
L 1172 3500 
L 2356 3500 
L 2356 3053 
L 1172 3053 
L 1172 1153 
Q 1172 725 1289 603 
Q 1406 481 1766 481 
L 2356 481 
L 2356 0 
L 1766 0 
Q 1100 0 847 248 
Q 594 497 594 1153 
L 594 3053 
L 172 3053 
L 172 3500 
L 594 3500 
L 594 4494 
L 1172 4494 
z
" transform="scale(0.015625)"/>
        <path id="DejaVuSans-68" d="M 3513 2113 
L 3513 0 
L 2938 0 
L 2938 2094 
Q 2938 2591 2744 2837 
Q 2550 3084 2163 3084 
Q 1697 3084 1428 2787 
Q 1159 2491 1159 1978 
L 1159 0 
L 581 0 
L 581 4863 
L 1159 4863 
L 1159 2956 
Q 1366 3272 1645 3428 
Q 1925 3584 2291 3584 
Q 2894 3584 3203 3211 
Q 3513 2838 3513 2113 
z
" transform="scale(0.015625)"/>
        <path id="DejaVuSans-61" d="M 2194 1759 
Q 1497 1759 1228 1600 
Q 959 1441 959 1056 
Q 959 750 1161 570 
Q 1363 391 1709 391 
Q 2188 391 2477 730 
Q 2766 1069 2766 1631 
L 2766 1759 
L 2194 1759 
z
M 3341 1997 
L 3341 0 
L 2766 0 
L 2766 531 
Q 2569 213 2275 61 
Q 1981 -91 1556 -91 
Q 1019 -91 701 211 
Q 384 513 384 1019 
Q 384 1609 779 1909 
Q 1175 2209 1959 2209 
L 2766 2209 
L 2766 2266 
Q 2766 2663 2505 2880 
Q 2244 3097 1772 3097 
Q 1472 3097 1187 3025 
Q 903 2953 641 2809 
L 641 3341 
Q 956 3463 1253 3523 
Q 1550 3584 1831 3584 
Q 2591 3584 2966 3190 
Q 3341 2797 3341 1997 
z
" transform="scale(0.015625)"/>
       </defs>
       <use xlink:href="#DejaVuSans-65"/>
       <use xlink:href="#DejaVuSans-70" transform="translate(61.523438 0)"/>
       <use xlink:href="#DejaVuSans-69" transform="translate(125 0)"/>
       <use xlink:href="#DejaVuSans-74" transform="translate(152.783203 0)"/>
       <use xlink:href="#DejaVuSans-68" transform="translate(191.992188 0)"/>
       <use xlink:href="#DejaVuSans-65" transform="translate(255.371094 0)"/>
       <use xlink:href="#DejaVuSans-6c" transform="translate(316.894531 0)"/>
       <use xlink:href="#DejaVuSans-69" transform="translate(344.677734 0)"/>
       <use xlink:href="#DejaVuSans-61" transform="translate(372.460938 0)"/>
       <use xlink:href="#DejaVuSans-6c" transform="translate(433.740234 0)"/>
       <use xlink:href="#DejaVuSans-20" transform="translate(461.523438 0)"/>
       <use xlink:href="#DejaVuSans-63" transform="translate(493.310547 0)"/>
       <use xlink:href="#DejaVuSans-65" transform="translate(548.291016 0)"/>
       <use xlink:href="#DejaVuSans-6c" transform="translate(609.814453 0)"/>
       <use xlink:href="#DejaVuSans-6c" transform="translate(637.597656 0)"/>
      </g>
     </g>
    </g>
    <g id="xtick_4">
     <g id="text_4">
      <!-- mesenchymal cell -->
      <g style="fill: #262626" transform="translate(655.63225 433.063688) rotate(-90) scale(0.1 -0.1)">
       <defs>
        <path id="DejaVuSans-73" d="M 2834 3397 
L 2834 2853 
Q 2591 2978 2328 3040 
Q 2066 3103 1784 3103 
Q 1356 3103 1142 2972 
Q 928 2841 928 2578 
Q 928 2378 1081 2264 
Q 1234 2150 1697 2047 
L 1894 2003 
Q 2506 1872 2764 1633 
Q 3022 1394 3022 966 
Q 3022 478 2636 193 
Q 2250 -91 1575 -91 
Q 1294 -91 989 -36 
Q 684 19 347 128 
L 347 722 
Q 666 556 975 473 
Q 1284 391 1588 391 
Q 1994 391 2212 530 
Q 2431 669 2431 922 
Q 2431 1156 2273 1281 
Q 2116 1406 1581 1522 
L 1381 1569 
Q 847 1681 609 1914 
Q 372 2147 372 2553 
Q 372 3047 722 3315 
Q 1072 3584 1716 3584 
Q 2034 3584 2315 3537 
Q 2597 3491 2834 3397 
z
" transform="scale(0.015625)"/>
        <path id="DejaVuSans-79" d="M 2059 -325 
Q 1816 -950 1584 -1140 
Q 1353 -1331 966 -1331 
L 506 -1331 
L 506 -850 
L 844 -850 
Q 1081 -850 1212 -737 
Q 1344 -625 1503 -206 
L 1606 56 
L 191 3500 
L 800 3500 
L 1894 763 
L 2988 3500 
L 3597 3500 
L 2059 -325 
z
" transform="scale(0.015625)"/>
       </defs>
       <use xlink:href="#DejaVuSans-6d"/>
       <use xlink:href="#DejaVuSans-65" transform="translate(97.412109 0)"/>
       <use xlink:href="#DejaVuSans-73" transform="translate(158.935547 0)"/>
       <use xlink:href="#DejaVuSans-65" transform="translate(211.035156 0)"/>
       <use xlink:href="#DejaVuSans-6e" transform="translate(272.558594 0)"/>
       <use xlink:href="#DejaVuSans-63" transform="translate(335.9375 0)"/>
       <use xlink:href="#DejaVuSans-68" transform="translate(390.917969 0)"/>
       <use xlink:href="#DejaVuSans-79" transform="translate(454.296875 0)"/>
       <use xlink:href="#DejaVuSans-6d" transform="translate(513.476562 0)"/>
       <use xlink:href="#DejaVuSans-61" transform="translate(610.888672 0)"/>
       <use xlink:href="#DejaVuSans-6c" transform="translate(672.167969 0)"/>
       <use xlink:href="#DejaVuSans-20" transform="translate(699.951172 0)"/>
       <use xlink:href="#DejaVuSans-63" transform="translate(731.738281 0)"/>
       <use xlink:href="#DejaVuSans-65" transform="translate(786.71875 0)"/>
       <use xlink:href="#DejaVuSans-6c" transform="translate(848.242188 0)"/>
       <use xlink:href="#DejaVuSans-6c" transform="translate(876.025391 0)"/>
      </g>
     </g>
    </g>
    <g id="text_5">
     <!-- Level One Cell Type -->
     <g style="fill: #262626" transform="translate(357.635281 444.662125) scale(0.1 -0.1)">
      <defs>
       <path id="DejaVuSans-4c" d="M 628 4666 
L 1259 4666 
L 1259 531 
L 3531 531 
L 3531 0 
L 628 0 
L 628 4666 
z
" transform="scale(0.015625)"/>
       <path id="DejaVuSans-76" d="M 191 3500 
L 800 3500 
L 1894 563 
L 2988 3500 
L 3597 3500 
L 2284 0 
L 1503 0 
L 191 3500 
z
" transform="scale(0.015625)"/>
       <path id="DejaVuSans-4f" d="M 2522 4238 
Q 1834 4238 1429 3725 
Q 1025 3213 1025 2328 
Q 1025 1447 1429 934 
Q 1834 422 2522 422 
Q 3209 422 3611 934 
Q 4013 1447 4013 2328 
Q 4013 3213 3611 3725 
Q 3209 4238 2522 4238 
z
M 2522 4750 
Q 3503 4750 4090 4092 
Q 4678 3434 4678 2328 
Q 4678 1225 4090 567 
Q 3503 -91 2522 -91 
Q 1538 -91 948 565 
Q 359 1222 359 2328 
Q 359 3434 948 4092 
Q 1538 4750 2522 4750 
z
" transform="scale(0.015625)"/>
       <path id="DejaVuSans-43" d="M 4122 4306 
L 4122 3641 
Q 3803 3938 3442 4084 
Q 3081 4231 2675 4231 
Q 1875 4231 1450 3742 
Q 1025 3253 1025 2328 
Q 1025 1406 1450 917 
Q 1875 428 2675 428 
Q 3081 428 3442 575 
Q 3803 722 4122 1019 
L 4122 359 
Q 3791 134 3420 21 
Q 3050 -91 2638 -91 
Q 1578 -91 968 557 
Q 359 1206 359 2328 
Q 359 3453 968 4101 
Q 1578 4750 2638 4750 
Q 3056 4750 3426 4639 
Q 3797 4528 4122 4306 
z
" transform="scale(0.015625)"/>
       <path id="DejaVuSans-54" d="M -19 4666 
L 3928 4666 
L 3928 4134 
L 2272 4134 
L 2272 0 
L 1638 0 
L 1638 4134 
L -19 4134 
L -19 4666 
z
" transform="scale(0.015625)"/>
      </defs>
      <use xlink:href="#DejaVuSans-4c"/>
      <use xlink:href="#DejaVuSans-65" transform="translate(53.962891 0)"/>
      <use xlink:href="#DejaVuSans-76" transform="translate(115.486328 0)"/>
      <use xlink:href="#DejaVuSans-65" transform="translate(174.666016 0)"/>
      <use xlink:href="#DejaVuSans-6c" transform="translate(236.189453 0)"/>
      <use xlink:href="#DejaVuSans-20" transform="translate(263.972656 0)"/>
      <use xlink:href="#DejaVuSans-4f" transform="translate(295.759766 0)"/>
      <use xlink:href="#DejaVuSans-6e" transform="translate(374.470703 0)"/>
      <use xlink:href="#DejaVuSans-65" transform="translate(437.849609 0)"/>
      <use xlink:href="#DejaVuSans-20" transform="translate(499.373047 0)"/>
      <use xlink:href="#DejaVuSans-43" transform="translate(531.160156 0)"/>
      <use xlink:href="#DejaVuSans-65" transform="translate(600.984375 0)"/>
      <use xlink:href="#DejaVuSans-6c" transform="translate(662.507812 0)"/>
      <use xlink:href="#DejaVuSans-6c" transform="translate(690.291016 0)"/>
      <use xlink:href="#DejaVuSans-20" transform="translate(718.074219 0)"/>
      <use xlink:href="#DejaVuSans-54" transform="translate(749.861328 0)"/>
      <use xlink:href="#DejaVuSans-79" transform="translate(795.320312 0)"/>
      <use xlink:href="#DejaVuSans-70" transform="translate(854.5 0)"/>
      <use xlink:href="#DejaVuSans-65" transform="translate(917.976562 0)"/>
     </g>
    </g>
   </g>
   <g id="matplotlib.axis_2">
    <g id="ytick_1">
     <g id="line2d_1">
      <path d="M 78.265625 324.88059 
L 734.959625 324.88059 
" clip-path="url(#p16d1bae8f3)" style="fill: none; stroke: #cccccc; stroke-width: 2; stroke-linecap: round"/>
     </g>
     <g id="text_6">
      <!-- 0 -->
      <g style="fill: #262626" transform="translate(62.403125 328.679809) scale(0.1 -0.1)">
       <defs>
        <path id="DejaVuSans-30" d="M 2034 4250 
Q 1547 4250 1301 3770 
Q 1056 3291 1056 2328 
Q 1056 1369 1301 889 
Q 1547 409 2034 409 
Q 2525 409 2770 889 
Q 3016 1369 3016 2328 
Q 3016 3291 2770 3770 
Q 2525 4250 2034 4250 
z
M 2034 4750 
Q 2819 4750 3233 4129 
Q 3647 3509 3647 2328 
Q 3647 1150 3233 529 
Q 2819 -91 2034 -91 
Q 1250 -91 836 529 
Q 422 1150 422 2328 
Q 422 3509 836 4129 
Q 1250 4750 2034 4750 
z
" transform="scale(0.015625)"/>
       </defs>
       <use xlink:href="#DejaVuSans-30"/>
      </g>
     </g>
    </g>
    <g id="ytick_2">
     <g id="line2d_2">
      <path d="M 78.265625 292.080628 
L 734.959625 292.080628 
" clip-path="url(#p16d1bae8f3)" style="fill: none; stroke: #cccccc; stroke-width: 2; stroke-linecap: round"/>
     </g>
     <g id="text_7">
      <!-- 25 -->
      <g style="fill: #262626" transform="translate(56.040625 295.879847) scale(0.1 -0.1)">
       <defs>
        <path id="DejaVuSans-32" d="M 1228 531 
L 3431 531 
L 3431 0 
L 469 0 
L 469 531 
Q 828 903 1448 1529 
Q 2069 2156 2228 2338 
Q 2531 2678 2651 2914 
Q 2772 3150 2772 3378 
Q 2772 3750 2511 3984 
Q 2250 4219 1831 4219 
Q 1534 4219 1204 4116 
Q 875 4013 500 3803 
L 500 4441 
Q 881 4594 1212 4672 
Q 1544 4750 1819 4750 
Q 2544 4750 2975 4387 
Q 3406 4025 3406 3419 
Q 3406 3131 3298 2873 
Q 3191 2616 2906 2266 
Q 2828 2175 2409 1742 
Q 1991 1309 1228 531 
z
" transform="scale(0.015625)"/>
        <path id="DejaVuSans-35" d="M 691 4666 
L 3169 4666 
L 3169 4134 
L 1269 4134 
L 1269 2991 
Q 1406 3038 1543 3061 
Q 1681 3084 1819 3084 
Q 2600 3084 3056 2656 
Q 3513 2228 3513 1497 
Q 3513 744 3044 326 
Q 2575 -91 1722 -91 
Q 1428 -91 1123 -41 
Q 819 9 494 109 
L 494 744 
Q 775 591 1075 516 
Q 1375 441 1709 441 
Q 2250 441 2565 725 
Q 2881 1009 2881 1497 
Q 2881 1984 2565 2268 
Q 2250 2553 1709 2553 
Q 1456 2553 1204 2497 
Q 953 2441 691 2322 
L 691 4666 
z
" transform="scale(0.015625)"/>
       </defs>
       <use xlink:href="#DejaVuSans-32"/>
       <use xlink:href="#DejaVuSans-35" transform="translate(63.623047 0)"/>
      </g>
     </g>
    </g>
    <g id="ytick_3">
     <g id="line2d_3">
      <path d="M 78.265625 259.280666 
L 734.959625 259.280666 
" clip-path="url(#p16d1bae8f3)" style="fill: none; stroke: #cccccc; stroke-width: 2; stroke-linecap: round"/>
     </g>
     <g id="text_8">
      <!-- 50 -->
      <g style="fill: #262626" transform="translate(56.040625 263.079885) scale(0.1 -0.1)">
       <use xlink:href="#DejaVuSans-35"/>
       <use xlink:href="#DejaVuSans-30" transform="translate(63.623047 0)"/>
      </g>
     </g>
    </g>
    <g id="ytick_4">
     <g id="line2d_4">
      <path d="M 78.265625 226.480704 
L 734.959625 226.480704 
" clip-path="url(#p16d1bae8f3)" style="fill: none; stroke: #cccccc; stroke-width: 2; stroke-linecap: round"/>
     </g>
     <g id="text_9">
      <!-- 75 -->
      <g style="fill: #262626" transform="translate(56.040625 230.279923) scale(0.1 -0.1)">
       <defs>
        <path id="DejaVuSans-37" d="M 525 4666 
L 3525 4666 
L 3525 4397 
L 1831 0 
L 1172 0 
L 2766 4134 
L 525 4134 
L 525 4666 
z
" transform="scale(0.015625)"/>
       </defs>
       <use xlink:href="#DejaVuSans-37"/>
       <use xlink:href="#DejaVuSans-35" transform="translate(63.623047 0)"/>
      </g>
     </g>
    </g>
    <g id="ytick_5">
     <g id="line2d_5">
      <path d="M 78.265625 193.680742 
L 734.959625 193.680742 
" clip-path="url(#p16d1bae8f3)" style="fill: none; stroke: #cccccc; stroke-width: 2; stroke-linecap: round"/>
     </g>
     <g id="text_10">
      <!-- 100 -->
      <g style="fill: #262626" transform="translate(49.678125 197.479961) scale(0.1 -0.1)">
       <defs>
        <path id="DejaVuSans-31" d="M 794 531 
L 1825 531 
L 1825 4091 
L 703 3866 
L 703 4441 
L 1819 4666 
L 2450 4666 
L 2450 531 
L 3481 531 
L 3481 0 
L 794 0 
L 794 531 
z
" transform="scale(0.015625)"/>
       </defs>
       <use xlink:href="#DejaVuSans-31"/>
       <use xlink:href="#DejaVuSans-30" transform="translate(63.623047 0)"/>
       <use xlink:href="#DejaVuSans-30" transform="translate(127.246094 0)"/>
      </g>
     </g>
    </g>
    <g id="ytick_6">
     <g id="line2d_6">
      <path d="M 78.265625 160.88078 
L 734.959625 160.88078 
" clip-path="url(#p16d1bae8f3)" style="fill: none; stroke: #cccccc; stroke-width: 2; stroke-linecap: round"/>
     </g>
     <g id="text_11">
      <!-- 125 -->
      <g style="fill: #262626" transform="translate(49.678125 164.679998) scale(0.1 -0.1)">
       <use xlink:href="#DejaVuSans-31"/>
       <use xlink:href="#DejaVuSans-32" transform="translate(63.623047 0)"/>
       <use xlink:href="#DejaVuSans-35" transform="translate(127.246094 0)"/>
      </g>
     </g>
    </g>
    <g id="ytick_7">
     <g id="line2d_7">
      <path d="M 78.265625 128.080817 
L 734.959625 128.080817 
" clip-path="url(#p16d1bae8f3)" style="fill: none; stroke: #cccccc; stroke-width: 2; stroke-linecap: round"/>
     </g>
     <g id="text_12">
      <!-- 150 -->
      <g style="fill: #262626" transform="translate(49.678125 131.880036) scale(0.1 -0.1)">
       <use xlink:href="#DejaVuSans-31"/>
       <use xlink:href="#DejaVuSans-35" transform="translate(63.623047 0)"/>
       <use xlink:href="#DejaVuSans-30" transform="translate(127.246094 0)"/>
      </g>
     </g>
    </g>
    <g id="ytick_8">
     <g id="line2d_8">
      <path d="M 78.265625 95.280855 
L 734.959625 95.280855 
" clip-path="url(#p16d1bae8f3)" style="fill: none; stroke: #cccccc; stroke-width: 2; stroke-linecap: round"/>
     </g>
     <g id="text_13">
      <!-- 175 -->
      <g style="fill: #262626" transform="translate(49.678125 99.080074) scale(0.1 -0.1)">
       <use xlink:href="#DejaVuSans-31"/>
       <use xlink:href="#DejaVuSans-37" transform="translate(63.623047 0)"/>
       <use xlink:href="#DejaVuSans-35" transform="translate(127.246094 0)"/>
      </g>
     </g>
    </g>
    <g id="ytick_9">
     <g id="line2d_9">
      <path d="M 78.265625 62.480893 
L 734.959625 62.480893 
" clip-path="url(#p16d1bae8f3)" style="fill: none; stroke: #cccccc; stroke-width: 2; stroke-linecap: round"/>
     </g>
     <g id="text_14">
      <!-- 200 -->
      <g style="fill: #262626" transform="translate(49.678125 66.280112) scale(0.1 -0.1)">
       <use xlink:href="#DejaVuSans-32"/>
       <use xlink:href="#DejaVuSans-30" transform="translate(63.623047 0)"/>
       <use xlink:href="#DejaVuSans-30" transform="translate(127.246094 0)"/>
      </g>
     </g>
    </g>
    <g id="text_15">
     <!-- Distance (μm) -->
     <g style="fill: #262626" transform="translate(43.598437 226.795125) rotate(-90) scale(0.1 -0.1)">
      <defs>
       <path id="DejaVuSans-44" d="M 1259 4147 
L 1259 519 
L 2022 519 
Q 2988 519 3436 956 
Q 3884 1394 3884 2338 
Q 3884 3275 3436 3711 
Q 2988 4147 2022 4147 
L 1259 4147 
z
M 628 4666 
L 1925 4666 
Q 3281 4666 3915 4102 
Q 4550 3538 4550 2338 
Q 4550 1131 3912 565 
Q 3275 0 1925 0 
L 628 0 
L 628 4666 
z
" transform="scale(0.015625)"/>
       <path id="DejaVuSans-28" d="M 1984 4856 
Q 1566 4138 1362 3434 
Q 1159 2731 1159 2009 
Q 1159 1288 1364 580 
Q 1569 -128 1984 -844 
L 1484 -844 
Q 1016 -109 783 600 
Q 550 1309 550 2009 
Q 550 2706 781 3412 
Q 1013 4119 1484 4856 
L 1984 4856 
z
" transform="scale(0.015625)"/>
       <path id="DejaVuSans-3bc" d="M 544 -1331 
L 544 3500 
L 1119 3500 
L 1119 1325 
Q 1119 872 1334 640 
Q 1550 409 1972 409 
Q 2434 409 2667 671 
Q 2900 934 2900 1459 
L 2900 3500 
L 3475 3500 
L 3475 806 
Q 3475 619 3529 530 
Q 3584 441 3700 441 
Q 3728 441 3778 458 
Q 3828 475 3916 513 
L 3916 50 
Q 3788 -22 3673 -56 
Q 3559 -91 3450 -91 
Q 3234 -91 3106 31 
Q 2978 153 2931 403 
Q 2775 156 2548 32 
Q 2322 -91 2016 -91 
Q 1697 -91 1473 31 
Q 1250 153 1119 397 
L 1119 -1331 
L 544 -1331 
z
" transform="scale(0.015625)"/>
       <path id="DejaVuSans-29" d="M 513 4856 
L 1013 4856 
Q 1481 4119 1714 3412 
Q 1947 2706 1947 2009 
Q 1947 1309 1714 600 
Q 1481 -109 1013 -844 
L 513 -844 
Q 928 -128 1133 580 
Q 1338 1288 1338 2009 
Q 1338 2731 1133 3434 
Q 928 4138 513 4856 
z
" transform="scale(0.015625)"/>
      </defs>
      <use xlink:href="#DejaVuSans-44"/>
      <use xlink:href="#DejaVuSans-69" transform="translate(77.001953 0)"/>
      <use xlink:href="#DejaVuSans-73" transform="translate(104.785156 0)"/>
      <use xlink:href="#DejaVuSans-74" transform="translate(156.884766 0)"/>
      <use xlink:href="#DejaVuSans-61" transform="translate(196.09375 0)"/>
      <use xlink:href="#DejaVuSans-6e" transform="translate(257.373047 0)"/>
      <use xlink:href="#DejaVuSans-63" transform="translate(320.751953 0)"/>
      <use xlink:href="#DejaVuSans-65" transform="translate(375.732422 0)"/>
      <use xlink:href="#DejaVuSans-20" transform="translate(437.255859 0)"/>
      <use xlink:href="#DejaVuSans-28" transform="translate(469.042969 0)"/>
      <use xlink:href="#DejaVuSans-3bc" transform="translate(508.056641 0)"/>
      <use xlink:href="#DejaVuSans-6d" transform="translate(571.679688 0)"/>
      <use xlink:href="#DejaVuSans-29" transform="translate(669.091797 0)"/>
     </g>
    </g>
   </g>
   <g id="FillBetweenPolyCollection_1">
    <defs>
     <path id="m745aa55b8c" d="M 166.926848 -162.449557 
L 153.777902 -162.449557 
L 148.422822 -165.053609 
L 141.681409 -167.65766 
L 134.647523 -170.261712 
L 128.443087 -172.865764 
L 123.617636 -175.469816 
L 120.059196 -178.073868 
L 117.364973 -180.677919 
L 115.214237 -183.281971 
L 113.468712 -185.886023 
L 112.095317 -188.490075 
L 111.091731 -191.094127 
L 110.450644 -193.698179 
L 110.120735 -196.30223 
L 109.979591 -198.906282 
L 109.869557 -201.510334 
L 109.688415 -204.114386 
L 109.45939 -206.718438 
L 109.310634 -209.322489 
L 109.371784 -211.926541 
L 109.679396 -214.530593 
L 110.179787 -217.134645 
L 110.810995 -219.738697 
L 111.559894 -222.342748 
L 112.437114 -224.9468 
L 113.422218 -227.550852 
L 114.457746 -230.154904 
L 115.496222 -232.758956 
L 116.540912 -235.363007 
L 117.636045 -237.967059 
L 118.815228 -240.571111 
L 120.055308 -243.175163 
L 121.283561 -245.779215 
L 122.435943 -248.383266 
L 123.505528 -250.987318 
L 124.5312 -253.59137 
L 125.5487 -256.195422 
L 126.563085 -258.799474 
L 127.562622 -261.403526 
L 128.543311 -264.007577 
L 129.514271 -266.611629 
L 130.487244 -269.215681 
L 131.465445 -271.819733 
L 132.434819 -274.423785 
L 133.359912 -277.027836 
L 134.198215 -279.631888 
L 134.933799 -282.23594 
L 135.598242 -284.839992 
L 136.250109 -287.444044 
L 136.931096 -290.048095 
L 137.6431 -292.652147 
L 138.361545 -295.256199 
L 139.061757 -297.860251 
L 139.734261 -300.464303 
L 140.38575 -303.068354 
L 141.030376 -305.672406 
L 141.675326 -308.276458 
L 142.311477 -310.88051 
L 142.920564 -313.484562 
L 143.491235 -316.088614 
L 144.02463 -318.692665 
L 144.528733 -321.296717 
L 145.016599 -323.900769 
L 145.507224 -326.504821 
L 146.014069 -329.108873 
L 146.526806 -331.712924 
L 147.011679 -334.316976 
L 147.438417 -336.921028 
L 147.809293 -339.52508 
L 148.159328 -342.129132 
L 148.526091 -344.733183 
L 148.923199 -347.337235 
L 149.345918 -349.941287 
L 149.792024 -352.545339 
L 150.263317 -355.149391 
L 150.748218 -357.753442 
L 151.214525 -360.357494 
L 151.626031 -362.961546 
L 151.968273 -365.565598 
L 152.259274 -368.16965 
L 152.534124 -370.773701 
L 152.816739 -373.377753 
L 153.10542 -375.981805 
L 153.383423 -378.585857 
L 153.638997 -381.189909 
L 153.874884 -383.793961 
L 154.103422 -386.398012 
L 154.333681 -389.002064 
L 154.560734 -391.606116 
L 154.769832 -394.210168 
L 154.954158 -396.81422 
L 155.124412 -399.418271 
L 155.298534 -402.022323 
L 155.488522 -404.626375 
L 155.703886 -407.230427 
L 155.968963 -409.834479 
L 156.334079 -412.43853 
L 156.857726 -415.042582 
L 157.555515 -417.646634 
L 158.354866 -420.250686 
L 162.349884 -420.250686 
L 162.349884 -420.250686 
L 163.149235 -417.646634 
L 163.847024 -415.042582 
L 164.370671 -412.43853 
L 164.735787 -409.834479 
L 165.000864 -407.230427 
L 165.216228 -404.626375 
L 165.406216 -402.022323 
L 165.580338 -399.418271 
L 165.750592 -396.81422 
L 165.934918 -394.210168 
L 166.144016 -391.606116 
L 166.371069 -389.002064 
L 166.601328 -386.398012 
L 166.829866 -383.793961 
L 167.065753 -381.189909 
L 167.321327 -378.585857 
L 167.59933 -375.981805 
L 167.888011 -373.377753 
L 168.170626 -370.773701 
L 168.445476 -368.16965 
L 168.736477 -365.565598 
L 169.078719 -362.961546 
L 169.490225 -360.357494 
L 169.956532 -357.753442 
L 170.441433 -355.149391 
L 170.912726 -352.545339 
L 171.358832 -349.941287 
L 171.781551 -347.337235 
L 172.178659 -344.733183 
L 172.545422 -342.129132 
L 172.895457 -339.52508 
L 173.266333 -336.921028 
L 173.693071 -334.316976 
L 174.177944 -331.712924 
L 174.690681 -329.108873 
L 175.197526 -326.504821 
L 175.688151 -323.900769 
L 176.176017 -321.296717 
L 176.68012 -318.692665 
L 177.213515 -316.088614 
L 177.784186 -313.484562 
L 178.393273 -310.88051 
L 179.029424 -308.276458 
L 179.674374 -305.672406 
L 180.319 -303.068354 
L 180.970489 -300.464303 
L 181.642993 -297.860251 
L 182.343205 -295.256199 
L 183.06165 -292.652147 
L 183.773654 -290.048095 
L 184.454641 -287.444044 
L 185.106508 -284.839992 
L 185.770951 -282.23594 
L 186.506535 -279.631888 
L 187.344838 -277.027836 
L 188.269931 -274.423785 
L 189.239305 -271.819733 
L 190.217506 -269.215681 
L 191.190479 -266.611629 
L 192.161439 -264.007577 
L 193.142128 -261.403526 
L 194.141665 -258.799474 
L 195.15605 -256.195422 
L 196.17355 -253.59137 
L 197.199222 -250.987318 
L 198.268807 -248.383266 
L 199.421189 -245.779215 
L 200.649442 -243.175163 
L 201.889522 -240.571111 
L 203.068705 -237.967059 
L 204.163838 -235.363007 
L 205.208528 -232.758956 
L 206.247004 -230.154904 
L 207.282532 -227.550852 
L 208.267636 -224.9468 
L 209.144856 -222.342748 
L 209.893755 -219.738697 
L 210.524963 -217.134645 
L 211.025354 -214.530593 
L 211.332966 -211.926541 
L 211.394116 -209.322489 
L 211.24536 -206.718438 
L 211.016335 -204.114386 
L 210.835193 -201.510334 
L 210.725159 -198.906282 
L 210.584015 -196.30223 
L 210.254106 -193.698179 
L 209.613019 -191.094127 
L 208.609433 -188.490075 
L 207.236038 -185.886023 
L 205.490513 -183.281971 
L 203.339777 -180.677919 
L 200.645554 -178.073868 
L 197.087114 -175.469816 
L 192.261663 -172.865764 
L 186.057227 -170.261712 
L 179.023341 -167.65766 
L 172.281928 -165.053609 
L 166.926848 -162.449557 
z
" style="stroke: #595959; stroke-opacity: 0.9; stroke-width: 1.25"/>
    </defs>
    <g clip-path="url(#p16d1bae8f3)">
     <use xlink:href="#m745aa55b8c" x="0" y="482.741813" style="fill: #de7959; fill-opacity: 0.9; stroke: #595959; stroke-opacity: 0.9; stroke-width: 1.25"/>
    </g>
   </g>
   <g id="FillBetweenPolyCollection_2">
    <defs>
     <path id="mc12c96eeea" d="M 339.558969 -163.386309 
L 309.492781 -163.386309 
L 301.518156 -165.980898 
L 292.55898 -168.575488 
L 283.747089 -171.170078 
L 276.114743 -173.764667 
L 270.2247 -176.359257 
L 266.082533 -178.953847 
L 263.322429 -181.548436 
L 261.486438 -184.143026 
L 260.225408 -186.737616 
L 259.367549 -189.332205 
L 258.891512 -191.926795 
L 258.856475 -194.521385 
L 259.322314 -197.115974 
L 260.283013 -199.710564 
L 261.638037 -202.305154 
L 263.2172 -204.899743 
L 264.847598 -207.494333 
L 266.425168 -210.088923 
L 267.94912 -212.683512 
L 269.497919 -215.278102 
L 271.16022 -217.872692 
L 272.965537 -220.467281 
L 274.862701 -223.061871 
L 276.758876 -225.656461 
L 278.584904 -228.25105 
L 280.336661 -230.84564 
L 282.067049 -233.44023 
L 283.840527 -236.034819 
L 285.682245 -238.629409 
L 287.552068 -241.223999 
L 289.357835 -243.818588 
L 290.999387 -246.413178 
L 292.415512 -249.007768 
L 293.605095 -251.602357 
L 294.614985 -254.196947 
L 295.511787 -256.791537 
L 296.359546 -259.386126 
L 297.20991 -261.980716 
L 298.097715 -264.575306 
L 299.036714 -267.169895 
L 300.018345 -269.764485 
L 301.017305 -272.359075 
L 302.00216 -274.953664 
L 302.945977 -277.548254 
L 303.832792 -280.142844 
L 304.657876 -282.737433 
L 305.423452 -285.332023 
L 306.135274 -287.926613 
L 306.803894 -290.521202 
L 307.447239 -293.115792 
L 308.087713 -295.710382 
L 308.743104 -298.304971 
L 309.41818 -300.899561 
L 310.103207 -303.494151 
L 310.778549 -306.08874 
L 311.420804 -308.68333 
L 312.008633 -311.27792 
L 312.529421 -313.872509 
L 312.98585 -316.467099 
L 313.397469 -319.061689 
L 313.793137 -321.656278 
L 314.196876 -324.250868 
L 314.615845 -326.845458 
L 315.038307 -329.440047 
L 315.442252 -332.034637 
L 315.80832 -334.629227 
L 316.129425 -337.223816 
L 316.413323 -339.818406 
L 316.678461 -342.412996 
L 316.945195 -345.007585 
L 317.225593 -347.602175 
L 317.516636 -350.196765 
L 317.800862 -352.791354 
L 318.054679 -355.385944 
L 318.260509 -357.980534 
L 318.416954 -360.575123 
L 318.541252 -363.169713 
L 318.661487 -365.764303 
L 318.802393 -368.358892 
L 318.973702 -370.953482 
L 319.168412 -373.548072 
L 319.371077 -376.142661 
L 319.569301 -378.737251 
L 319.759892 -381.331841 
L 319.945629 -383.926431 
L 320.126522 -386.52102 
L 320.294504 -389.11561 
L 320.437287 -391.7102 
L 320.548056 -394.304789 
L 320.632165 -396.899379 
L 320.705827 -399.493969 
L 320.789783 -402.088558 
L 320.904464 -404.683148 
L 321.069458 -407.277738 
L 321.30422 -409.872327 
L 321.624728 -412.466917 
L 322.034361 -415.061507 
L 322.513895 -417.656096 
L 323.019393 -420.250686 
L 326.032357 -420.250686 
L 326.032357 -420.250686 
L 326.537855 -417.656096 
L 327.017389 -415.061507 
L 327.427022 -412.466917 
L 327.74753 -409.872327 
L 327.982292 -407.277738 
L 328.147286 -404.683148 
L 328.261967 -402.088558 
L 328.345923 -399.493969 
L 328.419585 -396.899379 
L 328.503694 -394.304789 
L 328.614463 -391.7102 
L 328.757246 -389.11561 
L 328.925228 -386.52102 
L 329.106121 -383.926431 
L 329.291858 -381.331841 
L 329.482449 -378.737251 
L 329.680673 -376.142661 
L 329.883338 -373.548072 
L 330.078048 -370.953482 
L 330.249357 -368.358892 
L 330.390263 -365.764303 
L 330.510498 -363.169713 
L 330.634796 -360.575123 
L 330.791241 -357.980534 
L 330.997071 -355.385944 
L 331.250888 -352.791354 
L 331.535114 -350.196765 
L 331.826157 -347.602175 
L 332.106555 -345.007585 
L 332.373289 -342.412996 
L 332.638427 -339.818406 
L 332.922325 -337.223816 
L 333.24343 -334.629227 
L 333.609498 -332.034637 
L 334.013443 -329.440047 
L 334.435905 -326.845458 
L 334.854874 -324.250868 
L 335.258613 -321.656278 
L 335.654281 -319.061689 
L 336.0659 -316.467099 
L 336.522329 -313.872509 
L 337.043117 -311.27792 
L 337.630946 -308.68333 
L 338.273201 -306.08874 
L 338.948543 -303.494151 
L 339.63357 -300.899561 
L 340.308646 -298.304971 
L 340.964037 -295.710382 
L 341.604511 -293.115792 
L 342.247856 -290.521202 
L 342.916476 -287.926613 
L 343.628298 -285.332023 
L 344.393874 -282.737433 
L 345.218958 -280.142844 
L 346.105773 -277.548254 
L 347.04959 -274.953664 
L 348.034445 -272.359075 
L 349.033405 -269.764485 
L 350.015036 -267.169895 
L 350.954035 -264.575306 
L 351.84184 -261.980716 
L 352.692204 -259.386126 
L 353.539963 -256.791537 
L 354.436765 -254.196947 
L 355.446655 -251.602357 
L 356.636238 -249.007768 
L 358.052363 -246.413178 
L 359.693915 -243.818588 
L 361.499682 -241.223999 
L 363.369505 -238.629409 
L 365.211223 -236.034819 
L 366.984701 -233.44023 
L 368.715089 -230.84564 
L 370.466846 -228.25105 
L 372.292874 -225.656461 
L 374.189049 -223.061871 
L 376.086213 -220.467281 
L 377.89153 -217.872692 
L 379.553831 -215.278102 
L 381.10263 -212.683512 
L 382.626582 -210.088923 
L 384.204152 -207.494333 
L 385.83455 -204.899743 
L 387.413713 -202.305154 
L 388.768737 -199.710564 
L 389.729436 -197.115974 
L 390.195275 -194.521385 
L 390.160238 -191.926795 
L 389.684201 -189.332205 
L 388.826342 -186.737616 
L 387.565312 -184.143026 
L 385.729321 -181.548436 
L 382.969217 -178.953847 
L 378.82705 -176.359257 
L 372.937007 -173.764667 
L 365.304661 -171.170078 
L 356.49277 -168.575488 
L 347.533594 -165.980898 
L 339.558969 -163.386309 
z
" style="stroke: #595959; stroke-opacity: 0.9; stroke-width: 1.25"/>
    </defs>
    <g clip-path="url(#p16d1bae8f3)">
     <use xlink:href="#mc12c96eeea" x="0" y="482.741813" style="fill: #f0d999; fill-opacity: 0.9; stroke: #595959; stroke-opacity: 0.9; stroke-width: 1.25"/>
    </g>
   </g>
   <g id="FillBetweenPolyCollection_3">
    <defs>
     <path id="mdf5cdf101f" d="M 499.654895 -164.53011 
L 477.743855 -164.53011 
L 472.215345 -167.113172 
L 465.94088 -169.696233 
L 459.576669 -172.279295 
L 453.766318 -174.862356 
L 448.946386 -177.445418 
L 445.271162 -180.028479 
L 442.662395 -182.611541 
L 440.918399 -185.194602 
L 439.812968 -187.777663 
L 439.153923 -190.360725 
L 438.804768 -192.943786 
L 438.68164 -195.526848 
L 438.735167 -198.109909 
L 438.927668 -200.692971 
L 439.218238 -203.276032 
L 439.563465 -205.859094 
L 439.930362 -208.442155 
L 440.309833 -211.025216 
L 440.719741 -213.608278 
L 441.19421 -216.191339 
L 441.764508 -218.774401 
L 442.44213 -221.357462 
L 443.214099 -223.940524 
L 444.053401 -226.523585 
L 444.937405 -229.106647 
L 445.860662 -231.689708 
L 446.831865 -234.272769 
L 447.857061 -236.855831 
L 448.923152 -239.438892 
L 449.995996 -242.021954 
L 451.035252 -244.605015 
L 452.014988 -247.188077 
L 452.936031 -249.771138 
L 453.823286 -252.354199 
L 454.711073 -254.937261 
L 455.626023 -257.520322 
L 456.577297 -260.103384 
L 457.557608 -262.686445 
L 458.550075 -265.269507 
L 459.533462 -267.852568 
L 460.48429 -270.43563 
L 461.380339 -273.018691 
L 462.207947 -275.601752 
L 462.968336 -278.184814 
L 463.6764 -280.767875 
L 464.352115 -283.350937 
L 465.011563 -285.933998 
L 465.663241 -288.51706 
L 466.30866 -291.100121 
L 466.943421 -293.683183 
L 467.55849 -296.266244 
L 468.144092 -298.849305 
L 468.695497 -301.432367 
L 469.216026 -304.015428 
L 469.714647 -306.59849 
L 470.20107 -309.181551 
L 470.682373 -311.764613 
L 471.161446 -314.347674 
L 471.635713 -316.930736 
L 472.097163 -319.513797 
L 472.53651 -322.096858 
L 472.950954 -324.67992 
L 473.349636 -327.262981 
L 473.750442 -329.846043 
L 474.168664 -332.429104 
L 474.606119 -335.012166 
L 475.049793 -337.595227 
L 475.480383 -340.178288 
L 475.882311 -342.76135 
L 476.247338 -345.344411 
L 476.572262 -347.927473 
L 476.857155 -350.510534 
L 477.107793 -353.093596 
L 477.338674 -355.676657 
L 477.570468 -358.259719 
L 477.821091 -360.84278 
L 478.096651 -363.425841 
L 478.389498 -366.008903 
L 478.684561 -368.591964 
L 478.96872 -371.175026 
L 479.236895 -373.758087 
L 479.492539 -376.341149 
L 479.743993 -378.92421 
L 479.999056 -381.507272 
L 480.259821 -384.090333 
L 480.520455 -386.673394 
L 480.770297 -389.256456 
L 481.000946 -391.839517 
L 481.211945 -394.422579 
L 481.410508 -397.00564 
L 481.606916 -399.588702 
L 481.812175 -402.171763 
L 482.042554 -404.754825 
L 482.327963 -407.337886 
L 482.714452 -409.920947 
L 483.251704 -412.504009 
L 483.966131 -415.08707 
L 484.833826 -417.670132 
L 485.773894 -420.253193 
L 491.624856 -420.253193 
L 491.624856 -420.253193 
L 492.564924 -417.670132 
L 493.432619 -415.08707 
L 494.147046 -412.504009 
L 494.684298 -409.920947 
L 495.070787 -407.337886 
L 495.356196 -404.754825 
L 495.586575 -402.171763 
L 495.791834 -399.588702 
L 495.988242 -397.00564 
L 496.186805 -394.422579 
L 496.397804 -391.839517 
L 496.628453 -389.256456 
L 496.878295 -386.673394 
L 497.138929 -384.090333 
L 497.399694 -381.507272 
L 497.654757 -378.92421 
L 497.906211 -376.341149 
L 498.161855 -373.758087 
L 498.43003 -371.175026 
L 498.714189 -368.591964 
L 499.009252 -366.008903 
L 499.302099 -363.425841 
L 499.577659 -360.84278 
L 499.828282 -358.259719 
L 500.060076 -355.676657 
L 500.290957 -353.093596 
L 500.541595 -350.510534 
L 500.826488 -347.927473 
L 501.151412 -345.344411 
L 501.516439 -342.76135 
L 501.918367 -340.178288 
L 502.348957 -337.595227 
L 502.792631 -335.012166 
L 503.230086 -332.429104 
L 503.648308 -329.846043 
L 504.049114 -327.262981 
L 504.447796 -324.67992 
L 504.86224 -322.096858 
L 505.301587 -319.513797 
L 505.763037 -316.930736 
L 506.237304 -314.347674 
L 506.716377 -311.764613 
L 507.19768 -309.181551 
L 507.684103 -306.59849 
L 508.182724 -304.015428 
L 508.703253 -301.432367 
L 509.254658 -298.849305 
L 509.84026 -296.266244 
L 510.455329 -293.683183 
L 511.09009 -291.100121 
L 511.735509 -288.51706 
L 512.387187 -285.933998 
L 513.046635 -283.350937 
L 513.72235 -280.767875 
L 514.430414 -278.184814 
L 515.190803 -275.601752 
L 516.018411 -273.018691 
L 516.91446 -270.43563 
L 517.865288 -267.852568 
L 518.848675 -265.269507 
L 519.841142 -262.686445 
L 520.821453 -260.103384 
L 521.772727 -257.520322 
L 522.687677 -254.937261 
L 523.575464 -252.354199 
L 524.462719 -249.771138 
L 525.383762 -247.188077 
L 526.363498 -244.605015 
L 527.402754 -242.021954 
L 528.475598 -239.438892 
L 529.541689 -236.855831 
L 530.566885 -234.272769 
L 531.538088 -231.689708 
L 532.461345 -229.106647 
L 533.345349 -226.523585 
L 534.184651 -223.940524 
L 534.95662 -221.357462 
L 535.634242 -218.774401 
L 536.20454 -216.191339 
L 536.679009 -213.608278 
L 537.088917 -211.025216 
L 537.468388 -208.442155 
L 537.835285 -205.859094 
L 538.180512 -203.276032 
L 538.471082 -200.692971 
L 538.663583 -198.109909 
L 538.71711 -195.526848 
L 538.593982 -192.943786 
L 538.244827 -190.360725 
L 537.585782 -187.777663 
L 536.480351 -185.194602 
L 534.736355 -182.611541 
L 532.127588 -180.028479 
L 528.452364 -177.445418 
L 523.632432 -174.862356 
L 517.822081 -172.279295 
L 511.45787 -169.696233 
L 505.183405 -167.113172 
L 499.654895 -164.53011 
z
" style="stroke: #595959; stroke-opacity: 0.9; stroke-width: 1.25"/>
    </defs>
    <g clip-path="url(#p16d1bae8f3)">
     <use xlink:href="#mdf5cdf101f" x="0" y="482.741813" style="fill: #dee9a4; fill-opacity: 0.9; stroke: #595959; stroke-opacity: 0.9; stroke-width: 1.25"/>
    </g>
   </g>
   <g id="FillBetweenPolyCollection_4">
    <defs>
     <path id="mca3a5c7339" d="M 663.019827 -162.991136 
L 642.725923 -162.991136 
L 634.372183 -165.589662 
L 624.298589 -168.188187 
L 614.675564 -170.786713 
L 607.448728 -173.385239 
L 603.243901 -175.983764 
L 601.400887 -178.58229 
L 600.826915 -181.180815 
L 600.719057 -183.779341 
L 600.724156 -186.377867 
L 600.773056 -188.976392 
L 600.907454 -191.574918 
L 601.180703 -194.173443 
L 601.602538 -196.771969 
L 602.129311 -199.370495 
L 602.70321 -201.96902 
L 603.299017 -204.567546 
L 603.932141 -207.166071 
L 604.628198 -209.764597 
L 605.39235 -212.363122 
L 606.204379 -214.961648 
L 607.031896 -217.560174 
L 607.849155 -220.158699 
L 608.654593 -222.757225 
L 609.468695 -225.35575 
L 610.303956 -227.954276 
L 611.14248 -230.552802 
L 611.9599 -233.151327 
L 612.767033 -235.749853 
L 613.606001 -238.348378 
L 614.503038 -240.946904 
L 615.441415 -243.54543 
L 616.384061 -246.143955 
L 617.312659 -248.742481 
L 618.239513 -251.341006 
L 619.185036 -253.939532 
L 620.15365 -256.538057 
L 621.136908 -259.136583 
L 622.125768 -261.735109 
L 623.103605 -264.333634 
L 624.040136 -266.93216 
L 624.913509 -269.530685 
L 625.730692 -272.129211 
L 626.50912 -274.727737 
L 627.24488 -277.326262 
L 627.916829 -279.924788 
L 628.52725 -282.523313 
L 629.127731 -285.121839 
L 629.787663 -287.720365 
L 630.53038 -290.31889 
L 631.308633 -292.917416 
L 632.04654 -295.515941 
L 632.699968 -298.114467 
L 633.281768 -300.712993 
L 633.84335 -303.311518 
L 634.432221 -305.910044 
L 635.054937 -308.508569 
L 635.675296 -311.107095 
L 636.2501 -313.70562 
L 636.767139 -316.304146 
L 637.250888 -318.902672 
L 637.737382 -321.501197 
L 638.243672 -324.099723 
L 638.754672 -326.698248 
L 639.236112 -329.296774 
L 639.662239 -331.8953 
L 640.034006 -334.493825 
L 640.375419 -337.092351 
L 640.71615 -339.690876 
L 641.073532 -342.289402 
L 641.444841 -344.887928 
L 641.815815 -347.486453 
L 642.174653 -350.084979 
L 642.51509 -352.683504 
L 642.832574 -355.28203 
L 643.127421 -357.880555 
L 643.411217 -360.479081 
L 643.704638 -363.077607 
L 644.028081 -365.676132 
L 644.390831 -368.274658 
L 644.780087 -370.873183 
L 645.159479 -373.471709 
L 645.488683 -376.070235 
L 645.752636 -378.66876 
L 645.971931 -381.267286 
L 646.182201 -383.865811 
L 646.402241 -386.464337 
L 646.623981 -389.062863 
L 646.833317 -391.661388 
L 647.032865 -394.259914 
L 647.237267 -396.858439 
L 647.450962 -399.456965 
L 647.659807 -402.055491 
L 647.844938 -404.654016 
L 648.003196 -407.252542 
L 648.166677 -409.851067 
L 648.41847 -412.449593 
L 648.874297 -415.048118 
L 649.600905 -417.646644 
L 650.523942 -420.24517 
L 655.221808 -420.24517 
L 655.221808 -420.24517 
L 656.144845 -417.646644 
L 656.871453 -415.048118 
L 657.32728 -412.449593 
L 657.579073 -409.851067 
L 657.742554 -407.252542 
L 657.900812 -404.654016 
L 658.085943 -402.055491 
L 658.294788 -399.456965 
L 658.508483 -396.858439 
L 658.712885 -394.259914 
L 658.912433 -391.661388 
L 659.121769 -389.062863 
L 659.343509 -386.464337 
L 659.563549 -383.865811 
L 659.773819 -381.267286 
L 659.993114 -378.66876 
L 660.257067 -376.070235 
L 660.586271 -373.471709 
L 660.965663 -370.873183 
L 661.354919 -368.274658 
L 661.717669 -365.676132 
L 662.041112 -363.077607 
L 662.334533 -360.479081 
L 662.618329 -357.880555 
L 662.913176 -355.28203 
L 663.23066 -352.683504 
L 663.571097 -350.084979 
L 663.929935 -347.486453 
L 664.300909 -344.887928 
L 664.672218 -342.289402 
L 665.0296 -339.690876 
L 665.370331 -337.092351 
L 665.711744 -334.493825 
L 666.083511 -331.8953 
L 666.509638 -329.296774 
L 666.991078 -326.698248 
L 667.502078 -324.099723 
L 668.008368 -321.501197 
L 668.494862 -318.902672 
L 668.978611 -316.304146 
L 669.49565 -313.70562 
L 670.070454 -311.107095 
L 670.690813 -308.508569 
L 671.313529 -305.910044 
L 671.9024 -303.311518 
L 672.463982 -300.712993 
L 673.045782 -298.114467 
L 673.69921 -295.515941 
L 674.437117 -292.917416 
L 675.21537 -290.31889 
L 675.958087 -287.720365 
L 676.618019 -285.121839 
L 677.2185 -282.523313 
L 677.828921 -279.924788 
L 678.50087 -277.326262 
L 679.23663 -274.727737 
L 680.015058 -272.129211 
L 680.832241 -269.530685 
L 681.705614 -266.93216 
L 682.642145 -264.333634 
L 683.619982 -261.735109 
L 684.608842 -259.136583 
L 685.5921 -256.538057 
L 686.560714 -253.939532 
L 687.506237 -251.341006 
L 688.433091 -248.742481 
L 689.361689 -246.143955 
L 690.304335 -243.54543 
L 691.242712 -240.946904 
L 692.139749 -238.348378 
L 692.978717 -235.749853 
L 693.78585 -233.151327 
L 694.60327 -230.552802 
L 695.441794 -227.954276 
L 696.277055 -225.35575 
L 697.091157 -222.757225 
L 697.896595 -220.158699 
L 698.713854 -217.560174 
L 699.541371 -214.961648 
L 700.3534 -212.363122 
L 701.117552 -209.764597 
L 701.813609 -207.166071 
L 702.446733 -204.567546 
L 703.04254 -201.96902 
L 703.616439 -199.370495 
L 704.143212 -196.771969 
L 704.565047 -194.173443 
L 704.838296 -191.574918 
L 704.972694 -188.976392 
L 705.021594 -186.377867 
L 705.026693 -183.779341 
L 704.918835 -181.180815 
L 704.344863 -178.58229 
L 702.501849 -175.983764 
L 698.297022 -173.385239 
L 691.070186 -170.786713 
L 681.447161 -168.188187 
L 671.373567 -165.589662 
L 663.019827 -162.991136 
z
" style="stroke: #595959; stroke-opacity: 0.9; stroke-width: 1.25"/>
    </defs>
    <g clip-path="url(#p16d1bae8f3)">
     <use xlink:href="#mca3a5c7339" x="0" y="482.741813" style="fill: #72b6a1; fill-opacity: 0.9; stroke: #595959; stroke-opacity: 0.9; stroke-width: 1.25"/>
    </g>
   </g>
   <g id="line2d_10">
    <path d="M 160.352375 320.292256 
L 160.352375 78.054946 
" clip-path="url(#p16d1bae8f3)" style="fill: none; stroke: #595959; stroke-width: 1.875; stroke-linecap: round"/>
   </g>
   <g id="line2d_11">
    <path d="M 160.352375 279.571512 
L 160.352375 198.959224 
" clip-path="url(#p16d1bae8f3)" style="fill: none; stroke: #595959; stroke-width: 5.625; stroke-linecap: round"/>
   </g>
   <g id="line2d_12">
    <path d="M 160.352375 246.737331 
" clip-path="url(#p16d1bae8f3)" style="fill: none; stroke: #595959; stroke-width: 1.5; stroke-linecap: round"/>
    <defs>
     <path id="mf4494b7808" d="M 2.34375 0 
L -2.34375 -0 
" style="stroke: #ffffff; stroke-width: 1.125"/>
    </defs>
    <g clip-path="url(#p16d1bae8f3)">
     <use xlink:href="#mf4494b7808" x="160.352375" y="246.737331" style="fill: #ffffff; stroke: #ffffff; stroke-width: 1.125"/>
    </g>
   </g>
   <g id="line2d_13">
    <path d="M 324.525875 319.355504 
L 324.525875 115.325641 
" clip-path="url(#p16d1bae8f3)" style="fill: none; stroke: #595959; stroke-width: 1.875; stroke-linecap: round"/>
   </g>
   <g id="line2d_14">
    <path d="M 324.525875 289.114382 
L 324.525875 219.598555 
" clip-path="url(#p16d1bae8f3)" style="fill: none; stroke: #595959; stroke-width: 5.625; stroke-linecap: round"/>
   </g>
   <g id="line2d_15">
    <path d="M 324.525875 262.632935 
" clip-path="url(#p16d1bae8f3)" style="fill: none; stroke: #595959; stroke-width: 1.5; stroke-linecap: round"/>
    <g clip-path="url(#p16d1bae8f3)">
     <use xlink:href="#mf4494b7808" x="324.525875" y="262.632935" style="fill: #ffffff; stroke: #ffffff; stroke-width: 1.125"/>
    </g>
   </g>
   <g id="line2d_16">
    <path d="M 488.699375 318.211702 
L 488.699375 62.713371 
" clip-path="url(#p16d1bae8f3)" style="fill: none; stroke: #595959; stroke-width: 1.875; stroke-linecap: round"/>
   </g>
   <g id="line2d_17">
    <path d="M 488.699375 279.839477 
L 488.699375 192.98592 
" clip-path="url(#p16d1bae8f3)" style="fill: none; stroke: #595959; stroke-width: 5.625; stroke-linecap: round"/>
   </g>
   <g id="line2d_18">
    <path d="M 488.699375 245.087749 
" clip-path="url(#p16d1bae8f3)" style="fill: none; stroke: #595959; stroke-width: 1.5; stroke-linecap: round"/>
    <g clip-path="url(#p16d1bae8f3)">
     <use xlink:href="#mf4494b7808" x="488.699375" y="245.087749" style="fill: #ffffff; stroke: #ffffff; stroke-width: 1.125"/>
    </g>
   </g>
   <g id="line2d_19">
    <path d="M 652.872875 319.750676 
L 652.872875 73.615325 
" clip-path="url(#p16d1bae8f3)" style="fill: none; stroke: #595959; stroke-width: 1.875; stroke-linecap: round"/>
   </g>
   <g id="line2d_20">
    <path d="M 652.872875 284.448535 
L 652.872875 200.113951 
" clip-path="url(#p16d1bae8f3)" style="fill: none; stroke: #595959; stroke-width: 5.625; stroke-linecap: round"/>
   </g>
   <g id="line2d_21">
    <path d="M 652.872875 249.792596 
" clip-path="url(#p16d1bae8f3)" style="fill: none; stroke: #595959; stroke-width: 1.5; stroke-linecap: round"/>
    <g clip-path="url(#p16d1bae8f3)">
     <use xlink:href="#mf4494b7808" x="652.872875" y="249.792596" style="fill: #ffffff; stroke: #ffffff; stroke-width: 1.125"/>
    </g>
   </g>
   <g id="patch_3">
    <path d="M 78.265625 333.182438 
L 78.265625 49.598438 
" style="fill: none; stroke: #cccccc; stroke-width: 1.25; stroke-linejoin: miter; stroke-linecap: square"/>
   </g>
   <g id="patch_4">
    <path d="M 734.959625 333.182438 
L 734.959625 49.598438 
" style="fill: none; stroke: #cccccc; stroke-width: 1.25; stroke-linejoin: miter; stroke-linecap: square"/>
   </g>
   <g id="patch_5">
    <path d="M 78.265625 333.182437 
L 734.959625 333.182437 
" style="fill: none; stroke: #cccccc; stroke-width: 1.25; stroke-linejoin: miter; stroke-linecap: square"/>
   </g>
   <g id="patch_6">
    <path d="M 78.265625 49.598438 
L 734.959625 49.598438 
" style="fill: none; stroke: #cccccc; stroke-width: 1.25; stroke-linejoin: miter; stroke-linecap: square"/>
   </g>
   <g id="text_16">
    <!-- Violin Plot of distances by Level One Cell Type (Density Normalization: area) -->
    <g style="fill: #262626" transform="translate(216.563406 43.598438) scale(0.1 -0.1)">
     <defs>
      <path id="DejaVuSans-56" d="M 1831 0 
L 50 4666 
L 709 4666 
L 2188 738 
L 3669 4666 
L 4325 4666 
L 2547 0 
L 1831 0 
z
" transform="scale(0.015625)"/>
      <path id="DejaVuSans-50" d="M 1259 4147 
L 1259 2394 
L 2053 2394 
Q 2494 2394 2734 2622 
Q 2975 2850 2975 3272 
Q 2975 3691 2734 3919 
Q 2494 4147 2053 4147 
L 1259 4147 
z
M 628 4666 
L 2053 4666 
Q 2838 4666 3239 4311 
Q 3641 3956 3641 3272 
Q 3641 2581 3239 2228 
Q 2838 1875 2053 1875 
L 1259 1875 
L 1259 0 
L 628 0 
L 628 4666 
z
" transform="scale(0.015625)"/>
      <path id="DejaVuSans-66" d="M 2375 4863 
L 2375 4384 
L 1825 4384 
Q 1516 4384 1395 4259 
Q 1275 4134 1275 3809 
L 1275 3500 
L 2222 3500 
L 2222 3053 
L 1275 3053 
L 1275 0 
L 697 0 
L 697 3053 
L 147 3053 
L 147 3500 
L 697 3500 
L 697 3744 
Q 697 4328 969 4595 
Q 1241 4863 1831 4863 
L 2375 4863 
z
" transform="scale(0.015625)"/>
      <path id="DejaVuSans-64" d="M 2906 2969 
L 2906 4863 
L 3481 4863 
L 3481 0 
L 2906 0 
L 2906 525 
Q 2725 213 2448 61 
Q 2172 -91 1784 -91 
Q 1150 -91 751 415 
Q 353 922 353 1747 
Q 353 2572 751 3078 
Q 1150 3584 1784 3584 
Q 2172 3584 2448 3432 
Q 2725 3281 2906 2969 
z
M 947 1747 
Q 947 1113 1208 752 
Q 1469 391 1925 391 
Q 2381 391 2643 752 
Q 2906 1113 2906 1747 
Q 2906 2381 2643 2742 
Q 2381 3103 1925 3103 
Q 1469 3103 1208 2742 
Q 947 2381 947 1747 
z
" transform="scale(0.015625)"/>
      <path id="DejaVuSans-62" d="M 3116 1747 
Q 3116 2381 2855 2742 
Q 2594 3103 2138 3103 
Q 1681 3103 1420 2742 
Q 1159 2381 1159 1747 
Q 1159 1113 1420 752 
Q 1681 391 2138 391 
Q 2594 391 2855 752 
Q 3116 1113 3116 1747 
z
M 1159 2969 
Q 1341 3281 1617 3432 
Q 1894 3584 2278 3584 
Q 2916 3584 3314 3078 
Q 3713 2572 3713 1747 
Q 3713 922 3314 415 
Q 2916 -91 2278 -91 
Q 1894 -91 1617 61 
Q 1341 213 1159 525 
L 1159 0 
L 581 0 
L 581 4863 
L 1159 4863 
L 1159 2969 
z
" transform="scale(0.015625)"/>
      <path id="DejaVuSans-4e" d="M 628 4666 
L 1478 4666 
L 3547 763 
L 3547 4666 
L 4159 4666 
L 4159 0 
L 3309 0 
L 1241 3903 
L 1241 0 
L 628 0 
L 628 4666 
z
" transform="scale(0.015625)"/>
      <path id="DejaVuSans-72" d="M 2631 2963 
Q 2534 3019 2420 3045 
Q 2306 3072 2169 3072 
Q 1681 3072 1420 2755 
Q 1159 2438 1159 1844 
L 1159 0 
L 581 0 
L 581 3500 
L 1159 3500 
L 1159 2956 
Q 1341 3275 1631 3429 
Q 1922 3584 2338 3584 
Q 2397 3584 2469 3576 
Q 2541 3569 2628 3553 
L 2631 2963 
z
" transform="scale(0.015625)"/>
      <path id="DejaVuSans-7a" d="M 353 3500 
L 3084 3500 
L 3084 2975 
L 922 459 
L 3084 459 
L 3084 0 
L 275 0 
L 275 525 
L 2438 3041 
L 353 3041 
L 353 3500 
z
" transform="scale(0.015625)"/>
      <path id="DejaVuSans-3a" d="M 750 794 
L 1409 794 
L 1409 0 
L 750 0 
L 750 794 
z
M 750 3309 
L 1409 3309 
L 1409 2516 
L 750 2516 
L 750 3309 
z
" transform="scale(0.015625)"/>
     </defs>
     <use xlink:href="#DejaVuSans-56"/>
     <use xlink:href="#DejaVuSans-69" transform="translate(66.158203 0)"/>
     <use xlink:href="#DejaVuSans-6f" transform="translate(93.941406 0)"/>
     <use xlink:href="#DejaVuSans-6c" transform="translate(155.123047 0)"/>
     <use xlink:href="#DejaVuSans-69" transform="translate(182.90625 0)"/>
     <use xlink:href="#DejaVuSans-6e" transform="translate(210.689453 0)"/>
     <use xlink:href="#DejaVuSans-20" transform="translate(274.068359 0)"/>
     <use xlink:href="#DejaVuSans-50" transform="translate(305.855469 0)"/>
     <use xlink:href="#DejaVuSans-6c" transform="translate(366.158203 0)"/>
     <use xlink:href="#DejaVuSans-6f" transform="translate(393.941406 0)"/>
     <use xlink:href="#DejaVuSans-74" transform="translate(455.123047 0)"/>
     <use xlink:href="#DejaVuSans-20" transform="translate(494.332031 0)"/>
     <use xlink:href="#DejaVuSans-6f" transform="translate(526.119141 0)"/>
     <use xlink:href="#DejaVuSans-66" transform="translate(587.300781 0)"/>
     <use xlink:href="#DejaVuSans-20" transform="translate(622.505859 0)"/>
     <use xlink:href="#DejaVuSans-64" transform="translate(654.292969 0)"/>
     <use xlink:href="#DejaVuSans-69" transform="translate(717.769531 0)"/>
     <use xlink:href="#DejaVuSans-73" transform="translate(745.552734 0)"/>
     <use xlink:href="#DejaVuSans-74" transform="translate(797.652344 0)"/>
     <use xlink:href="#DejaVuSans-61" transform="translate(836.861328 0)"/>
     <use xlink:href="#DejaVuSans-6e" transform="translate(898.140625 0)"/>
     <use xlink:href="#DejaVuSans-63" transform="translate(961.519531 0)"/>
     <use xlink:href="#DejaVuSans-65" transform="translate(1016.5 0)"/>
     <use xlink:href="#DejaVuSans-73" transform="translate(1078.023438 0)"/>
     <use xlink:href="#DejaVuSans-20" transform="translate(1130.123047 0)"/>
     <use xlink:href="#DejaVuSans-62" transform="translate(1161.910156 0)"/>
     <use xlink:href="#DejaVuSans-79" transform="translate(1225.386719 0)"/>
     <use xlink:href="#DejaVuSans-20" transform="translate(1284.566406 0)"/>
     <use xlink:href="#DejaVuSans-4c" transform="translate(1316.353516 0)"/>
     <use xlink:href="#DejaVuSans-65" transform="translate(1370.316406 0)"/>
     <use xlink:href="#DejaVuSans-76" transform="translate(1431.839844 0)"/>
     <use xlink:href="#DejaVuSans-65" transform="translate(1491.019531 0)"/>
     <use xlink:href="#DejaVuSans-6c" transform="translate(1552.542969 0)"/>
     <use xlink:href="#DejaVuSans-20" transform="translate(1580.326172 0)"/>
     <use xlink:href="#DejaVuSans-4f" transform="translate(1612.113281 0)"/>
     <use xlink:href="#DejaVuSans-6e" transform="translate(1690.824219 0)"/>
     <use xlink:href="#DejaVuSans-65" transform="translate(1754.203125 0)"/>
     <use xlink:href="#DejaVuSans-20" transform="translate(1815.726562 0)"/>
     <use xlink:href="#DejaVuSans-43" transform="translate(1847.513672 0)"/>
     <use xlink:href="#DejaVuSans-65" transform="translate(1917.337891 0)"/>
     <use xlink:href="#DejaVuSans-6c" transform="translate(1978.861328 0)"/>
     <use xlink:href="#DejaVuSans-6c" transform="translate(2006.644531 0)"/>
     <use xlink:href="#DejaVuSans-20" transform="translate(2034.427734 0)"/>
     <use xlink:href="#DejaVuSans-54" transform="translate(2066.214844 0)"/>
     <use xlink:href="#DejaVuSans-79" transform="translate(2111.673828 0)"/>
     <use xlink:href="#DejaVuSans-70" transform="translate(2170.853516 0)"/>
     <use xlink:href="#DejaVuSans-65" transform="translate(2234.330078 0)"/>
     <use xlink:href="#DejaVuSans-20" transform="translate(2295.853516 0)"/>
     <use xlink:href="#DejaVuSans-28" transform="translate(2327.640625 0)"/>
     <use xlink:href="#DejaVuSans-44" transform="translate(2366.654297 0)"/>
     <use xlink:href="#DejaVuSans-65" transform="translate(2443.65625 0)"/>
     <use xlink:href="#DejaVuSans-6e" transform="translate(2505.179688 0)"/>
     <use xlink:href="#DejaVuSans-73" transform="translate(2568.558594 0)"/>
     <use xlink:href="#DejaVuSans-69" transform="translate(2620.658203 0)"/>
     <use xlink:href="#DejaVuSans-74" transform="translate(2648.441406 0)"/>
     <use xlink:href="#DejaVuSans-79" transform="translate(2687.650391 0)"/>
     <use xlink:href="#DejaVuSans-20" transform="translate(2746.830078 0)"/>
     <use xlink:href="#DejaVuSans-4e" transform="translate(2778.617188 0)"/>
     <use xlink:href="#DejaVuSans-6f" transform="translate(2853.421875 0)"/>
     <use xlink:href="#DejaVuSans-72" transform="translate(2914.603516 0)"/>
     <use xlink:href="#DejaVuSans-6d" transform="translate(2953.966797 0)"/>
     <use xlink:href="#DejaVuSans-61" transform="translate(3051.378906 0)"/>
     <use xlink:href="#DejaVuSans-6c" transform="translate(3112.658203 0)"/>
     <use xlink:href="#DejaVuSans-69" transform="translate(3140.441406 0)"/>
     <use xlink:href="#DejaVuSans-7a" transform="translate(3168.224609 0)"/>
     <use xlink:href="#DejaVuSans-61" transform="translate(3220.714844 0)"/>
     <use xlink:href="#DejaVuSans-74" transform="translate(3281.994141 0)"/>
     <use xlink:href="#DejaVuSans-69" transform="translate(3321.203125 0)"/>
     <use xlink:href="#DejaVuSans-6f" transform="translate(3348.986328 0)"/>
     <use xlink:href="#DejaVuSans-6e" transform="translate(3410.167969 0)"/>
     <use xlink:href="#DejaVuSans-3a" transform="translate(3473.546875 0)"/>
     <use xlink:href="#DejaVuSans-20" transform="translate(3507.238281 0)"/>
     <use xlink:href="#DejaVuSans-61" transform="translate(3539.025391 0)"/>
     <use xlink:href="#DejaVuSans-72" transform="translate(3600.304688 0)"/>
     <use xlink:href="#DejaVuSans-65" transform="translate(3639.167969 0)"/>
     <use xlink:href="#DejaVuSans-61" transform="translate(3700.691406 0)"/>
     <use xlink:href="#DejaVuSans-29" transform="translate(3761.970703 0)"/>
    </g>
   </g>
   <g id="legend_1">
    <g id="patch_7">
     <path d="M 723.959625 62.598438 
L 727.959625 62.598438 
Q 729.959625 62.598438 729.959625 60.598438 
L 729.959625 56.598438 
Q 729.959625 54.598438 727.959625 54.598438 
L 723.959625 54.598438 
Q 721.959625 54.598438 721.959625 56.598438 
L 721.959625 60.598438 
Q 721.959625 62.598438 723.959625 62.598438 
z
" style="fill: #ffffff; opacity: 0.8; stroke: #cccccc; stroke-width: 0.8; stroke-linejoin: miter"/>
    </g>
   </g>
  </g>
 </g>
 <defs>
  <clipPath id="p16d1bae8f3">
   <rect x="78.265625" y="49.598438" width="656.694" height="283.584"/>
  </clipPath>
 </defs>
</svg>
