<?xml version="1.0" encoding="utf-8" standalone="no"?>
<!DOCTYPE svg PUBLIC "-//W3C//DTD SVG 1.1//EN"
  "http://www.w3.org/Graphics/SVG/1.1/DTD/svg11.dtd">
<svg xmlns:xlink="http://www.w3.org/1999/xlink" width="770.959625pt" height="482.52025pt" viewBox="0 0 770.959625 482.52025" xmlns="http://www.w3.org/2000/svg" version="1.1">
 <metadata>
  <rdf:RDF xmlns:dc="http://purl.org/dc/elements/1.1/" xmlns:cc="http://creativecommons.org/ns#" xmlns:rdf="http://www.w3.org/1999/02/22-rdf-syntax-ns#">
   <cc:Work>
    <dc:type rdf:resource="http://purl.org/dc/dcmitype/StillImage"/>
    <dc:date>2025-07-25T12:43:28.446506</dc:date>
    <dc:format>image/svg+xml</dc:format>
    <dc:creator>
     <cc:Agent>
      <dc:title>Matplotlib v3.10.3, https://matplotlib.org/</dc:title>
     </cc:Agent>
    </dc:creator>
   </cc:Work>
  </rdf:RDF>
 </metadata>
 <defs>
  <style type="text/css">*{stroke-linejoin: round; stroke-linecap: butt}</style>
 </defs>
 <g id="figure_1">
  <g id="patch_1">
   <path d="M 0 482.52025 
L 770.959625 482.52025 
L 770.959625 0 
L 0 0 
z
" style="fill: #ffffff"/>
  </g>
  <g id="axes_1">
   <g id="patch_2">
    <path d="M 78.265625 318.512437 
L 734.959625 318.512437 
L 734.959625 49.598437 
L 78.265625 49.598437 
z
" style="fill: #ffffff"/>
   </g>
   <g id="matplotlib.axis_1">
    <g id="xtick_1">
     <g id="text_1">
      <text style="font-size: 10px; font-family: 'Arial', 'DejaVu Sans', 'Liberation Sans', 'Bitstream Vera Sans', sans-serif; fill: #262626" transform="translate(113.8597 390.699937) rotate(-90)">macrophage</text>
     </g>
    </g>
    <g id="xtick_2">
     <g id="text_2">
      <text style="font-size: 10px; font-family: 'Arial', 'DejaVu Sans', 'Liberation Sans', 'Bitstream Vera Sans', sans-serif; fill: #262626" transform="translate(179.5291 393.835875) rotate(-90)">unknown cell</text>
     </g>
    </g>
    <g id="xtick_3">
     <g id="text_3">
      <text style="font-size: 10px; font-family: 'Arial', 'DejaVu Sans', 'Liberation Sans', 'Bitstream Vera Sans', sans-serif; fill: #262626" transform="translate(245.1985 388.304625) rotate(-90)">trophoblast </text>
     </g>
    </g>
    <g id="xtick_4">
     <g id="text_4">
      <text style="font-size: 10px; font-family: 'Arial', 'DejaVu Sans', 'Liberation Sans', 'Bitstream Vera Sans', sans-serif; fill: #262626" transform="translate(310.8679 375.048375) rotate(-90)">fibroblast</text>
     </g>
    </g>
    <g id="xtick_5">
     <g id="text_5">
      <text style="font-size: 10px; font-family: 'Arial', 'DejaVu Sans', 'Liberation Sans', 'Bitstream Vera Sans', sans-serif; fill: #262626" transform="translate(376.5373 411.706187) rotate(-90)">natural killer cell</text>
     </g>
    </g>
    <g id="xtick_6">
     <g id="text_6">
      <text style="font-size: 10px; font-family: 'Arial', 'DejaVu Sans', 'Liberation Sans', 'Bitstream Vera Sans', sans-serif; fill: #262626" transform="translate(442.2067 352.318687) rotate(-90)">t cell</text>
     </g>
    </g>
    <g id="xtick_7">
     <g id="text_7">
      <text style="font-size: 10px; font-family: 'Arial', 'DejaVu Sans', 'Liberation Sans', 'Bitstream Vera Sans', sans-serif; fill: #262626" transform="translate(507.8761 432.842125) rotate(-90)">gland epithelium cell</text>
     </g>
    </g>
    <g id="xtick_8">
     <g id="text_8">
      <text style="font-size: 10px; font-family: 'Arial', 'DejaVu Sans', 'Liberation Sans', 'Bitstream Vera Sans', sans-serif; fill: #262626" transform="translate(573.5455 384.115562) rotate(-90)">muscle cell</text>
     </g>
    </g>
    <g id="xtick_9">
     <g id="text_9">
      <text style="font-size: 10px; font-family: 'Arial', 'DejaVu Sans', 'Liberation Sans', 'Bitstream Vera Sans', sans-serif; fill: #262626" transform="translate(639.2149 392.671812) rotate(-90)">dendritic cell</text>
     </g>
    </g>
    <g id="xtick_10">
     <g id="text_10">
      <text style="font-size: 10px; font-family: 'Arial', 'DejaVu Sans', 'Liberation Sans', 'Bitstream Vera Sans', sans-serif; fill: #262626" transform="translate(704.8843 373.396812) rotate(-90)">mast cell</text>
     </g>
    </g>
    <g id="text_11">
     <text style="font-size: 10px; font-family: 'Arial', 'DejaVu Sans', 'Liberation Sans', 'Bitstream Vera Sans', sans-serif; text-anchor: middle; fill: #262626" x="406.612625" y="444.440562" transform="rotate(-0 406.612625 444.440562)">Level Two Cell Type</text>
    </g>
   </g>
   <g id="matplotlib.axis_2">
    <g id="ytick_1">
     <g id="line2d_1">
      <path d="M 78.265625 310.640051 
L 734.959625 310.640051 
" clip-path="url(#p0f0648d915)" style="fill: none; stroke: #cccccc; stroke-width: 2; stroke-linecap: round"/>
     </g>
     <g id="text_12">
      <text style="font-size: 10px; font-family: 'Arial', 'DejaVu Sans', 'Liberation Sans', 'Bitstream Vera Sans', sans-serif; text-anchor: end; fill: #262626" x="68.765625" y="314.439269" transform="rotate(-0 68.765625 314.439269)">0</text>
     </g>
    </g>
    <g id="ytick_2">
     <g id="line2d_2">
      <path d="M 78.265625 279.536854 
L 734.959625 279.536854 
" clip-path="url(#p0f0648d915)" style="fill: none; stroke: #cccccc; stroke-width: 2; stroke-linecap: round"/>
     </g>
     <g id="text_13">
      <text style="font-size: 10px; font-family: 'Arial', 'DejaVu Sans', 'Liberation Sans', 'Bitstream Vera Sans', sans-serif; text-anchor: end; fill: #262626" x="68.765625" y="283.336072" transform="rotate(-0 68.765625 283.336072)">25</text>
     </g>
    </g>
    <g id="ytick_3">
     <g id="line2d_3">
      <path d="M 78.265625 248.433657 
L 734.959625 248.433657 
" clip-path="url(#p0f0648d915)" style="fill: none; stroke: #cccccc; stroke-width: 2; stroke-linecap: round"/>
     </g>
     <g id="text_14">
      <text style="font-size: 10px; font-family: 'Arial', 'DejaVu Sans', 'Liberation Sans', 'Bitstream Vera Sans', sans-serif; text-anchor: end; fill: #262626" x="68.765625" y="252.232875" transform="rotate(-0 68.765625 252.232875)">50</text>
     </g>
    </g>
    <g id="ytick_4">
     <g id="line2d_4">
      <path d="M 78.265625 217.33046 
L 734.959625 217.33046 
" clip-path="url(#p0f0648d915)" style="fill: none; stroke: #cccccc; stroke-width: 2; stroke-linecap: round"/>
     </g>
     <g id="text_15">
      <text style="font-size: 10px; font-family: 'Arial', 'DejaVu Sans', 'Liberation Sans', 'Bitstream Vera Sans', sans-serif; text-anchor: end; fill: #262626" x="68.765625" y="221.129678" transform="rotate(-0 68.765625 221.129678)">75</text>
     </g>
    </g>
    <g id="ytick_5">
     <g id="line2d_5">
      <path d="M 78.265625 186.227263 
L 734.959625 186.227263 
" clip-path="url(#p0f0648d915)" style="fill: none; stroke: #cccccc; stroke-width: 2; stroke-linecap: round"/>
     </g>
     <g id="text_16">
      <text style="font-size: 10px; font-family: 'Arial', 'DejaVu Sans', 'Liberation Sans', 'Bitstream Vera Sans', sans-serif; text-anchor: end; fill: #262626" x="68.765625" y="190.026481" transform="rotate(-0 68.765625 190.026481)">100</text>
     </g>
    </g>
    <g id="ytick_6">
     <g id="line2d_6">
      <path d="M 78.265625 155.124066 
L 734.959625 155.124066 
" clip-path="url(#p0f0648d915)" style="fill: none; stroke: #cccccc; stroke-width: 2; stroke-linecap: round"/>
     </g>
     <g id="text_17">
      <text style="font-size: 10px; font-family: 'Arial', 'DejaVu Sans', 'Liberation Sans', 'Bitstream Vera Sans', sans-serif; text-anchor: end; fill: #262626" x="68.765625" y="158.923284" transform="rotate(-0 68.765625 158.923284)">125</text>
     </g>
    </g>
    <g id="ytick_7">
     <g id="line2d_7">
      <path d="M 78.265625 124.020869 
L 734.959625 124.020869 
" clip-path="url(#p0f0648d915)" style="fill: none; stroke: #cccccc; stroke-width: 2; stroke-linecap: round"/>
     </g>
     <g id="text_18">
      <text style="font-size: 10px; font-family: 'Arial', 'DejaVu Sans', 'Liberation Sans', 'Bitstream Vera Sans', sans-serif; text-anchor: end; fill: #262626" x="68.765625" y="127.820087" transform="rotate(-0 68.765625 127.820087)">150</text>
     </g>
    </g>
    <g id="ytick_8">
     <g id="line2d_8">
      <path d="M 78.265625 92.917672 
L 734.959625 92.917672 
" clip-path="url(#p0f0648d915)" style="fill: none; stroke: #cccccc; stroke-width: 2; stroke-linecap: round"/>
     </g>
     <g id="text_19">
      <text style="font-size: 10px; font-family: 'Arial', 'DejaVu Sans', 'Liberation Sans', 'Bitstream Vera Sans', sans-serif; text-anchor: end; fill: #262626" x="68.765625" y="96.71689" transform="rotate(-0 68.765625 96.71689)">175</text>
     </g>
    </g>
    <g id="ytick_9">
     <g id="line2d_9">
      <path d="M 78.265625 61.814475 
L 734.959625 61.814475 
" clip-path="url(#p0f0648d915)" style="fill: none; stroke: #cccccc; stroke-width: 2; stroke-linecap: round"/>
     </g>
     <g id="text_20">
      <text style="font-size: 10px; font-family: 'Arial', 'DejaVu Sans', 'Liberation Sans', 'Bitstream Vera Sans', sans-serif; text-anchor: end; fill: #262626" x="68.765625" y="65.613693" transform="rotate(-0 68.765625 65.613693)">200</text>
     </g>
    </g>
    <g id="text_21">
     <text style="font-size: 10px; font-family: 'Arial', 'DejaVu Sans', 'Liberation Sans', 'Bitstream Vera Sans', sans-serif; text-anchor: middle; fill: #262626" x="43.598437" y="184.055437" transform="rotate(-90 43.598437 184.055437)">Distance (μm)</text>
    </g>
   </g>
   <g id="FillBetweenPolyCollection_1">
    <defs>
     <path id="ma2f49000de" d="M 113.309993 -176.365084 
L 108.890657 -176.365084 
L 107.532 -178.833073 
L 105.900046 -181.301063 
L 104.18175 -183.769053 
L 102.581308 -186.237043 
L 101.243459 -188.705032 
L 100.21873 -191.173022 
L 99.480594 -193.641012 
L 98.966553 -196.109002 
L 98.611753 -198.576992 
L 98.365059 -201.044981 
L 98.192733 -203.512971 
L 98.074692 -205.980961 
L 97.995742 -208.448951 
L 97.937533 -210.91694 
L 97.879079 -213.38493 
L 97.806751 -215.85292 
L 97.72439 -218.32091 
L 97.652851 -220.7889 
L 97.618311 -223.256889 
L 97.638982 -225.724879 
L 97.719589 -228.192869 
L 97.854283 -230.660859 
L 98.031998 -233.128848 
L 98.239557 -235.596838 
L 98.463097 -238.064828 
L 98.690776 -240.532818 
L 98.917007 -243.000807 
L 99.144907 -245.468797 
L 99.38356 -247.936787 
L 99.640683 -250.404777 
L 99.915876 -252.872767 
L 100.200219 -255.340756 
L 100.482659 -257.808746 
L 100.757032 -260.276736 
L 101.023393 -262.744726 
L 101.284133 -265.212715 
L 101.540634 -267.680705 
L 101.79395 -270.148695 
L 102.046984 -272.616685 
L 102.30378 -275.084675 
L 102.565409 -277.552664 
L 102.826446 -280.020654 
L 103.07585 -282.488644 
L 103.302032 -284.956634 
L 103.498676 -287.424623 
L 103.668064 -289.892613 
L 103.820518 -292.360603 
L 103.970385 -294.828593 
L 104.130321 -297.296583 
L 104.306673 -299.764572 
L 104.49829 -302.232562 
L 104.6989 -304.700552 
L 104.900816 -307.168542 
L 105.097541 -309.636531 
L 105.284659 -312.104521 
L 105.460109 -314.572511 
L 105.62468 -317.040501 
L 105.782095 -319.50849 
L 105.937524 -321.97648 
L 106.094704 -324.44447 
L 106.253749 -326.91246 
L 106.41158 -329.38045 
L 106.56442 -331.848439 
L 106.709792 -334.316429 
L 106.846502 -336.784419 
L 106.973785 -339.252409 
L 107.091561 -341.720398 
L 107.201686 -344.188388 
L 107.308203 -346.656378 
L 107.415723 -349.124368 
L 107.527587 -351.592358 
L 107.645531 -354.060347 
L 107.770036 -356.528337 
L 107.899547 -358.996327 
L 108.029209 -361.464317 
L 108.151763 -363.932306 
L 108.261411 -366.400296 
L 108.357718 -368.868286 
L 108.445862 -371.336276 
L 108.532657 -373.804266 
L 108.621732 -376.272255 
L 108.711819 -378.740245 
L 108.79906 -381.208235 
L 108.880712 -383.676225 
L 108.957054 -386.144214 
L 109.030448 -388.612204 
L 109.102878 -391.080194 
L 109.17419 -393.548184 
L 109.242541 -396.016173 
L 109.306652 -398.484163 
L 109.367956 -400.952153 
L 109.430982 -403.420143 
L 109.502183 -405.888133 
L 109.588752 -408.356122 
L 109.698272 -410.824112 
L 109.838134 -413.292102 
L 110.012655 -415.760092 
L 110.217855 -418.228081 
L 110.437802 -420.696071 
L 111.762848 -420.696071 
L 111.762848 -420.696071 
L 111.982795 -418.228081 
L 112.187995 -415.760092 
L 112.362516 -413.292102 
L 112.502378 -410.824112 
L 112.611898 -408.356122 
L 112.698467 -405.888133 
L 112.769668 -403.420143 
L 112.832694 -400.952153 
L 112.893998 -398.484163 
L 112.958109 -396.016173 
L 113.02646 -393.548184 
L 113.097772 -391.080194 
L 113.170202 -388.612204 
L 113.243596 -386.144214 
L 113.319938 -383.676225 
L 113.40159 -381.208235 
L 113.488831 -378.740245 
L 113.578918 -376.272255 
L 113.667993 -373.804266 
L 113.754788 -371.336276 
L 113.842932 -368.868286 
L 113.939239 -366.400296 
L 114.048887 -363.932306 
L 114.171441 -361.464317 
L 114.301103 -358.996327 
L 114.430614 -356.528337 
L 114.555119 -354.060347 
L 114.673063 -351.592358 
L 114.784927 -349.124368 
L 114.892447 -346.656378 
L 114.998964 -344.188388 
L 115.109089 -341.720398 
L 115.226865 -339.252409 
L 115.354148 -336.784419 
L 115.490858 -334.316429 
L 115.63623 -331.848439 
L 115.78907 -329.38045 
L 115.946901 -326.91246 
L 116.105946 -324.44447 
L 116.263126 -321.97648 
L 116.418555 -319.50849 
L 116.57597 -317.040501 
L 116.740541 -314.572511 
L 116.915991 -312.104521 
L 117.103109 -309.636531 
L 117.299834 -307.168542 
L 117.50175 -304.700552 
L 117.70236 -302.232562 
L 117.893977 -299.764572 
L 118.070329 -297.296583 
L 118.230265 -294.828593 
L 118.380132 -292.360603 
L 118.532586 -289.892613 
L 118.701974 -287.424623 
L 118.898618 -284.956634 
L 119.1248 -282.488644 
L 119.374204 -280.020654 
L 119.635241 -277.552664 
L 119.89687 -275.084675 
L 120.153666 -272.616685 
L 120.4067 -270.148695 
L 120.660016 -267.680705 
L 120.916517 -265.212715 
L 121.177257 -262.744726 
L 121.443618 -260.276736 
L 121.717991 -257.808746 
L 122.000431 -255.340756 
L 122.284774 -252.872767 
L 122.559967 -250.404777 
L 122.81709 -247.936787 
L 123.055743 -245.468797 
L 123.283643 -243.000807 
L 123.509874 -240.532818 
L 123.737553 -238.064828 
L 123.961093 -235.596838 
L 124.168652 -233.128848 
L 124.346367 -230.660859 
L 124.481061 -228.192869 
L 124.561668 -225.724879 
L 124.582339 -223.256889 
L 124.547799 -220.7889 
L 124.47626 -218.32091 
L 124.393899 -215.85292 
L 124.321571 -213.38493 
L 124.263117 -210.91694 
L 124.204908 -208.448951 
L 124.125958 -205.980961 
L 124.007917 -203.512971 
L 123.835591 -201.044981 
L 123.588897 -198.576992 
L 123.234097 -196.109002 
L 122.720056 -193.641012 
L 121.98192 -191.173022 
L 120.957191 -188.705032 
L 119.619342 -186.237043 
L 118.0189 -183.769053 
L 116.300604 -181.301063 
L 114.66865 -178.833073 
L 113.309993 -176.365084 
z
" style="stroke: #484848; stroke-opacity: 0.9; stroke-width: 1.25"/>
    </defs>
    <g clip-path="url(#p0f0648d915)">
     <use xlink:href="#ma2f49000de" x="0" y="482.52025" style="fill: #bd4b5b; fill-opacity: 0.9; stroke: #484848; stroke-opacity: 0.9; stroke-width: 1.25"/>
    </g>
   </g>
   <g id="FillBetweenPolyCollection_2">
    <defs>
     <path id="mb089194460" d="M 181.007216 -177.119469 
L 172.532234 -177.119469 
L 170.284366 -179.579839 
L 167.758976 -182.040209 
L 165.275102 -184.500578 
L 163.123715 -186.960948 
L 161.463445 -189.421318 
L 160.295861 -191.881688 
L 159.51785 -194.342057 
L 159.000325 -196.802427 
L 158.644869 -199.262797 
L 158.403058 -201.723166 
L 158.268874 -204.183536 
L 158.258998 -206.643906 
L 158.390307 -209.104276 
L 158.661107 -211.564645 
L 159.043058 -214.025015 
L 159.488188 -216.485385 
L 159.947761 -218.945754 
L 160.392442 -221.406124 
L 160.82201 -223.866494 
L 161.258582 -226.326864 
L 161.727147 -228.787233 
L 162.236025 -231.247603 
L 162.770793 -233.707973 
L 163.305282 -236.168342 
L 163.819998 -238.628712 
L 164.313779 -241.089082 
L 164.801537 -243.549452 
L 165.30144 -246.009821 
L 165.820579 -248.470191 
L 166.34764 -250.930561 
L 166.856645 -253.39093 
L 167.319362 -255.8513 
L 167.718536 -258.31167 
L 168.053852 -260.77204 
L 168.338518 -263.232409 
L 168.591306 -265.692779 
L 168.83027 -268.153149 
L 169.069969 -270.613518 
L 169.320221 -273.073888 
L 169.584904 -275.534258 
L 169.861603 -277.994628 
L 170.143188 -280.454997 
L 170.420796 -282.915367 
L 170.686837 -285.375737 
L 170.93681 -287.836106 
L 171.169383 -290.296476 
L 171.385181 -292.756846 
L 171.585828 -295.217216 
L 171.774297 -297.677585 
L 171.955642 -300.137955 
L 172.136177 -302.598325 
L 172.320917 -305.058695 
L 172.511206 -307.519064 
L 172.704299 -309.979434 
L 172.894663 -312.439804 
L 173.0757 -314.900173 
L 173.241396 -317.360543 
L 173.388194 -319.820913 
L 173.516851 -322.281283 
L 173.632878 -324.741652 
L 173.744408 -327.202022 
L 173.858212 -329.662392 
L 173.97631 -332.122761 
L 174.095393 -334.583131 
L 174.209256 -337.043501 
L 174.312442 -339.503871 
L 174.402955 -341.96424 
L 174.482979 -344.42461 
L 174.557716 -346.88498 
L 174.632902 -349.345349 
L 174.71194 -351.805719 
L 174.793978 -354.266089 
L 174.874095 -356.726459 
L 174.94564 -359.186828 
L 175.003659 -361.647198 
L 175.047758 -364.107568 
L 175.082794 -366.567937 
L 175.116686 -369.028307 
L 175.156404 -371.488677 
L 175.204692 -373.949047 
L 175.259577 -376.409416 
L 175.316703 -378.869786 
L 175.372578 -381.330156 
L 175.426301 -383.790525 
L 175.478657 -386.250895 
L 175.529646 -388.711265 
L 175.576997 -391.171635 
L 175.617244 -393.632004 
L 175.648467 -396.092374 
L 175.672176 -398.552744 
L 175.692939 -401.013113 
L 175.716605 -403.473483 
L 175.748931 -405.933853 
L 175.795439 -408.394223 
L 175.861613 -410.854592 
L 175.951957 -413.314962 
L 176.067423 -415.775332 
L 176.202593 -418.235702 
L 176.345082 -420.696071 
L 177.194368 -420.696071 
L 177.194368 -420.696071 
L 177.336857 -418.235702 
L 177.472027 -415.775332 
L 177.587493 -413.314962 
L 177.677837 -410.854592 
L 177.744011 -408.394223 
L 177.790519 -405.933853 
L 177.822845 -403.473483 
L 177.846511 -401.013113 
L 177.867274 -398.552744 
L 177.890983 -396.092374 
L 177.922206 -393.632004 
L 177.962453 -391.171635 
L 178.009804 -388.711265 
L 178.060793 -386.250895 
L 178.113149 -383.790525 
L 178.166872 -381.330156 
L 178.222747 -378.869786 
L 178.279873 -376.409416 
L 178.334758 -373.949047 
L 178.383046 -371.488677 
L 178.422764 -369.028307 
L 178.456656 -366.567937 
L 178.491692 -364.107568 
L 178.535791 -361.647198 
L 178.59381 -359.186828 
L 178.665355 -356.726459 
L 178.745472 -354.266089 
L 178.82751 -351.805719 
L 178.906548 -349.345349 
L 178.981734 -346.88498 
L 179.056471 -344.42461 
L 179.136495 -341.96424 
L 179.227008 -339.503871 
L 179.330194 -337.043501 
L 179.444057 -334.583131 
L 179.56314 -332.122761 
L 179.681238 -329.662392 
L 179.795042 -327.202022 
L 179.906572 -324.741652 
L 180.022599 -322.281283 
L 180.151256 -319.820913 
L 180.298054 -317.360543 
L 180.46375 -314.900173 
L 180.644787 -312.439804 
L 180.835151 -309.979434 
L 181.028244 -307.519064 
L 181.218533 -305.058695 
L 181.403273 -302.598325 
L 181.583808 -300.137955 
L 181.765153 -297.677585 
L 181.953622 -295.217216 
L 182.154269 -292.756846 
L 182.370067 -290.296476 
L 182.60264 -287.836106 
L 182.852613 -285.375737 
L 183.118654 -282.915367 
L 183.396262 -280.454997 
L 183.677847 -277.994628 
L 183.954546 -275.534258 
L 184.219229 -273.073888 
L 184.469481 -270.613518 
L 184.70918 -268.153149 
L 184.948144 -265.692779 
L 185.200932 -263.232409 
L 185.485598 -260.77204 
L 185.820914 -258.31167 
L 186.220088 -255.8513 
L 186.682805 -253.39093 
L 187.19181 -250.930561 
L 187.718871 -248.470191 
L 188.23801 -246.009821 
L 188.737913 -243.549452 
L 189.225671 -241.089082 
L 189.719452 -238.628712 
L 190.234168 -236.168342 
L 190.768657 -233.707973 
L 191.303425 -231.247603 
L 191.812303 -228.787233 
L 192.280868 -226.326864 
L 192.71744 -223.866494 
L 193.147008 -221.406124 
L 193.591689 -218.945754 
L 194.051262 -216.485385 
L 194.496392 -214.025015 
L 194.878343 -211.564645 
L 195.149143 -209.104276 
L 195.280452 -206.643906 
L 195.270576 -204.183536 
L 195.136392 -201.723166 
L 194.894581 -199.262797 
L 194.539125 -196.802427 
L 194.0216 -194.342057 
L 193.243589 -191.881688 
L 192.076005 -189.421318 
L 190.415735 -186.960948 
L 188.264348 -184.500578 
L 185.780474 -182.040209 
L 183.255084 -179.579839 
L 181.007216 -177.119469 
z
" style="stroke: #484848; stroke-opacity: 0.9; stroke-width: 1.25"/>
    </defs>
    <g clip-path="url(#p0f0648d915)">
     <use xlink:href="#mb089194460" x="0" y="482.52025" style="fill: #d9715a; fill-opacity: 0.9; stroke: #484848; stroke-opacity: 0.9; stroke-width: 1.25"/>
    </g>
   </g>
   <g id="FillBetweenPolyCollection_3">
    <defs>
     <path id="maaba9f6494" d="M 244.91052 -178.204101 
L 239.96773 -178.204101 
L 238.925315 -180.653539 
L 237.770507 -183.102977 
L 236.600288 -185.552415 
L 235.509037 -188.001853 
L 234.564054 -190.451291 
L 233.793608 -192.900728 
L 233.190099 -195.350166 
L 232.723279 -197.799604 
L 232.355616 -200.249042 
L 232.053933 -202.69848 
L 231.795276 -205.147918 
L 231.56767 -207.597356 
L 231.367466 -210.046793 
L 231.195176 -212.496231 
L 231.051723 -214.945669 
L 230.936514 -217.395107 
L 230.847731 -219.844545 
L 230.784058 -222.293983 
L 230.746328 -224.743421 
L 230.737626 -227.192858 
L 230.761231 -229.642296 
L 230.81734 -232.091734 
L 230.900832 -234.541172 
L 231.002203 -236.99061 
L 231.111651 -239.440048 
L 231.223615 -241.889486 
L 231.338264 -244.338923 
L 231.458649 -246.788361 
L 231.585745 -249.237799 
L 231.715471 -251.687237 
L 231.840349 -254.136675 
L 231.954848 -256.586113 
L 232.060519 -259.03555 
L 232.167034 -261.484988 
L 232.288145 -263.934426 
L 232.435205 -266.383864 
L 232.61231 -268.833302 
L 232.815571 -271.28274 
L 233.035894 -273.732178 
L 233.262819 -276.181615 
L 233.487324 -278.631053 
L 233.703169 -281.080491 
L 233.907239 -283.529929 
L 234.099303 -285.979367 
L 234.281196 -288.428805 
L 234.455544 -290.878243 
L 234.624457 -293.32768 
L 234.788711 -295.777118 
L 234.94775 -298.226556 
L 235.100481 -300.675994 
L 235.246463 -303.125432 
L 235.386766 -305.57487 
L 235.523907 -308.024308 
L 235.66087 -310.473745 
L 235.799971 -312.923183 
L 235.942278 -315.372621 
L 236.08764 -317.822059 
L 236.234822 -320.271497 
L 236.381537 -322.720935 
L 236.524812 -325.170373 
L 236.66216 -327.61981 
L 236.79316 -330.069248 
L 236.920246 -332.518686 
L 237.047817 -334.968124 
L 237.17999 -337.417562 
L 237.318439 -339.867 
L 237.46167 -342.316438 
L 237.605926 -344.765875 
L 237.746765 -347.215313 
L 237.880195 -349.664751 
L 238.00313 -352.114189 
L 238.11366 -354.563627 
L 238.211568 -357.013065 
L 238.298788 -359.462503 
L 238.379091 -361.91194 
L 238.45679 -364.361378 
L 238.535122 -366.810816 
L 238.615344 -369.260254 
L 238.697082 -371.709692 
L 238.779519 -374.15913 
L 238.862508 -376.608567 
L 238.946865 -379.058005 
L 239.033786 -381.507443 
L 239.123821 -383.956881 
L 239.216056 -386.406319 
L 239.308044 -388.855757 
L 239.396624 -391.305195 
L 239.479244 -393.754632 
L 239.555099 -396.20407 
L 239.625632 -398.653508 
L 239.694642 -401.102946 
L 239.768586 -403.552384 
L 239.857253 -406.001822 
L 239.973938 -408.45126 
L 240.133572 -410.900697 
L 240.348 -413.350135 
L 240.619597 -415.799573 
L 240.936476 -418.249011 
L 241.272859 -420.698449 
L 243.605391 -420.698449 
L 243.605391 -420.698449 
L 243.941774 -418.249011 
L 244.258653 -415.799573 
L 244.53025 -413.350135 
L 244.744678 -410.900697 
L 244.904312 -408.45126 
L 245.020997 -406.001822 
L 245.109664 -403.552384 
L 245.183608 -401.102946 
L 245.252618 -398.653508 
L 245.323151 -396.20407 
L 245.399006 -393.754632 
L 245.481626 -391.305195 
L 245.570206 -388.855757 
L 245.662194 -386.406319 
L 245.754429 -383.956881 
L 245.844464 -381.507443 
L 245.931385 -379.058005 
L 246.015742 -376.608567 
L 246.098731 -374.15913 
L 246.181168 -371.709692 
L 246.262906 -369.260254 
L 246.343128 -366.810816 
L 246.42146 -364.361378 
L 246.499159 -361.91194 
L 246.579462 -359.462503 
L 246.666682 -357.013065 
L 246.76459 -354.563627 
L 246.87512 -352.114189 
L 246.998055 -349.664751 
L 247.131485 -347.215313 
L 247.272324 -344.765875 
L 247.41658 -342.316438 
L 247.559811 -339.867 
L 247.69826 -337.417562 
L 247.830433 -334.968124 
L 247.958004 -332.518686 
L 248.08509 -330.069248 
L 248.21609 -327.61981 
L 248.353438 -325.170373 
L 248.496713 -322.720935 
L 248.643428 -320.271497 
L 248.79061 -317.822059 
L 248.935972 -315.372621 
L 249.078279 -312.923183 
L 249.21738 -310.473745 
L 249.354343 -308.024308 
L 249.491484 -305.57487 
L 249.631787 -303.125432 
L 249.777769 -300.675994 
L 249.9305 -298.226556 
L 250.089539 -295.777118 
L 250.253793 -293.32768 
L 250.422706 -290.878243 
L 250.597054 -288.428805 
L 250.778947 -285.979367 
L 250.971011 -283.529929 
L 251.175081 -281.080491 
L 251.390926 -278.631053 
L 251.615431 -276.181615 
L 251.842356 -273.732178 
L 252.062679 -271.28274 
L 252.26594 -268.833302 
L 252.443045 -266.383864 
L 252.590105 -263.934426 
L 252.711216 -261.484988 
L 252.817731 -259.03555 
L 252.923402 -256.586113 
L 253.037901 -254.136675 
L 253.162779 -251.687237 
L 253.292505 -249.237799 
L 253.419601 -246.788361 
L 253.539986 -244.338923 
L 253.654635 -241.889486 
L 253.766599 -239.440048 
L 253.876047 -236.99061 
L 253.977418 -234.541172 
L 254.06091 -232.091734 
L 254.117019 -229.642296 
L 254.140624 -227.192858 
L 254.131922 -224.743421 
L 254.094192 -222.293983 
L 254.030519 -219.844545 
L 253.941736 -217.395107 
L 253.826527 -214.945669 
L 253.683074 -212.496231 
L 253.510784 -210.046793 
L 253.31058 -207.597356 
L 253.082974 -205.147918 
L 252.824317 -202.69848 
L 252.522634 -200.249042 
L 252.154971 -197.799604 
L 251.688151 -195.350166 
L 251.084642 -192.900728 
L 250.314196 -190.451291 
L 249.369213 -188.001853 
L 248.277962 -185.552415 
L 247.107743 -183.102977 
L 245.952935 -180.653539 
L 244.91052 -178.204101 
z
" style="stroke: #484848; stroke-opacity: 0.9; stroke-width: 1.25"/>
    </defs>
    <g clip-path="url(#p0f0648d915)">
     <use xlink:href="#maaba9f6494" x="0" y="482.52025" style="fill: #e69e6c; fill-opacity: 0.9; stroke: #484848; stroke-opacity: 0.9; stroke-width: 1.25"/>
    </g>
   </g>
   <g id="FillBetweenPolyCollection_4">
    <defs>
     <path id="m7f84963a9d" d="M 310.953838 -176.744739 
L 305.263212 -176.744739 
L 302.940801 -179.208841 
L 300.149708 -181.672943 
L 297.49042 -184.137045 
L 295.497179 -186.601147 
L 294.338597 -189.065249 
L 293.82974 -191.529351 
L 293.667827 -193.993454 
L 293.630061 -196.457556 
L 293.617138 -198.921658 
L 293.609091 -201.38576 
L 293.61968 -203.849862 
L 293.668788 -206.313964 
L 293.764002 -208.778066 
L 293.894817 -211.242168 
L 294.043308 -213.70627 
L 294.199261 -216.170372 
L 294.364596 -218.634474 
L 294.545853 -221.098576 
L 294.7455 -223.562678 
L 294.959731 -226.02678 
L 295.181234 -228.490882 
L 295.403684 -230.954984 
L 295.626009 -233.419086 
L 295.852024 -235.883188 
L 296.083549 -238.34729 
L 296.315366 -240.811392 
L 296.541308 -243.275494 
L 296.764693 -245.739596 
L 296.99723 -248.203698 
L 297.246551 -250.6678 
L 297.508875 -253.131902 
L 297.774808 -255.596004 
L 298.039331 -258.060106 
L 298.304397 -260.524208 
L 298.573162 -262.98831 
L 298.845041 -265.452412 
L 299.11811 -267.916514 
L 299.392234 -270.380616 
L 299.665219 -272.844719 
L 299.929423 -275.308821 
L 300.177767 -277.772923 
L 300.410412 -280.237025 
L 300.630714 -282.701127 
L 300.83704 -285.165229 
L 301.024193 -287.629331 
L 301.194333 -290.093433 
L 301.363171 -292.557535 
L 301.550432 -295.021637 
L 301.762114 -297.485739 
L 301.984033 -299.949841 
L 302.193843 -302.413943 
L 302.378506 -304.878045 
L 302.542074 -307.342147 
L 302.700315 -309.806249 
L 302.867526 -312.270351 
L 303.045261 -314.734453 
L 303.222354 -317.198555 
L 303.386037 -319.662657 
L 303.532929 -322.126759 
L 303.670163 -324.590861 
L 303.807991 -327.054963 
L 303.951311 -329.519065 
L 304.096081 -331.983167 
L 304.232723 -334.447269 
L 304.353758 -336.911371 
L 304.459243 -339.375473 
L 304.556126 -341.839575 
L 304.653094 -344.303677 
L 304.754885 -346.767779 
L 304.860048 -349.231881 
L 304.964083 -351.695984 
L 305.064096 -354.160086 
L 305.159413 -356.624188 
L 305.249485 -359.08829 
L 305.334208 -361.552392 
L 305.416204 -364.016494 
L 305.500945 -366.480596 
L 305.594155 -368.944698 
L 305.698315 -371.4088 
L 305.809444 -373.872902 
L 305.916986 -376.337004 
L 306.009633 -378.801106 
L 306.083519 -381.265208 
L 306.144844 -383.72931 
L 306.203798 -386.193412 
L 306.265649 -388.657514 
L 306.328132 -391.121616 
L 306.387307 -393.585718 
L 306.443759 -396.04982 
L 306.501344 -398.513922 
L 306.561261 -400.978024 
L 306.619811 -403.442126 
L 306.67205 -405.906228 
L 306.71731 -408.37033 
L 306.764708 -410.834432 
L 306.837607 -413.298534 
L 306.968378 -415.762636 
L 307.175509 -418.226738 
L 307.43792 -420.69084 
L 308.77913 -420.69084 
L 308.77913 -420.69084 
L 309.041541 -418.226738 
L 309.248672 -415.762636 
L 309.379443 -413.298534 
L 309.452342 -410.834432 
L 309.49974 -408.37033 
L 309.545 -405.906228 
L 309.597239 -403.442126 
L 309.655789 -400.978024 
L 309.715706 -398.513922 
L 309.773291 -396.04982 
L 309.829743 -393.585718 
L 309.888918 -391.121616 
L 309.951401 -388.657514 
L 310.013252 -386.193412 
L 310.072206 -383.72931 
L 310.133531 -381.265208 
L 310.207417 -378.801106 
L 310.300064 -376.337004 
L 310.407606 -373.872902 
L 310.518735 -371.4088 
L 310.622895 -368.944698 
L 310.716105 -366.480596 
L 310.800846 -364.016494 
L 310.882842 -361.552392 
L 310.967565 -359.08829 
L 311.057637 -356.624188 
L 311.152954 -354.160086 
L 311.252967 -351.695984 
L 311.357002 -349.231881 
L 311.462165 -346.767779 
L 311.563956 -344.303677 
L 311.660924 -341.839575 
L 311.757807 -339.375473 
L 311.863292 -336.911371 
L 311.984327 -334.447269 
L 312.120969 -331.983167 
L 312.265739 -329.519065 
L 312.409059 -327.054963 
L 312.546887 -324.590861 
L 312.684121 -322.126759 
L 312.831013 -319.662657 
L 312.994696 -317.198555 
L 313.171789 -314.734453 
L 313.349524 -312.270351 
L 313.516735 -309.806249 
L 313.674976 -307.342147 
L 313.838544 -304.878045 
L 314.023207 -302.413943 
L 314.233017 -299.949841 
L 314.454936 -297.485739 
L 314.666618 -295.021637 
L 314.853879 -292.557535 
L 315.022717 -290.093433 
L 315.192857 -287.629331 
L 315.38001 -285.165229 
L 315.586336 -282.701127 
L 315.806638 -280.237025 
L 316.039283 -277.772923 
L 316.287627 -275.308821 
L 316.551831 -272.844719 
L 316.824816 -270.380616 
L 317.09894 -267.916514 
L 317.372009 -265.452412 
L 317.643888 -262.98831 
L 317.912653 -260.524208 
L 318.177719 -258.060106 
L 318.442242 -255.596004 
L 318.708175 -253.131902 
L 318.970499 -250.6678 
L 319.21982 -248.203698 
L 319.452357 -245.739596 
L 319.675742 -243.275494 
L 319.901684 -240.811392 
L 320.133501 -238.34729 
L 320.365026 -235.883188 
L 320.591041 -233.419086 
L 320.813366 -230.954984 
L 321.035816 -228.490882 
L 321.257319 -226.02678 
L 321.47155 -223.562678 
L 321.671197 -221.098576 
L 321.852454 -218.634474 
L 322.017789 -216.170372 
L 322.173742 -213.70627 
L 322.322233 -211.242168 
L 322.453048 -208.778066 
L 322.548262 -206.313964 
L 322.59737 -203.849862 
L 322.607959 -201.38576 
L 322.599912 -198.921658 
L 322.586989 -196.457556 
L 322.549223 -193.993454 
L 322.38731 -191.529351 
L 321.878453 -189.065249 
L 320.719871 -186.601147 
L 318.72663 -184.137045 
L 316.067342 -181.672943 
L 313.276249 -179.208841 
L 310.953838 -176.744739 
z
" style="stroke: #484848; stroke-opacity: 0.9; stroke-width: 1.25"/>
    </defs>
    <g clip-path="url(#p0f0648d915)">
     <use xlink:href="#m7f84963a9d" x="0" y="482.52025" style="fill: #edca8c; fill-opacity: 0.9; stroke: #484848; stroke-opacity: 0.9; stroke-width: 1.25"/>
    </g>
   </g>
   <g id="FillBetweenPolyCollection_5">
    <defs>
     <path id="m79282b50ea" d="M 375.897815 -176.231176 
L 371.658035 -176.231176 
L 370.296928 -178.699745 
L 368.663036 -181.168314 
L 366.955649 -183.636883 
L 365.373286 -186.105452 
L 364.028611 -188.574021 
L 362.927789 -191.04259 
L 362.01598 -193.511159 
L 361.239429 -195.979728 
L 360.577227 -198.448296 
L 360.034608 -200.916865 
L 359.619281 -203.385434 
L 359.323762 -205.854003 
L 359.122892 -208.322572 
L 358.983872 -210.791141 
L 358.880607 -213.25971 
L 358.803703 -215.728279 
L 358.760808 -218.196848 
L 358.767335 -220.665417 
L 358.833065 -223.133986 
L 358.954028 -225.602555 
L 359.116558 -228.071124 
L 359.309593 -230.539692 
L 359.532197 -233.008261 
L 359.78858 -235.47683 
L 360.077589 -237.945399 
L 360.389751 -240.413968 
L 360.715053 -242.882537 
L 361.051519 -245.351106 
L 361.403912 -247.819675 
L 361.773911 -250.288244 
L 362.152943 -252.756813 
L 362.525299 -255.225382 
L 362.877619 -257.693951 
L 363.205473 -260.16252 
L 363.512614 -262.631088 
L 363.806041 -265.099657 
L 364.092048 -267.568226 
L 364.375097 -270.036795 
L 364.658105 -272.505364 
L 364.942934 -274.973933 
L 365.230985 -277.442502 
L 365.523176 -279.911071 
L 365.818237 -282.37964 
L 366.110843 -284.848209 
L 366.393136 -287.316778 
L 366.659807 -289.785347 
L 366.911608 -292.253916 
L 367.15297 -294.722484 
L 367.386393 -297.191053 
L 367.609842 -299.659622 
L 367.81905 -302.128191 
L 368.011514 -304.59676 
L 368.189111 -307.065329 
L 368.358469 -309.533898 
L 368.528427 -312.002467 
L 368.704754 -314.471036 
L 368.885643 -316.939605 
L 369.062492 -319.408174 
L 369.225919 -321.876743 
L 369.372118 -324.345312 
L 369.505101 -326.81388 
L 369.634247 -329.282449 
L 369.76896 -331.751018 
L 369.912933 -334.219587 
L 370.061192 -336.688156 
L 370.202832 -339.156725 
L 370.328679 -341.625294 
L 370.438282 -344.093863 
L 370.540231 -346.562432 
L 370.645606 -349.031001 
L 370.760676 -351.49957 
L 370.884888 -353.968139 
L 371.014251 -356.436708 
L 371.145282 -358.905276 
L 371.275684 -361.373845 
L 371.402567 -363.842414 
L 371.521669 -366.310983 
L 371.629202 -368.779552 
L 371.724377 -371.248121 
L 371.809686 -373.71669 
L 371.888631 -376.185259 
L 371.963287 -378.653828 
L 372.033979 -381.122397 
L 372.100793 -383.590966 
L 372.164943 -386.059535 
L 372.228399 -388.528104 
L 372.292068 -390.996672 
L 372.354504 -393.465241 
L 372.412854 -395.93381 
L 372.465261 -398.402379 
L 372.512141 -400.870948 
L 372.555324 -403.339517 
L 372.597271 -405.808086 
L 372.642663 -408.276655 
L 372.701095 -410.745224 
L 372.786492 -413.213793 
L 372.910437 -415.682362 
L 373.072483 -418.150931 
L 373.255439 -420.6195 
L 374.300411 -420.6195 
L 374.300411 -420.6195 
L 374.483367 -418.150931 
L 374.645413 -415.682362 
L 374.769358 -413.213793 
L 374.854755 -410.745224 
L 374.913187 -408.276655 
L 374.958579 -405.808086 
L 375.000526 -403.339517 
L 375.043709 -400.870948 
L 375.090589 -398.402379 
L 375.142996 -395.93381 
L 375.201346 -393.465241 
L 375.263782 -390.996672 
L 375.327451 -388.528104 
L 375.390907 -386.059535 
L 375.455057 -383.590966 
L 375.521871 -381.122397 
L 375.592563 -378.653828 
L 375.667219 -376.185259 
L 375.746164 -373.71669 
L 375.831473 -371.248121 
L 375.926648 -368.779552 
L 376.034181 -366.310983 
L 376.153283 -363.842414 
L 376.280166 -361.373845 
L 376.410568 -358.905276 
L 376.541599 -356.436708 
L 376.670962 -353.968139 
L 376.795174 -351.49957 
L 376.910244 -349.031001 
L 377.015619 -346.562432 
L 377.117568 -344.093863 
L 377.227171 -341.625294 
L 377.353018 -339.156725 
L 377.494658 -336.688156 
L 377.642917 -334.219587 
L 377.78689 -331.751018 
L 377.921603 -329.282449 
L 378.050749 -326.81388 
L 378.183732 -324.345312 
L 378.329931 -321.876743 
L 378.493358 -319.408174 
L 378.670207 -316.939605 
L 378.851096 -314.471036 
L 379.027423 -312.002467 
L 379.197381 -309.533898 
L 379.366739 -307.065329 
L 379.544336 -304.59676 
L 379.7368 -302.128191 
L 379.946008 -299.659622 
L 380.169457 -297.191053 
L 380.40288 -294.722484 
L 380.644242 -292.253916 
L 380.896043 -289.785347 
L 381.162714 -287.316778 
L 381.445007 -284.848209 
L 381.737613 -282.37964 
L 382.032674 -279.911071 
L 382.324865 -277.442502 
L 382.612916 -274.973933 
L 382.897745 -272.505364 
L 383.180753 -270.036795 
L 383.463802 -267.568226 
L 383.749809 -265.099657 
L 384.043236 -262.631088 
L 384.350377 -260.16252 
L 384.678231 -257.693951 
L 385.030551 -255.225382 
L 385.402907 -252.756813 
L 385.781939 -250.288244 
L 386.151938 -247.819675 
L 386.504331 -245.351106 
L 386.840797 -242.882537 
L 387.166099 -240.413968 
L 387.478261 -237.945399 
L 387.76727 -235.47683 
L 388.023653 -233.008261 
L 388.246257 -230.539692 
L 388.439292 -228.071124 
L 388.601822 -225.602555 
L 388.722785 -223.133986 
L 388.788515 -220.665417 
L 388.795042 -218.196848 
L 388.752147 -215.728279 
L 388.675243 -213.25971 
L 388.571978 -210.791141 
L 388.432958 -208.322572 
L 388.232088 -205.854003 
L 387.936569 -203.385434 
L 387.521242 -200.916865 
L 386.978623 -198.448296 
L 386.316421 -195.979728 
L 385.53987 -193.511159 
L 384.628061 -191.04259 
L 383.527239 -188.574021 
L 382.182564 -186.105452 
L 380.600201 -183.636883 
L 378.892814 -181.168314 
L 377.258922 -178.699745 
L 375.897815 -176.231176 
z
" style="stroke: #484848; stroke-opacity: 0.9; stroke-width: 1.25"/>
    </defs>
    <g clip-path="url(#p0f0648d915)">
     <use xlink:href="#m79282b50ea" x="0" y="482.52025" style="fill: #f4eab2; fill-opacity: 0.9; stroke: #484848; stroke-opacity: 0.9; stroke-width: 1.25"/>
    </g>
   </g>
   <g id="FillBetweenPolyCollection_6">
    <defs>
     <path id="mf9c5dbc00d" d="M 444.187845 -177.573997 
L 434.706805 -177.573997 
L 433.106938 -180.023134 
L 431.429367 -182.47227 
L 429.795806 -184.921407 
L 428.305906 -187.370543 
L 427.018397 -189.819679 
L 425.950186 -192.268816 
L 425.089783 -194.717952 
L 424.415078 -197.167088 
L 423.905992 -199.616225 
L 423.54807 -202.065361 
L 423.329046 -204.514498 
L 423.233435 -206.963634 
L 423.239663 -209.41277 
L 423.321595 -211.861907 
L 423.453357 -214.311043 
L 423.614636 -216.760179 
L 423.793679 -219.209316 
L 423.986833 -221.658452 
L 424.195538 -224.107589 
L 424.42283 -226.556725 
L 424.671165 -229.005861 
L 424.942029 -231.454998 
L 425.23657 -233.904134 
L 425.556029 -236.353271 
L 425.901235 -238.802407 
L 426.271362 -241.251543 
L 426.662859 -243.70068 
L 427.069482 -246.149816 
L 427.483693 -248.598952 
L 427.898735 -251.048089 
L 428.310301 -253.497225 
L 428.717056 -255.946362 
L 429.120008 -258.395498 
L 429.521179 -260.844634 
L 429.922013 -263.293771 
L 430.32183 -265.742907 
L 430.716688 -268.192043 
L 431.099263 -270.64118 
L 431.46024 -273.090316 
L 431.79098 -275.539453 
L 432.08636 -277.988589 
L 432.346368 -280.437725 
L 432.575635 -282.886862 
L 432.781295 -285.335998 
L 432.970404 -287.785135 
L 433.148229 -290.234271 
L 433.318036 -292.683407 
L 433.482123 -295.132544 
L 433.643296 -297.58168 
L 433.805798 -300.030816 
L 433.975008 -302.479953 
L 434.155899 -304.929089 
L 434.350967 -307.378226 
L 434.558787 -309.827362 
L 434.774029 -312.276498 
L 434.988912 -314.725635 
L 435.195345 -317.174771 
L 435.386806 -319.623907 
L 435.559474 -322.073044 
L 435.712615 -324.52218 
L 435.848379 -326.971317 
L 435.971117 -329.420453 
L 436.086316 -331.869589 
L 436.199389 -334.318726 
L 436.314662 -336.767862 
L 436.434739 -339.216999 
L 436.56021 -341.666135 
L 436.689687 -344.115271 
L 436.82026 -346.564408 
L 436.948465 -349.013544 
L 437.071495 -351.46268 
L 437.188062 -353.911817 
L 437.298396 -356.360953 
L 437.403387 -358.81009 
L 437.503436 -361.259226 
L 437.597747 -363.708362 
L 437.68445 -366.157499 
L 437.761457 -368.606635 
L 437.827555 -371.055771 
L 437.883166 -373.504908 
L 437.930416 -375.954044 
L 437.972474 -378.403181 
L 438.012467 -380.852317 
L 438.052478 -383.301453 
L 438.093054 -385.75059 
L 438.133467 -388.199726 
L 438.172572 -390.648863 
L 438.209836 -393.097999 
L 438.246038 -395.547135 
L 438.283305 -397.996272 
L 438.324581 -400.445408 
L 438.372911 -402.894544 
L 438.43095 -405.343681 
L 438.500784 -407.792817 
L 438.583771 -410.241954 
L 438.680106 -412.69109 
L 438.788076 -415.140226 
L 438.903468 -417.589363 
L 439.019715 -420.038499 
L 439.874935 -420.038499 
L 439.874935 -420.038499 
L 439.991182 -417.589363 
L 440.106574 -415.140226 
L 440.214544 -412.69109 
L 440.310879 -410.241954 
L 440.393866 -407.792817 
L 440.4637 -405.343681 
L 440.521739 -402.894544 
L 440.570069 -400.445408 
L 440.611345 -397.996272 
L 440.648612 -395.547135 
L 440.684814 -393.097999 
L 440.722078 -390.648863 
L 440.761183 -388.199726 
L 440.801596 -385.75059 
L 440.842172 -383.301453 
L 440.882183 -380.852317 
L 440.922176 -378.403181 
L 440.964234 -375.954044 
L 441.011484 -373.504908 
L 441.067095 -371.055771 
L 441.133193 -368.606635 
L 441.2102 -366.157499 
L 441.296903 -363.708362 
L 441.391214 -361.259226 
L 441.491263 -358.81009 
L 441.596254 -356.360953 
L 441.706588 -353.911817 
L 441.823155 -351.46268 
L 441.946185 -349.013544 
L 442.07439 -346.564408 
L 442.204963 -344.115271 
L 442.33444 -341.666135 
L 442.459911 -339.216999 
L 442.579988 -336.767862 
L 442.695261 -334.318726 
L 442.808334 -331.869589 
L 442.923533 -329.420453 
L 443.046271 -326.971317 
L 443.182035 -324.52218 
L 443.335176 -322.073044 
L 443.507844 -319.623907 
L 443.699305 -317.174771 
L 443.905738 -314.725635 
L 444.120621 -312.276498 
L 444.335863 -309.827362 
L 444.543683 -307.378226 
L 444.738751 -304.929089 
L 444.919642 -302.479953 
L 445.088852 -300.030816 
L 445.251354 -297.58168 
L 445.412527 -295.132544 
L 445.576614 -292.683407 
L 445.746421 -290.234271 
L 445.924246 -287.785135 
L 446.113355 -285.335998 
L 446.319015 -282.886862 
L 446.548282 -280.437725 
L 446.80829 -277.988589 
L 447.10367 -275.539453 
L 447.43441 -273.090316 
L 447.795387 -270.64118 
L 448.177962 -268.192043 
L 448.57282 -265.742907 
L 448.972637 -263.293771 
L 449.373471 -260.844634 
L 449.774642 -258.395498 
L 450.177594 -255.946362 
L 450.584349 -253.497225 
L 450.995915 -251.048089 
L 451.410957 -248.598952 
L 451.825168 -246.149816 
L 452.231791 -243.70068 
L 452.623288 -241.251543 
L 452.993415 -238.802407 
L 453.338621 -236.353271 
L 453.65808 -233.904134 
L 453.952621 -231.454998 
L 454.223485 -229.005861 
L 454.47182 -226.556725 
L 454.699112 -224.107589 
L 454.907817 -221.658452 
L 455.100971 -219.209316 
L 455.280014 -216.760179 
L 455.441293 -214.311043 
L 455.573055 -211.861907 
L 455.654987 -209.41277 
L 455.661215 -206.963634 
L 455.565604 -204.514498 
L 455.34658 -202.065361 
L 454.988658 -199.616225 
L 454.479572 -197.167088 
L 453.804867 -194.717952 
L 452.944464 -192.268816 
L 451.876253 -189.819679 
L 450.588744 -187.370543 
L 449.098844 -184.921407 
L 447.465283 -182.47227 
L 445.787712 -180.023134 
L 444.187845 -177.573997 
z
" style="stroke: #484848; stroke-opacity: 0.9; stroke-width: 1.25"/>
    </defs>
    <g clip-path="url(#p0f0648d915)">
     <use xlink:href="#mf9c5dbc00d" x="0" y="482.52025" style="fill: #ecf1b7; fill-opacity: 0.9; stroke: #484848; stroke-opacity: 0.9; stroke-width: 1.25"/>
    </g>
   </g>
   <g id="FillBetweenPolyCollection_7">
    <defs>
     <path id="ma6a30b931d" d="M 510.788491 -179.321515 
L 499.444959 -179.321515 
L 496.635546 -181.758296 
L 493.569541 -184.195078 
L 490.614766 -186.631859 
L 488.076834 -189.068641 
L 486.116695 -191.505422 
L 484.752403 -193.942204 
L 483.912959 -196.378985 
L 483.494536 -198.815767 
L 483.395503 -201.252549 
L 483.532488 -203.68933 
L 483.843955 -206.126112 
L 484.284113 -208.562893 
L 484.811992 -210.999675 
L 485.384069 -213.436456 
L 485.956284 -215.873238 
L 486.494159 -218.310019 
L 486.98396 -220.746801 
L 487.436 -223.183582 
L 487.87504 -225.620364 
L 488.322556 -228.057146 
L 488.784524 -230.493927 
L 489.255513 -232.930709 
L 489.734317 -235.36749 
L 490.234257 -237.804272 
L 490.777004 -240.241053 
L 491.375746 -242.677835 
L 492.022847 -245.114616 
L 492.692243 -247.551398 
L 493.355019 -249.98818 
L 493.996503 -252.424961 
L 494.621001 -254.861743 
L 495.239759 -257.298524 
L 495.853175 -259.735306 
L 496.444163 -262.172087 
L 496.988721 -264.608869 
L 497.473255 -267.04565 
L 497.903102 -269.482432 
L 498.296462 -271.919213 
L 498.670875 -274.355995 
L 499.033322 -276.792777 
L 499.379286 -279.229558 
L 499.69899 -281.66634 
L 499.985876 -284.103121 
L 500.241996 -286.539903 
L 500.476741 -288.976684 
L 500.700593 -291.413466 
L 500.92055 -293.850247 
L 501.141281 -296.287029 
L 501.367761 -298.723811 
L 501.602812 -301.160592 
L 501.840932 -303.597374 
L 502.067198 -306.034155 
L 502.265639 -308.470937 
L 502.429981 -310.907718 
L 502.566167 -313.3445 
L 502.685135 -315.781281 
L 502.794522 -318.218063 
L 502.896924 -320.654844 
L 502.993419 -323.091626 
L 503.08616 -325.528408 
L 503.177597 -327.965189 
L 503.269058 -330.401971 
L 503.361031 -332.838752 
L 503.453714 -335.275534 
L 503.545863 -337.712315 
L 503.633348 -340.149097 
L 503.710119 -342.585878 
L 503.771282 -345.02266 
L 503.815287 -347.459441 
L 503.843727 -349.896223 
L 503.86027 -352.333005 
L 503.870613 -354.769786 
L 503.883023 -357.206568 
L 503.907366 -359.643349 
L 503.951572 -362.080131 
L 504.01754 -364.516912 
L 504.099879 -366.953694 
L 504.188692 -369.390475 
L 504.27408 -371.827257 
L 504.349127 -374.264039 
L 504.410514 -376.70082 
L 504.458116 -379.137602 
L 504.494532 -381.574383 
L 504.524032 -384.011165 
L 504.550573 -386.447946 
L 504.57612 -388.884728 
L 504.60086 -391.321509 
L 504.62516 -393.758291 
L 504.651181 -396.195072 
L 504.68223 -398.631854 
L 504.720132 -401.068636 
L 504.763011 -403.505417 
L 504.805753 -405.942199 
L 504.843117 -408.37898 
L 504.873224 -410.815762 
L 504.898811 -413.252543 
L 504.925246 -415.689325 
L 504.956668 -418.126106 
L 504.993042 -420.562888 
L 505.240408 -420.562888 
L 505.240408 -420.562888 
L 505.276782 -418.126106 
L 505.308204 -415.689325 
L 505.334639 -413.252543 
L 505.360226 -410.815762 
L 505.390333 -408.37898 
L 505.427697 -405.942199 
L 505.470439 -403.505417 
L 505.513318 -401.068636 
L 505.55122 -398.631854 
L 505.582269 -396.195072 
L 505.60829 -393.758291 
L 505.63259 -391.321509 
L 505.65733 -388.884728 
L 505.682877 -386.447946 
L 505.709418 -384.011165 
L 505.738918 -381.574383 
L 505.775334 -379.137602 
L 505.822936 -376.70082 
L 505.884323 -374.264039 
L 505.95937 -371.827257 
L 506.044758 -369.390475 
L 506.133571 -366.953694 
L 506.21591 -364.516912 
L 506.281878 -362.080131 
L 506.326084 -359.643349 
L 506.350427 -357.206568 
L 506.362837 -354.769786 
L 506.37318 -352.333005 
L 506.389723 -349.896223 
L 506.418163 -347.459441 
L 506.462168 -345.02266 
L 506.523331 -342.585878 
L 506.600102 -340.149097 
L 506.687587 -337.712315 
L 506.779736 -335.275534 
L 506.872419 -332.838752 
L 506.964392 -330.401971 
L 507.055853 -327.965189 
L 507.14729 -325.528408 
L 507.240031 -323.091626 
L 507.336526 -320.654844 
L 507.438928 -318.218063 
L 507.548315 -315.781281 
L 507.667283 -313.3445 
L 507.803469 -310.907718 
L 507.967811 -308.470937 
L 508.166252 -306.034155 
L 508.392518 -303.597374 
L 508.630638 -301.160592 
L 508.865689 -298.723811 
L 509.092169 -296.287029 
L 509.3129 -293.850247 
L 509.532857 -291.413466 
L 509.756709 -288.976684 
L 509.991454 -286.539903 
L 510.247574 -284.103121 
L 510.53446 -281.66634 
L 510.854164 -279.229558 
L 511.200128 -276.792777 
L 511.562575 -274.355995 
L 511.936988 -271.919213 
L 512.330348 -269.482432 
L 512.760195 -267.04565 
L 513.244729 -264.608869 
L 513.789287 -262.172087 
L 514.380275 -259.735306 
L 514.993691 -257.298524 
L 515.612449 -254.861743 
L 516.236947 -252.424961 
L 516.878431 -249.98818 
L 517.541207 -247.551398 
L 518.210603 -245.114616 
L 518.857704 -242.677835 
L 519.456446 -240.241053 
L 519.999193 -237.804272 
L 520.499133 -235.36749 
L 520.977937 -232.930709 
L 521.448926 -230.493927 
L 521.910894 -228.057146 
L 522.35841 -225.620364 
L 522.79745 -223.183582 
L 523.24949 -220.746801 
L 523.739291 -218.310019 
L 524.277166 -215.873238 
L 524.849381 -213.436456 
L 525.421458 -210.999675 
L 525.949337 -208.562893 
L 526.389495 -206.126112 
L 526.700962 -203.68933 
L 526.837947 -201.252549 
L 526.738914 -198.815767 
L 526.320491 -196.378985 
L 525.481047 -193.942204 
L 524.116755 -191.505422 
L 522.156616 -189.068641 
L 519.618684 -186.631859 
L 516.663909 -184.195078 
L 513.597904 -181.758296 
L 510.788491 -179.321515 
z
" style="stroke: #484848; stroke-opacity: 0.9; stroke-width: 1.25"/>
    </defs>
    <g clip-path="url(#p0f0648d915)">
     <use xlink:href="#ma6a30b931d" x="0" y="482.52025" style="fill: #cee2a6; fill-opacity: 0.9; stroke: #484848; stroke-opacity: 0.9; stroke-width: 1.25"/>
    </g>
   </g>
   <g id="FillBetweenPolyCollection_8">
    <defs>
     <path id="mcad5087564" d="M 581.611654 -178.707907 
L 559.960596 -178.707907 
L 556.902192 -181.123264 
L 553.793461 -183.538621 
L 550.873222 -185.953979 
L 548.36183 -188.369336 
L 546.423502 -190.784693 
L 545.144414 -193.200051 
L 544.530034 -195.615408 
L 544.518365 -198.030765 
L 545.002094 -200.446123 
L 545.852763 -202.86148 
L 546.942261 -205.276837 
L 548.159218 -207.692195 
L 549.419057 -210.107552 
L 550.667084 -212.522909 
L 551.874935 -214.938267 
L 553.032207 -217.353624 
L 554.136504 -219.768981 
L 555.185462 -222.184339 
L 556.173126 -224.599696 
L 557.090923 -227.015053 
L 557.931435 -229.430411 
L 558.692245 -231.845768 
L 559.377663 -234.261125 
L 559.997538 -236.676483 
L 560.563922 -239.09184 
L 561.087244 -241.507197 
L 561.573621 -243.922555 
L 562.02428 -246.337912 
L 562.437196 -248.753269 
L 562.810222 -251.168627 
L 563.14448 -253.583984 
L 563.446549 -255.999341 
L 563.728283 -258.414699 
L 564.003997 -260.830056 
L 564.285984 -263.245413 
L 564.580357 -265.660771 
L 564.885245 -268.076128 
L 565.192318 -270.491485 
L 565.490906 -272.906843 
L 565.772612 -275.3222 
L 566.034154 -277.737557 
L 566.277261 -280.152915 
L 566.506124 -282.568272 
L 566.724134 -284.983629 
L 566.931793 -287.398987 
L 567.126781 -289.814344 
L 567.305816 -292.229701 
L 567.466984 -294.645059 
L 567.61113 -297.060416 
L 567.741584 -299.475773 
L 567.862546 -301.891131 
L 567.977178 -304.306488 
L 568.086515 -306.721845 
L 568.189704 -309.137203 
L 568.285287 -311.55256 
L 568.372633 -313.967917 
L 568.452719 -316.383275 
L 568.527903 -318.798632 
L 568.600969 -321.213989 
L 568.674067 -323.629347 
L 568.748081 -326.044704 
L 568.822645 -328.460061 
L 568.896654 -330.875419 
L 568.968974 -333.290776 
L 569.039049 -335.706133 
L 569.107242 -338.121491 
L 569.174823 -340.536848 
L 569.243563 -342.952205 
L 569.315 -345.367563 
L 569.389513 -347.78292 
L 569.465588 -350.198277 
L 569.539675 -352.613635 
L 569.606899 -355.028992 
L 569.662502 -357.444349 
L 569.703499 -359.859707 
L 569.729867 -362.275064 
L 569.744818 -364.690421 
L 569.754052 -367.105779 
L 569.764334 -369.521136 
L 569.781868 -371.936493 
L 569.810959 -374.351851 
L 569.853281 -376.767208 
L 569.907872 -379.182565 
L 569.971781 -381.597923 
L 570.041105 -384.01328 
L 570.112063 -386.428637 
L 570.18177 -388.843995 
L 570.248501 -391.259352 
L 570.311463 -393.674709 
L 570.370273 -396.090067 
L 570.424454 -398.505424 
L 570.473217 -400.920781 
L 570.515648 -403.336139 
L 570.551187 -405.751496 
L 570.58011 -408.166853 
L 570.603715 -410.582211 
L 570.624042 -412.997568 
L 570.643239 -415.412925 
L 570.662852 -417.828283 
L 570.909398 -417.828283 
L 570.909398 -417.828283 
L 570.929011 -415.412925 
L 570.948208 -412.997568 
L 570.968535 -410.582211 
L 570.99214 -408.166853 
L 571.021063 -405.751496 
L 571.056602 -403.336139 
L 571.099033 -400.920781 
L 571.147796 -398.505424 
L 571.201977 -396.090067 
L 571.260787 -393.674709 
L 571.323749 -391.259352 
L 571.39048 -388.843995 
L 571.460187 -386.428637 
L 571.531145 -384.01328 
L 571.600469 -381.597923 
L 571.664378 -379.182565 
L 571.718969 -376.767208 
L 571.761291 -374.351851 
L 571.790382 -371.936493 
L 571.807916 -369.521136 
L 571.818198 -367.105779 
L 571.827432 -364.690421 
L 571.842383 -362.275064 
L 571.868751 -359.859707 
L 571.909748 -357.444349 
L 571.965351 -355.028992 
L 572.032575 -352.613635 
L 572.106662 -350.198277 
L 572.182737 -347.78292 
L 572.25725 -345.367563 
L 572.328687 -342.952205 
L 572.397427 -340.536848 
L 572.465008 -338.121491 
L 572.533201 -335.706133 
L 572.603276 -333.290776 
L 572.675596 -330.875419 
L 572.749605 -328.460061 
L 572.824169 -326.044704 
L 572.898183 -323.629347 
L 572.971281 -321.213989 
L 573.044347 -318.798632 
L 573.119531 -316.383275 
L 573.199617 -313.967917 
L 573.286963 -311.55256 
L 573.382546 -309.137203 
L 573.485735 -306.721845 
L 573.595072 -304.306488 
L 573.709704 -301.891131 
L 573.830666 -299.475773 
L 573.96112 -297.060416 
L 574.105266 -294.645059 
L 574.266434 -292.229701 
L 574.445469 -289.814344 
L 574.640457 -287.398987 
L 574.848116 -284.983629 
L 575.066126 -282.568272 
L 575.294989 -280.152915 
L 575.538096 -277.737557 
L 575.799638 -275.3222 
L 576.081344 -272.906843 
L 576.379932 -270.491485 
L 576.687005 -268.076128 
L 576.991893 -265.660771 
L 577.286266 -263.245413 
L 577.568253 -260.830056 
L 577.843967 -258.414699 
L 578.125701 -255.999341 
L 578.42777 -253.583984 
L 578.762028 -251.168627 
L 579.135054 -248.753269 
L 579.54797 -246.337912 
L 579.998629 -243.922555 
L 580.485006 -241.507197 
L 581.008328 -239.09184 
L 581.574712 -236.676483 
L 582.194587 -234.261125 
L 582.880005 -231.845768 
L 583.640815 -229.430411 
L 584.481327 -227.015053 
L 585.399124 -224.599696 
L 586.386788 -222.184339 
L 587.435746 -219.768981 
L 588.540043 -217.353624 
L 589.697315 -214.938267 
L 590.905166 -212.522909 
L 592.153193 -210.107552 
L 593.413032 -207.692195 
L 594.629989 -205.276837 
L 595.719487 -202.86148 
L 596.570156 -200.446123 
L 597.053885 -198.030765 
L 597.042216 -195.615408 
L 596.427836 -193.200051 
L 595.148748 -190.784693 
L 593.21042 -188.369336 
L 590.699028 -185.953979 
L 587.778789 -183.538621 
L 584.670058 -181.123264 
L 581.611654 -178.707907 
z
" style="stroke: #484848; stroke-opacity: 0.9; stroke-width: 1.25"/>
    </defs>
    <g clip-path="url(#p0f0648d915)">
     <use xlink:href="#mcad5087564" x="0" y="482.52025" style="fill: #9fcda9; fill-opacity: 0.9; stroke: #484848; stroke-opacity: 0.9; stroke-width: 1.25"/>
    </g>
   </g>
   <g id="FillBetweenPolyCollection_9">
    <defs>
     <path id="m865fc7c826" d="M 643.58263 -178.222783 
L 629.32842 -178.222783 
L 627.909783 -180.667918 
L 626.488466 -183.113052 
L 625.123277 -185.558186 
L 623.865344 -188.00332 
L 622.752635 -190.448454 
L 621.807312 -192.893589 
L 621.036107 -195.338723 
L 620.433074 -197.783857 
L 619.983595 -200.228991 
L 619.668453 -202.674125 
L 619.467123 -205.11926 
L 619.359986 -207.564394 
L 619.329622 -210.009528 
L 619.361587 -212.454662 
L 619.445005 -214.899796 
L 619.573105 -217.34493 
L 619.743535 -219.790065 
L 619.958189 -222.235199 
L 620.222301 -224.680333 
L 620.542792 -227.125467 
L 620.926078 -229.570601 
L 621.37578 -232.015736 
L 621.890818 -234.46087 
L 622.464339 -236.906004 
L 623.083732 -239.351138 
L 623.731745 -241.796272 
L 624.388489 -244.241406 
L 625.033932 -246.686541 
L 625.650362 -249.131675 
L 626.224333 -251.576809 
L 626.74773 -254.021943 
L 627.217798 -256.467077 
L 627.636264 -258.912212 
L 628.007887 -261.357346 
L 628.338903 -263.80248 
L 628.635776 -266.247614 
L 628.904509 -268.692748 
L 629.150525 -271.137883 
L 629.37889 -273.583017 
L 629.594603 -276.028151 
L 629.802661 -278.473285 
L 630.007793 -280.918419 
L 630.213906 -283.363553 
L 630.423455 -285.808688 
L 630.636963 -288.253822 
L 630.852924 -290.698956 
L 631.068175 -293.14409 
L 631.278716 -295.589224 
L 631.480778 -298.034359 
L 631.671899 -300.479493 
L 631.851669 -302.924627 
L 632.021913 -305.369761 
L 632.186224 -307.814895 
L 632.348934 -310.26003 
L 632.51381 -312.705164 
L 632.682858 -315.150298 
L 632.855579 -317.595432 
L 633.028872 -320.040566 
L 633.197599 -322.4857 
L 633.355605 -324.930835 
L 633.496926 -327.375969 
L 633.616898 -329.821103 
L 633.712975 -332.266237 
L 633.785168 -334.711371 
L 633.836136 -337.156506 
L 633.870956 -339.60164 
L 633.896638 -342.046774 
L 633.921412 -344.491908 
L 633.953796 -346.937042 
L 634.001532 -349.382176 
L 634.070487 -351.827311 
L 634.163728 -354.272445 
L 634.280962 -356.717579 
L 634.418512 -359.162713 
L 634.569881 -361.607847 
L 634.726779 -364.052982 
L 634.880412 -366.498116 
L 635.022734 -368.94325 
L 635.147412 -371.388384 
L 635.250357 -373.833518 
L 635.329815 -376.278653 
L 635.386116 -378.723787 
L 635.421251 -381.168921 
L 635.438411 -383.614055 
L 635.441595 -386.059189 
L 635.435286 -388.504323 
L 635.424176 -390.949458 
L 635.41289 -393.394592 
L 635.405698 -395.839726 
L 635.406241 -398.28486 
L 635.417315 -400.729994 
L 635.440758 -403.175129 
L 635.47745 -405.620263 
L 635.527378 -408.065397 
L 635.589737 -410.510531 
L 635.663 -412.955665 
L 635.744972 -415.400799 
L 635.832844 -417.845934 
L 635.923324 -420.291068 
L 636.987726 -420.291068 
L 636.987726 -420.291068 
L 637.078206 -417.845934 
L 637.166078 -415.400799 
L 637.24805 -412.955665 
L 637.321313 -410.510531 
L 637.383672 -408.065397 
L 637.4336 -405.620263 
L 637.470292 -403.175129 
L 637.493735 -400.729994 
L 637.504809 -398.28486 
L 637.505352 -395.839726 
L 637.49816 -393.394592 
L 637.486874 -390.949458 
L 637.475764 -388.504323 
L 637.469455 -386.059189 
L 637.472639 -383.614055 
L 637.489799 -381.168921 
L 637.524934 -378.723787 
L 637.581235 -376.278653 
L 637.660693 -373.833518 
L 637.763638 -371.388384 
L 637.888316 -368.94325 
L 638.030638 -366.498116 
L 638.184271 -364.052982 
L 638.341169 -361.607847 
L 638.492538 -359.162713 
L 638.630088 -356.717579 
L 638.747322 -354.272445 
L 638.840563 -351.827311 
L 638.909518 -349.382176 
L 638.957254 -346.937042 
L 638.989638 -344.491908 
L 639.014412 -342.046774 
L 639.040094 -339.60164 
L 639.074914 -337.156506 
L 639.125882 -334.711371 
L 639.198075 -332.266237 
L 639.294152 -329.821103 
L 639.414124 -327.375969 
L 639.555445 -324.930835 
L 639.713451 -322.4857 
L 639.882178 -320.040566 
L 640.055471 -317.595432 
L 640.228192 -315.150298 
L 640.39724 -312.705164 
L 640.562116 -310.26003 
L 640.724826 -307.814895 
L 640.889137 -305.369761 
L 641.059381 -302.924627 
L 641.239151 -300.479493 
L 641.430272 -298.034359 
L 641.632334 -295.589224 
L 641.842875 -293.14409 
L 642.058126 -290.698956 
L 642.274087 -288.253822 
L 642.487595 -285.808688 
L 642.697144 -283.363553 
L 642.903257 -280.918419 
L 643.108389 -278.473285 
L 643.316447 -276.028151 
L 643.53216 -273.583017 
L 643.760525 -271.137883 
L 644.006541 -268.692748 
L 644.275274 -266.247614 
L 644.572147 -263.80248 
L 644.903163 -261.357346 
L 645.274786 -258.912212 
L 645.693252 -256.467077 
L 646.16332 -254.021943 
L 646.686717 -251.576809 
L 647.260688 -249.131675 
L 647.877118 -246.686541 
L 648.522561 -244.241406 
L 649.179305 -241.796272 
L 649.827318 -239.351138 
L 650.446711 -236.906004 
L 651.020232 -234.46087 
L 651.53527 -232.015736 
L 651.984972 -229.570601 
L 652.368258 -227.125467 
L 652.688749 -224.680333 
L 652.952861 -222.235199 
L 653.167515 -219.790065 
L 653.337945 -217.34493 
L 653.466045 -214.899796 
L 653.549463 -212.454662 
L 653.581428 -210.009528 
L 653.551064 -207.564394 
L 653.443927 -205.11926 
L 653.242597 -202.674125 
L 652.927455 -200.228991 
L 652.477976 -197.783857 
L 651.874943 -195.338723 
L 651.103738 -192.893589 
L 650.158415 -190.448454 
L 649.045706 -188.00332 
L 647.787773 -185.558186 
L 646.422584 -183.113052 
L 645.001267 -180.667918 
L 643.58263 -178.222783 
z
" style="stroke: #484848; stroke-opacity: 0.9; stroke-width: 1.25"/>
    </defs>
    <g clip-path="url(#p0f0648d915)">
     <use xlink:href="#m865fc7c826" x="0" y="482.52025" style="fill: #67aba2; fill-opacity: 0.9; stroke: #484848; stroke-opacity: 0.9; stroke-width: 1.25"/>
    </g>
   </g>
   <g id="FillBetweenPolyCollection_10">
    <defs>
     <path id="m494cf6a0f3" d="M 708.365914 -179.903004 
L 695.883936 -179.903004 
L 694.866296 -182.27846 
L 693.828133 -184.653916 
L 692.79683 -187.029372 
L 691.799723 -189.404828 
L 690.862139 -191.780284 
L 690.005662 -194.15574 
L 689.246807 -196.531196 
L 688.596236 -198.906652 
L 688.058568 -201.282108 
L 687.632757 -203.657564 
L 687.312933 -206.03302 
L 687.089579 -208.408476 
L 686.950846 -210.783932 
L 686.883866 -213.159388 
L 686.875897 -215.534844 
L 686.91523 -217.9103 
L 686.991815 -220.285756 
L 687.097597 -222.661212 
L 687.226629 -225.036668 
L 687.374997 -227.412124 
L 687.540616 -229.78758 
L 687.722924 -232.163036 
L 687.922516 -234.538492 
L 688.14071 -236.913948 
L 688.379083 -239.289404 
L 688.639001 -241.66486 
L 688.92119 -244.040316 
L 689.225397 -246.415771 
L 689.550205 -248.791227 
L 689.893014 -251.166683 
L 690.250209 -253.542139 
L 690.617485 -255.917595 
L 690.990269 -258.293051 
L 691.364177 -260.668507 
L 691.735421 -263.043963 
L 692.101123 -265.419419 
L 692.459469 -267.794875 
L 692.809725 -270.170331 
L 693.152108 -272.545787 
L 693.487558 -274.921243 
L 693.817467 -277.296699 
L 694.143382 -279.672155 
L 694.466745 -282.047611 
L 694.788657 -284.423067 
L 695.109677 -286.798523 
L 695.429654 -289.173979 
L 695.747597 -291.549435 
L 696.06159 -293.924891 
L 696.368794 -296.300347 
L 696.665566 -298.675803 
L 696.947724 -301.051259 
L 697.210954 -303.426715 
L 697.451339 -305.802171 
L 697.665919 -308.177627 
L 697.853208 -310.553083 
L 698.013543 -312.928539 
L 698.149205 -315.303995 
L 698.26425 -317.679451 
L 698.364086 -320.054907 
L 698.45483 -322.430363 
L 698.542572 -324.805819 
L 698.632654 -327.181275 
L 698.729064 -329.556731 
L 698.834056 -331.932187 
L 698.948008 -334.307643 
L 699.069542 -336.683099 
L 699.195852 -339.058554 
L 699.323189 -341.43401 
L 699.447411 -343.809466 
L 699.564538 -346.184922 
L 699.671246 -348.560378 
L 699.765249 -350.935834 
L 699.845547 -353.31129 
L 699.912525 -355.686746 
L 699.967893 -358.062202 
L 700.014481 -360.437658 
L 700.055904 -362.813114 
L 700.096127 -365.18857 
L 700.138974 -367.564026 
L 700.187647 -369.939482 
L 700.244315 -372.314938 
L 700.30984 -374.690394 
L 700.383697 -377.06585 
L 700.464098 -379.441306 
L 700.548312 -381.816762 
L 700.633139 -384.192218 
L 700.715441 -386.567674 
L 700.792654 -388.94313 
L 700.863193 -391.318586 
L 700.926667 -393.694042 
L 700.983896 -396.069498 
L 701.036713 -398.444954 
L 701.087609 -400.82041 
L 701.139284 -403.195866 
L 701.194192 -405.571322 
L 701.254139 -407.946778 
L 701.320019 -410.322234 
L 701.391705 -412.69769 
L 701.468102 -415.073146 
L 702.781748 -415.073146 
L 702.781748 -415.073146 
L 702.858145 -412.69769 
L 702.929831 -410.322234 
L 702.995711 -407.946778 
L 703.055658 -405.571322 
L 703.110566 -403.195866 
L 703.162241 -400.82041 
L 703.213137 -398.444954 
L 703.265954 -396.069498 
L 703.323183 -393.694042 
L 703.386657 -391.318586 
L 703.457196 -388.94313 
L 703.534409 -386.567674 
L 703.616711 -384.192218 
L 703.701538 -381.816762 
L 703.785752 -379.441306 
L 703.866153 -377.06585 
L 703.94001 -374.690394 
L 704.005535 -372.314938 
L 704.062203 -369.939482 
L 704.110876 -367.564026 
L 704.153723 -365.18857 
L 704.193946 -362.813114 
L 704.235369 -360.437658 
L 704.281957 -358.062202 
L 704.337325 -355.686746 
L 704.404303 -353.31129 
L 704.484601 -350.935834 
L 704.578604 -348.560378 
L 704.685312 -346.184922 
L 704.802439 -343.809466 
L 704.926661 -341.43401 
L 705.053998 -339.058554 
L 705.180308 -336.683099 
L 705.301842 -334.307643 
L 705.415794 -331.932187 
L 705.520786 -329.556731 
L 705.617196 -327.181275 
L 705.707278 -324.805819 
L 705.79502 -322.430363 
L 705.885764 -320.054907 
L 705.9856 -317.679451 
L 706.100645 -315.303995 
L 706.236307 -312.928539 
L 706.396642 -310.553083 
L 706.583931 -308.177627 
L 706.798511 -305.802171 
L 707.038896 -303.426715 
L 707.302126 -301.051259 
L 707.584284 -298.675803 
L 707.881056 -296.300347 
L 708.18826 -293.924891 
L 708.502253 -291.549435 
L 708.820196 -289.173979 
L 709.140173 -286.798523 
L 709.461193 -284.423067 
L 709.783105 -282.047611 
L 710.106468 -279.672155 
L 710.432383 -277.296699 
L 710.762292 -274.921243 
L 711.097742 -272.545787 
L 711.440125 -270.170331 
L 711.790381 -267.794875 
L 712.148727 -265.419419 
L 712.514429 -263.043963 
L 712.885673 -260.668507 
L 713.259581 -258.293051 
L 713.632365 -255.917595 
L 713.999641 -253.542139 
L 714.356836 -251.166683 
L 714.699645 -248.791227 
L 715.024453 -246.415771 
L 715.32866 -244.040316 
L 715.610849 -241.66486 
L 715.870767 -239.289404 
L 716.10914 -236.913948 
L 716.327334 -234.538492 
L 716.526926 -232.163036 
L 716.709234 -229.78758 
L 716.874853 -227.412124 
L 717.023221 -225.036668 
L 717.152253 -222.661212 
L 717.258035 -220.285756 
L 717.33462 -217.9103 
L 717.373953 -215.534844 
L 717.365984 -213.159388 
L 717.299004 -210.783932 
L 717.160271 -208.408476 
L 716.936917 -206.03302 
L 716.617093 -203.657564 
L 716.191282 -201.282108 
L 715.653614 -198.906652 
L 715.003043 -196.531196 
L 714.244188 -194.15574 
L 713.387711 -191.780284 
L 712.450127 -189.404828 
L 711.45302 -187.029372 
L 710.421717 -184.653916 
L 709.383554 -182.27846 
L 708.365914 -179.903004 
z
" style="stroke: #484848; stroke-opacity: 0.9; stroke-width: 1.25"/>
    </defs>
    <g clip-path="url(#p0f0648d915)">
     <use xlink:href="#m494cf6a0f3" x="0" y="482.52025" style="fill: #4780aa; fill-opacity: 0.9; stroke: #484848; stroke-opacity: 0.9; stroke-width: 1.25"/>
    </g>
   </g>
   <g id="line2d_10">
    <path d="M 111.100325 306.155166 
L 111.100325 64.251699 
" clip-path="url(#p0f0648d915)" style="fill: none; stroke: #484848; stroke-width: 1.875; stroke-linecap: round"/>
   </g>
   <g id="line2d_11">
    <path d="M 111.100325 265.910084 
L 111.100325 185.218379 
" clip-path="url(#p0f0648d915)" style="fill: none; stroke: #484848; stroke-width: 5.625; stroke-linecap: round"/>
   </g>
   <g id="line2d_12">
    <path d="M 111.100325 232.757261 
" clip-path="url(#p0f0648d915)" style="fill: none; stroke: #484848; stroke-width: 1.5; stroke-linecap: round"/>
    <defs>
     <path id="mb869ff89e5" d="M 2.34375 0 
L -2.34375 -0 
" style="stroke: #ffffff; stroke-width: 1.125"/>
    </defs>
    <g clip-path="url(#p0f0648d915)">
     <use xlink:href="#mb869ff89e5" x="111.100325" y="232.757261" style="fill: #ffffff; stroke: #ffffff; stroke-width: 1.125"/>
    </g>
   </g>
   <g id="line2d_13">
    <path d="M 176.769725 305.400781 
L 176.769725 111.925526 
" clip-path="url(#p0f0648d915)" style="fill: none; stroke: #484848; stroke-width: 1.875; stroke-linecap: round"/>
   </g>
   <g id="line2d_14">
    <path d="M 176.769725 276.724054 
L 176.769725 210.804329 
" clip-path="url(#p0f0648d915)" style="fill: none; stroke: #484848; stroke-width: 5.625; stroke-linecap: round"/>
   </g>
   <g id="line2d_15">
    <path d="M 176.769725 251.612511 
" clip-path="url(#p0f0648d915)" style="fill: none; stroke: #484848; stroke-width: 1.5; stroke-linecap: round"/>
    <g clip-path="url(#p0f0648d915)">
     <use xlink:href="#mb869ff89e5" x="176.769725" y="251.612511" style="fill: #ffffff; stroke: #ffffff; stroke-width: 1.125"/>
    </g>
   </g>
   <g id="line2d_16">
    <path d="M 242.439125 304.316149 
L 242.439125 61.821801 
" clip-path="url(#p0f0648d915)" style="fill: none; stroke: #484848; stroke-width: 1.875; stroke-linecap: round"/>
   </g>
   <g id="line2d_17">
    <path d="M 242.439125 258.491819 
L 242.439125 168.174623 
" clip-path="url(#p0f0648d915)" style="fill: none; stroke: #484848; stroke-width: 5.625; stroke-linecap: round"/>
   </g>
   <g id="line2d_18">
    <path d="M 242.439125 219.949316 
" clip-path="url(#p0f0648d915)" style="fill: none; stroke: #484848; stroke-width: 1.5; stroke-linecap: round"/>
    <g clip-path="url(#p0f0648d915)">
     <use xlink:href="#mb869ff89e5" x="242.439125" y="219.949316" style="fill: #ffffff; stroke: #ffffff; stroke-width: 1.125"/>
    </g>
   </g>
   <g id="line2d_19">
    <path d="M 308.108525 305.775511 
L 308.108525 71.563374 
" clip-path="url(#p0f0648d915)" style="fill: none; stroke: #484848; stroke-width: 1.875; stroke-linecap: round"/>
   </g>
   <g id="line2d_20">
    <path d="M 308.108525 271.905053 
L 308.108525 191.760008 
" clip-path="url(#p0f0648d915)" style="fill: none; stroke: #484848; stroke-width: 5.625; stroke-linecap: round"/>
   </g>
   <g id="line2d_21">
    <path d="M 308.108525 238.944586 
" clip-path="url(#p0f0648d915)" style="fill: none; stroke: #484848; stroke-width: 1.5; stroke-linecap: round"/>
    <g clip-path="url(#p0f0648d915)">
     <use xlink:href="#mb869ff89e5" x="308.108525" y="238.944586" style="fill: #ffffff; stroke: #ffffff; stroke-width: 1.125"/>
    </g>
   </g>
   <g id="line2d_22">
    <path d="M 373.777925 306.289074 
L 373.777925 85.822504 
" clip-path="url(#p0f0648d915)" style="fill: none; stroke: #484848; stroke-width: 1.875; stroke-linecap: round"/>
   </g>
   <g id="line2d_23">
    <path d="M 373.777925 267.774095 
L 373.777925 194.979026 
" clip-path="url(#p0f0648d915)" style="fill: none; stroke: #484848; stroke-width: 5.625; stroke-linecap: round"/>
   </g>
   <g id="line2d_24">
    <path d="M 373.777925 238.02956 
" clip-path="url(#p0f0648d915)" style="fill: none; stroke: #484848; stroke-width: 1.5; stroke-linecap: round"/>
    <g clip-path="url(#p0f0648d915)">
     <use xlink:href="#mb869ff89e5" x="373.777925" y="238.02956" style="fill: #ffffff; stroke: #ffffff; stroke-width: 1.125"/>
    </g>
   </g>
   <g id="line2d_25">
    <path d="M 439.447325 304.946253 
L 439.447325 99.875188 
" clip-path="url(#p0f0648d915)" style="fill: none; stroke: #484848; stroke-width: 1.875; stroke-linecap: round"/>
   </g>
   <g id="line2d_26">
    <path d="M 439.447325 273.350884 
L 439.447325 203.952359 
" clip-path="url(#p0f0648d915)" style="fill: none; stroke: #484848; stroke-width: 5.625; stroke-linecap: round"/>
   </g>
   <g id="line2d_27">
    <path d="M 439.447325 245.322845 
" clip-path="url(#p0f0648d915)" style="fill: none; stroke: #484848; stroke-width: 1.5; stroke-linecap: round"/>
    <g clip-path="url(#p0f0648d915)">
     <use xlink:href="#mb869ff89e5" x="439.447325" y="245.322845" style="fill: #ffffff; stroke: #ffffff; stroke-width: 1.125"/>
    </g>
   </g>
   <g id="line2d_28">
    <path d="M 505.116725 303.198735 
L 505.116725 148.350218 
" clip-path="url(#p0f0648d915)" style="fill: none; stroke: #484848; stroke-width: 1.875; stroke-linecap: round"/>
   </g>
   <g id="line2d_29">
    <path d="M 505.116725 279.14897 
L 505.116725 226.827616 
" clip-path="url(#p0f0648d915)" style="fill: none; stroke: #484848; stroke-width: 5.625; stroke-linecap: round"/>
   </g>
   <g id="line2d_30">
    <path d="M 505.116725 257.240783 
" clip-path="url(#p0f0648d915)" style="fill: none; stroke: #484848; stroke-width: 1.5; stroke-linecap: round"/>
    <g clip-path="url(#p0f0648d915)">
     <use xlink:href="#mb869ff89e5" x="505.116725" y="257.240783" style="fill: #ffffff; stroke: #ffffff; stroke-width: 1.125"/>
    </g>
   </g>
   <g id="line2d_31">
    <path d="M 570.786125 303.812343 
L 570.786125 159.413089 
" clip-path="url(#p0f0648d915)" style="fill: none; stroke: #484848; stroke-width: 1.875; stroke-linecap: round"/>
   </g>
   <g id="line2d_32">
    <path d="M 570.786125 286.232373 
L 570.786125 235.292668 
" clip-path="url(#p0f0648d915)" style="fill: none; stroke: #484848; stroke-width: 5.625; stroke-linecap: round"/>
   </g>
   <g id="line2d_33">
    <path d="M 570.786125 268.761201 
" clip-path="url(#p0f0648d915)" style="fill: none; stroke: #484848; stroke-width: 1.5; stroke-linecap: round"/>
    <g clip-path="url(#p0f0648d915)">
     <use xlink:href="#mb869ff89e5" x="570.786125" y="268.761201" style="fill: #ffffff; stroke: #ffffff; stroke-width: 1.125"/>
    </g>
   </g>
   <g id="line2d_34">
    <path d="M 636.455525 304.297467 
L 636.455525 115.57139 
" clip-path="url(#p0f0648d915)" style="fill: none; stroke: #484848; stroke-width: 1.875; stroke-linecap: round"/>
   </g>
   <g id="line2d_35">
    <path d="M 636.455525 276.934018 
L 636.455525 212.076979 
" clip-path="url(#p0f0648d915)" style="fill: none; stroke: #484848; stroke-width: 5.625; stroke-linecap: round"/>
   </g>
   <g id="line2d_36">
    <path d="M 636.455525 251.771077 
" clip-path="url(#p0f0648d915)" style="fill: none; stroke: #484848; stroke-width: 1.5; stroke-linecap: round"/>
    <g clip-path="url(#p0f0648d915)">
     <use xlink:href="#mb869ff89e5" x="636.455525" y="251.771077" style="fill: #ffffff; stroke: #ffffff; stroke-width: 1.125"/>
    </g>
   </g>
   <g id="line2d_37">
    <path d="M 702.124925 302.617246 
L 702.124925 103.96178 
" clip-path="url(#p0f0648d915)" style="fill: none; stroke: #484848; stroke-width: 1.875; stroke-linecap: round"/>
   </g>
   <g id="line2d_38">
    <path d="M 702.124925 272.906199 
L 702.124925 205.270078 
" clip-path="url(#p0f0648d915)" style="fill: none; stroke: #484848; stroke-width: 5.625; stroke-linecap: round"/>
   </g>
   <g id="line2d_39">
    <path d="M 702.124925 243.057078 
" clip-path="url(#p0f0648d915)" style="fill: none; stroke: #484848; stroke-width: 1.5; stroke-linecap: round"/>
    <g clip-path="url(#p0f0648d915)">
     <use xlink:href="#mb869ff89e5" x="702.124925" y="243.057078" style="fill: #ffffff; stroke: #ffffff; stroke-width: 1.125"/>
    </g>
   </g>
   <g id="patch_3">
    <path d="M 78.265625 318.512437 
L 78.265625 49.598437 
" style="fill: none; stroke: #cccccc; stroke-width: 1.25; stroke-linejoin: miter; stroke-linecap: square"/>
   </g>
   <g id="patch_4">
    <path d="M 734.959625 318.512437 
L 734.959625 49.598437 
" style="fill: none; stroke: #cccccc; stroke-width: 1.25; stroke-linejoin: miter; stroke-linecap: square"/>
   </g>
   <g id="patch_5">
    <path d="M 78.265625 318.512437 
L 734.959625 318.512437 
" style="fill: none; stroke: #cccccc; stroke-width: 1.25; stroke-linejoin: miter; stroke-linecap: square"/>
   </g>
   <g id="patch_6">
    <path d="M 78.265625 49.598437 
L 734.959625 49.598437 
" style="fill: none; stroke: #cccccc; stroke-width: 1.25; stroke-linejoin: miter; stroke-linecap: square"/>
   </g>
   <g id="text_22">
    <text style="font-size: 10px; font-family: 'Arial', 'DejaVu Sans', 'Liberation Sans', 'Bitstream Vera Sans', sans-serif; text-anchor: middle; fill: #262626" x="406.612625" y="43.598437" transform="rotate(-0 406.612625 43.598437)">Violin Plot of distances by Level Two Cell Type (Density Normalization: area)</text>
   </g>
   <g id="legend_1">
    <g id="patch_7">
     <path d="M 723.959625 62.598437 
L 727.959625 62.598437 
Q 729.959625 62.598437 729.959625 60.598437 
L 729.959625 56.598437 
Q 729.959625 54.598437 727.959625 54.598437 
L 723.959625 54.598437 
Q 721.959625 54.598437 721.959625 56.598437 
L 721.959625 60.598437 
Q 721.959625 62.598437 723.959625 62.598437 
z
" style="fill: #ffffff; opacity: 0.8; stroke: #cccccc; stroke-width: 0.8; stroke-linejoin: miter"/>
    </g>
   </g>
  </g>
 </g>
 <defs>
  <clipPath id="p0f0648d915">
   <rect x="78.265625" y="49.598437" width="656.694" height="268.914"/>
  </clipPath>
 </defs>
</svg>
