<?xml version="1.0" encoding="utf-8" standalone="no"?>
<!DOCTYPE svg PUBLIC "-//W3C//DTD SVG 1.1//EN"
  "http://www.w3.org/Graphics/SVG/1.1/DTD/svg11.dtd">
<svg xmlns:xlink="http://www.w3.org/1999/xlink" width="770.959625pt" height="482.741813pt" viewBox="0 0 770.959625 482.741813" xmlns="http://www.w3.org/2000/svg" version="1.1">
 <metadata>
  <rdf:RDF xmlns:dc="http://purl.org/dc/elements/1.1/" xmlns:cc="http://creativecommons.org/ns#" xmlns:rdf="http://www.w3.org/1999/02/22-rdf-syntax-ns#">
   <cc:Work>
    <dc:type rdf:resource="http://purl.org/dc/dcmitype/StillImage"/>
    <dc:date>2025-07-25T12:43:19.641662</dc:date>
    <dc:format>image/svg+xml</dc:format>
    <dc:creator>
     <cc:Agent>
      <dc:title>Matplotlib v3.10.3, https://matplotlib.org/</dc:title>
     </cc:Agent>
    </dc:creator>
   </cc:Work>
  </rdf:RDF>
 </metadata>
 <defs>
  <style type="text/css">*{stroke-linejoin: round; stroke-linecap: butt}</style>
 </defs>
 <g id="figure_1">
  <g id="patch_1">
   <path d="M 0 482.741813 
L 770.959625 482.741813 
L 770.959625 -0 
L 0 -0 
z
" style="fill: #ffffff"/>
  </g>
  <g id="axes_1">
   <g id="patch_2">
    <path d="M 78.265625 333.182437 
L 734.959625 333.182437 
L 734.959625 49.598438 
L 78.265625 49.598438 
z
" style="fill: #ffffff"/>
   </g>
   <g id="matplotlib.axis_1">
    <g id="xtick_1">
     <g id="text_1">
      <text style="font-size: 10px; font-family: 'Arial', 'DejaVu Sans', 'Liberation Sans', 'Bitstream Vera Sans', sans-serif; fill: #262626" transform="translate(163.11175 404.155875) rotate(-90)">immune cell</text>
     </g>
    </g>
    <g id="xtick_2">
     <g id="text_2">
      <text style="font-size: 10px; font-family: 'Arial', 'DejaVu Sans', 'Liberation Sans', 'Bitstream Vera Sans', sans-serif; fill: #262626" transform="translate(327.28525 408.505875) rotate(-90)">unknown cell</text>
     </g>
    </g>
    <g id="xtick_3">
     <g id="text_3">
      <text style="font-size: 10px; font-family: 'Arial', 'DejaVu Sans', 'Liberation Sans', 'Bitstream Vera Sans', sans-serif; fill: #262626" transform="translate(491.45875 409.2215) rotate(-90)">epithelial cell</text>
     </g>
    </g>
    <g id="xtick_4">
     <g id="text_4">
      <text style="font-size: 10px; font-family: 'Arial', 'DejaVu Sans', 'Liberation Sans', 'Bitstream Vera Sans', sans-serif; fill: #262626" transform="translate(655.63225 433.063688) rotate(-90)">mesenchymal cell</text>
     </g>
    </g>
    <g id="text_5">
     <text style="font-size: 10px; font-family: 'Arial', 'DejaVu Sans', 'Liberation Sans', 'Bitstream Vera Sans', sans-serif; text-anchor: middle; fill: #262626" x="406.612625" y="444.662125" transform="rotate(-0 406.612625 444.662125)">Level One Cell Type</text>
    </g>
   </g>
   <g id="matplotlib.axis_2">
    <g id="ytick_1">
     <g id="line2d_1">
      <path d="M 78.265625 324.88059 
L 734.959625 324.88059 
" clip-path="url(#pe3c312d437)" style="fill: none; stroke: #cccccc; stroke-width: 2; stroke-linecap: round"/>
     </g>
     <g id="text_6">
      <text style="font-size: 10px; font-family: 'Arial', 'DejaVu Sans', 'Liberation Sans', 'Bitstream Vera Sans', sans-serif; text-anchor: end; fill: #262626" x="68.765625" y="328.679809" transform="rotate(-0 68.765625 328.679809)">0</text>
     </g>
    </g>
    <g id="ytick_2">
     <g id="line2d_2">
      <path d="M 78.265625 292.080628 
L 734.959625 292.080628 
" clip-path="url(#pe3c312d437)" style="fill: none; stroke: #cccccc; stroke-width: 2; stroke-linecap: round"/>
     </g>
     <g id="text_7">
      <text style="font-size: 10px; font-family: 'Arial', 'DejaVu Sans', 'Liberation Sans', 'Bitstream Vera Sans', sans-serif; text-anchor: end; fill: #262626" x="68.765625" y="295.879847" transform="rotate(-0 68.765625 295.879847)">25</text>
     </g>
    </g>
    <g id="ytick_3">
     <g id="line2d_3">
      <path d="M 78.265625 259.280666 
L 734.959625 259.280666 
" clip-path="url(#pe3c312d437)" style="fill: none; stroke: #cccccc; stroke-width: 2; stroke-linecap: round"/>
     </g>
     <g id="text_8">
      <text style="font-size: 10px; font-family: 'Arial', 'DejaVu Sans', 'Liberation Sans', 'Bitstream Vera Sans', sans-serif; text-anchor: end; fill: #262626" x="68.765625" y="263.079885" transform="rotate(-0 68.765625 263.079885)">50</text>
     </g>
    </g>
    <g id="ytick_4">
     <g id="line2d_4">
      <path d="M 78.265625 226.480704 
L 734.959625 226.480704 
" clip-path="url(#pe3c312d437)" style="fill: none; stroke: #cccccc; stroke-width: 2; stroke-linecap: round"/>
     </g>
     <g id="text_9">
      <text style="font-size: 10px; font-family: 'Arial', 'DejaVu Sans', 'Liberation Sans', 'Bitstream Vera Sans', sans-serif; text-anchor: end; fill: #262626" x="68.765625" y="230.279923" transform="rotate(-0 68.765625 230.279923)">75</text>
     </g>
    </g>
    <g id="ytick_5">
     <g id="line2d_5">
      <path d="M 78.265625 193.680742 
L 734.959625 193.680742 
" clip-path="url(#pe3c312d437)" style="fill: none; stroke: #cccccc; stroke-width: 2; stroke-linecap: round"/>
     </g>
     <g id="text_10">
      <text style="font-size: 10px; font-family: 'Arial', 'DejaVu Sans', 'Liberation Sans', 'Bitstream Vera Sans', sans-serif; text-anchor: end; fill: #262626" x="68.765625" y="197.479961" transform="rotate(-0 68.765625 197.479961)">100</text>
     </g>
    </g>
    <g id="ytick_6">
     <g id="line2d_6">
      <path d="M 78.265625 160.88078 
L 734.959625 160.88078 
" clip-path="url(#pe3c312d437)" style="fill: none; stroke: #cccccc; stroke-width: 2; stroke-linecap: round"/>
     </g>
     <g id="text_11">
      <text style="font-size: 10px; font-family: 'Arial', 'DejaVu Sans', 'Liberation Sans', 'Bitstream Vera Sans', sans-serif; text-anchor: end; fill: #262626" x="68.765625" y="164.679998" transform="rotate(-0 68.765625 164.679998)">125</text>
     </g>
    </g>
    <g id="ytick_7">
     <g id="line2d_7">
      <path d="M 78.265625 128.080817 
L 734.959625 128.080817 
" clip-path="url(#pe3c312d437)" style="fill: none; stroke: #cccccc; stroke-width: 2; stroke-linecap: round"/>
     </g>
     <g id="text_12">
      <text style="font-size: 10px; font-family: 'Arial', 'DejaVu Sans', 'Liberation Sans', 'Bitstream Vera Sans', sans-serif; text-anchor: end; fill: #262626" x="68.765625" y="131.880036" transform="rotate(-0 68.765625 131.880036)">150</text>
     </g>
    </g>
    <g id="ytick_8">
     <g id="line2d_8">
      <path d="M 78.265625 95.280855 
L 734.959625 95.280855 
" clip-path="url(#pe3c312d437)" style="fill: none; stroke: #cccccc; stroke-width: 2; stroke-linecap: round"/>
     </g>
     <g id="text_13">
      <text style="font-size: 10px; font-family: 'Arial', 'DejaVu Sans', 'Liberation Sans', 'Bitstream Vera Sans', sans-serif; text-anchor: end; fill: #262626" x="68.765625" y="99.080074" transform="rotate(-0 68.765625 99.080074)">175</text>
     </g>
    </g>
    <g id="ytick_9">
     <g id="line2d_9">
      <path d="M 78.265625 62.480893 
L 734.959625 62.480893 
" clip-path="url(#pe3c312d437)" style="fill: none; stroke: #cccccc; stroke-width: 2; stroke-linecap: round"/>
     </g>
     <g id="text_14">
      <text style="font-size: 10px; font-family: 'Arial', 'DejaVu Sans', 'Liberation Sans', 'Bitstream Vera Sans', sans-serif; text-anchor: end; fill: #262626" x="68.765625" y="66.280112" transform="rotate(-0 68.765625 66.280112)">200</text>
     </g>
    </g>
    <g id="text_15">
     <text style="font-size: 10px; font-family: 'Arial', 'DejaVu Sans', 'Liberation Sans', 'Bitstream Vera Sans', sans-serif; text-anchor: middle; fill: #262626" x="43.598437" y="191.390438" transform="rotate(-90 43.598437 191.390438)">Distance (μm)</text>
    </g>
   </g>
   <g id="FillBetweenPolyCollection_1">
    <defs>
     <path id="m7aab1e5543" d="M 166.926848 -162.449557 
L 153.777902 -162.449557 
L 148.422822 -165.053609 
L 141.681409 -167.65766 
L 134.647523 -170.261712 
L 128.443087 -172.865764 
L 123.617636 -175.469816 
L 120.059196 -178.073868 
L 117.364973 -180.677919 
L 115.214237 -183.281971 
L 113.468712 -185.886023 
L 112.095317 -188.490075 
L 111.091731 -191.094127 
L 110.450644 -193.698179 
L 110.120735 -196.30223 
L 109.979591 -198.906282 
L 109.869557 -201.510334 
L 109.688415 -204.114386 
L 109.45939 -206.718438 
L 109.310634 -209.322489 
L 109.371784 -211.926541 
L 109.679396 -214.530593 
L 110.179787 -217.134645 
L 110.810995 -219.738697 
L 111.559894 -222.342748 
L 112.437114 -224.9468 
L 113.422218 -227.550852 
L 114.457746 -230.154904 
L 115.496222 -232.758956 
L 116.540912 -235.363007 
L 117.636045 -237.967059 
L 118.815228 -240.571111 
L 120.055308 -243.175163 
L 121.283561 -245.779215 
L 122.435943 -248.383266 
L 123.505528 -250.987318 
L 124.5312 -253.59137 
L 125.5487 -256.195422 
L 126.563085 -258.799474 
L 127.562622 -261.403526 
L 128.543311 -264.007577 
L 129.514271 -266.611629 
L 130.487244 -269.215681 
L 131.465445 -271.819733 
L 132.434819 -274.423785 
L 133.359912 -277.027836 
L 134.198215 -279.631888 
L 134.933799 -282.23594 
L 135.598242 -284.839992 
L 136.250109 -287.444044 
L 136.931096 -290.048095 
L 137.6431 -292.652147 
L 138.361545 -295.256199 
L 139.061757 -297.860251 
L 139.734261 -300.464303 
L 140.38575 -303.068354 
L 141.030376 -305.672406 
L 141.675326 -308.276458 
L 142.311477 -310.88051 
L 142.920564 -313.484562 
L 143.491235 -316.088614 
L 144.02463 -318.692665 
L 144.528733 -321.296717 
L 145.016599 -323.900769 
L 145.507224 -326.504821 
L 146.014069 -329.108873 
L 146.526806 -331.712924 
L 147.011679 -334.316976 
L 147.438417 -336.921028 
L 147.809293 -339.52508 
L 148.159328 -342.129132 
L 148.526091 -344.733183 
L 148.923199 -347.337235 
L 149.345918 -349.941287 
L 149.792024 -352.545339 
L 150.263317 -355.149391 
L 150.748218 -357.753442 
L 151.214525 -360.357494 
L 151.626031 -362.961546 
L 151.968273 -365.565598 
L 152.259274 -368.16965 
L 152.534124 -370.773701 
L 152.816739 -373.377753 
L 153.10542 -375.981805 
L 153.383423 -378.585857 
L 153.638997 -381.189909 
L 153.874884 -383.793961 
L 154.103422 -386.398012 
L 154.333681 -389.002064 
L 154.560734 -391.606116 
L 154.769832 -394.210168 
L 154.954158 -396.81422 
L 155.124412 -399.418271 
L 155.298534 -402.022323 
L 155.488522 -404.626375 
L 155.703886 -407.230427 
L 155.968963 -409.834479 
L 156.334079 -412.43853 
L 156.857726 -415.042582 
L 157.555515 -417.646634 
L 158.354866 -420.250686 
L 162.349884 -420.250686 
L 162.349884 -420.250686 
L 163.149235 -417.646634 
L 163.847024 -415.042582 
L 164.370671 -412.43853 
L 164.735787 -409.834479 
L 165.000864 -407.230427 
L 165.216228 -404.626375 
L 165.406216 -402.022323 
L 165.580338 -399.418271 
L 165.750592 -396.81422 
L 165.934918 -394.210168 
L 166.144016 -391.606116 
L 166.371069 -389.002064 
L 166.601328 -386.398012 
L 166.829866 -383.793961 
L 167.065753 -381.189909 
L 167.321327 -378.585857 
L 167.59933 -375.981805 
L 167.888011 -373.377753 
L 168.170626 -370.773701 
L 168.445476 -368.16965 
L 168.736477 -365.565598 
L 169.078719 -362.961546 
L 169.490225 -360.357494 
L 169.956532 -357.753442 
L 170.441433 -355.149391 
L 170.912726 -352.545339 
L 171.358832 -349.941287 
L 171.781551 -347.337235 
L 172.178659 -344.733183 
L 172.545422 -342.129132 
L 172.895457 -339.52508 
L 173.266333 -336.921028 
L 173.693071 -334.316976 
L 174.177944 -331.712924 
L 174.690681 -329.108873 
L 175.197526 -326.504821 
L 175.688151 -323.900769 
L 176.176017 -321.296717 
L 176.68012 -318.692665 
L 177.213515 -316.088614 
L 177.784186 -313.484562 
L 178.393273 -310.88051 
L 179.029424 -308.276458 
L 179.674374 -305.672406 
L 180.319 -303.068354 
L 180.970489 -300.464303 
L 181.642993 -297.860251 
L 182.343205 -295.256199 
L 183.06165 -292.652147 
L 183.773654 -290.048095 
L 184.454641 -287.444044 
L 185.106508 -284.839992 
L 185.770951 -282.23594 
L 186.506535 -279.631888 
L 187.344838 -277.027836 
L 188.269931 -274.423785 
L 189.239305 -271.819733 
L 190.217506 -269.215681 
L 191.190479 -266.611629 
L 192.161439 -264.007577 
L 193.142128 -261.403526 
L 194.141665 -258.799474 
L 195.15605 -256.195422 
L 196.17355 -253.59137 
L 197.199222 -250.987318 
L 198.268807 -248.383266 
L 199.421189 -245.779215 
L 200.649442 -243.175163 
L 201.889522 -240.571111 
L 203.068705 -237.967059 
L 204.163838 -235.363007 
L 205.208528 -232.758956 
L 206.247004 -230.154904 
L 207.282532 -227.550852 
L 208.267636 -224.9468 
L 209.144856 -222.342748 
L 209.893755 -219.738697 
L 210.524963 -217.134645 
L 211.025354 -214.530593 
L 211.332966 -211.926541 
L 211.394116 -209.322489 
L 211.24536 -206.718438 
L 211.016335 -204.114386 
L 210.835193 -201.510334 
L 210.725159 -198.906282 
L 210.584015 -196.30223 
L 210.254106 -193.698179 
L 209.613019 -191.094127 
L 208.609433 -188.490075 
L 207.236038 -185.886023 
L 205.490513 -183.281971 
L 203.339777 -180.677919 
L 200.645554 -178.073868 
L 197.087114 -175.469816 
L 192.261663 -172.865764 
L 186.057227 -170.261712 
L 179.023341 -167.65766 
L 172.281928 -165.053609 
L 166.926848 -162.449557 
z
" style="stroke: #595959; stroke-opacity: 0.9; stroke-width: 1.25"/>
    </defs>
    <g clip-path="url(#pe3c312d437)">
     <use xlink:href="#m7aab1e5543" x="0" y="482.741813" style="fill: #de7959; fill-opacity: 0.9; stroke: #595959; stroke-opacity: 0.9; stroke-width: 1.25"/>
    </g>
   </g>
   <g id="FillBetweenPolyCollection_2">
    <defs>
     <path id="m0517fadbfa" d="M 339.558969 -163.386309 
L 309.492781 -163.386309 
L 301.518156 -165.980898 
L 292.55898 -168.575488 
L 283.747089 -171.170078 
L 276.114743 -173.764667 
L 270.2247 -176.359257 
L 266.082533 -178.953847 
L 263.322429 -181.548436 
L 261.486438 -184.143026 
L 260.225408 -186.737616 
L 259.367549 -189.332205 
L 258.891512 -191.926795 
L 258.856475 -194.521385 
L 259.322314 -197.115974 
L 260.283013 -199.710564 
L 261.638037 -202.305154 
L 263.2172 -204.899743 
L 264.847598 -207.494333 
L 266.425168 -210.088923 
L 267.94912 -212.683512 
L 269.497919 -215.278102 
L 271.16022 -217.872692 
L 272.965537 -220.467281 
L 274.862701 -223.061871 
L 276.758876 -225.656461 
L 278.584904 -228.25105 
L 280.336661 -230.84564 
L 282.067049 -233.44023 
L 283.840527 -236.034819 
L 285.682245 -238.629409 
L 287.552068 -241.223999 
L 289.357835 -243.818588 
L 290.999387 -246.413178 
L 292.415512 -249.007768 
L 293.605095 -251.602357 
L 294.614985 -254.196947 
L 295.511787 -256.791537 
L 296.359546 -259.386126 
L 297.20991 -261.980716 
L 298.097715 -264.575306 
L 299.036714 -267.169895 
L 300.018345 -269.764485 
L 301.017305 -272.359075 
L 302.00216 -274.953664 
L 302.945977 -277.548254 
L 303.832792 -280.142844 
L 304.657876 -282.737433 
L 305.423452 -285.332023 
L 306.135274 -287.926613 
L 306.803894 -290.521202 
L 307.447239 -293.115792 
L 308.087713 -295.710382 
L 308.743104 -298.304971 
L 309.41818 -300.899561 
L 310.103207 -303.494151 
L 310.778549 -306.08874 
L 311.420804 -308.68333 
L 312.008633 -311.27792 
L 312.529421 -313.872509 
L 312.98585 -316.467099 
L 313.397469 -319.061689 
L 313.793137 -321.656278 
L 314.196876 -324.250868 
L 314.615845 -326.845458 
L 315.038307 -329.440047 
L 315.442252 -332.034637 
L 315.80832 -334.629227 
L 316.129425 -337.223816 
L 316.413323 -339.818406 
L 316.678461 -342.412996 
L 316.945195 -345.007585 
L 317.225593 -347.602175 
L 317.516636 -350.196765 
L 317.800862 -352.791354 
L 318.054679 -355.385944 
L 318.260509 -357.980534 
L 318.416954 -360.575123 
L 318.541252 -363.169713 
L 318.661487 -365.764303 
L 318.802393 -368.358892 
L 318.973702 -370.953482 
L 319.168412 -373.548072 
L 319.371077 -376.142661 
L 319.569301 -378.737251 
L 319.759892 -381.331841 
L 319.945629 -383.926431 
L 320.126522 -386.52102 
L 320.294504 -389.11561 
L 320.437287 -391.7102 
L 320.548056 -394.304789 
L 320.632165 -396.899379 
L 320.705827 -399.493969 
L 320.789783 -402.088558 
L 320.904464 -404.683148 
L 321.069458 -407.277738 
L 321.30422 -409.872327 
L 321.624728 -412.466917 
L 322.034361 -415.061507 
L 322.513895 -417.656096 
L 323.019393 -420.250686 
L 326.032357 -420.250686 
L 326.032357 -420.250686 
L 326.537855 -417.656096 
L 327.017389 -415.061507 
L 327.427022 -412.466917 
L 327.74753 -409.872327 
L 327.982292 -407.277738 
L 328.147286 -404.683148 
L 328.261967 -402.088558 
L 328.345923 -399.493969 
L 328.419585 -396.899379 
L 328.503694 -394.304789 
L 328.614463 -391.7102 
L 328.757246 -389.11561 
L 328.925228 -386.52102 
L 329.106121 -383.926431 
L 329.291858 -381.331841 
L 329.482449 -378.737251 
L 329.680673 -376.142661 
L 329.883338 -373.548072 
L 330.078048 -370.953482 
L 330.249357 -368.358892 
L 330.390263 -365.764303 
L 330.510498 -363.169713 
L 330.634796 -360.575123 
L 330.791241 -357.980534 
L 330.997071 -355.385944 
L 331.250888 -352.791354 
L 331.535114 -350.196765 
L 331.826157 -347.602175 
L 332.106555 -345.007585 
L 332.373289 -342.412996 
L 332.638427 -339.818406 
L 332.922325 -337.223816 
L 333.24343 -334.629227 
L 333.609498 -332.034637 
L 334.013443 -329.440047 
L 334.435905 -326.845458 
L 334.854874 -324.250868 
L 335.258613 -321.656278 
L 335.654281 -319.061689 
L 336.0659 -316.467099 
L 336.522329 -313.872509 
L 337.043117 -311.27792 
L 337.630946 -308.68333 
L 338.273201 -306.08874 
L 338.948543 -303.494151 
L 339.63357 -300.899561 
L 340.308646 -298.304971 
L 340.964037 -295.710382 
L 341.604511 -293.115792 
L 342.247856 -290.521202 
L 342.916476 -287.926613 
L 343.628298 -285.332023 
L 344.393874 -282.737433 
L 345.218958 -280.142844 
L 346.105773 -277.548254 
L 347.04959 -274.953664 
L 348.034445 -272.359075 
L 349.033405 -269.764485 
L 350.015036 -267.169895 
L 350.954035 -264.575306 
L 351.84184 -261.980716 
L 352.692204 -259.386126 
L 353.539963 -256.791537 
L 354.436765 -254.196947 
L 355.446655 -251.602357 
L 356.636238 -249.007768 
L 358.052363 -246.413178 
L 359.693915 -243.818588 
L 361.499682 -241.223999 
L 363.369505 -238.629409 
L 365.211223 -236.034819 
L 366.984701 -233.44023 
L 368.715089 -230.84564 
L 370.466846 -228.25105 
L 372.292874 -225.656461 
L 374.189049 -223.061871 
L 376.086213 -220.467281 
L 377.89153 -217.872692 
L 379.553831 -215.278102 
L 381.10263 -212.683512 
L 382.626582 -210.088923 
L 384.204152 -207.494333 
L 385.83455 -204.899743 
L 387.413713 -202.305154 
L 388.768737 -199.710564 
L 389.729436 -197.115974 
L 390.195275 -194.521385 
L 390.160238 -191.926795 
L 389.684201 -189.332205 
L 388.826342 -186.737616 
L 387.565312 -184.143026 
L 385.729321 -181.548436 
L 382.969217 -178.953847 
L 378.82705 -176.359257 
L 372.937007 -173.764667 
L 365.304661 -171.170078 
L 356.49277 -168.575488 
L 347.533594 -165.980898 
L 339.558969 -163.386309 
z
" style="stroke: #595959; stroke-opacity: 0.9; stroke-width: 1.25"/>
    </defs>
    <g clip-path="url(#pe3c312d437)">
     <use xlink:href="#m0517fadbfa" x="0" y="482.741813" style="fill: #f0d999; fill-opacity: 0.9; stroke: #595959; stroke-opacity: 0.9; stroke-width: 1.25"/>
    </g>
   </g>
   <g id="FillBetweenPolyCollection_3">
    <defs>
     <path id="m426c57c9c1" d="M 499.654895 -164.53011 
L 477.743855 -164.53011 
L 472.215345 -167.113172 
L 465.94088 -169.696233 
L 459.576669 -172.279295 
L 453.766318 -174.862356 
L 448.946386 -177.445418 
L 445.271162 -180.028479 
L 442.662395 -182.611541 
L 440.918399 -185.194602 
L 439.812968 -187.777663 
L 439.153923 -190.360725 
L 438.804768 -192.943786 
L 438.68164 -195.526848 
L 438.735167 -198.109909 
L 438.927668 -200.692971 
L 439.218238 -203.276032 
L 439.563465 -205.859094 
L 439.930362 -208.442155 
L 440.309833 -211.025216 
L 440.719741 -213.608278 
L 441.19421 -216.191339 
L 441.764508 -218.774401 
L 442.44213 -221.357462 
L 443.214099 -223.940524 
L 444.053401 -226.523585 
L 444.937405 -229.106647 
L 445.860662 -231.689708 
L 446.831865 -234.272769 
L 447.857061 -236.855831 
L 448.923152 -239.438892 
L 449.995996 -242.021954 
L 451.035252 -244.605015 
L 452.014988 -247.188077 
L 452.936031 -249.771138 
L 453.823286 -252.354199 
L 454.711073 -254.937261 
L 455.626023 -257.520322 
L 456.577297 -260.103384 
L 457.557608 -262.686445 
L 458.550075 -265.269507 
L 459.533462 -267.852568 
L 460.48429 -270.43563 
L 461.380339 -273.018691 
L 462.207947 -275.601752 
L 462.968336 -278.184814 
L 463.6764 -280.767875 
L 464.352115 -283.350937 
L 465.011563 -285.933998 
L 465.663241 -288.51706 
L 466.30866 -291.100121 
L 466.943421 -293.683183 
L 467.55849 -296.266244 
L 468.144092 -298.849305 
L 468.695497 -301.432367 
L 469.216026 -304.015428 
L 469.714647 -306.59849 
L 470.20107 -309.181551 
L 470.682373 -311.764613 
L 471.161446 -314.347674 
L 471.635713 -316.930736 
L 472.097163 -319.513797 
L 472.53651 -322.096858 
L 472.950954 -324.67992 
L 473.349636 -327.262981 
L 473.750442 -329.846043 
L 474.168664 -332.429104 
L 474.606119 -335.012166 
L 475.049793 -337.595227 
L 475.480383 -340.178288 
L 475.882311 -342.76135 
L 476.247338 -345.344411 
L 476.572262 -347.927473 
L 476.857155 -350.510534 
L 477.107793 -353.093596 
L 477.338674 -355.676657 
L 477.570468 -358.259719 
L 477.821091 -360.84278 
L 478.096651 -363.425841 
L 478.389498 -366.008903 
L 478.684561 -368.591964 
L 478.96872 -371.175026 
L 479.236895 -373.758087 
L 479.492539 -376.341149 
L 479.743993 -378.92421 
L 479.999056 -381.507272 
L 480.259821 -384.090333 
L 480.520455 -386.673394 
L 480.770297 -389.256456 
L 481.000946 -391.839517 
L 481.211945 -394.422579 
L 481.410508 -397.00564 
L 481.606916 -399.588702 
L 481.812175 -402.171763 
L 482.042554 -404.754825 
L 482.327963 -407.337886 
L 482.714452 -409.920947 
L 483.251704 -412.504009 
L 483.966131 -415.08707 
L 484.833826 -417.670132 
L 485.773894 -420.253193 
L 491.624856 -420.253193 
L 491.624856 -420.253193 
L 492.564924 -417.670132 
L 493.432619 -415.08707 
L 494.147046 -412.504009 
L 494.684298 -409.920947 
L 495.070787 -407.337886 
L 495.356196 -404.754825 
L 495.586575 -402.171763 
L 495.791834 -399.588702 
L 495.988242 -397.00564 
L 496.186805 -394.422579 
L 496.397804 -391.839517 
L 496.628453 -389.256456 
L 496.878295 -386.673394 
L 497.138929 -384.090333 
L 497.399694 -381.507272 
L 497.654757 -378.92421 
L 497.906211 -376.341149 
L 498.161855 -373.758087 
L 498.43003 -371.175026 
L 498.714189 -368.591964 
L 499.009252 -366.008903 
L 499.302099 -363.425841 
L 499.577659 -360.84278 
L 499.828282 -358.259719 
L 500.060076 -355.676657 
L 500.290957 -353.093596 
L 500.541595 -350.510534 
L 500.826488 -347.927473 
L 501.151412 -345.344411 
L 501.516439 -342.76135 
L 501.918367 -340.178288 
L 502.348957 -337.595227 
L 502.792631 -335.012166 
L 503.230086 -332.429104 
L 503.648308 -329.846043 
L 504.049114 -327.262981 
L 504.447796 -324.67992 
L 504.86224 -322.096858 
L 505.301587 -319.513797 
L 505.763037 -316.930736 
L 506.237304 -314.347674 
L 506.716377 -311.764613 
L 507.19768 -309.181551 
L 507.684103 -306.59849 
L 508.182724 -304.015428 
L 508.703253 -301.432367 
L 509.254658 -298.849305 
L 509.84026 -296.266244 
L 510.455329 -293.683183 
L 511.09009 -291.100121 
L 511.735509 -288.51706 
L 512.387187 -285.933998 
L 513.046635 -283.350937 
L 513.72235 -280.767875 
L 514.430414 -278.184814 
L 515.190803 -275.601752 
L 516.018411 -273.018691 
L 516.91446 -270.43563 
L 517.865288 -267.852568 
L 518.848675 -265.269507 
L 519.841142 -262.686445 
L 520.821453 -260.103384 
L 521.772727 -257.520322 
L 522.687677 -254.937261 
L 523.575464 -252.354199 
L 524.462719 -249.771138 
L 525.383762 -247.188077 
L 526.363498 -244.605015 
L 527.402754 -242.021954 
L 528.475598 -239.438892 
L 529.541689 -236.855831 
L 530.566885 -234.272769 
L 531.538088 -231.689708 
L 532.461345 -229.106647 
L 533.345349 -226.523585 
L 534.184651 -223.940524 
L 534.95662 -221.357462 
L 535.634242 -218.774401 
L 536.20454 -216.191339 
L 536.679009 -213.608278 
L 537.088917 -211.025216 
L 537.468388 -208.442155 
L 537.835285 -205.859094 
L 538.180512 -203.276032 
L 538.471082 -200.692971 
L 538.663583 -198.109909 
L 538.71711 -195.526848 
L 538.593982 -192.943786 
L 538.244827 -190.360725 
L 537.585782 -187.777663 
L 536.480351 -185.194602 
L 534.736355 -182.611541 
L 532.127588 -180.028479 
L 528.452364 -177.445418 
L 523.632432 -174.862356 
L 517.822081 -172.279295 
L 511.45787 -169.696233 
L 505.183405 -167.113172 
L 499.654895 -164.53011 
z
" style="stroke: #595959; stroke-opacity: 0.9; stroke-width: 1.25"/>
    </defs>
    <g clip-path="url(#pe3c312d437)">
     <use xlink:href="#m426c57c9c1" x="0" y="482.741813" style="fill: #dee9a4; fill-opacity: 0.9; stroke: #595959; stroke-opacity: 0.9; stroke-width: 1.25"/>
    </g>
   </g>
   <g id="FillBetweenPolyCollection_4">
    <defs>
     <path id="m6512bc6186" d="M 663.019827 -162.991136 
L 642.725923 -162.991136 
L 634.372183 -165.589662 
L 624.298589 -168.188187 
L 614.675564 -170.786713 
L 607.448728 -173.385239 
L 603.243901 -175.983764 
L 601.400887 -178.58229 
L 600.826915 -181.180815 
L 600.719057 -183.779341 
L 600.724156 -186.377867 
L 600.773056 -188.976392 
L 600.907454 -191.574918 
L 601.180703 -194.173443 
L 601.602538 -196.771969 
L 602.129311 -199.370495 
L 602.70321 -201.96902 
L 603.299017 -204.567546 
L 603.932141 -207.166071 
L 604.628198 -209.764597 
L 605.39235 -212.363122 
L 606.204379 -214.961648 
L 607.031896 -217.560174 
L 607.849155 -220.158699 
L 608.654593 -222.757225 
L 609.468695 -225.35575 
L 610.303956 -227.954276 
L 611.14248 -230.552802 
L 611.9599 -233.151327 
L 612.767033 -235.749853 
L 613.606001 -238.348378 
L 614.503038 -240.946904 
L 615.441415 -243.54543 
L 616.384061 -246.143955 
L 617.312659 -248.742481 
L 618.239513 -251.341006 
L 619.185036 -253.939532 
L 620.15365 -256.538057 
L 621.136908 -259.136583 
L 622.125768 -261.735109 
L 623.103605 -264.333634 
L 624.040136 -266.93216 
L 624.913509 -269.530685 
L 625.730692 -272.129211 
L 626.50912 -274.727737 
L 627.24488 -277.326262 
L 627.916829 -279.924788 
L 628.52725 -282.523313 
L 629.127731 -285.121839 
L 629.787663 -287.720365 
L 630.53038 -290.31889 
L 631.308633 -292.917416 
L 632.04654 -295.515941 
L 632.699968 -298.114467 
L 633.281768 -300.712993 
L 633.84335 -303.311518 
L 634.432221 -305.910044 
L 635.054937 -308.508569 
L 635.675296 -311.107095 
L 636.2501 -313.70562 
L 636.767139 -316.304146 
L 637.250888 -318.902672 
L 637.737382 -321.501197 
L 638.243672 -324.099723 
L 638.754672 -326.698248 
L 639.236112 -329.296774 
L 639.662239 -331.8953 
L 640.034006 -334.493825 
L 640.375419 -337.092351 
L 640.71615 -339.690876 
L 641.073532 -342.289402 
L 641.444841 -344.887928 
L 641.815815 -347.486453 
L 642.174653 -350.084979 
L 642.51509 -352.683504 
L 642.832574 -355.28203 
L 643.127421 -357.880555 
L 643.411217 -360.479081 
L 643.704638 -363.077607 
L 644.028081 -365.676132 
L 644.390831 -368.274658 
L 644.780087 -370.873183 
L 645.159479 -373.471709 
L 645.488683 -376.070235 
L 645.752636 -378.66876 
L 645.971931 -381.267286 
L 646.182201 -383.865811 
L 646.402241 -386.464337 
L 646.623981 -389.062863 
L 646.833317 -391.661388 
L 647.032865 -394.259914 
L 647.237267 -396.858439 
L 647.450962 -399.456965 
L 647.659807 -402.055491 
L 647.844938 -404.654016 
L 648.003196 -407.252542 
L 648.166677 -409.851067 
L 648.41847 -412.449593 
L 648.874297 -415.048118 
L 649.600905 -417.646644 
L 650.523942 -420.24517 
L 655.221808 -420.24517 
L 655.221808 -420.24517 
L 656.144845 -417.646644 
L 656.871453 -415.048118 
L 657.32728 -412.449593 
L 657.579073 -409.851067 
L 657.742554 -407.252542 
L 657.900812 -404.654016 
L 658.085943 -402.055491 
L 658.294788 -399.456965 
L 658.508483 -396.858439 
L 658.712885 -394.259914 
L 658.912433 -391.661388 
L 659.121769 -389.062863 
L 659.343509 -386.464337 
L 659.563549 -383.865811 
L 659.773819 -381.267286 
L 659.993114 -378.66876 
L 660.257067 -376.070235 
L 660.586271 -373.471709 
L 660.965663 -370.873183 
L 661.354919 -368.274658 
L 661.717669 -365.676132 
L 662.041112 -363.077607 
L 662.334533 -360.479081 
L 662.618329 -357.880555 
L 662.913176 -355.28203 
L 663.23066 -352.683504 
L 663.571097 -350.084979 
L 663.929935 -347.486453 
L 664.300909 -344.887928 
L 664.672218 -342.289402 
L 665.0296 -339.690876 
L 665.370331 -337.092351 
L 665.711744 -334.493825 
L 666.083511 -331.8953 
L 666.509638 -329.296774 
L 666.991078 -326.698248 
L 667.502078 -324.099723 
L 668.008368 -321.501197 
L 668.494862 -318.902672 
L 668.978611 -316.304146 
L 669.49565 -313.70562 
L 670.070454 -311.107095 
L 670.690813 -308.508569 
L 671.313529 -305.910044 
L 671.9024 -303.311518 
L 672.463982 -300.712993 
L 673.045782 -298.114467 
L 673.69921 -295.515941 
L 674.437117 -292.917416 
L 675.21537 -290.31889 
L 675.958087 -287.720365 
L 676.618019 -285.121839 
L 677.2185 -282.523313 
L 677.828921 -279.924788 
L 678.50087 -277.326262 
L 679.23663 -274.727737 
L 680.015058 -272.129211 
L 680.832241 -269.530685 
L 681.705614 -266.93216 
L 682.642145 -264.333634 
L 683.619982 -261.735109 
L 684.608842 -259.136583 
L 685.5921 -256.538057 
L 686.560714 -253.939532 
L 687.506237 -251.341006 
L 688.433091 -248.742481 
L 689.361689 -246.143955 
L 690.304335 -243.54543 
L 691.242712 -240.946904 
L 692.139749 -238.348378 
L 692.978717 -235.749853 
L 693.78585 -233.151327 
L 694.60327 -230.552802 
L 695.441794 -227.954276 
L 696.277055 -225.35575 
L 697.091157 -222.757225 
L 697.896595 -220.158699 
L 698.713854 -217.560174 
L 699.541371 -214.961648 
L 700.3534 -212.363122 
L 701.117552 -209.764597 
L 701.813609 -207.166071 
L 702.446733 -204.567546 
L 703.04254 -201.96902 
L 703.616439 -199.370495 
L 704.143212 -196.771969 
L 704.565047 -194.173443 
L 704.838296 -191.574918 
L 704.972694 -188.976392 
L 705.021594 -186.377867 
L 705.026693 -183.779341 
L 704.918835 -181.180815 
L 704.344863 -178.58229 
L 702.501849 -175.983764 
L 698.297022 -173.385239 
L 691.070186 -170.786713 
L 681.447161 -168.188187 
L 671.373567 -165.589662 
L 663.019827 -162.991136 
z
" style="stroke: #595959; stroke-opacity: 0.9; stroke-width: 1.25"/>
    </defs>
    <g clip-path="url(#pe3c312d437)">
     <use xlink:href="#m6512bc6186" x="0" y="482.741813" style="fill: #72b6a1; fill-opacity: 0.9; stroke: #595959; stroke-opacity: 0.9; stroke-width: 1.25"/>
    </g>
   </g>
   <g id="line2d_10">
    <path d="M 160.352375 320.292256 
L 160.352375 78.054946 
" clip-path="url(#pe3c312d437)" style="fill: none; stroke: #595959; stroke-width: 1.875; stroke-linecap: round"/>
   </g>
   <g id="line2d_11">
    <path d="M 160.352375 279.571512 
L 160.352375 198.959224 
" clip-path="url(#pe3c312d437)" style="fill: none; stroke: #595959; stroke-width: 5.625; stroke-linecap: round"/>
   </g>
   <g id="line2d_12">
    <path d="M 160.352375 246.737331 
" clip-path="url(#pe3c312d437)" style="fill: none; stroke: #595959; stroke-width: 1.5; stroke-linecap: round"/>
    <defs>
     <path id="m3d254ed63e" d="M 2.34375 0 
L -2.34375 -0 
" style="stroke: #ffffff; stroke-width: 1.125"/>
    </defs>
    <g clip-path="url(#pe3c312d437)">
     <use xlink:href="#m3d254ed63e" x="160.352375" y="246.737331" style="fill: #ffffff; stroke: #ffffff; stroke-width: 1.125"/>
    </g>
   </g>
   <g id="line2d_13">
    <path d="M 324.525875 319.355504 
L 324.525875 115.325641 
" clip-path="url(#pe3c312d437)" style="fill: none; stroke: #595959; stroke-width: 1.875; stroke-linecap: round"/>
   </g>
   <g id="line2d_14">
    <path d="M 324.525875 289.114382 
L 324.525875 219.598555 
" clip-path="url(#pe3c312d437)" style="fill: none; stroke: #595959; stroke-width: 5.625; stroke-linecap: round"/>
   </g>
   <g id="line2d_15">
    <path d="M 324.525875 262.632935 
" clip-path="url(#pe3c312d437)" style="fill: none; stroke: #595959; stroke-width: 1.5; stroke-linecap: round"/>
    <g clip-path="url(#pe3c312d437)">
     <use xlink:href="#m3d254ed63e" x="324.525875" y="262.632935" style="fill: #ffffff; stroke: #ffffff; stroke-width: 1.125"/>
    </g>
   </g>
   <g id="line2d_16">
    <path d="M 488.699375 318.211702 
L 488.699375 62.713371 
" clip-path="url(#pe3c312d437)" style="fill: none; stroke: #595959; stroke-width: 1.875; stroke-linecap: round"/>
   </g>
   <g id="line2d_17">
    <path d="M 488.699375 279.839477 
L 488.699375 192.98592 
" clip-path="url(#pe3c312d437)" style="fill: none; stroke: #595959; stroke-width: 5.625; stroke-linecap: round"/>
   </g>
   <g id="line2d_18">
    <path d="M 488.699375 245.087749 
" clip-path="url(#pe3c312d437)" style="fill: none; stroke: #595959; stroke-width: 1.5; stroke-linecap: round"/>
    <g clip-path="url(#pe3c312d437)">
     <use xlink:href="#m3d254ed63e" x="488.699375" y="245.087749" style="fill: #ffffff; stroke: #ffffff; stroke-width: 1.125"/>
    </g>
   </g>
   <g id="line2d_19">
    <path d="M 652.872875 319.750676 
L 652.872875 73.615325 
" clip-path="url(#pe3c312d437)" style="fill: none; stroke: #595959; stroke-width: 1.875; stroke-linecap: round"/>
   </g>
   <g id="line2d_20">
    <path d="M 652.872875 284.448535 
L 652.872875 200.113951 
" clip-path="url(#pe3c312d437)" style="fill: none; stroke: #595959; stroke-width: 5.625; stroke-linecap: round"/>
   </g>
   <g id="line2d_21">
    <path d="M 652.872875 249.792596 
" clip-path="url(#pe3c312d437)" style="fill: none; stroke: #595959; stroke-width: 1.5; stroke-linecap: round"/>
    <g clip-path="url(#pe3c312d437)">
     <use xlink:href="#m3d254ed63e" x="652.872875" y="249.792596" style="fill: #ffffff; stroke: #ffffff; stroke-width: 1.125"/>
    </g>
   </g>
   <g id="patch_3">
    <path d="M 78.265625 333.182438 
L 78.265625 49.598438 
" style="fill: none; stroke: #cccccc; stroke-width: 1.25; stroke-linejoin: miter; stroke-linecap: square"/>
   </g>
   <g id="patch_4">
    <path d="M 734.959625 333.182438 
L 734.959625 49.598438 
" style="fill: none; stroke: #cccccc; stroke-width: 1.25; stroke-linejoin: miter; stroke-linecap: square"/>
   </g>
   <g id="patch_5">
    <path d="M 78.265625 333.182437 
L 734.959625 333.182437 
" style="fill: none; stroke: #cccccc; stroke-width: 1.25; stroke-linejoin: miter; stroke-linecap: square"/>
   </g>
   <g id="patch_6">
    <path d="M 78.265625 49.598438 
L 734.959625 49.598438 
" style="fill: none; stroke: #cccccc; stroke-width: 1.25; stroke-linejoin: miter; stroke-linecap: square"/>
   </g>
   <g id="text_16">
    <text style="font-size: 10px; font-family: 'Arial', 'DejaVu Sans', 'Liberation Sans', 'Bitstream Vera Sans', sans-serif; text-anchor: middle; fill: #262626" x="406.612625" y="43.598438" transform="rotate(-0 406.612625 43.598438)">Violin Plot of distances by Level One Cell Type (Density Normalization: area)</text>
   </g>
   <g id="legend_1">
    <g id="patch_7">
     <path d="M 723.959625 62.598438 
L 727.959625 62.598438 
Q 729.959625 62.598438 729.959625 60.598438 
L 729.959625 56.598438 
Q 729.959625 54.598438 727.959625 54.598438 
L 723.959625 54.598438 
Q 721.959625 54.598438 721.959625 56.598438 
L 721.959625 60.598438 
Q 721.959625 62.598438 723.959625 62.598438 
z
" style="fill: #ffffff; opacity: 0.8; stroke: #cccccc; stroke-width: 0.8; stroke-linejoin: miter"/>
    </g>
   </g>
  </g>
 </g>
 <defs>
  <clipPath id="pe3c312d437">
   <rect x="78.265625" y="49.598438" width="656.694" height="283.584"/>
  </clipPath>
 </defs>
</svg>
