<?xml version="1.0" encoding="utf-8" standalone="no"?>
<!DOCTYPE svg PUBLIC "-//W3C//DTD SVG 1.1//EN"
  "http://www.w3.org/Graphics/SVG/1.1/DTD/svg11.dtd">
<svg xmlns:xlink="http://www.w3.org/1999/xlink" width="770.959625pt" height="410.417438pt" viewBox="0 0 770.959625 410.417438" xmlns="http://www.w3.org/2000/svg" version="1.1">
 <metadata>
  <rdf:RDF xmlns:dc="http://purl.org/dc/elements/1.1/" xmlns:cc="http://creativecommons.org/ns#" xmlns:rdf="http://www.w3.org/1999/02/22-rdf-syntax-ns#">
   <cc:Work>
    <dc:type rdf:resource="http://purl.org/dc/dcmitype/StillImage"/>
    <dc:date>2025-07-01T15:29:07.755890</dc:date>
    <dc:format>image/svg+xml</dc:format>
    <dc:creator>
     <cc:Agent>
      <dc:title>Matplotlib v3.10.3, https://matplotlib.org/</dc:title>
     </cc:Agent>
    </dc:creator>
   </cc:Work>
  </rdf:RDF>
 </metadata>
 <defs>
  <style type="text/css">*{stroke-linejoin: round; stroke-linecap: butt}</style>
 </defs>
 <g id="figure_1">
  <g id="patch_1">
   <path d="M 0 410.417438 
L 770.959625 410.417438 
L 770.959625 0 
L 0 0 
z
" style="fill: #ffffff"/>
  </g>
  <g id="axes_1">
   <g id="patch_2">
    <path d="M 78.265625 247.142437 
L 734.959625 247.142437 
L 734.959625 49.598437 
L 78.265625 49.598437 
z
" style="fill: #ffffff"/>
   </g>
   <g id="matplotlib.axis_1">
    <g id="xtick_1">
     <g id="text_1">
      <!-- unknown cell -->
      <g style="fill: #262626" transform="translate(190.474 322.465875) rotate(-90) scale(0.1 -0.1)">
       <defs>
        <path id="DejaVuSans-75" d="M 544 1381 
L 544 3500 
L 1119 3500 
L 1119 1403 
Q 1119 906 1312 657 
Q 1506 409 1894 409 
Q 2359 409 2629 706 
Q 2900 1003 2900 1516 
L 2900 3500 
L 3475 3500 
L 3475 0 
L 2900 0 
L 2900 538 
Q 2691 219 2414 64 
Q 2138 -91 1772 -91 
Q 1169 -91 856 284 
Q 544 659 544 1381 
z
M 1991 3584 
L 1991 3584 
z
" transform="scale(0.015625)"/>
        <path id="DejaVuSans-6e" d="M 3513 2113 
L 3513 0 
L 2938 0 
L 2938 2094 
Q 2938 2591 2744 2837 
Q 2550 3084 2163 3084 
Q 1697 3084 1428 2787 
Q 1159 2491 1159 1978 
L 1159 0 
L 581 0 
L 581 3500 
L 1159 3500 
L 1159 2956 
Q 1366 3272 1645 3428 
Q 1925 3584 2291 3584 
Q 2894 3584 3203 3211 
Q 3513 2838 3513 2113 
z
" transform="scale(0.015625)"/>
        <path id="DejaVuSans-6b" d="M 581 4863 
L 1159 4863 
L 1159 1991 
L 2875 3500 
L 3609 3500 
L 1753 1863 
L 3688 0 
L 2938 0 
L 1159 1709 
L 1159 0 
L 581 0 
L 581 4863 
z
" transform="scale(0.015625)"/>
        <path id="DejaVuSans-6f" d="M 1959 3097 
Q 1497 3097 1228 2736 
Q 959 2375 959 1747 
Q 959 1119 1226 758 
Q 1494 397 1959 397 
Q 2419 397 2687 759 
Q 2956 1122 2956 1747 
Q 2956 2369 2687 2733 
Q 2419 3097 1959 3097 
z
M 1959 3584 
Q 2709 3584 3137 3096 
Q 3566 2609 3566 1747 
Q 3566 888 3137 398 
Q 2709 -91 1959 -91 
Q 1206 -91 779 398 
Q 353 888 353 1747 
Q 353 2609 779 3096 
Q 1206 3584 1959 3584 
z
" transform="scale(0.015625)"/>
        <path id="DejaVuSans-77" d="M 269 3500 
L 844 3500 
L 1563 769 
L 2278 3500 
L 2956 3500 
L 3675 769 
L 4391 3500 
L 4966 3500 
L 4050 0 
L 3372 0 
L 2619 2869 
L 1863 0 
L 1184 0 
L 269 3500 
z
" transform="scale(0.015625)"/>
        <path id="DejaVuSans-20" transform="scale(0.015625)"/>
        <path id="DejaVuSans-63" d="M 3122 3366 
L 3122 2828 
Q 2878 2963 2633 3030 
Q 2388 3097 2138 3097 
Q 1578 3097 1268 2742 
Q 959 2388 959 1747 
Q 959 1106 1268 751 
Q 1578 397 2138 397 
Q 2388 397 2633 464 
Q 2878 531 3122 666 
L 3122 134 
Q 2881 22 2623 -34 
Q 2366 -91 2075 -91 
Q 1284 -91 818 406 
Q 353 903 353 1747 
Q 353 2603 823 3093 
Q 1294 3584 2113 3584 
Q 2378 3584 2631 3529 
Q 2884 3475 3122 3366 
z
" transform="scale(0.015625)"/>
        <path id="DejaVuSans-65" d="M 3597 1894 
L 3597 1613 
L 953 1613 
Q 991 1019 1311 708 
Q 1631 397 2203 397 
Q 2534 397 2845 478 
Q 3156 559 3463 722 
L 3463 178 
Q 3153 47 2828 -22 
Q 2503 -91 2169 -91 
Q 1331 -91 842 396 
Q 353 884 353 1716 
Q 353 2575 817 3079 
Q 1281 3584 2069 3584 
Q 2775 3584 3186 3129 
Q 3597 2675 3597 1894 
z
M 3022 2063 
Q 3016 2534 2758 2815 
Q 2500 3097 2075 3097 
Q 1594 3097 1305 2825 
Q 1016 2553 972 2059 
L 3022 2063 
z
" transform="scale(0.015625)"/>
        <path id="DejaVuSans-6c" d="M 603 4863 
L 1178 4863 
L 1178 0 
L 603 0 
L 603 4863 
z
" transform="scale(0.015625)"/>
       </defs>
       <use xlink:href="#DejaVuSans-75"/>
       <use xlink:href="#DejaVuSans-6e" transform="translate(63.378906 0)"/>
       <use xlink:href="#DejaVuSans-6b" transform="translate(126.757812 0)"/>
       <use xlink:href="#DejaVuSans-6e" transform="translate(184.667969 0)"/>
       <use xlink:href="#DejaVuSans-6f" transform="translate(248.046875 0)"/>
       <use xlink:href="#DejaVuSans-77" transform="translate(309.228516 0)"/>
       <use xlink:href="#DejaVuSans-6e" transform="translate(391.015625 0)"/>
       <use xlink:href="#DejaVuSans-20" transform="translate(454.394531 0)"/>
       <use xlink:href="#DejaVuSans-63" transform="translate(486.181641 0)"/>
       <use xlink:href="#DejaVuSans-65" transform="translate(541.162109 0)"/>
       <use xlink:href="#DejaVuSans-6c" transform="translate(602.685547 0)"/>
       <use xlink:href="#DejaVuSans-6c" transform="translate(630.46875 0)"/>
      </g>
     </g>
    </g>
    <g id="xtick_2">
     <g id="text_2">
      <!-- epithelial cell:ductal  -->
      <g style="fill: #262626" transform="translate(409.372 360.739312) rotate(-90) scale(0.1 -0.1)">
       <defs>
        <path id="DejaVuSans-70" d="M 1159 525 
L 1159 -1331 
L 581 -1331 
L 581 3500 
L 1159 3500 
L 1159 2969 
Q 1341 3281 1617 3432 
Q 1894 3584 2278 3584 
Q 2916 3584 3314 3078 
Q 3713 2572 3713 1747 
Q 3713 922 3314 415 
Q 2916 -91 2278 -91 
Q 1894 -91 1617 61 
Q 1341 213 1159 525 
z
M 3116 1747 
Q 3116 2381 2855 2742 
Q 2594 3103 2138 3103 
Q 1681 3103 1420 2742 
Q 1159 2381 1159 1747 
Q 1159 1113 1420 752 
Q 1681 391 2138 391 
Q 2594 391 2855 752 
Q 3116 1113 3116 1747 
z
" transform="scale(0.015625)"/>
        <path id="DejaVuSans-69" d="M 603 3500 
L 1178 3500 
L 1178 0 
L 603 0 
L 603 3500 
z
M 603 4863 
L 1178 4863 
L 1178 4134 
L 603 4134 
L 603 4863 
z
" transform="scale(0.015625)"/>
        <path id="DejaVuSans-74" d="M 1172 4494 
L 1172 3500 
L 2356 3500 
L 2356 3053 
L 1172 3053 
L 1172 1153 
Q 1172 725 1289 603 
Q 1406 481 1766 481 
L 2356 481 
L 2356 0 
L 1766 0 
Q 1100 0 847 248 
Q 594 497 594 1153 
L 594 3053 
L 172 3053 
L 172 3500 
L 594 3500 
L 594 4494 
L 1172 4494 
z
" transform="scale(0.015625)"/>
        <path id="DejaVuSans-68" d="M 3513 2113 
L 3513 0 
L 2938 0 
L 2938 2094 
Q 2938 2591 2744 2837 
Q 2550 3084 2163 3084 
Q 1697 3084 1428 2787 
Q 1159 2491 1159 1978 
L 1159 0 
L 581 0 
L 581 4863 
L 1159 4863 
L 1159 2956 
Q 1366 3272 1645 3428 
Q 1925 3584 2291 3584 
Q 2894 3584 3203 3211 
Q 3513 2838 3513 2113 
z
" transform="scale(0.015625)"/>
        <path id="DejaVuSans-61" d="M 2194 1759 
Q 1497 1759 1228 1600 
Q 959 1441 959 1056 
Q 959 750 1161 570 
Q 1363 391 1709 391 
Q 2188 391 2477 730 
Q 2766 1069 2766 1631 
L 2766 1759 
L 2194 1759 
z
M 3341 1997 
L 3341 0 
L 2766 0 
L 2766 531 
Q 2569 213 2275 61 
Q 1981 -91 1556 -91 
Q 1019 -91 701 211 
Q 384 513 384 1019 
Q 384 1609 779 1909 
Q 1175 2209 1959 2209 
L 2766 2209 
L 2766 2266 
Q 2766 2663 2505 2880 
Q 2244 3097 1772 3097 
Q 1472 3097 1187 3025 
Q 903 2953 641 2809 
L 641 3341 
Q 956 3463 1253 3523 
Q 1550 3584 1831 3584 
Q 2591 3584 2966 3190 
Q 3341 2797 3341 1997 
z
" transform="scale(0.015625)"/>
        <path id="DejaVuSans-3a" d="M 750 794 
L 1409 794 
L 1409 0 
L 750 0 
L 750 794 
z
M 750 3309 
L 1409 3309 
L 1409 2516 
L 750 2516 
L 750 3309 
z
" transform="scale(0.015625)"/>
        <path id="DejaVuSans-64" d="M 2906 2969 
L 2906 4863 
L 3481 4863 
L 3481 0 
L 2906 0 
L 2906 525 
Q 2725 213 2448 61 
Q 2172 -91 1784 -91 
Q 1150 -91 751 415 
Q 353 922 353 1747 
Q 353 2572 751 3078 
Q 1150 3584 1784 3584 
Q 2172 3584 2448 3432 
Q 2725 3281 2906 2969 
z
M 947 1747 
Q 947 1113 1208 752 
Q 1469 391 1925 391 
Q 2381 391 2643 752 
Q 2906 1113 2906 1747 
Q 2906 2381 2643 2742 
Q 2381 3103 1925 3103 
Q 1469 3103 1208 2742 
Q 947 2381 947 1747 
z
" transform="scale(0.015625)"/>
       </defs>
       <use xlink:href="#DejaVuSans-65"/>
       <use xlink:href="#DejaVuSans-70" transform="translate(61.523438 0)"/>
       <use xlink:href="#DejaVuSans-69" transform="translate(125 0)"/>
       <use xlink:href="#DejaVuSans-74" transform="translate(152.783203 0)"/>
       <use xlink:href="#DejaVuSans-68" transform="translate(191.992188 0)"/>
       <use xlink:href="#DejaVuSans-65" transform="translate(255.371094 0)"/>
       <use xlink:href="#DejaVuSans-6c" transform="translate(316.894531 0)"/>
       <use xlink:href="#DejaVuSans-69" transform="translate(344.677734 0)"/>
       <use xlink:href="#DejaVuSans-61" transform="translate(372.460938 0)"/>
       <use xlink:href="#DejaVuSans-6c" transform="translate(433.740234 0)"/>
       <use xlink:href="#DejaVuSans-20" transform="translate(461.523438 0)"/>
       <use xlink:href="#DejaVuSans-63" transform="translate(493.310547 0)"/>
       <use xlink:href="#DejaVuSans-65" transform="translate(548.291016 0)"/>
       <use xlink:href="#DejaVuSans-6c" transform="translate(609.814453 0)"/>
       <use xlink:href="#DejaVuSans-6c" transform="translate(637.597656 0)"/>
       <use xlink:href="#DejaVuSans-3a" transform="translate(665.380859 0)"/>
       <use xlink:href="#DejaVuSans-64" transform="translate(699.072266 0)"/>
       <use xlink:href="#DejaVuSans-75" transform="translate(762.548828 0)"/>
       <use xlink:href="#DejaVuSans-63" transform="translate(825.927734 0)"/>
       <use xlink:href="#DejaVuSans-74" transform="translate(880.908203 0)"/>
       <use xlink:href="#DejaVuSans-61" transform="translate(920.117188 0)"/>
       <use xlink:href="#DejaVuSans-6c" transform="translate(981.396484 0)"/>
       <use xlink:href="#DejaVuSans-20" transform="translate(1009.179688 0)"/>
      </g>
     </g>
    </g>
    <g id="xtick_3">
     <g id="text_3">
      <!-- beta cell:pancreatic -->
      <g style="fill: #262626" transform="translate(628.27 355.623688) rotate(-90) scale(0.1 -0.1)">
       <defs>
        <path id="DejaVuSans-62" d="M 3116 1747 
Q 3116 2381 2855 2742 
Q 2594 3103 2138 3103 
Q 1681 3103 1420 2742 
Q 1159 2381 1159 1747 
Q 1159 1113 1420 752 
Q 1681 391 2138 391 
Q 2594 391 2855 752 
Q 3116 1113 3116 1747 
z
M 1159 2969 
Q 1341 3281 1617 3432 
Q 1894 3584 2278 3584 
Q 2916 3584 3314 3078 
Q 3713 2572 3713 1747 
Q 3713 922 3314 415 
Q 2916 -91 2278 -91 
Q 1894 -91 1617 61 
Q 1341 213 1159 525 
L 1159 0 
L 581 0 
L 581 4863 
L 1159 4863 
L 1159 2969 
z
" transform="scale(0.015625)"/>
        <path id="DejaVuSans-72" d="M 2631 2963 
Q 2534 3019 2420 3045 
Q 2306 3072 2169 3072 
Q 1681 3072 1420 2755 
Q 1159 2438 1159 1844 
L 1159 0 
L 581 0 
L 581 3500 
L 1159 3500 
L 1159 2956 
Q 1341 3275 1631 3429 
Q 1922 3584 2338 3584 
Q 2397 3584 2469 3576 
Q 2541 3569 2628 3553 
L 2631 2963 
z
" transform="scale(0.015625)"/>
       </defs>
       <use xlink:href="#DejaVuSans-62"/>
       <use xlink:href="#DejaVuSans-65" transform="translate(63.476562 0)"/>
       <use xlink:href="#DejaVuSans-74" transform="translate(125 0)"/>
       <use xlink:href="#DejaVuSans-61" transform="translate(164.208984 0)"/>
       <use xlink:href="#DejaVuSans-20" transform="translate(225.488281 0)"/>
       <use xlink:href="#DejaVuSans-63" transform="translate(257.275391 0)"/>
       <use xlink:href="#DejaVuSans-65" transform="translate(312.255859 0)"/>
       <use xlink:href="#DejaVuSans-6c" transform="translate(373.779297 0)"/>
       <use xlink:href="#DejaVuSans-6c" transform="translate(401.5625 0)"/>
       <use xlink:href="#DejaVuSans-3a" transform="translate(429.345703 0)"/>
       <use xlink:href="#DejaVuSans-70" transform="translate(463.037109 0)"/>
       <use xlink:href="#DejaVuSans-61" transform="translate(526.513672 0)"/>
       <use xlink:href="#DejaVuSans-6e" transform="translate(587.792969 0)"/>
       <use xlink:href="#DejaVuSans-63" transform="translate(651.171875 0)"/>
       <use xlink:href="#DejaVuSans-72" transform="translate(706.152344 0)"/>
       <use xlink:href="#DejaVuSans-65" transform="translate(745.015625 0)"/>
       <use xlink:href="#DejaVuSans-61" transform="translate(806.539062 0)"/>
       <use xlink:href="#DejaVuSans-74" transform="translate(867.818359 0)"/>
       <use xlink:href="#DejaVuSans-69" transform="translate(907.027344 0)"/>
       <use xlink:href="#DejaVuSans-63" transform="translate(934.810547 0)"/>
      </g>
     </g>
    </g>
    <g id="text_4">
     <!-- Level Three Cell Type -->
     <g style="fill: #262626" transform="translate(353.497781 372.33775) scale(0.1 -0.1)">
      <defs>
       <path id="DejaVuSans-4c" d="M 628 4666 
L 1259 4666 
L 1259 531 
L 3531 531 
L 3531 0 
L 628 0 
L 628 4666 
z
" transform="scale(0.015625)"/>
       <path id="DejaVuSans-76" d="M 191 3500 
L 800 3500 
L 1894 563 
L 2988 3500 
L 3597 3500 
L 2284 0 
L 1503 0 
L 191 3500 
z
" transform="scale(0.015625)"/>
       <path id="DejaVuSans-54" d="M -19 4666 
L 3928 4666 
L 3928 4134 
L 2272 4134 
L 2272 0 
L 1638 0 
L 1638 4134 
L -19 4134 
L -19 4666 
z
" transform="scale(0.015625)"/>
       <path id="DejaVuSans-43" d="M 4122 4306 
L 4122 3641 
Q 3803 3938 3442 4084 
Q 3081 4231 2675 4231 
Q 1875 4231 1450 3742 
Q 1025 3253 1025 2328 
Q 1025 1406 1450 917 
Q 1875 428 2675 428 
Q 3081 428 3442 575 
Q 3803 722 4122 1019 
L 4122 359 
Q 3791 134 3420 21 
Q 3050 -91 2638 -91 
Q 1578 -91 968 557 
Q 359 1206 359 2328 
Q 359 3453 968 4101 
Q 1578 4750 2638 4750 
Q 3056 4750 3426 4639 
Q 3797 4528 4122 4306 
z
" transform="scale(0.015625)"/>
       <path id="DejaVuSans-79" d="M 2059 -325 
Q 1816 -950 1584 -1140 
Q 1353 -1331 966 -1331 
L 506 -1331 
L 506 -850 
L 844 -850 
Q 1081 -850 1212 -737 
Q 1344 -625 1503 -206 
L 1606 56 
L 191 3500 
L 800 3500 
L 1894 763 
L 2988 3500 
L 3597 3500 
L 2059 -325 
z
" transform="scale(0.015625)"/>
      </defs>
      <use xlink:href="#DejaVuSans-4c"/>
      <use xlink:href="#DejaVuSans-65" transform="translate(53.962891 0)"/>
      <use xlink:href="#DejaVuSans-76" transform="translate(115.486328 0)"/>
      <use xlink:href="#DejaVuSans-65" transform="translate(174.666016 0)"/>
      <use xlink:href="#DejaVuSans-6c" transform="translate(236.189453 0)"/>
      <use xlink:href="#DejaVuSans-20" transform="translate(263.972656 0)"/>
      <use xlink:href="#DejaVuSans-54" transform="translate(295.759766 0)"/>
      <use xlink:href="#DejaVuSans-68" transform="translate(356.84375 0)"/>
      <use xlink:href="#DejaVuSans-72" transform="translate(420.222656 0)"/>
      <use xlink:href="#DejaVuSans-65" transform="translate(459.085938 0)"/>
      <use xlink:href="#DejaVuSans-65" transform="translate(520.609375 0)"/>
      <use xlink:href="#DejaVuSans-20" transform="translate(582.132812 0)"/>
      <use xlink:href="#DejaVuSans-43" transform="translate(613.919922 0)"/>
      <use xlink:href="#DejaVuSans-65" transform="translate(683.744141 0)"/>
      <use xlink:href="#DejaVuSans-6c" transform="translate(745.267578 0)"/>
      <use xlink:href="#DejaVuSans-6c" transform="translate(773.050781 0)"/>
      <use xlink:href="#DejaVuSans-20" transform="translate(800.833984 0)"/>
      <use xlink:href="#DejaVuSans-54" transform="translate(832.621094 0)"/>
      <use xlink:href="#DejaVuSans-79" transform="translate(878.080078 0)"/>
      <use xlink:href="#DejaVuSans-70" transform="translate(937.259766 0)"/>
      <use xlink:href="#DejaVuSans-65" transform="translate(1000.736328 0)"/>
     </g>
    </g>
   </g>
   <g id="matplotlib.axis_2">
    <g id="ytick_1">
     <g id="line2d_1">
      <path d="M 78.265625 241.568375 
L 734.959625 241.568375 
" clip-path="url(#p0cac9549a0)" style="fill: none; stroke: #cccccc; stroke-width: 2; stroke-linecap: round"/>
     </g>
     <g id="text_5">
      <!-- 0 -->
      <g style="fill: #262626" transform="translate(62.403125 245.367594) scale(0.1 -0.1)">
       <defs>
        <path id="DejaVuSans-30" d="M 2034 4250 
Q 1547 4250 1301 3770 
Q 1056 3291 1056 2328 
Q 1056 1369 1301 889 
Q 1547 409 2034 409 
Q 2525 409 2770 889 
Q 3016 1369 3016 2328 
Q 3016 3291 2770 3770 
Q 2525 4250 2034 4250 
z
M 2034 4750 
Q 2819 4750 3233 4129 
Q 3647 3509 3647 2328 
Q 3647 1150 3233 529 
Q 2819 -91 2034 -91 
Q 1250 -91 836 529 
Q 422 1150 422 2328 
Q 422 3509 836 4129 
Q 1250 4750 2034 4750 
z
" transform="scale(0.015625)"/>
       </defs>
       <use xlink:href="#DejaVuSans-30"/>
      </g>
     </g>
    </g>
    <g id="ytick_2">
     <g id="line2d_2">
      <path d="M 78.265625 218.693481 
L 734.959625 218.693481 
" clip-path="url(#p0cac9549a0)" style="fill: none; stroke: #cccccc; stroke-width: 2; stroke-linecap: round"/>
     </g>
     <g id="text_6">
      <!-- 25 -->
      <g style="fill: #262626" transform="translate(56.040625 222.4927) scale(0.1 -0.1)">
       <defs>
        <path id="DejaVuSans-32" d="M 1228 531 
L 3431 531 
L 3431 0 
L 469 0 
L 469 531 
Q 828 903 1448 1529 
Q 2069 2156 2228 2338 
Q 2531 2678 2651 2914 
Q 2772 3150 2772 3378 
Q 2772 3750 2511 3984 
Q 2250 4219 1831 4219 
Q 1534 4219 1204 4116 
Q 875 4013 500 3803 
L 500 4441 
Q 881 4594 1212 4672 
Q 1544 4750 1819 4750 
Q 2544 4750 2975 4387 
Q 3406 4025 3406 3419 
Q 3406 3131 3298 2873 
Q 3191 2616 2906 2266 
Q 2828 2175 2409 1742 
Q 1991 1309 1228 531 
z
" transform="scale(0.015625)"/>
        <path id="DejaVuSans-35" d="M 691 4666 
L 3169 4666 
L 3169 4134 
L 1269 4134 
L 1269 2991 
Q 1406 3038 1543 3061 
Q 1681 3084 1819 3084 
Q 2600 3084 3056 2656 
Q 3513 2228 3513 1497 
Q 3513 744 3044 326 
Q 2575 -91 1722 -91 
Q 1428 -91 1123 -41 
Q 819 9 494 109 
L 494 744 
Q 775 591 1075 516 
Q 1375 441 1709 441 
Q 2250 441 2565 725 
Q 2881 1009 2881 1497 
Q 2881 1984 2565 2268 
Q 2250 2553 1709 2553 
Q 1456 2553 1204 2497 
Q 953 2441 691 2322 
L 691 4666 
z
" transform="scale(0.015625)"/>
       </defs>
       <use xlink:href="#DejaVuSans-32"/>
       <use xlink:href="#DejaVuSans-35" transform="translate(63.623047 0)"/>
      </g>
     </g>
    </g>
    <g id="ytick_3">
     <g id="line2d_3">
      <path d="M 78.265625 195.818587 
L 734.959625 195.818587 
" clip-path="url(#p0cac9549a0)" style="fill: none; stroke: #cccccc; stroke-width: 2; stroke-linecap: round"/>
     </g>
     <g id="text_7">
      <!-- 50 -->
      <g style="fill: #262626" transform="translate(56.040625 199.617806) scale(0.1 -0.1)">
       <use xlink:href="#DejaVuSans-35"/>
       <use xlink:href="#DejaVuSans-30" transform="translate(63.623047 0)"/>
      </g>
     </g>
    </g>
    <g id="ytick_4">
     <g id="line2d_4">
      <path d="M 78.265625 172.943693 
L 734.959625 172.943693 
" clip-path="url(#p0cac9549a0)" style="fill: none; stroke: #cccccc; stroke-width: 2; stroke-linecap: round"/>
     </g>
     <g id="text_8">
      <!-- 75 -->
      <g style="fill: #262626" transform="translate(56.040625 176.742912) scale(0.1 -0.1)">
       <defs>
        <path id="DejaVuSans-37" d="M 525 4666 
L 3525 4666 
L 3525 4397 
L 1831 0 
L 1172 0 
L 2766 4134 
L 525 4134 
L 525 4666 
z
" transform="scale(0.015625)"/>
       </defs>
       <use xlink:href="#DejaVuSans-37"/>
       <use xlink:href="#DejaVuSans-35" transform="translate(63.623047 0)"/>
      </g>
     </g>
    </g>
    <g id="ytick_5">
     <g id="line2d_5">
      <path d="M 78.265625 150.068799 
L 734.959625 150.068799 
" clip-path="url(#p0cac9549a0)" style="fill: none; stroke: #cccccc; stroke-width: 2; stroke-linecap: round"/>
     </g>
     <g id="text_9">
      <!-- 100 -->
      <g style="fill: #262626" transform="translate(49.678125 153.868018) scale(0.1 -0.1)">
       <defs>
        <path id="DejaVuSans-31" d="M 794 531 
L 1825 531 
L 1825 4091 
L 703 3866 
L 703 4441 
L 1819 4666 
L 2450 4666 
L 2450 531 
L 3481 531 
L 3481 0 
L 794 0 
L 794 531 
z
" transform="scale(0.015625)"/>
       </defs>
       <use xlink:href="#DejaVuSans-31"/>
       <use xlink:href="#DejaVuSans-30" transform="translate(63.623047 0)"/>
       <use xlink:href="#DejaVuSans-30" transform="translate(127.246094 0)"/>
      </g>
     </g>
    </g>
    <g id="ytick_6">
     <g id="line2d_6">
      <path d="M 78.265625 127.193905 
L 734.959625 127.193905 
" clip-path="url(#p0cac9549a0)" style="fill: none; stroke: #cccccc; stroke-width: 2; stroke-linecap: round"/>
     </g>
     <g id="text_10">
      <!-- 125 -->
      <g style="fill: #262626" transform="translate(49.678125 130.993124) scale(0.1 -0.1)">
       <use xlink:href="#DejaVuSans-31"/>
       <use xlink:href="#DejaVuSans-32" transform="translate(63.623047 0)"/>
       <use xlink:href="#DejaVuSans-35" transform="translate(127.246094 0)"/>
      </g>
     </g>
    </g>
    <g id="ytick_7">
     <g id="line2d_7">
      <path d="M 78.265625 104.319011 
L 734.959625 104.319011 
" clip-path="url(#p0cac9549a0)" style="fill: none; stroke: #cccccc; stroke-width: 2; stroke-linecap: round"/>
     </g>
     <g id="text_11">
      <!-- 150 -->
      <g style="fill: #262626" transform="translate(49.678125 108.11823) scale(0.1 -0.1)">
       <use xlink:href="#DejaVuSans-31"/>
       <use xlink:href="#DejaVuSans-35" transform="translate(63.623047 0)"/>
       <use xlink:href="#DejaVuSans-30" transform="translate(127.246094 0)"/>
      </g>
     </g>
    </g>
    <g id="ytick_8">
     <g id="line2d_8">
      <path d="M 78.265625 81.444117 
L 734.959625 81.444117 
" clip-path="url(#p0cac9549a0)" style="fill: none; stroke: #cccccc; stroke-width: 2; stroke-linecap: round"/>
     </g>
     <g id="text_12">
      <!-- 175 -->
      <g style="fill: #262626" transform="translate(49.678125 85.243336) scale(0.1 -0.1)">
       <use xlink:href="#DejaVuSans-31"/>
       <use xlink:href="#DejaVuSans-37" transform="translate(63.623047 0)"/>
       <use xlink:href="#DejaVuSans-35" transform="translate(127.246094 0)"/>
      </g>
     </g>
    </g>
    <g id="ytick_9">
     <g id="line2d_9">
      <path d="M 78.265625 58.569223 
L 734.959625 58.569223 
" clip-path="url(#p0cac9549a0)" style="fill: none; stroke: #cccccc; stroke-width: 2; stroke-linecap: round"/>
     </g>
     <g id="text_13">
      <!-- 200 -->
      <g style="fill: #262626" transform="translate(49.678125 62.368442) scale(0.1 -0.1)">
       <use xlink:href="#DejaVuSans-32"/>
       <use xlink:href="#DejaVuSans-30" transform="translate(63.623047 0)"/>
       <use xlink:href="#DejaVuSans-30" transform="translate(127.246094 0)"/>
      </g>
     </g>
    </g>
    <g id="text_14">
     <!-- Distance (μm) -->
     <g style="fill: #262626" transform="translate(43.598437 183.775125) rotate(-90) scale(0.1 -0.1)">
      <defs>
       <path id="DejaVuSans-44" d="M 1259 4147 
L 1259 519 
L 2022 519 
Q 2988 519 3436 956 
Q 3884 1394 3884 2338 
Q 3884 3275 3436 3711 
Q 2988 4147 2022 4147 
L 1259 4147 
z
M 628 4666 
L 1925 4666 
Q 3281 4666 3915 4102 
Q 4550 3538 4550 2338 
Q 4550 1131 3912 565 
Q 3275 0 1925 0 
L 628 0 
L 628 4666 
z
" transform="scale(0.015625)"/>
       <path id="DejaVuSans-73" d="M 2834 3397 
L 2834 2853 
Q 2591 2978 2328 3040 
Q 2066 3103 1784 3103 
Q 1356 3103 1142 2972 
Q 928 2841 928 2578 
Q 928 2378 1081 2264 
Q 1234 2150 1697 2047 
L 1894 2003 
Q 2506 1872 2764 1633 
Q 3022 1394 3022 966 
Q 3022 478 2636 193 
Q 2250 -91 1575 -91 
Q 1294 -91 989 -36 
Q 684 19 347 128 
L 347 722 
Q 666 556 975 473 
Q 1284 391 1588 391 
Q 1994 391 2212 530 
Q 2431 669 2431 922 
Q 2431 1156 2273 1281 
Q 2116 1406 1581 1522 
L 1381 1569 
Q 847 1681 609 1914 
Q 372 2147 372 2553 
Q 372 3047 722 3315 
Q 1072 3584 1716 3584 
Q 2034 3584 2315 3537 
Q 2597 3491 2834 3397 
z
" transform="scale(0.015625)"/>
       <path id="DejaVuSans-28" d="M 1984 4856 
Q 1566 4138 1362 3434 
Q 1159 2731 1159 2009 
Q 1159 1288 1364 580 
Q 1569 -128 1984 -844 
L 1484 -844 
Q 1016 -109 783 600 
Q 550 1309 550 2009 
Q 550 2706 781 3412 
Q 1013 4119 1484 4856 
L 1984 4856 
z
" transform="scale(0.015625)"/>
       <path id="DejaVuSans-3bc" d="M 544 -1331 
L 544 3500 
L 1119 3500 
L 1119 1325 
Q 1119 872 1334 640 
Q 1550 409 1972 409 
Q 2434 409 2667 671 
Q 2900 934 2900 1459 
L 2900 3500 
L 3475 3500 
L 3475 806 
Q 3475 619 3529 530 
Q 3584 441 3700 441 
Q 3728 441 3778 458 
Q 3828 475 3916 513 
L 3916 50 
Q 3788 -22 3673 -56 
Q 3559 -91 3450 -91 
Q 3234 -91 3106 31 
Q 2978 153 2931 403 
Q 2775 156 2548 32 
Q 2322 -91 2016 -91 
Q 1697 -91 1473 31 
Q 1250 153 1119 397 
L 1119 -1331 
L 544 -1331 
z
" transform="scale(0.015625)"/>
       <path id="DejaVuSans-6d" d="M 3328 2828 
Q 3544 3216 3844 3400 
Q 4144 3584 4550 3584 
Q 5097 3584 5394 3201 
Q 5691 2819 5691 2113 
L 5691 0 
L 5113 0 
L 5113 2094 
Q 5113 2597 4934 2840 
Q 4756 3084 4391 3084 
Q 3944 3084 3684 2787 
Q 3425 2491 3425 1978 
L 3425 0 
L 2847 0 
L 2847 2094 
Q 2847 2600 2669 2842 
Q 2491 3084 2119 3084 
Q 1678 3084 1418 2786 
Q 1159 2488 1159 1978 
L 1159 0 
L 581 0 
L 581 3500 
L 1159 3500 
L 1159 2956 
Q 1356 3278 1631 3431 
Q 1906 3584 2284 3584 
Q 2666 3584 2933 3390 
Q 3200 3197 3328 2828 
z
" transform="scale(0.015625)"/>
       <path id="DejaVuSans-29" d="M 513 4856 
L 1013 4856 
Q 1481 4119 1714 3412 
Q 1947 2706 1947 2009 
Q 1947 1309 1714 600 
Q 1481 -109 1013 -844 
L 513 -844 
Q 928 -128 1133 580 
Q 1338 1288 1338 2009 
Q 1338 2731 1133 3434 
Q 928 4138 513 4856 
z
" transform="scale(0.015625)"/>
      </defs>
      <use xlink:href="#DejaVuSans-44"/>
      <use xlink:href="#DejaVuSans-69" transform="translate(77.001953 0)"/>
      <use xlink:href="#DejaVuSans-73" transform="translate(104.785156 0)"/>
      <use xlink:href="#DejaVuSans-74" transform="translate(156.884766 0)"/>
      <use xlink:href="#DejaVuSans-61" transform="translate(196.09375 0)"/>
      <use xlink:href="#DejaVuSans-6e" transform="translate(257.373047 0)"/>
      <use xlink:href="#DejaVuSans-63" transform="translate(320.751953 0)"/>
      <use xlink:href="#DejaVuSans-65" transform="translate(375.732422 0)"/>
      <use xlink:href="#DejaVuSans-20" transform="translate(437.255859 0)"/>
      <use xlink:href="#DejaVuSans-28" transform="translate(469.042969 0)"/>
      <use xlink:href="#DejaVuSans-3bc" transform="translate(508.056641 0)"/>
      <use xlink:href="#DejaVuSans-6d" transform="translate(571.679688 0)"/>
      <use xlink:href="#DejaVuSans-29" transform="translate(669.091797 0)"/>
     </g>
    </g>
   </g>
   <g id="FillBetweenPolyCollection_1">
    <defs>
     <path id="mb04970551a" d="M 187.719202 -172.254273 
L 187.710048 -172.254273 
L 184.637646 -174.068267 
L 142.083949 -175.882262 
L 100.155425 -177.696256 
L 114.337026 -179.510251 
L 137.667786 -181.324245 
L 149.670526 -183.13824 
L 155.632668 -184.952234 
L 160.723512 -186.766229 
L 165.528181 -188.580223 
L 169.899251 -190.394218 
L 173.567787 -192.208212 
L 176.536588 -194.022207 
L 178.930956 -195.836201 
L 180.81955 -197.650196 
L 182.280816 -199.46419 
L 183.514925 -201.278185 
L 184.381144 -203.092179 
L 185.067821 -204.906174 
L 185.584323 -206.720168 
L 185.988284 -208.534163 
L 186.301791 -210.348157 
L 186.557028 -212.162152 
L 186.755137 -213.976146 
L 186.901632 -215.79014 
L 187.017371 -217.604135 
L 187.112013 -219.418129 
L 187.206341 -221.232124 
L 187.262086 -223.046118 
L 187.329967 -224.860113 
L 187.360053 -226.674107 
L 187.399874 -228.488102 
L 187.429416 -230.302096 
L 187.453953 -232.116091 
L 187.484578 -233.930085 
L 187.500603 -235.74408 
L 187.521825 -237.558074 
L 187.528902 -239.372069 
L 187.552708 -241.186063 
L 187.563675 -243.000058 
L 187.569651 -244.814052 
L 187.580749 -246.628047 
L 187.588705 -248.442041 
L 187.603704 -250.256036 
L 187.607497 -252.07003 
L 187.613094 -253.884025 
L 187.619228 -255.698019 
L 187.628913 -257.512014 
L 187.630058 -259.326008 
L 187.635472 -261.140003 
L 187.645675 -262.953997 
L 187.643846 -264.767992 
L 187.645064 -266.581986 
L 187.65633 -268.395981 
L 187.656283 -270.209975 
L 187.662469 -272.02397 
L 187.660068 -273.837964 
L 187.666028 -275.651959 
L 187.668138 -277.465953 
L 187.668914 -279.279948 
L 187.674858 -281.093942 
L 187.677434 -282.907937 
L 187.678225 -284.721931 
L 187.681855 -286.535926 
L 187.682333 -288.34992 
L 187.684595 -290.163915 
L 187.682475 -291.977909 
L 187.688691 -293.791904 
L 187.688677 -295.605898 
L 187.690069 -297.419893 
L 187.689389 -299.233887 
L 187.692574 -301.047882 
L 187.691479 -302.861876 
L 187.69254 -304.675871 
L 187.692605 -306.489865 
L 187.695768 -308.30386 
L 187.695854 -310.117854 
L 187.694532 -311.931848 
L 187.697966 -313.745843 
L 187.695503 -315.559837 
L 187.697104 -317.373832 
L 187.699224 -319.187826 
L 187.698939 -321.001821 
L 187.699373 -322.815815 
L 187.699585 -324.62981 
L 187.699392 -326.443804 
L 187.701183 -328.257799 
L 187.701948 -330.071793 
L 187.70125 -331.885788 
L 187.701701 -333.699782 
L 187.702513 -335.513777 
L 187.702588 -337.327771 
L 187.702536 -339.141766 
L 187.70305 -340.95576 
L 187.705214 -342.769755 
L 187.704257 -344.583749 
L 187.705364 -346.397744 
L 187.703821 -348.211738 
L 187.704865 -350.025733 
L 187.70927 -351.839727 
L 187.71998 -351.839727 
L 187.71998 -351.839727 
L 187.724385 -350.025733 
L 187.725429 -348.211738 
L 187.723886 -346.397744 
L 187.724993 -344.583749 
L 187.724036 -342.769755 
L 187.7262 -340.95576 
L 187.726714 -339.141766 
L 187.726662 -337.327771 
L 187.726737 -335.513777 
L 187.727549 -333.699782 
L 187.728 -331.885788 
L 187.727302 -330.071793 
L 187.728067 -328.257799 
L 187.729858 -326.443804 
L 187.729665 -324.62981 
L 187.729877 -322.815815 
L 187.730311 -321.001821 
L 187.730026 -319.187826 
L 187.732146 -317.373832 
L 187.733747 -315.559837 
L 187.731284 -313.745843 
L 187.734718 -311.931848 
L 187.733396 -310.117854 
L 187.733482 -308.30386 
L 187.736645 -306.489865 
L 187.73671 -304.675871 
L 187.737771 -302.861876 
L 187.736676 -301.047882 
L 187.739861 -299.233887 
L 187.739181 -297.419893 
L 187.740573 -295.605898 
L 187.740559 -293.791904 
L 187.746775 -291.977909 
L 187.744655 -290.163915 
L 187.746917 -288.34992 
L 187.747395 -286.535926 
L 187.751025 -284.721931 
L 187.751816 -282.907937 
L 187.754392 -281.093942 
L 187.760336 -279.279948 
L 187.761112 -277.465953 
L 187.763222 -275.651959 
L 187.769182 -273.837964 
L 187.766781 -272.02397 
L 187.772967 -270.209975 
L 187.77292 -268.395981 
L 187.784186 -266.581986 
L 187.785404 -264.767992 
L 187.783575 -262.953997 
L 187.793778 -261.140003 
L 187.799192 -259.326008 
L 187.800337 -257.512014 
L 187.810022 -255.698019 
L 187.816156 -253.884025 
L 187.821753 -252.07003 
L 187.825546 -250.256036 
L 187.840545 -248.442041 
L 187.848501 -246.628047 
L 187.859599 -244.814052 
L 187.865575 -243.000058 
L 187.876542 -241.186063 
L 187.900348 -239.372069 
L 187.907425 -237.558074 
L 187.928647 -235.74408 
L 187.944672 -233.930085 
L 187.975297 -232.116091 
L 187.999834 -230.302096 
L 188.029376 -228.488102 
L 188.069197 -226.674107 
L 188.099283 -224.860113 
L 188.167164 -223.046118 
L 188.222909 -221.232124 
L 188.317237 -219.418129 
L 188.411879 -217.604135 
L 188.527618 -215.79014 
L 188.674113 -213.976146 
L 188.872222 -212.162152 
L 189.127459 -210.348157 
L 189.440966 -208.534163 
L 189.844927 -206.720168 
L 190.361429 -204.906174 
L 191.048106 -203.092179 
L 191.914325 -201.278185 
L 193.148434 -199.46419 
L 194.6097 -197.650196 
L 196.498294 -195.836201 
L 198.892662 -194.022207 
L 201.861463 -192.208212 
L 205.529999 -190.394218 
L 209.901069 -188.580223 
L 214.705738 -186.766229 
L 219.796582 -184.952234 
L 225.758724 -183.13824 
L 237.761464 -181.324245 
L 261.092224 -179.510251 
L 275.273825 -177.696256 
L 233.345301 -175.882262 
L 190.791604 -174.068267 
L 187.719202 -172.254273 
z
" style="stroke: #636363; stroke-opacity: 0.9; stroke-width: 1.25"/>
    </defs>
    <g clip-path="url(#p0cac9549a0)">
     <use xlink:href="#mb04970551a" x="0" y="410.417438" style="fill: #e49467; fill-opacity: 0.9; stroke: #636363; stroke-opacity: 0.9; stroke-width: 1.25"/>
    </g>
   </g>
   <g id="FillBetweenPolyCollection_2">
    <defs>
     <path id="ma64c4384fd" d="M 406.618854 -172.417546 
L 406.606396 -172.417546 
L 404.284601 -174.229801 
L 377.297397 -176.042057 
L 342.742763 -177.854313 
L 342.419051 -179.666569 
L 353.47302 -181.478825 
L 358.746433 -183.291081 
L 362.63036 -185.103337 
L 368.959293 -186.915592 
L 376.306369 -188.727848 
L 383.414558 -190.540104 
L 389.202252 -192.35236 
L 393.608278 -194.164616 
L 397.001814 -195.976872 
L 399.428536 -197.789127 
L 401.197051 -199.601383 
L 402.56646 -201.413639 
L 403.52931 -203.225895 
L 404.219712 -205.038151 
L 404.781055 -206.850407 
L 405.180982 -208.662663 
L 405.471227 -210.474918 
L 405.706119 -212.287174 
L 405.877569 -214.09943 
L 406.012698 -215.911686 
L 406.126854 -217.723942 
L 406.210893 -219.536198 
L 406.268227 -221.348453 
L 406.31442 -223.160709 
L 406.355467 -224.972965 
L 406.393014 -226.785221 
L 406.417892 -228.597477 
L 406.436061 -230.409733 
L 406.462847 -232.221988 
L 406.467712 -234.034244 
L 406.484591 -235.8465 
L 406.499909 -237.658756 
L 406.508957 -239.471012 
L 406.511052 -241.283268 
L 406.522173 -243.095524 
L 406.528281 -244.907779 
L 406.532299 -246.720035 
L 406.538846 -248.532291 
L 406.545836 -250.344547 
L 406.552922 -252.156803 
L 406.556498 -253.969059 
L 406.560324 -255.781314 
L 406.555332 -257.59357 
L 406.556246 -259.405826 
L 406.562658 -261.218082 
L 406.56837 -263.030338 
L 406.568642 -264.842594 
L 406.567606 -266.654849 
L 406.573976 -268.467105 
L 406.580028 -270.279361 
L 406.579145 -272.091617 
L 406.578568 -273.903873 
L 406.582612 -275.716129 
L 406.583479 -277.528385 
L 406.583336 -279.34064 
L 406.586888 -281.152896 
L 406.590508 -282.965152 
L 406.588076 -284.777408 
L 406.586257 -286.589664 
L 406.591618 -288.40192 
L 406.59026 -290.214175 
L 406.593655 -292.026431 
L 406.592461 -293.838687 
L 406.59139 -295.650943 
L 406.591739 -297.463199 
L 406.593295 -299.275455 
L 406.596051 -301.08771 
L 406.596951 -302.899966 
L 406.598708 -304.712222 
L 406.595407 -306.524478 
L 406.598602 -308.336734 
L 406.596791 -310.14899 
L 406.600218 -311.961246 
L 406.59763 -313.773501 
L 406.601187 -315.585757 
L 406.599519 -317.398013 
L 406.601869 -319.210269 
L 406.599325 -321.022525 
L 406.600565 -322.834781 
L 406.602842 -324.647036 
L 406.602573 -326.459292 
L 406.602274 -328.271548 
L 406.599656 -330.083804 
L 406.60486 -331.89606 
L 406.60342 -333.708316 
L 406.602227 -335.520571 
L 406.60451 -337.332827 
L 406.603485 -339.145083 
L 406.602716 -340.957339 
L 406.604759 -342.769595 
L 406.604827 -344.581851 
L 406.603263 -346.394107 
L 406.605729 -348.206362 
L 406.603546 -350.018618 
L 406.607962 -351.830874 
L 406.617288 -351.830874 
L 406.617288 -351.830874 
L 406.621704 -350.018618 
L 406.619521 -348.206362 
L 406.621987 -346.394107 
L 406.620423 -344.581851 
L 406.620491 -342.769595 
L 406.622534 -340.957339 
L 406.621765 -339.145083 
L 406.62074 -337.332827 
L 406.623023 -335.520571 
L 406.62183 -333.708316 
L 406.62039 -331.89606 
L 406.625594 -330.083804 
L 406.622976 -328.271548 
L 406.622677 -326.459292 
L 406.622408 -324.647036 
L 406.624685 -322.834781 
L 406.625925 -321.022525 
L 406.623381 -319.210269 
L 406.625731 -317.398013 
L 406.624063 -315.585757 
L 406.62762 -313.773501 
L 406.625032 -311.961246 
L 406.628459 -310.14899 
L 406.626648 -308.336734 
L 406.629843 -306.524478 
L 406.626542 -304.712222 
L 406.628299 -302.899966 
L 406.629199 -301.08771 
L 406.631955 -299.275455 
L 406.633511 -297.463199 
L 406.63386 -295.650943 
L 406.632789 -293.838687 
L 406.631595 -292.026431 
L 406.63499 -290.214175 
L 406.633632 -288.40192 
L 406.638993 -286.589664 
L 406.637174 -284.777408 
L 406.634742 -282.965152 
L 406.638362 -281.152896 
L 406.641914 -279.34064 
L 406.641771 -277.528385 
L 406.642638 -275.716129 
L 406.646682 -273.903873 
L 406.646105 -272.091617 
L 406.645222 -270.279361 
L 406.651274 -268.467105 
L 406.657644 -266.654849 
L 406.656608 -264.842594 
L 406.65688 -263.030338 
L 406.662592 -261.218082 
L 406.669004 -259.405826 
L 406.669918 -257.59357 
L 406.664926 -255.781314 
L 406.668752 -253.969059 
L 406.672328 -252.156803 
L 406.679414 -250.344547 
L 406.686404 -248.532291 
L 406.692951 -246.720035 
L 406.696969 -244.907779 
L 406.703077 -243.095524 
L 406.714198 -241.283268 
L 406.716293 -239.471012 
L 406.725341 -237.658756 
L 406.740659 -235.8465 
L 406.757538 -234.034244 
L 406.762403 -232.221988 
L 406.789189 -230.409733 
L 406.807358 -228.597477 
L 406.832236 -226.785221 
L 406.869783 -224.972965 
L 406.91083 -223.160709 
L 406.957023 -221.348453 
L 407.014357 -219.536198 
L 407.098396 -217.723942 
L 407.212552 -215.911686 
L 407.347681 -214.09943 
L 407.519131 -212.287174 
L 407.754023 -210.474918 
L 408.044268 -208.662663 
L 408.444195 -206.850407 
L 409.005538 -205.038151 
L 409.69594 -203.225895 
L 410.65879 -201.413639 
L 412.028199 -199.601383 
L 413.796714 -197.789127 
L 416.223436 -195.976872 
L 419.616972 -194.164616 
L 424.022998 -192.35236 
L 429.810692 -190.540104 
L 436.918881 -188.727848 
L 444.265957 -186.915592 
L 450.59489 -185.103337 
L 454.478817 -183.291081 
L 459.75223 -181.478825 
L 470.806199 -179.666569 
L 470.482487 -177.854313 
L 435.927853 -176.042057 
L 408.940649 -174.229801 
L 406.618854 -172.417546 
z
" style="stroke: #636363; stroke-opacity: 0.9; stroke-width: 1.25"/>
    </defs>
    <g clip-path="url(#p0cac9549a0)">
     <use xlink:href="#ma64c4384fd" x="0" y="410.417438" style="fill: #f7f7c6; fill-opacity: 0.9; stroke: #636363; stroke-opacity: 0.9; stroke-width: 1.25"/>
    </g>
   </g>
   <g id="FillBetweenPolyCollection_3">
    <defs>
     <path id="m829ff2e144" d="M 627.154267 -173.276167 
L 623.866983 -173.276167 
L 618.021772 -175.048118 
L 608.493402 -176.82007 
L 601.499262 -178.592021 
L 598.903833 -180.363973 
L 597.800747 -182.135924 
L 596.358836 -183.907876 
L 595.31686 -185.679827 
L 595.501758 -187.451779 
L 596.48898 -189.22373 
L 598.088769 -190.995682 
L 600.319341 -192.767633 
L 602.564545 -194.539585 
L 604.511172 -196.311536 
L 606.44158 -198.083488 
L 608.412945 -199.855439 
L 610.262246 -201.627391 
L 612.056455 -203.399342 
L 613.808088 -205.171293 
L 615.137563 -206.943245 
L 616.186539 -208.715196 
L 617.270051 -210.487148 
L 618.420607 -212.259099 
L 619.373216 -214.031051 
L 620.135341 -215.803002 
L 620.803296 -217.574954 
L 621.379699 -219.346905 
L 621.945893 -221.118857 
L 622.507063 -222.890808 
L 622.977799 -224.66276 
L 623.340815 -226.434711 
L 623.584411 -228.206663 
L 623.8284 -229.978614 
L 624.099812 -231.750566 
L 624.314051 -233.522517 
L 624.432 -235.294469 
L 624.51036 -237.06642 
L 624.634665 -238.838372 
L 624.731741 -240.610323 
L 624.807733 -242.382275 
L 624.900066 -244.154226 
L 624.968079 -245.926178 
L 625.008433 -247.698129 
L 625.060667 -249.47008 
L 625.120916 -251.242032 
L 625.170986 -253.013983 
L 625.191779 -254.785935 
L 625.213972 -256.557886 
L 625.223145 -258.329838 
L 625.243244 -260.101789 
L 625.289802 -261.873741 
L 625.323911 -263.645692 
L 625.338166 -265.417644 
L 625.338624 -267.189595 
L 625.344793 -268.961547 
L 625.349823 -270.733498 
L 625.365822 -272.50545 
L 625.382908 -274.277401 
L 625.398622 -276.049353 
L 625.402295 -277.821304 
L 625.405783 -279.593256 
L 625.420682 -281.365207 
L 625.431107 -283.137159 
L 625.437207 -284.90911 
L 625.448479 -286.681062 
L 625.456592 -288.453013 
L 625.455051 -290.224965 
L 625.457414 -291.996916 
L 625.469211 -293.768868 
L 625.481354 -295.540819 
L 625.4838 -297.31277 
L 625.483899 -299.084722 
L 625.481105 -300.856673 
L 625.481419 -302.628625 
L 625.485281 -304.400576 
L 625.486981 -306.172528 
L 625.493447 -307.944479 
L 625.49853 -309.716431 
L 625.496496 -311.488382 
L 625.496365 -313.260334 
L 625.496759 -315.032285 
L 625.494478 -316.804237 
L 625.491015 -318.576188 
L 625.493574 -320.34814 
L 625.497985 -322.120091 
L 625.495778 -323.892043 
L 625.494628 -325.663994 
L 625.500006 -327.435946 
L 625.501827 -329.207897 
L 625.496953 -330.979849 
L 625.488667 -332.7518 
L 625.490511 -334.523752 
L 625.499609 -336.295703 
L 625.505379 -338.067655 
L 625.506651 -339.839606 
L 625.504188 -341.611557 
L 625.504684 -343.383509 
L 625.502167 -345.15546 
L 625.49797 -346.927412 
L 625.503039 -348.699363 
L 625.518211 -348.699363 
L 625.518211 -348.699363 
L 625.52328 -346.927412 
L 625.519083 -345.15546 
L 625.516566 -343.383509 
L 625.517062 -341.611557 
L 625.514599 -339.839606 
L 625.515871 -338.067655 
L 625.521641 -336.295703 
L 625.530739 -334.523752 
L 625.532583 -332.7518 
L 625.524297 -330.979849 
L 625.519423 -329.207897 
L 625.521244 -327.435946 
L 625.526622 -325.663994 
L 625.525472 -323.892043 
L 625.523265 -322.120091 
L 625.527676 -320.34814 
L 625.530235 -318.576188 
L 625.526772 -316.804237 
L 625.524491 -315.032285 
L 625.524885 -313.260334 
L 625.524754 -311.488382 
L 625.52272 -309.716431 
L 625.527803 -307.944479 
L 625.534269 -306.172528 
L 625.535969 -304.400576 
L 625.539831 -302.628625 
L 625.540145 -300.856673 
L 625.537351 -299.084722 
L 625.53745 -297.31277 
L 625.539896 -295.540819 
L 625.552039 -293.768868 
L 625.563836 -291.996916 
L 625.566199 -290.224965 
L 625.564658 -288.453013 
L 625.572771 -286.681062 
L 625.584043 -284.90911 
L 625.590143 -283.137159 
L 625.600568 -281.365207 
L 625.615467 -279.593256 
L 625.618955 -277.821304 
L 625.622628 -276.049353 
L 625.638342 -274.277401 
L 625.655428 -272.50545 
L 625.671427 -270.733498 
L 625.676457 -268.961547 
L 625.682626 -267.189595 
L 625.683084 -265.417644 
L 625.697339 -263.645692 
L 625.731448 -261.873741 
L 625.778006 -260.101789 
L 625.798105 -258.329838 
L 625.807278 -256.557886 
L 625.829471 -254.785935 
L 625.850264 -253.013983 
L 625.900334 -251.242032 
L 625.960583 -249.47008 
L 626.012817 -247.698129 
L 626.053171 -245.926178 
L 626.121184 -244.154226 
L 626.213517 -242.382275 
L 626.289509 -240.610323 
L 626.386585 -238.838372 
L 626.51089 -237.06642 
L 626.58925 -235.294469 
L 626.707199 -233.522517 
L 626.921438 -231.750566 
L 627.19285 -229.978614 
L 627.436839 -228.206663 
L 627.680435 -226.434711 
L 628.043451 -224.66276 
L 628.514187 -222.890808 
L 629.075357 -221.118857 
L 629.641551 -219.346905 
L 630.217954 -217.574954 
L 630.885909 -215.803002 
L 631.648034 -214.031051 
L 632.600643 -212.259099 
L 633.751199 -210.487148 
L 634.834711 -208.715196 
L 635.883687 -206.943245 
L 637.213162 -205.171293 
L 638.964795 -203.399342 
L 640.759004 -201.627391 
L 642.608305 -199.855439 
L 644.57967 -198.083488 
L 646.510078 -196.311536 
L 648.456705 -194.539585 
L 650.701909 -192.767633 
L 652.932481 -190.995682 
L 654.53227 -189.22373 
L 655.519492 -187.451779 
L 655.70439 -185.679827 
L 654.662414 -183.907876 
L 653.220503 -182.135924 
L 652.117417 -180.363973 
L 649.521988 -178.592021 
L 642.527848 -176.82007 
L 632.999478 -175.048118 
L 627.154267 -173.276167 
z
" style="stroke: #636363; stroke-opacity: 0.9; stroke-width: 1.25"/>
    </defs>
    <g clip-path="url(#p0cac9549a0)">
     <use xlink:href="#m829ff2e144" x="0" y="410.417438" style="fill: #90c6a6; fill-opacity: 0.9; stroke: #636363; stroke-opacity: 0.9; stroke-width: 1.25"/>
    </g>
   </g>
   <g id="line2d_10">
    <path d="M 187.714625 238.163165 
L 187.714625 209.461932 
" clip-path="url(#p0cac9549a0)" style="fill: none; stroke: #636363; stroke-width: 1.875; stroke-linecap: round"/>
   </g>
   <g id="line2d_11">
    <path d="M 187.714625 232.199605 
L 187.714625 223.104495 
" clip-path="url(#p0cac9549a0)" style="fill: none; stroke: #636363; stroke-width: 5.625; stroke-linecap: round"/>
   </g>
   <g id="line2d_12">
    <path d="M 187.714625 229.171618 
" clip-path="url(#p0cac9549a0)" style="fill: none; stroke: #636363; stroke-width: 1.5; stroke-linecap: round"/>
    <defs>
     <path id="mdfc045585b" d="M 2.34375 0 
L -2.34375 -0 
" style="stroke: #ffffff; stroke-width: 1.125"/>
    </defs>
    <g clip-path="url(#p0cac9549a0)">
     <use xlink:href="#mdfc045585b" x="187.714625" y="229.171618" style="fill: #ffffff; stroke: #ffffff; stroke-width: 1.125"/>
    </g>
   </g>
   <g id="line2d_13">
    <path d="M 406.612625 237.999892 
L 406.612625 208.534874 
" clip-path="url(#p0cac9549a0)" style="fill: none; stroke: #636363; stroke-width: 1.875; stroke-linecap: round"/>
   </g>
   <g id="line2d_14">
    <path d="M 406.612625 231.079395 
L 406.612625 222.061576 
" clip-path="url(#p0cac9549a0)" style="fill: none; stroke: #636363; stroke-width: 5.625; stroke-linecap: round"/>
   </g>
   <g id="line2d_15">
    <path d="M 406.612625 227.219561 
" clip-path="url(#p0cac9549a0)" style="fill: none; stroke: #636363; stroke-width: 1.5; stroke-linecap: round"/>
    <g clip-path="url(#p0cac9549a0)">
     <use xlink:href="#mdfc045585b" x="406.612625" y="227.219561" style="fill: #ffffff; stroke: #ffffff; stroke-width: 1.125"/>
    </g>
   </g>
   <g id="line2d_16">
    <path d="M 625.510625 237.141271 
L 625.510625 183.495547 
" clip-path="url(#p0cac9549a0)" style="fill: none; stroke: #636363; stroke-width: 1.875; stroke-linecap: round"/>
   </g>
   <g id="line2d_17">
    <path d="M 625.510625 226.414764 
L 625.510625 209.246741 
" clip-path="url(#p0cac9549a0)" style="fill: none; stroke: #636363; stroke-width: 5.625; stroke-linecap: round"/>
   </g>
   <g id="line2d_18">
    <path d="M 625.510625 219.265636 
" clip-path="url(#p0cac9549a0)" style="fill: none; stroke: #636363; stroke-width: 1.5; stroke-linecap: round"/>
    <g clip-path="url(#p0cac9549a0)">
     <use xlink:href="#mdfc045585b" x="625.510625" y="219.265636" style="fill: #ffffff; stroke: #ffffff; stroke-width: 1.125"/>
    </g>
   </g>
   <g id="patch_3">
    <path d="M 78.265625 247.142437 
L 78.265625 49.598437 
" style="fill: none; stroke: #cccccc; stroke-width: 1.25; stroke-linejoin: miter; stroke-linecap: square"/>
   </g>
   <g id="patch_4">
    <path d="M 734.959625 247.142437 
L 734.959625 49.598437 
" style="fill: none; stroke: #cccccc; stroke-width: 1.25; stroke-linejoin: miter; stroke-linecap: square"/>
   </g>
   <g id="patch_5">
    <path d="M 78.265625 247.142437 
L 734.959625 247.142437 
" style="fill: none; stroke: #cccccc; stroke-width: 1.25; stroke-linejoin: miter; stroke-linecap: square"/>
   </g>
   <g id="patch_6">
    <path d="M 78.265625 49.598437 
L 734.959625 49.598437 
" style="fill: none; stroke: #cccccc; stroke-width: 1.25; stroke-linejoin: miter; stroke-linecap: square"/>
   </g>
   <g id="text_15">
    <!-- Violin Plot of distances by Level Three Cell Type (Density Normalization: area) -->
    <g style="fill: #262626" transform="translate(212.425906 43.598437) scale(0.1 -0.1)">
     <defs>
      <path id="DejaVuSans-56" d="M 1831 0 
L 50 4666 
L 709 4666 
L 2188 738 
L 3669 4666 
L 4325 4666 
L 2547 0 
L 1831 0 
z
" transform="scale(0.015625)"/>
      <path id="DejaVuSans-50" d="M 1259 4147 
L 1259 2394 
L 2053 2394 
Q 2494 2394 2734 2622 
Q 2975 2850 2975 3272 
Q 2975 3691 2734 3919 
Q 2494 4147 2053 4147 
L 1259 4147 
z
M 628 4666 
L 2053 4666 
Q 2838 4666 3239 4311 
Q 3641 3956 3641 3272 
Q 3641 2581 3239 2228 
Q 2838 1875 2053 1875 
L 1259 1875 
L 1259 0 
L 628 0 
L 628 4666 
z
" transform="scale(0.015625)"/>
      <path id="DejaVuSans-66" d="M 2375 4863 
L 2375 4384 
L 1825 4384 
Q 1516 4384 1395 4259 
Q 1275 4134 1275 3809 
L 1275 3500 
L 2222 3500 
L 2222 3053 
L 1275 3053 
L 1275 0 
L 697 0 
L 697 3053 
L 147 3053 
L 147 3500 
L 697 3500 
L 697 3744 
Q 697 4328 969 4595 
Q 1241 4863 1831 4863 
L 2375 4863 
z
" transform="scale(0.015625)"/>
      <path id="DejaVuSans-4e" d="M 628 4666 
L 1478 4666 
L 3547 763 
L 3547 4666 
L 4159 4666 
L 4159 0 
L 3309 0 
L 1241 3903 
L 1241 0 
L 628 0 
L 628 4666 
z
" transform="scale(0.015625)"/>
      <path id="DejaVuSans-7a" d="M 353 3500 
L 3084 3500 
L 3084 2975 
L 922 459 
L 3084 459 
L 3084 0 
L 275 0 
L 275 525 
L 2438 3041 
L 353 3041 
L 353 3500 
z
" transform="scale(0.015625)"/>
     </defs>
     <use xlink:href="#DejaVuSans-56"/>
     <use xlink:href="#DejaVuSans-69" transform="translate(66.158203 0)"/>
     <use xlink:href="#DejaVuSans-6f" transform="translate(93.941406 0)"/>
     <use xlink:href="#DejaVuSans-6c" transform="translate(155.123047 0)"/>
     <use xlink:href="#DejaVuSans-69" transform="translate(182.90625 0)"/>
     <use xlink:href="#DejaVuSans-6e" transform="translate(210.689453 0)"/>
     <use xlink:href="#DejaVuSans-20" transform="translate(274.068359 0)"/>
     <use xlink:href="#DejaVuSans-50" transform="translate(305.855469 0)"/>
     <use xlink:href="#DejaVuSans-6c" transform="translate(366.158203 0)"/>
     <use xlink:href="#DejaVuSans-6f" transform="translate(393.941406 0)"/>
     <use xlink:href="#DejaVuSans-74" transform="translate(455.123047 0)"/>
     <use xlink:href="#DejaVuSans-20" transform="translate(494.332031 0)"/>
     <use xlink:href="#DejaVuSans-6f" transform="translate(526.119141 0)"/>
     <use xlink:href="#DejaVuSans-66" transform="translate(587.300781 0)"/>
     <use xlink:href="#DejaVuSans-20" transform="translate(622.505859 0)"/>
     <use xlink:href="#DejaVuSans-64" transform="translate(654.292969 0)"/>
     <use xlink:href="#DejaVuSans-69" transform="translate(717.769531 0)"/>
     <use xlink:href="#DejaVuSans-73" transform="translate(745.552734 0)"/>
     <use xlink:href="#DejaVuSans-74" transform="translate(797.652344 0)"/>
     <use xlink:href="#DejaVuSans-61" transform="translate(836.861328 0)"/>
     <use xlink:href="#DejaVuSans-6e" transform="translate(898.140625 0)"/>
     <use xlink:href="#DejaVuSans-63" transform="translate(961.519531 0)"/>
     <use xlink:href="#DejaVuSans-65" transform="translate(1016.5 0)"/>
     <use xlink:href="#DejaVuSans-73" transform="translate(1078.023438 0)"/>
     <use xlink:href="#DejaVuSans-20" transform="translate(1130.123047 0)"/>
     <use xlink:href="#DejaVuSans-62" transform="translate(1161.910156 0)"/>
     <use xlink:href="#DejaVuSans-79" transform="translate(1225.386719 0)"/>
     <use xlink:href="#DejaVuSans-20" transform="translate(1284.566406 0)"/>
     <use xlink:href="#DejaVuSans-4c" transform="translate(1316.353516 0)"/>
     <use xlink:href="#DejaVuSans-65" transform="translate(1370.316406 0)"/>
     <use xlink:href="#DejaVuSans-76" transform="translate(1431.839844 0)"/>
     <use xlink:href="#DejaVuSans-65" transform="translate(1491.019531 0)"/>
     <use xlink:href="#DejaVuSans-6c" transform="translate(1552.542969 0)"/>
     <use xlink:href="#DejaVuSans-20" transform="translate(1580.326172 0)"/>
     <use xlink:href="#DejaVuSans-54" transform="translate(1612.113281 0)"/>
     <use xlink:href="#DejaVuSans-68" transform="translate(1673.197266 0)"/>
     <use xlink:href="#DejaVuSans-72" transform="translate(1736.576172 0)"/>
     <use xlink:href="#DejaVuSans-65" transform="translate(1775.439453 0)"/>
     <use xlink:href="#DejaVuSans-65" transform="translate(1836.962891 0)"/>
     <use xlink:href="#DejaVuSans-20" transform="translate(1898.486328 0)"/>
     <use xlink:href="#DejaVuSans-43" transform="translate(1930.273438 0)"/>
     <use xlink:href="#DejaVuSans-65" transform="translate(2000.097656 0)"/>
     <use xlink:href="#DejaVuSans-6c" transform="translate(2061.621094 0)"/>
     <use xlink:href="#DejaVuSans-6c" transform="translate(2089.404297 0)"/>
     <use xlink:href="#DejaVuSans-20" transform="translate(2117.1875 0)"/>
     <use xlink:href="#DejaVuSans-54" transform="translate(2148.974609 0)"/>
     <use xlink:href="#DejaVuSans-79" transform="translate(2194.433594 0)"/>
     <use xlink:href="#DejaVuSans-70" transform="translate(2253.613281 0)"/>
     <use xlink:href="#DejaVuSans-65" transform="translate(2317.089844 0)"/>
     <use xlink:href="#DejaVuSans-20" transform="translate(2378.613281 0)"/>
     <use xlink:href="#DejaVuSans-28" transform="translate(2410.400391 0)"/>
     <use xlink:href="#DejaVuSans-44" transform="translate(2449.414062 0)"/>
     <use xlink:href="#DejaVuSans-65" transform="translate(2526.416016 0)"/>
     <use xlink:href="#DejaVuSans-6e" transform="translate(2587.939453 0)"/>
     <use xlink:href="#DejaVuSans-73" transform="translate(2651.318359 0)"/>
     <use xlink:href="#DejaVuSans-69" transform="translate(2703.417969 0)"/>
     <use xlink:href="#DejaVuSans-74" transform="translate(2731.201172 0)"/>
     <use xlink:href="#DejaVuSans-79" transform="translate(2770.410156 0)"/>
     <use xlink:href="#DejaVuSans-20" transform="translate(2829.589844 0)"/>
     <use xlink:href="#DejaVuSans-4e" transform="translate(2861.376953 0)"/>
     <use xlink:href="#DejaVuSans-6f" transform="translate(2936.181641 0)"/>
     <use xlink:href="#DejaVuSans-72" transform="translate(2997.363281 0)"/>
     <use xlink:href="#DejaVuSans-6d" transform="translate(3036.726562 0)"/>
     <use xlink:href="#DejaVuSans-61" transform="translate(3134.138672 0)"/>
     <use xlink:href="#DejaVuSans-6c" transform="translate(3195.417969 0)"/>
     <use xlink:href="#DejaVuSans-69" transform="translate(3223.201172 0)"/>
     <use xlink:href="#DejaVuSans-7a" transform="translate(3250.984375 0)"/>
     <use xlink:href="#DejaVuSans-61" transform="translate(3303.474609 0)"/>
     <use xlink:href="#DejaVuSans-74" transform="translate(3364.753906 0)"/>
     <use xlink:href="#DejaVuSans-69" transform="translate(3403.962891 0)"/>
     <use xlink:href="#DejaVuSans-6f" transform="translate(3431.746094 0)"/>
     <use xlink:href="#DejaVuSans-6e" transform="translate(3492.927734 0)"/>
     <use xlink:href="#DejaVuSans-3a" transform="translate(3556.306641 0)"/>
     <use xlink:href="#DejaVuSans-20" transform="translate(3589.998047 0)"/>
     <use xlink:href="#DejaVuSans-61" transform="translate(3621.785156 0)"/>
     <use xlink:href="#DejaVuSans-72" transform="translate(3683.064453 0)"/>
     <use xlink:href="#DejaVuSans-65" transform="translate(3721.927734 0)"/>
     <use xlink:href="#DejaVuSans-61" transform="translate(3783.451172 0)"/>
     <use xlink:href="#DejaVuSans-29" transform="translate(3844.730469 0)"/>
    </g>
   </g>
   <g id="legend_1">
    <g id="patch_7">
     <path d="M 723.959625 62.598437 
L 727.959625 62.598437 
Q 729.959625 62.598437 729.959625 60.598437 
L 729.959625 56.598437 
Q 729.959625 54.598437 727.959625 54.598437 
L 723.959625 54.598437 
Q 721.959625 54.598437 721.959625 56.598437 
L 721.959625 60.598437 
Q 721.959625 62.598437 723.959625 62.598437 
z
" style="fill: #ffffff; opacity: 0.8; stroke: #cccccc; stroke-width: 0.8; stroke-linejoin: miter"/>
    </g>
   </g>
  </g>
 </g>
 <defs>
  <clipPath id="p0cac9549a0">
   <rect x="78.265625" y="49.598437" width="656.694" height="197.544"/>
  </clipPath>
 </defs>
</svg>
