<?xml version="1.0" encoding="utf-8" standalone="no"?>
<!DOCTYPE svg PUBLIC "-//W3C//DTD SVG 1.1//EN"
  "http://www.w3.org/Graphics/SVG/1.1/DTD/svg11.dtd">
<svg xmlns:xlink="http://www.w3.org/1999/xlink" width="770.869125pt" height="410.417438pt" viewBox="0 0 770.869125 410.417438" xmlns="http://www.w3.org/2000/svg" version="1.1">
 <metadata>
  <rdf:RDF xmlns:dc="http://purl.org/dc/elements/1.1/" xmlns:cc="http://creativecommons.org/ns#" xmlns:rdf="http://www.w3.org/1999/02/22-rdf-syntax-ns#">
   <cc:Work>
    <dc:type rdf:resource="http://purl.org/dc/dcmitype/StillImage"/>
    <dc:date>2025-07-01T12:30:43.783445</dc:date>
    <dc:format>image/svg+xml</dc:format>
    <dc:creator>
     <cc:Agent>
      <dc:title>Matplotlib v3.10.3, https://matplotlib.org/</dc:title>
     </cc:Agent>
    </dc:creator>
   </cc:Work>
  </rdf:RDF>
 </metadata>
 <defs>
  <style type="text/css">*{stroke-linejoin: round; stroke-linecap: butt}</style>
 </defs>
 <g id="figure_1">
  <g id="patch_1">
   <path d="M 0 410.417438 
L 770.869125 410.417438 
L 770.869125 0 
L 0 0 
z
" style="fill: #ffffff"/>
  </g>
  <g id="axes_1">
   <g id="patch_2">
    <path d="M 70.703125 248.342437 
L 675.777125 248.342437 
L 675.777125 49.598437 
L 70.703125 49.598437 
z
" style="fill: #ffffff"/>
   </g>
   <g id="matplotlib.axis_1">
    <g id="xtick_1">
     <g id="text_1">
      <!-- unknown cell -->
      <g style="fill: #262626" transform="translate(169.469104 322.465875) rotate(-90) scale(0.1 -0.1)">
       <defs>
        <path id="DejaVuSans-75" d="M 544 1381 
L 544 3500 
L 1119 3500 
L 1119 1403 
Q 1119 906 1312 657 
Q 1506 409 1894 409 
Q 2359 409 2629 706 
Q 2900 1003 2900 1516 
L 2900 3500 
L 3475 3500 
L 3475 0 
L 2900 0 
L 2900 538 
Q 2691 219 2414 64 
Q 2138 -91 1772 -91 
Q 1169 -91 856 284 
Q 544 659 544 1381 
z
M 1991 3584 
L 1991 3584 
z
" transform="scale(0.015625)"/>
        <path id="DejaVuSans-6e" d="M 3513 2113 
L 3513 0 
L 2938 0 
L 2938 2094 
Q 2938 2591 2744 2837 
Q 2550 3084 2163 3084 
Q 1697 3084 1428 2787 
Q 1159 2491 1159 1978 
L 1159 0 
L 581 0 
L 581 3500 
L 1159 3500 
L 1159 2956 
Q 1366 3272 1645 3428 
Q 1925 3584 2291 3584 
Q 2894 3584 3203 3211 
Q 3513 2838 3513 2113 
z
" transform="scale(0.015625)"/>
        <path id="DejaVuSans-6b" d="M 581 4863 
L 1159 4863 
L 1159 1991 
L 2875 3500 
L 3609 3500 
L 1753 1863 
L 3688 0 
L 2938 0 
L 1159 1709 
L 1159 0 
L 581 0 
L 581 4863 
z
" transform="scale(0.015625)"/>
        <path id="DejaVuSans-6f" d="M 1959 3097 
Q 1497 3097 1228 2736 
Q 959 2375 959 1747 
Q 959 1119 1226 758 
Q 1494 397 1959 397 
Q 2419 397 2687 759 
Q 2956 1122 2956 1747 
Q 2956 2369 2687 2733 
Q 2419 3097 1959 3097 
z
M 1959 3584 
Q 2709 3584 3137 3096 
Q 3566 2609 3566 1747 
Q 3566 888 3137 398 
Q 2709 -91 1959 -91 
Q 1206 -91 779 398 
Q 353 888 353 1747 
Q 353 2609 779 3096 
Q 1206 3584 1959 3584 
z
" transform="scale(0.015625)"/>
        <path id="DejaVuSans-77" d="M 269 3500 
L 844 3500 
L 1563 769 
L 2278 3500 
L 2956 3500 
L 3675 769 
L 4391 3500 
L 4966 3500 
L 4050 0 
L 3372 0 
L 2619 2869 
L 1863 0 
L 1184 0 
L 269 3500 
z
" transform="scale(0.015625)"/>
        <path id="DejaVuSans-20" transform="scale(0.015625)"/>
        <path id="DejaVuSans-63" d="M 3122 3366 
L 3122 2828 
Q 2878 2963 2633 3030 
Q 2388 3097 2138 3097 
Q 1578 3097 1268 2742 
Q 959 2388 959 1747 
Q 959 1106 1268 751 
Q 1578 397 2138 397 
Q 2388 397 2633 464 
Q 2878 531 3122 666 
L 3122 134 
Q 2881 22 2623 -34 
Q 2366 -91 2075 -91 
Q 1284 -91 818 406 
Q 353 903 353 1747 
Q 353 2603 823 3093 
Q 1294 3584 2113 3584 
Q 2378 3584 2631 3529 
Q 2884 3475 3122 3366 
z
" transform="scale(0.015625)"/>
        <path id="DejaVuSans-65" d="M 3597 1894 
L 3597 1613 
L 953 1613 
Q 991 1019 1311 708 
Q 1631 397 2203 397 
Q 2534 397 2845 478 
Q 3156 559 3463 722 
L 3463 178 
Q 3153 47 2828 -22 
Q 2503 -91 2169 -91 
Q 1331 -91 842 396 
Q 353 884 353 1716 
Q 353 2575 817 3079 
Q 1281 3584 2069 3584 
Q 2775 3584 3186 3129 
Q 3597 2675 3597 1894 
z
M 3022 2063 
Q 3016 2534 2758 2815 
Q 2500 3097 2075 3097 
Q 1594 3097 1305 2825 
Q 1016 2553 972 2059 
L 3022 2063 
z
" transform="scale(0.015625)"/>
        <path id="DejaVuSans-6c" d="M 603 4863 
L 1178 4863 
L 1178 0 
L 603 0 
L 603 4863 
z
" transform="scale(0.015625)"/>
       </defs>
       <use xlink:href="#DejaVuSans-75"/>
       <use xlink:href="#DejaVuSans-6e" transform="translate(63.378906 0)"/>
       <use xlink:href="#DejaVuSans-6b" transform="translate(126.757812 0)"/>
       <use xlink:href="#DejaVuSans-6e" transform="translate(184.667969 0)"/>
       <use xlink:href="#DejaVuSans-6f" transform="translate(248.046875 0)"/>
       <use xlink:href="#DejaVuSans-77" transform="translate(309.228516 0)"/>
       <use xlink:href="#DejaVuSans-6e" transform="translate(391.015625 0)"/>
       <use xlink:href="#DejaVuSans-20" transform="translate(454.394531 0)"/>
       <use xlink:href="#DejaVuSans-63" transform="translate(486.181641 0)"/>
       <use xlink:href="#DejaVuSans-65" transform="translate(541.162109 0)"/>
       <use xlink:href="#DejaVuSans-6c" transform="translate(602.685547 0)"/>
       <use xlink:href="#DejaVuSans-6c" transform="translate(630.46875 0)"/>
      </g>
     </g>
    </g>
    <g id="xtick_2">
     <g id="text_2">
      <!-- epithelial cell:ductal  -->
      <g style="fill: #262626" transform="translate(371.160438 360.739312) rotate(-90) scale(0.1 -0.1)">
       <defs>
        <path id="DejaVuSans-70" d="M 1159 525 
L 1159 -1331 
L 581 -1331 
L 581 3500 
L 1159 3500 
L 1159 2969 
Q 1341 3281 1617 3432 
Q 1894 3584 2278 3584 
Q 2916 3584 3314 3078 
Q 3713 2572 3713 1747 
Q 3713 922 3314 415 
Q 2916 -91 2278 -91 
Q 1894 -91 1617 61 
Q 1341 213 1159 525 
z
M 3116 1747 
Q 3116 2381 2855 2742 
Q 2594 3103 2138 3103 
Q 1681 3103 1420 2742 
Q 1159 2381 1159 1747 
Q 1159 1113 1420 752 
Q 1681 391 2138 391 
Q 2594 391 2855 752 
Q 3116 1113 3116 1747 
z
" transform="scale(0.015625)"/>
        <path id="DejaVuSans-69" d="M 603 3500 
L 1178 3500 
L 1178 0 
L 603 0 
L 603 3500 
z
M 603 4863 
L 1178 4863 
L 1178 4134 
L 603 4134 
L 603 4863 
z
" transform="scale(0.015625)"/>
        <path id="DejaVuSans-74" d="M 1172 4494 
L 1172 3500 
L 2356 3500 
L 2356 3053 
L 1172 3053 
L 1172 1153 
Q 1172 725 1289 603 
Q 1406 481 1766 481 
L 2356 481 
L 2356 0 
L 1766 0 
Q 1100 0 847 248 
Q 594 497 594 1153 
L 594 3053 
L 172 3053 
L 172 3500 
L 594 3500 
L 594 4494 
L 1172 4494 
z
" transform="scale(0.015625)"/>
        <path id="DejaVuSans-68" d="M 3513 2113 
L 3513 0 
L 2938 0 
L 2938 2094 
Q 2938 2591 2744 2837 
Q 2550 3084 2163 3084 
Q 1697 3084 1428 2787 
Q 1159 2491 1159 1978 
L 1159 0 
L 581 0 
L 581 4863 
L 1159 4863 
L 1159 2956 
Q 1366 3272 1645 3428 
Q 1925 3584 2291 3584 
Q 2894 3584 3203 3211 
Q 3513 2838 3513 2113 
z
" transform="scale(0.015625)"/>
        <path id="DejaVuSans-61" d="M 2194 1759 
Q 1497 1759 1228 1600 
Q 959 1441 959 1056 
Q 959 750 1161 570 
Q 1363 391 1709 391 
Q 2188 391 2477 730 
Q 2766 1069 2766 1631 
L 2766 1759 
L 2194 1759 
z
M 3341 1997 
L 3341 0 
L 2766 0 
L 2766 531 
Q 2569 213 2275 61 
Q 1981 -91 1556 -91 
Q 1019 -91 701 211 
Q 384 513 384 1019 
Q 384 1609 779 1909 
Q 1175 2209 1959 2209 
L 2766 2209 
L 2766 2266 
Q 2766 2663 2505 2880 
Q 2244 3097 1772 3097 
Q 1472 3097 1187 3025 
Q 903 2953 641 2809 
L 641 3341 
Q 956 3463 1253 3523 
Q 1550 3584 1831 3584 
Q 2591 3584 2966 3190 
Q 3341 2797 3341 1997 
z
" transform="scale(0.015625)"/>
        <path id="DejaVuSans-3a" d="M 750 794 
L 1409 794 
L 1409 0 
L 750 0 
L 750 794 
z
M 750 3309 
L 1409 3309 
L 1409 2516 
L 750 2516 
L 750 3309 
z
" transform="scale(0.015625)"/>
        <path id="DejaVuSans-64" d="M 2906 2969 
L 2906 4863 
L 3481 4863 
L 3481 0 
L 2906 0 
L 2906 525 
Q 2725 213 2448 61 
Q 2172 -91 1784 -91 
Q 1150 -91 751 415 
Q 353 922 353 1747 
Q 353 2572 751 3078 
Q 1150 3584 1784 3584 
Q 2172 3584 2448 3432 
Q 2725 3281 2906 2969 
z
M 947 1747 
Q 947 1113 1208 752 
Q 1469 391 1925 391 
Q 2381 391 2643 752 
Q 2906 1113 2906 1747 
Q 2906 2381 2643 2742 
Q 2381 3103 1925 3103 
Q 1469 3103 1208 2742 
Q 947 2381 947 1747 
z
" transform="scale(0.015625)"/>
       </defs>
       <use xlink:href="#DejaVuSans-65"/>
       <use xlink:href="#DejaVuSans-70" transform="translate(61.523438 0)"/>
       <use xlink:href="#DejaVuSans-69" transform="translate(125 0)"/>
       <use xlink:href="#DejaVuSans-74" transform="translate(152.783203 0)"/>
       <use xlink:href="#DejaVuSans-68" transform="translate(191.992188 0)"/>
       <use xlink:href="#DejaVuSans-65" transform="translate(255.371094 0)"/>
       <use xlink:href="#DejaVuSans-6c" transform="translate(316.894531 0)"/>
       <use xlink:href="#DejaVuSans-69" transform="translate(344.677734 0)"/>
       <use xlink:href="#DejaVuSans-61" transform="translate(372.460938 0)"/>
       <use xlink:href="#DejaVuSans-6c" transform="translate(433.740234 0)"/>
       <use xlink:href="#DejaVuSans-20" transform="translate(461.523438 0)"/>
       <use xlink:href="#DejaVuSans-63" transform="translate(493.310547 0)"/>
       <use xlink:href="#DejaVuSans-65" transform="translate(548.291016 0)"/>
       <use xlink:href="#DejaVuSans-6c" transform="translate(609.814453 0)"/>
       <use xlink:href="#DejaVuSans-6c" transform="translate(637.597656 0)"/>
       <use xlink:href="#DejaVuSans-3a" transform="translate(665.380859 0)"/>
       <use xlink:href="#DejaVuSans-64" transform="translate(699.072266 0)"/>
       <use xlink:href="#DejaVuSans-75" transform="translate(762.548828 0)"/>
       <use xlink:href="#DejaVuSans-63" transform="translate(825.927734 0)"/>
       <use xlink:href="#DejaVuSans-74" transform="translate(880.908203 0)"/>
       <use xlink:href="#DejaVuSans-61" transform="translate(920.117188 0)"/>
       <use xlink:href="#DejaVuSans-6c" transform="translate(981.396484 0)"/>
       <use xlink:href="#DejaVuSans-20" transform="translate(1009.179688 0)"/>
      </g>
     </g>
    </g>
    <g id="xtick_3">
     <g id="text_3">
      <!-- beta cell:pancreatic -->
      <g style="fill: #262626" transform="translate(572.851771 355.623688) rotate(-90) scale(0.1 -0.1)">
       <defs>
        <path id="DejaVuSans-62" d="M 3116 1747 
Q 3116 2381 2855 2742 
Q 2594 3103 2138 3103 
Q 1681 3103 1420 2742 
Q 1159 2381 1159 1747 
Q 1159 1113 1420 752 
Q 1681 391 2138 391 
Q 2594 391 2855 752 
Q 3116 1113 3116 1747 
z
M 1159 2969 
Q 1341 3281 1617 3432 
Q 1894 3584 2278 3584 
Q 2916 3584 3314 3078 
Q 3713 2572 3713 1747 
Q 3713 922 3314 415 
Q 2916 -91 2278 -91 
Q 1894 -91 1617 61 
Q 1341 213 1159 525 
L 1159 0 
L 581 0 
L 581 4863 
L 1159 4863 
L 1159 2969 
z
" transform="scale(0.015625)"/>
        <path id="DejaVuSans-72" d="M 2631 2963 
Q 2534 3019 2420 3045 
Q 2306 3072 2169 3072 
Q 1681 3072 1420 2755 
Q 1159 2438 1159 1844 
L 1159 0 
L 581 0 
L 581 3500 
L 1159 3500 
L 1159 2956 
Q 1341 3275 1631 3429 
Q 1922 3584 2338 3584 
Q 2397 3584 2469 3576 
Q 2541 3569 2628 3553 
L 2631 2963 
z
" transform="scale(0.015625)"/>
       </defs>
       <use xlink:href="#DejaVuSans-62"/>
       <use xlink:href="#DejaVuSans-65" transform="translate(63.476562 0)"/>
       <use xlink:href="#DejaVuSans-74" transform="translate(125 0)"/>
       <use xlink:href="#DejaVuSans-61" transform="translate(164.208984 0)"/>
       <use xlink:href="#DejaVuSans-20" transform="translate(225.488281 0)"/>
       <use xlink:href="#DejaVuSans-63" transform="translate(257.275391 0)"/>
       <use xlink:href="#DejaVuSans-65" transform="translate(312.255859 0)"/>
       <use xlink:href="#DejaVuSans-6c" transform="translate(373.779297 0)"/>
       <use xlink:href="#DejaVuSans-6c" transform="translate(401.5625 0)"/>
       <use xlink:href="#DejaVuSans-3a" transform="translate(429.345703 0)"/>
       <use xlink:href="#DejaVuSans-70" transform="translate(463.037109 0)"/>
       <use xlink:href="#DejaVuSans-61" transform="translate(526.513672 0)"/>
       <use xlink:href="#DejaVuSans-6e" transform="translate(587.792969 0)"/>
       <use xlink:href="#DejaVuSans-63" transform="translate(651.171875 0)"/>
       <use xlink:href="#DejaVuSans-72" transform="translate(706.152344 0)"/>
       <use xlink:href="#DejaVuSans-65" transform="translate(745.015625 0)"/>
       <use xlink:href="#DejaVuSans-61" transform="translate(806.539062 0)"/>
       <use xlink:href="#DejaVuSans-74" transform="translate(867.818359 0)"/>
       <use xlink:href="#DejaVuSans-69" transform="translate(907.027344 0)"/>
       <use xlink:href="#DejaVuSans-63" transform="translate(934.810547 0)"/>
      </g>
     </g>
    </g>
    <g id="text_4">
     <!-- Level Three Cell Type -->
     <g style="fill: #262626" transform="translate(320.125281 372.33775) scale(0.1 -0.1)">
      <defs>
       <path id="DejaVuSans-4c" d="M 628 4666 
L 1259 4666 
L 1259 531 
L 3531 531 
L 3531 0 
L 628 0 
L 628 4666 
z
" transform="scale(0.015625)"/>
       <path id="DejaVuSans-76" d="M 191 3500 
L 800 3500 
L 1894 563 
L 2988 3500 
L 3597 3500 
L 2284 0 
L 1503 0 
L 191 3500 
z
" transform="scale(0.015625)"/>
       <path id="DejaVuSans-54" d="M -19 4666 
L 3928 4666 
L 3928 4134 
L 2272 4134 
L 2272 0 
L 1638 0 
L 1638 4134 
L -19 4134 
L -19 4666 
z
" transform="scale(0.015625)"/>
       <path id="DejaVuSans-43" d="M 4122 4306 
L 4122 3641 
Q 3803 3938 3442 4084 
Q 3081 4231 2675 4231 
Q 1875 4231 1450 3742 
Q 1025 3253 1025 2328 
Q 1025 1406 1450 917 
Q 1875 428 2675 428 
Q 3081 428 3442 575 
Q 3803 722 4122 1019 
L 4122 359 
Q 3791 134 3420 21 
Q 3050 -91 2638 -91 
Q 1578 -91 968 557 
Q 359 1206 359 2328 
Q 359 3453 968 4101 
Q 1578 4750 2638 4750 
Q 3056 4750 3426 4639 
Q 3797 4528 4122 4306 
z
" transform="scale(0.015625)"/>
       <path id="DejaVuSans-79" d="M 2059 -325 
Q 1816 -950 1584 -1140 
Q 1353 -1331 966 -1331 
L 506 -1331 
L 506 -850 
L 844 -850 
Q 1081 -850 1212 -737 
Q 1344 -625 1503 -206 
L 1606 56 
L 191 3500 
L 800 3500 
L 1894 763 
L 2988 3500 
L 3597 3500 
L 2059 -325 
z
" transform="scale(0.015625)"/>
      </defs>
      <use xlink:href="#DejaVuSans-4c"/>
      <use xlink:href="#DejaVuSans-65" transform="translate(53.962891 0)"/>
      <use xlink:href="#DejaVuSans-76" transform="translate(115.486328 0)"/>
      <use xlink:href="#DejaVuSans-65" transform="translate(174.666016 0)"/>
      <use xlink:href="#DejaVuSans-6c" transform="translate(236.189453 0)"/>
      <use xlink:href="#DejaVuSans-20" transform="translate(263.972656 0)"/>
      <use xlink:href="#DejaVuSans-54" transform="translate(295.759766 0)"/>
      <use xlink:href="#DejaVuSans-68" transform="translate(356.84375 0)"/>
      <use xlink:href="#DejaVuSans-72" transform="translate(420.222656 0)"/>
      <use xlink:href="#DejaVuSans-65" transform="translate(459.085938 0)"/>
      <use xlink:href="#DejaVuSans-65" transform="translate(520.609375 0)"/>
      <use xlink:href="#DejaVuSans-20" transform="translate(582.132812 0)"/>
      <use xlink:href="#DejaVuSans-43" transform="translate(613.919922 0)"/>
      <use xlink:href="#DejaVuSans-65" transform="translate(683.744141 0)"/>
      <use xlink:href="#DejaVuSans-6c" transform="translate(745.267578 0)"/>
      <use xlink:href="#DejaVuSans-6c" transform="translate(773.050781 0)"/>
      <use xlink:href="#DejaVuSans-20" transform="translate(800.833984 0)"/>
      <use xlink:href="#DejaVuSans-54" transform="translate(832.621094 0)"/>
      <use xlink:href="#DejaVuSans-79" transform="translate(878.080078 0)"/>
      <use xlink:href="#DejaVuSans-70" transform="translate(937.259766 0)"/>
      <use xlink:href="#DejaVuSans-65" transform="translate(1000.736328 0)"/>
     </g>
    </g>
   </g>
   <g id="matplotlib.axis_2">
    <g id="ytick_1">
     <g id="line2d_1">
      <path d="M 70.703125 221.516627 
L 675.777125 221.516627 
" clip-path="url(#pcbb6b3bc5c)" style="fill: none; stroke: #cccccc; stroke-width: 0.8; stroke-linecap: round"/>
     </g>
     <g id="text_5">
      <!-- 10 -->
      <g style="fill: #262626" transform="translate(49.678125 225.315846) scale(0.1 -0.1)">
       <defs>
        <path id="DejaVuSans-31" d="M 794 531 
L 1825 531 
L 1825 4091 
L 703 3866 
L 703 4441 
L 1819 4666 
L 2450 4666 
L 2450 531 
L 3481 531 
L 3481 0 
L 794 0 
L 794 531 
z
" transform="scale(0.015625)"/>
        <path id="DejaVuSans-30" d="M 2034 4250 
Q 1547 4250 1301 3770 
Q 1056 3291 1056 2328 
Q 1056 1369 1301 889 
Q 1547 409 2034 409 
Q 2525 409 2770 889 
Q 3016 1369 3016 2328 
Q 3016 3291 2770 3770 
Q 2525 4250 2034 4250 
z
M 2034 4750 
Q 2819 4750 3233 4129 
Q 3647 3509 3647 2328 
Q 3647 1150 3233 529 
Q 2819 -91 2034 -91 
Q 1250 -91 836 529 
Q 422 1150 422 2328 
Q 422 3509 836 4129 
Q 1250 4750 2034 4750 
z
" transform="scale(0.015625)"/>
       </defs>
       <use xlink:href="#DejaVuSans-31"/>
       <use xlink:href="#DejaVuSans-30" transform="translate(63.623047 0)"/>
      </g>
     </g>
    </g>
    <g id="ytick_2">
     <g id="line2d_2">
      <path d="M 70.703125 193.178395 
L 675.777125 193.178395 
" clip-path="url(#pcbb6b3bc5c)" style="fill: none; stroke: #cccccc; stroke-width: 0.8; stroke-linecap: round"/>
     </g>
     <g id="text_6">
      <!-- 20 -->
      <g style="fill: #262626" transform="translate(49.678125 196.977613) scale(0.1 -0.1)">
       <defs>
        <path id="DejaVuSans-32" d="M 1228 531 
L 3431 531 
L 3431 0 
L 469 0 
L 469 531 
Q 828 903 1448 1529 
Q 2069 2156 2228 2338 
Q 2531 2678 2651 2914 
Q 2772 3150 2772 3378 
Q 2772 3750 2511 3984 
Q 2250 4219 1831 4219 
Q 1534 4219 1204 4116 
Q 875 4013 500 3803 
L 500 4441 
Q 881 4594 1212 4672 
Q 1544 4750 1819 4750 
Q 2544 4750 2975 4387 
Q 3406 4025 3406 3419 
Q 3406 3131 3298 2873 
Q 3191 2616 2906 2266 
Q 2828 2175 2409 1742 
Q 1991 1309 1228 531 
z
" transform="scale(0.015625)"/>
       </defs>
       <use xlink:href="#DejaVuSans-32"/>
       <use xlink:href="#DejaVuSans-30" transform="translate(63.623047 0)"/>
      </g>
     </g>
    </g>
    <g id="ytick_3">
     <g id="line2d_3">
      <path d="M 70.703125 164.840162 
L 675.777125 164.840162 
" clip-path="url(#pcbb6b3bc5c)" style="fill: none; stroke: #cccccc; stroke-width: 0.8; stroke-linecap: round"/>
     </g>
     <g id="text_7">
      <!-- 30 -->
      <g style="fill: #262626" transform="translate(49.678125 168.639381) scale(0.1 -0.1)">
       <defs>
        <path id="DejaVuSans-33" d="M 2597 2516 
Q 3050 2419 3304 2112 
Q 3559 1806 3559 1356 
Q 3559 666 3084 287 
Q 2609 -91 1734 -91 
Q 1441 -91 1130 -33 
Q 819 25 488 141 
L 488 750 
Q 750 597 1062 519 
Q 1375 441 1716 441 
Q 2309 441 2620 675 
Q 2931 909 2931 1356 
Q 2931 1769 2642 2001 
Q 2353 2234 1838 2234 
L 1294 2234 
L 1294 2753 
L 1863 2753 
Q 2328 2753 2575 2939 
Q 2822 3125 2822 3475 
Q 2822 3834 2567 4026 
Q 2313 4219 1838 4219 
Q 1578 4219 1281 4162 
Q 984 4106 628 3988 
L 628 4550 
Q 988 4650 1302 4700 
Q 1616 4750 1894 4750 
Q 2613 4750 3031 4423 
Q 3450 4097 3450 3541 
Q 3450 3153 3228 2886 
Q 3006 2619 2597 2516 
z
" transform="scale(0.015625)"/>
       </defs>
       <use xlink:href="#DejaVuSans-33"/>
       <use xlink:href="#DejaVuSans-30" transform="translate(63.623047 0)"/>
      </g>
     </g>
    </g>
    <g id="ytick_4">
     <g id="line2d_4">
      <path d="M 70.703125 136.50193 
L 675.777125 136.50193 
" clip-path="url(#pcbb6b3bc5c)" style="fill: none; stroke: #cccccc; stroke-width: 0.8; stroke-linecap: round"/>
     </g>
     <g id="text_8">
      <!-- 40 -->
      <g style="fill: #262626" transform="translate(49.678125 140.301149) scale(0.1 -0.1)">
       <defs>
        <path id="DejaVuSans-34" d="M 2419 4116 
L 825 1625 
L 2419 1625 
L 2419 4116 
z
M 2253 4666 
L 3047 4666 
L 3047 1625 
L 3713 1625 
L 3713 1100 
L 3047 1100 
L 3047 0 
L 2419 0 
L 2419 1100 
L 313 1100 
L 313 1709 
L 2253 4666 
z
" transform="scale(0.015625)"/>
       </defs>
       <use xlink:href="#DejaVuSans-34"/>
       <use xlink:href="#DejaVuSans-30" transform="translate(63.623047 0)"/>
      </g>
     </g>
    </g>
    <g id="ytick_5">
     <g id="line2d_5">
      <path d="M 70.703125 108.163698 
L 675.777125 108.163698 
" clip-path="url(#pcbb6b3bc5c)" style="fill: none; stroke: #cccccc; stroke-width: 0.8; stroke-linecap: round"/>
     </g>
     <g id="text_9">
      <!-- 50 -->
      <g style="fill: #262626" transform="translate(49.678125 111.962916) scale(0.1 -0.1)">
       <defs>
        <path id="DejaVuSans-35" d="M 691 4666 
L 3169 4666 
L 3169 4134 
L 1269 4134 
L 1269 2991 
Q 1406 3038 1543 3061 
Q 1681 3084 1819 3084 
Q 2600 3084 3056 2656 
Q 3513 2228 3513 1497 
Q 3513 744 3044 326 
Q 2575 -91 1722 -91 
Q 1428 -91 1123 -41 
Q 819 9 494 109 
L 494 744 
Q 775 591 1075 516 
Q 1375 441 1709 441 
Q 2250 441 2565 725 
Q 2881 1009 2881 1497 
Q 2881 1984 2565 2268 
Q 2250 2553 1709 2553 
Q 1456 2553 1204 2497 
Q 953 2441 691 2322 
L 691 4666 
z
" transform="scale(0.015625)"/>
       </defs>
       <use xlink:href="#DejaVuSans-35"/>
       <use xlink:href="#DejaVuSans-30" transform="translate(63.623047 0)"/>
      </g>
     </g>
    </g>
    <g id="ytick_6">
     <g id="line2d_6">
      <path d="M 70.703125 79.825465 
L 675.777125 79.825465 
" clip-path="url(#pcbb6b3bc5c)" style="fill: none; stroke: #cccccc; stroke-width: 0.8; stroke-linecap: round"/>
     </g>
     <g id="text_10">
      <!-- 60 -->
      <g style="fill: #262626" transform="translate(49.678125 83.624684) scale(0.1 -0.1)">
       <defs>
        <path id="DejaVuSans-36" d="M 2113 2584 
Q 1688 2584 1439 2293 
Q 1191 2003 1191 1497 
Q 1191 994 1439 701 
Q 1688 409 2113 409 
Q 2538 409 2786 701 
Q 3034 994 3034 1497 
Q 3034 2003 2786 2293 
Q 2538 2584 2113 2584 
z
M 3366 4563 
L 3366 3988 
Q 3128 4100 2886 4159 
Q 2644 4219 2406 4219 
Q 1781 4219 1451 3797 
Q 1122 3375 1075 2522 
Q 1259 2794 1537 2939 
Q 1816 3084 2150 3084 
Q 2853 3084 3261 2657 
Q 3669 2231 3669 1497 
Q 3669 778 3244 343 
Q 2819 -91 2113 -91 
Q 1303 -91 875 529 
Q 447 1150 447 2328 
Q 447 3434 972 4092 
Q 1497 4750 2381 4750 
Q 2619 4750 2861 4703 
Q 3103 4656 3366 4563 
z
" transform="scale(0.015625)"/>
       </defs>
       <use xlink:href="#DejaVuSans-36"/>
       <use xlink:href="#DejaVuSans-30" transform="translate(63.623047 0)"/>
      </g>
     </g>
    </g>
    <g id="ytick_7">
     <g id="line2d_7">
      <path d="M 70.703125 51.487233 
L 675.777125 51.487233 
" clip-path="url(#pcbb6b3bc5c)" style="fill: none; stroke: #cccccc; stroke-width: 0.8; stroke-linecap: round"/>
     </g>
     <g id="text_11">
      <!-- 70 -->
      <g style="fill: #262626" transform="translate(49.678125 55.286452) scale(0.1 -0.1)">
       <defs>
        <path id="DejaVuSans-37" d="M 525 4666 
L 3525 4666 
L 3525 4397 
L 1831 0 
L 1172 0 
L 2766 4134 
L 525 4134 
L 525 4666 
z
" transform="scale(0.015625)"/>
       </defs>
       <use xlink:href="#DejaVuSans-37"/>
       <use xlink:href="#DejaVuSans-30" transform="translate(63.623047 0)"/>
      </g>
     </g>
    </g>
    <g id="text_12">
     <!-- Distance (μm) -->
     <g style="fill: #262626" transform="translate(43.598438 184.375125) rotate(-90) scale(0.1 -0.1)">
      <defs>
       <path id="DejaVuSans-44" d="M 1259 4147 
L 1259 519 
L 2022 519 
Q 2988 519 3436 956 
Q 3884 1394 3884 2338 
Q 3884 3275 3436 3711 
Q 2988 4147 2022 4147 
L 1259 4147 
z
M 628 4666 
L 1925 4666 
Q 3281 4666 3915 4102 
Q 4550 3538 4550 2338 
Q 4550 1131 3912 565 
Q 3275 0 1925 0 
L 628 0 
L 628 4666 
z
" transform="scale(0.015625)"/>
       <path id="DejaVuSans-73" d="M 2834 3397 
L 2834 2853 
Q 2591 2978 2328 3040 
Q 2066 3103 1784 3103 
Q 1356 3103 1142 2972 
Q 928 2841 928 2578 
Q 928 2378 1081 2264 
Q 1234 2150 1697 2047 
L 1894 2003 
Q 2506 1872 2764 1633 
Q 3022 1394 3022 966 
Q 3022 478 2636 193 
Q 2250 -91 1575 -91 
Q 1294 -91 989 -36 
Q 684 19 347 128 
L 347 722 
Q 666 556 975 473 
Q 1284 391 1588 391 
Q 1994 391 2212 530 
Q 2431 669 2431 922 
Q 2431 1156 2273 1281 
Q 2116 1406 1581 1522 
L 1381 1569 
Q 847 1681 609 1914 
Q 372 2147 372 2553 
Q 372 3047 722 3315 
Q 1072 3584 1716 3584 
Q 2034 3584 2315 3537 
Q 2597 3491 2834 3397 
z
" transform="scale(0.015625)"/>
       <path id="DejaVuSans-28" d="M 1984 4856 
Q 1566 4138 1362 3434 
Q 1159 2731 1159 2009 
Q 1159 1288 1364 580 
Q 1569 -128 1984 -844 
L 1484 -844 
Q 1016 -109 783 600 
Q 550 1309 550 2009 
Q 550 2706 781 3412 
Q 1013 4119 1484 4856 
L 1984 4856 
z
" transform="scale(0.015625)"/>
       <path id="DejaVuSans-3bc" d="M 544 -1331 
L 544 3500 
L 1119 3500 
L 1119 1325 
Q 1119 872 1334 640 
Q 1550 409 1972 409 
Q 2434 409 2667 671 
Q 2900 934 2900 1459 
L 2900 3500 
L 3475 3500 
L 3475 806 
Q 3475 619 3529 530 
Q 3584 441 3700 441 
Q 3728 441 3778 458 
Q 3828 475 3916 513 
L 3916 50 
Q 3788 -22 3673 -56 
Q 3559 -91 3450 -91 
Q 3234 -91 3106 31 
Q 2978 153 2931 403 
Q 2775 156 2548 32 
Q 2322 -91 2016 -91 
Q 1697 -91 1473 31 
Q 1250 153 1119 397 
L 1119 -1331 
L 544 -1331 
z
" transform="scale(0.015625)"/>
       <path id="DejaVuSans-6d" d="M 3328 2828 
Q 3544 3216 3844 3400 
Q 4144 3584 4550 3584 
Q 5097 3584 5394 3201 
Q 5691 2819 5691 2113 
L 5691 0 
L 5113 0 
L 5113 2094 
Q 5113 2597 4934 2840 
Q 4756 3084 4391 3084 
Q 3944 3084 3684 2787 
Q 3425 2491 3425 1978 
L 3425 0 
L 2847 0 
L 2847 2094 
Q 2847 2600 2669 2842 
Q 2491 3084 2119 3084 
Q 1678 3084 1418 2786 
Q 1159 2488 1159 1978 
L 1159 0 
L 581 0 
L 581 3500 
L 1159 3500 
L 1159 2956 
Q 1356 3278 1631 3431 
Q 1906 3584 2284 3584 
Q 2666 3584 2933 3390 
Q 3200 3197 3328 2828 
z
" transform="scale(0.015625)"/>
       <path id="DejaVuSans-29" d="M 513 4856 
L 1013 4856 
Q 1481 4119 1714 3412 
Q 1947 2706 1947 2009 
Q 1947 1309 1714 600 
Q 1481 -109 1013 -844 
L 513 -844 
Q 928 -128 1133 580 
Q 1338 1288 1338 2009 
Q 1338 2731 1133 3434 
Q 928 4138 513 4856 
z
" transform="scale(0.015625)"/>
      </defs>
      <use xlink:href="#DejaVuSans-44"/>
      <use xlink:href="#DejaVuSans-69" transform="translate(77.001953 0)"/>
      <use xlink:href="#DejaVuSans-73" transform="translate(104.785156 0)"/>
      <use xlink:href="#DejaVuSans-74" transform="translate(156.884766 0)"/>
      <use xlink:href="#DejaVuSans-61" transform="translate(196.09375 0)"/>
      <use xlink:href="#DejaVuSans-6e" transform="translate(257.373047 0)"/>
      <use xlink:href="#DejaVuSans-63" transform="translate(320.751953 0)"/>
      <use xlink:href="#DejaVuSans-65" transform="translate(375.732422 0)"/>
      <use xlink:href="#DejaVuSans-20" transform="translate(437.255859 0)"/>
      <use xlink:href="#DejaVuSans-28" transform="translate(469.042969 0)"/>
      <use xlink:href="#DejaVuSans-3bc" transform="translate(508.056641 0)"/>
      <use xlink:href="#DejaVuSans-6d" transform="translate(571.679688 0)"/>
      <use xlink:href="#DejaVuSans-29" transform="translate(669.091797 0)"/>
     </g>
    </g>
   </g>
   <g id="patch_3">
    <path d="M 171.548792 249.854859 
L 171.548792 249.854859 
L 171.548792 249.854859 
L 171.548792 249.854859 
z
" clip-path="url(#pcbb6b3bc5c)" style="fill: #de7959; stroke: #595959; stroke-width: 0.8; stroke-linejoin: miter"/>
   </g>
   <g id="patch_4">
    <path d="M 171.548792 249.854859 
L 171.548792 249.854859 
L 171.548792 249.854859 
L 171.548792 249.854859 
z
" clip-path="url(#pcbb6b3bc5c)" style="fill: #f0d999; stroke: #595959; stroke-width: 0.8; stroke-linejoin: miter"/>
   </g>
   <g id="patch_5">
    <path d="M 171.548792 249.854859 
L 171.548792 249.854859 
L 171.548792 249.854859 
L 171.548792 249.854859 
z
" clip-path="url(#pcbb6b3bc5c)" style="fill: #dee9a4; stroke: #595959; stroke-width: 0.8; stroke-linejoin: miter"/>
   </g>
   <g id="patch_6">
    <path d="M 171.548792 249.854859 
L 171.548792 249.854859 
L 171.548792 249.854859 
L 171.548792 249.854859 
z
" clip-path="url(#pcbb6b3bc5c)" style="fill: #72b6a1; stroke: #595959; stroke-width: 0.8; stroke-linejoin: miter"/>
   </g>
   <g id="patch_7">
    <path d="M 151.379658 221.266934 
L 161.464225 221.266934 
L 161.464225 194.18123 
L 151.379658 194.18123 
L 151.379658 221.266934 
z
" clip-path="url(#pcbb6b3bc5c)" style="fill: #de7959; stroke: #595959; stroke-linejoin: miter"/>
   </g>
   <g id="line2d_8">
    <path d="M 156.421942 221.266934 
L 156.421942 239.308619 
" clip-path="url(#pcbb6b3bc5c)" style="fill: none; stroke: #595959"/>
   </g>
   <g id="line2d_9">
    <path d="M 156.421942 194.18123 
L 156.421942 153.554474 
" clip-path="url(#pcbb6b3bc5c)" style="fill: none; stroke: #595959"/>
   </g>
   <g id="line2d_10">
    <path d="M 153.9008 239.308619 
L 158.943083 239.308619 
" clip-path="url(#pcbb6b3bc5c)" style="fill: none; stroke: #595959; stroke-linecap: round"/>
   </g>
   <g id="line2d_11">
    <path d="M 153.9008 153.554474 
L 158.943083 153.554474 
" clip-path="url(#pcbb6b3bc5c)" style="fill: none; stroke: #595959; stroke-linecap: round"/>
   </g>
   <g id="patch_8">
    <path d="M 353.070992 217.869041 
L 363.155558 217.869041 
L 363.155558 190.997913 
L 353.070992 190.997913 
L 353.070992 217.869041 
z
" clip-path="url(#pcbb6b3bc5c)" style="fill: #de7959; stroke: #595959; stroke-linejoin: miter"/>
   </g>
   <g id="line2d_12">
    <path d="M 358.113275 217.869041 
L 358.113275 238.802949 
" clip-path="url(#pcbb6b3bc5c)" style="fill: none; stroke: #595959"/>
   </g>
   <g id="line2d_13">
    <path d="M 358.113275 190.997913 
L 358.113275 150.691695 
" clip-path="url(#pcbb6b3bc5c)" style="fill: none; stroke: #595959"/>
   </g>
   <g id="line2d_14">
    <path d="M 355.592133 238.802949 
L 360.634417 238.802949 
" clip-path="url(#pcbb6b3bc5c)" style="fill: none; stroke: #595959; stroke-linecap: round"/>
   </g>
   <g id="line2d_15">
    <path d="M 355.592133 150.691695 
L 360.634417 150.691695 
" clip-path="url(#pcbb6b3bc5c)" style="fill: none; stroke: #595959; stroke-linecap: round"/>
   </g>
   <g id="patch_9">
    <path d="M 554.762325 205.862092 
L 564.846892 205.862092 
L 564.846892 158.114236 
L 554.762325 158.114236 
L 554.762325 205.862092 
z
" clip-path="url(#pcbb6b3bc5c)" style="fill: #de7959; stroke: #595959; stroke-linejoin: miter"/>
   </g>
   <g id="line2d_16">
    <path d="M 559.804608 205.862092 
L 559.804608 236.096947 
" clip-path="url(#pcbb6b3bc5c)" style="fill: none; stroke: #595959"/>
   </g>
   <g id="line2d_17">
    <path d="M 559.804608 158.114236 
L 559.804608 86.528274 
" clip-path="url(#pcbb6b3bc5c)" style="fill: none; stroke: #595959"/>
   </g>
   <g id="line2d_18">
    <path d="M 557.283467 236.096947 
L 562.32575 236.096947 
" clip-path="url(#pcbb6b3bc5c)" style="fill: none; stroke: #595959; stroke-linecap: round"/>
   </g>
   <g id="line2d_19">
    <path d="M 557.283467 86.528274 
L 562.32575 86.528274 
" clip-path="url(#pcbb6b3bc5c)" style="fill: none; stroke: #595959; stroke-linecap: round"/>
   </g>
   <g id="patch_10">
    <path d="M 161.464225 220.937363 
L 171.548792 220.937363 
L 171.548792 195.388659 
L 161.464225 195.388659 
L 161.464225 220.937363 
z
" clip-path="url(#pcbb6b3bc5c)" style="fill: #f0d999; stroke: #595959; stroke-linejoin: miter"/>
   </g>
   <g id="line2d_20">
    <path d="M 166.506508 220.937363 
L 166.506508 238.516024 
" clip-path="url(#pcbb6b3bc5c)" style="fill: none; stroke: #595959"/>
   </g>
   <g id="line2d_21">
    <path d="M 166.506508 195.388659 
L 166.506508 157.065862 
" clip-path="url(#pcbb6b3bc5c)" style="fill: none; stroke: #595959"/>
   </g>
   <g id="line2d_22">
    <path d="M 163.985367 238.516024 
L 169.02765 238.516024 
" clip-path="url(#pcbb6b3bc5c)" style="fill: none; stroke: #595959; stroke-linecap: round"/>
   </g>
   <g id="line2d_23">
    <path d="M 163.985367 157.065862 
L 169.02765 157.065862 
" clip-path="url(#pcbb6b3bc5c)" style="fill: none; stroke: #595959; stroke-linecap: round"/>
   </g>
   <g id="patch_11">
    <path d="M 363.155558 217.869041 
L 373.240125 217.869041 
L 373.240125 191.678256 
L 363.155558 191.678256 
L 363.155558 217.869041 
z
" clip-path="url(#pcbb6b3bc5c)" style="fill: #f0d999; stroke: #595959; stroke-linejoin: miter"/>
   </g>
   <g id="line2d_24">
    <path d="M 368.197842 217.869041 
L 368.197842 236.754747 
" clip-path="url(#pcbb6b3bc5c)" style="fill: none; stroke: #595959"/>
   </g>
   <g id="line2d_25">
    <path d="M 368.197842 191.678256 
L 368.197842 152.392349 
" clip-path="url(#pcbb6b3bc5c)" style="fill: none; stroke: #595959"/>
   </g>
   <g id="line2d_26">
    <path d="M 365.6767 236.754747 
L 370.718983 236.754747 
" clip-path="url(#pcbb6b3bc5c)" style="fill: none; stroke: #595959; stroke-linecap: round"/>
   </g>
   <g id="line2d_27">
    <path d="M 365.6767 152.392349 
L 370.718983 152.392349 
" clip-path="url(#pcbb6b3bc5c)" style="fill: none; stroke: #595959; stroke-linecap: round"/>
   </g>
   <g id="patch_12">
    <path d="M 564.846892 198.951632 
L 574.931458 198.951632 
L 574.931458 143.051299 
L 564.846892 143.051299 
L 564.846892 198.951632 
z
" clip-path="url(#pcbb6b3bc5c)" style="fill: #f0d999; stroke: #595959; stroke-linejoin: miter"/>
   </g>
   <g id="line2d_28">
    <path d="M 569.889175 198.951632 
L 569.889175 234.385195 
" clip-path="url(#pcbb6b3bc5c)" style="fill: none; stroke: #595959"/>
   </g>
   <g id="line2d_29">
    <path d="M 569.889175 143.051299 
L 569.889175 59.202359 
" clip-path="url(#pcbb6b3bc5c)" style="fill: none; stroke: #595959"/>
   </g>
   <g id="line2d_30">
    <path d="M 567.368033 234.385195 
L 572.410317 234.385195 
" clip-path="url(#pcbb6b3bc5c)" style="fill: none; stroke: #595959; stroke-linecap: round"/>
   </g>
   <g id="line2d_31">
    <path d="M 567.368033 59.202359 
L 572.410317 59.202359 
" clip-path="url(#pcbb6b3bc5c)" style="fill: none; stroke: #595959; stroke-linecap: round"/>
   </g>
   <g id="patch_13">
    <path d="M 171.548792 220.012131 
L 181.633358 220.012131 
L 181.633358 190.691036 
L 171.548792 190.691036 
L 171.548792 220.012131 
z
" clip-path="url(#pcbb6b3bc5c)" style="fill: #dee9a4; stroke: #595959; stroke-linejoin: miter"/>
   </g>
   <g id="line2d_32">
    <path d="M 176.591075 220.012131 
L 176.591075 238.431352 
" clip-path="url(#pcbb6b3bc5c)" style="fill: none; stroke: #595959"/>
   </g>
   <g id="line2d_33">
    <path d="M 176.591075 190.691036 
L 176.591075 146.709533 
" clip-path="url(#pcbb6b3bc5c)" style="fill: none; stroke: #595959"/>
   </g>
   <g id="line2d_34">
    <path d="M 174.069933 238.431352 
L 179.112217 238.431352 
" clip-path="url(#pcbb6b3bc5c)" style="fill: none; stroke: #595959; stroke-linecap: round"/>
   </g>
   <g id="line2d_35">
    <path d="M 174.069933 146.709533 
L 179.112217 146.709533 
" clip-path="url(#pcbb6b3bc5c)" style="fill: none; stroke: #595959; stroke-linecap: round"/>
   </g>
   <g id="patch_14">
    <path d="M 373.240125 216.414544 
L 383.324692 216.414544 
L 383.324692 187.495293 
L 373.240125 187.495293 
L 373.240125 216.414544 
z
" clip-path="url(#pcbb6b3bc5c)" style="fill: #dee9a4; stroke: #595959; stroke-linejoin: miter"/>
   </g>
   <g id="line2d_36">
    <path d="M 378.282408 216.414544 
L 378.282408 237.639799 
" clip-path="url(#pcbb6b3bc5c)" style="fill: none; stroke: #595959"/>
   </g>
   <g id="line2d_37">
    <path d="M 378.282408 187.495293 
L 378.282408 144.116792 
" clip-path="url(#pcbb6b3bc5c)" style="fill: none; stroke: #595959"/>
   </g>
   <g id="line2d_38">
    <path d="M 375.761267 237.639799 
L 380.80355 237.639799 
" clip-path="url(#pcbb6b3bc5c)" style="fill: none; stroke: #595959; stroke-linecap: round"/>
   </g>
   <g id="line2d_39">
    <path d="M 375.761267 144.116792 
L 380.80355 144.116792 
" clip-path="url(#pcbb6b3bc5c)" style="fill: none; stroke: #595959; stroke-linecap: round"/>
   </g>
   <g id="patch_15">
    <path d="M 574.931458 199.091442 
L 585.016025 199.091442 
L 585.016025 142.839098 
L 574.931458 142.839098 
L 574.931458 199.091442 
z
" clip-path="url(#pcbb6b3bc5c)" style="fill: #dee9a4; stroke: #595959; stroke-linejoin: miter"/>
   </g>
   <g id="line2d_40">
    <path d="M 579.973742 199.091442 
L 579.973742 235.157175 
" clip-path="url(#pcbb6b3bc5c)" style="fill: none; stroke: #595959"/>
   </g>
   <g id="line2d_41">
    <path d="M 579.973742 142.839098 
L 579.973742 58.632256 
" clip-path="url(#pcbb6b3bc5c)" style="fill: none; stroke: #595959"/>
   </g>
   <g id="line2d_42">
    <path d="M 577.4526 235.157175 
L 582.494883 235.157175 
" clip-path="url(#pcbb6b3bc5c)" style="fill: none; stroke: #595959; stroke-linecap: round"/>
   </g>
   <g id="line2d_43">
    <path d="M 577.4526 58.632256 
L 582.494883 58.632256 
" clip-path="url(#pcbb6b3bc5c)" style="fill: none; stroke: #595959; stroke-linecap: round"/>
   </g>
   <g id="patch_16">
    <path d="M 181.633358 221.082132 
L 191.717925 221.082132 
L 191.717925 190.822845 
L 181.633358 190.822845 
L 181.633358 221.082132 
z
" clip-path="url(#pcbb6b3bc5c)" style="fill: #72b6a1; stroke: #595959; stroke-linejoin: miter"/>
   </g>
   <g id="line2d_44">
    <path d="M 186.675642 221.082132 
L 186.675642 237.805277 
" clip-path="url(#pcbb6b3bc5c)" style="fill: none; stroke: #595959"/>
   </g>
   <g id="line2d_45">
    <path d="M 186.675642 190.822845 
L 186.675642 145.433953 
" clip-path="url(#pcbb6b3bc5c)" style="fill: none; stroke: #595959"/>
   </g>
   <g id="line2d_46">
    <path d="M 184.1545 237.805277 
L 189.196783 237.805277 
" clip-path="url(#pcbb6b3bc5c)" style="fill: none; stroke: #595959; stroke-linecap: round"/>
   </g>
   <g id="line2d_47">
    <path d="M 184.1545 145.433953 
L 189.196783 145.433953 
" clip-path="url(#pcbb6b3bc5c)" style="fill: none; stroke: #595959; stroke-linecap: round"/>
   </g>
   <g id="patch_17">
    <path d="M 383.324692 217.195738 
L 393.409258 217.195738 
L 393.409258 187.886719 
L 383.324692 187.886719 
L 383.324692 217.195738 
z
" clip-path="url(#pcbb6b3bc5c)" style="fill: #72b6a1; stroke: #595959; stroke-linejoin: miter"/>
   </g>
   <g id="line2d_48">
    <path d="M 388.366975 217.195738 
L 388.366975 237.42474 
" clip-path="url(#pcbb6b3bc5c)" style="fill: none; stroke: #595959"/>
   </g>
   <g id="line2d_49">
    <path d="M 388.366975 187.886719 
L 388.366975 143.924439 
" clip-path="url(#pcbb6b3bc5c)" style="fill: none; stroke: #595959"/>
   </g>
   <g id="line2d_50">
    <path d="M 385.845833 237.42474 
L 390.888117 237.42474 
" clip-path="url(#pcbb6b3bc5c)" style="fill: none; stroke: #595959; stroke-linecap: round"/>
   </g>
   <g id="line2d_51">
    <path d="M 385.845833 143.924439 
L 390.888117 143.924439 
" clip-path="url(#pcbb6b3bc5c)" style="fill: none; stroke: #595959; stroke-linecap: round"/>
   </g>
   <g id="patch_18">
    <path d="M 585.016025 205.42615 
L 595.100592 205.42615 
L 595.100592 154.562102 
L 585.016025 154.562102 
L 585.016025 205.42615 
z
" clip-path="url(#pcbb6b3bc5c)" style="fill: #72b6a1; stroke: #595959; stroke-linejoin: miter"/>
   </g>
   <g id="line2d_52">
    <path d="M 590.058308 205.42615 
L 590.058308 236.143722 
" clip-path="url(#pcbb6b3bc5c)" style="fill: none; stroke: #595959"/>
   </g>
   <g id="line2d_53">
    <path d="M 590.058308 154.562102 
L 590.058308 78.278622 
" clip-path="url(#pcbb6b3bc5c)" style="fill: none; stroke: #595959"/>
   </g>
   <g id="line2d_54">
    <path d="M 587.537167 236.143722 
L 592.57945 236.143722 
" clip-path="url(#pcbb6b3bc5c)" style="fill: none; stroke: #595959; stroke-linecap: round"/>
   </g>
   <g id="line2d_55">
    <path d="M 587.537167 78.278622 
L 592.57945 78.278622 
" clip-path="url(#pcbb6b3bc5c)" style="fill: none; stroke: #595959; stroke-linecap: round"/>
   </g>
   <g id="line2d_56">
    <path d="M 151.379658 211.829851 
L 161.464225 211.829851 
" clip-path="url(#pcbb6b3bc5c)" style="fill: none; stroke: #595959"/>
   </g>
   <g id="line2d_57">
    <path d="M 353.070992 206.227785 
L 363.155558 206.227785 
" clip-path="url(#pcbb6b3bc5c)" style="fill: none; stroke: #595959"/>
   </g>
   <g id="line2d_58">
    <path d="M 554.762325 185.810141 
L 564.846892 185.810141 
" clip-path="url(#pcbb6b3bc5c)" style="fill: none; stroke: #595959"/>
   </g>
   <g id="line2d_59">
    <path d="M 161.464225 212.779396 
L 171.548792 212.779396 
" clip-path="url(#pcbb6b3bc5c)" style="fill: none; stroke: #595959"/>
   </g>
   <g id="line2d_60">
    <path d="M 363.155558 207.06319 
L 373.240125 207.06319 
" clip-path="url(#pcbb6b3bc5c)" style="fill: none; stroke: #595959"/>
   </g>
   <g id="line2d_61">
    <path d="M 564.846892 175.211181 
L 574.931458 175.211181 
" clip-path="url(#pcbb6b3bc5c)" style="fill: none; stroke: #595959"/>
   </g>
   <g id="line2d_62">
    <path d="M 171.548792 210.317185 
L 181.633358 210.317185 
" clip-path="url(#pcbb6b3bc5c)" style="fill: none; stroke: #595959"/>
   </g>
   <g id="line2d_63">
    <path d="M 373.240125 203.963544 
L 383.324692 203.963544 
" clip-path="url(#pcbb6b3bc5c)" style="fill: none; stroke: #595959"/>
   </g>
   <g id="line2d_64">
    <path d="M 574.931458 175.148807 
L 585.016025 175.148807 
" clip-path="url(#pcbb6b3bc5c)" style="fill: none; stroke: #595959"/>
   </g>
   <g id="line2d_65">
    <path d="M 181.633358 210.84885 
L 191.717925 210.84885 
" clip-path="url(#pcbb6b3bc5c)" style="fill: none; stroke: #595959"/>
   </g>
   <g id="line2d_66">
    <path d="M 383.324692 204.491554 
L 393.409258 204.491554 
" clip-path="url(#pcbb6b3bc5c)" style="fill: none; stroke: #595959"/>
   </g>
   <g id="line2d_67">
    <path d="M 585.016025 184.43097 
L 595.100592 184.43097 
" clip-path="url(#pcbb6b3bc5c)" style="fill: none; stroke: #595959"/>
   </g>
   <g id="patch_19">
    <path d="M 70.703125 248.342437 
L 70.703125 49.598437 
" style="fill: none; stroke: #cccccc; stroke-linejoin: miter; stroke-linecap: square"/>
   </g>
   <g id="patch_20">
    <path d="M 675.777125 248.342437 
L 675.777125 49.598437 
" style="fill: none; stroke: #cccccc; stroke-linejoin: miter; stroke-linecap: square"/>
   </g>
   <g id="patch_21">
    <path d="M 70.703125 248.342437 
L 675.777125 248.342437 
" style="fill: none; stroke: #cccccc; stroke-linejoin: miter; stroke-linecap: square"/>
   </g>
   <g id="patch_22">
    <path d="M 70.703125 49.598437 
L 675.777125 49.598437 
" style="fill: none; stroke: #cccccc; stroke-linejoin: miter; stroke-linecap: square"/>
   </g>
   <g id="text_13">
    <!-- Distribution of distances by Level Three Cell Type and region -->
    <g style="fill: #262626" transform="translate(221.459656 43.598437) scale(0.1 -0.1)">
     <defs>
      <path id="DejaVuSans-66" d="M 2375 4863 
L 2375 4384 
L 1825 4384 
Q 1516 4384 1395 4259 
Q 1275 4134 1275 3809 
L 1275 3500 
L 2222 3500 
L 2222 3053 
L 1275 3053 
L 1275 0 
L 697 0 
L 697 3053 
L 147 3053 
L 147 3500 
L 697 3500 
L 697 3744 
Q 697 4328 969 4595 
Q 1241 4863 1831 4863 
L 2375 4863 
z
" transform="scale(0.015625)"/>
      <path id="DejaVuSans-67" d="M 2906 1791 
Q 2906 2416 2648 2759 
Q 2391 3103 1925 3103 
Q 1463 3103 1205 2759 
Q 947 2416 947 1791 
Q 947 1169 1205 825 
Q 1463 481 1925 481 
Q 2391 481 2648 825 
Q 2906 1169 2906 1791 
z
M 3481 434 
Q 3481 -459 3084 -895 
Q 2688 -1331 1869 -1331 
Q 1566 -1331 1297 -1286 
Q 1028 -1241 775 -1147 
L 775 -588 
Q 1028 -725 1275 -790 
Q 1522 -856 1778 -856 
Q 2344 -856 2625 -561 
Q 2906 -266 2906 331 
L 2906 616 
Q 2728 306 2450 153 
Q 2172 0 1784 0 
Q 1141 0 747 490 
Q 353 981 353 1791 
Q 353 2603 747 3093 
Q 1141 3584 1784 3584 
Q 2172 3584 2450 3431 
Q 2728 3278 2906 2969 
L 2906 3500 
L 3481 3500 
L 3481 434 
z
" transform="scale(0.015625)"/>
     </defs>
     <use xlink:href="#DejaVuSans-44"/>
     <use xlink:href="#DejaVuSans-69" transform="translate(77.001953 0)"/>
     <use xlink:href="#DejaVuSans-73" transform="translate(104.785156 0)"/>
     <use xlink:href="#DejaVuSans-74" transform="translate(156.884766 0)"/>
     <use xlink:href="#DejaVuSans-72" transform="translate(196.09375 0)"/>
     <use xlink:href="#DejaVuSans-69" transform="translate(237.207031 0)"/>
     <use xlink:href="#DejaVuSans-62" transform="translate(264.990234 0)"/>
     <use xlink:href="#DejaVuSans-75" transform="translate(328.466797 0)"/>
     <use xlink:href="#DejaVuSans-74" transform="translate(391.845703 0)"/>
     <use xlink:href="#DejaVuSans-69" transform="translate(431.054688 0)"/>
     <use xlink:href="#DejaVuSans-6f" transform="translate(458.837891 0)"/>
     <use xlink:href="#DejaVuSans-6e" transform="translate(520.019531 0)"/>
     <use xlink:href="#DejaVuSans-20" transform="translate(583.398438 0)"/>
     <use xlink:href="#DejaVuSans-6f" transform="translate(615.185547 0)"/>
     <use xlink:href="#DejaVuSans-66" transform="translate(676.367188 0)"/>
     <use xlink:href="#DejaVuSans-20" transform="translate(711.572266 0)"/>
     <use xlink:href="#DejaVuSans-64" transform="translate(743.359375 0)"/>
     <use xlink:href="#DejaVuSans-69" transform="translate(806.835938 0)"/>
     <use xlink:href="#DejaVuSans-73" transform="translate(834.619141 0)"/>
     <use xlink:href="#DejaVuSans-74" transform="translate(886.71875 0)"/>
     <use xlink:href="#DejaVuSans-61" transform="translate(925.927734 0)"/>
     <use xlink:href="#DejaVuSans-6e" transform="translate(987.207031 0)"/>
     <use xlink:href="#DejaVuSans-63" transform="translate(1050.585938 0)"/>
     <use xlink:href="#DejaVuSans-65" transform="translate(1105.566406 0)"/>
     <use xlink:href="#DejaVuSans-73" transform="translate(1167.089844 0)"/>
     <use xlink:href="#DejaVuSans-20" transform="translate(1219.189453 0)"/>
     <use xlink:href="#DejaVuSans-62" transform="translate(1250.976562 0)"/>
     <use xlink:href="#DejaVuSans-79" transform="translate(1314.453125 0)"/>
     <use xlink:href="#DejaVuSans-20" transform="translate(1373.632812 0)"/>
     <use xlink:href="#DejaVuSans-4c" transform="translate(1405.419922 0)"/>
     <use xlink:href="#DejaVuSans-65" transform="translate(1459.382812 0)"/>
     <use xlink:href="#DejaVuSans-76" transform="translate(1520.90625 0)"/>
     <use xlink:href="#DejaVuSans-65" transform="translate(1580.085938 0)"/>
     <use xlink:href="#DejaVuSans-6c" transform="translate(1641.609375 0)"/>
     <use xlink:href="#DejaVuSans-20" transform="translate(1669.392578 0)"/>
     <use xlink:href="#DejaVuSans-54" transform="translate(1701.179688 0)"/>
     <use xlink:href="#DejaVuSans-68" transform="translate(1762.263672 0)"/>
     <use xlink:href="#DejaVuSans-72" transform="translate(1825.642578 0)"/>
     <use xlink:href="#DejaVuSans-65" transform="translate(1864.505859 0)"/>
     <use xlink:href="#DejaVuSans-65" transform="translate(1926.029297 0)"/>
     <use xlink:href="#DejaVuSans-20" transform="translate(1987.552734 0)"/>
     <use xlink:href="#DejaVuSans-43" transform="translate(2019.339844 0)"/>
     <use xlink:href="#DejaVuSans-65" transform="translate(2089.164062 0)"/>
     <use xlink:href="#DejaVuSans-6c" transform="translate(2150.6875 0)"/>
     <use xlink:href="#DejaVuSans-6c" transform="translate(2178.470703 0)"/>
     <use xlink:href="#DejaVuSans-20" transform="translate(2206.253906 0)"/>
     <use xlink:href="#DejaVuSans-54" transform="translate(2238.041016 0)"/>
     <use xlink:href="#DejaVuSans-79" transform="translate(2283.5 0)"/>
     <use xlink:href="#DejaVuSans-70" transform="translate(2342.679688 0)"/>
     <use xlink:href="#DejaVuSans-65" transform="translate(2406.15625 0)"/>
     <use xlink:href="#DejaVuSans-20" transform="translate(2467.679688 0)"/>
     <use xlink:href="#DejaVuSans-61" transform="translate(2499.466797 0)"/>
     <use xlink:href="#DejaVuSans-6e" transform="translate(2560.746094 0)"/>
     <use xlink:href="#DejaVuSans-64" transform="translate(2624.125 0)"/>
     <use xlink:href="#DejaVuSans-20" transform="translate(2687.601562 0)"/>
     <use xlink:href="#DejaVuSans-72" transform="translate(2719.388672 0)"/>
     <use xlink:href="#DejaVuSans-65" transform="translate(2758.251953 0)"/>
     <use xlink:href="#DejaVuSans-67" transform="translate(2819.775391 0)"/>
     <use xlink:href="#DejaVuSans-69" transform="translate(2883.251953 0)"/>
     <use xlink:href="#DejaVuSans-6f" transform="translate(2911.035156 0)"/>
     <use xlink:href="#DejaVuSans-6e" transform="translate(2972.216797 0)"/>
    </g>
   </g>
   <g id="legend_1">
    <g id="patch_23">
     <path d="M 681.937125 108.305437 
L 733.109125 108.305437 
Q 734.869125 108.305437 734.869125 106.545437 
L 734.869125 55.758438 
Q 734.869125 53.998438 733.109125 53.998438 
L 681.937125 53.998438 
Q 680.177125 53.998438 680.177125 55.758438 
L 680.177125 106.545437 
Q 680.177125 108.305437 681.937125 108.305437 
z
" style="fill: #ffffff; opacity: 0.8; stroke: #cccccc; stroke-width: 0.8; stroke-linejoin: miter"/>
    </g>
    <g id="patch_24">
     <path d="M 683.697125 64.205062 
L 701.297125 64.205062 
L 701.297125 58.045063 
L 683.697125 58.045063 
z
" style="fill: #de7959; stroke: #595959; stroke-width: 0.8; stroke-linejoin: miter"/>
    </g>
    <g id="text_14">
     <!-- Head -->
     <g style="fill: #262626" transform="translate(708.337125 64.205062) scale(0.088 -0.088)">
      <defs>
       <path id="DejaVuSans-48" d="M 628 4666 
L 1259 4666 
L 1259 2753 
L 3553 2753 
L 3553 4666 
L 4184 4666 
L 4184 0 
L 3553 0 
L 3553 2222 
L 1259 2222 
L 1259 0 
L 628 0 
L 628 4666 
z
" transform="scale(0.015625)"/>
      </defs>
      <use xlink:href="#DejaVuSans-48"/>
      <use xlink:href="#DejaVuSans-65" transform="translate(75.195312 0)"/>
      <use xlink:href="#DejaVuSans-61" transform="translate(136.71875 0)"/>
      <use xlink:href="#DejaVuSans-64" transform="translate(197.998047 0)"/>
     </g>
    </g>
    <g id="patch_25">
     <path d="M 683.697125 77.121812 
L 701.297125 77.121812 
L 701.297125 70.961812 
L 683.697125 70.961812 
z
" style="fill: #f0d999; stroke: #595959; stroke-width: 0.8; stroke-linejoin: miter"/>
    </g>
    <g id="text_15">
     <!-- Neck -->
     <g style="fill: #262626" transform="translate(708.337125 77.121812) scale(0.088 -0.088)">
      <defs>
       <path id="DejaVuSans-4e" d="M 628 4666 
L 1478 4666 
L 3547 763 
L 3547 4666 
L 4159 4666 
L 4159 0 
L 3309 0 
L 1241 3903 
L 1241 0 
L 628 0 
L 628 4666 
z
" transform="scale(0.015625)"/>
      </defs>
      <use xlink:href="#DejaVuSans-4e"/>
      <use xlink:href="#DejaVuSans-65" transform="translate(74.804688 0)"/>
      <use xlink:href="#DejaVuSans-63" transform="translate(136.328125 0)"/>
      <use xlink:href="#DejaVuSans-6b" transform="translate(191.308594 0)"/>
     </g>
    </g>
    <g id="patch_26">
     <path d="M 683.697125 90.038563 
L 701.297125 90.038563 
L 701.297125 83.878563 
L 683.697125 83.878563 
z
" style="fill: #dee9a4; stroke: #595959; stroke-width: 0.8; stroke-linejoin: miter"/>
    </g>
    <g id="text_16">
     <!-- Body -->
     <g style="fill: #262626" transform="translate(708.337125 90.038563) scale(0.088 -0.088)">
      <defs>
       <path id="DejaVuSans-42" d="M 1259 2228 
L 1259 519 
L 2272 519 
Q 2781 519 3026 730 
Q 3272 941 3272 1375 
Q 3272 1813 3026 2020 
Q 2781 2228 2272 2228 
L 1259 2228 
z
M 1259 4147 
L 1259 2741 
L 2194 2741 
Q 2656 2741 2882 2914 
Q 3109 3088 3109 3444 
Q 3109 3797 2882 3972 
Q 2656 4147 2194 4147 
L 1259 4147 
z
M 628 4666 
L 2241 4666 
Q 2963 4666 3353 4366 
Q 3744 4066 3744 3513 
Q 3744 3084 3544 2831 
Q 3344 2578 2956 2516 
Q 3422 2416 3680 2098 
Q 3938 1781 3938 1306 
Q 3938 681 3513 340 
Q 3088 0 2303 0 
L 628 0 
L 628 4666 
z
" transform="scale(0.015625)"/>
      </defs>
      <use xlink:href="#DejaVuSans-42"/>
      <use xlink:href="#DejaVuSans-6f" transform="translate(68.603516 0)"/>
      <use xlink:href="#DejaVuSans-64" transform="translate(129.785156 0)"/>
      <use xlink:href="#DejaVuSans-79" transform="translate(193.261719 0)"/>
     </g>
    </g>
    <g id="patch_27">
     <path d="M 683.697125 102.955312 
L 701.297125 102.955312 
L 701.297125 96.795312 
L 683.697125 96.795312 
z
" style="fill: #72b6a1; stroke: #595959; stroke-width: 0.8; stroke-linejoin: miter"/>
    </g>
    <g id="text_17">
     <!-- Tail -->
     <g style="fill: #262626" transform="translate(708.337125 102.955312) scale(0.088 -0.088)">
      <use xlink:href="#DejaVuSans-54"/>
      <use xlink:href="#DejaVuSans-61" transform="translate(44.583984 0)"/>
      <use xlink:href="#DejaVuSans-69" transform="translate(105.863281 0)"/>
      <use xlink:href="#DejaVuSans-6c" transform="translate(133.646484 0)"/>
     </g>
    </g>
   </g>
  </g>
 </g>
 <defs>
  <clipPath id="pcbb6b3bc5c">
   <rect x="70.703125" y="49.598437" width="605.074" height="198.744"/>
  </clipPath>
 </defs>
</svg>
