<?xml version="1.0" encoding="utf-8" standalone="no"?>
<!DOCTYPE svg PUBLIC "-//W3C//DTD SVG 1.1//EN"
  "http://www.w3.org/Graphics/SVG/1.1/DTD/svg11.dtd">
<svg xmlns:xlink="http://www.w3.org/1999/xlink" width="770.959625pt" height="410.52025pt" viewBox="0 0 770.959625 410.52025" xmlns="http://www.w3.org/2000/svg" version="1.1">
 <metadata>
  <rdf:RDF xmlns:dc="http://purl.org/dc/elements/1.1/" xmlns:cc="http://creativecommons.org/ns#" xmlns:rdf="http://www.w3.org/1999/02/22-rdf-syntax-ns#">
   <cc:Work>
    <dc:type rdf:resource="http://purl.org/dc/dcmitype/StillImage"/>
    <dc:date>2025-07-01T15:26:47.130058</dc:date>
    <dc:format>image/svg+xml</dc:format>
    <dc:creator>
     <cc:Agent>
      <dc:title>Matplotlib v3.10.3, https://matplotlib.org/</dc:title>
     </cc:Agent>
    </dc:creator>
   </cc:Work>
  </rdf:RDF>
 </metadata>
 <defs>
  <style type="text/css">*{stroke-linejoin: round; stroke-linecap: butt}</style>
 </defs>
 <g id="figure_1">
  <g id="patch_1">
   <path d="M 0 410.52025 
L 770.959625 410.52025 
L 770.959625 -0 
L 0 -0 
z
" style="fill: #ffffff"/>
  </g>
  <g id="axes_1">
   <g id="patch_2">
    <path d="M 78.265625 246.512437 
L 734.959625 246.512437 
L 734.959625 49.598437 
L 78.265625 49.598437 
z
" style="fill: #ffffff"/>
   </g>
   <g id="matplotlib.axis_1">
    <g id="xtick_1">
     <g id="text_1">
      <!-- unknown cell -->
      <g style="fill: #262626" transform="translate(190.474 321.835875) rotate(-90) scale(0.1 -0.1)">
       <defs>
        <path id="DejaVuSans-75" d="M 544 1381 
L 544 3500 
L 1119 3500 
L 1119 1403 
Q 1119 906 1312 657 
Q 1506 409 1894 409 
Q 2359 409 2629 706 
Q 2900 1003 2900 1516 
L 2900 3500 
L 3475 3500 
L 3475 0 
L 2900 0 
L 2900 538 
Q 2691 219 2414 64 
Q 2138 -91 1772 -91 
Q 1169 -91 856 284 
Q 544 659 544 1381 
z
M 1991 3584 
L 1991 3584 
z
" transform="scale(0.015625)"/>
        <path id="DejaVuSans-6e" d="M 3513 2113 
L 3513 0 
L 2938 0 
L 2938 2094 
Q 2938 2591 2744 2837 
Q 2550 3084 2163 3084 
Q 1697 3084 1428 2787 
Q 1159 2491 1159 1978 
L 1159 0 
L 581 0 
L 581 3500 
L 1159 3500 
L 1159 2956 
Q 1366 3272 1645 3428 
Q 1925 3584 2291 3584 
Q 2894 3584 3203 3211 
Q 3513 2838 3513 2113 
z
" transform="scale(0.015625)"/>
        <path id="DejaVuSans-6b" d="M 581 4863 
L 1159 4863 
L 1159 1991 
L 2875 3500 
L 3609 3500 
L 1753 1863 
L 3688 0 
L 2938 0 
L 1159 1709 
L 1159 0 
L 581 0 
L 581 4863 
z
" transform="scale(0.015625)"/>
        <path id="DejaVuSans-6f" d="M 1959 3097 
Q 1497 3097 1228 2736 
Q 959 2375 959 1747 
Q 959 1119 1226 758 
Q 1494 397 1959 397 
Q 2419 397 2687 759 
Q 2956 1122 2956 1747 
Q 2956 2369 2687 2733 
Q 2419 3097 1959 3097 
z
M 1959 3584 
Q 2709 3584 3137 3096 
Q 3566 2609 3566 1747 
Q 3566 888 3137 398 
Q 2709 -91 1959 -91 
Q 1206 -91 779 398 
Q 353 888 353 1747 
Q 353 2609 779 3096 
Q 1206 3584 1959 3584 
z
" transform="scale(0.015625)"/>
        <path id="DejaVuSans-77" d="M 269 3500 
L 844 3500 
L 1563 769 
L 2278 3500 
L 2956 3500 
L 3675 769 
L 4391 3500 
L 4966 3500 
L 4050 0 
L 3372 0 
L 2619 2869 
L 1863 0 
L 1184 0 
L 269 3500 
z
" transform="scale(0.015625)"/>
        <path id="DejaVuSans-20" transform="scale(0.015625)"/>
        <path id="DejaVuSans-63" d="M 3122 3366 
L 3122 2828 
Q 2878 2963 2633 3030 
Q 2388 3097 2138 3097 
Q 1578 3097 1268 2742 
Q 959 2388 959 1747 
Q 959 1106 1268 751 
Q 1578 397 2138 397 
Q 2388 397 2633 464 
Q 2878 531 3122 666 
L 3122 134 
Q 2881 22 2623 -34 
Q 2366 -91 2075 -91 
Q 1284 -91 818 406 
Q 353 903 353 1747 
Q 353 2603 823 3093 
Q 1294 3584 2113 3584 
Q 2378 3584 2631 3529 
Q 2884 3475 3122 3366 
z
" transform="scale(0.015625)"/>
        <path id="DejaVuSans-65" d="M 3597 1894 
L 3597 1613 
L 953 1613 
Q 991 1019 1311 708 
Q 1631 397 2203 397 
Q 2534 397 2845 478 
Q 3156 559 3463 722 
L 3463 178 
Q 3153 47 2828 -22 
Q 2503 -91 2169 -91 
Q 1331 -91 842 396 
Q 353 884 353 1716 
Q 353 2575 817 3079 
Q 1281 3584 2069 3584 
Q 2775 3584 3186 3129 
Q 3597 2675 3597 1894 
z
M 3022 2063 
Q 3016 2534 2758 2815 
Q 2500 3097 2075 3097 
Q 1594 3097 1305 2825 
Q 1016 2553 972 2059 
L 3022 2063 
z
" transform="scale(0.015625)"/>
        <path id="DejaVuSans-6c" d="M 603 4863 
L 1178 4863 
L 1178 0 
L 603 0 
L 603 4863 
z
" transform="scale(0.015625)"/>
       </defs>
       <use xlink:href="#DejaVuSans-75"/>
       <use xlink:href="#DejaVuSans-6e" transform="translate(63.378906 0)"/>
       <use xlink:href="#DejaVuSans-6b" transform="translate(126.757812 0)"/>
       <use xlink:href="#DejaVuSans-6e" transform="translate(184.667969 0)"/>
       <use xlink:href="#DejaVuSans-6f" transform="translate(248.046875 0)"/>
       <use xlink:href="#DejaVuSans-77" transform="translate(309.228516 0)"/>
       <use xlink:href="#DejaVuSans-6e" transform="translate(391.015625 0)"/>
       <use xlink:href="#DejaVuSans-20" transform="translate(454.394531 0)"/>
       <use xlink:href="#DejaVuSans-63" transform="translate(486.181641 0)"/>
       <use xlink:href="#DejaVuSans-65" transform="translate(541.162109 0)"/>
       <use xlink:href="#DejaVuSans-6c" transform="translate(602.685547 0)"/>
       <use xlink:href="#DejaVuSans-6c" transform="translate(630.46875 0)"/>
      </g>
     </g>
    </g>
    <g id="xtick_2">
     <g id="text_2">
      <!-- gland epithelium cell -->
      <g style="fill: #262626" transform="translate(409.372 360.842125) rotate(-90) scale(0.1 -0.1)">
       <defs>
        <path id="DejaVuSans-67" d="M 2906 1791 
Q 2906 2416 2648 2759 
Q 2391 3103 1925 3103 
Q 1463 3103 1205 2759 
Q 947 2416 947 1791 
Q 947 1169 1205 825 
Q 1463 481 1925 481 
Q 2391 481 2648 825 
Q 2906 1169 2906 1791 
z
M 3481 434 
Q 3481 -459 3084 -895 
Q 2688 -1331 1869 -1331 
Q 1566 -1331 1297 -1286 
Q 1028 -1241 775 -1147 
L 775 -588 
Q 1028 -725 1275 -790 
Q 1522 -856 1778 -856 
Q 2344 -856 2625 -561 
Q 2906 -266 2906 331 
L 2906 616 
Q 2728 306 2450 153 
Q 2172 0 1784 0 
Q 1141 0 747 490 
Q 353 981 353 1791 
Q 353 2603 747 3093 
Q 1141 3584 1784 3584 
Q 2172 3584 2450 3431 
Q 2728 3278 2906 2969 
L 2906 3500 
L 3481 3500 
L 3481 434 
z
" transform="scale(0.015625)"/>
        <path id="DejaVuSans-61" d="M 2194 1759 
Q 1497 1759 1228 1600 
Q 959 1441 959 1056 
Q 959 750 1161 570 
Q 1363 391 1709 391 
Q 2188 391 2477 730 
Q 2766 1069 2766 1631 
L 2766 1759 
L 2194 1759 
z
M 3341 1997 
L 3341 0 
L 2766 0 
L 2766 531 
Q 2569 213 2275 61 
Q 1981 -91 1556 -91 
Q 1019 -91 701 211 
Q 384 513 384 1019 
Q 384 1609 779 1909 
Q 1175 2209 1959 2209 
L 2766 2209 
L 2766 2266 
Q 2766 2663 2505 2880 
Q 2244 3097 1772 3097 
Q 1472 3097 1187 3025 
Q 903 2953 641 2809 
L 641 3341 
Q 956 3463 1253 3523 
Q 1550 3584 1831 3584 
Q 2591 3584 2966 3190 
Q 3341 2797 3341 1997 
z
" transform="scale(0.015625)"/>
        <path id="DejaVuSans-64" d="M 2906 2969 
L 2906 4863 
L 3481 4863 
L 3481 0 
L 2906 0 
L 2906 525 
Q 2725 213 2448 61 
Q 2172 -91 1784 -91 
Q 1150 -91 751 415 
Q 353 922 353 1747 
Q 353 2572 751 3078 
Q 1150 3584 1784 3584 
Q 2172 3584 2448 3432 
Q 2725 3281 2906 2969 
z
M 947 1747 
Q 947 1113 1208 752 
Q 1469 391 1925 391 
Q 2381 391 2643 752 
Q 2906 1113 2906 1747 
Q 2906 2381 2643 2742 
Q 2381 3103 1925 3103 
Q 1469 3103 1208 2742 
Q 947 2381 947 1747 
z
" transform="scale(0.015625)"/>
        <path id="DejaVuSans-70" d="M 1159 525 
L 1159 -1331 
L 581 -1331 
L 581 3500 
L 1159 3500 
L 1159 2969 
Q 1341 3281 1617 3432 
Q 1894 3584 2278 3584 
Q 2916 3584 3314 3078 
Q 3713 2572 3713 1747 
Q 3713 922 3314 415 
Q 2916 -91 2278 -91 
Q 1894 -91 1617 61 
Q 1341 213 1159 525 
z
M 3116 1747 
Q 3116 2381 2855 2742 
Q 2594 3103 2138 3103 
Q 1681 3103 1420 2742 
Q 1159 2381 1159 1747 
Q 1159 1113 1420 752 
Q 1681 391 2138 391 
Q 2594 391 2855 752 
Q 3116 1113 3116 1747 
z
" transform="scale(0.015625)"/>
        <path id="DejaVuSans-69" d="M 603 3500 
L 1178 3500 
L 1178 0 
L 603 0 
L 603 3500 
z
M 603 4863 
L 1178 4863 
L 1178 4134 
L 603 4134 
L 603 4863 
z
" transform="scale(0.015625)"/>
        <path id="DejaVuSans-74" d="M 1172 4494 
L 1172 3500 
L 2356 3500 
L 2356 3053 
L 1172 3053 
L 1172 1153 
Q 1172 725 1289 603 
Q 1406 481 1766 481 
L 2356 481 
L 2356 0 
L 1766 0 
Q 1100 0 847 248 
Q 594 497 594 1153 
L 594 3053 
L 172 3053 
L 172 3500 
L 594 3500 
L 594 4494 
L 1172 4494 
z
" transform="scale(0.015625)"/>
        <path id="DejaVuSans-68" d="M 3513 2113 
L 3513 0 
L 2938 0 
L 2938 2094 
Q 2938 2591 2744 2837 
Q 2550 3084 2163 3084 
Q 1697 3084 1428 2787 
Q 1159 2491 1159 1978 
L 1159 0 
L 581 0 
L 581 4863 
L 1159 4863 
L 1159 2956 
Q 1366 3272 1645 3428 
Q 1925 3584 2291 3584 
Q 2894 3584 3203 3211 
Q 3513 2838 3513 2113 
z
" transform="scale(0.015625)"/>
        <path id="DejaVuSans-6d" d="M 3328 2828 
Q 3544 3216 3844 3400 
Q 4144 3584 4550 3584 
Q 5097 3584 5394 3201 
Q 5691 2819 5691 2113 
L 5691 0 
L 5113 0 
L 5113 2094 
Q 5113 2597 4934 2840 
Q 4756 3084 4391 3084 
Q 3944 3084 3684 2787 
Q 3425 2491 3425 1978 
L 3425 0 
L 2847 0 
L 2847 2094 
Q 2847 2600 2669 2842 
Q 2491 3084 2119 3084 
Q 1678 3084 1418 2786 
Q 1159 2488 1159 1978 
L 1159 0 
L 581 0 
L 581 3500 
L 1159 3500 
L 1159 2956 
Q 1356 3278 1631 3431 
Q 1906 3584 2284 3584 
Q 2666 3584 2933 3390 
Q 3200 3197 3328 2828 
z
" transform="scale(0.015625)"/>
       </defs>
       <use xlink:href="#DejaVuSans-67"/>
       <use xlink:href="#DejaVuSans-6c" transform="translate(63.476562 0)"/>
       <use xlink:href="#DejaVuSans-61" transform="translate(91.259766 0)"/>
       <use xlink:href="#DejaVuSans-6e" transform="translate(152.539062 0)"/>
       <use xlink:href="#DejaVuSans-64" transform="translate(215.917969 0)"/>
       <use xlink:href="#DejaVuSans-20" transform="translate(279.394531 0)"/>
       <use xlink:href="#DejaVuSans-65" transform="translate(311.181641 0)"/>
       <use xlink:href="#DejaVuSans-70" transform="translate(372.705078 0)"/>
       <use xlink:href="#DejaVuSans-69" transform="translate(436.181641 0)"/>
       <use xlink:href="#DejaVuSans-74" transform="translate(463.964844 0)"/>
       <use xlink:href="#DejaVuSans-68" transform="translate(503.173828 0)"/>
       <use xlink:href="#DejaVuSans-65" transform="translate(566.552734 0)"/>
       <use xlink:href="#DejaVuSans-6c" transform="translate(628.076172 0)"/>
       <use xlink:href="#DejaVuSans-69" transform="translate(655.859375 0)"/>
       <use xlink:href="#DejaVuSans-75" transform="translate(683.642578 0)"/>
       <use xlink:href="#DejaVuSans-6d" transform="translate(747.021484 0)"/>
       <use xlink:href="#DejaVuSans-20" transform="translate(844.433594 0)"/>
       <use xlink:href="#DejaVuSans-63" transform="translate(876.220703 0)"/>
       <use xlink:href="#DejaVuSans-65" transform="translate(931.201172 0)"/>
       <use xlink:href="#DejaVuSans-6c" transform="translate(992.724609 0)"/>
       <use xlink:href="#DejaVuSans-6c" transform="translate(1020.507812 0)"/>
      </g>
     </g>
    </g>
    <g id="xtick_3">
     <g id="text_3">
      <!-- beta cell -->
      <g style="fill: #262626" transform="translate(628.27 298.948375) rotate(-90) scale(0.1 -0.1)">
       <defs>
        <path id="DejaVuSans-62" d="M 3116 1747 
Q 3116 2381 2855 2742 
Q 2594 3103 2138 3103 
Q 1681 3103 1420 2742 
Q 1159 2381 1159 1747 
Q 1159 1113 1420 752 
Q 1681 391 2138 391 
Q 2594 391 2855 752 
Q 3116 1113 3116 1747 
z
M 1159 2969 
Q 1341 3281 1617 3432 
Q 1894 3584 2278 3584 
Q 2916 3584 3314 3078 
Q 3713 2572 3713 1747 
Q 3713 922 3314 415 
Q 2916 -91 2278 -91 
Q 1894 -91 1617 61 
Q 1341 213 1159 525 
L 1159 0 
L 581 0 
L 581 4863 
L 1159 4863 
L 1159 2969 
z
" transform="scale(0.015625)"/>
       </defs>
       <use xlink:href="#DejaVuSans-62"/>
       <use xlink:href="#DejaVuSans-65" transform="translate(63.476562 0)"/>
       <use xlink:href="#DejaVuSans-74" transform="translate(125 0)"/>
       <use xlink:href="#DejaVuSans-61" transform="translate(164.208984 0)"/>
       <use xlink:href="#DejaVuSans-20" transform="translate(225.488281 0)"/>
       <use xlink:href="#DejaVuSans-63" transform="translate(257.275391 0)"/>
       <use xlink:href="#DejaVuSans-65" transform="translate(312.255859 0)"/>
       <use xlink:href="#DejaVuSans-6c" transform="translate(373.779297 0)"/>
       <use xlink:href="#DejaVuSans-6c" transform="translate(401.5625 0)"/>
      </g>
     </g>
    </g>
    <g id="text_4">
     <!-- Level Two Cell Type -->
     <g style="fill: #262626" transform="translate(358.439188 372.440562) scale(0.1 -0.1)">
      <defs>
       <path id="DejaVuSans-4c" d="M 628 4666 
L 1259 4666 
L 1259 531 
L 3531 531 
L 3531 0 
L 628 0 
L 628 4666 
z
" transform="scale(0.015625)"/>
       <path id="DejaVuSans-76" d="M 191 3500 
L 800 3500 
L 1894 563 
L 2988 3500 
L 3597 3500 
L 2284 0 
L 1503 0 
L 191 3500 
z
" transform="scale(0.015625)"/>
       <path id="DejaVuSans-54" d="M -19 4666 
L 3928 4666 
L 3928 4134 
L 2272 4134 
L 2272 0 
L 1638 0 
L 1638 4134 
L -19 4134 
L -19 4666 
z
" transform="scale(0.015625)"/>
       <path id="DejaVuSans-43" d="M 4122 4306 
L 4122 3641 
Q 3803 3938 3442 4084 
Q 3081 4231 2675 4231 
Q 1875 4231 1450 3742 
Q 1025 3253 1025 2328 
Q 1025 1406 1450 917 
Q 1875 428 2675 428 
Q 3081 428 3442 575 
Q 3803 722 4122 1019 
L 4122 359 
Q 3791 134 3420 21 
Q 3050 -91 2638 -91 
Q 1578 -91 968 557 
Q 359 1206 359 2328 
Q 359 3453 968 4101 
Q 1578 4750 2638 4750 
Q 3056 4750 3426 4639 
Q 3797 4528 4122 4306 
z
" transform="scale(0.015625)"/>
       <path id="DejaVuSans-79" d="M 2059 -325 
Q 1816 -950 1584 -1140 
Q 1353 -1331 966 -1331 
L 506 -1331 
L 506 -850 
L 844 -850 
Q 1081 -850 1212 -737 
Q 1344 -625 1503 -206 
L 1606 56 
L 191 3500 
L 800 3500 
L 1894 763 
L 2988 3500 
L 3597 3500 
L 2059 -325 
z
" transform="scale(0.015625)"/>
      </defs>
      <use xlink:href="#DejaVuSans-4c"/>
      <use xlink:href="#DejaVuSans-65" transform="translate(53.962891 0)"/>
      <use xlink:href="#DejaVuSans-76" transform="translate(115.486328 0)"/>
      <use xlink:href="#DejaVuSans-65" transform="translate(174.666016 0)"/>
      <use xlink:href="#DejaVuSans-6c" transform="translate(236.189453 0)"/>
      <use xlink:href="#DejaVuSans-20" transform="translate(263.972656 0)"/>
      <use xlink:href="#DejaVuSans-54" transform="translate(295.759766 0)"/>
      <use xlink:href="#DejaVuSans-77" transform="translate(340.34375 0)"/>
      <use xlink:href="#DejaVuSans-6f" transform="translate(422.130859 0)"/>
      <use xlink:href="#DejaVuSans-20" transform="translate(483.3125 0)"/>
      <use xlink:href="#DejaVuSans-43" transform="translate(515.099609 0)"/>
      <use xlink:href="#DejaVuSans-65" transform="translate(584.923828 0)"/>
      <use xlink:href="#DejaVuSans-6c" transform="translate(646.447266 0)"/>
      <use xlink:href="#DejaVuSans-6c" transform="translate(674.230469 0)"/>
      <use xlink:href="#DejaVuSans-20" transform="translate(702.013672 0)"/>
      <use xlink:href="#DejaVuSans-54" transform="translate(733.800781 0)"/>
      <use xlink:href="#DejaVuSans-79" transform="translate(779.259766 0)"/>
      <use xlink:href="#DejaVuSans-70" transform="translate(838.439453 0)"/>
      <use xlink:href="#DejaVuSans-65" transform="translate(901.916016 0)"/>
     </g>
    </g>
   </g>
   <g id="matplotlib.axis_2">
    <g id="ytick_1">
     <g id="line2d_1">
      <path d="M 78.265625 240.956152 
L 734.959625 240.956152 
" clip-path="url(#p53f8f7e854)" style="fill: none; stroke: #cccccc; stroke-width: 2; stroke-linecap: round"/>
     </g>
     <g id="text_5">
      <!-- 0 -->
      <g style="fill: #262626" transform="translate(62.403125 244.755371) scale(0.1 -0.1)">
       <defs>
        <path id="DejaVuSans-30" d="M 2034 4250 
Q 1547 4250 1301 3770 
Q 1056 3291 1056 2328 
Q 1056 1369 1301 889 
Q 1547 409 2034 409 
Q 2525 409 2770 889 
Q 3016 1369 3016 2328 
Q 3016 3291 2770 3770 
Q 2525 4250 2034 4250 
z
M 2034 4750 
Q 2819 4750 3233 4129 
Q 3647 3509 3647 2328 
Q 3647 1150 3233 529 
Q 2819 -91 2034 -91 
Q 1250 -91 836 529 
Q 422 1150 422 2328 
Q 422 3509 836 4129 
Q 1250 4750 2034 4750 
z
" transform="scale(0.015625)"/>
       </defs>
       <use xlink:href="#DejaVuSans-30"/>
      </g>
     </g>
    </g>
    <g id="ytick_2">
     <g id="line2d_2">
      <path d="M 78.265625 218.15421 
L 734.959625 218.15421 
" clip-path="url(#p53f8f7e854)" style="fill: none; stroke: #cccccc; stroke-width: 2; stroke-linecap: round"/>
     </g>
     <g id="text_6">
      <!-- 25 -->
      <g style="fill: #262626" transform="translate(56.040625 221.953428) scale(0.1 -0.1)">
       <defs>
        <path id="DejaVuSans-32" d="M 1228 531 
L 3431 531 
L 3431 0 
L 469 0 
L 469 531 
Q 828 903 1448 1529 
Q 2069 2156 2228 2338 
Q 2531 2678 2651 2914 
Q 2772 3150 2772 3378 
Q 2772 3750 2511 3984 
Q 2250 4219 1831 4219 
Q 1534 4219 1204 4116 
Q 875 4013 500 3803 
L 500 4441 
Q 881 4594 1212 4672 
Q 1544 4750 1819 4750 
Q 2544 4750 2975 4387 
Q 3406 4025 3406 3419 
Q 3406 3131 3298 2873 
Q 3191 2616 2906 2266 
Q 2828 2175 2409 1742 
Q 1991 1309 1228 531 
z
" transform="scale(0.015625)"/>
        <path id="DejaVuSans-35" d="M 691 4666 
L 3169 4666 
L 3169 4134 
L 1269 4134 
L 1269 2991 
Q 1406 3038 1543 3061 
Q 1681 3084 1819 3084 
Q 2600 3084 3056 2656 
Q 3513 2228 3513 1497 
Q 3513 744 3044 326 
Q 2575 -91 1722 -91 
Q 1428 -91 1123 -41 
Q 819 9 494 109 
L 494 744 
Q 775 591 1075 516 
Q 1375 441 1709 441 
Q 2250 441 2565 725 
Q 2881 1009 2881 1497 
Q 2881 1984 2565 2268 
Q 2250 2553 1709 2553 
Q 1456 2553 1204 2497 
Q 953 2441 691 2322 
L 691 4666 
z
" transform="scale(0.015625)"/>
       </defs>
       <use xlink:href="#DejaVuSans-32"/>
       <use xlink:href="#DejaVuSans-35" transform="translate(63.623047 0)"/>
      </g>
     </g>
    </g>
    <g id="ytick_3">
     <g id="line2d_3">
      <path d="M 78.265625 195.352267 
L 734.959625 195.352267 
" clip-path="url(#p53f8f7e854)" style="fill: none; stroke: #cccccc; stroke-width: 2; stroke-linecap: round"/>
     </g>
     <g id="text_7">
      <!-- 50 -->
      <g style="fill: #262626" transform="translate(56.040625 199.151486) scale(0.1 -0.1)">
       <use xlink:href="#DejaVuSans-35"/>
       <use xlink:href="#DejaVuSans-30" transform="translate(63.623047 0)"/>
      </g>
     </g>
    </g>
    <g id="ytick_4">
     <g id="line2d_4">
      <path d="M 78.265625 172.550325 
L 734.959625 172.550325 
" clip-path="url(#p53f8f7e854)" style="fill: none; stroke: #cccccc; stroke-width: 2; stroke-linecap: round"/>
     </g>
     <g id="text_8">
      <!-- 75 -->
      <g style="fill: #262626" transform="translate(56.040625 176.349544) scale(0.1 -0.1)">
       <defs>
        <path id="DejaVuSans-37" d="M 525 4666 
L 3525 4666 
L 3525 4397 
L 1831 0 
L 1172 0 
L 2766 4134 
L 525 4134 
L 525 4666 
z
" transform="scale(0.015625)"/>
       </defs>
       <use xlink:href="#DejaVuSans-37"/>
       <use xlink:href="#DejaVuSans-35" transform="translate(63.623047 0)"/>
      </g>
     </g>
    </g>
    <g id="ytick_5">
     <g id="line2d_5">
      <path d="M 78.265625 149.748383 
L 734.959625 149.748383 
" clip-path="url(#p53f8f7e854)" style="fill: none; stroke: #cccccc; stroke-width: 2; stroke-linecap: round"/>
     </g>
     <g id="text_9">
      <!-- 100 -->
      <g style="fill: #262626" transform="translate(49.678125 153.547602) scale(0.1 -0.1)">
       <defs>
        <path id="DejaVuSans-31" d="M 794 531 
L 1825 531 
L 1825 4091 
L 703 3866 
L 703 4441 
L 1819 4666 
L 2450 4666 
L 2450 531 
L 3481 531 
L 3481 0 
L 794 0 
L 794 531 
z
" transform="scale(0.015625)"/>
       </defs>
       <use xlink:href="#DejaVuSans-31"/>
       <use xlink:href="#DejaVuSans-30" transform="translate(63.623047 0)"/>
       <use xlink:href="#DejaVuSans-30" transform="translate(127.246094 0)"/>
      </g>
     </g>
    </g>
    <g id="ytick_6">
     <g id="line2d_6">
      <path d="M 78.265625 126.946441 
L 734.959625 126.946441 
" clip-path="url(#p53f8f7e854)" style="fill: none; stroke: #cccccc; stroke-width: 2; stroke-linecap: round"/>
     </g>
     <g id="text_10">
      <!-- 125 -->
      <g style="fill: #262626" transform="translate(49.678125 130.74566) scale(0.1 -0.1)">
       <use xlink:href="#DejaVuSans-31"/>
       <use xlink:href="#DejaVuSans-32" transform="translate(63.623047 0)"/>
       <use xlink:href="#DejaVuSans-35" transform="translate(127.246094 0)"/>
      </g>
     </g>
    </g>
    <g id="ytick_7">
     <g id="line2d_7">
      <path d="M 78.265625 104.144499 
L 734.959625 104.144499 
" clip-path="url(#p53f8f7e854)" style="fill: none; stroke: #cccccc; stroke-width: 2; stroke-linecap: round"/>
     </g>
     <g id="text_11">
      <!-- 150 -->
      <g style="fill: #262626" transform="translate(49.678125 107.943717) scale(0.1 -0.1)">
       <use xlink:href="#DejaVuSans-31"/>
       <use xlink:href="#DejaVuSans-35" transform="translate(63.623047 0)"/>
       <use xlink:href="#DejaVuSans-30" transform="translate(127.246094 0)"/>
      </g>
     </g>
    </g>
    <g id="ytick_8">
     <g id="line2d_8">
      <path d="M 78.265625 81.342556 
L 734.959625 81.342556 
" clip-path="url(#p53f8f7e854)" style="fill: none; stroke: #cccccc; stroke-width: 2; stroke-linecap: round"/>
     </g>
     <g id="text_12">
      <!-- 175 -->
      <g style="fill: #262626" transform="translate(49.678125 85.141775) scale(0.1 -0.1)">
       <use xlink:href="#DejaVuSans-31"/>
       <use xlink:href="#DejaVuSans-37" transform="translate(63.623047 0)"/>
       <use xlink:href="#DejaVuSans-35" transform="translate(127.246094 0)"/>
      </g>
     </g>
    </g>
    <g id="ytick_9">
     <g id="line2d_9">
      <path d="M 78.265625 58.540614 
L 734.959625 58.540614 
" clip-path="url(#p53f8f7e854)" style="fill: none; stroke: #cccccc; stroke-width: 2; stroke-linecap: round"/>
     </g>
     <g id="text_13">
      <!-- 200 -->
      <g style="fill: #262626" transform="translate(49.678125 62.339833) scale(0.1 -0.1)">
       <use xlink:href="#DejaVuSans-32"/>
       <use xlink:href="#DejaVuSans-30" transform="translate(63.623047 0)"/>
       <use xlink:href="#DejaVuSans-30" transform="translate(127.246094 0)"/>
      </g>
     </g>
    </g>
    <g id="text_14">
     <!-- Distance (μm) -->
     <g style="fill: #262626" transform="translate(43.598437 183.460125) rotate(-90) scale(0.1 -0.1)">
      <defs>
       <path id="DejaVuSans-44" d="M 1259 4147 
L 1259 519 
L 2022 519 
Q 2988 519 3436 956 
Q 3884 1394 3884 2338 
Q 3884 3275 3436 3711 
Q 2988 4147 2022 4147 
L 1259 4147 
z
M 628 4666 
L 1925 4666 
Q 3281 4666 3915 4102 
Q 4550 3538 4550 2338 
Q 4550 1131 3912 565 
Q 3275 0 1925 0 
L 628 0 
L 628 4666 
z
" transform="scale(0.015625)"/>
       <path id="DejaVuSans-73" d="M 2834 3397 
L 2834 2853 
Q 2591 2978 2328 3040 
Q 2066 3103 1784 3103 
Q 1356 3103 1142 2972 
Q 928 2841 928 2578 
Q 928 2378 1081 2264 
Q 1234 2150 1697 2047 
L 1894 2003 
Q 2506 1872 2764 1633 
Q 3022 1394 3022 966 
Q 3022 478 2636 193 
Q 2250 -91 1575 -91 
Q 1294 -91 989 -36 
Q 684 19 347 128 
L 347 722 
Q 666 556 975 473 
Q 1284 391 1588 391 
Q 1994 391 2212 530 
Q 2431 669 2431 922 
Q 2431 1156 2273 1281 
Q 2116 1406 1581 1522 
L 1381 1569 
Q 847 1681 609 1914 
Q 372 2147 372 2553 
Q 372 3047 722 3315 
Q 1072 3584 1716 3584 
Q 2034 3584 2315 3537 
Q 2597 3491 2834 3397 
z
" transform="scale(0.015625)"/>
       <path id="DejaVuSans-28" d="M 1984 4856 
Q 1566 4138 1362 3434 
Q 1159 2731 1159 2009 
Q 1159 1288 1364 580 
Q 1569 -128 1984 -844 
L 1484 -844 
Q 1016 -109 783 600 
Q 550 1309 550 2009 
Q 550 2706 781 3412 
Q 1013 4119 1484 4856 
L 1984 4856 
z
" transform="scale(0.015625)"/>
       <path id="DejaVuSans-3bc" d="M 544 -1331 
L 544 3500 
L 1119 3500 
L 1119 1325 
Q 1119 872 1334 640 
Q 1550 409 1972 409 
Q 2434 409 2667 671 
Q 2900 934 2900 1459 
L 2900 3500 
L 3475 3500 
L 3475 806 
Q 3475 619 3529 530 
Q 3584 441 3700 441 
Q 3728 441 3778 458 
Q 3828 475 3916 513 
L 3916 50 
Q 3788 -22 3673 -56 
Q 3559 -91 3450 -91 
Q 3234 -91 3106 31 
Q 2978 153 2931 403 
Q 2775 156 2548 32 
Q 2322 -91 2016 -91 
Q 1697 -91 1473 31 
Q 1250 153 1119 397 
L 1119 -1331 
L 544 -1331 
z
" transform="scale(0.015625)"/>
       <path id="DejaVuSans-29" d="M 513 4856 
L 1013 4856 
Q 1481 4119 1714 3412 
Q 1947 2706 1947 2009 
Q 1947 1309 1714 600 
Q 1481 -109 1013 -844 
L 513 -844 
Q 928 -128 1133 580 
Q 1338 1288 1338 2009 
Q 1338 2731 1133 3434 
Q 928 4138 513 4856 
z
" transform="scale(0.015625)"/>
      </defs>
      <use xlink:href="#DejaVuSans-44"/>
      <use xlink:href="#DejaVuSans-69" transform="translate(77.001953 0)"/>
      <use xlink:href="#DejaVuSans-73" transform="translate(104.785156 0)"/>
      <use xlink:href="#DejaVuSans-74" transform="translate(156.884766 0)"/>
      <use xlink:href="#DejaVuSans-61" transform="translate(196.09375 0)"/>
      <use xlink:href="#DejaVuSans-6e" transform="translate(257.373047 0)"/>
      <use xlink:href="#DejaVuSans-63" transform="translate(320.751953 0)"/>
      <use xlink:href="#DejaVuSans-65" transform="translate(375.732422 0)"/>
      <use xlink:href="#DejaVuSans-20" transform="translate(437.255859 0)"/>
      <use xlink:href="#DejaVuSans-28" transform="translate(469.042969 0)"/>
      <use xlink:href="#DejaVuSans-3bc" transform="translate(508.056641 0)"/>
      <use xlink:href="#DejaVuSans-6d" transform="translate(571.679688 0)"/>
      <use xlink:href="#DejaVuSans-29" transform="translate(669.091797 0)"/>
     </g>
    </g>
   </g>
   <g id="FillBetweenPolyCollection_1">
    <defs>
     <path id="macf0c3d0c9" d="M 187.719202 -172.958449 
L 187.710048 -172.958449 
L 184.637646 -174.766658 
L 142.083949 -176.574868 
L 100.155425 -178.383077 
L 114.337026 -180.191286 
L 137.667786 -181.999496 
L 149.670526 -183.807705 
L 155.632668 -185.615914 
L 160.723512 -187.424124 
L 165.528181 -189.232333 
L 169.899251 -191.040543 
L 173.567787 -192.848752 
L 176.536588 -194.656961 
L 178.930956 -196.465171 
L 180.81955 -198.27338 
L 182.280816 -200.081589 
L 183.514925 -201.889799 
L 184.381144 -203.698008 
L 185.067821 -205.506217 
L 185.584323 -207.314427 
L 185.988284 -209.122636 
L 186.301791 -210.930846 
L 186.557028 -212.739055 
L 186.755137 -214.547264 
L 186.901632 -216.355474 
L 187.017371 -218.163683 
L 187.112013 -219.971892 
L 187.206341 -221.780102 
L 187.262086 -223.588311 
L 187.329967 -225.39652 
L 187.360053 -227.20473 
L 187.399874 -229.012939 
L 187.429416 -230.821149 
L 187.453953 -232.629358 
L 187.484578 -234.437567 
L 187.500603 -236.245777 
L 187.521825 -238.053986 
L 187.528902 -239.862195 
L 187.552708 -241.670405 
L 187.563675 -243.478614 
L 187.569651 -245.286824 
L 187.580749 -247.095033 
L 187.588705 -248.903242 
L 187.603704 -250.711452 
L 187.607497 -252.519661 
L 187.613094 -254.32787 
L 187.619228 -256.13608 
L 187.628913 -257.944289 
L 187.630058 -259.752498 
L 187.635472 -261.560708 
L 187.645675 -263.368917 
L 187.643846 -265.177127 
L 187.645064 -266.985336 
L 187.65633 -268.793545 
L 187.656283 -270.601755 
L 187.662469 -272.409964 
L 187.660068 -274.218173 
L 187.666028 -276.026383 
L 187.668138 -277.834592 
L 187.668914 -279.642801 
L 187.674858 -281.451011 
L 187.677434 -283.25922 
L 187.678225 -285.06743 
L 187.681855 -286.875639 
L 187.682333 -288.683848 
L 187.684595 -290.492058 
L 187.682475 -292.300267 
L 187.688691 -294.108476 
L 187.688677 -295.916686 
L 187.690069 -297.724895 
L 187.689389 -299.533105 
L 187.692574 -301.341314 
L 187.691479 -303.149523 
L 187.69254 -304.957733 
L 187.692605 -306.765942 
L 187.695768 -308.574151 
L 187.695854 -310.382361 
L 187.694532 -312.19057 
L 187.697966 -313.998779 
L 187.695503 -315.806989 
L 187.697104 -317.615198 
L 187.699224 -319.423408 
L 187.698939 -321.231617 
L 187.699373 -323.039826 
L 187.699585 -324.848036 
L 187.699392 -326.656245 
L 187.701183 -328.464454 
L 187.701948 -330.272664 
L 187.70125 -332.080873 
L 187.701701 -333.889082 
L 187.702513 -335.697292 
L 187.702588 -337.505501 
L 187.702536 -339.313711 
L 187.70305 -341.12192 
L 187.705214 -342.930129 
L 187.704257 -344.738339 
L 187.705364 -346.546548 
L 187.703821 -348.354757 
L 187.704865 -350.162967 
L 187.70927 -351.971176 
L 187.71998 -351.971176 
L 187.71998 -351.971176 
L 187.724385 -350.162967 
L 187.725429 -348.354757 
L 187.723886 -346.546548 
L 187.724993 -344.738339 
L 187.724036 -342.930129 
L 187.7262 -341.12192 
L 187.726714 -339.313711 
L 187.726662 -337.505501 
L 187.726737 -335.697292 
L 187.727549 -333.889082 
L 187.728 -332.080873 
L 187.727302 -330.272664 
L 187.728067 -328.464454 
L 187.729858 -326.656245 
L 187.729665 -324.848036 
L 187.729877 -323.039826 
L 187.730311 -321.231617 
L 187.730026 -319.423408 
L 187.732146 -317.615198 
L 187.733747 -315.806989 
L 187.731284 -313.998779 
L 187.734718 -312.19057 
L 187.733396 -310.382361 
L 187.733482 -308.574151 
L 187.736645 -306.765942 
L 187.73671 -304.957733 
L 187.737771 -303.149523 
L 187.736676 -301.341314 
L 187.739861 -299.533105 
L 187.739181 -297.724895 
L 187.740573 -295.916686 
L 187.740559 -294.108476 
L 187.746775 -292.300267 
L 187.744655 -290.492058 
L 187.746917 -288.683848 
L 187.747395 -286.875639 
L 187.751025 -285.06743 
L 187.751816 -283.25922 
L 187.754392 -281.451011 
L 187.760336 -279.642801 
L 187.761112 -277.834592 
L 187.763222 -276.026383 
L 187.769182 -274.218173 
L 187.766781 -272.409964 
L 187.772967 -270.601755 
L 187.77292 -268.793545 
L 187.784186 -266.985336 
L 187.785404 -265.177127 
L 187.783575 -263.368917 
L 187.793778 -261.560708 
L 187.799192 -259.752498 
L 187.800337 -257.944289 
L 187.810022 -256.13608 
L 187.816156 -254.32787 
L 187.821753 -252.519661 
L 187.825546 -250.711452 
L 187.840545 -248.903242 
L 187.848501 -247.095033 
L 187.859599 -245.286824 
L 187.865575 -243.478614 
L 187.876542 -241.670405 
L 187.900348 -239.862195 
L 187.907425 -238.053986 
L 187.928647 -236.245777 
L 187.944672 -234.437567 
L 187.975297 -232.629358 
L 187.999834 -230.821149 
L 188.029376 -229.012939 
L 188.069197 -227.20473 
L 188.099283 -225.39652 
L 188.167164 -223.588311 
L 188.222909 -221.780102 
L 188.317237 -219.971892 
L 188.411879 -218.163683 
L 188.527618 -216.355474 
L 188.674113 -214.547264 
L 188.872222 -212.739055 
L 189.127459 -210.930846 
L 189.440966 -209.122636 
L 189.844927 -207.314427 
L 190.361429 -205.506217 
L 191.048106 -203.698008 
L 191.914325 -201.889799 
L 193.148434 -200.081589 
L 194.6097 -198.27338 
L 196.498294 -196.465171 
L 198.892662 -194.656961 
L 201.861463 -192.848752 
L 205.529999 -191.040543 
L 209.901069 -189.232333 
L 214.705738 -187.424124 
L 219.796582 -185.615914 
L 225.758724 -183.807705 
L 237.761464 -181.999496 
L 261.092224 -180.191286 
L 275.273825 -178.383077 
L 233.345301 -176.574868 
L 190.791604 -174.766658 
L 187.719202 -172.958449 
z
" style="stroke: #636363; stroke-opacity: 0.9; stroke-width: 1.25"/>
    </defs>
    <g clip-path="url(#p53f8f7e854)">
     <use xlink:href="#macf0c3d0c9" x="0" y="410.52025" style="fill: #e49467; fill-opacity: 0.9; stroke: #636363; stroke-opacity: 0.9; stroke-width: 1.25"/>
    </g>
   </g>
   <g id="FillBetweenPolyCollection_2">
    <defs>
     <path id="m2ca8ca7338" d="M 406.618854 -173.121201 
L 406.606396 -173.121201 
L 404.284601 -174.927677 
L 377.297397 -176.734154 
L 342.742763 -178.54063 
L 342.419051 -180.347106 
L 353.47302 -182.153582 
L 358.746433 -183.960059 
L 362.63036 -185.766535 
L 368.959293 -187.573011 
L 376.306369 -189.379487 
L 383.414558 -191.185964 
L 389.202252 -192.99244 
L 393.608278 -194.798916 
L 397.001814 -196.605393 
L 399.428536 -198.411869 
L 401.197051 -200.218345 
L 402.56646 -202.024821 
L 403.52931 -203.831298 
L 404.219712 -205.637774 
L 404.781055 -207.44425 
L 405.180982 -209.250726 
L 405.471227 -211.057203 
L 405.706119 -212.863679 
L 405.877569 -214.670155 
L 406.012698 -216.476631 
L 406.126854 -218.283108 
L 406.210893 -220.089584 
L 406.268227 -221.89606 
L 406.31442 -223.702536 
L 406.355467 -225.509013 
L 406.393014 -227.315489 
L 406.417892 -229.121965 
L 406.436061 -230.928442 
L 406.462847 -232.734918 
L 406.467712 -234.541394 
L 406.484591 -236.34787 
L 406.499909 -238.154347 
L 406.508957 -239.960823 
L 406.511052 -241.767299 
L 406.522173 -243.573775 
L 406.528281 -245.380252 
L 406.532299 -247.186728 
L 406.538846 -248.993204 
L 406.545836 -250.79968 
L 406.552922 -252.606157 
L 406.556498 -254.412633 
L 406.560324 -256.219109 
L 406.555332 -258.025585 
L 406.556246 -259.832062 
L 406.562658 -261.638538 
L 406.56837 -263.445014 
L 406.568642 -265.251491 
L 406.567606 -267.057967 
L 406.573976 -268.864443 
L 406.580028 -270.670919 
L 406.579145 -272.477396 
L 406.578568 -274.283872 
L 406.582612 -276.090348 
L 406.583479 -277.896824 
L 406.583336 -279.703301 
L 406.586888 -281.509777 
L 406.590508 -283.316253 
L 406.588076 -285.122729 
L 406.586257 -286.929206 
L 406.591618 -288.735682 
L 406.59026 -290.542158 
L 406.593655 -292.348634 
L 406.592461 -294.155111 
L 406.59139 -295.961587 
L 406.591739 -297.768063 
L 406.593295 -299.57454 
L 406.596051 -301.381016 
L 406.596951 -303.187492 
L 406.598708 -304.993968 
L 406.595407 -306.800445 
L 406.598602 -308.606921 
L 406.596791 -310.413397 
L 406.600218 -312.219873 
L 406.59763 -314.02635 
L 406.601187 -315.832826 
L 406.599519 -317.639302 
L 406.601869 -319.445778 
L 406.599325 -321.252255 
L 406.600565 -323.058731 
L 406.602842 -324.865207 
L 406.602573 -326.671683 
L 406.602274 -328.47816 
L 406.599656 -330.284636 
L 406.60486 -332.091112 
L 406.60342 -333.897589 
L 406.602227 -335.704065 
L 406.60451 -337.510541 
L 406.603485 -339.317017 
L 406.602716 -341.123494 
L 406.604759 -342.92997 
L 406.604827 -344.736446 
L 406.603263 -346.542922 
L 406.605729 -348.349399 
L 406.603546 -350.155875 
L 406.607962 -351.962351 
L 406.617288 -351.962351 
L 406.617288 -351.962351 
L 406.621704 -350.155875 
L 406.619521 -348.349399 
L 406.621987 -346.542922 
L 406.620423 -344.736446 
L 406.620491 -342.92997 
L 406.622534 -341.123494 
L 406.621765 -339.317017 
L 406.62074 -337.510541 
L 406.623023 -335.704065 
L 406.62183 -333.897589 
L 406.62039 -332.091112 
L 406.625594 -330.284636 
L 406.622976 -328.47816 
L 406.622677 -326.671683 
L 406.622408 -324.865207 
L 406.624685 -323.058731 
L 406.625925 -321.252255 
L 406.623381 -319.445778 
L 406.625731 -317.639302 
L 406.624063 -315.832826 
L 406.62762 -314.02635 
L 406.625032 -312.219873 
L 406.628459 -310.413397 
L 406.626648 -308.606921 
L 406.629843 -306.800445 
L 406.626542 -304.993968 
L 406.628299 -303.187492 
L 406.629199 -301.381016 
L 406.631955 -299.57454 
L 406.633511 -297.768063 
L 406.63386 -295.961587 
L 406.632789 -294.155111 
L 406.631595 -292.348634 
L 406.63499 -290.542158 
L 406.633632 -288.735682 
L 406.638993 -286.929206 
L 406.637174 -285.122729 
L 406.634742 -283.316253 
L 406.638362 -281.509777 
L 406.641914 -279.703301 
L 406.641771 -277.896824 
L 406.642638 -276.090348 
L 406.646682 -274.283872 
L 406.646105 -272.477396 
L 406.645222 -270.670919 
L 406.651274 -268.864443 
L 406.657644 -267.057967 
L 406.656608 -265.251491 
L 406.65688 -263.445014 
L 406.662592 -261.638538 
L 406.669004 -259.832062 
L 406.669918 -258.025585 
L 406.664926 -256.219109 
L 406.668752 -254.412633 
L 406.672328 -252.606157 
L 406.679414 -250.79968 
L 406.686404 -248.993204 
L 406.692951 -247.186728 
L 406.696969 -245.380252 
L 406.703077 -243.573775 
L 406.714198 -241.767299 
L 406.716293 -239.960823 
L 406.725341 -238.154347 
L 406.740659 -236.34787 
L 406.757538 -234.541394 
L 406.762403 -232.734918 
L 406.789189 -230.928442 
L 406.807358 -229.121965 
L 406.832236 -227.315489 
L 406.869783 -225.509013 
L 406.91083 -223.702536 
L 406.957023 -221.89606 
L 407.014357 -220.089584 
L 407.098396 -218.283108 
L 407.212552 -216.476631 
L 407.347681 -214.670155 
L 407.519131 -212.863679 
L 407.754023 -211.057203 
L 408.044268 -209.250726 
L 408.444195 -207.44425 
L 409.005538 -205.637774 
L 409.69594 -203.831298 
L 410.65879 -202.024821 
L 412.028199 -200.218345 
L 413.796714 -198.411869 
L 416.223436 -196.605393 
L 419.616972 -194.798916 
L 424.022998 -192.99244 
L 429.810692 -191.185964 
L 436.918881 -189.379487 
L 444.265957 -187.573011 
L 450.59489 -185.766535 
L 454.478817 -183.960059 
L 459.75223 -182.153582 
L 470.806199 -180.347106 
L 470.482487 -178.54063 
L 435.927853 -176.734154 
L 408.940649 -174.927677 
L 406.618854 -173.121201 
z
" style="stroke: #636363; stroke-opacity: 0.9; stroke-width: 1.25"/>
    </defs>
    <g clip-path="url(#p53f8f7e854)">
     <use xlink:href="#m2ca8ca7338" x="0" y="410.52025" style="fill: #f7f7c6; fill-opacity: 0.9; stroke: #636363; stroke-opacity: 0.9; stroke-width: 1.25"/>
    </g>
   </g>
   <g id="FillBetweenPolyCollection_3">
    <defs>
     <path id="mda082c4dd7" d="M 627.154267 -173.977084 
L 623.866983 -173.977084 
L 618.021772 -175.743384 
L 608.493402 -177.509685 
L 601.499262 -179.275985 
L 598.903833 -181.042286 
L 597.800747 -182.808586 
L 596.358836 -184.574887 
L 595.31686 -186.341187 
L 595.501758 -188.107488 
L 596.48898 -189.873788 
L 598.088769 -191.640088 
L 600.319341 -193.406389 
L 602.564545 -195.172689 
L 604.511172 -196.93899 
L 606.44158 -198.70529 
L 608.412945 -200.471591 
L 610.262246 -202.237891 
L 612.056455 -204.004191 
L 613.808088 -205.770492 
L 615.137563 -207.536792 
L 616.186539 -209.303093 
L 617.270051 -211.069393 
L 618.420607 -212.835694 
L 619.373216 -214.601994 
L 620.135341 -216.368295 
L 620.803296 -218.134595 
L 621.379699 -219.900895 
L 621.945893 -221.667196 
L 622.507063 -223.433496 
L 622.977799 -225.199797 
L 623.340815 -226.966097 
L 623.584411 -228.732398 
L 623.8284 -230.498698 
L 624.099812 -232.264998 
L 624.314051 -234.031299 
L 624.432 -235.797599 
L 624.51036 -237.5639 
L 624.634665 -239.3302 
L 624.731741 -241.096501 
L 624.807733 -242.862801 
L 624.900066 -244.629102 
L 624.968079 -246.395402 
L 625.008433 -248.161702 
L 625.060667 -249.928003 
L 625.120916 -251.694303 
L 625.170986 -253.460604 
L 625.191779 -255.226904 
L 625.213972 -256.993205 
L 625.223145 -258.759505 
L 625.243244 -260.525805 
L 625.289802 -262.292106 
L 625.323911 -264.058406 
L 625.338166 -265.824707 
L 625.338624 -267.591007 
L 625.344793 -269.357308 
L 625.349823 -271.123608 
L 625.365822 -272.889909 
L 625.382908 -274.656209 
L 625.398622 -276.422509 
L 625.402295 -278.18881 
L 625.405783 -279.95511 
L 625.420682 -281.721411 
L 625.431107 -283.487711 
L 625.437207 -285.254012 
L 625.448479 -287.020312 
L 625.456592 -288.786612 
L 625.455051 -290.552913 
L 625.457414 -292.319213 
L 625.469211 -294.085514 
L 625.481354 -295.851814 
L 625.4838 -297.618115 
L 625.483899 -299.384415 
L 625.481105 -301.150716 
L 625.481419 -302.917016 
L 625.485281 -304.683316 
L 625.486981 -306.449617 
L 625.493447 -308.215917 
L 625.49853 -309.982218 
L 625.496496 -311.748518 
L 625.496365 -313.514819 
L 625.496759 -315.281119 
L 625.494478 -317.04742 
L 625.491015 -318.81372 
L 625.493574 -320.58002 
L 625.497985 -322.346321 
L 625.495778 -324.112621 
L 625.494628 -325.878922 
L 625.500006 -327.645222 
L 625.501827 -329.411523 
L 625.496953 -331.177823 
L 625.488667 -332.944123 
L 625.490511 -334.710424 
L 625.499609 -336.476724 
L 625.505379 -338.243025 
L 625.506651 -340.009325 
L 625.504188 -341.775626 
L 625.504684 -343.541926 
L 625.502167 -345.308227 
L 625.49797 -347.074527 
L 625.503039 -348.840827 
L 625.518211 -348.840827 
L 625.518211 -348.840827 
L 625.52328 -347.074527 
L 625.519083 -345.308227 
L 625.516566 -343.541926 
L 625.517062 -341.775626 
L 625.514599 -340.009325 
L 625.515871 -338.243025 
L 625.521641 -336.476724 
L 625.530739 -334.710424 
L 625.532583 -332.944123 
L 625.524297 -331.177823 
L 625.519423 -329.411523 
L 625.521244 -327.645222 
L 625.526622 -325.878922 
L 625.525472 -324.112621 
L 625.523265 -322.346321 
L 625.527676 -320.58002 
L 625.530235 -318.81372 
L 625.526772 -317.04742 
L 625.524491 -315.281119 
L 625.524885 -313.514819 
L 625.524754 -311.748518 
L 625.52272 -309.982218 
L 625.527803 -308.215917 
L 625.534269 -306.449617 
L 625.535969 -304.683316 
L 625.539831 -302.917016 
L 625.540145 -301.150716 
L 625.537351 -299.384415 
L 625.53745 -297.618115 
L 625.539896 -295.851814 
L 625.552039 -294.085514 
L 625.563836 -292.319213 
L 625.566199 -290.552913 
L 625.564658 -288.786612 
L 625.572771 -287.020312 
L 625.584043 -285.254012 
L 625.590143 -283.487711 
L 625.600568 -281.721411 
L 625.615467 -279.95511 
L 625.618955 -278.18881 
L 625.622628 -276.422509 
L 625.638342 -274.656209 
L 625.655428 -272.889909 
L 625.671427 -271.123608 
L 625.676457 -269.357308 
L 625.682626 -267.591007 
L 625.683084 -265.824707 
L 625.697339 -264.058406 
L 625.731448 -262.292106 
L 625.778006 -260.525805 
L 625.798105 -258.759505 
L 625.807278 -256.993205 
L 625.829471 -255.226904 
L 625.850264 -253.460604 
L 625.900334 -251.694303 
L 625.960583 -249.928003 
L 626.012817 -248.161702 
L 626.053171 -246.395402 
L 626.121184 -244.629102 
L 626.213517 -242.862801 
L 626.289509 -241.096501 
L 626.386585 -239.3302 
L 626.51089 -237.5639 
L 626.58925 -235.797599 
L 626.707199 -234.031299 
L 626.921438 -232.264998 
L 627.19285 -230.498698 
L 627.436839 -228.732398 
L 627.680435 -226.966097 
L 628.043451 -225.199797 
L 628.514187 -223.433496 
L 629.075357 -221.667196 
L 629.641551 -219.900895 
L 630.217954 -218.134595 
L 630.885909 -216.368295 
L 631.648034 -214.601994 
L 632.600643 -212.835694 
L 633.751199 -211.069393 
L 634.834711 -209.303093 
L 635.883687 -207.536792 
L 637.213162 -205.770492 
L 638.964795 -204.004191 
L 640.759004 -202.237891 
L 642.608305 -200.471591 
L 644.57967 -198.70529 
L 646.510078 -196.93899 
L 648.456705 -195.172689 
L 650.701909 -193.406389 
L 652.932481 -191.640088 
L 654.53227 -189.873788 
L 655.519492 -188.107488 
L 655.70439 -186.341187 
L 654.662414 -184.574887 
L 653.220503 -182.808586 
L 652.117417 -181.042286 
L 649.521988 -179.275985 
L 642.527848 -177.509685 
L 632.999478 -175.743384 
L 627.154267 -173.977084 
z
" style="stroke: #636363; stroke-opacity: 0.9; stroke-width: 1.25"/>
    </defs>
    <g clip-path="url(#p53f8f7e854)">
     <use xlink:href="#mda082c4dd7" x="0" y="410.52025" style="fill: #90c6a6; fill-opacity: 0.9; stroke: #636363; stroke-opacity: 0.9; stroke-width: 1.25"/>
    </g>
   </g>
   <g id="line2d_10">
    <path d="M 187.714625 237.561801 
L 187.714625 208.952101 
" clip-path="url(#p53f8f7e854)" style="fill: none; stroke: #636363; stroke-width: 1.875; stroke-linecap: round"/>
   </g>
   <g id="line2d_11">
    <path d="M 187.714625 231.61726 
L 187.714625 222.551156 
" clip-path="url(#p53f8f7e854)" style="fill: none; stroke: #636363; stroke-width: 5.625; stroke-linecap: round"/>
   </g>
   <g id="line2d_12">
    <path d="M 187.714625 228.59893 
" clip-path="url(#p53f8f7e854)" style="fill: none; stroke: #636363; stroke-width: 1.5; stroke-linecap: round"/>
    <defs>
     <path id="m78628ea91d" d="M 2.34375 0 
L -2.34375 -0 
" style="stroke: #ffffff; stroke-width: 1.125"/>
    </defs>
    <g clip-path="url(#p53f8f7e854)">
     <use xlink:href="#m78628ea91d" x="187.714625" y="228.59893" style="fill: #ffffff; stroke: #ffffff; stroke-width: 1.125"/>
    </g>
   </g>
   <g id="line2d_13">
    <path d="M 406.612625 237.399049 
L 406.612625 208.028 
" clip-path="url(#p53f8f7e854)" style="fill: none; stroke: #636363; stroke-width: 1.875; stroke-linecap: round"/>
   </g>
   <g id="line2d_14">
    <path d="M 406.612625 230.500622 
L 406.612625 221.511563 
" clip-path="url(#p53f8f7e854)" style="fill: none; stroke: #636363; stroke-width: 5.625; stroke-linecap: round"/>
   </g>
   <g id="line2d_15">
    <path d="M 406.612625 226.653099 
" clip-path="url(#p53f8f7e854)" style="fill: none; stroke: #636363; stroke-width: 1.5; stroke-linecap: round"/>
    <g clip-path="url(#p53f8f7e854)">
     <use xlink:href="#m78628ea91d" x="406.612625" y="226.653099" style="fill: #ffffff; stroke: #ffffff; stroke-width: 1.125"/>
    </g>
   </g>
   <g id="line2d_16">
    <path d="M 625.510625 236.543166 
L 625.510625 183.068527 
" clip-path="url(#p53f8f7e854)" style="fill: none; stroke: #636363; stroke-width: 1.875; stroke-linecap: round"/>
   </g>
   <g id="line2d_17">
    <path d="M 625.510625 225.850868 
L 625.510625 208.737597 
" clip-path="url(#p53f8f7e854)" style="fill: none; stroke: #636363; stroke-width: 5.625; stroke-linecap: round"/>
   </g>
   <g id="line2d_18">
    <path d="M 625.510625 218.724539 
" clip-path="url(#p53f8f7e854)" style="fill: none; stroke: #636363; stroke-width: 1.5; stroke-linecap: round"/>
    <g clip-path="url(#p53f8f7e854)">
     <use xlink:href="#m78628ea91d" x="625.510625" y="218.724539" style="fill: #ffffff; stroke: #ffffff; stroke-width: 1.125"/>
    </g>
   </g>
   <g id="patch_3">
    <path d="M 78.265625 246.512437 
L 78.265625 49.598437 
" style="fill: none; stroke: #cccccc; stroke-width: 1.25; stroke-linejoin: miter; stroke-linecap: square"/>
   </g>
   <g id="patch_4">
    <path d="M 734.959625 246.512437 
L 734.959625 49.598437 
" style="fill: none; stroke: #cccccc; stroke-width: 1.25; stroke-linejoin: miter; stroke-linecap: square"/>
   </g>
   <g id="patch_5">
    <path d="M 78.265625 246.512437 
L 734.959625 246.512437 
" style="fill: none; stroke: #cccccc; stroke-width: 1.25; stroke-linejoin: miter; stroke-linecap: square"/>
   </g>
   <g id="patch_6">
    <path d="M 78.265625 49.598437 
L 734.959625 49.598437 
" style="fill: none; stroke: #cccccc; stroke-width: 1.25; stroke-linejoin: miter; stroke-linecap: square"/>
   </g>
   <g id="text_15">
    <!-- Violin Plot of distances by Level Two Cell Type (Density Normalization: area) -->
    <g style="fill: #262626" transform="translate(217.367313 43.598437) scale(0.1 -0.1)">
     <defs>
      <path id="DejaVuSans-56" d="M 1831 0 
L 50 4666 
L 709 4666 
L 2188 738 
L 3669 4666 
L 4325 4666 
L 2547 0 
L 1831 0 
z
" transform="scale(0.015625)"/>
      <path id="DejaVuSans-50" d="M 1259 4147 
L 1259 2394 
L 2053 2394 
Q 2494 2394 2734 2622 
Q 2975 2850 2975 3272 
Q 2975 3691 2734 3919 
Q 2494 4147 2053 4147 
L 1259 4147 
z
M 628 4666 
L 2053 4666 
Q 2838 4666 3239 4311 
Q 3641 3956 3641 3272 
Q 3641 2581 3239 2228 
Q 2838 1875 2053 1875 
L 1259 1875 
L 1259 0 
L 628 0 
L 628 4666 
z
" transform="scale(0.015625)"/>
      <path id="DejaVuSans-66" d="M 2375 4863 
L 2375 4384 
L 1825 4384 
Q 1516 4384 1395 4259 
Q 1275 4134 1275 3809 
L 1275 3500 
L 2222 3500 
L 2222 3053 
L 1275 3053 
L 1275 0 
L 697 0 
L 697 3053 
L 147 3053 
L 147 3500 
L 697 3500 
L 697 3744 
Q 697 4328 969 4595 
Q 1241 4863 1831 4863 
L 2375 4863 
z
" transform="scale(0.015625)"/>
      <path id="DejaVuSans-4e" d="M 628 4666 
L 1478 4666 
L 3547 763 
L 3547 4666 
L 4159 4666 
L 4159 0 
L 3309 0 
L 1241 3903 
L 1241 0 
L 628 0 
L 628 4666 
z
" transform="scale(0.015625)"/>
      <path id="DejaVuSans-72" d="M 2631 2963 
Q 2534 3019 2420 3045 
Q 2306 3072 2169 3072 
Q 1681 3072 1420 2755 
Q 1159 2438 1159 1844 
L 1159 0 
L 581 0 
L 581 3500 
L 1159 3500 
L 1159 2956 
Q 1341 3275 1631 3429 
Q 1922 3584 2338 3584 
Q 2397 3584 2469 3576 
Q 2541 3569 2628 3553 
L 2631 2963 
z
" transform="scale(0.015625)"/>
      <path id="DejaVuSans-7a" d="M 353 3500 
L 3084 3500 
L 3084 2975 
L 922 459 
L 3084 459 
L 3084 0 
L 275 0 
L 275 525 
L 2438 3041 
L 353 3041 
L 353 3500 
z
" transform="scale(0.015625)"/>
      <path id="DejaVuSans-3a" d="M 750 794 
L 1409 794 
L 1409 0 
L 750 0 
L 750 794 
z
M 750 3309 
L 1409 3309 
L 1409 2516 
L 750 2516 
L 750 3309 
z
" transform="scale(0.015625)"/>
     </defs>
     <use xlink:href="#DejaVuSans-56"/>
     <use xlink:href="#DejaVuSans-69" transform="translate(66.158203 0)"/>
     <use xlink:href="#DejaVuSans-6f" transform="translate(93.941406 0)"/>
     <use xlink:href="#DejaVuSans-6c" transform="translate(155.123047 0)"/>
     <use xlink:href="#DejaVuSans-69" transform="translate(182.90625 0)"/>
     <use xlink:href="#DejaVuSans-6e" transform="translate(210.689453 0)"/>
     <use xlink:href="#DejaVuSans-20" transform="translate(274.068359 0)"/>
     <use xlink:href="#DejaVuSans-50" transform="translate(305.855469 0)"/>
     <use xlink:href="#DejaVuSans-6c" transform="translate(366.158203 0)"/>
     <use xlink:href="#DejaVuSans-6f" transform="translate(393.941406 0)"/>
     <use xlink:href="#DejaVuSans-74" transform="translate(455.123047 0)"/>
     <use xlink:href="#DejaVuSans-20" transform="translate(494.332031 0)"/>
     <use xlink:href="#DejaVuSans-6f" transform="translate(526.119141 0)"/>
     <use xlink:href="#DejaVuSans-66" transform="translate(587.300781 0)"/>
     <use xlink:href="#DejaVuSans-20" transform="translate(622.505859 0)"/>
     <use xlink:href="#DejaVuSans-64" transform="translate(654.292969 0)"/>
     <use xlink:href="#DejaVuSans-69" transform="translate(717.769531 0)"/>
     <use xlink:href="#DejaVuSans-73" transform="translate(745.552734 0)"/>
     <use xlink:href="#DejaVuSans-74" transform="translate(797.652344 0)"/>
     <use xlink:href="#DejaVuSans-61" transform="translate(836.861328 0)"/>
     <use xlink:href="#DejaVuSans-6e" transform="translate(898.140625 0)"/>
     <use xlink:href="#DejaVuSans-63" transform="translate(961.519531 0)"/>
     <use xlink:href="#DejaVuSans-65" transform="translate(1016.5 0)"/>
     <use xlink:href="#DejaVuSans-73" transform="translate(1078.023438 0)"/>
     <use xlink:href="#DejaVuSans-20" transform="translate(1130.123047 0)"/>
     <use xlink:href="#DejaVuSans-62" transform="translate(1161.910156 0)"/>
     <use xlink:href="#DejaVuSans-79" transform="translate(1225.386719 0)"/>
     <use xlink:href="#DejaVuSans-20" transform="translate(1284.566406 0)"/>
     <use xlink:href="#DejaVuSans-4c" transform="translate(1316.353516 0)"/>
     <use xlink:href="#DejaVuSans-65" transform="translate(1370.316406 0)"/>
     <use xlink:href="#DejaVuSans-76" transform="translate(1431.839844 0)"/>
     <use xlink:href="#DejaVuSans-65" transform="translate(1491.019531 0)"/>
     <use xlink:href="#DejaVuSans-6c" transform="translate(1552.542969 0)"/>
     <use xlink:href="#DejaVuSans-20" transform="translate(1580.326172 0)"/>
     <use xlink:href="#DejaVuSans-54" transform="translate(1612.113281 0)"/>
     <use xlink:href="#DejaVuSans-77" transform="translate(1656.697266 0)"/>
     <use xlink:href="#DejaVuSans-6f" transform="translate(1738.484375 0)"/>
     <use xlink:href="#DejaVuSans-20" transform="translate(1799.666016 0)"/>
     <use xlink:href="#DejaVuSans-43" transform="translate(1831.453125 0)"/>
     <use xlink:href="#DejaVuSans-65" transform="translate(1901.277344 0)"/>
     <use xlink:href="#DejaVuSans-6c" transform="translate(1962.800781 0)"/>
     <use xlink:href="#DejaVuSans-6c" transform="translate(1990.583984 0)"/>
     <use xlink:href="#DejaVuSans-20" transform="translate(2018.367188 0)"/>
     <use xlink:href="#DejaVuSans-54" transform="translate(2050.154297 0)"/>
     <use xlink:href="#DejaVuSans-79" transform="translate(2095.613281 0)"/>
     <use xlink:href="#DejaVuSans-70" transform="translate(2154.792969 0)"/>
     <use xlink:href="#DejaVuSans-65" transform="translate(2218.269531 0)"/>
     <use xlink:href="#DejaVuSans-20" transform="translate(2279.792969 0)"/>
     <use xlink:href="#DejaVuSans-28" transform="translate(2311.580078 0)"/>
     <use xlink:href="#DejaVuSans-44" transform="translate(2350.59375 0)"/>
     <use xlink:href="#DejaVuSans-65" transform="translate(2427.595703 0)"/>
     <use xlink:href="#DejaVuSans-6e" transform="translate(2489.119141 0)"/>
     <use xlink:href="#DejaVuSans-73" transform="translate(2552.498047 0)"/>
     <use xlink:href="#DejaVuSans-69" transform="translate(2604.597656 0)"/>
     <use xlink:href="#DejaVuSans-74" transform="translate(2632.380859 0)"/>
     <use xlink:href="#DejaVuSans-79" transform="translate(2671.589844 0)"/>
     <use xlink:href="#DejaVuSans-20" transform="translate(2730.769531 0)"/>
     <use xlink:href="#DejaVuSans-4e" transform="translate(2762.556641 0)"/>
     <use xlink:href="#DejaVuSans-6f" transform="translate(2837.361328 0)"/>
     <use xlink:href="#DejaVuSans-72" transform="translate(2898.542969 0)"/>
     <use xlink:href="#DejaVuSans-6d" transform="translate(2937.90625 0)"/>
     <use xlink:href="#DejaVuSans-61" transform="translate(3035.318359 0)"/>
     <use xlink:href="#DejaVuSans-6c" transform="translate(3096.597656 0)"/>
     <use xlink:href="#DejaVuSans-69" transform="translate(3124.380859 0)"/>
     <use xlink:href="#DejaVuSans-7a" transform="translate(3152.164062 0)"/>
     <use xlink:href="#DejaVuSans-61" transform="translate(3204.654297 0)"/>
     <use xlink:href="#DejaVuSans-74" transform="translate(3265.933594 0)"/>
     <use xlink:href="#DejaVuSans-69" transform="translate(3305.142578 0)"/>
     <use xlink:href="#DejaVuSans-6f" transform="translate(3332.925781 0)"/>
     <use xlink:href="#DejaVuSans-6e" transform="translate(3394.107422 0)"/>
     <use xlink:href="#DejaVuSans-3a" transform="translate(3457.486328 0)"/>
     <use xlink:href="#DejaVuSans-20" transform="translate(3491.177734 0)"/>
     <use xlink:href="#DejaVuSans-61" transform="translate(3522.964844 0)"/>
     <use xlink:href="#DejaVuSans-72" transform="translate(3584.244141 0)"/>
     <use xlink:href="#DejaVuSans-65" transform="translate(3623.107422 0)"/>
     <use xlink:href="#DejaVuSans-61" transform="translate(3684.630859 0)"/>
     <use xlink:href="#DejaVuSans-29" transform="translate(3745.910156 0)"/>
    </g>
   </g>
   <g id="legend_1">
    <g id="patch_7">
     <path d="M 723.959625 62.598437 
L 727.959625 62.598437 
Q 729.959625 62.598437 729.959625 60.598437 
L 729.959625 56.598437 
Q 729.959625 54.598437 727.959625 54.598437 
L 723.959625 54.598437 
Q 721.959625 54.598437 721.959625 56.598437 
L 721.959625 60.598437 
Q 721.959625 62.598437 723.959625 62.598437 
z
" style="fill: #ffffff; opacity: 0.8; stroke: #cccccc; stroke-width: 0.8; stroke-linejoin: miter"/>
    </g>
   </g>
  </g>
 </g>
 <defs>
  <clipPath id="p53f8f7e854">
   <rect x="78.265625" y="49.598437" width="656.694" height="196.914"/>
  </clipPath>
 </defs>
</svg>
