<?xml version="1.0" encoding="utf-8" standalone="no"?>
<!DOCTYPE svg PUBLIC "-//W3C//DTD SVG 1.1//EN"
  "http://www.w3.org/Graphics/SVG/1.1/DTD/svg11.dtd">
<svg xmlns:xlink="http://www.w3.org/1999/xlink" width="1125.775625pt" height="432pt" viewBox="0 0 1125.775625 432" xmlns="http://www.w3.org/2000/svg" version="1.1">
 <metadata>
  <rdf:RDF xmlns:dc="http://purl.org/dc/elements/1.1/" xmlns:cc="http://creativecommons.org/ns#" xmlns:rdf="http://www.w3.org/1999/02/22-rdf-syntax-ns#">
   <cc:Work>
    <dc:type rdf:resource="http://purl.org/dc/dcmitype/StillImage"/>
    <dc:date>2025-07-25T12:56:25.202454</dc:date>
    <dc:format>image/svg+xml</dc:format>
    <dc:creator>
     <cc:Agent>
      <dc:title>Matplotlib v3.10.3, https://matplotlib.org/</dc:title>
     </cc:Agent>
    </dc:creator>
   </cc:Work>
  </rdf:RDF>
 </metadata>
 <defs>
  <style type="text/css">*{stroke-linejoin: round; stroke-linecap: butt}</style>
 </defs>
 <g id="figure_1">
  <g id="patch_1">
   <path d="M 0 432 
L 1125.775625 432 
L 1125.775625 0 
L 0 0 
z
" style="fill: #ffffff"/>
  </g>
  <g id="axes_1">
   <g id="patch_2">
    <path d="M 78.265625 299.74 
L 289.495625 299.74 
L 289.495625 79.08 
L 78.265625 79.08 
z
" style="fill: #ffffff"/>
   </g>
   <g id="matplotlib.axis_1">
    <g id="xtick_1">
     <g id="text_1">
      <text style="font-size: 10px; font-family: 'Arial', 'DejaVu Sans', 'Liberation Sans', 'Bitstream Vera Sans', sans-serif; fill: #262626" transform="translate(133.8325 375.779062) rotate(-90)">epithelial cell</text>
     </g>
    </g>
    <g id="xtick_2">
     <g id="text_2">
      <text style="font-size: 10px; font-family: 'Arial', 'DejaVu Sans', 'Liberation Sans', 'Bitstream Vera Sans', sans-serif; fill: #262626" transform="translate(239.4475 375.063437) rotate(-90)">unknown cell</text>
     </g>
    </g>
   </g>
   <g id="matplotlib.axis_2">
    <g id="ytick_1">
     <g id="line2d_1">
      <path d="M 78.265625 293.516564 
L 289.495625 293.516564 
" clip-path="url(#p83c02f773f)" style="fill: none; stroke: #cccccc; stroke-linecap: round"/>
     </g>
     <g id="text_3">
      <text style="font-size: 10px; font-family: 'Arial', 'DejaVu Sans', 'Liberation Sans', 'Bitstream Vera Sans', sans-serif; text-anchor: end; fill: #262626" x="68.765625" y="297.315782" transform="rotate(-0 68.765625 297.315782)">0</text>
     </g>
    </g>
    <g id="ytick_2">
     <g id="line2d_2">
      <path d="M 78.265625 267.945534 
L 289.495625 267.945534 
" clip-path="url(#p83c02f773f)" style="fill: none; stroke: #cccccc; stroke-linecap: round"/>
     </g>
     <g id="text_4">
      <text style="font-size: 10px; font-family: 'Arial', 'DejaVu Sans', 'Liberation Sans', 'Bitstream Vera Sans', sans-serif; text-anchor: end; fill: #262626" x="68.765625" y="271.744753" transform="rotate(-0 68.765625 271.744753)">25</text>
     </g>
    </g>
    <g id="ytick_3">
     <g id="line2d_3">
      <path d="M 78.265625 242.374505 
L 289.495625 242.374505 
" clip-path="url(#p83c02f773f)" style="fill: none; stroke: #cccccc; stroke-linecap: round"/>
     </g>
     <g id="text_5">
      <text style="font-size: 10px; font-family: 'Arial', 'DejaVu Sans', 'Liberation Sans', 'Bitstream Vera Sans', sans-serif; text-anchor: end; fill: #262626" x="68.765625" y="246.173723" transform="rotate(-0 68.765625 246.173723)">50</text>
     </g>
    </g>
    <g id="ytick_4">
     <g id="line2d_4">
      <path d="M 78.265625 216.803475 
L 289.495625 216.803475 
" clip-path="url(#p83c02f773f)" style="fill: none; stroke: #cccccc; stroke-linecap: round"/>
     </g>
     <g id="text_6">
      <text style="font-size: 10px; font-family: 'Arial', 'DejaVu Sans', 'Liberation Sans', 'Bitstream Vera Sans', sans-serif; text-anchor: end; fill: #262626" x="68.765625" y="220.602694" transform="rotate(-0 68.765625 220.602694)">75</text>
     </g>
    </g>
    <g id="ytick_5">
     <g id="line2d_5">
      <path d="M 78.265625 191.232445 
L 289.495625 191.232445 
" clip-path="url(#p83c02f773f)" style="fill: none; stroke: #cccccc; stroke-linecap: round"/>
     </g>
     <g id="text_7">
      <text style="font-size: 10px; font-family: 'Arial', 'DejaVu Sans', 'Liberation Sans', 'Bitstream Vera Sans', sans-serif; text-anchor: end; fill: #262626" x="68.765625" y="195.031664" transform="rotate(-0 68.765625 195.031664)">100</text>
     </g>
    </g>
    <g id="ytick_6">
     <g id="line2d_6">
      <path d="M 78.265625 165.661416 
L 289.495625 165.661416 
" clip-path="url(#p83c02f773f)" style="fill: none; stroke: #cccccc; stroke-linecap: round"/>
     </g>
     <g id="text_8">
      <text style="font-size: 10px; font-family: 'Arial', 'DejaVu Sans', 'Liberation Sans', 'Bitstream Vera Sans', sans-serif; text-anchor: end; fill: #262626" x="68.765625" y="169.460635" transform="rotate(-0 68.765625 169.460635)">125</text>
     </g>
    </g>
    <g id="ytick_7">
     <g id="line2d_7">
      <path d="M 78.265625 140.090386 
L 289.495625 140.090386 
" clip-path="url(#p83c02f773f)" style="fill: none; stroke: #cccccc; stroke-linecap: round"/>
     </g>
     <g id="text_9">
      <text style="font-size: 10px; font-family: 'Arial', 'DejaVu Sans', 'Liberation Sans', 'Bitstream Vera Sans', sans-serif; text-anchor: end; fill: #262626" x="68.765625" y="143.889605" transform="rotate(-0 68.765625 143.889605)">150</text>
     </g>
    </g>
    <g id="ytick_8">
     <g id="line2d_8">
      <path d="M 78.265625 114.519357 
L 289.495625 114.519357 
" clip-path="url(#p83c02f773f)" style="fill: none; stroke: #cccccc; stroke-linecap: round"/>
     </g>
     <g id="text_10">
      <text style="font-size: 10px; font-family: 'Arial', 'DejaVu Sans', 'Liberation Sans', 'Bitstream Vera Sans', sans-serif; text-anchor: end; fill: #262626" x="68.765625" y="118.318576" transform="rotate(-0 68.765625 118.318576)">175</text>
     </g>
    </g>
    <g id="ytick_9">
     <g id="line2d_9">
      <path d="M 78.265625 88.948327 
L 289.495625 88.948327 
" clip-path="url(#p83c02f773f)" style="fill: none; stroke: #cccccc; stroke-linecap: round"/>
     </g>
     <g id="text_11">
      <text style="font-size: 10px; font-family: 'Arial', 'DejaVu Sans', 'Liberation Sans', 'Bitstream Vera Sans', sans-serif; text-anchor: end; fill: #262626" x="68.765625" y="92.747546" transform="rotate(-0 68.765625 92.747546)">200</text>
     </g>
    </g>
    <g id="text_12">
     <text style="font-size: 10px; font-family: 'Arial', 'DejaVu Sans', 'Liberation Sans', 'Bitstream Vera Sans', sans-serif; text-anchor: middle; fill: #262626" x="43.598437" y="189.41" transform="rotate(-90 43.598437 189.41)">Distance (μm)</text>
    </g>
   </g>
   <g id="FillBetweenPolyCollection_1">
    <defs>
     <path id="m882c4b13c2" d="M 131.0769 -142.472517 
L 131.06935 -142.472517 
L 130.206905 -144.473782 
L 122.095567 -146.475047 
L 113.218786 -148.476311 
L 113.383625 -150.477576 
L 115.953674 -152.478841 
L 117.212448 -154.480106 
L 118.382564 -156.481371 
L 120.353114 -158.482636 
L 122.491847 -160.4839 
L 124.500777 -162.485165 
L 126.092865 -164.48643 
L 127.338809 -166.487695 
L 128.302133 -168.48896 
L 129.011757 -170.490224 
L 129.5196 -172.491489 
L 129.919153 -174.492754 
L 130.200108 -176.494019 
L 130.408283 -178.495284 
L 130.557624 -180.496549 
L 130.692877 -182.497813 
L 130.766926 -184.499078 
L 130.835744 -186.500343 
L 130.881269 -188.501608 
L 130.915888 -190.502873 
L 130.942101 -192.504137 
L 130.975451 -194.505402 
L 130.984065 -196.506667 
L 131.00144 -198.507932 
L 131.01048 -200.509197 
L 131.028849 -202.510462 
L 131.029691 -204.511726 
L 131.037216 -206.512991 
L 131.040073 -208.514256 
L 131.044688 -210.515521 
L 131.053401 -212.516786 
L 131.049537 -214.51805 
L 131.054795 -216.519315 
L 131.055054 -218.52058 
L 131.059782 -220.521845 
L 131.063024 -222.52311 
L 131.061034 -224.524375 
L 131.062563 -226.525639 
L 131.065232 -228.526904 
L 131.064612 -230.528169 
L 131.06626 -232.529434 
L 131.065872 -234.530699 
L 131.067669 -236.531963 
L 131.06836 -238.533228 
L 131.068112 -240.534493 
L 131.070399 -242.535758 
L 131.070483 -244.537023 
L 131.07056 -246.538288 
L 131.070154 -248.539552 
L 131.070179 -250.540817 
L 131.07136 -252.542082 
L 131.07054 -254.543347 
L 131.070383 -256.544612 
L 131.071802 -258.545876 
L 131.071459 -260.547141 
L 131.072031 -262.548406 
L 131.071678 -264.549671 
L 131.07219 -266.550936 
L 131.071861 -268.5522 
L 131.072296 -270.553465 
L 131.072583 -272.55473 
L 131.072269 -274.555995 
L 131.072526 -276.55726 
L 131.072108 -278.558525 
L 131.072645 -280.559789 
L 131.072817 -282.561054 
L 131.07271 -284.562319 
L 131.072749 -286.563584 
L 131.072156 -288.564849 
L 131.072933 -290.566113 
L 131.072689 -292.567378 
L 131.072885 -294.568643 
L 131.072802 -296.569908 
L 131.072734 -298.571173 
L 131.072683 -300.572438 
L 131.072648 -302.573702 
L 131.072909 -304.574967 
L 131.072877 -306.576232 
L 131.072932 -308.577497 
L 131.07281 -310.578762 
L 131.073031 -312.580026 
L 131.072919 -314.581291 
L 131.073103 -316.582556 
L 131.072899 -318.583821 
L 131.073067 -320.585086 
L 131.072731 -322.586351 
L 131.072925 -324.587615 
L 131.07269 -326.58888 
L 131.073075 -328.590145 
L 131.072992 -330.59141 
L 131.07264 -332.592675 
L 131.072657 -334.593939 
L 131.072902 -336.595204 
L 131.073123 -338.596469 
L 131.072899 -340.597734 
L 131.073351 -340.597734 
L 131.073351 -340.597734 
L 131.073127 -338.596469 
L 131.073348 -336.595204 
L 131.073593 -334.593939 
L 131.07361 -332.592675 
L 131.073258 -330.59141 
L 131.073175 -328.590145 
L 131.07356 -326.58888 
L 131.073325 -324.587615 
L 131.073519 -322.586351 
L 131.073183 -320.585086 
L 131.073351 -318.583821 
L 131.073147 -316.582556 
L 131.073331 -314.581291 
L 131.073219 -312.580026 
L 131.07344 -310.578762 
L 131.073318 -308.577497 
L 131.073373 -306.576232 
L 131.073341 -304.574967 
L 131.073602 -302.573702 
L 131.073567 -300.572438 
L 131.073516 -298.571173 
L 131.073448 -296.569908 
L 131.073365 -294.568643 
L 131.073561 -292.567378 
L 131.073317 -290.566113 
L 131.074094 -288.564849 
L 131.073501 -286.563584 
L 131.07354 -284.562319 
L 131.073433 -282.561054 
L 131.073605 -280.559789 
L 131.074142 -278.558525 
L 131.073724 -276.55726 
L 131.073981 -274.555995 
L 131.073667 -272.55473 
L 131.073954 -270.553465 
L 131.074389 -268.5522 
L 131.07406 -266.550936 
L 131.074572 -264.549671 
L 131.074219 -262.548406 
L 131.074791 -260.547141 
L 131.074448 -258.545876 
L 131.075867 -256.544612 
L 131.07571 -254.543347 
L 131.07489 -252.542082 
L 131.076071 -250.540817 
L 131.076096 -248.539552 
L 131.07569 -246.538288 
L 131.075767 -244.537023 
L 131.075851 -242.535758 
L 131.078138 -240.534493 
L 131.07789 -238.533228 
L 131.078581 -236.531963 
L 131.080378 -234.530699 
L 131.07999 -232.529434 
L 131.081638 -230.528169 
L 131.081018 -228.526904 
L 131.083687 -226.525639 
L 131.085216 -224.524375 
L 131.083226 -222.52311 
L 131.086468 -220.521845 
L 131.091196 -218.52058 
L 131.091455 -216.519315 
L 131.096713 -214.51805 
L 131.092849 -212.516786 
L 131.101562 -210.515521 
L 131.106177 -208.514256 
L 131.109034 -206.512991 
L 131.116559 -204.511726 
L 131.117401 -202.510462 
L 131.13577 -200.509197 
L 131.14481 -198.507932 
L 131.162185 -196.506667 
L 131.170799 -194.505402 
L 131.204149 -192.504137 
L 131.230362 -190.502873 
L 131.264981 -188.501608 
L 131.310506 -186.500343 
L 131.379324 -184.499078 
L 131.453373 -182.497813 
L 131.588626 -180.496549 
L 131.737967 -178.495284 
L 131.946142 -176.494019 
L 132.227097 -174.492754 
L 132.62665 -172.491489 
L 133.134493 -170.490224 
L 133.844117 -168.48896 
L 134.807441 -166.487695 
L 136.053385 -164.48643 
L 137.645473 -162.485165 
L 139.654403 -160.4839 
L 141.793136 -158.482636 
L 143.763686 -156.481371 
L 144.933802 -154.480106 
L 146.192576 -152.478841 
L 148.762625 -150.477576 
L 148.927464 -148.476311 
L 140.050683 -146.475047 
L 131.939345 -144.473782 
L 131.0769 -142.472517 
z
" style="stroke: #6d6d6d; stroke-opacity: 0.9; stroke-width: 1.25"/>
    </defs>
    <g clip-path="url(#p83c02f773f)">
     <use xlink:href="#m882c4b13c2" x="0" y="432" style="fill: #ecbd81; fill-opacity: 0.9; stroke: #6d6d6d; stroke-opacity: 0.9; stroke-width: 1.25"/>
    </g>
   </g>
   <g id="FillBetweenPolyCollection_2">
    <defs>
     <path id="md0fa542b62" d="M 236.692079 -142.29 
L 236.684171 -142.29 
L 234.652125 -144.316263 
L 211.989962 -146.342525 
L 194.442125 -148.368788 
L 202.326272 -150.395051 
L 212.558433 -152.421313 
L 217.514731 -154.447576 
L 220.384469 -156.473838 
L 223.133599 -158.500101 
L 225.752512 -160.526364 
L 227.929815 -162.552626 
L 229.747929 -164.578889 
L 231.289801 -166.605152 
L 232.516357 -168.631414 
L 233.497119 -170.657677 
L 234.208196 -172.683939 
L 234.823021 -174.710202 
L 235.263424 -176.736465 
L 235.587994 -178.762727 
L 235.841097 -180.78899 
L 236.026214 -182.815253 
L 236.165344 -184.841515 
L 236.27496 -186.867778 
L 236.361773 -188.89404 
L 236.423515 -190.920303 
L 236.473455 -192.946566 
L 236.512013 -194.972828 
L 236.537963 -196.999091 
L 236.5673 -199.025354 
L 236.587228 -201.051616 
L 236.59828 -203.077879 
L 236.60734 -205.104141 
L 236.617327 -207.130404 
L 236.623786 -209.156667 
L 236.635111 -211.182929 
L 236.643736 -213.209192 
L 236.649313 -215.235455 
L 236.650178 -217.261717 
L 236.652122 -219.28798 
L 236.658944 -221.314242 
L 236.663001 -223.340505 
L 236.665494 -225.366768 
L 236.666287 -227.39303 
L 236.669557 -229.419293 
L 236.67033 -231.445556 
L 236.674409 -233.471818 
L 236.671849 -235.498081 
L 236.676696 -237.524343 
L 236.674997 -239.550606 
L 236.674555 -241.576869 
L 236.679217 -243.603131 
L 236.678346 -245.629394 
L 236.677653 -247.655657 
L 236.681116 -249.681919 
L 236.67922 -251.708182 
L 236.680096 -253.734444 
L 236.683052 -255.760707 
L 236.681279 -257.78697 
L 236.682675 -259.813232 
L 236.682303 -261.839495 
L 236.683191 -263.865758 
L 236.684838 -265.89202 
L 236.685047 -267.918283 
L 236.684873 -269.944545 
L 236.68445 -271.970808 
L 236.684872 -273.997071 
L 236.685049 -276.023333 
L 236.685478 -278.049596 
L 236.685529 -280.075859 
L 236.685627 -282.102121 
L 236.685611 -284.128384 
L 236.685598 -286.154646 
L 236.685351 -288.180909 
L 236.685694 -290.207172 
L 236.685457 -292.233434 
L 236.686202 -294.259697 
L 236.685788 -296.28596 
L 236.685977 -298.312222 
L 236.686346 -300.338485 
L 236.685977 -302.364747 
L 236.685775 -304.39101 
L 236.686232 -306.417273 
L 236.687205 -308.443535 
L 236.68697 -310.469798 
L 236.686266 -312.496061 
L 236.686852 -314.522323 
L 236.686988 -316.548586 
L 236.687668 -318.574848 
L 236.687261 -320.601111 
L 236.686998 -322.627374 
L 236.687165 -324.653636 
L 236.686946 -326.679899 
L 236.68727 -328.706162 
L 236.68728 -330.732424 
L 236.687861 -332.758687 
L 236.68748 -334.784949 
L 236.687524 -336.811212 
L 236.687551 -338.837475 
L 236.68781 -340.863737 
L 236.687778 -342.89 
L 236.688472 -342.89 
L 236.688472 -342.89 
L 236.68844 -340.863737 
L 236.688699 -338.837475 
L 236.688726 -336.811212 
L 236.68877 -334.784949 
L 236.688389 -332.758687 
L 236.68897 -330.732424 
L 236.68898 -328.706162 
L 236.689304 -326.679899 
L 236.689085 -324.653636 
L 236.689252 -322.627374 
L 236.688989 -320.601111 
L 236.688582 -318.574848 
L 236.689262 -316.548586 
L 236.689398 -314.522323 
L 236.689984 -312.496061 
L 236.68928 -310.469798 
L 236.689045 -308.443535 
L 236.690018 -306.417273 
L 236.690475 -304.39101 
L 236.690273 -302.364747 
L 236.689904 -300.338485 
L 236.690273 -298.312222 
L 236.690462 -296.28596 
L 236.690048 -294.259697 
L 236.690793 -292.233434 
L 236.690556 -290.207172 
L 236.690899 -288.180909 
L 236.690652 -286.154646 
L 236.690639 -284.128384 
L 236.690623 -282.102121 
L 236.690721 -280.075859 
L 236.690772 -278.049596 
L 236.691201 -276.023333 
L 236.691378 -273.997071 
L 236.6918 -271.970808 
L 236.691377 -269.944545 
L 236.691203 -267.918283 
L 236.691412 -265.89202 
L 236.693059 -263.865758 
L 236.693947 -261.839495 
L 236.693575 -259.813232 
L 236.694971 -257.78697 
L 236.693198 -255.760707 
L 236.696154 -253.734444 
L 236.69703 -251.708182 
L 236.695134 -249.681919 
L 236.698597 -247.655657 
L 236.697904 -245.629394 
L 236.697033 -243.603131 
L 236.701695 -241.576869 
L 236.701253 -239.550606 
L 236.699554 -237.524343 
L 236.704401 -235.498081 
L 236.701841 -233.471818 
L 236.70592 -231.445556 
L 236.706693 -229.419293 
L 236.709963 -227.39303 
L 236.710756 -225.366768 
L 236.713249 -223.340505 
L 236.717306 -221.314242 
L 236.724128 -219.28798 
L 236.726072 -217.261717 
L 236.726937 -215.235455 
L 236.732514 -213.209192 
L 236.741139 -211.182929 
L 236.752464 -209.156667 
L 236.758923 -207.130404 
L 236.76891 -205.104141 
L 236.77797 -203.077879 
L 236.789022 -201.051616 
L 236.80895 -199.025354 
L 236.838287 -196.999091 
L 236.864237 -194.972828 
L 236.902795 -192.946566 
L 236.952735 -190.920303 
L 237.014477 -188.89404 
L 237.10129 -186.867778 
L 237.210906 -184.841515 
L 237.350036 -182.815253 
L 237.535153 -180.78899 
L 237.788256 -178.762727 
L 238.112826 -176.736465 
L 238.553229 -174.710202 
L 239.168054 -172.683939 
L 239.879131 -170.657677 
L 240.859893 -168.631414 
L 242.086449 -166.605152 
L 243.628321 -164.578889 
L 245.446435 -162.552626 
L 247.623738 -160.526364 
L 250.242651 -158.500101 
L 252.991781 -156.473838 
L 255.861519 -154.447576 
L 260.817817 -152.421313 
L 271.049978 -150.395051 
L 278.934125 -148.368788 
L 261.386288 -146.342525 
L 238.724125 -144.316263 
L 236.692079 -142.29 
z
" style="stroke: #6d6d6d; stroke-opacity: 0.9; stroke-width: 1.25"/>
    </defs>
    <g clip-path="url(#p83c02f773f)">
     <use xlink:href="#md0fa542b62" x="0" y="432" style="fill: #c0dca9; fill-opacity: 0.9; stroke: #6d6d6d; stroke-opacity: 0.9; stroke-width: 1.25"/>
    </g>
   </g>
   <g id="line2d_10">
    <path d="M 131.073125 289.527483 
L 131.073125 257.215643 
" clip-path="url(#p83c02f773f)" style="fill: none; stroke: #6d6d6d; stroke-width: 1.875; stroke-linecap: round"/>
   </g>
   <g id="line2d_11">
    <path d="M 131.073125 281.921857 
L 131.073125 272.039334 
" clip-path="url(#p83c02f773f)" style="fill: none; stroke: #6d6d6d; stroke-width: 5.625; stroke-linecap: round"/>
   </g>
   <g id="line2d_12">
    <path d="M 131.073125 277.642741 
" clip-path="url(#p83c02f773f)" style="fill: none; stroke: #6d6d6d; stroke-width: 1.5; stroke-linecap: round"/>
    <defs>
     <path id="mdfe5466f2b" d="M 2.34375 0 
L -2.34375 -0 
" style="stroke: #ffffff; stroke-width: 1.125"/>
    </defs>
    <g clip-path="url(#p83c02f773f)">
     <use xlink:href="#mdfe5466f2b" x="131.073125" y="277.642741" style="fill: #ffffff; stroke: #ffffff; stroke-width: 1.125"/>
    </g>
   </g>
   <g id="line2d_13">
    <path d="M 236.688125 289.71 
L 236.688125 258.757868 
" clip-path="url(#p83c02f773f)" style="fill: none; stroke: #6d6d6d; stroke-width: 1.875; stroke-linecap: round"/>
   </g>
   <g id="line2d_14">
    <path d="M 236.688125 283.198027 
L 236.688125 273.421704 
" clip-path="url(#p83c02f773f)" style="fill: none; stroke: #6d6d6d; stroke-width: 5.625; stroke-linecap: round"/>
   </g>
   <g id="line2d_15">
    <path d="M 236.688125 279.791803 
" clip-path="url(#p83c02f773f)" style="fill: none; stroke: #6d6d6d; stroke-width: 1.5; stroke-linecap: round"/>
    <g clip-path="url(#p83c02f773f)">
     <use xlink:href="#mdfe5466f2b" x="236.688125" y="279.791803" style="fill: #ffffff; stroke: #ffffff; stroke-width: 1.125"/>
    </g>
   </g>
   <g id="patch_3">
    <path d="M 78.265625 299.74 
L 78.265625 79.08 
" style="fill: none; stroke: #cccccc; stroke-width: 1.25; stroke-linejoin: miter; stroke-linecap: square"/>
   </g>
   <g id="patch_4">
    <path d="M 289.495625 299.74 
L 289.495625 79.08 
" style="fill: none; stroke: #cccccc; stroke-width: 1.25; stroke-linejoin: miter; stroke-linecap: square"/>
   </g>
   <g id="patch_5">
    <path d="M 78.265625 299.74 
L 289.495625 299.74 
" style="fill: none; stroke: #cccccc; stroke-width: 1.25; stroke-linejoin: miter; stroke-linecap: square"/>
   </g>
   <g id="patch_6">
    <path d="M 78.265625 79.08 
L 289.495625 79.08 
" style="fill: none; stroke: #cccccc; stroke-width: 1.25; stroke-linejoin: miter; stroke-linecap: square"/>
   </g>
   <g id="text_13">
    <text style="font-size: 10px; font-family: 'Arial', 'DejaVu Sans', 'Liberation Sans', 'Bitstream Vera Sans', sans-serif; text-anchor: middle; fill: #262626" x="183.880625" y="73.08" transform="rotate(-0 183.880625 73.08)">Head</text>
   </g>
  </g>
  <g id="axes_2">
   <g id="patch_7">
    <path d="M 345.025625 299.74 
L 556.255625 299.74 
L 556.255625 79.08 
L 345.025625 79.08 
z
" style="fill: #ffffff"/>
   </g>
   <g id="matplotlib.axis_3">
    <g id="xtick_3">
     <g id="text_14">
      <text style="font-size: 10px; font-family: 'Arial', 'DejaVu Sans', 'Liberation Sans', 'Bitstream Vera Sans', sans-serif; fill: #262626" transform="translate(400.5925 375.779062) rotate(-90)">epithelial cell</text>
     </g>
    </g>
    <g id="xtick_4">
     <g id="text_15">
      <text style="font-size: 10px; font-family: 'Arial', 'DejaVu Sans', 'Liberation Sans', 'Bitstream Vera Sans', sans-serif; fill: #262626" transform="translate(506.2075 375.063437) rotate(-90)">unknown cell</text>
     </g>
    </g>
   </g>
   <g id="matplotlib.axis_4">
    <g id="ytick_10">
     <g id="line2d_16">
      <path d="M 345.025625 293.805999 
L 556.255625 293.805999 
" clip-path="url(#p2e2c1514e6)" style="fill: none; stroke: #cccccc; stroke-linecap: round"/>
     </g>
     <g id="text_16">
      <text style="font-size: 10px; font-family: 'Arial', 'DejaVu Sans', 'Liberation Sans', 'Bitstream Vera Sans', sans-serif; text-anchor: end; fill: #262626" x="335.525625" y="297.605218" transform="rotate(-0 335.525625 297.605218)">0</text>
     </g>
    </g>
    <g id="ytick_11">
     <g id="line2d_17">
      <path d="M 345.025625 268.213999 
L 556.255625 268.213999 
" clip-path="url(#p2e2c1514e6)" style="fill: none; stroke: #cccccc; stroke-linecap: round"/>
     </g>
     <g id="text_17">
      <text style="font-size: 10px; font-family: 'Arial', 'DejaVu Sans', 'Liberation Sans', 'Bitstream Vera Sans', sans-serif; text-anchor: end; fill: #262626" x="335.525625" y="272.013218" transform="rotate(-0 335.525625 272.013218)">25</text>
     </g>
    </g>
    <g id="ytick_12">
     <g id="line2d_18">
      <path d="M 345.025625 242.621999 
L 556.255625 242.621999 
" clip-path="url(#p2e2c1514e6)" style="fill: none; stroke: #cccccc; stroke-linecap: round"/>
     </g>
     <g id="text_18">
      <text style="font-size: 10px; font-family: 'Arial', 'DejaVu Sans', 'Liberation Sans', 'Bitstream Vera Sans', sans-serif; text-anchor: end; fill: #262626" x="335.525625" y="246.421217" transform="rotate(-0 335.525625 246.421217)">50</text>
     </g>
    </g>
    <g id="ytick_13">
     <g id="line2d_19">
      <path d="M 345.025625 217.029998 
L 556.255625 217.029998 
" clip-path="url(#p2e2c1514e6)" style="fill: none; stroke: #cccccc; stroke-linecap: round"/>
     </g>
     <g id="text_19">
      <text style="font-size: 10px; font-family: 'Arial', 'DejaVu Sans', 'Liberation Sans', 'Bitstream Vera Sans', sans-serif; text-anchor: end; fill: #262626" x="335.525625" y="220.829217" transform="rotate(-0 335.525625 220.829217)">75</text>
     </g>
    </g>
    <g id="ytick_14">
     <g id="line2d_20">
      <path d="M 345.025625 191.437998 
L 556.255625 191.437998 
" clip-path="url(#p2e2c1514e6)" style="fill: none; stroke: #cccccc; stroke-linecap: round"/>
     </g>
     <g id="text_20">
      <text style="font-size: 10px; font-family: 'Arial', 'DejaVu Sans', 'Liberation Sans', 'Bitstream Vera Sans', sans-serif; text-anchor: end; fill: #262626" x="335.525625" y="195.237216" transform="rotate(-0 335.525625 195.237216)">100</text>
     </g>
    </g>
    <g id="ytick_15">
     <g id="line2d_21">
      <path d="M 345.025625 165.845997 
L 556.255625 165.845997 
" clip-path="url(#p2e2c1514e6)" style="fill: none; stroke: #cccccc; stroke-linecap: round"/>
     </g>
     <g id="text_21">
      <text style="font-size: 10px; font-family: 'Arial', 'DejaVu Sans', 'Liberation Sans', 'Bitstream Vera Sans', sans-serif; text-anchor: end; fill: #262626" x="335.525625" y="169.645216" transform="rotate(-0 335.525625 169.645216)">125</text>
     </g>
    </g>
    <g id="ytick_16">
     <g id="line2d_22">
      <path d="M 345.025625 140.253997 
L 556.255625 140.253997 
" clip-path="url(#p2e2c1514e6)" style="fill: none; stroke: #cccccc; stroke-linecap: round"/>
     </g>
     <g id="text_22">
      <text style="font-size: 10px; font-family: 'Arial', 'DejaVu Sans', 'Liberation Sans', 'Bitstream Vera Sans', sans-serif; text-anchor: end; fill: #262626" x="335.525625" y="144.053215" transform="rotate(-0 335.525625 144.053215)">150</text>
     </g>
    </g>
    <g id="ytick_17">
     <g id="line2d_23">
      <path d="M 345.025625 114.661996 
L 556.255625 114.661996 
" clip-path="url(#p2e2c1514e6)" style="fill: none; stroke: #cccccc; stroke-linecap: round"/>
     </g>
     <g id="text_23">
      <text style="font-size: 10px; font-family: 'Arial', 'DejaVu Sans', 'Liberation Sans', 'Bitstream Vera Sans', sans-serif; text-anchor: end; fill: #262626" x="335.525625" y="118.461215" transform="rotate(-0 335.525625 118.461215)">175</text>
     </g>
    </g>
    <g id="ytick_18">
     <g id="line2d_24">
      <path d="M 345.025625 89.069996 
L 556.255625 89.069996 
" clip-path="url(#p2e2c1514e6)" style="fill: none; stroke: #cccccc; stroke-linecap: round"/>
     </g>
     <g id="text_24">
      <text style="font-size: 10px; font-family: 'Arial', 'DejaVu Sans', 'Liberation Sans', 'Bitstream Vera Sans', sans-serif; text-anchor: end; fill: #262626" x="335.525625" y="92.869215" transform="rotate(-0 335.525625 92.869215)">200</text>
     </g>
    </g>
    <g id="text_25">
     <text style="font-size: 10px; font-family: 'Arial', 'DejaVu Sans', 'Liberation Sans', 'Bitstream Vera Sans', sans-serif; text-anchor: middle; fill: #262626" x="310.358438" y="189.41" transform="rotate(-90 310.358438 189.41)">Distance (μm)</text>
    </g>
   </g>
   <g id="FillBetweenPolyCollection_3">
    <defs>
     <path id="m9037440cec" d="M 397.886129 -142.926238 
L 397.780121 -142.926238 
L 395.654467 -144.945053 
L 386.392158 -146.963868 
L 379.63288 -148.982683 
L 381.364939 -151.001498 
L 384.365099 -153.020314 
L 385.942825 -155.039129 
L 387.285616 -157.057944 
L 389.072486 -159.076759 
L 391.000983 -161.095574 
L 392.696423 -163.11439 
L 394.049304 -165.133205 
L 395.040137 -167.15202 
L 395.750056 -169.170835 
L 396.252029 -171.189651 
L 396.646346 -173.208466 
L 396.921995 -175.227281 
L 397.113669 -177.246096 
L 397.272437 -179.264911 
L 397.384362 -181.283727 
L 397.457712 -183.302542 
L 397.518356 -185.321357 
L 397.575706 -187.340172 
L 397.619608 -189.358987 
L 397.662761 -191.377803 
L 397.690099 -193.396618 
L 397.704141 -195.415433 
L 397.722514 -197.434248 
L 397.740383 -199.453064 
L 397.753924 -201.471879 
L 397.756476 -203.490694 
L 397.769769 -205.509509 
L 397.778029 -207.528324 
L 397.784916 -209.54714 
L 397.787228 -211.565955 
L 397.791504 -213.58477 
L 397.799474 -215.603585 
L 397.798451 -217.6224 
L 397.800023 -219.641216 
L 397.80024 -221.660031 
L 397.80682 -223.678846 
L 397.805646 -225.697661 
L 397.80761 -227.716477 
L 397.809869 -229.735292 
L 397.813914 -231.754107 
L 397.816936 -233.772922 
L 397.812918 -235.791737 
L 397.813286 -237.810553 
L 397.812875 -239.829368 
L 397.815503 -241.848183 
L 397.817952 -243.866998 
L 397.81742 -245.885813 
L 397.817768 -247.904629 
L 397.819618 -249.923444 
L 397.82059 -251.942259 
L 397.823032 -253.961074 
L 397.822918 -255.979889 
L 397.822499 -257.998705 
L 397.82368 -260.01752 
L 397.823123 -262.036335 
L 397.824412 -264.05515 
L 397.827043 -266.073966 
L 397.825739 -268.092781 
L 397.824923 -270.111596 
L 397.826922 -272.130411 
L 397.825128 -274.149226 
L 397.826585 -276.168042 
L 397.826334 -278.186857 
L 397.826412 -280.205672 
L 397.826474 -282.224487 
L 397.826405 -284.243302 
L 397.827024 -286.262118 
L 397.827319 -288.280933 
L 397.828791 -290.299748 
L 397.827651 -292.318563 
L 397.827154 -294.337379 
L 397.828581 -296.356194 
L 397.829247 -298.375009 
L 397.829409 -300.393824 
L 397.829001 -302.412639 
L 397.829235 -304.431455 
L 397.829487 -306.45027 
L 397.828233 -308.469085 
L 397.829067 -310.4879 
L 397.82903 -312.506715 
L 397.829829 -314.525531 
L 397.828048 -316.544346 
L 397.830084 -318.563161 
L 397.830145 -320.581976 
L 397.828941 -322.600792 
L 397.82916 -324.619607 
L 397.83069 -326.638422 
L 397.829992 -328.657237 
L 397.829973 -330.676052 
L 397.830188 -332.694868 
L 397.830773 -334.713683 
L 397.829689 -336.732498 
L 397.830657 -338.751313 
L 397.830369 -340.770128 
L 397.831524 -342.788944 
L 397.834726 -342.788944 
L 397.834726 -342.788944 
L 397.835881 -340.770128 
L 397.835593 -338.751313 
L 397.836561 -336.732498 
L 397.835477 -334.713683 
L 397.836062 -332.694868 
L 397.836277 -330.676052 
L 397.836258 -328.657237 
L 397.83556 -326.638422 
L 397.83709 -324.619607 
L 397.837309 -322.600792 
L 397.836105 -320.581976 
L 397.836166 -318.563161 
L 397.838202 -316.544346 
L 397.836421 -314.525531 
L 397.83722 -312.506715 
L 397.837183 -310.4879 
L 397.838017 -308.469085 
L 397.836763 -306.45027 
L 397.837015 -304.431455 
L 397.837249 -302.412639 
L 397.836841 -300.393824 
L 397.837003 -298.375009 
L 397.837669 -296.356194 
L 397.839096 -294.337379 
L 397.838599 -292.318563 
L 397.837459 -290.299748 
L 397.838931 -288.280933 
L 397.839226 -286.262118 
L 397.839845 -284.243302 
L 397.839776 -282.224487 
L 397.839838 -280.205672 
L 397.839916 -278.186857 
L 397.839665 -276.168042 
L 397.841122 -274.149226 
L 397.839328 -272.130411 
L 397.841327 -270.111596 
L 397.840511 -268.092781 
L 397.839207 -266.073966 
L 397.841838 -264.05515 
L 397.843127 -262.036335 
L 397.84257 -260.01752 
L 397.843751 -257.998705 
L 397.843332 -255.979889 
L 397.843218 -253.961074 
L 397.84566 -251.942259 
L 397.846632 -249.923444 
L 397.848482 -247.904629 
L 397.84883 -245.885813 
L 397.848298 -243.866998 
L 397.850747 -241.848183 
L 397.853375 -239.829368 
L 397.852964 -237.810553 
L 397.853332 -235.791737 
L 397.849314 -233.772922 
L 397.852336 -231.754107 
L 397.856381 -229.735292 
L 397.85864 -227.716477 
L 397.860604 -225.697661 
L 397.85943 -223.678846 
L 397.86601 -221.660031 
L 397.866227 -219.641216 
L 397.867799 -217.6224 
L 397.866776 -215.603585 
L 397.874746 -213.58477 
L 397.879022 -211.565955 
L 397.881334 -209.54714 
L 397.888221 -207.528324 
L 397.896481 -205.509509 
L 397.909774 -203.490694 
L 397.912326 -201.471879 
L 397.925867 -199.453064 
L 397.943736 -197.434248 
L 397.962109 -195.415433 
L 397.976151 -193.396618 
L 398.003489 -191.377803 
L 398.046642 -189.358987 
L 398.090544 -187.340172 
L 398.147894 -185.321357 
L 398.208538 -183.302542 
L 398.281888 -181.283727 
L 398.393813 -179.264911 
L 398.552581 -177.246096 
L 398.744255 -175.227281 
L 399.019904 -173.208466 
L 399.414221 -171.189651 
L 399.916194 -169.170835 
L 400.626113 -167.15202 
L 401.616946 -165.133205 
L 402.969827 -163.11439 
L 404.665267 -161.095574 
L 406.593764 -159.076759 
L 408.380634 -157.057944 
L 409.723425 -155.039129 
L 411.301151 -153.020314 
L 414.301311 -151.001498 
L 416.03337 -148.982683 
L 409.274092 -146.963868 
L 400.011783 -144.945053 
L 397.886129 -142.926238 
z
" style="stroke: #6d6d6d; stroke-opacity: 0.9; stroke-width: 1.25"/>
    </defs>
    <g clip-path="url(#p2e2c1514e6)">
     <use xlink:href="#m9037440cec" x="0" y="432" style="fill: #ecbd81; fill-opacity: 0.9; stroke: #6d6d6d; stroke-opacity: 0.9; stroke-width: 1.25"/>
    </g>
   </g>
   <g id="FillBetweenPolyCollection_4">
    <defs>
     <path id="m9649821652" d="M 503.470672 -142.29 
L 503.425578 -142.29 
L 500.788686 -144.316263 
L 479.641111 -146.342525 
L 461.202125 -148.368788 
L 468.531948 -150.395051 
L 480.38593 -152.421313 
L 486.650538 -154.447576 
L 489.849179 -156.473838 
L 492.259367 -158.500101 
L 494.471284 -160.526364 
L 496.373813 -162.552626 
L 497.945757 -164.578889 
L 499.214823 -166.605152 
L 500.16604 -168.631414 
L 500.87449 -170.657677 
L 501.432389 -172.683939 
L 501.885363 -174.710202 
L 502.197987 -176.736465 
L 502.456479 -178.762727 
L 502.656781 -180.78899 
L 502.781121 -182.815253 
L 502.902105 -184.841515 
L 502.994575 -186.867778 
L 503.064132 -188.89404 
L 503.117648 -190.920303 
L 503.149391 -192.946566 
L 503.18796 -194.972828 
L 503.228712 -196.999091 
L 503.2429 -199.025354 
L 503.274605 -201.051616 
L 503.292774 -203.077879 
L 503.302935 -205.104141 
L 503.315534 -207.130404 
L 503.32627 -209.156667 
L 503.334515 -211.182929 
L 503.347116 -213.209192 
L 503.352462 -215.235455 
L 503.355034 -217.261717 
L 503.366929 -219.28798 
L 503.372224 -221.314242 
L 503.370738 -223.340505 
L 503.374262 -225.366768 
L 503.380684 -227.39303 
L 503.385365 -229.419293 
L 503.39173 -231.445556 
L 503.392507 -233.471818 
L 503.396077 -235.498081 
L 503.399303 -237.524343 
L 503.405878 -239.550606 
L 503.405918 -241.576869 
L 503.407116 -243.603131 
L 503.407498 -245.629394 
L 503.41 -247.655657 
L 503.415753 -249.681919 
L 503.415296 -251.708182 
L 503.417246 -253.734444 
L 503.415552 -255.760707 
L 503.422838 -257.78697 
L 503.420706 -259.813232 
L 503.421666 -261.839495 
L 503.424591 -263.865758 
L 503.424609 -265.89202 
L 503.427208 -267.918283 
L 503.427865 -269.944545 
L 503.429824 -271.970808 
L 503.428484 -273.997071 
L 503.429848 -276.023333 
L 503.431344 -278.049596 
L 503.433166 -280.075859 
L 503.432207 -282.102121 
L 503.430972 -284.128384 
L 503.433277 -286.154646 
L 503.433034 -288.180909 
L 503.434319 -290.207172 
L 503.435585 -292.233434 
L 503.434982 -294.259697 
L 503.437522 -296.28596 
L 503.435254 -298.312222 
L 503.437128 -300.338485 
L 503.435829 -302.364747 
L 503.437015 -304.39101 
L 503.437915 -306.417273 
L 503.43952 -308.443535 
L 503.438306 -310.469798 
L 503.440027 -312.496061 
L 503.43987 -314.522323 
L 503.441037 -316.548586 
L 503.440168 -318.574848 
L 503.441428 -320.601111 
L 503.440265 -322.627374 
L 503.44148 -324.653636 
L 503.441395 -326.679899 
L 503.440776 -328.706162 
L 503.44207 -330.732424 
L 503.4435 -332.758687 
L 503.442028 -334.784949 
L 503.443137 -336.811212 
L 503.44141 -338.837475 
L 503.441942 -340.863737 
L 503.444736 -342.89 
L 503.451514 -342.89 
L 503.451514 -342.89 
L 503.454308 -340.863737 
L 503.45484 -338.837475 
L 503.453113 -336.811212 
L 503.454222 -334.784949 
L 503.45275 -332.758687 
L 503.45418 -330.732424 
L 503.455474 -328.706162 
L 503.454855 -326.679899 
L 503.45477 -324.653636 
L 503.455985 -322.627374 
L 503.454822 -320.601111 
L 503.456082 -318.574848 
L 503.455213 -316.548586 
L 503.45638 -314.522323 
L 503.456223 -312.496061 
L 503.457944 -310.469798 
L 503.45673 -308.443535 
L 503.458335 -306.417273 
L 503.459235 -304.39101 
L 503.460421 -302.364747 
L 503.459122 -300.338485 
L 503.460996 -298.312222 
L 503.458728 -296.28596 
L 503.461268 -294.259697 
L 503.460665 -292.233434 
L 503.461931 -290.207172 
L 503.463216 -288.180909 
L 503.462973 -286.154646 
L 503.465278 -284.128384 
L 503.464043 -282.102121 
L 503.463084 -280.075859 
L 503.464906 -278.049596 
L 503.466402 -276.023333 
L 503.467766 -273.997071 
L 503.466426 -271.970808 
L 503.468385 -269.944545 
L 503.469042 -267.918283 
L 503.471641 -265.89202 
L 503.471659 -263.865758 
L 503.474584 -261.839495 
L 503.475544 -259.813232 
L 503.473412 -257.78697 
L 503.480698 -255.760707 
L 503.479004 -253.734444 
L 503.480954 -251.708182 
L 503.480497 -249.681919 
L 503.48625 -247.655657 
L 503.488752 -245.629394 
L 503.489134 -243.603131 
L 503.490332 -241.576869 
L 503.490372 -239.550606 
L 503.496947 -237.524343 
L 503.500173 -235.498081 
L 503.503743 -233.471818 
L 503.50452 -231.445556 
L 503.510885 -229.419293 
L 503.515566 -227.39303 
L 503.521988 -225.366768 
L 503.525512 -223.340505 
L 503.524026 -221.314242 
L 503.529321 -219.28798 
L 503.541216 -217.261717 
L 503.543788 -215.235455 
L 503.549134 -213.209192 
L 503.561735 -211.182929 
L 503.56998 -209.156667 
L 503.580716 -207.130404 
L 503.593315 -205.104141 
L 503.603476 -203.077879 
L 503.621645 -201.051616 
L 503.65335 -199.025354 
L 503.667538 -196.999091 
L 503.70829 -194.972828 
L 503.746859 -192.946566 
L 503.778602 -190.920303 
L 503.832118 -188.89404 
L 503.901675 -186.867778 
L 503.994145 -184.841515 
L 504.115129 -182.815253 
L 504.239469 -180.78899 
L 504.439771 -178.762727 
L 504.698263 -176.736465 
L 505.010887 -174.710202 
L 505.463861 -172.683939 
L 506.02176 -170.657677 
L 506.73021 -168.631414 
L 507.681427 -166.605152 
L 508.950493 -164.578889 
L 510.522437 -162.552626 
L 512.424966 -160.526364 
L 514.636883 -158.500101 
L 517.047071 -156.473838 
L 520.245712 -154.447576 
L 526.51032 -152.421313 
L 538.364302 -150.395051 
L 545.694125 -148.368788 
L 527.255139 -146.342525 
L 506.107564 -144.316263 
L 503.470672 -142.29 
z
" style="stroke: #6d6d6d; stroke-opacity: 0.9; stroke-width: 1.25"/>
    </defs>
    <g clip-path="url(#p2e2c1514e6)">
     <use xlink:href="#m9649821652" x="0" y="432" style="fill: #c0dca9; fill-opacity: 0.9; stroke: #6d6d6d; stroke-opacity: 0.9; stroke-width: 1.25"/>
    </g>
   </g>
   <g id="line2d_25">
    <path d="M 397.833125 289.073762 
L 397.833125 257.537521 
" clip-path="url(#p2e2c1514e6)" style="fill: none; stroke: #6d6d6d; stroke-width: 1.875; stroke-linecap: round"/>
   </g>
   <g id="line2d_26">
    <path d="M 397.833125 282.164818 
L 397.833125 272.313351 
" clip-path="url(#p2e2c1514e6)" style="fill: none; stroke: #6d6d6d; stroke-width: 5.625; stroke-linecap: round"/>
   </g>
   <g id="line2d_27">
    <path d="M 397.833125 278.104937 
" clip-path="url(#p2e2c1514e6)" style="fill: none; stroke: #6d6d6d; stroke-width: 1.5; stroke-linecap: round"/>
    <g clip-path="url(#p2e2c1514e6)">
     <use xlink:href="#mdfe5466f2b" x="397.833125" y="278.104937" style="fill: #ffffff; stroke: #ffffff; stroke-width: 1.125"/>
    </g>
   </g>
   <g id="line2d_28">
    <path d="M 503.448125 289.71 
L 503.448125 260.287239 
" clip-path="url(#p2e2c1514e6)" style="fill: none; stroke: #6d6d6d; stroke-width: 1.875; stroke-linecap: round"/>
   </g>
   <g id="line2d_29">
    <path d="M 503.448125 283.359948 
L 503.448125 274.130827 
" clip-path="url(#p2e2c1514e6)" style="fill: none; stroke: #6d6d6d; stroke-width: 5.625; stroke-linecap: round"/>
   </g>
   <g id="line2d_30">
    <path d="M 503.448125 280.412994 
" clip-path="url(#p2e2c1514e6)" style="fill: none; stroke: #6d6d6d; stroke-width: 1.5; stroke-linecap: round"/>
    <g clip-path="url(#p2e2c1514e6)">
     <use xlink:href="#mdfe5466f2b" x="503.448125" y="280.412994" style="fill: #ffffff; stroke: #ffffff; stroke-width: 1.125"/>
    </g>
   </g>
   <g id="patch_8">
    <path d="M 345.025625 299.74 
L 345.025625 79.08 
" style="fill: none; stroke: #cccccc; stroke-width: 1.25; stroke-linejoin: miter; stroke-linecap: square"/>
   </g>
   <g id="patch_9">
    <path d="M 556.255625 299.74 
L 556.255625 79.08 
" style="fill: none; stroke: #cccccc; stroke-width: 1.25; stroke-linejoin: miter; stroke-linecap: square"/>
   </g>
   <g id="patch_10">
    <path d="M 345.025625 299.74 
L 556.255625 299.74 
" style="fill: none; stroke: #cccccc; stroke-width: 1.25; stroke-linejoin: miter; stroke-linecap: square"/>
   </g>
   <g id="patch_11">
    <path d="M 345.025625 79.08 
L 556.255625 79.08 
" style="fill: none; stroke: #cccccc; stroke-width: 1.25; stroke-linejoin: miter; stroke-linecap: square"/>
   </g>
   <g id="text_26">
    <text style="font-size: 10px; font-family: 'Arial', 'DejaVu Sans', 'Liberation Sans', 'Bitstream Vera Sans', sans-serif; text-anchor: middle; fill: #262626" x="450.640625" y="73.08" transform="rotate(-0 450.640625 73.08)">Neck</text>
   </g>
  </g>
  <g id="axes_3">
   <g id="patch_12">
    <path d="M 611.785625 299.74 
L 823.015625 299.74 
L 823.015625 79.08 
L 611.785625 79.08 
z
" style="fill: #ffffff"/>
   </g>
   <g id="matplotlib.axis_5">
    <g id="xtick_5">
     <g id="text_27">
      <text style="font-size: 10px; font-family: 'Arial', 'DejaVu Sans', 'Liberation Sans', 'Bitstream Vera Sans', sans-serif; fill: #262626" transform="translate(667.3525 375.779062) rotate(-90)">epithelial cell</text>
     </g>
    </g>
    <g id="xtick_6">
     <g id="text_28">
      <text style="font-size: 10px; font-family: 'Arial', 'DejaVu Sans', 'Liberation Sans', 'Bitstream Vera Sans', sans-serif; fill: #262626" transform="translate(772.9675 375.063437) rotate(-90)">unknown cell</text>
     </g>
    </g>
   </g>
   <g id="matplotlib.axis_6">
    <g id="ytick_19">
     <g id="line2d_31">
      <path d="M 611.785625 293.836588 
L 823.015625 293.836588 
" clip-path="url(#p4e4bad0c65)" style="fill: none; stroke: #cccccc; stroke-linecap: round"/>
     </g>
     <g id="text_29">
      <text style="font-size: 10px; font-family: 'Arial', 'DejaVu Sans', 'Liberation Sans', 'Bitstream Vera Sans', sans-serif; text-anchor: end; fill: #262626" x="602.285625" y="297.635806" transform="rotate(-0 602.285625 297.635806)">0</text>
     </g>
    </g>
    <g id="ytick_20">
     <g id="line2d_32">
      <path d="M 611.785625 268.244577 
L 823.015625 268.244577 
" clip-path="url(#p4e4bad0c65)" style="fill: none; stroke: #cccccc; stroke-linecap: round"/>
     </g>
     <g id="text_30">
      <text style="font-size: 10px; font-family: 'Arial', 'DejaVu Sans', 'Liberation Sans', 'Bitstream Vera Sans', sans-serif; text-anchor: end; fill: #262626" x="602.285625" y="272.043796" transform="rotate(-0 602.285625 272.043796)">25</text>
     </g>
    </g>
    <g id="ytick_21">
     <g id="line2d_33">
      <path d="M 611.785625 242.652567 
L 823.015625 242.652567 
" clip-path="url(#p4e4bad0c65)" style="fill: none; stroke: #cccccc; stroke-linecap: round"/>
     </g>
     <g id="text_31">
      <text style="font-size: 10px; font-family: 'Arial', 'DejaVu Sans', 'Liberation Sans', 'Bitstream Vera Sans', sans-serif; text-anchor: end; fill: #262626" x="602.285625" y="246.451786" transform="rotate(-0 602.285625 246.451786)">50</text>
     </g>
    </g>
    <g id="ytick_22">
     <g id="line2d_34">
      <path d="M 611.785625 217.060557 
L 823.015625 217.060557 
" clip-path="url(#p4e4bad0c65)" style="fill: none; stroke: #cccccc; stroke-linecap: round"/>
     </g>
     <g id="text_32">
      <text style="font-size: 10px; font-family: 'Arial', 'DejaVu Sans', 'Liberation Sans', 'Bitstream Vera Sans', sans-serif; text-anchor: end; fill: #262626" x="602.285625" y="220.859775" transform="rotate(-0 602.285625 220.859775)">75</text>
     </g>
    </g>
    <g id="ytick_23">
     <g id="line2d_35">
      <path d="M 611.785625 191.468546 
L 823.015625 191.468546 
" clip-path="url(#p4e4bad0c65)" style="fill: none; stroke: #cccccc; stroke-linecap: round"/>
     </g>
     <g id="text_33">
      <text style="font-size: 10px; font-family: 'Arial', 'DejaVu Sans', 'Liberation Sans', 'Bitstream Vera Sans', sans-serif; text-anchor: end; fill: #262626" x="602.285625" y="195.267765" transform="rotate(-0 602.285625 195.267765)">100</text>
     </g>
    </g>
    <g id="ytick_24">
     <g id="line2d_36">
      <path d="M 611.785625 165.876536 
L 823.015625 165.876536 
" clip-path="url(#p4e4bad0c65)" style="fill: none; stroke: #cccccc; stroke-linecap: round"/>
     </g>
     <g id="text_34">
      <text style="font-size: 10px; font-family: 'Arial', 'DejaVu Sans', 'Liberation Sans', 'Bitstream Vera Sans', sans-serif; text-anchor: end; fill: #262626" x="602.285625" y="169.675755" transform="rotate(-0 602.285625 169.675755)">125</text>
     </g>
    </g>
    <g id="ytick_25">
     <g id="line2d_37">
      <path d="M 611.785625 140.284526 
L 823.015625 140.284526 
" clip-path="url(#p4e4bad0c65)" style="fill: none; stroke: #cccccc; stroke-linecap: round"/>
     </g>
     <g id="text_35">
      <text style="font-size: 10px; font-family: 'Arial', 'DejaVu Sans', 'Liberation Sans', 'Bitstream Vera Sans', sans-serif; text-anchor: end; fill: #262626" x="602.285625" y="144.083745" transform="rotate(-0 602.285625 144.083745)">150</text>
     </g>
    </g>
    <g id="ytick_26">
     <g id="line2d_38">
      <path d="M 611.785625 114.692515 
L 823.015625 114.692515 
" clip-path="url(#p4e4bad0c65)" style="fill: none; stroke: #cccccc; stroke-linecap: round"/>
     </g>
     <g id="text_36">
      <text style="font-size: 10px; font-family: 'Arial', 'DejaVu Sans', 'Liberation Sans', 'Bitstream Vera Sans', sans-serif; text-anchor: end; fill: #262626" x="602.285625" y="118.491734" transform="rotate(-0 602.285625 118.491734)">175</text>
     </g>
    </g>
    <g id="ytick_27">
     <g id="line2d_39">
      <path d="M 611.785625 89.100505 
L 823.015625 89.100505 
" clip-path="url(#p4e4bad0c65)" style="fill: none; stroke: #cccccc; stroke-linecap: round"/>
     </g>
     <g id="text_37">
      <text style="font-size: 10px; font-family: 'Arial', 'DejaVu Sans', 'Liberation Sans', 'Bitstream Vera Sans', sans-serif; text-anchor: end; fill: #262626" x="602.285625" y="92.899724" transform="rotate(-0 602.285625 92.899724)">200</text>
     </g>
    </g>
    <g id="text_38">
     <text style="font-size: 10px; font-family: 'Arial', 'DejaVu Sans', 'Liberation Sans', 'Bitstream Vera Sans', sans-serif; text-anchor: middle; fill: #262626" x="577.118438" y="189.41" transform="rotate(-90 577.118438 189.41)">Distance (μm)</text>
    </g>
   </g>
   <g id="FillBetweenPolyCollection_5">
    <defs>
     <path id="m2f10117735" d="M 664.625322 -142.575938 
L 664.560928 -142.575938 
L 663.089839 -144.599212 
L 654.714832 -146.622487 
L 646.134299 -148.645761 
L 646.155655 -150.669035 
L 649.021627 -152.69231 
L 650.531874 -154.715584 
L 651.540034 -156.738858 
L 653.089371 -158.762133 
L 655.134053 -160.785407 
L 657.14383 -162.808681 
L 658.919062 -164.831955 
L 660.335952 -166.85523 
L 661.420496 -168.878504 
L 662.189265 -170.901778 
L 662.749331 -172.925053 
L 663.198107 -174.948327 
L 663.507325 -176.971601 
L 663.728254 -178.994876 
L 663.921011 -181.01815 
L 664.058229 -183.041424 
L 664.145293 -185.064699 
L 664.234524 -187.087973 
L 664.281754 -189.111247 
L 664.344749 -191.134522 
L 664.383055 -193.157796 
L 664.414782 -195.18107 
L 664.438903 -197.204345 
L 664.461573 -199.227619 
L 664.478435 -201.250893 
L 664.493495 -203.274167 
L 664.503909 -205.297442 
L 664.510572 -207.320716 
L 664.522064 -209.34399 
L 664.530455 -211.367265 
L 664.525883 -213.390539 
L 664.537357 -215.413813 
L 664.543248 -217.437088 
L 664.546589 -219.460362 
L 664.546435 -221.483636 
L 664.55066 -223.506911 
L 664.555177 -225.530185 
L 664.556976 -227.553459 
L 664.559967 -229.576734 
L 664.563409 -231.600008 
L 664.565402 -233.623282 
L 664.569361 -235.646557 
L 664.563134 -237.669831 
L 664.56483 -239.693105 
L 664.570286 -241.716379 
L 664.573353 -243.739654 
L 664.570805 -245.762928 
L 664.5704 -247.786202 
L 664.572525 -249.809477 
L 664.573975 -251.832751 
L 664.574355 -253.856025 
L 664.5738 -255.8793 
L 664.575737 -257.902574 
L 664.576297 -259.925848 
L 664.577178 -261.949123 
L 664.577965 -263.972397 
L 664.580048 -265.995671 
L 664.578562 -268.018946 
L 664.578492 -270.04222 
L 664.579757 -272.065494 
L 664.580338 -274.088768 
L 664.582291 -276.112043 
L 664.581762 -278.135317 
L 664.580993 -280.158591 
L 664.581669 -282.181866 
L 664.58194 -284.20514 
L 664.583767 -286.228414 
L 664.584372 -288.251689 
L 664.5856 -290.274963 
L 664.581901 -292.298237 
L 664.584132 -294.321512 
L 664.584421 -296.344786 
L 664.585108 -298.36806 
L 664.583005 -300.391335 
L 664.586332 -302.414609 
L 664.58459 -304.437883 
L 664.586027 -306.461158 
L 664.586046 -308.484432 
L 664.586192 -310.507706 
L 664.587089 -312.53098 
L 664.586579 -314.554255 
L 664.588649 -316.577529 
L 664.585025 -318.600803 
L 664.588189 -320.624078 
L 664.588862 -322.647352 
L 664.587654 -324.670626 
L 664.587551 -326.693901 
L 664.587156 -328.717175 
L 664.587276 -330.740449 
L 664.588401 -332.763724 
L 664.588545 -334.786998 
L 664.588001 -336.810272 
L 664.588416 -338.833547 
L 664.587251 -340.856821 
L 664.59003 -342.880095 
L 664.59622 -342.880095 
L 664.59622 -342.880095 
L 664.598999 -340.856821 
L 664.597834 -338.833547 
L 664.598249 -336.810272 
L 664.597705 -334.786998 
L 664.597849 -332.763724 
L 664.598974 -330.740449 
L 664.599094 -328.717175 
L 664.598699 -326.693901 
L 664.598596 -324.670626 
L 664.597388 -322.647352 
L 664.598061 -320.624078 
L 664.601225 -318.600803 
L 664.597601 -316.577529 
L 664.599671 -314.554255 
L 664.599161 -312.53098 
L 664.600058 -310.507706 
L 664.600204 -308.484432 
L 664.600223 -306.461158 
L 664.60166 -304.437883 
L 664.599918 -302.414609 
L 664.603245 -300.391335 
L 664.601142 -298.36806 
L 664.601829 -296.344786 
L 664.602118 -294.321512 
L 664.604349 -292.298237 
L 664.60065 -290.274963 
L 664.601878 -288.251689 
L 664.602483 -286.228414 
L 664.60431 -284.20514 
L 664.604581 -282.181866 
L 664.605257 -280.158591 
L 664.604488 -278.135317 
L 664.603959 -276.112043 
L 664.605912 -274.088768 
L 664.606493 -272.065494 
L 664.607758 -270.04222 
L 664.607688 -268.018946 
L 664.606202 -265.995671 
L 664.608285 -263.972397 
L 664.609072 -261.949123 
L 664.609953 -259.925848 
L 664.610513 -257.902574 
L 664.61245 -255.8793 
L 664.611895 -253.856025 
L 664.612275 -251.832751 
L 664.613725 -249.809477 
L 664.61585 -247.786202 
L 664.615445 -245.762928 
L 664.612897 -243.739654 
L 664.615964 -241.716379 
L 664.62142 -239.693105 
L 664.623116 -237.669831 
L 664.616889 -235.646557 
L 664.620848 -233.623282 
L 664.622841 -231.600008 
L 664.626283 -229.576734 
L 664.629274 -227.553459 
L 664.631073 -225.530185 
L 664.63559 -223.506911 
L 664.639815 -221.483636 
L 664.639661 -219.460362 
L 664.643002 -217.437088 
L 664.648893 -215.413813 
L 664.660367 -213.390539 
L 664.655795 -211.367265 
L 664.664186 -209.34399 
L 664.675678 -207.320716 
L 664.682341 -205.297442 
L 664.692755 -203.274167 
L 664.707815 -201.250893 
L 664.724677 -199.227619 
L 664.747347 -197.204345 
L 664.771468 -195.18107 
L 664.803195 -193.157796 
L 664.841501 -191.134522 
L 664.904496 -189.111247 
L 664.951726 -187.087973 
L 665.040957 -185.064699 
L 665.128021 -183.041424 
L 665.265239 -181.01815 
L 665.457996 -178.994876 
L 665.678925 -176.971601 
L 665.988143 -174.948327 
L 666.436919 -172.925053 
L 666.996985 -170.901778 
L 667.765754 -168.878504 
L 668.850298 -166.85523 
L 670.267188 -164.831955 
L 672.04242 -162.808681 
L 674.052197 -160.785407 
L 676.096879 -158.762133 
L 677.646216 -156.738858 
L 678.654376 -154.715584 
L 680.164623 -152.69231 
L 683.030595 -150.669035 
L 683.051951 -148.645761 
L 674.471418 -146.622487 
L 666.096411 -144.599212 
L 664.625322 -142.575938 
z
" style="stroke: #6d6d6d; stroke-opacity: 0.9; stroke-width: 1.25"/>
    </defs>
    <g clip-path="url(#p4e4bad0c65)">
     <use xlink:href="#m2f10117735" x="0" y="432" style="fill: #ecbd81; fill-opacity: 0.9; stroke: #6d6d6d; stroke-opacity: 0.9; stroke-width: 1.25"/>
    </g>
   </g>
   <g id="FillBetweenPolyCollection_6">
    <defs>
     <path id="ma49d038264" d="M 770.252384 -142.29 
L 770.163866 -142.29 
L 766.984033 -144.316263 
L 746.155003 -146.342525 
L 727.962125 -148.368788 
L 733.490698 -150.395051 
L 744.457778 -152.421313 
L 750.8403 -154.447576 
L 754.060288 -156.473838 
L 756.538539 -158.500101 
L 758.852527 -160.526364 
L 761.018234 -162.552626 
L 762.895413 -164.578889 
L 764.36493 -166.605152 
L 765.590067 -168.631414 
L 766.564848 -170.657677 
L 767.282913 -172.683939 
L 767.96415 -174.710202 
L 768.420521 -176.736465 
L 768.763749 -178.762727 
L 769.010452 -180.78899 
L 769.236315 -182.815253 
L 769.41049 -184.841515 
L 769.522399 -186.867778 
L 769.635521 -188.89404 
L 769.709173 -190.920303 
L 769.775291 -192.946566 
L 769.823551 -194.972828 
L 769.872796 -196.999091 
L 769.900572 -199.025354 
L 769.944247 -201.051616 
L 769.954965 -203.077879 
L 769.976804 -205.104141 
L 769.997285 -207.130404 
L 770.014525 -209.156667 
L 770.031273 -211.182929 
L 770.047072 -213.209192 
L 770.063915 -215.235455 
L 770.068266 -217.261717 
L 770.081209 -219.28798 
L 770.090071 -221.314242 
L 770.098924 -223.340505 
L 770.105748 -225.366768 
L 770.107838 -227.39303 
L 770.120203 -229.419293 
L 770.120388 -231.445556 
L 770.124202 -233.471818 
L 770.131574 -235.498081 
L 770.137703 -237.524343 
L 770.13449 -239.550606 
L 770.14103 -241.576869 
L 770.149706 -243.603131 
L 770.148209 -245.629394 
L 770.14764 -247.655657 
L 770.158962 -249.681919 
L 770.157161 -251.708182 
L 770.162662 -253.734444 
L 770.161596 -255.760707 
L 770.16563 -257.78697 
L 770.165481 -259.813232 
L 770.168771 -261.839495 
L 770.172342 -263.865758 
L 770.173823 -265.89202 
L 770.174978 -267.918283 
L 770.178278 -269.944545 
L 770.176227 -271.970808 
L 770.179996 -273.997071 
L 770.176834 -276.023333 
L 770.182916 -278.049596 
L 770.183023 -280.075859 
L 770.184026 -282.102121 
L 770.186149 -284.128384 
L 770.187353 -286.154646 
L 770.186873 -288.180909 
L 770.187414 -290.207172 
L 770.187404 -292.233434 
L 770.191201 -294.259697 
L 770.189064 -296.28596 
L 770.188758 -298.312222 
L 770.191848 -300.338485 
L 770.190622 -302.364747 
L 770.191148 -304.39101 
L 770.192175 -306.417273 
L 770.190387 -308.443535 
L 770.192509 -310.469798 
L 770.192975 -312.496061 
L 770.191449 -314.522323 
L 770.192145 -316.548586 
L 770.194347 -318.574848 
L 770.192334 -320.601111 
L 770.193129 -322.627374 
L 770.193858 -324.653636 
L 770.194619 -326.679899 
L 770.195596 -328.706162 
L 770.195485 -330.732424 
L 770.195034 -332.758687 
L 770.196079 -334.784949 
L 770.196983 -336.811212 
L 770.19566 -338.837475 
L 770.196183 -340.863737 
L 770.201995 -342.89 
L 770.214255 -342.89 
L 770.214255 -342.89 
L 770.220067 -340.863737 
L 770.22059 -338.837475 
L 770.219267 -336.811212 
L 770.220171 -334.784949 
L 770.221216 -332.758687 
L 770.220765 -330.732424 
L 770.220654 -328.706162 
L 770.221631 -326.679899 
L 770.222392 -324.653636 
L 770.223121 -322.627374 
L 770.223916 -320.601111 
L 770.221903 -318.574848 
L 770.224105 -316.548586 
L 770.224801 -314.522323 
L 770.223275 -312.496061 
L 770.223741 -310.469798 
L 770.225863 -308.443535 
L 770.224075 -306.417273 
L 770.225102 -304.39101 
L 770.225628 -302.364747 
L 770.224402 -300.338485 
L 770.227492 -298.312222 
L 770.227186 -296.28596 
L 770.225049 -294.259697 
L 770.228846 -292.233434 
L 770.228836 -290.207172 
L 770.229377 -288.180909 
L 770.228897 -286.154646 
L 770.230101 -284.128384 
L 770.232224 -282.102121 
L 770.233227 -280.075859 
L 770.233334 -278.049596 
L 770.239416 -276.023333 
L 770.236254 -273.997071 
L 770.240023 -271.970808 
L 770.237972 -269.944545 
L 770.241272 -267.918283 
L 770.242427 -265.89202 
L 770.243908 -263.865758 
L 770.247479 -261.839495 
L 770.250769 -259.813232 
L 770.25062 -257.78697 
L 770.254654 -255.760707 
L 770.253588 -253.734444 
L 770.259089 -251.708182 
L 770.257288 -249.681919 
L 770.26861 -247.655657 
L 770.268041 -245.629394 
L 770.266544 -243.603131 
L 770.27522 -241.576869 
L 770.28176 -239.550606 
L 770.278547 -237.524343 
L 770.284676 -235.498081 
L 770.292048 -233.471818 
L 770.295862 -231.445556 
L 770.296047 -229.419293 
L 770.308412 -227.39303 
L 770.310502 -225.366768 
L 770.317326 -223.340505 
L 770.326179 -221.314242 
L 770.335041 -219.28798 
L 770.347984 -217.261717 
L 770.352335 -215.235455 
L 770.369178 -213.209192 
L 770.384977 -211.182929 
L 770.401725 -209.156667 
L 770.418965 -207.130404 
L 770.439446 -205.104141 
L 770.461285 -203.077879 
L 770.472003 -201.051616 
L 770.515678 -199.025354 
L 770.543454 -196.999091 
L 770.592699 -194.972828 
L 770.640959 -192.946566 
L 770.707077 -190.920303 
L 770.780729 -188.89404 
L 770.893851 -186.867778 
L 771.00576 -184.841515 
L 771.179935 -182.815253 
L 771.405798 -180.78899 
L 771.652501 -178.762727 
L 771.995729 -176.736465 
L 772.4521 -174.710202 
L 773.133337 -172.683939 
L 773.851402 -170.657677 
L 774.826183 -168.631414 
L 776.05132 -166.605152 
L 777.520837 -164.578889 
L 779.398016 -162.552626 
L 781.563723 -160.526364 
L 783.877711 -158.500101 
L 786.355962 -156.473838 
L 789.57595 -154.447576 
L 795.958472 -152.421313 
L 806.925552 -150.395051 
L 812.454125 -148.368788 
L 794.261247 -146.342525 
L 773.432217 -144.316263 
L 770.252384 -142.29 
z
" style="stroke: #6d6d6d; stroke-opacity: 0.9; stroke-width: 1.25"/>
    </defs>
    <g clip-path="url(#p4e4bad0c65)">
     <use xlink:href="#ma49d038264" x="0" y="432" style="fill: #c0dca9; fill-opacity: 0.9; stroke: #6d6d6d; stroke-opacity: 0.9; stroke-width: 1.25"/>
    </g>
   </g>
   <g id="line2d_40">
    <path d="M 664.593125 289.424062 
L 664.593125 254.868233 
" clip-path="url(#p4e4bad0c65)" style="fill: none; stroke: #6d6d6d; stroke-width: 1.875; stroke-linecap: round"/>
   </g>
   <g id="line2d_41">
    <path d="M 664.593125 281.685799 
L 664.593125 270.958762 
" clip-path="url(#p4e4bad0c65)" style="fill: none; stroke: #6d6d6d; stroke-width: 5.625; stroke-linecap: round"/>
   </g>
   <g id="line2d_42">
    <path d="M 664.593125 277.080093 
" clip-path="url(#p4e4bad0c65)" style="fill: none; stroke: #6d6d6d; stroke-width: 1.5; stroke-linecap: round"/>
    <g clip-path="url(#p4e4bad0c65)">
     <use xlink:href="#mdfe5466f2b" x="664.593125" y="277.080093" style="fill: #ffffff; stroke: #ffffff; stroke-width: 1.125"/>
    </g>
   </g>
   <g id="line2d_43">
    <path d="M 770.208125 289.71 
L 770.208125 256.57673 
" clip-path="url(#p4e4bad0c65)" style="fill: none; stroke: #6d6d6d; stroke-width: 1.875; stroke-linecap: round"/>
   </g>
   <g id="line2d_44">
    <path d="M 770.208125 283.056305 
L 770.208125 272.464455 
" clip-path="url(#p4e4bad0c65)" style="fill: none; stroke: #6d6d6d; stroke-width: 5.625; stroke-linecap: round"/>
   </g>
   <g id="line2d_45">
    <path d="M 770.208125 279.554136 
" clip-path="url(#p4e4bad0c65)" style="fill: none; stroke: #6d6d6d; stroke-width: 1.5; stroke-linecap: round"/>
    <g clip-path="url(#p4e4bad0c65)">
     <use xlink:href="#mdfe5466f2b" x="770.208125" y="279.554136" style="fill: #ffffff; stroke: #ffffff; stroke-width: 1.125"/>
    </g>
   </g>
   <g id="patch_13">
    <path d="M 611.785625 299.74 
L 611.785625 79.08 
" style="fill: none; stroke: #cccccc; stroke-width: 1.25; stroke-linejoin: miter; stroke-linecap: square"/>
   </g>
   <g id="patch_14">
    <path d="M 823.015625 299.74 
L 823.015625 79.08 
" style="fill: none; stroke: #cccccc; stroke-width: 1.25; stroke-linejoin: miter; stroke-linecap: square"/>
   </g>
   <g id="patch_15">
    <path d="M 611.785625 299.74 
L 823.015625 299.74 
" style="fill: none; stroke: #cccccc; stroke-width: 1.25; stroke-linejoin: miter; stroke-linecap: square"/>
   </g>
   <g id="patch_16">
    <path d="M 611.785625 79.08 
L 823.015625 79.08 
" style="fill: none; stroke: #cccccc; stroke-width: 1.25; stroke-linejoin: miter; stroke-linecap: square"/>
   </g>
   <g id="text_39">
    <text style="font-size: 10px; font-family: 'Arial', 'DejaVu Sans', 'Liberation Sans', 'Bitstream Vera Sans', sans-serif; text-anchor: middle; fill: #262626" x="717.400625" y="73.08" transform="rotate(-0 717.400625 73.08)">Body</text>
   </g>
  </g>
  <g id="axes_4">
   <g id="patch_17">
    <path d="M 878.545625 299.74 
L 1089.775625 299.74 
L 1089.775625 79.08 
L 878.545625 79.08 
z
" style="fill: #ffffff"/>
   </g>
   <g id="matplotlib.axis_7">
    <g id="xtick_7">
     <g id="text_40">
      <text style="font-size: 10px; font-family: 'Arial', 'DejaVu Sans', 'Liberation Sans', 'Bitstream Vera Sans', sans-serif; fill: #262626" transform="translate(934.1125 375.779062) rotate(-90)">epithelial cell</text>
     </g>
    </g>
    <g id="xtick_8">
     <g id="text_41">
      <text style="font-size: 10px; font-family: 'Arial', 'DejaVu Sans', 'Liberation Sans', 'Bitstream Vera Sans', sans-serif; fill: #262626" transform="translate(1039.7275 375.063437) rotate(-90)">unknown cell</text>
     </g>
    </g>
   </g>
   <g id="matplotlib.axis_8">
    <g id="ytick_28">
     <g id="line2d_46">
      <path d="M 878.545625 294.06855 
L 1089.775625 294.06855 
" clip-path="url(#p9d9f75c3af)" style="fill: none; stroke: #cccccc; stroke-linecap: round"/>
     </g>
     <g id="text_42">
      <text style="font-size: 10px; font-family: 'Arial', 'DejaVu Sans', 'Liberation Sans', 'Bitstream Vera Sans', sans-serif; text-anchor: end; fill: #262626" x="869.045625" y="297.867769" transform="rotate(-0 869.045625 297.867769)">0</text>
     </g>
    </g>
    <g id="ytick_29">
     <g id="line2d_47">
      <path d="M 878.545625 268.44243 
L 1089.775625 268.44243 
" clip-path="url(#p9d9f75c3af)" style="fill: none; stroke: #cccccc; stroke-linecap: round"/>
     </g>
     <g id="text_43">
      <text style="font-size: 10px; font-family: 'Arial', 'DejaVu Sans', 'Liberation Sans', 'Bitstream Vera Sans', sans-serif; text-anchor: end; fill: #262626" x="869.045625" y="272.241649" transform="rotate(-0 869.045625 272.241649)">25</text>
     </g>
    </g>
    <g id="ytick_30">
     <g id="line2d_48">
      <path d="M 878.545625 242.81631 
L 1089.775625 242.81631 
" clip-path="url(#p9d9f75c3af)" style="fill: none; stroke: #cccccc; stroke-linecap: round"/>
     </g>
     <g id="text_44">
      <text style="font-size: 10px; font-family: 'Arial', 'DejaVu Sans', 'Liberation Sans', 'Bitstream Vera Sans', sans-serif; text-anchor: end; fill: #262626" x="869.045625" y="246.615528" transform="rotate(-0 869.045625 246.615528)">50</text>
     </g>
    </g>
    <g id="ytick_31">
     <g id="line2d_49">
      <path d="M 878.545625 217.190189 
L 1089.775625 217.190189 
" clip-path="url(#p9d9f75c3af)" style="fill: none; stroke: #cccccc; stroke-linecap: round"/>
     </g>
     <g id="text_45">
      <text style="font-size: 10px; font-family: 'Arial', 'DejaVu Sans', 'Liberation Sans', 'Bitstream Vera Sans', sans-serif; text-anchor: end; fill: #262626" x="869.045625" y="220.989408" transform="rotate(-0 869.045625 220.989408)">75</text>
     </g>
    </g>
    <g id="ytick_32">
     <g id="line2d_50">
      <path d="M 878.545625 191.564069 
L 1089.775625 191.564069 
" clip-path="url(#p9d9f75c3af)" style="fill: none; stroke: #cccccc; stroke-linecap: round"/>
     </g>
     <g id="text_46">
      <text style="font-size: 10px; font-family: 'Arial', 'DejaVu Sans', 'Liberation Sans', 'Bitstream Vera Sans', sans-serif; text-anchor: end; fill: #262626" x="869.045625" y="195.363288" transform="rotate(-0 869.045625 195.363288)">100</text>
     </g>
    </g>
    <g id="ytick_33">
     <g id="line2d_51">
      <path d="M 878.545625 165.937948 
L 1089.775625 165.937948 
" clip-path="url(#p9d9f75c3af)" style="fill: none; stroke: #cccccc; stroke-linecap: round"/>
     </g>
     <g id="text_47">
      <text style="font-size: 10px; font-family: 'Arial', 'DejaVu Sans', 'Liberation Sans', 'Bitstream Vera Sans', sans-serif; text-anchor: end; fill: #262626" x="869.045625" y="169.737167" transform="rotate(-0 869.045625 169.737167)">125</text>
     </g>
    </g>
    <g id="ytick_34">
     <g id="line2d_52">
      <path d="M 878.545625 140.311828 
L 1089.775625 140.311828 
" clip-path="url(#p9d9f75c3af)" style="fill: none; stroke: #cccccc; stroke-linecap: round"/>
     </g>
     <g id="text_48">
      <text style="font-size: 10px; font-family: 'Arial', 'DejaVu Sans', 'Liberation Sans', 'Bitstream Vera Sans', sans-serif; text-anchor: end; fill: #262626" x="869.045625" y="144.111047" transform="rotate(-0 869.045625 144.111047)">150</text>
     </g>
    </g>
    <g id="ytick_35">
     <g id="line2d_53">
      <path d="M 878.545625 114.685708 
L 1089.775625 114.685708 
" clip-path="url(#p9d9f75c3af)" style="fill: none; stroke: #cccccc; stroke-linecap: round"/>
     </g>
     <g id="text_49">
      <text style="font-size: 10px; font-family: 'Arial', 'DejaVu Sans', 'Liberation Sans', 'Bitstream Vera Sans', sans-serif; text-anchor: end; fill: #262626" x="869.045625" y="118.484926" transform="rotate(-0 869.045625 118.484926)">175</text>
     </g>
    </g>
    <g id="ytick_36">
     <g id="line2d_54">
      <path d="M 878.545625 89.059587 
L 1089.775625 89.059587 
" clip-path="url(#p9d9f75c3af)" style="fill: none; stroke: #cccccc; stroke-linecap: round"/>
     </g>
     <g id="text_50">
      <text style="font-size: 10px; font-family: 'Arial', 'DejaVu Sans', 'Liberation Sans', 'Bitstream Vera Sans', sans-serif; text-anchor: end; fill: #262626" x="869.045625" y="92.858806" transform="rotate(-0 869.045625 92.858806)">200</text>
     </g>
    </g>
    <g id="text_51">
     <text style="font-size: 10px; font-family: 'Arial', 'DejaVu Sans', 'Liberation Sans', 'Bitstream Vera Sans', sans-serif; text-anchor: middle; fill: #262626" x="843.878438" y="189.41" transform="rotate(-90 843.878438 189.41)">Distance (μm)</text>
    </g>
   </g>
   <g id="FillBetweenPolyCollection_7">
    <defs>
     <path id="mdc8f04b249" d="M 931.386944 -142.427647 
L 931.319306 -142.427647 
L 929.465967 -144.452103 
L 920.395281 -146.476559 
L 913.900611 -148.501015 
L 915.421488 -150.525471 
L 917.787808 -152.549927 
L 918.524358 -154.574382 
L 919.492853 -156.598838 
L 921.255194 -158.623294 
L 923.234151 -160.64775 
L 925.036039 -162.672206 
L 926.451725 -164.696662 
L 927.554145 -166.721118 
L 928.421682 -168.745574 
L 929.073076 -170.770029 
L 929.55231 -172.794485 
L 929.951116 -174.818941 
L 930.227171 -176.843397 
L 930.458776 -178.867853 
L 930.633527 -180.892309 
L 930.771431 -182.916765 
L 930.899388 -184.941221 
L 930.975101 -186.965676 
L 931.053712 -188.990132 
L 931.08671 -191.014588 
L 931.135285 -193.039044 
L 931.170419 -195.0635 
L 931.200924 -197.087956 
L 931.217127 -199.112412 
L 931.239115 -201.136868 
L 931.256549 -203.161324 
L 931.265432 -205.185779 
L 931.275932 -207.210235 
L 931.290825 -209.234691 
L 931.291678 -211.259147 
L 931.301399 -213.283603 
L 931.30591 -215.308059 
L 931.308498 -217.332515 
L 931.311151 -219.356971 
L 931.318434 -221.381426 
L 931.32146 -223.405882 
L 931.321794 -225.430338 
L 931.323777 -227.454794 
L 931.32719 -229.47925 
L 931.331 -231.503706 
L 931.330205 -233.528162 
L 931.333805 -235.552618 
L 931.333906 -237.577073 
L 931.333893 -239.601529 
L 931.335391 -241.625985 
L 931.336154 -243.650441 
L 931.339514 -245.674897 
L 931.339211 -247.699353 
L 931.341895 -249.723809 
L 931.341713 -251.748265 
L 931.342153 -253.77272 
L 931.342054 -255.797176 
L 931.345226 -257.821632 
L 931.345287 -259.846088 
L 931.344284 -261.870544 
L 931.346026 -263.895 
L 931.345637 -265.919456 
L 931.346182 -267.943912 
L 931.346421 -269.968367 
L 931.346702 -271.992823 
L 931.347817 -274.017279 
L 931.348433 -276.041735 
L 931.348054 -278.066191 
L 931.348594 -280.090647 
L 931.348178 -282.115103 
L 931.349919 -284.139559 
L 931.349405 -286.164014 
L 931.350433 -288.18847 
L 931.348756 -290.212926 
L 931.349778 -292.237382 
L 931.351011 -294.261838 
L 931.349436 -296.286294 
L 931.35025 -298.31075 
L 931.350457 -300.335206 
L 931.350856 -302.359661 
L 931.350842 -304.384117 
L 931.350382 -306.408573 
L 931.350276 -308.433029 
L 931.35061 -310.457485 
L 931.351261 -312.481941 
L 931.351343 -314.506397 
L 931.351145 -316.530853 
L 931.350689 -318.555308 
L 931.351108 -320.579764 
L 931.35076 -322.60422 
L 931.350839 -324.628676 
L 931.351613 -326.653132 
L 931.351914 -328.677588 
L 931.350953 -330.702044 
L 931.351793 -332.7265 
L 931.351662 -334.750955 
L 931.351152 -336.775411 
L 931.351536 -338.799867 
L 931.351627 -340.824323 
L 931.352278 -342.848779 
L 931.353972 -342.848779 
L 931.353972 -342.848779 
L 931.354623 -340.824323 
L 931.354714 -338.799867 
L 931.355098 -336.775411 
L 931.354588 -334.750955 
L 931.354457 -332.7265 
L 931.355297 -330.702044 
L 931.354336 -328.677588 
L 931.354637 -326.653132 
L 931.355411 -324.628676 
L 931.35549 -322.60422 
L 931.355142 -320.579764 
L 931.355561 -318.555308 
L 931.355105 -316.530853 
L 931.354907 -314.506397 
L 931.354989 -312.481941 
L 931.35564 -310.457485 
L 931.355974 -308.433029 
L 931.355868 -306.408573 
L 931.355408 -304.384117 
L 931.355394 -302.359661 
L 931.355793 -300.335206 
L 931.356 -298.31075 
L 931.356814 -296.286294 
L 931.355239 -294.261838 
L 931.356472 -292.237382 
L 931.357494 -290.212926 
L 931.355817 -288.18847 
L 931.356845 -286.164014 
L 931.356331 -284.139559 
L 931.358072 -282.115103 
L 931.357656 -280.090647 
L 931.358196 -278.066191 
L 931.357817 -276.041735 
L 931.358433 -274.017279 
L 931.359548 -271.992823 
L 931.359829 -269.968367 
L 931.360068 -267.943912 
L 931.360613 -265.919456 
L 931.360224 -263.895 
L 931.361966 -261.870544 
L 931.360963 -259.846088 
L 931.361024 -257.821632 
L 931.364196 -255.797176 
L 931.364097 -253.77272 
L 931.364537 -251.748265 
L 931.364355 -249.723809 
L 931.367039 -247.699353 
L 931.366736 -245.674897 
L 931.370096 -243.650441 
L 931.370859 -241.625985 
L 931.372357 -239.601529 
L 931.372344 -237.577073 
L 931.372445 -235.552618 
L 931.376045 -233.528162 
L 931.37525 -231.503706 
L 931.37906 -229.47925 
L 931.382473 -227.454794 
L 931.384456 -225.430338 
L 931.38479 -223.405882 
L 931.387816 -221.381426 
L 931.395099 -219.356971 
L 931.397752 -217.332515 
L 931.40034 -215.308059 
L 931.404851 -213.283603 
L 931.414572 -211.259147 
L 931.415425 -209.234691 
L 931.430318 -207.210235 
L 931.440818 -205.185779 
L 931.449701 -203.161324 
L 931.467135 -201.136868 
L 931.489123 -199.112412 
L 931.505326 -197.087956 
L 931.535831 -195.0635 
L 931.570965 -193.039044 
L 931.61954 -191.014588 
L 931.652538 -188.990132 
L 931.731149 -186.965676 
L 931.806862 -184.941221 
L 931.934819 -182.916765 
L 932.072723 -180.892309 
L 932.247474 -178.867853 
L 932.479079 -176.843397 
L 932.755134 -174.818941 
L 933.15394 -172.794485 
L 933.633174 -170.770029 
L 934.284568 -168.745574 
L 935.152105 -166.721118 
L 936.254525 -164.696662 
L 937.670211 -162.672206 
L 939.472099 -160.64775 
L 941.451056 -158.623294 
L 943.213397 -156.598838 
L 944.181892 -154.574382 
L 944.918442 -152.549927 
L 947.284762 -150.525471 
L 948.805639 -148.501015 
L 942.310969 -146.476559 
L 933.240283 -144.452103 
L 931.386944 -142.427647 
z
" style="stroke: #6d6d6d; stroke-opacity: 0.9; stroke-width: 1.25"/>
    </defs>
    <g clip-path="url(#p9d9f75c3af)">
     <use xlink:href="#mdc8f04b249" x="0" y="432" style="fill: #ecbd81; fill-opacity: 0.9; stroke: #6d6d6d; stroke-opacity: 0.9; stroke-width: 1.25"/>
    </g>
   </g>
   <g id="FillBetweenPolyCollection_8">
    <defs>
     <path id="m53a85d62ec" d="M 1037.015423 -142.29 
L 1036.920827 -142.29 
L 1031.647057 -144.316263 
L 1004.633606 -146.342525 
L 994.722125 -148.368788 
L 1006.227973 -150.395051 
L 1015.492302 -152.421313 
L 1019.276459 -154.447576 
L 1021.463916 -156.473838 
L 1023.781672 -158.500101 
L 1026.030682 -160.526364 
L 1028.134547 -162.552626 
L 1029.830601 -164.578889 
L 1031.215552 -166.605152 
L 1032.352905 -168.631414 
L 1033.313106 -170.657677 
L 1034.08336 -172.683939 
L 1034.670823 -174.710202 
L 1035.11022 -176.736465 
L 1035.481829 -178.762727 
L 1035.75167 -180.78899 
L 1035.999282 -182.815253 
L 1036.162002 -184.841515 
L 1036.315563 -186.867778 
L 1036.418834 -188.89404 
L 1036.501636 -190.920303 
L 1036.580215 -192.946566 
L 1036.636835 -194.972828 
L 1036.687739 -196.999091 
L 1036.723339 -199.025354 
L 1036.758372 -201.051616 
L 1036.779119 -203.077879 
L 1036.807574 -205.104141 
L 1036.828279 -207.130404 
L 1036.839654 -209.156667 
L 1036.860653 -211.182929 
L 1036.856648 -213.209192 
L 1036.871735 -215.235455 
L 1036.879675 -217.261717 
L 1036.890263 -219.28798 
L 1036.894998 -221.314242 
L 1036.896369 -223.340505 
L 1036.904558 -225.366768 
L 1036.910881 -227.39303 
L 1036.919093 -229.419293 
L 1036.91885 -231.445556 
L 1036.921796 -233.471818 
L 1036.925118 -235.498081 
L 1036.927322 -237.524343 
L 1036.932009 -239.550606 
L 1036.9346 -241.576869 
L 1036.938062 -243.603131 
L 1036.939102 -245.629394 
L 1036.941157 -247.655657 
L 1036.940208 -249.681919 
L 1036.945764 -251.708182 
L 1036.94734 -253.734444 
L 1036.945661 -255.760707 
L 1036.947251 -257.78697 
L 1036.9517 -259.813232 
L 1036.950302 -261.839495 
L 1036.953286 -263.865758 
L 1036.955046 -265.89202 
L 1036.953807 -267.918283 
L 1036.95608 -269.944545 
L 1036.957411 -271.970808 
L 1036.957804 -273.997071 
L 1036.956867 -276.023333 
L 1036.959249 -278.049596 
L 1036.9586 -280.075859 
L 1036.961154 -282.102121 
L 1036.959454 -284.128384 
L 1036.961367 -286.154646 
L 1036.96132 -288.180909 
L 1036.961166 -290.207172 
L 1036.960801 -292.233434 
L 1036.962571 -294.259697 
L 1036.962102 -296.28596 
L 1036.96278 -298.312222 
L 1036.963108 -300.338485 
L 1036.962514 -302.364747 
L 1036.963404 -304.39101 
L 1036.96422 -306.417273 
L 1036.963533 -308.443535 
L 1036.96411 -310.469798 
L 1036.963293 -312.496061 
L 1036.964069 -314.522323 
L 1036.964655 -316.548586 
L 1036.964584 -318.574848 
L 1036.964847 -320.601111 
L 1036.96531 -322.627374 
L 1036.964945 -324.653636 
L 1036.965208 -326.679899 
L 1036.96514 -328.706162 
L 1036.964707 -330.732424 
L 1036.966419 -332.758687 
L 1036.966042 -334.784949 
L 1036.965938 -336.811212 
L 1036.966375 -338.837475 
L 1036.966306 -340.863737 
L 1036.966888 -342.89 
L 1036.969362 -342.89 
L 1036.969362 -342.89 
L 1036.969944 -340.863737 
L 1036.969875 -338.837475 
L 1036.970312 -336.811212 
L 1036.970208 -334.784949 
L 1036.969831 -332.758687 
L 1036.971543 -330.732424 
L 1036.97111 -328.706162 
L 1036.971042 -326.679899 
L 1036.971305 -324.653636 
L 1036.97094 -322.627374 
L 1036.971403 -320.601111 
L 1036.971666 -318.574848 
L 1036.971595 -316.548586 
L 1036.972181 -314.522323 
L 1036.972957 -312.496061 
L 1036.97214 -310.469798 
L 1036.972717 -308.443535 
L 1036.97203 -306.417273 
L 1036.972846 -304.39101 
L 1036.973736 -302.364747 
L 1036.973142 -300.338485 
L 1036.97347 -298.312222 
L 1036.974148 -296.28596 
L 1036.973679 -294.259697 
L 1036.975449 -292.233434 
L 1036.975084 -290.207172 
L 1036.97493 -288.180909 
L 1036.974883 -286.154646 
L 1036.976796 -284.128384 
L 1036.975096 -282.102121 
L 1036.97765 -280.075859 
L 1036.977001 -278.049596 
L 1036.979383 -276.023333 
L 1036.978446 -273.997071 
L 1036.978839 -271.970808 
L 1036.98017 -269.944545 
L 1036.982443 -267.918283 
L 1036.981204 -265.89202 
L 1036.982964 -263.865758 
L 1036.985948 -261.839495 
L 1036.98455 -259.813232 
L 1036.988999 -257.78697 
L 1036.990589 -255.760707 
L 1036.98891 -253.734444 
L 1036.990486 -251.708182 
L 1036.996042 -249.681919 
L 1036.995093 -247.655657 
L 1036.997148 -245.629394 
L 1036.998188 -243.603131 
L 1037.00165 -241.576869 
L 1037.004241 -239.550606 
L 1037.008928 -237.524343 
L 1037.011132 -235.498081 
L 1037.014454 -233.471818 
L 1037.0174 -231.445556 
L 1037.017157 -229.419293 
L 1037.025369 -227.39303 
L 1037.031692 -225.366768 
L 1037.039881 -223.340505 
L 1037.041252 -221.314242 
L 1037.045987 -219.28798 
L 1037.056575 -217.261717 
L 1037.064515 -215.235455 
L 1037.079602 -213.209192 
L 1037.075597 -211.182929 
L 1037.096596 -209.156667 
L 1037.107971 -207.130404 
L 1037.128676 -205.104141 
L 1037.157131 -203.077879 
L 1037.177878 -201.051616 
L 1037.212911 -199.025354 
L 1037.248511 -196.999091 
L 1037.299415 -194.972828 
L 1037.356035 -192.946566 
L 1037.434614 -190.920303 
L 1037.517416 -188.89404 
L 1037.620687 -186.867778 
L 1037.774248 -184.841515 
L 1037.936968 -182.815253 
L 1038.18458 -180.78899 
L 1038.454421 -178.762727 
L 1038.82603 -176.736465 
L 1039.265427 -174.710202 
L 1039.85289 -172.683939 
L 1040.623144 -170.657677 
L 1041.583345 -168.631414 
L 1042.720698 -166.605152 
L 1044.105649 -164.578889 
L 1045.801703 -162.552626 
L 1047.905568 -160.526364 
L 1050.154578 -158.500101 
L 1052.472334 -156.473838 
L 1054.659791 -154.447576 
L 1058.443948 -152.421313 
L 1067.708277 -150.395051 
L 1079.214125 -148.368788 
L 1069.302644 -146.342525 
L 1042.289193 -144.316263 
L 1037.015423 -142.29 
z
" style="stroke: #6d6d6d; stroke-opacity: 0.9; stroke-width: 1.25"/>
    </defs>
    <g clip-path="url(#p9d9f75c3af)">
     <use xlink:href="#m53a85d62ec" x="0" y="432" style="fill: #c0dca9; fill-opacity: 0.9; stroke: #6d6d6d; stroke-opacity: 0.9; stroke-width: 1.25"/>
    </g>
   </g>
   <g id="line2d_55">
    <path d="M 931.353125 289.572353 
L 931.353125 254.766001 
" clip-path="url(#p9d9f75c3af)" style="fill: none; stroke: #6d6d6d; stroke-width: 1.875; stroke-linecap: round"/>
   </g>
   <g id="line2d_56">
    <path d="M 931.353125 282.159488 
L 931.353125 271.201779 
" clip-path="url(#p9d9f75c3af)" style="fill: none; stroke: #6d6d6d; stroke-width: 5.625; stroke-linecap: round"/>
   </g>
   <g id="line2d_57">
    <path d="M 931.353125 277.415752 
" clip-path="url(#p9d9f75c3af)" style="fill: none; stroke: #6d6d6d; stroke-width: 1.5; stroke-linecap: round"/>
    <g clip-path="url(#p9d9f75c3af)">
     <use xlink:href="#mdfe5466f2b" x="931.353125" y="277.415752" style="fill: #ffffff; stroke: #ffffff; stroke-width: 1.125"/>
    </g>
   </g>
   <g id="line2d_58">
    <path d="M 1036.968125 289.71 
L 1036.968125 256.297631 
" clip-path="url(#p9d9f75c3af)" style="fill: none; stroke: #6d6d6d; stroke-width: 1.875; stroke-linecap: round"/>
   </g>
   <g id="line2d_59">
    <path d="M 1036.968125 283.660938 
L 1036.968125 272.71561 
" clip-path="url(#p9d9f75c3af)" style="fill: none; stroke: #6d6d6d; stroke-width: 5.625; stroke-linecap: round"/>
   </g>
   <g id="line2d_60">
    <path d="M 1036.968125 279.959375 
" clip-path="url(#p9d9f75c3af)" style="fill: none; stroke: #6d6d6d; stroke-width: 1.5; stroke-linecap: round"/>
    <g clip-path="url(#p9d9f75c3af)">
     <use xlink:href="#mdfe5466f2b" x="1036.968125" y="279.959375" style="fill: #ffffff; stroke: #ffffff; stroke-width: 1.125"/>
    </g>
   </g>
   <g id="patch_18">
    <path d="M 878.545625 299.74 
L 878.545625 79.08 
" style="fill: none; stroke: #cccccc; stroke-width: 1.25; stroke-linejoin: miter; stroke-linecap: square"/>
   </g>
   <g id="patch_19">
    <path d="M 1089.775625 299.74 
L 1089.775625 79.08 
" style="fill: none; stroke: #cccccc; stroke-width: 1.25; stroke-linejoin: miter; stroke-linecap: square"/>
   </g>
   <g id="patch_20">
    <path d="M 878.545625 299.74 
L 1089.775625 299.74 
" style="fill: none; stroke: #cccccc; stroke-width: 1.25; stroke-linejoin: miter; stroke-linecap: square"/>
   </g>
   <g id="patch_21">
    <path d="M 878.545625 79.08 
L 1089.775625 79.08 
" style="fill: none; stroke: #cccccc; stroke-width: 1.25; stroke-linejoin: miter; stroke-linecap: square"/>
   </g>
   <g id="text_52">
    <text style="font-size: 10px; font-family: 'Arial', 'DejaVu Sans', 'Liberation Sans', 'Bitstream Vera Sans', sans-serif; text-anchor: middle; fill: #262626" x="984.160625" y="73.08" transform="rotate(-0 984.160625 73.08)">Tail</text>
   </g>
  </g>
  <g id="text_53">
   <text style="font-size: 10px; font-family: 'Arial', 'DejaVu Sans', 'Liberation Sans', 'Bitstream Vera Sans', sans-serif; text-anchor: middle; fill: #262626" x="562.735625" y="43.998437" transform="rotate(-0 562.735625 43.998437)">Distance distribution per Level One Cell Type in `pancreas-geomx-ufl` (density normalization = count)</text>
  </g>
  <g id="text_54">
   <text style="font-size: 10px; font-family: 'Arial', 'DejaVu Sans', 'Liberation Sans', 'Bitstream Vera Sans', sans-serif; text-anchor: middle; fill: #262626" x="562.735625" y="393.920312" transform="rotate(-0 562.735625 393.920312)">Level One Cell Type</text>
  </g>
 </g>
 <defs>
  <clipPath id="p83c02f773f">
   <rect x="78.265625" y="79.08" width="211.23" height="220.66"/>
  </clipPath>
  <clipPath id="p2e2c1514e6">
   <rect x="345.025625" y="79.08" width="211.23" height="220.66"/>
  </clipPath>
  <clipPath id="p4e4bad0c65">
   <rect x="611.785625" y="79.08" width="211.23" height="220.66"/>
  </clipPath>
  <clipPath id="p9d9f75c3af">
   <rect x="878.545625" y="79.08" width="211.23" height="220.66"/>
  </clipPath>
 </defs>
</svg>
