<?xml version="1.0" encoding="utf-8" standalone="no"?>
<!DOCTYPE svg PUBLIC "-//W3C//DTD SVG 1.1//EN"
  "http://www.w3.org/Graphics/SVG/1.1/DTD/svg11.dtd">
<svg xmlns:xlink="http://www.w3.org/1999/xlink" width="770.959625pt" height="410.52025pt" viewBox="0 0 770.959625 410.52025" xmlns="http://www.w3.org/2000/svg" version="1.1">
 <metadata>
  <rdf:RDF xmlns:dc="http://purl.org/dc/elements/1.1/" xmlns:cc="http://creativecommons.org/ns#" xmlns:rdf="http://www.w3.org/1999/02/22-rdf-syntax-ns#">
   <cc:Work>
    <dc:type rdf:resource="http://purl.org/dc/dcmitype/StillImage"/>
    <dc:date>2025-07-25T12:57:42.462496</dc:date>
    <dc:format>image/svg+xml</dc:format>
    <dc:creator>
     <cc:Agent>
      <dc:title>Matplotlib v3.10.3, https://matplotlib.org/</dc:title>
     </cc:Agent>
    </dc:creator>
   </cc:Work>
  </rdf:RDF>
 </metadata>
 <defs>
  <style type="text/css">*{stroke-linejoin: round; stroke-linecap: butt}</style>
 </defs>
 <g id="figure_1">
  <g id="patch_1">
   <path d="M 0 410.52025 
L 770.959625 410.52025 
L 770.959625 -0 
L 0 -0 
z
" style="fill: #ffffff"/>
  </g>
  <g id="axes_1">
   <g id="patch_2">
    <path d="M 78.265625 246.512437 
L 734.959625 246.512437 
L 734.959625 49.598437 
L 78.265625 49.598437 
z
" style="fill: #ffffff"/>
   </g>
   <g id="matplotlib.axis_1">
    <g id="xtick_1">
     <g id="text_1">
      <text style="font-size: 10px; font-family: 'Arial', 'DejaVu Sans', 'Liberation Sans', 'Bitstream Vera Sans', sans-serif; fill: #262626" transform="translate(190.474 321.835875) rotate(-90)">unknown cell</text>
     </g>
    </g>
    <g id="xtick_2">
     <g id="text_2">
      <text style="font-size: 10px; font-family: 'Arial', 'DejaVu Sans', 'Liberation Sans', 'Bitstream Vera Sans', sans-serif; fill: #262626" transform="translate(409.372 360.842125) rotate(-90)">gland epithelium cell</text>
     </g>
    </g>
    <g id="xtick_3">
     <g id="text_3">
      <text style="font-size: 10px; font-family: 'Arial', 'DejaVu Sans', 'Liberation Sans', 'Bitstream Vera Sans', sans-serif; fill: #262626" transform="translate(628.27 298.948375) rotate(-90)">beta cell</text>
     </g>
    </g>
    <g id="text_4">
     <text style="font-size: 10px; font-family: 'Arial', 'DejaVu Sans', 'Liberation Sans', 'Bitstream Vera Sans', sans-serif; text-anchor: middle; fill: #262626" x="406.612625" y="372.440562" transform="rotate(-0 406.612625 372.440562)">Level Two Cell Type</text>
    </g>
   </g>
   <g id="matplotlib.axis_2">
    <g id="ytick_1">
     <g id="line2d_1">
      <path d="M 78.265625 240.956152 
L 734.959625 240.956152 
" clip-path="url(#pf14e27da59)" style="fill: none; stroke: #cccccc; stroke-width: 2; stroke-linecap: round"/>
     </g>
     <g id="text_5">
      <text style="font-size: 10px; font-family: 'Arial', 'DejaVu Sans', 'Liberation Sans', 'Bitstream Vera Sans', sans-serif; text-anchor: end; fill: #262626" x="68.765625" y="244.755371" transform="rotate(-0 68.765625 244.755371)">0</text>
     </g>
    </g>
    <g id="ytick_2">
     <g id="line2d_2">
      <path d="M 78.265625 218.15421 
L 734.959625 218.15421 
" clip-path="url(#pf14e27da59)" style="fill: none; stroke: #cccccc; stroke-width: 2; stroke-linecap: round"/>
     </g>
     <g id="text_6">
      <text style="font-size: 10px; font-family: 'Arial', 'DejaVu Sans', 'Liberation Sans', 'Bitstream Vera Sans', sans-serif; text-anchor: end; fill: #262626" x="68.765625" y="221.953428" transform="rotate(-0 68.765625 221.953428)">25</text>
     </g>
    </g>
    <g id="ytick_3">
     <g id="line2d_3">
      <path d="M 78.265625 195.352267 
L 734.959625 195.352267 
" clip-path="url(#pf14e27da59)" style="fill: none; stroke: #cccccc; stroke-width: 2; stroke-linecap: round"/>
     </g>
     <g id="text_7">
      <text style="font-size: 10px; font-family: 'Arial', 'DejaVu Sans', 'Liberation Sans', 'Bitstream Vera Sans', sans-serif; text-anchor: end; fill: #262626" x="68.765625" y="199.151486" transform="rotate(-0 68.765625 199.151486)">50</text>
     </g>
    </g>
    <g id="ytick_4">
     <g id="line2d_4">
      <path d="M 78.265625 172.550325 
L 734.959625 172.550325 
" clip-path="url(#pf14e27da59)" style="fill: none; stroke: #cccccc; stroke-width: 2; stroke-linecap: round"/>
     </g>
     <g id="text_8">
      <text style="font-size: 10px; font-family: 'Arial', 'DejaVu Sans', 'Liberation Sans', 'Bitstream Vera Sans', sans-serif; text-anchor: end; fill: #262626" x="68.765625" y="176.349544" transform="rotate(-0 68.765625 176.349544)">75</text>
     </g>
    </g>
    <g id="ytick_5">
     <g id="line2d_5">
      <path d="M 78.265625 149.748383 
L 734.959625 149.748383 
" clip-path="url(#pf14e27da59)" style="fill: none; stroke: #cccccc; stroke-width: 2; stroke-linecap: round"/>
     </g>
     <g id="text_9">
      <text style="font-size: 10px; font-family: 'Arial', 'DejaVu Sans', 'Liberation Sans', 'Bitstream Vera Sans', sans-serif; text-anchor: end; fill: #262626" x="68.765625" y="153.547602" transform="rotate(-0 68.765625 153.547602)">100</text>
     </g>
    </g>
    <g id="ytick_6">
     <g id="line2d_6">
      <path d="M 78.265625 126.946441 
L 734.959625 126.946441 
" clip-path="url(#pf14e27da59)" style="fill: none; stroke: #cccccc; stroke-width: 2; stroke-linecap: round"/>
     </g>
     <g id="text_10">
      <text style="font-size: 10px; font-family: 'Arial', 'DejaVu Sans', 'Liberation Sans', 'Bitstream Vera Sans', sans-serif; text-anchor: end; fill: #262626" x="68.765625" y="130.74566" transform="rotate(-0 68.765625 130.74566)">125</text>
     </g>
    </g>
    <g id="ytick_7">
     <g id="line2d_7">
      <path d="M 78.265625 104.144499 
L 734.959625 104.144499 
" clip-path="url(#pf14e27da59)" style="fill: none; stroke: #cccccc; stroke-width: 2; stroke-linecap: round"/>
     </g>
     <g id="text_11">
      <text style="font-size: 10px; font-family: 'Arial', 'DejaVu Sans', 'Liberation Sans', 'Bitstream Vera Sans', sans-serif; text-anchor: end; fill: #262626" x="68.765625" y="107.943717" transform="rotate(-0 68.765625 107.943717)">150</text>
     </g>
    </g>
    <g id="ytick_8">
     <g id="line2d_8">
      <path d="M 78.265625 81.342556 
L 734.959625 81.342556 
" clip-path="url(#pf14e27da59)" style="fill: none; stroke: #cccccc; stroke-width: 2; stroke-linecap: round"/>
     </g>
     <g id="text_12">
      <text style="font-size: 10px; font-family: 'Arial', 'DejaVu Sans', 'Liberation Sans', 'Bitstream Vera Sans', sans-serif; text-anchor: end; fill: #262626" x="68.765625" y="85.141775" transform="rotate(-0 68.765625 85.141775)">175</text>
     </g>
    </g>
    <g id="ytick_9">
     <g id="line2d_9">
      <path d="M 78.265625 58.540614 
L 734.959625 58.540614 
" clip-path="url(#pf14e27da59)" style="fill: none; stroke: #cccccc; stroke-width: 2; stroke-linecap: round"/>
     </g>
     <g id="text_13">
      <text style="font-size: 10px; font-family: 'Arial', 'DejaVu Sans', 'Liberation Sans', 'Bitstream Vera Sans', sans-serif; text-anchor: end; fill: #262626" x="68.765625" y="62.339833" transform="rotate(-0 68.765625 62.339833)">200</text>
     </g>
    </g>
    <g id="text_14">
     <text style="font-size: 10px; font-family: 'Arial', 'DejaVu Sans', 'Liberation Sans', 'Bitstream Vera Sans', sans-serif; text-anchor: middle; fill: #262626" x="43.598437" y="148.055437" transform="rotate(-90 43.598437 148.055437)">Distance (μm)</text>
    </g>
   </g>
   <g id="FillBetweenPolyCollection_1">
    <defs>
     <path id="med5350cb48" d="M 187.719202 -172.958449 
L 187.710048 -172.958449 
L 184.637646 -174.766658 
L 142.083949 -176.574868 
L 100.155425 -178.383077 
L 114.337026 -180.191286 
L 137.667786 -181.999496 
L 149.670526 -183.807705 
L 155.632668 -185.615914 
L 160.723512 -187.424124 
L 165.528181 -189.232333 
L 169.899251 -191.040543 
L 173.567787 -192.848752 
L 176.536588 -194.656961 
L 178.930956 -196.465171 
L 180.81955 -198.27338 
L 182.280816 -200.081589 
L 183.514925 -201.889799 
L 184.381144 -203.698008 
L 185.067821 -205.506217 
L 185.584323 -207.314427 
L 185.988284 -209.122636 
L 186.301791 -210.930846 
L 186.557028 -212.739055 
L 186.755137 -214.547264 
L 186.901632 -216.355474 
L 187.017371 -218.163683 
L 187.112013 -219.971892 
L 187.206341 -221.780102 
L 187.262086 -223.588311 
L 187.329967 -225.39652 
L 187.360053 -227.20473 
L 187.399874 -229.012939 
L 187.429416 -230.821149 
L 187.453953 -232.629358 
L 187.484578 -234.437567 
L 187.500603 -236.245777 
L 187.521825 -238.053986 
L 187.528902 -239.862195 
L 187.552708 -241.670405 
L 187.563675 -243.478614 
L 187.569651 -245.286824 
L 187.580749 -247.095033 
L 187.588705 -248.903242 
L 187.603704 -250.711452 
L 187.607497 -252.519661 
L 187.613094 -254.32787 
L 187.619228 -256.13608 
L 187.628913 -257.944289 
L 187.630058 -259.752498 
L 187.635472 -261.560708 
L 187.645675 -263.368917 
L 187.643846 -265.177127 
L 187.645064 -266.985336 
L 187.65633 -268.793545 
L 187.656283 -270.601755 
L 187.662469 -272.409964 
L 187.660068 -274.218173 
L 187.666028 -276.026383 
L 187.668138 -277.834592 
L 187.668914 -279.642801 
L 187.674858 -281.451011 
L 187.677434 -283.25922 
L 187.678225 -285.06743 
L 187.681855 -286.875639 
L 187.682333 -288.683848 
L 187.684595 -290.492058 
L 187.682475 -292.300267 
L 187.688691 -294.108476 
L 187.688677 -295.916686 
L 187.690069 -297.724895 
L 187.689389 -299.533105 
L 187.692574 -301.341314 
L 187.691479 -303.149523 
L 187.69254 -304.957733 
L 187.692605 -306.765942 
L 187.695768 -308.574151 
L 187.695854 -310.382361 
L 187.694532 -312.19057 
L 187.697966 -313.998779 
L 187.695503 -315.806989 
L 187.697104 -317.615198 
L 187.699224 -319.423408 
L 187.698939 -321.231617 
L 187.699373 -323.039826 
L 187.699585 -324.848036 
L 187.699392 -326.656245 
L 187.701183 -328.464454 
L 187.701948 -330.272664 
L 187.70125 -332.080873 
L 187.701701 -333.889082 
L 187.702513 -335.697292 
L 187.702588 -337.505501 
L 187.702536 -339.313711 
L 187.70305 -341.12192 
L 187.705214 -342.930129 
L 187.704257 -344.738339 
L 187.705364 -346.546548 
L 187.703821 -348.354757 
L 187.704865 -350.162967 
L 187.70927 -351.971176 
L 187.71998 -351.971176 
L 187.71998 -351.971176 
L 187.724385 -350.162967 
L 187.725429 -348.354757 
L 187.723886 -346.546548 
L 187.724993 -344.738339 
L 187.724036 -342.930129 
L 187.7262 -341.12192 
L 187.726714 -339.313711 
L 187.726662 -337.505501 
L 187.726737 -335.697292 
L 187.727549 -333.889082 
L 187.728 -332.080873 
L 187.727302 -330.272664 
L 187.728067 -328.464454 
L 187.729858 -326.656245 
L 187.729665 -324.848036 
L 187.729877 -323.039826 
L 187.730311 -321.231617 
L 187.730026 -319.423408 
L 187.732146 -317.615198 
L 187.733747 -315.806989 
L 187.731284 -313.998779 
L 187.734718 -312.19057 
L 187.733396 -310.382361 
L 187.733482 -308.574151 
L 187.736645 -306.765942 
L 187.73671 -304.957733 
L 187.737771 -303.149523 
L 187.736676 -301.341314 
L 187.739861 -299.533105 
L 187.739181 -297.724895 
L 187.740573 -295.916686 
L 187.740559 -294.108476 
L 187.746775 -292.300267 
L 187.744655 -290.492058 
L 187.746917 -288.683848 
L 187.747395 -286.875639 
L 187.751025 -285.06743 
L 187.751816 -283.25922 
L 187.754392 -281.451011 
L 187.760336 -279.642801 
L 187.761112 -277.834592 
L 187.763222 -276.026383 
L 187.769182 -274.218173 
L 187.766781 -272.409964 
L 187.772967 -270.601755 
L 187.77292 -268.793545 
L 187.784186 -266.985336 
L 187.785404 -265.177127 
L 187.783575 -263.368917 
L 187.793778 -261.560708 
L 187.799192 -259.752498 
L 187.800337 -257.944289 
L 187.810022 -256.13608 
L 187.816156 -254.32787 
L 187.821753 -252.519661 
L 187.825546 -250.711452 
L 187.840545 -248.903242 
L 187.848501 -247.095033 
L 187.859599 -245.286824 
L 187.865575 -243.478614 
L 187.876542 -241.670405 
L 187.900348 -239.862195 
L 187.907425 -238.053986 
L 187.928647 -236.245777 
L 187.944672 -234.437567 
L 187.975297 -232.629358 
L 187.999834 -230.821149 
L 188.029376 -229.012939 
L 188.069197 -227.20473 
L 188.099283 -225.39652 
L 188.167164 -223.588311 
L 188.222909 -221.780102 
L 188.317237 -219.971892 
L 188.411879 -218.163683 
L 188.527618 -216.355474 
L 188.674113 -214.547264 
L 188.872222 -212.739055 
L 189.127459 -210.930846 
L 189.440966 -209.122636 
L 189.844927 -207.314427 
L 190.361429 -205.506217 
L 191.048106 -203.698008 
L 191.914325 -201.889799 
L 193.148434 -200.081589 
L 194.6097 -198.27338 
L 196.498294 -196.465171 
L 198.892662 -194.656961 
L 201.861463 -192.848752 
L 205.529999 -191.040543 
L 209.901069 -189.232333 
L 214.705738 -187.424124 
L 219.796582 -185.615914 
L 225.758724 -183.807705 
L 237.761464 -181.999496 
L 261.092224 -180.191286 
L 275.273825 -178.383077 
L 233.345301 -176.574868 
L 190.791604 -174.766658 
L 187.719202 -172.958449 
z
" style="stroke: #636363; stroke-opacity: 0.9; stroke-width: 1.25"/>
    </defs>
    <g clip-path="url(#pf14e27da59)">
     <use xlink:href="#med5350cb48" x="0" y="410.52025" style="fill: #e49467; fill-opacity: 0.9; stroke: #636363; stroke-opacity: 0.9; stroke-width: 1.25"/>
    </g>
   </g>
   <g id="FillBetweenPolyCollection_2">
    <defs>
     <path id="m6bec9bfddd" d="M 406.618854 -173.121201 
L 406.606396 -173.121201 
L 404.284601 -174.927677 
L 377.297397 -176.734154 
L 342.742763 -178.54063 
L 342.419051 -180.347106 
L 353.47302 -182.153582 
L 358.746433 -183.960059 
L 362.63036 -185.766535 
L 368.959293 -187.573011 
L 376.306369 -189.379487 
L 383.414558 -191.185964 
L 389.202252 -192.99244 
L 393.608278 -194.798916 
L 397.001814 -196.605393 
L 399.428536 -198.411869 
L 401.197051 -200.218345 
L 402.56646 -202.024821 
L 403.52931 -203.831298 
L 404.219712 -205.637774 
L 404.781055 -207.44425 
L 405.180982 -209.250726 
L 405.471227 -211.057203 
L 405.706119 -212.863679 
L 405.877569 -214.670155 
L 406.012698 -216.476631 
L 406.126854 -218.283108 
L 406.210893 -220.089584 
L 406.268227 -221.89606 
L 406.31442 -223.702536 
L 406.355467 -225.509013 
L 406.393014 -227.315489 
L 406.417892 -229.121965 
L 406.436061 -230.928442 
L 406.462847 -232.734918 
L 406.467712 -234.541394 
L 406.484591 -236.34787 
L 406.499909 -238.154347 
L 406.508957 -239.960823 
L 406.511052 -241.767299 
L 406.522173 -243.573775 
L 406.528281 -245.380252 
L 406.532299 -247.186728 
L 406.538846 -248.993204 
L 406.545836 -250.79968 
L 406.552922 -252.606157 
L 406.556498 -254.412633 
L 406.560324 -256.219109 
L 406.555332 -258.025585 
L 406.556246 -259.832062 
L 406.562658 -261.638538 
L 406.56837 -263.445014 
L 406.568642 -265.251491 
L 406.567606 -267.057967 
L 406.573976 -268.864443 
L 406.580028 -270.670919 
L 406.579145 -272.477396 
L 406.578568 -274.283872 
L 406.582612 -276.090348 
L 406.583479 -277.896824 
L 406.583336 -279.703301 
L 406.586888 -281.509777 
L 406.590508 -283.316253 
L 406.588076 -285.122729 
L 406.586257 -286.929206 
L 406.591618 -288.735682 
L 406.59026 -290.542158 
L 406.593655 -292.348634 
L 406.592461 -294.155111 
L 406.59139 -295.961587 
L 406.591739 -297.768063 
L 406.593295 -299.57454 
L 406.596051 -301.381016 
L 406.596951 -303.187492 
L 406.598708 -304.993968 
L 406.595407 -306.800445 
L 406.598602 -308.606921 
L 406.596791 -310.413397 
L 406.600218 -312.219873 
L 406.59763 -314.02635 
L 406.601187 -315.832826 
L 406.599519 -317.639302 
L 406.601869 -319.445778 
L 406.599325 -321.252255 
L 406.600565 -323.058731 
L 406.602842 -324.865207 
L 406.602573 -326.671683 
L 406.602274 -328.47816 
L 406.599656 -330.284636 
L 406.60486 -332.091112 
L 406.60342 -333.897589 
L 406.602227 -335.704065 
L 406.60451 -337.510541 
L 406.603485 -339.317017 
L 406.602716 -341.123494 
L 406.604759 -342.92997 
L 406.604827 -344.736446 
L 406.603263 -346.542922 
L 406.605729 -348.349399 
L 406.603546 -350.155875 
L 406.607962 -351.962351 
L 406.617288 -351.962351 
L 406.617288 -351.962351 
L 406.621704 -350.155875 
L 406.619521 -348.349399 
L 406.621987 -346.542922 
L 406.620423 -344.736446 
L 406.620491 -342.92997 
L 406.622534 -341.123494 
L 406.621765 -339.317017 
L 406.62074 -337.510541 
L 406.623023 -335.704065 
L 406.62183 -333.897589 
L 406.62039 -332.091112 
L 406.625594 -330.284636 
L 406.622976 -328.47816 
L 406.622677 -326.671683 
L 406.622408 -324.865207 
L 406.624685 -323.058731 
L 406.625925 -321.252255 
L 406.623381 -319.445778 
L 406.625731 -317.639302 
L 406.624063 -315.832826 
L 406.62762 -314.02635 
L 406.625032 -312.219873 
L 406.628459 -310.413397 
L 406.626648 -308.606921 
L 406.629843 -306.800445 
L 406.626542 -304.993968 
L 406.628299 -303.187492 
L 406.629199 -301.381016 
L 406.631955 -299.57454 
L 406.633511 -297.768063 
L 406.63386 -295.961587 
L 406.632789 -294.155111 
L 406.631595 -292.348634 
L 406.63499 -290.542158 
L 406.633632 -288.735682 
L 406.638993 -286.929206 
L 406.637174 -285.122729 
L 406.634742 -283.316253 
L 406.638362 -281.509777 
L 406.641914 -279.703301 
L 406.641771 -277.896824 
L 406.642638 -276.090348 
L 406.646682 -274.283872 
L 406.646105 -272.477396 
L 406.645222 -270.670919 
L 406.651274 -268.864443 
L 406.657644 -267.057967 
L 406.656608 -265.251491 
L 406.65688 -263.445014 
L 406.662592 -261.638538 
L 406.669004 -259.832062 
L 406.669918 -258.025585 
L 406.664926 -256.219109 
L 406.668752 -254.412633 
L 406.672328 -252.606157 
L 406.679414 -250.79968 
L 406.686404 -248.993204 
L 406.692951 -247.186728 
L 406.696969 -245.380252 
L 406.703077 -243.573775 
L 406.714198 -241.767299 
L 406.716293 -239.960823 
L 406.725341 -238.154347 
L 406.740659 -236.34787 
L 406.757538 -234.541394 
L 406.762403 -232.734918 
L 406.789189 -230.928442 
L 406.807358 -229.121965 
L 406.832236 -227.315489 
L 406.869783 -225.509013 
L 406.91083 -223.702536 
L 406.957023 -221.89606 
L 407.014357 -220.089584 
L 407.098396 -218.283108 
L 407.212552 -216.476631 
L 407.347681 -214.670155 
L 407.519131 -212.863679 
L 407.754023 -211.057203 
L 408.044268 -209.250726 
L 408.444195 -207.44425 
L 409.005538 -205.637774 
L 409.69594 -203.831298 
L 410.65879 -202.024821 
L 412.028199 -200.218345 
L 413.796714 -198.411869 
L 416.223436 -196.605393 
L 419.616972 -194.798916 
L 424.022998 -192.99244 
L 429.810692 -191.185964 
L 436.918881 -189.379487 
L 444.265957 -187.573011 
L 450.59489 -185.766535 
L 454.478817 -183.960059 
L 459.75223 -182.153582 
L 470.806199 -180.347106 
L 470.482487 -178.54063 
L 435.927853 -176.734154 
L 408.940649 -174.927677 
L 406.618854 -173.121201 
z
" style="stroke: #636363; stroke-opacity: 0.9; stroke-width: 1.25"/>
    </defs>
    <g clip-path="url(#pf14e27da59)">
     <use xlink:href="#m6bec9bfddd" x="0" y="410.52025" style="fill: #f7f7c6; fill-opacity: 0.9; stroke: #636363; stroke-opacity: 0.9; stroke-width: 1.25"/>
    </g>
   </g>
   <g id="FillBetweenPolyCollection_3">
    <defs>
     <path id="m8710753128" d="M 627.154267 -173.977084 
L 623.866983 -173.977084 
L 618.021772 -175.743384 
L 608.493402 -177.509685 
L 601.499262 -179.275985 
L 598.903833 -181.042286 
L 597.800747 -182.808586 
L 596.358836 -184.574887 
L 595.31686 -186.341187 
L 595.501758 -188.107488 
L 596.48898 -189.873788 
L 598.088769 -191.640088 
L 600.319341 -193.406389 
L 602.564545 -195.172689 
L 604.511172 -196.93899 
L 606.44158 -198.70529 
L 608.412945 -200.471591 
L 610.262246 -202.237891 
L 612.056455 -204.004191 
L 613.808088 -205.770492 
L 615.137563 -207.536792 
L 616.186539 -209.303093 
L 617.270051 -211.069393 
L 618.420607 -212.835694 
L 619.373216 -214.601994 
L 620.135341 -216.368295 
L 620.803296 -218.134595 
L 621.379699 -219.900895 
L 621.945893 -221.667196 
L 622.507063 -223.433496 
L 622.977799 -225.199797 
L 623.340815 -226.966097 
L 623.584411 -228.732398 
L 623.8284 -230.498698 
L 624.099812 -232.264998 
L 624.314051 -234.031299 
L 624.432 -235.797599 
L 624.51036 -237.5639 
L 624.634665 -239.3302 
L 624.731741 -241.096501 
L 624.807733 -242.862801 
L 624.900066 -244.629102 
L 624.968079 -246.395402 
L 625.008433 -248.161702 
L 625.060667 -249.928003 
L 625.120916 -251.694303 
L 625.170986 -253.460604 
L 625.191779 -255.226904 
L 625.213972 -256.993205 
L 625.223145 -258.759505 
L 625.243244 -260.525805 
L 625.289802 -262.292106 
L 625.323911 -264.058406 
L 625.338166 -265.824707 
L 625.338624 -267.591007 
L 625.344793 -269.357308 
L 625.349823 -271.123608 
L 625.365822 -272.889909 
L 625.382908 -274.656209 
L 625.398622 -276.422509 
L 625.402295 -278.18881 
L 625.405783 -279.95511 
L 625.420682 -281.721411 
L 625.431107 -283.487711 
L 625.437207 -285.254012 
L 625.448479 -287.020312 
L 625.456592 -288.786612 
L 625.455051 -290.552913 
L 625.457414 -292.319213 
L 625.469211 -294.085514 
L 625.481354 -295.851814 
L 625.4838 -297.618115 
L 625.483899 -299.384415 
L 625.481105 -301.150716 
L 625.481419 -302.917016 
L 625.485281 -304.683316 
L 625.486981 -306.449617 
L 625.493447 -308.215917 
L 625.49853 -309.982218 
L 625.496496 -311.748518 
L 625.496365 -313.514819 
L 625.496759 -315.281119 
L 625.494478 -317.04742 
L 625.491015 -318.81372 
L 625.493574 -320.58002 
L 625.497985 -322.346321 
L 625.495778 -324.112621 
L 625.494628 -325.878922 
L 625.500006 -327.645222 
L 625.501827 -329.411523 
L 625.496953 -331.177823 
L 625.488667 -332.944123 
L 625.490511 -334.710424 
L 625.499609 -336.476724 
L 625.505379 -338.243025 
L 625.506651 -340.009325 
L 625.504188 -341.775626 
L 625.504684 -343.541926 
L 625.502167 -345.308227 
L 625.49797 -347.074527 
L 625.503039 -348.840827 
L 625.518211 -348.840827 
L 625.518211 -348.840827 
L 625.52328 -347.074527 
L 625.519083 -345.308227 
L 625.516566 -343.541926 
L 625.517062 -341.775626 
L 625.514599 -340.009325 
L 625.515871 -338.243025 
L 625.521641 -336.476724 
L 625.530739 -334.710424 
L 625.532583 -332.944123 
L 625.524297 -331.177823 
L 625.519423 -329.411523 
L 625.521244 -327.645222 
L 625.526622 -325.878922 
L 625.525472 -324.112621 
L 625.523265 -322.346321 
L 625.527676 -320.58002 
L 625.530235 -318.81372 
L 625.526772 -317.04742 
L 625.524491 -315.281119 
L 625.524885 -313.514819 
L 625.524754 -311.748518 
L 625.52272 -309.982218 
L 625.527803 -308.215917 
L 625.534269 -306.449617 
L 625.535969 -304.683316 
L 625.539831 -302.917016 
L 625.540145 -301.150716 
L 625.537351 -299.384415 
L 625.53745 -297.618115 
L 625.539896 -295.851814 
L 625.552039 -294.085514 
L 625.563836 -292.319213 
L 625.566199 -290.552913 
L 625.564658 -288.786612 
L 625.572771 -287.020312 
L 625.584043 -285.254012 
L 625.590143 -283.487711 
L 625.600568 -281.721411 
L 625.615467 -279.95511 
L 625.618955 -278.18881 
L 625.622628 -276.422509 
L 625.638342 -274.656209 
L 625.655428 -272.889909 
L 625.671427 -271.123608 
L 625.676457 -269.357308 
L 625.682626 -267.591007 
L 625.683084 -265.824707 
L 625.697339 -264.058406 
L 625.731448 -262.292106 
L 625.778006 -260.525805 
L 625.798105 -258.759505 
L 625.807278 -256.993205 
L 625.829471 -255.226904 
L 625.850264 -253.460604 
L 625.900334 -251.694303 
L 625.960583 -249.928003 
L 626.012817 -248.161702 
L 626.053171 -246.395402 
L 626.121184 -244.629102 
L 626.213517 -242.862801 
L 626.289509 -241.096501 
L 626.386585 -239.3302 
L 626.51089 -237.5639 
L 626.58925 -235.797599 
L 626.707199 -234.031299 
L 626.921438 -232.264998 
L 627.19285 -230.498698 
L 627.436839 -228.732398 
L 627.680435 -226.966097 
L 628.043451 -225.199797 
L 628.514187 -223.433496 
L 629.075357 -221.667196 
L 629.641551 -219.900895 
L 630.217954 -218.134595 
L 630.885909 -216.368295 
L 631.648034 -214.601994 
L 632.600643 -212.835694 
L 633.751199 -211.069393 
L 634.834711 -209.303093 
L 635.883687 -207.536792 
L 637.213162 -205.770492 
L 638.964795 -204.004191 
L 640.759004 -202.237891 
L 642.608305 -200.471591 
L 644.57967 -198.70529 
L 646.510078 -196.93899 
L 648.456705 -195.172689 
L 650.701909 -193.406389 
L 652.932481 -191.640088 
L 654.53227 -189.873788 
L 655.519492 -188.107488 
L 655.70439 -186.341187 
L 654.662414 -184.574887 
L 653.220503 -182.808586 
L 652.117417 -181.042286 
L 649.521988 -179.275985 
L 642.527848 -177.509685 
L 632.999478 -175.743384 
L 627.154267 -173.977084 
z
" style="stroke: #636363; stroke-opacity: 0.9; stroke-width: 1.25"/>
    </defs>
    <g clip-path="url(#pf14e27da59)">
     <use xlink:href="#m8710753128" x="0" y="410.52025" style="fill: #90c6a6; fill-opacity: 0.9; stroke: #636363; stroke-opacity: 0.9; stroke-width: 1.25"/>
    </g>
   </g>
   <g id="line2d_10">
    <path d="M 187.714625 237.561801 
L 187.714625 208.952101 
" clip-path="url(#pf14e27da59)" style="fill: none; stroke: #636363; stroke-width: 1.875; stroke-linecap: round"/>
   </g>
   <g id="line2d_11">
    <path d="M 187.714625 231.61726 
L 187.714625 222.551156 
" clip-path="url(#pf14e27da59)" style="fill: none; stroke: #636363; stroke-width: 5.625; stroke-linecap: round"/>
   </g>
   <g id="line2d_12">
    <path d="M 187.714625 228.59893 
" clip-path="url(#pf14e27da59)" style="fill: none; stroke: #636363; stroke-width: 1.5; stroke-linecap: round"/>
    <defs>
     <path id="m001929d27e" d="M 2.34375 0 
L -2.34375 -0 
" style="stroke: #ffffff; stroke-width: 1.125"/>
    </defs>
    <g clip-path="url(#pf14e27da59)">
     <use xlink:href="#m001929d27e" x="187.714625" y="228.59893" style="fill: #ffffff; stroke: #ffffff; stroke-width: 1.125"/>
    </g>
   </g>
   <g id="line2d_13">
    <path d="M 406.612625 237.399049 
L 406.612625 208.028 
" clip-path="url(#pf14e27da59)" style="fill: none; stroke: #636363; stroke-width: 1.875; stroke-linecap: round"/>
   </g>
   <g id="line2d_14">
    <path d="M 406.612625 230.500622 
L 406.612625 221.511563 
" clip-path="url(#pf14e27da59)" style="fill: none; stroke: #636363; stroke-width: 5.625; stroke-linecap: round"/>
   </g>
   <g id="line2d_15">
    <path d="M 406.612625 226.653099 
" clip-path="url(#pf14e27da59)" style="fill: none; stroke: #636363; stroke-width: 1.5; stroke-linecap: round"/>
    <g clip-path="url(#pf14e27da59)">
     <use xlink:href="#m001929d27e" x="406.612625" y="226.653099" style="fill: #ffffff; stroke: #ffffff; stroke-width: 1.125"/>
    </g>
   </g>
   <g id="line2d_16">
    <path d="M 625.510625 236.543166 
L 625.510625 183.068527 
" clip-path="url(#pf14e27da59)" style="fill: none; stroke: #636363; stroke-width: 1.875; stroke-linecap: round"/>
   </g>
   <g id="line2d_17">
    <path d="M 625.510625 225.850868 
L 625.510625 208.737597 
" clip-path="url(#pf14e27da59)" style="fill: none; stroke: #636363; stroke-width: 5.625; stroke-linecap: round"/>
   </g>
   <g id="line2d_18">
    <path d="M 625.510625 218.724539 
" clip-path="url(#pf14e27da59)" style="fill: none; stroke: #636363; stroke-width: 1.5; stroke-linecap: round"/>
    <g clip-path="url(#pf14e27da59)">
     <use xlink:href="#m001929d27e" x="625.510625" y="218.724539" style="fill: #ffffff; stroke: #ffffff; stroke-width: 1.125"/>
    </g>
   </g>
   <g id="patch_3">
    <path d="M 78.265625 246.512437 
L 78.265625 49.598437 
" style="fill: none; stroke: #cccccc; stroke-width: 1.25; stroke-linejoin: miter; stroke-linecap: square"/>
   </g>
   <g id="patch_4">
    <path d="M 734.959625 246.512437 
L 734.959625 49.598437 
" style="fill: none; stroke: #cccccc; stroke-width: 1.25; stroke-linejoin: miter; stroke-linecap: square"/>
   </g>
   <g id="patch_5">
    <path d="M 78.265625 246.512437 
L 734.959625 246.512437 
" style="fill: none; stroke: #cccccc; stroke-width: 1.25; stroke-linejoin: miter; stroke-linecap: square"/>
   </g>
   <g id="patch_6">
    <path d="M 78.265625 49.598437 
L 734.959625 49.598437 
" style="fill: none; stroke: #cccccc; stroke-width: 1.25; stroke-linejoin: miter; stroke-linecap: square"/>
   </g>
   <g id="text_15">
    <text style="font-size: 10px; font-family: 'Arial', 'DejaVu Sans', 'Liberation Sans', 'Bitstream Vera Sans', sans-serif; text-anchor: middle; fill: #262626" x="406.612625" y="43.598437" transform="rotate(-0 406.612625 43.598437)">Violin Plot of distances by Level Two Cell Type (Density Normalization: area)</text>
   </g>
   <g id="legend_1">
    <g id="patch_7">
     <path d="M 723.959625 62.598437 
L 727.959625 62.598437 
Q 729.959625 62.598437 729.959625 60.598437 
L 729.959625 56.598437 
Q 729.959625 54.598437 727.959625 54.598437 
L 723.959625 54.598437 
Q 721.959625 54.598437 721.959625 56.598437 
L 721.959625 60.598437 
Q 721.959625 62.598437 723.959625 62.598437 
z
" style="fill: #ffffff; opacity: 0.8; stroke: #cccccc; stroke-width: 0.8; stroke-linejoin: miter"/>
    </g>
   </g>
  </g>
 </g>
 <defs>
  <clipPath id="pf14e27da59">
   <rect x="78.265625" y="49.598437" width="656.694" height="196.914"/>
  </clipPath>
 </defs>
</svg>
