<?xml version="1.0" encoding="utf-8" standalone="no"?>
<!DOCTYPE svg PUBLIC "-//W3C//DTD SVG 1.1//EN"
  "http://www.w3.org/Graphics/SVG/1.1/DTD/svg11.dtd">
<svg xmlns:xlink="http://www.w3.org/1999/xlink" width="770.959625pt" height="410.479625pt" viewBox="0 0 770.959625 410.479625" xmlns="http://www.w3.org/2000/svg" version="1.1">
 <metadata>
  <rdf:RDF xmlns:dc="http://purl.org/dc/elements/1.1/" xmlns:cc="http://creativecommons.org/ns#" xmlns:rdf="http://www.w3.org/1999/02/22-rdf-syntax-ns#">
   <cc:Work>
    <dc:type rdf:resource="http://purl.org/dc/dcmitype/StillImage"/>
    <dc:date>2025-07-01T15:24:37.095348</dc:date>
    <dc:format>image/svg+xml</dc:format>
    <dc:creator>
     <cc:Agent>
      <dc:title>Matplotlib v3.10.3, https://matplotlib.org/</dc:title>
     </cc:Agent>
    </dc:creator>
   </cc:Work>
  </rdf:RDF>
 </metadata>
 <defs>
  <style type="text/css">*{stroke-linejoin: round; stroke-linecap: butt}</style>
 </defs>
 <g id="figure_1">
  <g id="patch_1">
   <path d="M 0 410.479625 
L 770.959625 410.479625 
L 770.959625 0 
L 0 0 
z
" style="fill: #ffffff"/>
  </g>
  <g id="axes_1">
   <g id="patch_2">
    <path d="M 78.265625 284.762437 
L 734.959625 284.762437 
L 734.959625 49.598437 
L 78.265625 49.598437 
z
" style="fill: #ffffff"/>
   </g>
   <g id="matplotlib.axis_1">
    <g id="xtick_1">
     <g id="text_1">
      <!-- unknown cell -->
      <g style="fill: #262626" transform="translate(245.1985 360.085875) rotate(-90) scale(0.1 -0.1)">
       <defs>
        <path id="DejaVuSans-75" d="M 544 1381 
L 544 3500 
L 1119 3500 
L 1119 1403 
Q 1119 906 1312 657 
Q 1506 409 1894 409 
Q 2359 409 2629 706 
Q 2900 1003 2900 1516 
L 2900 3500 
L 3475 3500 
L 3475 0 
L 2900 0 
L 2900 538 
Q 2691 219 2414 64 
Q 2138 -91 1772 -91 
Q 1169 -91 856 284 
Q 544 659 544 1381 
z
M 1991 3584 
L 1991 3584 
z
" transform="scale(0.015625)"/>
        <path id="DejaVuSans-6e" d="M 3513 2113 
L 3513 0 
L 2938 0 
L 2938 2094 
Q 2938 2591 2744 2837 
Q 2550 3084 2163 3084 
Q 1697 3084 1428 2787 
Q 1159 2491 1159 1978 
L 1159 0 
L 581 0 
L 581 3500 
L 1159 3500 
L 1159 2956 
Q 1366 3272 1645 3428 
Q 1925 3584 2291 3584 
Q 2894 3584 3203 3211 
Q 3513 2838 3513 2113 
z
" transform="scale(0.015625)"/>
        <path id="DejaVuSans-6b" d="M 581 4863 
L 1159 4863 
L 1159 1991 
L 2875 3500 
L 3609 3500 
L 1753 1863 
L 3688 0 
L 2938 0 
L 1159 1709 
L 1159 0 
L 581 0 
L 581 4863 
z
" transform="scale(0.015625)"/>
        <path id="DejaVuSans-6f" d="M 1959 3097 
Q 1497 3097 1228 2736 
Q 959 2375 959 1747 
Q 959 1119 1226 758 
Q 1494 397 1959 397 
Q 2419 397 2687 759 
Q 2956 1122 2956 1747 
Q 2956 2369 2687 2733 
Q 2419 3097 1959 3097 
z
M 1959 3584 
Q 2709 3584 3137 3096 
Q 3566 2609 3566 1747 
Q 3566 888 3137 398 
Q 2709 -91 1959 -91 
Q 1206 -91 779 398 
Q 353 888 353 1747 
Q 353 2609 779 3096 
Q 1206 3584 1959 3584 
z
" transform="scale(0.015625)"/>
        <path id="DejaVuSans-77" d="M 269 3500 
L 844 3500 
L 1563 769 
L 2278 3500 
L 2956 3500 
L 3675 769 
L 4391 3500 
L 4966 3500 
L 4050 0 
L 3372 0 
L 2619 2869 
L 1863 0 
L 1184 0 
L 269 3500 
z
" transform="scale(0.015625)"/>
        <path id="DejaVuSans-20" transform="scale(0.015625)"/>
        <path id="DejaVuSans-63" d="M 3122 3366 
L 3122 2828 
Q 2878 2963 2633 3030 
Q 2388 3097 2138 3097 
Q 1578 3097 1268 2742 
Q 959 2388 959 1747 
Q 959 1106 1268 751 
Q 1578 397 2138 397 
Q 2388 397 2633 464 
Q 2878 531 3122 666 
L 3122 134 
Q 2881 22 2623 -34 
Q 2366 -91 2075 -91 
Q 1284 -91 818 406 
Q 353 903 353 1747 
Q 353 2603 823 3093 
Q 1294 3584 2113 3584 
Q 2378 3584 2631 3529 
Q 2884 3475 3122 3366 
z
" transform="scale(0.015625)"/>
        <path id="DejaVuSans-65" d="M 3597 1894 
L 3597 1613 
L 953 1613 
Q 991 1019 1311 708 
Q 1631 397 2203 397 
Q 2534 397 2845 478 
Q 3156 559 3463 722 
L 3463 178 
Q 3153 47 2828 -22 
Q 2503 -91 2169 -91 
Q 1331 -91 842 396 
Q 353 884 353 1716 
Q 353 2575 817 3079 
Q 1281 3584 2069 3584 
Q 2775 3584 3186 3129 
Q 3597 2675 3597 1894 
z
M 3022 2063 
Q 3016 2534 2758 2815 
Q 2500 3097 2075 3097 
Q 1594 3097 1305 2825 
Q 1016 2553 972 2059 
L 3022 2063 
z
" transform="scale(0.015625)"/>
        <path id="DejaVuSans-6c" d="M 603 4863 
L 1178 4863 
L 1178 0 
L 603 0 
L 603 4863 
z
" transform="scale(0.015625)"/>
       </defs>
       <use xlink:href="#DejaVuSans-75"/>
       <use xlink:href="#DejaVuSans-6e" transform="translate(63.378906 0)"/>
       <use xlink:href="#DejaVuSans-6b" transform="translate(126.757812 0)"/>
       <use xlink:href="#DejaVuSans-6e" transform="translate(184.667969 0)"/>
       <use xlink:href="#DejaVuSans-6f" transform="translate(248.046875 0)"/>
       <use xlink:href="#DejaVuSans-77" transform="translate(309.228516 0)"/>
       <use xlink:href="#DejaVuSans-6e" transform="translate(391.015625 0)"/>
       <use xlink:href="#DejaVuSans-20" transform="translate(454.394531 0)"/>
       <use xlink:href="#DejaVuSans-63" transform="translate(486.181641 0)"/>
       <use xlink:href="#DejaVuSans-65" transform="translate(541.162109 0)"/>
       <use xlink:href="#DejaVuSans-6c" transform="translate(602.685547 0)"/>
       <use xlink:href="#DejaVuSans-6c" transform="translate(630.46875 0)"/>
      </g>
     </g>
    </g>
    <g id="xtick_2">
     <g id="text_2">
      <!-- epithelial cell -->
      <g style="fill: #262626" transform="translate(573.5455 360.8015) rotate(-90) scale(0.1 -0.1)">
       <defs>
        <path id="DejaVuSans-70" d="M 1159 525 
L 1159 -1331 
L 581 -1331 
L 581 3500 
L 1159 3500 
L 1159 2969 
Q 1341 3281 1617 3432 
Q 1894 3584 2278 3584 
Q 2916 3584 3314 3078 
Q 3713 2572 3713 1747 
Q 3713 922 3314 415 
Q 2916 -91 2278 -91 
Q 1894 -91 1617 61 
Q 1341 213 1159 525 
z
M 3116 1747 
Q 3116 2381 2855 2742 
Q 2594 3103 2138 3103 
Q 1681 3103 1420 2742 
Q 1159 2381 1159 1747 
Q 1159 1113 1420 752 
Q 1681 391 2138 391 
Q 2594 391 2855 752 
Q 3116 1113 3116 1747 
z
" transform="scale(0.015625)"/>
        <path id="DejaVuSans-69" d="M 603 3500 
L 1178 3500 
L 1178 0 
L 603 0 
L 603 3500 
z
M 603 4863 
L 1178 4863 
L 1178 4134 
L 603 4134 
L 603 4863 
z
" transform="scale(0.015625)"/>
        <path id="DejaVuSans-74" d="M 1172 4494 
L 1172 3500 
L 2356 3500 
L 2356 3053 
L 1172 3053 
L 1172 1153 
Q 1172 725 1289 603 
Q 1406 481 1766 481 
L 2356 481 
L 2356 0 
L 1766 0 
Q 1100 0 847 248 
Q 594 497 594 1153 
L 594 3053 
L 172 3053 
L 172 3500 
L 594 3500 
L 594 4494 
L 1172 4494 
z
" transform="scale(0.015625)"/>
        <path id="DejaVuSans-68" d="M 3513 2113 
L 3513 0 
L 2938 0 
L 2938 2094 
Q 2938 2591 2744 2837 
Q 2550 3084 2163 3084 
Q 1697 3084 1428 2787 
Q 1159 2491 1159 1978 
L 1159 0 
L 581 0 
L 581 4863 
L 1159 4863 
L 1159 2956 
Q 1366 3272 1645 3428 
Q 1925 3584 2291 3584 
Q 2894 3584 3203 3211 
Q 3513 2838 3513 2113 
z
" transform="scale(0.015625)"/>
        <path id="DejaVuSans-61" d="M 2194 1759 
Q 1497 1759 1228 1600 
Q 959 1441 959 1056 
Q 959 750 1161 570 
Q 1363 391 1709 391 
Q 2188 391 2477 730 
Q 2766 1069 2766 1631 
L 2766 1759 
L 2194 1759 
z
M 3341 1997 
L 3341 0 
L 2766 0 
L 2766 531 
Q 2569 213 2275 61 
Q 1981 -91 1556 -91 
Q 1019 -91 701 211 
Q 384 513 384 1019 
Q 384 1609 779 1909 
Q 1175 2209 1959 2209 
L 2766 2209 
L 2766 2266 
Q 2766 2663 2505 2880 
Q 2244 3097 1772 3097 
Q 1472 3097 1187 3025 
Q 903 2953 641 2809 
L 641 3341 
Q 956 3463 1253 3523 
Q 1550 3584 1831 3584 
Q 2591 3584 2966 3190 
Q 3341 2797 3341 1997 
z
" transform="scale(0.015625)"/>
       </defs>
       <use xlink:href="#DejaVuSans-65"/>
       <use xlink:href="#DejaVuSans-70" transform="translate(61.523438 0)"/>
       <use xlink:href="#DejaVuSans-69" transform="translate(125 0)"/>
       <use xlink:href="#DejaVuSans-74" transform="translate(152.783203 0)"/>
       <use xlink:href="#DejaVuSans-68" transform="translate(191.992188 0)"/>
       <use xlink:href="#DejaVuSans-65" transform="translate(255.371094 0)"/>
       <use xlink:href="#DejaVuSans-6c" transform="translate(316.894531 0)"/>
       <use xlink:href="#DejaVuSans-69" transform="translate(344.677734 0)"/>
       <use xlink:href="#DejaVuSans-61" transform="translate(372.460938 0)"/>
       <use xlink:href="#DejaVuSans-6c" transform="translate(433.740234 0)"/>
       <use xlink:href="#DejaVuSans-20" transform="translate(461.523438 0)"/>
       <use xlink:href="#DejaVuSans-63" transform="translate(493.310547 0)"/>
       <use xlink:href="#DejaVuSans-65" transform="translate(548.291016 0)"/>
       <use xlink:href="#DejaVuSans-6c" transform="translate(609.814453 0)"/>
       <use xlink:href="#DejaVuSans-6c" transform="translate(637.597656 0)"/>
      </g>
     </g>
    </g>
    <g id="text_3">
     <!-- Level One Cell Type -->
     <g style="fill: #262626" transform="translate(357.635281 372.399937) scale(0.1 -0.1)">
      <defs>
       <path id="DejaVuSans-4c" d="M 628 4666 
L 1259 4666 
L 1259 531 
L 3531 531 
L 3531 0 
L 628 0 
L 628 4666 
z
" transform="scale(0.015625)"/>
       <path id="DejaVuSans-76" d="M 191 3500 
L 800 3500 
L 1894 563 
L 2988 3500 
L 3597 3500 
L 2284 0 
L 1503 0 
L 191 3500 
z
" transform="scale(0.015625)"/>
       <path id="DejaVuSans-4f" d="M 2522 4238 
Q 1834 4238 1429 3725 
Q 1025 3213 1025 2328 
Q 1025 1447 1429 934 
Q 1834 422 2522 422 
Q 3209 422 3611 934 
Q 4013 1447 4013 2328 
Q 4013 3213 3611 3725 
Q 3209 4238 2522 4238 
z
M 2522 4750 
Q 3503 4750 4090 4092 
Q 4678 3434 4678 2328 
Q 4678 1225 4090 567 
Q 3503 -91 2522 -91 
Q 1538 -91 948 565 
Q 359 1222 359 2328 
Q 359 3434 948 4092 
Q 1538 4750 2522 4750 
z
" transform="scale(0.015625)"/>
       <path id="DejaVuSans-43" d="M 4122 4306 
L 4122 3641 
Q 3803 3938 3442 4084 
Q 3081 4231 2675 4231 
Q 1875 4231 1450 3742 
Q 1025 3253 1025 2328 
Q 1025 1406 1450 917 
Q 1875 428 2675 428 
Q 3081 428 3442 575 
Q 3803 722 4122 1019 
L 4122 359 
Q 3791 134 3420 21 
Q 3050 -91 2638 -91 
Q 1578 -91 968 557 
Q 359 1206 359 2328 
Q 359 3453 968 4101 
Q 1578 4750 2638 4750 
Q 3056 4750 3426 4639 
Q 3797 4528 4122 4306 
z
" transform="scale(0.015625)"/>
       <path id="DejaVuSans-54" d="M -19 4666 
L 3928 4666 
L 3928 4134 
L 2272 4134 
L 2272 0 
L 1638 0 
L 1638 4134 
L -19 4134 
L -19 4666 
z
" transform="scale(0.015625)"/>
       <path id="DejaVuSans-79" d="M 2059 -325 
Q 1816 -950 1584 -1140 
Q 1353 -1331 966 -1331 
L 506 -1331 
L 506 -850 
L 844 -850 
Q 1081 -850 1212 -737 
Q 1344 -625 1503 -206 
L 1606 56 
L 191 3500 
L 800 3500 
L 1894 763 
L 2988 3500 
L 3597 3500 
L 2059 -325 
z
" transform="scale(0.015625)"/>
      </defs>
      <use xlink:href="#DejaVuSans-4c"/>
      <use xlink:href="#DejaVuSans-65" transform="translate(53.962891 0)"/>
      <use xlink:href="#DejaVuSans-76" transform="translate(115.486328 0)"/>
      <use xlink:href="#DejaVuSans-65" transform="translate(174.666016 0)"/>
      <use xlink:href="#DejaVuSans-6c" transform="translate(236.189453 0)"/>
      <use xlink:href="#DejaVuSans-20" transform="translate(263.972656 0)"/>
      <use xlink:href="#DejaVuSans-4f" transform="translate(295.759766 0)"/>
      <use xlink:href="#DejaVuSans-6e" transform="translate(374.470703 0)"/>
      <use xlink:href="#DejaVuSans-65" transform="translate(437.849609 0)"/>
      <use xlink:href="#DejaVuSans-20" transform="translate(499.373047 0)"/>
      <use xlink:href="#DejaVuSans-43" transform="translate(531.160156 0)"/>
      <use xlink:href="#DejaVuSans-65" transform="translate(600.984375 0)"/>
      <use xlink:href="#DejaVuSans-6c" transform="translate(662.507812 0)"/>
      <use xlink:href="#DejaVuSans-6c" transform="translate(690.291016 0)"/>
      <use xlink:href="#DejaVuSans-20" transform="translate(718.074219 0)"/>
      <use xlink:href="#DejaVuSans-54" transform="translate(749.861328 0)"/>
      <use xlink:href="#DejaVuSans-79" transform="translate(795.320312 0)"/>
      <use xlink:href="#DejaVuSans-70" transform="translate(854.5 0)"/>
      <use xlink:href="#DejaVuSans-65" transform="translate(917.976562 0)"/>
     </g>
    </g>
   </g>
   <g id="matplotlib.axis_2">
    <g id="ytick_1">
     <g id="line2d_1">
      <path d="M 78.265625 278.126859 
L 734.959625 278.126859 
" clip-path="url(#p03289ca3b5)" style="fill: none; stroke: #cccccc; stroke-width: 2; stroke-linecap: round"/>
     </g>
     <g id="text_4">
      <!-- 0 -->
      <g style="fill: #262626" transform="translate(62.403125 281.926078) scale(0.1 -0.1)">
       <defs>
        <path id="DejaVuSans-30" d="M 2034 4250 
Q 1547 4250 1301 3770 
Q 1056 3291 1056 2328 
Q 1056 1369 1301 889 
Q 1547 409 2034 409 
Q 2525 409 2770 889 
Q 3016 1369 3016 2328 
Q 3016 3291 2770 3770 
Q 2525 4250 2034 4250 
z
M 2034 4750 
Q 2819 4750 3233 4129 
Q 3647 3509 3647 2328 
Q 3647 1150 3233 529 
Q 2819 -91 2034 -91 
Q 1250 -91 836 529 
Q 422 1150 422 2328 
Q 422 3509 836 4129 
Q 1250 4750 2034 4750 
z
" transform="scale(0.015625)"/>
       </defs>
       <use xlink:href="#DejaVuSans-30"/>
      </g>
     </g>
    </g>
    <g id="ytick_2">
     <g id="line2d_2">
      <path d="M 78.265625 250.895702 
L 734.959625 250.895702 
" clip-path="url(#p03289ca3b5)" style="fill: none; stroke: #cccccc; stroke-width: 2; stroke-linecap: round"/>
     </g>
     <g id="text_5">
      <!-- 25 -->
      <g style="fill: #262626" transform="translate(56.040625 254.694921) scale(0.1 -0.1)">
       <defs>
        <path id="DejaVuSans-32" d="M 1228 531 
L 3431 531 
L 3431 0 
L 469 0 
L 469 531 
Q 828 903 1448 1529 
Q 2069 2156 2228 2338 
Q 2531 2678 2651 2914 
Q 2772 3150 2772 3378 
Q 2772 3750 2511 3984 
Q 2250 4219 1831 4219 
Q 1534 4219 1204 4116 
Q 875 4013 500 3803 
L 500 4441 
Q 881 4594 1212 4672 
Q 1544 4750 1819 4750 
Q 2544 4750 2975 4387 
Q 3406 4025 3406 3419 
Q 3406 3131 3298 2873 
Q 3191 2616 2906 2266 
Q 2828 2175 2409 1742 
Q 1991 1309 1228 531 
z
" transform="scale(0.015625)"/>
        <path id="DejaVuSans-35" d="M 691 4666 
L 3169 4666 
L 3169 4134 
L 1269 4134 
L 1269 2991 
Q 1406 3038 1543 3061 
Q 1681 3084 1819 3084 
Q 2600 3084 3056 2656 
Q 3513 2228 3513 1497 
Q 3513 744 3044 326 
Q 2575 -91 1722 -91 
Q 1428 -91 1123 -41 
Q 819 9 494 109 
L 494 744 
Q 775 591 1075 516 
Q 1375 441 1709 441 
Q 2250 441 2565 725 
Q 2881 1009 2881 1497 
Q 2881 1984 2565 2268 
Q 2250 2553 1709 2553 
Q 1456 2553 1204 2497 
Q 953 2441 691 2322 
L 691 4666 
z
" transform="scale(0.015625)"/>
       </defs>
       <use xlink:href="#DejaVuSans-32"/>
       <use xlink:href="#DejaVuSans-35" transform="translate(63.623047 0)"/>
      </g>
     </g>
    </g>
    <g id="ytick_3">
     <g id="line2d_3">
      <path d="M 78.265625 223.664546 
L 734.959625 223.664546 
" clip-path="url(#p03289ca3b5)" style="fill: none; stroke: #cccccc; stroke-width: 2; stroke-linecap: round"/>
     </g>
     <g id="text_6">
      <!-- 50 -->
      <g style="fill: #262626" transform="translate(56.040625 227.463765) scale(0.1 -0.1)">
       <use xlink:href="#DejaVuSans-35"/>
       <use xlink:href="#DejaVuSans-30" transform="translate(63.623047 0)"/>
      </g>
     </g>
    </g>
    <g id="ytick_4">
     <g id="line2d_4">
      <path d="M 78.265625 196.433389 
L 734.959625 196.433389 
" clip-path="url(#p03289ca3b5)" style="fill: none; stroke: #cccccc; stroke-width: 2; stroke-linecap: round"/>
     </g>
     <g id="text_7">
      <!-- 75 -->
      <g style="fill: #262626" transform="translate(56.040625 200.232608) scale(0.1 -0.1)">
       <defs>
        <path id="DejaVuSans-37" d="M 525 4666 
L 3525 4666 
L 3525 4397 
L 1831 0 
L 1172 0 
L 2766 4134 
L 525 4134 
L 525 4666 
z
" transform="scale(0.015625)"/>
       </defs>
       <use xlink:href="#DejaVuSans-37"/>
       <use xlink:href="#DejaVuSans-35" transform="translate(63.623047 0)"/>
      </g>
     </g>
    </g>
    <g id="ytick_5">
     <g id="line2d_5">
      <path d="M 78.265625 169.202233 
L 734.959625 169.202233 
" clip-path="url(#p03289ca3b5)" style="fill: none; stroke: #cccccc; stroke-width: 2; stroke-linecap: round"/>
     </g>
     <g id="text_8">
      <!-- 100 -->
      <g style="fill: #262626" transform="translate(49.678125 173.001452) scale(0.1 -0.1)">
       <defs>
        <path id="DejaVuSans-31" d="M 794 531 
L 1825 531 
L 1825 4091 
L 703 3866 
L 703 4441 
L 1819 4666 
L 2450 4666 
L 2450 531 
L 3481 531 
L 3481 0 
L 794 0 
L 794 531 
z
" transform="scale(0.015625)"/>
       </defs>
       <use xlink:href="#DejaVuSans-31"/>
       <use xlink:href="#DejaVuSans-30" transform="translate(63.623047 0)"/>
       <use xlink:href="#DejaVuSans-30" transform="translate(127.246094 0)"/>
      </g>
     </g>
    </g>
    <g id="ytick_6">
     <g id="line2d_6">
      <path d="M 78.265625 141.971077 
L 734.959625 141.971077 
" clip-path="url(#p03289ca3b5)" style="fill: none; stroke: #cccccc; stroke-width: 2; stroke-linecap: round"/>
     </g>
     <g id="text_9">
      <!-- 125 -->
      <g style="fill: #262626" transform="translate(49.678125 145.770295) scale(0.1 -0.1)">
       <use xlink:href="#DejaVuSans-31"/>
       <use xlink:href="#DejaVuSans-32" transform="translate(63.623047 0)"/>
       <use xlink:href="#DejaVuSans-35" transform="translate(127.246094 0)"/>
      </g>
     </g>
    </g>
    <g id="ytick_7">
     <g id="line2d_7">
      <path d="M 78.265625 114.73992 
L 734.959625 114.73992 
" clip-path="url(#p03289ca3b5)" style="fill: none; stroke: #cccccc; stroke-width: 2; stroke-linecap: round"/>
     </g>
     <g id="text_10">
      <!-- 150 -->
      <g style="fill: #262626" transform="translate(49.678125 118.539139) scale(0.1 -0.1)">
       <use xlink:href="#DejaVuSans-31"/>
       <use xlink:href="#DejaVuSans-35" transform="translate(63.623047 0)"/>
       <use xlink:href="#DejaVuSans-30" transform="translate(127.246094 0)"/>
      </g>
     </g>
    </g>
    <g id="ytick_8">
     <g id="line2d_8">
      <path d="M 78.265625 87.508764 
L 734.959625 87.508764 
" clip-path="url(#p03289ca3b5)" style="fill: none; stroke: #cccccc; stroke-width: 2; stroke-linecap: round"/>
     </g>
     <g id="text_11">
      <!-- 175 -->
      <g style="fill: #262626" transform="translate(49.678125 91.307982) scale(0.1 -0.1)">
       <use xlink:href="#DejaVuSans-31"/>
       <use xlink:href="#DejaVuSans-37" transform="translate(63.623047 0)"/>
       <use xlink:href="#DejaVuSans-35" transform="translate(127.246094 0)"/>
      </g>
     </g>
    </g>
    <g id="ytick_9">
     <g id="line2d_9">
      <path d="M 78.265625 60.277607 
L 734.959625 60.277607 
" clip-path="url(#p03289ca3b5)" style="fill: none; stroke: #cccccc; stroke-width: 2; stroke-linecap: round"/>
     </g>
     <g id="text_12">
      <!-- 200 -->
      <g style="fill: #262626" transform="translate(49.678125 64.076826) scale(0.1 -0.1)">
       <use xlink:href="#DejaVuSans-32"/>
       <use xlink:href="#DejaVuSans-30" transform="translate(63.623047 0)"/>
       <use xlink:href="#DejaVuSans-30" transform="translate(127.246094 0)"/>
      </g>
     </g>
    </g>
    <g id="text_13">
     <!-- Distance (μm) -->
     <g style="fill: #262626" transform="translate(43.598437 202.585125) rotate(-90) scale(0.1 -0.1)">
      <defs>
       <path id="DejaVuSans-44" d="M 1259 4147 
L 1259 519 
L 2022 519 
Q 2988 519 3436 956 
Q 3884 1394 3884 2338 
Q 3884 3275 3436 3711 
Q 2988 4147 2022 4147 
L 1259 4147 
z
M 628 4666 
L 1925 4666 
Q 3281 4666 3915 4102 
Q 4550 3538 4550 2338 
Q 4550 1131 3912 565 
Q 3275 0 1925 0 
L 628 0 
L 628 4666 
z
" transform="scale(0.015625)"/>
       <path id="DejaVuSans-73" d="M 2834 3397 
L 2834 2853 
Q 2591 2978 2328 3040 
Q 2066 3103 1784 3103 
Q 1356 3103 1142 2972 
Q 928 2841 928 2578 
Q 928 2378 1081 2264 
Q 1234 2150 1697 2047 
L 1894 2003 
Q 2506 1872 2764 1633 
Q 3022 1394 3022 966 
Q 3022 478 2636 193 
Q 2250 -91 1575 -91 
Q 1294 -91 989 -36 
Q 684 19 347 128 
L 347 722 
Q 666 556 975 473 
Q 1284 391 1588 391 
Q 1994 391 2212 530 
Q 2431 669 2431 922 
Q 2431 1156 2273 1281 
Q 2116 1406 1581 1522 
L 1381 1569 
Q 847 1681 609 1914 
Q 372 2147 372 2553 
Q 372 3047 722 3315 
Q 1072 3584 1716 3584 
Q 2034 3584 2315 3537 
Q 2597 3491 2834 3397 
z
" transform="scale(0.015625)"/>
       <path id="DejaVuSans-28" d="M 1984 4856 
Q 1566 4138 1362 3434 
Q 1159 2731 1159 2009 
Q 1159 1288 1364 580 
Q 1569 -128 1984 -844 
L 1484 -844 
Q 1016 -109 783 600 
Q 550 1309 550 2009 
Q 550 2706 781 3412 
Q 1013 4119 1484 4856 
L 1984 4856 
z
" transform="scale(0.015625)"/>
       <path id="DejaVuSans-3bc" d="M 544 -1331 
L 544 3500 
L 1119 3500 
L 1119 1325 
Q 1119 872 1334 640 
Q 1550 409 1972 409 
Q 2434 409 2667 671 
Q 2900 934 2900 1459 
L 2900 3500 
L 3475 3500 
L 3475 806 
Q 3475 619 3529 530 
Q 3584 441 3700 441 
Q 3728 441 3778 458 
Q 3828 475 3916 513 
L 3916 50 
Q 3788 -22 3673 -56 
Q 3559 -91 3450 -91 
Q 3234 -91 3106 31 
Q 2978 153 2931 403 
Q 2775 156 2548 32 
Q 2322 -91 2016 -91 
Q 1697 -91 1473 31 
Q 1250 153 1119 397 
L 1119 -1331 
L 544 -1331 
z
" transform="scale(0.015625)"/>
       <path id="DejaVuSans-6d" d="M 3328 2828 
Q 3544 3216 3844 3400 
Q 4144 3584 4550 3584 
Q 5097 3584 5394 3201 
Q 5691 2819 5691 2113 
L 5691 0 
L 5113 0 
L 5113 2094 
Q 5113 2597 4934 2840 
Q 4756 3084 4391 3084 
Q 3944 3084 3684 2787 
Q 3425 2491 3425 1978 
L 3425 0 
L 2847 0 
L 2847 2094 
Q 2847 2600 2669 2842 
Q 2491 3084 2119 3084 
Q 1678 3084 1418 2786 
Q 1159 2488 1159 1978 
L 1159 0 
L 581 0 
L 581 3500 
L 1159 3500 
L 1159 2956 
Q 1356 3278 1631 3431 
Q 1906 3584 2284 3584 
Q 2666 3584 2933 3390 
Q 3200 3197 3328 2828 
z
" transform="scale(0.015625)"/>
       <path id="DejaVuSans-29" d="M 513 4856 
L 1013 4856 
Q 1481 4119 1714 3412 
Q 1947 2706 1947 2009 
Q 1947 1309 1714 600 
Q 1481 -109 1013 -844 
L 513 -844 
Q 928 -128 1133 580 
Q 1338 1288 1338 2009 
Q 1338 2731 1133 3434 
Q 928 4138 513 4856 
z
" transform="scale(0.015625)"/>
      </defs>
      <use xlink:href="#DejaVuSans-44"/>
      <use xlink:href="#DejaVuSans-69" transform="translate(77.001953 0)"/>
      <use xlink:href="#DejaVuSans-73" transform="translate(104.785156 0)"/>
      <use xlink:href="#DejaVuSans-74" transform="translate(156.884766 0)"/>
      <use xlink:href="#DejaVuSans-61" transform="translate(196.09375 0)"/>
      <use xlink:href="#DejaVuSans-6e" transform="translate(257.373047 0)"/>
      <use xlink:href="#DejaVuSans-63" transform="translate(320.751953 0)"/>
      <use xlink:href="#DejaVuSans-65" transform="translate(375.732422 0)"/>
      <use xlink:href="#DejaVuSans-20" transform="translate(437.255859 0)"/>
      <use xlink:href="#DejaVuSans-28" transform="translate(469.042969 0)"/>
      <use xlink:href="#DejaVuSans-3bc" transform="translate(508.056641 0)"/>
      <use xlink:href="#DejaVuSans-6d" transform="translate(571.679688 0)"/>
      <use xlink:href="#DejaVuSans-29" transform="translate(669.091797 0)"/>
     </g>
    </g>
   </g>
   <g id="FillBetweenPolyCollection_1">
    <defs>
     <path id="mf5c51eee4f" d="M 242.445991 -136.40646 
L 242.432259 -136.40646 
L 237.823656 -138.565909 
L 173.993112 -140.725358 
L 111.100325 -142.884807 
L 132.372727 -145.044256 
L 167.368867 -147.203705 
L 185.372977 -149.363154 
L 194.31619 -151.522603 
L 201.952456 -153.682053 
L 209.159458 -155.841502 
L 215.716064 -158.000951 
L 221.218867 -160.1604 
L 225.67207 -162.319849 
L 229.263621 -164.479298 
L 232.096512 -166.638747 
L 234.288411 -168.798196 
L 236.139574 -170.957645 
L 237.438903 -173.117094 
L 238.468919 -175.276543 
L 239.243672 -177.435992 
L 239.849614 -179.595441 
L 240.319874 -181.75489 
L 240.702729 -183.914339 
L 240.999892 -186.073788 
L 241.219636 -188.233237 
L 241.393244 -190.392686 
L 241.535206 -192.552135 
L 241.676699 -194.711584 
L 241.760317 -196.871033 
L 241.862138 -199.030482 
L 241.907267 -201.189931 
L 241.966998 -203.34938 
L 242.011312 -205.508829 
L 242.048118 -207.668278 
L 242.094055 -209.827727 
L 242.118093 -211.987176 
L 242.149926 -214.146626 
L 242.160541 -216.306075 
L 242.19625 -218.465524 
L 242.2127 -220.624973 
L 242.221664 -222.784422 
L 242.238311 -224.943871 
L 242.250245 -227.10332 
L 242.272743 -229.262769 
L 242.278432 -231.422218 
L 242.286829 -233.581667 
L 242.29603 -235.741116 
L 242.310557 -237.900565 
L 242.312274 -240.060014 
L 242.320395 -242.219463 
L 242.335699 -244.378912 
L 242.332956 -246.538361 
L 242.334783 -248.69781 
L 242.351683 -250.857259 
L 242.351612 -253.016708 
L 242.360891 -255.176157 
L 242.357289 -257.335606 
L 242.36623 -259.495055 
L 242.369395 -261.654504 
L 242.370559 -263.813953 
L 242.379474 -265.973402 
L 242.383339 -268.132851 
L 242.384525 -270.2923 
L 242.389969 -272.451749 
L 242.390686 -274.611199 
L 242.39408 -276.770648 
L 242.390901 -278.930097 
L 242.400224 -281.089546 
L 242.400202 -283.248995 
L 242.402291 -285.408444 
L 242.401271 -287.567893 
L 242.406048 -289.727342 
L 242.404406 -291.886791 
L 242.405997 -294.04624 
L 242.406095 -296.205689 
L 242.410839 -298.365138 
L 242.410968 -300.524587 
L 242.408985 -302.684036 
L 242.414136 -304.843485 
L 242.410442 -307.002934 
L 242.412843 -309.162383 
L 242.416023 -311.321832 
L 242.415596 -313.481281 
L 242.416247 -315.64073 
L 242.416565 -317.800179 
L 242.416275 -319.959628 
L 242.418962 -322.119077 
L 242.420109 -324.278526 
L 242.419062 -326.437975 
L 242.41974 -328.597424 
L 242.420956 -330.756873 
L 242.42107 -332.916322 
L 242.420992 -335.075772 
L 242.421762 -337.235221 
L 242.425008 -339.39467 
L 242.423574 -341.554119 
L 242.425234 -343.713568 
L 242.42292 -345.873017 
L 242.424485 -348.032466 
L 242.431093 -350.191915 
L 242.447157 -350.191915 
L 242.447157 -350.191915 
L 242.453765 -348.032466 
L 242.45533 -345.873017 
L 242.453016 -343.713568 
L 242.454676 -341.554119 
L 242.453242 -339.39467 
L 242.456488 -337.235221 
L 242.457258 -335.075772 
L 242.45718 -332.916322 
L 242.457294 -330.756873 
L 242.45851 -328.597424 
L 242.459188 -326.437975 
L 242.458141 -324.278526 
L 242.459288 -322.119077 
L 242.461975 -319.959628 
L 242.461685 -317.800179 
L 242.462003 -315.64073 
L 242.462654 -313.481281 
L 242.462227 -311.321832 
L 242.465407 -309.162383 
L 242.467808 -307.002934 
L 242.464114 -304.843485 
L 242.469265 -302.684036 
L 242.467282 -300.524587 
L 242.467411 -298.365138 
L 242.472155 -296.205689 
L 242.472253 -294.04624 
L 242.473844 -291.886791 
L 242.472202 -289.727342 
L 242.476979 -287.567893 
L 242.475959 -285.408444 
L 242.478048 -283.248995 
L 242.478026 -281.089546 
L 242.487349 -278.930097 
L 242.48417 -276.770648 
L 242.487564 -274.611199 
L 242.488281 -272.451749 
L 242.493725 -270.2923 
L 242.494911 -268.132851 
L 242.498776 -265.973402 
L 242.507691 -263.813953 
L 242.508855 -261.654504 
L 242.51202 -259.495055 
L 242.520961 -257.335606 
L 242.517359 -255.176157 
L 242.526638 -253.016708 
L 242.526567 -250.857259 
L 242.543467 -248.69781 
L 242.545294 -246.538361 
L 242.542551 -244.378912 
L 242.557855 -242.219463 
L 242.565976 -240.060014 
L 242.567693 -237.900565 
L 242.58222 -235.741116 
L 242.591421 -233.581667 
L 242.599818 -231.422218 
L 242.605507 -229.262769 
L 242.628005 -227.10332 
L 242.639939 -224.943871 
L 242.656586 -222.784422 
L 242.66555 -220.624973 
L 242.682 -218.465524 
L 242.717709 -216.306075 
L 242.728324 -214.146626 
L 242.760157 -211.987176 
L 242.784195 -209.827727 
L 242.830132 -207.668278 
L 242.866938 -205.508829 
L 242.911252 -203.34938 
L 242.970983 -201.189931 
L 243.016112 -199.030482 
L 243.117933 -196.871033 
L 243.201551 -194.711584 
L 243.343044 -192.552135 
L 243.485006 -190.392686 
L 243.658614 -188.233237 
L 243.878358 -186.073788 
L 244.175521 -183.914339 
L 244.558376 -181.75489 
L 245.028636 -179.595441 
L 245.634578 -177.435992 
L 246.409331 -175.276543 
L 247.439347 -173.117094 
L 248.738676 -170.957645 
L 250.589839 -168.798196 
L 252.781738 -166.638747 
L 255.614629 -164.479298 
L 259.20618 -162.319849 
L 263.659383 -160.1604 
L 269.162186 -158.000951 
L 275.718792 -155.841502 
L 282.925794 -153.682053 
L 290.56206 -151.522603 
L 299.505273 -149.363154 
L 317.509383 -147.203705 
L 352.505523 -145.044256 
L 373.777925 -142.884807 
L 310.885138 -140.725358 
L 247.054594 -138.565909 
L 242.445991 -136.40646 
z
" style="stroke: #6d6d6d; stroke-opacity: 0.9; stroke-width: 1.25"/>
    </defs>
    <g clip-path="url(#p03289ca3b5)">
     <use xlink:href="#mf5c51eee4f" x="0" y="410.479625" style="fill: #ecbd81; fill-opacity: 0.9; stroke: #6d6d6d; stroke-opacity: 0.9; stroke-width: 1.25"/>
    </g>
   </g>
   <g id="FillBetweenPolyCollection_2">
    <defs>
     <path id="m85703dce5c" d="M 570.79711 -136.600827 
L 570.77514 -136.600827 
L 567.233486 -138.758206 
L 527.653111 -140.915585 
L 477.275407 -143.072964 
L 476.546898 -145.230344 
L 492.462317 -147.387723 
L 500.034009 -149.545102 
L 505.548126 -151.702482 
L 514.679211 -153.859861 
L 525.390263 -156.01724 
L 535.704822 -158.174619 
L 544.226314 -160.331999 
L 550.714539 -162.489378 
L 555.732855 -164.646757 
L 559.354874 -166.804137 
L 562.011432 -168.961516 
L 564.104819 -171.118895 
L 565.579495 -173.276274 
L 566.70388 -175.433654 
L 567.579355 -177.591033 
L 568.216476 -179.748412 
L 568.68667 -181.905792 
L 569.099753 -184.063171 
L 569.394207 -186.22055 
L 569.63347 -188.377929 
L 569.838954 -190.535309 
L 569.987213 -192.692688 
L 570.099404 -194.850067 
L 570.199592 -197.007447 
L 570.284168 -199.164826 
L 570.358797 -201.322205 
L 570.400762 -203.479584 
L 570.442675 -205.636964 
L 570.497583 -207.794343 
L 570.516643 -209.951722 
L 570.543923 -212.109102 
L 570.568517 -214.266481 
L 570.592871 -216.42386 
L 570.599353 -218.581239 
L 570.61609 -220.738619 
L 570.635151 -222.895998 
L 570.639353 -225.053377 
L 570.654685 -227.210756 
L 570.665375 -229.368136 
L 570.681923 -231.525515 
L 570.687675 -233.682894 
L 570.693995 -235.840274 
L 570.688593 -237.997653 
L 570.689632 -240.155032 
L 570.701388 -242.312411 
L 570.712045 -244.469791 
L 570.712964 -246.62717 
L 570.711569 -248.784549 
L 570.721143 -250.941929 
L 570.729192 -253.099308 
L 570.73132 -255.256687 
L 570.729408 -257.414066 
L 570.736575 -259.571446 
L 570.737551 -261.728825 
L 570.73736 -263.886204 
L 570.743704 -266.043584 
L 570.750499 -268.200963 
L 570.746619 -270.358342 
L 570.744221 -272.515721 
L 570.752989 -274.673101 
L 570.750817 -276.83048 
L 570.75588 -278.987859 
L 570.754581 -281.145239 
L 570.754491 -283.302618 
L 570.754091 -285.459997 
L 570.757298 -287.617376 
L 570.760278 -289.774756 
L 570.761943 -291.932135 
L 570.765053 -294.089514 
L 570.760014 -296.246894 
L 570.765152 -298.404273 
L 570.762804 -300.561652 
L 570.767146 -302.719031 
L 570.763825 -304.876411 
L 570.768536 -307.03379 
L 570.76663 -309.191169 
L 570.768833 -311.348548 
L 570.76631 -313.505928 
L 570.768201 -315.663307 
L 570.770995 -317.820686 
L 570.770802 -319.978066 
L 570.770837 -322.135445 
L 570.767139 -324.292824 
L 570.773792 -326.450203 
L 570.771619 -328.607583 
L 570.770465 -330.764962 
L 570.773793 -332.922341 
L 570.772883 -335.079721 
L 570.771471 -337.2371 
L 570.774143 -339.394479 
L 570.774854 -341.551858 
L 570.771153 -343.709238 
L 570.77561 -345.866617 
L 570.772955 -348.023996 
L 570.779382 -350.181376 
L 570.792868 -350.181376 
L 570.792868 -350.181376 
L 570.799295 -348.023996 
L 570.79664 -345.866617 
L 570.801097 -343.709238 
L 570.797396 -341.551858 
L 570.798107 -339.394479 
L 570.800779 -337.2371 
L 570.799367 -335.079721 
L 570.798457 -332.922341 
L 570.801785 -330.764962 
L 570.800631 -328.607583 
L 570.798458 -326.450203 
L 570.805111 -324.292824 
L 570.801413 -322.135445 
L 570.801448 -319.978066 
L 570.801255 -317.820686 
L 570.804049 -315.663307 
L 570.80594 -313.505928 
L 570.803417 -311.348548 
L 570.80562 -309.191169 
L 570.803714 -307.03379 
L 570.808425 -304.876411 
L 570.805104 -302.719031 
L 570.809446 -300.561652 
L 570.807098 -298.404273 
L 570.812236 -296.246894 
L 570.807197 -294.089514 
L 570.810307 -291.932135 
L 570.811972 -289.774756 
L 570.814952 -287.617376 
L 570.818159 -285.459997 
L 570.817759 -283.302618 
L 570.817669 -281.145239 
L 570.81637 -278.987859 
L 570.821433 -276.83048 
L 570.819261 -274.673101 
L 570.828029 -272.515721 
L 570.825631 -270.358342 
L 570.821751 -268.200963 
L 570.828546 -266.043584 
L 570.83489 -263.886204 
L 570.834699 -261.728825 
L 570.835675 -259.571446 
L 570.842842 -257.414066 
L 570.84093 -255.256687 
L 570.843058 -253.099308 
L 570.851107 -250.941929 
L 570.860681 -248.784549 
L 570.859286 -246.62717 
L 570.860205 -244.469791 
L 570.870862 -242.312411 
L 570.882618 -240.155032 
L 570.883657 -237.997653 
L 570.878255 -235.840274 
L 570.884575 -233.682894 
L 570.890327 -231.525515 
L 570.906875 -229.368136 
L 570.917565 -227.210756 
L 570.932897 -225.053377 
L 570.937099 -222.895998 
L 570.95616 -220.738619 
L 570.972897 -218.581239 
L 570.979379 -216.42386 
L 571.003733 -214.266481 
L 571.028327 -212.109102 
L 571.055607 -209.951722 
L 571.074667 -207.794343 
L 571.129575 -205.636964 
L 571.171488 -203.479584 
L 571.213453 -201.322205 
L 571.288082 -199.164826 
L 571.372658 -197.007447 
L 571.472846 -194.850067 
L 571.585037 -192.692688 
L 571.733296 -190.535309 
L 571.93878 -188.377929 
L 572.178043 -186.22055 
L 572.472497 -184.063171 
L 572.88558 -181.905792 
L 573.355774 -179.748412 
L 573.992895 -177.591033 
L 574.86837 -175.433654 
L 575.992755 -173.276274 
L 577.467431 -171.118895 
L 579.560818 -168.961516 
L 582.217376 -166.804137 
L 585.839395 -164.646757 
L 590.857711 -162.489378 
L 597.345936 -160.331999 
L 605.867428 -158.174619 
L 616.181987 -156.01724 
L 626.893039 -153.859861 
L 636.024124 -151.702482 
L 641.538241 -149.545102 
L 649.109933 -147.387723 
L 665.025352 -145.230344 
L 664.296843 -143.072964 
L 613.919139 -140.915585 
L 574.338764 -138.758206 
L 570.79711 -136.600827 
z
" style="stroke: #6d6d6d; stroke-opacity: 0.9; stroke-width: 1.25"/>
    </defs>
    <g clip-path="url(#p03289ca3b5)">
     <use xlink:href="#m85703dce5c" x="0" y="410.479625" style="fill: #c0dca9; fill-opacity: 0.9; stroke: #6d6d6d; stroke-opacity: 0.9; stroke-width: 1.25"/>
    </g>
   </g>
   <g id="line2d_10">
    <path d="M 242.439125 274.073165 
L 242.439125 239.906109 
" clip-path="url(#p03289ca3b5)" style="fill: none; stroke: #6d6d6d; stroke-width: 1.875; stroke-linecap: round"/>
   </g>
   <g id="line2d_11">
    <path d="M 242.439125 266.973913 
L 242.439125 256.146744 
" clip-path="url(#p03289ca3b5)" style="fill: none; stroke: #6d6d6d; stroke-width: 5.625; stroke-linecap: round"/>
   </g>
   <g id="line2d_12">
    <path d="M 242.439125 263.36928 
" clip-path="url(#p03289ca3b5)" style="fill: none; stroke: #6d6d6d; stroke-width: 1.5; stroke-linecap: round"/>
    <defs>
     <path id="m8157fb0e57" d="M 2.34375 0 
L -2.34375 -0 
" style="stroke: #ffffff; stroke-width: 1.125"/>
    </defs>
    <g clip-path="url(#p03289ca3b5)">
     <use xlink:href="#m8157fb0e57" x="242.439125" y="263.36928" style="fill: #ffffff; stroke: #ffffff; stroke-width: 1.125"/>
    </g>
   </g>
   <g id="line2d_13">
    <path d="M 570.786125 273.878798 
L 570.786125 237.914342 
" clip-path="url(#p03289ca3b5)" style="fill: none; stroke: #6d6d6d; stroke-width: 1.875; stroke-linecap: round"/>
   </g>
   <g id="line2d_14">
    <path d="M 570.786125 265.553257 
L 570.786125 254.497494 
" clip-path="url(#p03289ca3b5)" style="fill: none; stroke: #6d6d6d; stroke-width: 5.625; stroke-linecap: round"/>
   </g>
   <g id="line2d_15">
    <path d="M 570.786125 260.832523 
" clip-path="url(#p03289ca3b5)" style="fill: none; stroke: #6d6d6d; stroke-width: 1.5; stroke-linecap: round"/>
    <g clip-path="url(#p03289ca3b5)">
     <use xlink:href="#m8157fb0e57" x="570.786125" y="260.832523" style="fill: #ffffff; stroke: #ffffff; stroke-width: 1.125"/>
    </g>
   </g>
   <g id="patch_3">
    <path d="M 78.265625 284.762437 
L 78.265625 49.598437 
" style="fill: none; stroke: #cccccc; stroke-width: 1.25; stroke-linejoin: miter; stroke-linecap: square"/>
   </g>
   <g id="patch_4">
    <path d="M 734.959625 284.762437 
L 734.959625 49.598437 
" style="fill: none; stroke: #cccccc; stroke-width: 1.25; stroke-linejoin: miter; stroke-linecap: square"/>
   </g>
   <g id="patch_5">
    <path d="M 78.265625 284.762437 
L 734.959625 284.762437 
" style="fill: none; stroke: #cccccc; stroke-width: 1.25; stroke-linejoin: miter; stroke-linecap: square"/>
   </g>
   <g id="patch_6">
    <path d="M 78.265625 49.598437 
L 734.959625 49.598437 
" style="fill: none; stroke: #cccccc; stroke-width: 1.25; stroke-linejoin: miter; stroke-linecap: square"/>
   </g>
   <g id="text_14">
    <!-- Violin Plot of distances by Level One Cell Type (Density Normalization: area) -->
    <g style="fill: #262626" transform="translate(216.563406 43.598437) scale(0.1 -0.1)">
     <defs>
      <path id="DejaVuSans-56" d="M 1831 0 
L 50 4666 
L 709 4666 
L 2188 738 
L 3669 4666 
L 4325 4666 
L 2547 0 
L 1831 0 
z
" transform="scale(0.015625)"/>
      <path id="DejaVuSans-50" d="M 1259 4147 
L 1259 2394 
L 2053 2394 
Q 2494 2394 2734 2622 
Q 2975 2850 2975 3272 
Q 2975 3691 2734 3919 
Q 2494 4147 2053 4147 
L 1259 4147 
z
M 628 4666 
L 2053 4666 
Q 2838 4666 3239 4311 
Q 3641 3956 3641 3272 
Q 3641 2581 3239 2228 
Q 2838 1875 2053 1875 
L 1259 1875 
L 1259 0 
L 628 0 
L 628 4666 
z
" transform="scale(0.015625)"/>
      <path id="DejaVuSans-66" d="M 2375 4863 
L 2375 4384 
L 1825 4384 
Q 1516 4384 1395 4259 
Q 1275 4134 1275 3809 
L 1275 3500 
L 2222 3500 
L 2222 3053 
L 1275 3053 
L 1275 0 
L 697 0 
L 697 3053 
L 147 3053 
L 147 3500 
L 697 3500 
L 697 3744 
Q 697 4328 969 4595 
Q 1241 4863 1831 4863 
L 2375 4863 
z
" transform="scale(0.015625)"/>
      <path id="DejaVuSans-64" d="M 2906 2969 
L 2906 4863 
L 3481 4863 
L 3481 0 
L 2906 0 
L 2906 525 
Q 2725 213 2448 61 
Q 2172 -91 1784 -91 
Q 1150 -91 751 415 
Q 353 922 353 1747 
Q 353 2572 751 3078 
Q 1150 3584 1784 3584 
Q 2172 3584 2448 3432 
Q 2725 3281 2906 2969 
z
M 947 1747 
Q 947 1113 1208 752 
Q 1469 391 1925 391 
Q 2381 391 2643 752 
Q 2906 1113 2906 1747 
Q 2906 2381 2643 2742 
Q 2381 3103 1925 3103 
Q 1469 3103 1208 2742 
Q 947 2381 947 1747 
z
" transform="scale(0.015625)"/>
      <path id="DejaVuSans-62" d="M 3116 1747 
Q 3116 2381 2855 2742 
Q 2594 3103 2138 3103 
Q 1681 3103 1420 2742 
Q 1159 2381 1159 1747 
Q 1159 1113 1420 752 
Q 1681 391 2138 391 
Q 2594 391 2855 752 
Q 3116 1113 3116 1747 
z
M 1159 2969 
Q 1341 3281 1617 3432 
Q 1894 3584 2278 3584 
Q 2916 3584 3314 3078 
Q 3713 2572 3713 1747 
Q 3713 922 3314 415 
Q 2916 -91 2278 -91 
Q 1894 -91 1617 61 
Q 1341 213 1159 525 
L 1159 0 
L 581 0 
L 581 4863 
L 1159 4863 
L 1159 2969 
z
" transform="scale(0.015625)"/>
      <path id="DejaVuSans-4e" d="M 628 4666 
L 1478 4666 
L 3547 763 
L 3547 4666 
L 4159 4666 
L 4159 0 
L 3309 0 
L 1241 3903 
L 1241 0 
L 628 0 
L 628 4666 
z
" transform="scale(0.015625)"/>
      <path id="DejaVuSans-72" d="M 2631 2963 
Q 2534 3019 2420 3045 
Q 2306 3072 2169 3072 
Q 1681 3072 1420 2755 
Q 1159 2438 1159 1844 
L 1159 0 
L 581 0 
L 581 3500 
L 1159 3500 
L 1159 2956 
Q 1341 3275 1631 3429 
Q 1922 3584 2338 3584 
Q 2397 3584 2469 3576 
Q 2541 3569 2628 3553 
L 2631 2963 
z
" transform="scale(0.015625)"/>
      <path id="DejaVuSans-7a" d="M 353 3500 
L 3084 3500 
L 3084 2975 
L 922 459 
L 3084 459 
L 3084 0 
L 275 0 
L 275 525 
L 2438 3041 
L 353 3041 
L 353 3500 
z
" transform="scale(0.015625)"/>
      <path id="DejaVuSans-3a" d="M 750 794 
L 1409 794 
L 1409 0 
L 750 0 
L 750 794 
z
M 750 3309 
L 1409 3309 
L 1409 2516 
L 750 2516 
L 750 3309 
z
" transform="scale(0.015625)"/>
     </defs>
     <use xlink:href="#DejaVuSans-56"/>
     <use xlink:href="#DejaVuSans-69" transform="translate(66.158203 0)"/>
     <use xlink:href="#DejaVuSans-6f" transform="translate(93.941406 0)"/>
     <use xlink:href="#DejaVuSans-6c" transform="translate(155.123047 0)"/>
     <use xlink:href="#DejaVuSans-69" transform="translate(182.90625 0)"/>
     <use xlink:href="#DejaVuSans-6e" transform="translate(210.689453 0)"/>
     <use xlink:href="#DejaVuSans-20" transform="translate(274.068359 0)"/>
     <use xlink:href="#DejaVuSans-50" transform="translate(305.855469 0)"/>
     <use xlink:href="#DejaVuSans-6c" transform="translate(366.158203 0)"/>
     <use xlink:href="#DejaVuSans-6f" transform="translate(393.941406 0)"/>
     <use xlink:href="#DejaVuSans-74" transform="translate(455.123047 0)"/>
     <use xlink:href="#DejaVuSans-20" transform="translate(494.332031 0)"/>
     <use xlink:href="#DejaVuSans-6f" transform="translate(526.119141 0)"/>
     <use xlink:href="#DejaVuSans-66" transform="translate(587.300781 0)"/>
     <use xlink:href="#DejaVuSans-20" transform="translate(622.505859 0)"/>
     <use xlink:href="#DejaVuSans-64" transform="translate(654.292969 0)"/>
     <use xlink:href="#DejaVuSans-69" transform="translate(717.769531 0)"/>
     <use xlink:href="#DejaVuSans-73" transform="translate(745.552734 0)"/>
     <use xlink:href="#DejaVuSans-74" transform="translate(797.652344 0)"/>
     <use xlink:href="#DejaVuSans-61" transform="translate(836.861328 0)"/>
     <use xlink:href="#DejaVuSans-6e" transform="translate(898.140625 0)"/>
     <use xlink:href="#DejaVuSans-63" transform="translate(961.519531 0)"/>
     <use xlink:href="#DejaVuSans-65" transform="translate(1016.5 0)"/>
     <use xlink:href="#DejaVuSans-73" transform="translate(1078.023438 0)"/>
     <use xlink:href="#DejaVuSans-20" transform="translate(1130.123047 0)"/>
     <use xlink:href="#DejaVuSans-62" transform="translate(1161.910156 0)"/>
     <use xlink:href="#DejaVuSans-79" transform="translate(1225.386719 0)"/>
     <use xlink:href="#DejaVuSans-20" transform="translate(1284.566406 0)"/>
     <use xlink:href="#DejaVuSans-4c" transform="translate(1316.353516 0)"/>
     <use xlink:href="#DejaVuSans-65" transform="translate(1370.316406 0)"/>
     <use xlink:href="#DejaVuSans-76" transform="translate(1431.839844 0)"/>
     <use xlink:href="#DejaVuSans-65" transform="translate(1491.019531 0)"/>
     <use xlink:href="#DejaVuSans-6c" transform="translate(1552.542969 0)"/>
     <use xlink:href="#DejaVuSans-20" transform="translate(1580.326172 0)"/>
     <use xlink:href="#DejaVuSans-4f" transform="translate(1612.113281 0)"/>
     <use xlink:href="#DejaVuSans-6e" transform="translate(1690.824219 0)"/>
     <use xlink:href="#DejaVuSans-65" transform="translate(1754.203125 0)"/>
     <use xlink:href="#DejaVuSans-20" transform="translate(1815.726562 0)"/>
     <use xlink:href="#DejaVuSans-43" transform="translate(1847.513672 0)"/>
     <use xlink:href="#DejaVuSans-65" transform="translate(1917.337891 0)"/>
     <use xlink:href="#DejaVuSans-6c" transform="translate(1978.861328 0)"/>
     <use xlink:href="#DejaVuSans-6c" transform="translate(2006.644531 0)"/>
     <use xlink:href="#DejaVuSans-20" transform="translate(2034.427734 0)"/>
     <use xlink:href="#DejaVuSans-54" transform="translate(2066.214844 0)"/>
     <use xlink:href="#DejaVuSans-79" transform="translate(2111.673828 0)"/>
     <use xlink:href="#DejaVuSans-70" transform="translate(2170.853516 0)"/>
     <use xlink:href="#DejaVuSans-65" transform="translate(2234.330078 0)"/>
     <use xlink:href="#DejaVuSans-20" transform="translate(2295.853516 0)"/>
     <use xlink:href="#DejaVuSans-28" transform="translate(2327.640625 0)"/>
     <use xlink:href="#DejaVuSans-44" transform="translate(2366.654297 0)"/>
     <use xlink:href="#DejaVuSans-65" transform="translate(2443.65625 0)"/>
     <use xlink:href="#DejaVuSans-6e" transform="translate(2505.179688 0)"/>
     <use xlink:href="#DejaVuSans-73" transform="translate(2568.558594 0)"/>
     <use xlink:href="#DejaVuSans-69" transform="translate(2620.658203 0)"/>
     <use xlink:href="#DejaVuSans-74" transform="translate(2648.441406 0)"/>
     <use xlink:href="#DejaVuSans-79" transform="translate(2687.650391 0)"/>
     <use xlink:href="#DejaVuSans-20" transform="translate(2746.830078 0)"/>
     <use xlink:href="#DejaVuSans-4e" transform="translate(2778.617188 0)"/>
     <use xlink:href="#DejaVuSans-6f" transform="translate(2853.421875 0)"/>
     <use xlink:href="#DejaVuSans-72" transform="translate(2914.603516 0)"/>
     <use xlink:href="#DejaVuSans-6d" transform="translate(2953.966797 0)"/>
     <use xlink:href="#DejaVuSans-61" transform="translate(3051.378906 0)"/>
     <use xlink:href="#DejaVuSans-6c" transform="translate(3112.658203 0)"/>
     <use xlink:href="#DejaVuSans-69" transform="translate(3140.441406 0)"/>
     <use xlink:href="#DejaVuSans-7a" transform="translate(3168.224609 0)"/>
     <use xlink:href="#DejaVuSans-61" transform="translate(3220.714844 0)"/>
     <use xlink:href="#DejaVuSans-74" transform="translate(3281.994141 0)"/>
     <use xlink:href="#DejaVuSans-69" transform="translate(3321.203125 0)"/>
     <use xlink:href="#DejaVuSans-6f" transform="translate(3348.986328 0)"/>
     <use xlink:href="#DejaVuSans-6e" transform="translate(3410.167969 0)"/>
     <use xlink:href="#DejaVuSans-3a" transform="translate(3473.546875 0)"/>
     <use xlink:href="#DejaVuSans-20" transform="translate(3507.238281 0)"/>
     <use xlink:href="#DejaVuSans-61" transform="translate(3539.025391 0)"/>
     <use xlink:href="#DejaVuSans-72" transform="translate(3600.304688 0)"/>
     <use xlink:href="#DejaVuSans-65" transform="translate(3639.167969 0)"/>
     <use xlink:href="#DejaVuSans-61" transform="translate(3700.691406 0)"/>
     <use xlink:href="#DejaVuSans-29" transform="translate(3761.970703 0)"/>
    </g>
   </g>
   <g id="legend_1">
    <g id="patch_7">
     <path d="M 723.959625 62.598437 
L 727.959625 62.598437 
Q 729.959625 62.598437 729.959625 60.598437 
L 729.959625 56.598437 
Q 729.959625 54.598437 727.959625 54.598437 
L 723.959625 54.598437 
Q 721.959625 54.598437 721.959625 56.598437 
L 721.959625 60.598437 
Q 721.959625 62.598437 723.959625 62.598437 
z
" style="fill: #ffffff; opacity: 0.8; stroke: #cccccc; stroke-width: 0.8; stroke-linejoin: miter"/>
    </g>
   </g>
  </g>
 </g>
 <defs>
  <clipPath id="p03289ca3b5">
   <rect x="78.265625" y="49.598437" width="656.694" height="235.164"/>
  </clipPath>
 </defs>
</svg>
