<?xml version="1.0" encoding="utf-8" standalone="no"?>
<!DOCTYPE svg PUBLIC "-//W3C//DTD SVG 1.1//EN"
  "http://www.w3.org/Graphics/SVG/1.1/DTD/svg11.dtd">
<svg xmlns:xlink="http://www.w3.org/1999/xlink" width="770.959625pt" height="410.479625pt" viewBox="0 0 770.959625 410.479625" xmlns="http://www.w3.org/2000/svg" version="1.1">
 <metadata>
  <rdf:RDF xmlns:dc="http://purl.org/dc/elements/1.1/" xmlns:cc="http://creativecommons.org/ns#" xmlns:rdf="http://www.w3.org/1999/02/22-rdf-syntax-ns#">
   <cc:Work>
    <dc:type rdf:resource="http://purl.org/dc/dcmitype/StillImage"/>
    <dc:date>2025-07-25T12:55:29.412458</dc:date>
    <dc:format>image/svg+xml</dc:format>
    <dc:creator>
     <cc:Agent>
      <dc:title>Matplotlib v3.10.3, https://matplotlib.org/</dc:title>
     </cc:Agent>
    </dc:creator>
   </cc:Work>
  </rdf:RDF>
 </metadata>
 <defs>
  <style type="text/css">*{stroke-linejoin: round; stroke-linecap: butt}</style>
 </defs>
 <g id="figure_1">
  <g id="patch_1">
   <path d="M 0 410.479625 
L 770.959625 410.479625 
L 770.959625 0 
L 0 0 
z
" style="fill: #ffffff"/>
  </g>
  <g id="axes_1">
   <g id="patch_2">
    <path d="M 78.265625 284.762437 
L 734.959625 284.762437 
L 734.959625 49.598437 
L 78.265625 49.598437 
z
" style="fill: #ffffff"/>
   </g>
   <g id="matplotlib.axis_1">
    <g id="xtick_1">
     <g id="text_1">
      <text style="font-size: 10px; font-family: 'Arial', 'DejaVu Sans', 'Liberation Sans', 'Bitstream Vera Sans', sans-serif; fill: #262626" transform="translate(245.1985 360.085875) rotate(-90)">unknown cell</text>
     </g>
    </g>
    <g id="xtick_2">
     <g id="text_2">
      <text style="font-size: 10px; font-family: 'Arial', 'DejaVu Sans', 'Liberation Sans', 'Bitstream Vera Sans', sans-serif; fill: #262626" transform="translate(573.5455 360.8015) rotate(-90)">epithelial cell</text>
     </g>
    </g>
    <g id="text_3">
     <text style="font-size: 10px; font-family: 'Arial', 'DejaVu Sans', 'Liberation Sans', 'Bitstream Vera Sans', sans-serif; text-anchor: middle; fill: #262626" x="406.612625" y="372.399937" transform="rotate(-0 406.612625 372.399937)">Level One Cell Type</text>
    </g>
   </g>
   <g id="matplotlib.axis_2">
    <g id="ytick_1">
     <g id="line2d_1">
      <path d="M 78.265625 278.126859 
L 734.959625 278.126859 
" clip-path="url(#pa9d07405d0)" style="fill: none; stroke: #cccccc; stroke-width: 2; stroke-linecap: round"/>
     </g>
     <g id="text_4">
      <text style="font-size: 10px; font-family: 'Arial', 'DejaVu Sans', 'Liberation Sans', 'Bitstream Vera Sans', sans-serif; text-anchor: end; fill: #262626" x="68.765625" y="281.926078" transform="rotate(-0 68.765625 281.926078)">0</text>
     </g>
    </g>
    <g id="ytick_2">
     <g id="line2d_2">
      <path d="M 78.265625 250.895702 
L 734.959625 250.895702 
" clip-path="url(#pa9d07405d0)" style="fill: none; stroke: #cccccc; stroke-width: 2; stroke-linecap: round"/>
     </g>
     <g id="text_5">
      <text style="font-size: 10px; font-family: 'Arial', 'DejaVu Sans', 'Liberation Sans', 'Bitstream Vera Sans', sans-serif; text-anchor: end; fill: #262626" x="68.765625" y="254.694921" transform="rotate(-0 68.765625 254.694921)">25</text>
     </g>
    </g>
    <g id="ytick_3">
     <g id="line2d_3">
      <path d="M 78.265625 223.664546 
L 734.959625 223.664546 
" clip-path="url(#pa9d07405d0)" style="fill: none; stroke: #cccccc; stroke-width: 2; stroke-linecap: round"/>
     </g>
     <g id="text_6">
      <text style="font-size: 10px; font-family: 'Arial', 'DejaVu Sans', 'Liberation Sans', 'Bitstream Vera Sans', sans-serif; text-anchor: end; fill: #262626" x="68.765625" y="227.463765" transform="rotate(-0 68.765625 227.463765)">50</text>
     </g>
    </g>
    <g id="ytick_4">
     <g id="line2d_4">
      <path d="M 78.265625 196.433389 
L 734.959625 196.433389 
" clip-path="url(#pa9d07405d0)" style="fill: none; stroke: #cccccc; stroke-width: 2; stroke-linecap: round"/>
     </g>
     <g id="text_7">
      <text style="font-size: 10px; font-family: 'Arial', 'DejaVu Sans', 'Liberation Sans', 'Bitstream Vera Sans', sans-serif; text-anchor: end; fill: #262626" x="68.765625" y="200.232608" transform="rotate(-0 68.765625 200.232608)">75</text>
     </g>
    </g>
    <g id="ytick_5">
     <g id="line2d_5">
      <path d="M 78.265625 169.202233 
L 734.959625 169.202233 
" clip-path="url(#pa9d07405d0)" style="fill: none; stroke: #cccccc; stroke-width: 2; stroke-linecap: round"/>
     </g>
     <g id="text_8">
      <text style="font-size: 10px; font-family: 'Arial', 'DejaVu Sans', 'Liberation Sans', 'Bitstream Vera Sans', sans-serif; text-anchor: end; fill: #262626" x="68.765625" y="173.001452" transform="rotate(-0 68.765625 173.001452)">100</text>
     </g>
    </g>
    <g id="ytick_6">
     <g id="line2d_6">
      <path d="M 78.265625 141.971077 
L 734.959625 141.971077 
" clip-path="url(#pa9d07405d0)" style="fill: none; stroke: #cccccc; stroke-width: 2; stroke-linecap: round"/>
     </g>
     <g id="text_9">
      <text style="font-size: 10px; font-family: 'Arial', 'DejaVu Sans', 'Liberation Sans', 'Bitstream Vera Sans', sans-serif; text-anchor: end; fill: #262626" x="68.765625" y="145.770295" transform="rotate(-0 68.765625 145.770295)">125</text>
     </g>
    </g>
    <g id="ytick_7">
     <g id="line2d_7">
      <path d="M 78.265625 114.73992 
L 734.959625 114.73992 
" clip-path="url(#pa9d07405d0)" style="fill: none; stroke: #cccccc; stroke-width: 2; stroke-linecap: round"/>
     </g>
     <g id="text_10">
      <text style="font-size: 10px; font-family: 'Arial', 'DejaVu Sans', 'Liberation Sans', 'Bitstream Vera Sans', sans-serif; text-anchor: end; fill: #262626" x="68.765625" y="118.539139" transform="rotate(-0 68.765625 118.539139)">150</text>
     </g>
    </g>
    <g id="ytick_8">
     <g id="line2d_8">
      <path d="M 78.265625 87.508764 
L 734.959625 87.508764 
" clip-path="url(#pa9d07405d0)" style="fill: none; stroke: #cccccc; stroke-width: 2; stroke-linecap: round"/>
     </g>
     <g id="text_11">
      <text style="font-size: 10px; font-family: 'Arial', 'DejaVu Sans', 'Liberation Sans', 'Bitstream Vera Sans', sans-serif; text-anchor: end; fill: #262626" x="68.765625" y="91.307982" transform="rotate(-0 68.765625 91.307982)">175</text>
     </g>
    </g>
    <g id="ytick_9">
     <g id="line2d_9">
      <path d="M 78.265625 60.277607 
L 734.959625 60.277607 
" clip-path="url(#pa9d07405d0)" style="fill: none; stroke: #cccccc; stroke-width: 2; stroke-linecap: round"/>
     </g>
     <g id="text_12">
      <text style="font-size: 10px; font-family: 'Arial', 'DejaVu Sans', 'Liberation Sans', 'Bitstream Vera Sans', sans-serif; text-anchor: end; fill: #262626" x="68.765625" y="64.076826" transform="rotate(-0 68.765625 64.076826)">200</text>
     </g>
    </g>
    <g id="text_13">
     <text style="font-size: 10px; font-family: 'Arial', 'DejaVu Sans', 'Liberation Sans', 'Bitstream Vera Sans', sans-serif; text-anchor: middle; fill: #262626" x="43.598437" y="167.180437" transform="rotate(-90 43.598437 167.180437)">Distance (μm)</text>
    </g>
   </g>
   <g id="FillBetweenPolyCollection_1">
    <defs>
     <path id="m34c111d9a8" d="M 242.445991 -136.40646 
L 242.432259 -136.40646 
L 237.823656 -138.565909 
L 173.993112 -140.725358 
L 111.100325 -142.884807 
L 132.372727 -145.044256 
L 167.368867 -147.203705 
L 185.372977 -149.363154 
L 194.31619 -151.522603 
L 201.952456 -153.682053 
L 209.159458 -155.841502 
L 215.716064 -158.000951 
L 221.218867 -160.1604 
L 225.67207 -162.319849 
L 229.263621 -164.479298 
L 232.096512 -166.638747 
L 234.288411 -168.798196 
L 236.139574 -170.957645 
L 237.438903 -173.117094 
L 238.468919 -175.276543 
L 239.243672 -177.435992 
L 239.849614 -179.595441 
L 240.319874 -181.75489 
L 240.702729 -183.914339 
L 240.999892 -186.073788 
L 241.219636 -188.233237 
L 241.393244 -190.392686 
L 241.535206 -192.552135 
L 241.676699 -194.711584 
L 241.760317 -196.871033 
L 241.862138 -199.030482 
L 241.907267 -201.189931 
L 241.966998 -203.34938 
L 242.011312 -205.508829 
L 242.048118 -207.668278 
L 242.094055 -209.827727 
L 242.118093 -211.987176 
L 242.149926 -214.146626 
L 242.160541 -216.306075 
L 242.19625 -218.465524 
L 242.2127 -220.624973 
L 242.221664 -222.784422 
L 242.238311 -224.943871 
L 242.250245 -227.10332 
L 242.272743 -229.262769 
L 242.278432 -231.422218 
L 242.286829 -233.581667 
L 242.29603 -235.741116 
L 242.310557 -237.900565 
L 242.312274 -240.060014 
L 242.320395 -242.219463 
L 242.335699 -244.378912 
L 242.332956 -246.538361 
L 242.334783 -248.69781 
L 242.351683 -250.857259 
L 242.351612 -253.016708 
L 242.360891 -255.176157 
L 242.357289 -257.335606 
L 242.36623 -259.495055 
L 242.369395 -261.654504 
L 242.370559 -263.813953 
L 242.379474 -265.973402 
L 242.383339 -268.132851 
L 242.384525 -270.2923 
L 242.389969 -272.451749 
L 242.390686 -274.611199 
L 242.39408 -276.770648 
L 242.390901 -278.930097 
L 242.400224 -281.089546 
L 242.400202 -283.248995 
L 242.402291 -285.408444 
L 242.401271 -287.567893 
L 242.406048 -289.727342 
L 242.404406 -291.886791 
L 242.405997 -294.04624 
L 242.406095 -296.205689 
L 242.410839 -298.365138 
L 242.410968 -300.524587 
L 242.408985 -302.684036 
L 242.414136 -304.843485 
L 242.410442 -307.002934 
L 242.412843 -309.162383 
L 242.416023 -311.321832 
L 242.415596 -313.481281 
L 242.416247 -315.64073 
L 242.416565 -317.800179 
L 242.416275 -319.959628 
L 242.418962 -322.119077 
L 242.420109 -324.278526 
L 242.419062 -326.437975 
L 242.41974 -328.597424 
L 242.420956 -330.756873 
L 242.42107 -332.916322 
L 242.420992 -335.075772 
L 242.421762 -337.235221 
L 242.425008 -339.39467 
L 242.423574 -341.554119 
L 242.425234 -343.713568 
L 242.42292 -345.873017 
L 242.424485 -348.032466 
L 242.431093 -350.191915 
L 242.447157 -350.191915 
L 242.447157 -350.191915 
L 242.453765 -348.032466 
L 242.45533 -345.873017 
L 242.453016 -343.713568 
L 242.454676 -341.554119 
L 242.453242 -339.39467 
L 242.456488 -337.235221 
L 242.457258 -335.075772 
L 242.45718 -332.916322 
L 242.457294 -330.756873 
L 242.45851 -328.597424 
L 242.459188 -326.437975 
L 242.458141 -324.278526 
L 242.459288 -322.119077 
L 242.461975 -319.959628 
L 242.461685 -317.800179 
L 242.462003 -315.64073 
L 242.462654 -313.481281 
L 242.462227 -311.321832 
L 242.465407 -309.162383 
L 242.467808 -307.002934 
L 242.464114 -304.843485 
L 242.469265 -302.684036 
L 242.467282 -300.524587 
L 242.467411 -298.365138 
L 242.472155 -296.205689 
L 242.472253 -294.04624 
L 242.473844 -291.886791 
L 242.472202 -289.727342 
L 242.476979 -287.567893 
L 242.475959 -285.408444 
L 242.478048 -283.248995 
L 242.478026 -281.089546 
L 242.487349 -278.930097 
L 242.48417 -276.770648 
L 242.487564 -274.611199 
L 242.488281 -272.451749 
L 242.493725 -270.2923 
L 242.494911 -268.132851 
L 242.498776 -265.973402 
L 242.507691 -263.813953 
L 242.508855 -261.654504 
L 242.51202 -259.495055 
L 242.520961 -257.335606 
L 242.517359 -255.176157 
L 242.526638 -253.016708 
L 242.526567 -250.857259 
L 242.543467 -248.69781 
L 242.545294 -246.538361 
L 242.542551 -244.378912 
L 242.557855 -242.219463 
L 242.565976 -240.060014 
L 242.567693 -237.900565 
L 242.58222 -235.741116 
L 242.591421 -233.581667 
L 242.599818 -231.422218 
L 242.605507 -229.262769 
L 242.628005 -227.10332 
L 242.639939 -224.943871 
L 242.656586 -222.784422 
L 242.66555 -220.624973 
L 242.682 -218.465524 
L 242.717709 -216.306075 
L 242.728324 -214.146626 
L 242.760157 -211.987176 
L 242.784195 -209.827727 
L 242.830132 -207.668278 
L 242.866938 -205.508829 
L 242.911252 -203.34938 
L 242.970983 -201.189931 
L 243.016112 -199.030482 
L 243.117933 -196.871033 
L 243.201551 -194.711584 
L 243.343044 -192.552135 
L 243.485006 -190.392686 
L 243.658614 -188.233237 
L 243.878358 -186.073788 
L 244.175521 -183.914339 
L 244.558376 -181.75489 
L 245.028636 -179.595441 
L 245.634578 -177.435992 
L 246.409331 -175.276543 
L 247.439347 -173.117094 
L 248.738676 -170.957645 
L 250.589839 -168.798196 
L 252.781738 -166.638747 
L 255.614629 -164.479298 
L 259.20618 -162.319849 
L 263.659383 -160.1604 
L 269.162186 -158.000951 
L 275.718792 -155.841502 
L 282.925794 -153.682053 
L 290.56206 -151.522603 
L 299.505273 -149.363154 
L 317.509383 -147.203705 
L 352.505523 -145.044256 
L 373.777925 -142.884807 
L 310.885138 -140.725358 
L 247.054594 -138.565909 
L 242.445991 -136.40646 
z
" style="stroke: #6d6d6d; stroke-opacity: 0.9; stroke-width: 1.25"/>
    </defs>
    <g clip-path="url(#pa9d07405d0)">
     <use xlink:href="#m34c111d9a8" x="0" y="410.479625" style="fill: #ecbd81; fill-opacity: 0.9; stroke: #6d6d6d; stroke-opacity: 0.9; stroke-width: 1.25"/>
    </g>
   </g>
   <g id="FillBetweenPolyCollection_2">
    <defs>
     <path id="m7a0a8595f0" d="M 570.79711 -136.600827 
L 570.77514 -136.600827 
L 567.233486 -138.758206 
L 527.653111 -140.915585 
L 477.275407 -143.072964 
L 476.546898 -145.230344 
L 492.462317 -147.387723 
L 500.034009 -149.545102 
L 505.548126 -151.702482 
L 514.679211 -153.859861 
L 525.390263 -156.01724 
L 535.704822 -158.174619 
L 544.226314 -160.331999 
L 550.714539 -162.489378 
L 555.732855 -164.646757 
L 559.354874 -166.804137 
L 562.011432 -168.961516 
L 564.104819 -171.118895 
L 565.579495 -173.276274 
L 566.70388 -175.433654 
L 567.579355 -177.591033 
L 568.216476 -179.748412 
L 568.68667 -181.905792 
L 569.099753 -184.063171 
L 569.394207 -186.22055 
L 569.63347 -188.377929 
L 569.838954 -190.535309 
L 569.987213 -192.692688 
L 570.099404 -194.850067 
L 570.199592 -197.007447 
L 570.284168 -199.164826 
L 570.358797 -201.322205 
L 570.400762 -203.479584 
L 570.442675 -205.636964 
L 570.497583 -207.794343 
L 570.516643 -209.951722 
L 570.543923 -212.109102 
L 570.568517 -214.266481 
L 570.592871 -216.42386 
L 570.599353 -218.581239 
L 570.61609 -220.738619 
L 570.635151 -222.895998 
L 570.639353 -225.053377 
L 570.654685 -227.210756 
L 570.665375 -229.368136 
L 570.681923 -231.525515 
L 570.687675 -233.682894 
L 570.693995 -235.840274 
L 570.688593 -237.997653 
L 570.689632 -240.155032 
L 570.701388 -242.312411 
L 570.712045 -244.469791 
L 570.712964 -246.62717 
L 570.711569 -248.784549 
L 570.721143 -250.941929 
L 570.729192 -253.099308 
L 570.73132 -255.256687 
L 570.729408 -257.414066 
L 570.736575 -259.571446 
L 570.737551 -261.728825 
L 570.73736 -263.886204 
L 570.743704 -266.043584 
L 570.750499 -268.200963 
L 570.746619 -270.358342 
L 570.744221 -272.515721 
L 570.752989 -274.673101 
L 570.750817 -276.83048 
L 570.75588 -278.987859 
L 570.754581 -281.145239 
L 570.754491 -283.302618 
L 570.754091 -285.459997 
L 570.757298 -287.617376 
L 570.760278 -289.774756 
L 570.761943 -291.932135 
L 570.765053 -294.089514 
L 570.760014 -296.246894 
L 570.765152 -298.404273 
L 570.762804 -300.561652 
L 570.767146 -302.719031 
L 570.763825 -304.876411 
L 570.768536 -307.03379 
L 570.76663 -309.191169 
L 570.768833 -311.348548 
L 570.76631 -313.505928 
L 570.768201 -315.663307 
L 570.770995 -317.820686 
L 570.770802 -319.978066 
L 570.770837 -322.135445 
L 570.767139 -324.292824 
L 570.773792 -326.450203 
L 570.771619 -328.607583 
L 570.770465 -330.764962 
L 570.773793 -332.922341 
L 570.772883 -335.079721 
L 570.771471 -337.2371 
L 570.774143 -339.394479 
L 570.774854 -341.551858 
L 570.771153 -343.709238 
L 570.77561 -345.866617 
L 570.772955 -348.023996 
L 570.779382 -350.181376 
L 570.792868 -350.181376 
L 570.792868 -350.181376 
L 570.799295 -348.023996 
L 570.79664 -345.866617 
L 570.801097 -343.709238 
L 570.797396 -341.551858 
L 570.798107 -339.394479 
L 570.800779 -337.2371 
L 570.799367 -335.079721 
L 570.798457 -332.922341 
L 570.801785 -330.764962 
L 570.800631 -328.607583 
L 570.798458 -326.450203 
L 570.805111 -324.292824 
L 570.801413 -322.135445 
L 570.801448 -319.978066 
L 570.801255 -317.820686 
L 570.804049 -315.663307 
L 570.80594 -313.505928 
L 570.803417 -311.348548 
L 570.80562 -309.191169 
L 570.803714 -307.03379 
L 570.808425 -304.876411 
L 570.805104 -302.719031 
L 570.809446 -300.561652 
L 570.807098 -298.404273 
L 570.812236 -296.246894 
L 570.807197 -294.089514 
L 570.810307 -291.932135 
L 570.811972 -289.774756 
L 570.814952 -287.617376 
L 570.818159 -285.459997 
L 570.817759 -283.302618 
L 570.817669 -281.145239 
L 570.81637 -278.987859 
L 570.821433 -276.83048 
L 570.819261 -274.673101 
L 570.828029 -272.515721 
L 570.825631 -270.358342 
L 570.821751 -268.200963 
L 570.828546 -266.043584 
L 570.83489 -263.886204 
L 570.834699 -261.728825 
L 570.835675 -259.571446 
L 570.842842 -257.414066 
L 570.84093 -255.256687 
L 570.843058 -253.099308 
L 570.851107 -250.941929 
L 570.860681 -248.784549 
L 570.859286 -246.62717 
L 570.860205 -244.469791 
L 570.870862 -242.312411 
L 570.882618 -240.155032 
L 570.883657 -237.997653 
L 570.878255 -235.840274 
L 570.884575 -233.682894 
L 570.890327 -231.525515 
L 570.906875 -229.368136 
L 570.917565 -227.210756 
L 570.932897 -225.053377 
L 570.937099 -222.895998 
L 570.95616 -220.738619 
L 570.972897 -218.581239 
L 570.979379 -216.42386 
L 571.003733 -214.266481 
L 571.028327 -212.109102 
L 571.055607 -209.951722 
L 571.074667 -207.794343 
L 571.129575 -205.636964 
L 571.171488 -203.479584 
L 571.213453 -201.322205 
L 571.288082 -199.164826 
L 571.372658 -197.007447 
L 571.472846 -194.850067 
L 571.585037 -192.692688 
L 571.733296 -190.535309 
L 571.93878 -188.377929 
L 572.178043 -186.22055 
L 572.472497 -184.063171 
L 572.88558 -181.905792 
L 573.355774 -179.748412 
L 573.992895 -177.591033 
L 574.86837 -175.433654 
L 575.992755 -173.276274 
L 577.467431 -171.118895 
L 579.560818 -168.961516 
L 582.217376 -166.804137 
L 585.839395 -164.646757 
L 590.857711 -162.489378 
L 597.345936 -160.331999 
L 605.867428 -158.174619 
L 616.181987 -156.01724 
L 626.893039 -153.859861 
L 636.024124 -151.702482 
L 641.538241 -149.545102 
L 649.109933 -147.387723 
L 665.025352 -145.230344 
L 664.296843 -143.072964 
L 613.919139 -140.915585 
L 574.338764 -138.758206 
L 570.79711 -136.600827 
z
" style="stroke: #6d6d6d; stroke-opacity: 0.9; stroke-width: 1.25"/>
    </defs>
    <g clip-path="url(#pa9d07405d0)">
     <use xlink:href="#m7a0a8595f0" x="0" y="410.479625" style="fill: #c0dca9; fill-opacity: 0.9; stroke: #6d6d6d; stroke-opacity: 0.9; stroke-width: 1.25"/>
    </g>
   </g>
   <g id="line2d_10">
    <path d="M 242.439125 274.073165 
L 242.439125 239.906109 
" clip-path="url(#pa9d07405d0)" style="fill: none; stroke: #6d6d6d; stroke-width: 1.875; stroke-linecap: round"/>
   </g>
   <g id="line2d_11">
    <path d="M 242.439125 266.973913 
L 242.439125 256.146744 
" clip-path="url(#pa9d07405d0)" style="fill: none; stroke: #6d6d6d; stroke-width: 5.625; stroke-linecap: round"/>
   </g>
   <g id="line2d_12">
    <path d="M 242.439125 263.36928 
" clip-path="url(#pa9d07405d0)" style="fill: none; stroke: #6d6d6d; stroke-width: 1.5; stroke-linecap: round"/>
    <defs>
     <path id="mfc04279bd3" d="M 2.34375 0 
L -2.34375 -0 
" style="stroke: #ffffff; stroke-width: 1.125"/>
    </defs>
    <g clip-path="url(#pa9d07405d0)">
     <use xlink:href="#mfc04279bd3" x="242.439125" y="263.36928" style="fill: #ffffff; stroke: #ffffff; stroke-width: 1.125"/>
    </g>
   </g>
   <g id="line2d_13">
    <path d="M 570.786125 273.878798 
L 570.786125 237.914342 
" clip-path="url(#pa9d07405d0)" style="fill: none; stroke: #6d6d6d; stroke-width: 1.875; stroke-linecap: round"/>
   </g>
   <g id="line2d_14">
    <path d="M 570.786125 265.553257 
L 570.786125 254.497494 
" clip-path="url(#pa9d07405d0)" style="fill: none; stroke: #6d6d6d; stroke-width: 5.625; stroke-linecap: round"/>
   </g>
   <g id="line2d_15">
    <path d="M 570.786125 260.832523 
" clip-path="url(#pa9d07405d0)" style="fill: none; stroke: #6d6d6d; stroke-width: 1.5; stroke-linecap: round"/>
    <g clip-path="url(#pa9d07405d0)">
     <use xlink:href="#mfc04279bd3" x="570.786125" y="260.832523" style="fill: #ffffff; stroke: #ffffff; stroke-width: 1.125"/>
    </g>
   </g>
   <g id="patch_3">
    <path d="M 78.265625 284.762437 
L 78.265625 49.598437 
" style="fill: none; stroke: #cccccc; stroke-width: 1.25; stroke-linejoin: miter; stroke-linecap: square"/>
   </g>
   <g id="patch_4">
    <path d="M 734.959625 284.762437 
L 734.959625 49.598437 
" style="fill: none; stroke: #cccccc; stroke-width: 1.25; stroke-linejoin: miter; stroke-linecap: square"/>
   </g>
   <g id="patch_5">
    <path d="M 78.265625 284.762437 
L 734.959625 284.762437 
" style="fill: none; stroke: #cccccc; stroke-width: 1.25; stroke-linejoin: miter; stroke-linecap: square"/>
   </g>
   <g id="patch_6">
    <path d="M 78.265625 49.598437 
L 734.959625 49.598437 
" style="fill: none; stroke: #cccccc; stroke-width: 1.25; stroke-linejoin: miter; stroke-linecap: square"/>
   </g>
   <g id="text_14">
    <text style="font-size: 10px; font-family: 'Arial', 'DejaVu Sans', 'Liberation Sans', 'Bitstream Vera Sans', sans-serif; text-anchor: middle; fill: #262626" x="406.612625" y="43.598437" transform="rotate(-0 406.612625 43.598437)">Violin Plot of distances by Level One Cell Type (Density Normalization: area)</text>
   </g>
   <g id="legend_1">
    <g id="patch_7">
     <path d="M 723.959625 62.598437 
L 727.959625 62.598437 
Q 729.959625 62.598437 729.959625 60.598437 
L 729.959625 56.598437 
Q 729.959625 54.598437 727.959625 54.598437 
L 723.959625 54.598437 
Q 721.959625 54.598437 721.959625 56.598437 
L 721.959625 60.598437 
Q 721.959625 62.598437 723.959625 62.598437 
z
" style="fill: #ffffff; opacity: 0.8; stroke: #cccccc; stroke-width: 0.8; stroke-linejoin: miter"/>
    </g>
   </g>
  </g>
 </g>
 <defs>
  <clipPath id="pa9d07405d0">
   <rect x="78.265625" y="49.598437" width="656.694" height="235.164"/>
  </clipPath>
 </defs>
</svg>
