<?xml version="1.0" encoding="utf-8" standalone="no"?>
<!DOCTYPE svg PUBLIC "-//W3C//DTD SVG 1.1//EN"
  "http://www.w3.org/Graphics/SVG/1.1/DTD/svg11.dtd">
<svg xmlns:xlink="http://www.w3.org/1999/xlink" width="770.959625pt" height="410.417438pt" viewBox="0 0 770.959625 410.417438" xmlns="http://www.w3.org/2000/svg" version="1.1">
 <metadata>
  <rdf:RDF xmlns:dc="http://purl.org/dc/elements/1.1/" xmlns:cc="http://creativecommons.org/ns#" xmlns:rdf="http://www.w3.org/1999/02/22-rdf-syntax-ns#">
   <cc:Work>
    <dc:type rdf:resource="http://purl.org/dc/dcmitype/StillImage"/>
    <dc:date>2025-07-25T13:00:00.826397</dc:date>
    <dc:format>image/svg+xml</dc:format>
    <dc:creator>
     <cc:Agent>
      <dc:title>Matplotlib v3.10.3, https://matplotlib.org/</dc:title>
     </cc:Agent>
    </dc:creator>
   </cc:Work>
  </rdf:RDF>
 </metadata>
 <defs>
  <style type="text/css">*{stroke-linejoin: round; stroke-linecap: butt}</style>
 </defs>
 <g id="figure_1">
  <g id="patch_1">
   <path d="M 0 410.417438 
L 770.959625 410.417438 
L 770.959625 0 
L 0 0 
z
" style="fill: #ffffff"/>
  </g>
  <g id="axes_1">
   <g id="patch_2">
    <path d="M 78.265625 247.142437 
L 734.959625 247.142437 
L 734.959625 49.598437 
L 78.265625 49.598437 
z
" style="fill: #ffffff"/>
   </g>
   <g id="matplotlib.axis_1">
    <g id="xtick_1">
     <g id="text_1">
      <text style="font-size: 10px; font-family: 'Arial', 'DejaVu Sans', 'Liberation Sans', 'Bitstream Vera Sans', sans-serif; fill: #262626" transform="translate(190.474 322.465875) rotate(-90)">unknown cell</text>
     </g>
    </g>
    <g id="xtick_2">
     <g id="text_2">
      <text style="font-size: 10px; font-family: 'Arial', 'DejaVu Sans', 'Liberation Sans', 'Bitstream Vera Sans', sans-serif; fill: #262626" transform="translate(409.372 360.739312) rotate(-90)">epithelial cell:ductal </text>
     </g>
    </g>
    <g id="xtick_3">
     <g id="text_3">
      <text style="font-size: 10px; font-family: 'Arial', 'DejaVu Sans', 'Liberation Sans', 'Bitstream Vera Sans', sans-serif; fill: #262626" transform="translate(628.27 355.623688) rotate(-90)">beta cell:pancreatic</text>
     </g>
    </g>
    <g id="text_4">
     <text style="font-size: 10px; font-family: 'Arial', 'DejaVu Sans', 'Liberation Sans', 'Bitstream Vera Sans', sans-serif; text-anchor: middle; fill: #262626" x="406.612625" y="372.33775" transform="rotate(-0 406.612625 372.33775)">Level Three Cell Type</text>
    </g>
   </g>
   <g id="matplotlib.axis_2">
    <g id="ytick_1">
     <g id="line2d_1">
      <path d="M 78.265625 241.568375 
L 734.959625 241.568375 
" clip-path="url(#pf0b95c7117)" style="fill: none; stroke: #cccccc; stroke-width: 2; stroke-linecap: round"/>
     </g>
     <g id="text_5">
      <text style="font-size: 10px; font-family: 'Arial', 'DejaVu Sans', 'Liberation Sans', 'Bitstream Vera Sans', sans-serif; text-anchor: end; fill: #262626" x="68.765625" y="245.367594" transform="rotate(-0 68.765625 245.367594)">0</text>
     </g>
    </g>
    <g id="ytick_2">
     <g id="line2d_2">
      <path d="M 78.265625 218.693481 
L 734.959625 218.693481 
" clip-path="url(#pf0b95c7117)" style="fill: none; stroke: #cccccc; stroke-width: 2; stroke-linecap: round"/>
     </g>
     <g id="text_6">
      <text style="font-size: 10px; font-family: 'Arial', 'DejaVu Sans', 'Liberation Sans', 'Bitstream Vera Sans', sans-serif; text-anchor: end; fill: #262626" x="68.765625" y="222.4927" transform="rotate(-0 68.765625 222.4927)">25</text>
     </g>
    </g>
    <g id="ytick_3">
     <g id="line2d_3">
      <path d="M 78.265625 195.818587 
L 734.959625 195.818587 
" clip-path="url(#pf0b95c7117)" style="fill: none; stroke: #cccccc; stroke-width: 2; stroke-linecap: round"/>
     </g>
     <g id="text_7">
      <text style="font-size: 10px; font-family: 'Arial', 'DejaVu Sans', 'Liberation Sans', 'Bitstream Vera Sans', sans-serif; text-anchor: end; fill: #262626" x="68.765625" y="199.617806" transform="rotate(-0 68.765625 199.617806)">50</text>
     </g>
    </g>
    <g id="ytick_4">
     <g id="line2d_4">
      <path d="M 78.265625 172.943693 
L 734.959625 172.943693 
" clip-path="url(#pf0b95c7117)" style="fill: none; stroke: #cccccc; stroke-width: 2; stroke-linecap: round"/>
     </g>
     <g id="text_8">
      <text style="font-size: 10px; font-family: 'Arial', 'DejaVu Sans', 'Liberation Sans', 'Bitstream Vera Sans', sans-serif; text-anchor: end; fill: #262626" x="68.765625" y="176.742912" transform="rotate(-0 68.765625 176.742912)">75</text>
     </g>
    </g>
    <g id="ytick_5">
     <g id="line2d_5">
      <path d="M 78.265625 150.068799 
L 734.959625 150.068799 
" clip-path="url(#pf0b95c7117)" style="fill: none; stroke: #cccccc; stroke-width: 2; stroke-linecap: round"/>
     </g>
     <g id="text_9">
      <text style="font-size: 10px; font-family: 'Arial', 'DejaVu Sans', 'Liberation Sans', 'Bitstream Vera Sans', sans-serif; text-anchor: end; fill: #262626" x="68.765625" y="153.868018" transform="rotate(-0 68.765625 153.868018)">100</text>
     </g>
    </g>
    <g id="ytick_6">
     <g id="line2d_6">
      <path d="M 78.265625 127.193905 
L 734.959625 127.193905 
" clip-path="url(#pf0b95c7117)" style="fill: none; stroke: #cccccc; stroke-width: 2; stroke-linecap: round"/>
     </g>
     <g id="text_10">
      <text style="font-size: 10px; font-family: 'Arial', 'DejaVu Sans', 'Liberation Sans', 'Bitstream Vera Sans', sans-serif; text-anchor: end; fill: #262626" x="68.765625" y="130.993124" transform="rotate(-0 68.765625 130.993124)">125</text>
     </g>
    </g>
    <g id="ytick_7">
     <g id="line2d_7">
      <path d="M 78.265625 104.319011 
L 734.959625 104.319011 
" clip-path="url(#pf0b95c7117)" style="fill: none; stroke: #cccccc; stroke-width: 2; stroke-linecap: round"/>
     </g>
     <g id="text_11">
      <text style="font-size: 10px; font-family: 'Arial', 'DejaVu Sans', 'Liberation Sans', 'Bitstream Vera Sans', sans-serif; text-anchor: end; fill: #262626" x="68.765625" y="108.11823" transform="rotate(-0 68.765625 108.11823)">150</text>
     </g>
    </g>
    <g id="ytick_8">
     <g id="line2d_8">
      <path d="M 78.265625 81.444117 
L 734.959625 81.444117 
" clip-path="url(#pf0b95c7117)" style="fill: none; stroke: #cccccc; stroke-width: 2; stroke-linecap: round"/>
     </g>
     <g id="text_12">
      <text style="font-size: 10px; font-family: 'Arial', 'DejaVu Sans', 'Liberation Sans', 'Bitstream Vera Sans', sans-serif; text-anchor: end; fill: #262626" x="68.765625" y="85.243336" transform="rotate(-0 68.765625 85.243336)">175</text>
     </g>
    </g>
    <g id="ytick_9">
     <g id="line2d_9">
      <path d="M 78.265625 58.569223 
L 734.959625 58.569223 
" clip-path="url(#pf0b95c7117)" style="fill: none; stroke: #cccccc; stroke-width: 2; stroke-linecap: round"/>
     </g>
     <g id="text_13">
      <text style="font-size: 10px; font-family: 'Arial', 'DejaVu Sans', 'Liberation Sans', 'Bitstream Vera Sans', sans-serif; text-anchor: end; fill: #262626" x="68.765625" y="62.368442" transform="rotate(-0 68.765625 62.368442)">200</text>
     </g>
    </g>
    <g id="text_14">
     <text style="font-size: 10px; font-family: 'Arial', 'DejaVu Sans', 'Liberation Sans', 'Bitstream Vera Sans', sans-serif; text-anchor: middle; fill: #262626" x="43.598437" y="148.370437" transform="rotate(-90 43.598437 148.370437)">Distance (μm)</text>
    </g>
   </g>
   <g id="FillBetweenPolyCollection_1">
    <defs>
     <path id="m5ea88ef942" d="M 187.719202 -172.254273 
L 187.710048 -172.254273 
L 184.637646 -174.068267 
L 142.083949 -175.882262 
L 100.155425 -177.696256 
L 114.337026 -179.510251 
L 137.667786 -181.324245 
L 149.670526 -183.13824 
L 155.632668 -184.952234 
L 160.723512 -186.766229 
L 165.528181 -188.580223 
L 169.899251 -190.394218 
L 173.567787 -192.208212 
L 176.536588 -194.022207 
L 178.930956 -195.836201 
L 180.81955 -197.650196 
L 182.280816 -199.46419 
L 183.514925 -201.278185 
L 184.381144 -203.092179 
L 185.067821 -204.906174 
L 185.584323 -206.720168 
L 185.988284 -208.534163 
L 186.301791 -210.348157 
L 186.557028 -212.162152 
L 186.755137 -213.976146 
L 186.901632 -215.79014 
L 187.017371 -217.604135 
L 187.112013 -219.418129 
L 187.206341 -221.232124 
L 187.262086 -223.046118 
L 187.329967 -224.860113 
L 187.360053 -226.674107 
L 187.399874 -228.488102 
L 187.429416 -230.302096 
L 187.453953 -232.116091 
L 187.484578 -233.930085 
L 187.500603 -235.74408 
L 187.521825 -237.558074 
L 187.528902 -239.372069 
L 187.552708 -241.186063 
L 187.563675 -243.000058 
L 187.569651 -244.814052 
L 187.580749 -246.628047 
L 187.588705 -248.442041 
L 187.603704 -250.256036 
L 187.607497 -252.07003 
L 187.613094 -253.884025 
L 187.619228 -255.698019 
L 187.628913 -257.512014 
L 187.630058 -259.326008 
L 187.635472 -261.140003 
L 187.645675 -262.953997 
L 187.643846 -264.767992 
L 187.645064 -266.581986 
L 187.65633 -268.395981 
L 187.656283 -270.209975 
L 187.662469 -272.02397 
L 187.660068 -273.837964 
L 187.666028 -275.651959 
L 187.668138 -277.465953 
L 187.668914 -279.279948 
L 187.674858 -281.093942 
L 187.677434 -282.907937 
L 187.678225 -284.721931 
L 187.681855 -286.535926 
L 187.682333 -288.34992 
L 187.684595 -290.163915 
L 187.682475 -291.977909 
L 187.688691 -293.791904 
L 187.688677 -295.605898 
L 187.690069 -297.419893 
L 187.689389 -299.233887 
L 187.692574 -301.047882 
L 187.691479 -302.861876 
L 187.69254 -304.675871 
L 187.692605 -306.489865 
L 187.695768 -308.30386 
L 187.695854 -310.117854 
L 187.694532 -311.931848 
L 187.697966 -313.745843 
L 187.695503 -315.559837 
L 187.697104 -317.373832 
L 187.699224 -319.187826 
L 187.698939 -321.001821 
L 187.699373 -322.815815 
L 187.699585 -324.62981 
L 187.699392 -326.443804 
L 187.701183 -328.257799 
L 187.701948 -330.071793 
L 187.70125 -331.885788 
L 187.701701 -333.699782 
L 187.702513 -335.513777 
L 187.702588 -337.327771 
L 187.702536 -339.141766 
L 187.70305 -340.95576 
L 187.705214 -342.769755 
L 187.704257 -344.583749 
L 187.705364 -346.397744 
L 187.703821 -348.211738 
L 187.704865 -350.025733 
L 187.70927 -351.839727 
L 187.71998 -351.839727 
L 187.71998 -351.839727 
L 187.724385 -350.025733 
L 187.725429 -348.211738 
L 187.723886 -346.397744 
L 187.724993 -344.583749 
L 187.724036 -342.769755 
L 187.7262 -340.95576 
L 187.726714 -339.141766 
L 187.726662 -337.327771 
L 187.726737 -335.513777 
L 187.727549 -333.699782 
L 187.728 -331.885788 
L 187.727302 -330.071793 
L 187.728067 -328.257799 
L 187.729858 -326.443804 
L 187.729665 -324.62981 
L 187.729877 -322.815815 
L 187.730311 -321.001821 
L 187.730026 -319.187826 
L 187.732146 -317.373832 
L 187.733747 -315.559837 
L 187.731284 -313.745843 
L 187.734718 -311.931848 
L 187.733396 -310.117854 
L 187.733482 -308.30386 
L 187.736645 -306.489865 
L 187.73671 -304.675871 
L 187.737771 -302.861876 
L 187.736676 -301.047882 
L 187.739861 -299.233887 
L 187.739181 -297.419893 
L 187.740573 -295.605898 
L 187.740559 -293.791904 
L 187.746775 -291.977909 
L 187.744655 -290.163915 
L 187.746917 -288.34992 
L 187.747395 -286.535926 
L 187.751025 -284.721931 
L 187.751816 -282.907937 
L 187.754392 -281.093942 
L 187.760336 -279.279948 
L 187.761112 -277.465953 
L 187.763222 -275.651959 
L 187.769182 -273.837964 
L 187.766781 -272.02397 
L 187.772967 -270.209975 
L 187.77292 -268.395981 
L 187.784186 -266.581986 
L 187.785404 -264.767992 
L 187.783575 -262.953997 
L 187.793778 -261.140003 
L 187.799192 -259.326008 
L 187.800337 -257.512014 
L 187.810022 -255.698019 
L 187.816156 -253.884025 
L 187.821753 -252.07003 
L 187.825546 -250.256036 
L 187.840545 -248.442041 
L 187.848501 -246.628047 
L 187.859599 -244.814052 
L 187.865575 -243.000058 
L 187.876542 -241.186063 
L 187.900348 -239.372069 
L 187.907425 -237.558074 
L 187.928647 -235.74408 
L 187.944672 -233.930085 
L 187.975297 -232.116091 
L 187.999834 -230.302096 
L 188.029376 -228.488102 
L 188.069197 -226.674107 
L 188.099283 -224.860113 
L 188.167164 -223.046118 
L 188.222909 -221.232124 
L 188.317237 -219.418129 
L 188.411879 -217.604135 
L 188.527618 -215.79014 
L 188.674113 -213.976146 
L 188.872222 -212.162152 
L 189.127459 -210.348157 
L 189.440966 -208.534163 
L 189.844927 -206.720168 
L 190.361429 -204.906174 
L 191.048106 -203.092179 
L 191.914325 -201.278185 
L 193.148434 -199.46419 
L 194.6097 -197.650196 
L 196.498294 -195.836201 
L 198.892662 -194.022207 
L 201.861463 -192.208212 
L 205.529999 -190.394218 
L 209.901069 -188.580223 
L 214.705738 -186.766229 
L 219.796582 -184.952234 
L 225.758724 -183.13824 
L 237.761464 -181.324245 
L 261.092224 -179.510251 
L 275.273825 -177.696256 
L 233.345301 -175.882262 
L 190.791604 -174.068267 
L 187.719202 -172.254273 
z
" style="stroke: #636363; stroke-opacity: 0.9; stroke-width: 1.25"/>
    </defs>
    <g clip-path="url(#pf0b95c7117)">
     <use xlink:href="#m5ea88ef942" x="0" y="410.417438" style="fill: #e49467; fill-opacity: 0.9; stroke: #636363; stroke-opacity: 0.9; stroke-width: 1.25"/>
    </g>
   </g>
   <g id="FillBetweenPolyCollection_2">
    <defs>
     <path id="mf2644fe806" d="M 406.618854 -172.417546 
L 406.606396 -172.417546 
L 404.284601 -174.229801 
L 377.297397 -176.042057 
L 342.742763 -177.854313 
L 342.419051 -179.666569 
L 353.47302 -181.478825 
L 358.746433 -183.291081 
L 362.63036 -185.103337 
L 368.959293 -186.915592 
L 376.306369 -188.727848 
L 383.414558 -190.540104 
L 389.202252 -192.35236 
L 393.608278 -194.164616 
L 397.001814 -195.976872 
L 399.428536 -197.789127 
L 401.197051 -199.601383 
L 402.56646 -201.413639 
L 403.52931 -203.225895 
L 404.219712 -205.038151 
L 404.781055 -206.850407 
L 405.180982 -208.662663 
L 405.471227 -210.474918 
L 405.706119 -212.287174 
L 405.877569 -214.09943 
L 406.012698 -215.911686 
L 406.126854 -217.723942 
L 406.210893 -219.536198 
L 406.268227 -221.348453 
L 406.31442 -223.160709 
L 406.355467 -224.972965 
L 406.393014 -226.785221 
L 406.417892 -228.597477 
L 406.436061 -230.409733 
L 406.462847 -232.221988 
L 406.467712 -234.034244 
L 406.484591 -235.8465 
L 406.499909 -237.658756 
L 406.508957 -239.471012 
L 406.511052 -241.283268 
L 406.522173 -243.095524 
L 406.528281 -244.907779 
L 406.532299 -246.720035 
L 406.538846 -248.532291 
L 406.545836 -250.344547 
L 406.552922 -252.156803 
L 406.556498 -253.969059 
L 406.560324 -255.781314 
L 406.555332 -257.59357 
L 406.556246 -259.405826 
L 406.562658 -261.218082 
L 406.56837 -263.030338 
L 406.568642 -264.842594 
L 406.567606 -266.654849 
L 406.573976 -268.467105 
L 406.580028 -270.279361 
L 406.579145 -272.091617 
L 406.578568 -273.903873 
L 406.582612 -275.716129 
L 406.583479 -277.528385 
L 406.583336 -279.34064 
L 406.586888 -281.152896 
L 406.590508 -282.965152 
L 406.588076 -284.777408 
L 406.586257 -286.589664 
L 406.591618 -288.40192 
L 406.59026 -290.214175 
L 406.593655 -292.026431 
L 406.592461 -293.838687 
L 406.59139 -295.650943 
L 406.591739 -297.463199 
L 406.593295 -299.275455 
L 406.596051 -301.08771 
L 406.596951 -302.899966 
L 406.598708 -304.712222 
L 406.595407 -306.524478 
L 406.598602 -308.336734 
L 406.596791 -310.14899 
L 406.600218 -311.961246 
L 406.59763 -313.773501 
L 406.601187 -315.585757 
L 406.599519 -317.398013 
L 406.601869 -319.210269 
L 406.599325 -321.022525 
L 406.600565 -322.834781 
L 406.602842 -324.647036 
L 406.602573 -326.459292 
L 406.602274 -328.271548 
L 406.599656 -330.083804 
L 406.60486 -331.89606 
L 406.60342 -333.708316 
L 406.602227 -335.520571 
L 406.60451 -337.332827 
L 406.603485 -339.145083 
L 406.602716 -340.957339 
L 406.604759 -342.769595 
L 406.604827 -344.581851 
L 406.603263 -346.394107 
L 406.605729 -348.206362 
L 406.603546 -350.018618 
L 406.607962 -351.830874 
L 406.617288 -351.830874 
L 406.617288 -351.830874 
L 406.621704 -350.018618 
L 406.619521 -348.206362 
L 406.621987 -346.394107 
L 406.620423 -344.581851 
L 406.620491 -342.769595 
L 406.622534 -340.957339 
L 406.621765 -339.145083 
L 406.62074 -337.332827 
L 406.623023 -335.520571 
L 406.62183 -333.708316 
L 406.62039 -331.89606 
L 406.625594 -330.083804 
L 406.622976 -328.271548 
L 406.622677 -326.459292 
L 406.622408 -324.647036 
L 406.624685 -322.834781 
L 406.625925 -321.022525 
L 406.623381 -319.210269 
L 406.625731 -317.398013 
L 406.624063 -315.585757 
L 406.62762 -313.773501 
L 406.625032 -311.961246 
L 406.628459 -310.14899 
L 406.626648 -308.336734 
L 406.629843 -306.524478 
L 406.626542 -304.712222 
L 406.628299 -302.899966 
L 406.629199 -301.08771 
L 406.631955 -299.275455 
L 406.633511 -297.463199 
L 406.63386 -295.650943 
L 406.632789 -293.838687 
L 406.631595 -292.026431 
L 406.63499 -290.214175 
L 406.633632 -288.40192 
L 406.638993 -286.589664 
L 406.637174 -284.777408 
L 406.634742 -282.965152 
L 406.638362 -281.152896 
L 406.641914 -279.34064 
L 406.641771 -277.528385 
L 406.642638 -275.716129 
L 406.646682 -273.903873 
L 406.646105 -272.091617 
L 406.645222 -270.279361 
L 406.651274 -268.467105 
L 406.657644 -266.654849 
L 406.656608 -264.842594 
L 406.65688 -263.030338 
L 406.662592 -261.218082 
L 406.669004 -259.405826 
L 406.669918 -257.59357 
L 406.664926 -255.781314 
L 406.668752 -253.969059 
L 406.672328 -252.156803 
L 406.679414 -250.344547 
L 406.686404 -248.532291 
L 406.692951 -246.720035 
L 406.696969 -244.907779 
L 406.703077 -243.095524 
L 406.714198 -241.283268 
L 406.716293 -239.471012 
L 406.725341 -237.658756 
L 406.740659 -235.8465 
L 406.757538 -234.034244 
L 406.762403 -232.221988 
L 406.789189 -230.409733 
L 406.807358 -228.597477 
L 406.832236 -226.785221 
L 406.869783 -224.972965 
L 406.91083 -223.160709 
L 406.957023 -221.348453 
L 407.014357 -219.536198 
L 407.098396 -217.723942 
L 407.212552 -215.911686 
L 407.347681 -214.09943 
L 407.519131 -212.287174 
L 407.754023 -210.474918 
L 408.044268 -208.662663 
L 408.444195 -206.850407 
L 409.005538 -205.038151 
L 409.69594 -203.225895 
L 410.65879 -201.413639 
L 412.028199 -199.601383 
L 413.796714 -197.789127 
L 416.223436 -195.976872 
L 419.616972 -194.164616 
L 424.022998 -192.35236 
L 429.810692 -190.540104 
L 436.918881 -188.727848 
L 444.265957 -186.915592 
L 450.59489 -185.103337 
L 454.478817 -183.291081 
L 459.75223 -181.478825 
L 470.806199 -179.666569 
L 470.482487 -177.854313 
L 435.927853 -176.042057 
L 408.940649 -174.229801 
L 406.618854 -172.417546 
z
" style="stroke: #636363; stroke-opacity: 0.9; stroke-width: 1.25"/>
    </defs>
    <g clip-path="url(#pf0b95c7117)">
     <use xlink:href="#mf2644fe806" x="0" y="410.417438" style="fill: #f7f7c6; fill-opacity: 0.9; stroke: #636363; stroke-opacity: 0.9; stroke-width: 1.25"/>
    </g>
   </g>
   <g id="FillBetweenPolyCollection_3">
    <defs>
     <path id="m2153fbcec3" d="M 627.154267 -173.276167 
L 623.866983 -173.276167 
L 618.021772 -175.048118 
L 608.493402 -176.82007 
L 601.499262 -178.592021 
L 598.903833 -180.363973 
L 597.800747 -182.135924 
L 596.358836 -183.907876 
L 595.31686 -185.679827 
L 595.501758 -187.451779 
L 596.48898 -189.22373 
L 598.088769 -190.995682 
L 600.319341 -192.767633 
L 602.564545 -194.539585 
L 604.511172 -196.311536 
L 606.44158 -198.083488 
L 608.412945 -199.855439 
L 610.262246 -201.627391 
L 612.056455 -203.399342 
L 613.808088 -205.171293 
L 615.137563 -206.943245 
L 616.186539 -208.715196 
L 617.270051 -210.487148 
L 618.420607 -212.259099 
L 619.373216 -214.031051 
L 620.135341 -215.803002 
L 620.803296 -217.574954 
L 621.379699 -219.346905 
L 621.945893 -221.118857 
L 622.507063 -222.890808 
L 622.977799 -224.66276 
L 623.340815 -226.434711 
L 623.584411 -228.206663 
L 623.8284 -229.978614 
L 624.099812 -231.750566 
L 624.314051 -233.522517 
L 624.432 -235.294469 
L 624.51036 -237.06642 
L 624.634665 -238.838372 
L 624.731741 -240.610323 
L 624.807733 -242.382275 
L 624.900066 -244.154226 
L 624.968079 -245.926178 
L 625.008433 -247.698129 
L 625.060667 -249.47008 
L 625.120916 -251.242032 
L 625.170986 -253.013983 
L 625.191779 -254.785935 
L 625.213972 -256.557886 
L 625.223145 -258.329838 
L 625.243244 -260.101789 
L 625.289802 -261.873741 
L 625.323911 -263.645692 
L 625.338166 -265.417644 
L 625.338624 -267.189595 
L 625.344793 -268.961547 
L 625.349823 -270.733498 
L 625.365822 -272.50545 
L 625.382908 -274.277401 
L 625.398622 -276.049353 
L 625.402295 -277.821304 
L 625.405783 -279.593256 
L 625.420682 -281.365207 
L 625.431107 -283.137159 
L 625.437207 -284.90911 
L 625.448479 -286.681062 
L 625.456592 -288.453013 
L 625.455051 -290.224965 
L 625.457414 -291.996916 
L 625.469211 -293.768868 
L 625.481354 -295.540819 
L 625.4838 -297.31277 
L 625.483899 -299.084722 
L 625.481105 -300.856673 
L 625.481419 -302.628625 
L 625.485281 -304.400576 
L 625.486981 -306.172528 
L 625.493447 -307.944479 
L 625.49853 -309.716431 
L 625.496496 -311.488382 
L 625.496365 -313.260334 
L 625.496759 -315.032285 
L 625.494478 -316.804237 
L 625.491015 -318.576188 
L 625.493574 -320.34814 
L 625.497985 -322.120091 
L 625.495778 -323.892043 
L 625.494628 -325.663994 
L 625.500006 -327.435946 
L 625.501827 -329.207897 
L 625.496953 -330.979849 
L 625.488667 -332.7518 
L 625.490511 -334.523752 
L 625.499609 -336.295703 
L 625.505379 -338.067655 
L 625.506651 -339.839606 
L 625.504188 -341.611557 
L 625.504684 -343.383509 
L 625.502167 -345.15546 
L 625.49797 -346.927412 
L 625.503039 -348.699363 
L 625.518211 -348.699363 
L 625.518211 -348.699363 
L 625.52328 -346.927412 
L 625.519083 -345.15546 
L 625.516566 -343.383509 
L 625.517062 -341.611557 
L 625.514599 -339.839606 
L 625.515871 -338.067655 
L 625.521641 -336.295703 
L 625.530739 -334.523752 
L 625.532583 -332.7518 
L 625.524297 -330.979849 
L 625.519423 -329.207897 
L 625.521244 -327.435946 
L 625.526622 -325.663994 
L 625.525472 -323.892043 
L 625.523265 -322.120091 
L 625.527676 -320.34814 
L 625.530235 -318.576188 
L 625.526772 -316.804237 
L 625.524491 -315.032285 
L 625.524885 -313.260334 
L 625.524754 -311.488382 
L 625.52272 -309.716431 
L 625.527803 -307.944479 
L 625.534269 -306.172528 
L 625.535969 -304.400576 
L 625.539831 -302.628625 
L 625.540145 -300.856673 
L 625.537351 -299.084722 
L 625.53745 -297.31277 
L 625.539896 -295.540819 
L 625.552039 -293.768868 
L 625.563836 -291.996916 
L 625.566199 -290.224965 
L 625.564658 -288.453013 
L 625.572771 -286.681062 
L 625.584043 -284.90911 
L 625.590143 -283.137159 
L 625.600568 -281.365207 
L 625.615467 -279.593256 
L 625.618955 -277.821304 
L 625.622628 -276.049353 
L 625.638342 -274.277401 
L 625.655428 -272.50545 
L 625.671427 -270.733498 
L 625.676457 -268.961547 
L 625.682626 -267.189595 
L 625.683084 -265.417644 
L 625.697339 -263.645692 
L 625.731448 -261.873741 
L 625.778006 -260.101789 
L 625.798105 -258.329838 
L 625.807278 -256.557886 
L 625.829471 -254.785935 
L 625.850264 -253.013983 
L 625.900334 -251.242032 
L 625.960583 -249.47008 
L 626.012817 -247.698129 
L 626.053171 -245.926178 
L 626.121184 -244.154226 
L 626.213517 -242.382275 
L 626.289509 -240.610323 
L 626.386585 -238.838372 
L 626.51089 -237.06642 
L 626.58925 -235.294469 
L 626.707199 -233.522517 
L 626.921438 -231.750566 
L 627.19285 -229.978614 
L 627.436839 -228.206663 
L 627.680435 -226.434711 
L 628.043451 -224.66276 
L 628.514187 -222.890808 
L 629.075357 -221.118857 
L 629.641551 -219.346905 
L 630.217954 -217.574954 
L 630.885909 -215.803002 
L 631.648034 -214.031051 
L 632.600643 -212.259099 
L 633.751199 -210.487148 
L 634.834711 -208.715196 
L 635.883687 -206.943245 
L 637.213162 -205.171293 
L 638.964795 -203.399342 
L 640.759004 -201.627391 
L 642.608305 -199.855439 
L 644.57967 -198.083488 
L 646.510078 -196.311536 
L 648.456705 -194.539585 
L 650.701909 -192.767633 
L 652.932481 -190.995682 
L 654.53227 -189.22373 
L 655.519492 -187.451779 
L 655.70439 -185.679827 
L 654.662414 -183.907876 
L 653.220503 -182.135924 
L 652.117417 -180.363973 
L 649.521988 -178.592021 
L 642.527848 -176.82007 
L 632.999478 -175.048118 
L 627.154267 -173.276167 
z
" style="stroke: #636363; stroke-opacity: 0.9; stroke-width: 1.25"/>
    </defs>
    <g clip-path="url(#pf0b95c7117)">
     <use xlink:href="#m2153fbcec3" x="0" y="410.417438" style="fill: #90c6a6; fill-opacity: 0.9; stroke: #636363; stroke-opacity: 0.9; stroke-width: 1.25"/>
    </g>
   </g>
   <g id="line2d_10">
    <path d="M 187.714625 238.163165 
L 187.714625 209.461932 
" clip-path="url(#pf0b95c7117)" style="fill: none; stroke: #636363; stroke-width: 1.875; stroke-linecap: round"/>
   </g>
   <g id="line2d_11">
    <path d="M 187.714625 232.199605 
L 187.714625 223.104495 
" clip-path="url(#pf0b95c7117)" style="fill: none; stroke: #636363; stroke-width: 5.625; stroke-linecap: round"/>
   </g>
   <g id="line2d_12">
    <path d="M 187.714625 229.171618 
" clip-path="url(#pf0b95c7117)" style="fill: none; stroke: #636363; stroke-width: 1.5; stroke-linecap: round"/>
    <defs>
     <path id="mbb8105c0e8" d="M 2.34375 0 
L -2.34375 -0 
" style="stroke: #ffffff; stroke-width: 1.125"/>
    </defs>
    <g clip-path="url(#pf0b95c7117)">
     <use xlink:href="#mbb8105c0e8" x="187.714625" y="229.171618" style="fill: #ffffff; stroke: #ffffff; stroke-width: 1.125"/>
    </g>
   </g>
   <g id="line2d_13">
    <path d="M 406.612625 237.999892 
L 406.612625 208.534874 
" clip-path="url(#pf0b95c7117)" style="fill: none; stroke: #636363; stroke-width: 1.875; stroke-linecap: round"/>
   </g>
   <g id="line2d_14">
    <path d="M 406.612625 231.079395 
L 406.612625 222.061576 
" clip-path="url(#pf0b95c7117)" style="fill: none; stroke: #636363; stroke-width: 5.625; stroke-linecap: round"/>
   </g>
   <g id="line2d_15">
    <path d="M 406.612625 227.219561 
" clip-path="url(#pf0b95c7117)" style="fill: none; stroke: #636363; stroke-width: 1.5; stroke-linecap: round"/>
    <g clip-path="url(#pf0b95c7117)">
     <use xlink:href="#mbb8105c0e8" x="406.612625" y="227.219561" style="fill: #ffffff; stroke: #ffffff; stroke-width: 1.125"/>
    </g>
   </g>
   <g id="line2d_16">
    <path d="M 625.510625 237.141271 
L 625.510625 183.495547 
" clip-path="url(#pf0b95c7117)" style="fill: none; stroke: #636363; stroke-width: 1.875; stroke-linecap: round"/>
   </g>
   <g id="line2d_17">
    <path d="M 625.510625 226.414764 
L 625.510625 209.246741 
" clip-path="url(#pf0b95c7117)" style="fill: none; stroke: #636363; stroke-width: 5.625; stroke-linecap: round"/>
   </g>
   <g id="line2d_18">
    <path d="M 625.510625 219.265636 
" clip-path="url(#pf0b95c7117)" style="fill: none; stroke: #636363; stroke-width: 1.5; stroke-linecap: round"/>
    <g clip-path="url(#pf0b95c7117)">
     <use xlink:href="#mbb8105c0e8" x="625.510625" y="219.265636" style="fill: #ffffff; stroke: #ffffff; stroke-width: 1.125"/>
    </g>
   </g>
   <g id="patch_3">
    <path d="M 78.265625 247.142437 
L 78.265625 49.598437 
" style="fill: none; stroke: #cccccc; stroke-width: 1.25; stroke-linejoin: miter; stroke-linecap: square"/>
   </g>
   <g id="patch_4">
    <path d="M 734.959625 247.142437 
L 734.959625 49.598437 
" style="fill: none; stroke: #cccccc; stroke-width: 1.25; stroke-linejoin: miter; stroke-linecap: square"/>
   </g>
   <g id="patch_5">
    <path d="M 78.265625 247.142437 
L 734.959625 247.142437 
" style="fill: none; stroke: #cccccc; stroke-width: 1.25; stroke-linejoin: miter; stroke-linecap: square"/>
   </g>
   <g id="patch_6">
    <path d="M 78.265625 49.598437 
L 734.959625 49.598437 
" style="fill: none; stroke: #cccccc; stroke-width: 1.25; stroke-linejoin: miter; stroke-linecap: square"/>
   </g>
   <g id="text_15">
    <text style="font-size: 10px; font-family: 'Arial', 'DejaVu Sans', 'Liberation Sans', 'Bitstream Vera Sans', sans-serif; text-anchor: middle; fill: #262626" x="406.612625" y="43.598437" transform="rotate(-0 406.612625 43.598437)">Violin Plot of distances by Level Three Cell Type (Density Normalization: area)</text>
   </g>
   <g id="legend_1">
    <g id="patch_7">
     <path d="M 723.959625 62.598437 
L 727.959625 62.598437 
Q 729.959625 62.598437 729.959625 60.598437 
L 729.959625 56.598437 
Q 729.959625 54.598437 727.959625 54.598437 
L 723.959625 54.598437 
Q 721.959625 54.598437 721.959625 56.598437 
L 721.959625 60.598437 
Q 721.959625 62.598437 723.959625 62.598437 
z
" style="fill: #ffffff; opacity: 0.8; stroke: #cccccc; stroke-width: 0.8; stroke-linejoin: miter"/>
    </g>
   </g>
  </g>
 </g>
 <defs>
  <clipPath id="pf0b95c7117">
   <rect x="78.265625" y="49.598437" width="656.694" height="197.544"/>
  </clipPath>
 </defs>
</svg>
