<?xml version="1.0" encoding="utf-8" standalone="no"?>
<!DOCTYPE svg PUBLIC "-//W3C//DTD SVG 1.1//EN"
  "http://www.w3.org/Graphics/SVG/1.1/DTD/svg11.dtd">
<svg xmlns:xlink="http://www.w3.org/1999/xlink" width="1139.727725pt" height="770.479625pt" viewBox="0 0 1139.727725 770.479625" xmlns="http://www.w3.org/2000/svg" version="1.1">
 <metadata>
  <rdf:RDF xmlns:dc="http://purl.org/dc/elements/1.1/" xmlns:cc="http://creativecommons.org/ns#" xmlns:rdf="http://www.w3.org/1999/02/22-rdf-syntax-ns#">
   <cc:Work>
    <dc:type rdf:resource="http://purl.org/dc/dcmitype/StillImage"/>
    <dc:date>2025-07-25T12:42:08.631992</dc:date>
    <dc:format>image/svg+xml</dc:format>
    <dc:creator>
     <cc:Agent>
      <dc:title>Matplotlib v3.10.3, https://matplotlib.org/</dc:title>
     </cc:Agent>
    </dc:creator>
   </cc:Work>
  </rdf:RDF>
 </metadata>
 <defs>
  <style type="text/css">*{stroke-linejoin: round; stroke-linecap: butt}</style>
 </defs>
 <g id="figure_1">
  <g id="patch_1">
   <path d="M 0 770.479625 
L 1139.727725 770.479625 
L 1139.727725 0 
L 0 0 
z
" style="fill: #ffffff"/>
  </g>
  <g id="axes_1">
   <g id="patch_2">
    <path d="M 78.265625 644.762438 
L 974.319625 644.762438 
L 974.319625 49.598438 
L 78.265625 49.598438 
z
" style="fill: #ffffff"/>
   </g>
   <g id="matplotlib.axis_1">
    <g id="xtick_1">
     <g id="text_1">
      <text style="font-size: 10px; font-family: 'Arial', 'DejaVu Sans', 'Liberation Sans', 'Bitstream Vera Sans', sans-serif; fill: #262626" transform="translate(230.367333 720.085875) rotate(-90)">unknown cell</text>
     </g>
    </g>
    <g id="xtick_2">
     <g id="text_2">
      <text style="font-size: 10px; font-family: 'Arial', 'DejaVu Sans', 'Liberation Sans', 'Bitstream Vera Sans', sans-serif; fill: #262626" transform="translate(529.052 715.735875) rotate(-90)">immune cell</text>
     </g>
    </g>
    <g id="xtick_3">
     <g id="text_3">
      <text style="font-size: 10px; font-family: 'Arial', 'DejaVu Sans', 'Liberation Sans', 'Bitstream Vera Sans', sans-serif; fill: #262626" transform="translate(827.736667 720.8015) rotate(-90)">epithelial cell</text>
     </g>
    </g>
    <g id="text_4">
     <text style="font-size: 10px; font-family: 'Arial', 'DejaVu Sans', 'Liberation Sans', 'Bitstream Vera Sans', sans-serif; text-anchor: middle; fill: #262626" x="526.292625" y="732.399938" transform="rotate(-0 526.292625 732.399938)">Cell Type</text>
    </g>
   </g>
   <g id="matplotlib.axis_2">
    <g id="ytick_1">
     <g id="line2d_1">
      <path d="M 78.265625 621.417525 
L 974.319625 621.417525 
" clip-path="url(#p00212a9dfa)" style="fill: none; stroke: #cccccc; stroke-width: 2; stroke-linecap: round"/>
     </g>
     <g id="text_5">
      <text style="font-size: 10px; font-family: 'Arial', 'DejaVu Sans', 'Liberation Sans', 'Bitstream Vera Sans', sans-serif; text-anchor: end; fill: #262626" x="68.765625" y="625.216743" transform="rotate(-0 68.765625 625.216743)">0</text>
     </g>
    </g>
    <g id="ytick_2">
     <g id="line2d_2">
      <path d="M 78.265625 555.007131 
L 974.319625 555.007131 
" clip-path="url(#p00212a9dfa)" style="fill: none; stroke: #cccccc; stroke-width: 2; stroke-linecap: round"/>
     </g>
     <g id="text_6">
      <text style="font-size: 10px; font-family: 'Arial', 'DejaVu Sans', 'Liberation Sans', 'Bitstream Vera Sans', sans-serif; text-anchor: end; fill: #262626" x="68.765625" y="558.80635" transform="rotate(-0 68.765625 558.80635)">20</text>
     </g>
    </g>
    <g id="ytick_3">
     <g id="line2d_3">
      <path d="M 78.265625 488.596738 
L 974.319625 488.596738 
" clip-path="url(#p00212a9dfa)" style="fill: none; stroke: #cccccc; stroke-width: 2; stroke-linecap: round"/>
     </g>
     <g id="text_7">
      <text style="font-size: 10px; font-family: 'Arial', 'DejaVu Sans', 'Liberation Sans', 'Bitstream Vera Sans', sans-serif; text-anchor: end; fill: #262626" x="68.765625" y="492.395956" transform="rotate(-0 68.765625 492.395956)">40</text>
     </g>
    </g>
    <g id="ytick_4">
     <g id="line2d_4">
      <path d="M 78.265625 422.186344 
L 974.319625 422.186344 
" clip-path="url(#p00212a9dfa)" style="fill: none; stroke: #cccccc; stroke-width: 2; stroke-linecap: round"/>
     </g>
     <g id="text_8">
      <text style="font-size: 10px; font-family: 'Arial', 'DejaVu Sans', 'Liberation Sans', 'Bitstream Vera Sans', sans-serif; text-anchor: end; fill: #262626" x="68.765625" y="425.985563" transform="rotate(-0 68.765625 425.985563)">60</text>
     </g>
    </g>
    <g id="ytick_5">
     <g id="line2d_5">
      <path d="M 78.265625 355.775951 
L 974.319625 355.775951 
" clip-path="url(#p00212a9dfa)" style="fill: none; stroke: #cccccc; stroke-width: 2; stroke-linecap: round"/>
     </g>
     <g id="text_9">
      <text style="font-size: 10px; font-family: 'Arial', 'DejaVu Sans', 'Liberation Sans', 'Bitstream Vera Sans', sans-serif; text-anchor: end; fill: #262626" x="68.765625" y="359.575169" transform="rotate(-0 68.765625 359.575169)">80</text>
     </g>
    </g>
    <g id="ytick_6">
     <g id="line2d_6">
      <path d="M 78.265625 289.365557 
L 974.319625 289.365557 
" clip-path="url(#p00212a9dfa)" style="fill: none; stroke: #cccccc; stroke-width: 2; stroke-linecap: round"/>
     </g>
     <g id="text_10">
      <text style="font-size: 10px; font-family: 'Arial', 'DejaVu Sans', 'Liberation Sans', 'Bitstream Vera Sans', sans-serif; text-anchor: end; fill: #262626" x="68.765625" y="293.164776" transform="rotate(-0 68.765625 293.164776)">100</text>
     </g>
    </g>
    <g id="ytick_7">
     <g id="line2d_7">
      <path d="M 78.265625 222.955164 
L 974.319625 222.955164 
" clip-path="url(#p00212a9dfa)" style="fill: none; stroke: #cccccc; stroke-width: 2; stroke-linecap: round"/>
     </g>
     <g id="text_11">
      <text style="font-size: 10px; font-family: 'Arial', 'DejaVu Sans', 'Liberation Sans', 'Bitstream Vera Sans', sans-serif; text-anchor: end; fill: #262626" x="68.765625" y="226.754382" transform="rotate(-0 68.765625 226.754382)">120</text>
     </g>
    </g>
    <g id="ytick_8">
     <g id="line2d_8">
      <path d="M 78.265625 156.54477 
L 974.319625 156.54477 
" clip-path="url(#p00212a9dfa)" style="fill: none; stroke: #cccccc; stroke-width: 2; stroke-linecap: round"/>
     </g>
     <g id="text_12">
      <text style="font-size: 10px; font-family: 'Arial', 'DejaVu Sans', 'Liberation Sans', 'Bitstream Vera Sans', sans-serif; text-anchor: end; fill: #262626" x="68.765625" y="160.343989" transform="rotate(-0 68.765625 160.343989)">140</text>
     </g>
    </g>
    <g id="ytick_9">
     <g id="line2d_9">
      <path d="M 78.265625 90.134377 
L 974.319625 90.134377 
" clip-path="url(#p00212a9dfa)" style="fill: none; stroke: #cccccc; stroke-width: 2; stroke-linecap: round"/>
     </g>
     <g id="text_13">
      <text style="font-size: 10px; font-family: 'Arial', 'DejaVu Sans', 'Liberation Sans', 'Bitstream Vera Sans', sans-serif; text-anchor: end; fill: #262626" x="68.765625" y="93.933595" transform="rotate(-0 68.765625 93.933595)">160</text>
     </g>
    </g>
    <g id="text_14">
     <text style="font-size: 10px; font-family: 'Arial', 'DejaVu Sans', 'Liberation Sans', 'Bitstream Vera Sans', sans-serif; text-anchor: middle; fill: #262626" x="43.598437" y="347.180438" transform="rotate(-90 43.598437 347.180438)">Distance (μm)</text>
    </g>
   </g>
   <g id="FillBetweenPolyCollection_1">
    <defs>
     <path id="m698bf6e664" d="M 227.607958 -152.770097 
L 202.388062 -152.770097 
L 189.862722 -158.235331 
L 176.296943 -163.700565 
L 163.509168 -169.165799 
L 152.991629 -174.631033 
L 145.372995 -180.096267 
L 140.346953 -185.561502 
L 137.014969 -191.026736 
L 134.367631 -196.49197 
L 131.647822 -201.957204 
L 128.496318 -207.422438 
L 124.919615 -212.887672 
L 121.169427 -218.352907 
L 117.60031 -223.818141 
L 114.533988 -229.283375 
L 112.151918 -234.748609 
L 110.452928 -240.213843 
L 109.302522 -245.679077 
L 108.548892 -251.144311 
L 108.134092 -256.609546 
L 108.135041 -262.07478 
L 108.717663 -267.540014 
L 110.0354 -273.005248 
L 112.127928 -278.470482 
L 114.875408 -283.935716 
L 118.034921 -289.400951 
L 121.33857 -294.866185 
L 124.599248 -300.331419 
L 127.771376 -305.796653 
L 130.938654 -311.261887 
L 134.235117 -316.727121 
L 137.743973 -322.192356 
L 141.437597 -327.65759 
L 145.193083 -333.122824 
L 148.859762 -338.588058 
L 152.324973 -344.053292 
L 155.54503 -349.518526 
L 158.544222 -354.983761 
L 161.398007 -360.448995 
L 164.208605 -365.914229 
L 167.073803 -371.379463 
L 170.052272 -376.844697 
L 173.136453 -382.309931 
L 176.249366 -387.775165 
L 179.275725 -393.2404 
L 182.115752 -398.705634 
L 184.726265 -404.170868 
L 187.116944 -409.636102 
L 189.308039 -415.101336 
L 191.293927 -420.56657 
L 193.05068 -426.031805 
L 194.577874 -431.497039 
L 195.927272 -436.962273 
L 197.185361 -442.427507 
L 198.424285 -447.892741 
L 199.66276 -453.357975 
L 200.862313 -458.82321 
L 201.952721 -464.288444 
L 202.867323 -469.753678 
L 203.573325 -475.218912 
L 204.086956 -480.684146 
L 204.466372 -486.14938 
L 204.785806 -491.614614 
L 205.108214 -497.079849 
L 205.474082 -502.545083 
L 205.907776 -508.010317 
L 206.427721 -513.475551 
L 207.048517 -518.940785 
L 207.775655 -524.406019 
L 208.599922 -529.871254 
L 209.495474 -535.336488 
L 210.422744 -540.801722 
L 211.337921 -546.266956 
L 212.207092 -551.73219 
L 213.015592 -557.197424 
L 213.763982 -562.662659 
L 214.454926 -568.127893 
L 215.085226 -573.593127 
L 215.651133 -579.058361 
L 216.160008 -584.523595 
L 216.635213 -589.988829 
L 217.10911 -595.454064 
L 217.610457 -600.919298 
L 218.154803 -606.384532 
L 218.740797 -611.849766 
L 219.351337 -617.315 
L 219.959566 -622.780234 
L 220.539519 -628.245468 
L 221.076642 -633.710703 
L 221.571367 -639.175937 
L 222.034798 -644.641171 
L 222.482938 -650.106405 
L 222.934919 -655.571639 
L 223.412391 -661.036873 
L 223.933405 -666.502108 
L 224.501163 -671.967342 
L 225.09668 -677.432576 
L 225.682948 -682.89781 
L 226.218194 -688.363044 
L 226.669353 -693.828278 
L 227.607958 -693.828278 
L 227.607958 -693.828278 
L 227.607958 -688.363044 
L 227.607958 -682.89781 
L 227.607958 -677.432576 
L 227.607958 -671.967342 
L 227.607958 -666.502108 
L 227.607958 -661.036873 
L 227.607958 -655.571639 
L 227.607958 -650.106405 
L 227.607958 -644.641171 
L 227.607958 -639.175937 
L 227.607958 -633.710703 
L 227.607958 -628.245468 
L 227.607958 -622.780234 
L 227.607958 -617.315 
L 227.607958 -611.849766 
L 227.607958 -606.384532 
L 227.607958 -600.919298 
L 227.607958 -595.454064 
L 227.607958 -589.988829 
L 227.607958 -584.523595 
L 227.607958 -579.058361 
L 227.607958 -573.593127 
L 227.607958 -568.127893 
L 227.607958 -562.662659 
L 227.607958 -557.197424 
L 227.607958 -551.73219 
L 227.607958 -546.266956 
L 227.607958 -540.801722 
L 227.607958 -535.336488 
L 227.607958 -529.871254 
L 227.607958 -524.406019 
L 227.607958 -518.940785 
L 227.607958 -513.475551 
L 227.607958 -508.010317 
L 227.607958 -502.545083 
L 227.607958 -497.079849 
L 227.607958 -491.614614 
L 227.607958 -486.14938 
L 227.607958 -480.684146 
L 227.607958 -475.218912 
L 227.607958 -469.753678 
L 227.607958 -464.288444 
L 227.607958 -458.82321 
L 227.607958 -453.357975 
L 227.607958 -447.892741 
L 227.607958 -442.427507 
L 227.607958 -436.962273 
L 227.607958 -431.497039 
L 227.607958 -426.031805 
L 227.607958 -420.56657 
L 227.607958 -415.101336 
L 227.607958 -409.636102 
L 227.607958 -404.170868 
L 227.607958 -398.705634 
L 227.607958 -393.2404 
L 227.607958 -387.775165 
L 227.607958 -382.309931 
L 227.607958 -376.844697 
L 227.607958 -371.379463 
L 227.607958 -365.914229 
L 227.607958 -360.448995 
L 227.607958 -354.983761 
L 227.607958 -349.518526 
L 227.607958 -344.053292 
L 227.607958 -338.588058 
L 227.607958 -333.122824 
L 227.607958 -327.65759 
L 227.607958 -322.192356 
L 227.607958 -316.727121 
L 227.607958 -311.261887 
L 227.607958 -305.796653 
L 227.607958 -300.331419 
L 227.607958 -294.866185 
L 227.607958 -289.400951 
L 227.607958 -283.935716 
L 227.607958 -278.470482 
L 227.607958 -273.005248 
L 227.607958 -267.540014 
L 227.607958 -262.07478 
L 227.607958 -256.609546 
L 227.607958 -251.144311 
L 227.607958 -245.679077 
L 227.607958 -240.213843 
L 227.607958 -234.748609 
L 227.607958 -229.283375 
L 227.607958 -223.818141 
L 227.607958 -218.352907 
L 227.607958 -212.887672 
L 227.607958 -207.422438 
L 227.607958 -201.957204 
L 227.607958 -196.49197 
L 227.607958 -191.026736 
L 227.607958 -185.561502 
L 227.607958 -180.096267 
L 227.607958 -174.631033 
L 227.607958 -169.165799 
L 227.607958 -163.700565 
L 227.607958 -158.235331 
L 227.607958 -152.770097 
z
" style="stroke: #6d6d6d; stroke-opacity: 0.9; stroke-width: 1.25"/>
    </defs>
    <g clip-path="url(#p00212a9dfa)">
     <use xlink:href="#m698bf6e664" x="0" y="770.479625" style="fill: #ecbd81; fill-opacity: 0.9; stroke: #6d6d6d; stroke-opacity: 0.9; stroke-width: 1.25"/>
    </g>
   </g>
   <g id="FillBetweenPolyCollection_2">
    <defs>
     <path id="mfe8d678f34" d="M 232.919708 -155.229925 
L 227.607958 -155.229925 
L 227.607958 -159.603335 
L 227.607958 -163.976744 
L 227.607958 -168.350153 
L 227.607958 -172.723563 
L 227.607958 -177.096972 
L 227.607958 -181.470381 
L 227.607958 -185.843791 
L 227.607958 -190.2172 
L 227.607958 -194.59061 
L 227.607958 -198.964019 
L 227.607958 -203.337428 
L 227.607958 -207.710838 
L 227.607958 -212.084247 
L 227.607958 -216.457656 
L 227.607958 -220.831066 
L 227.607958 -225.204475 
L 227.607958 -229.577884 
L 227.607958 -233.951294 
L 227.607958 -238.324703 
L 227.607958 -242.698113 
L 227.607958 -247.071522 
L 227.607958 -251.444931 
L 227.607958 -255.818341 
L 227.607958 -260.19175 
L 227.607958 -264.565159 
L 227.607958 -268.938569 
L 227.607958 -273.311978 
L 227.607958 -277.685388 
L 227.607958 -282.058797 
L 227.607958 -286.432206 
L 227.607958 -290.805616 
L 227.607958 -295.179025 
L 227.607958 -299.552434 
L 227.607958 -303.925844 
L 227.607958 -308.299253 
L 227.607958 -312.672662 
L 227.607958 -317.046072 
L 227.607958 -321.419481 
L 227.607958 -325.792891 
L 227.607958 -330.1663 
L 227.607958 -334.539709 
L 227.607958 -338.913119 
L 227.607958 -343.286528 
L 227.607958 -347.659937 
L 227.607958 -352.033347 
L 227.607958 -356.406756 
L 227.607958 -360.780166 
L 227.607958 -365.153575 
L 227.607958 -369.526984 
L 227.607958 -373.900394 
L 227.607958 -378.273803 
L 227.607958 -382.647212 
L 227.607958 -387.020622 
L 227.607958 -391.394031 
L 227.607958 -395.76744 
L 227.607958 -400.14085 
L 227.607958 -404.514259 
L 227.607958 -408.887669 
L 227.607958 -413.261078 
L 227.607958 -417.634487 
L 227.607958 -422.007897 
L 227.607958 -426.381306 
L 227.607958 -430.754715 
L 227.607958 -435.128125 
L 227.607958 -439.501534 
L 227.607958 -443.874944 
L 227.607958 -448.248353 
L 227.607958 -452.621762 
L 227.607958 -456.995172 
L 227.607958 -461.368581 
L 227.607958 -465.74199 
L 227.607958 -470.1154 
L 227.607958 -474.488809 
L 227.607958 -478.862218 
L 227.607958 -483.235628 
L 227.607958 -487.609037 
L 227.607958 -491.982447 
L 227.607958 -496.355856 
L 227.607958 -500.729265 
L 227.607958 -505.102675 
L 227.607958 -509.476084 
L 227.607958 -513.849493 
L 227.607958 -518.222903 
L 227.607958 -522.596312 
L 227.607958 -526.969722 
L 227.607958 -531.343131 
L 227.607958 -535.71654 
L 227.607958 -540.08995 
L 227.607958 -544.463359 
L 227.607958 -548.836768 
L 227.607958 -553.210178 
L 227.607958 -557.583587 
L 227.607958 -561.956996 
L 227.607958 -566.330406 
L 227.607958 -570.703815 
L 227.607958 -575.077225 
L 227.607958 -579.450634 
L 227.607958 -583.824043 
L 227.607958 -588.197453 
L 227.689464 -588.197453 
L 227.689464 -588.197453 
L 227.698681 -583.824043 
L 227.702151 -579.450634 
L 227.701057 -575.077225 
L 227.698634 -570.703815 
L 227.69933 -566.330406 
L 227.707554 -561.956996 
L 227.726411 -557.583587 
L 227.756868 -553.210178 
L 227.797669 -548.836768 
L 227.846002 -544.463359 
L 227.898537 -540.08995 
L 227.952217 -535.71654 
L 228.004389 -531.343131 
L 228.052465 -526.969722 
L 228.09379 -522.596312 
L 228.126303 -518.222903 
L 228.14978 -513.849493 
L 228.166706 -509.476084 
L 228.181792 -505.102675 
L 228.200132 -500.729265 
L 228.225188 -496.355856 
L 228.258027 -491.982447 
L 228.298329 -487.609037 
L 228.346263 -483.235628 
L 228.403668 -478.862218 
L 228.473427 -474.488809 
L 228.557247 -470.1154 
L 228.653274 -465.74199 
L 228.755374 -461.368581 
L 228.854961 -456.995172 
L 228.944644 -452.621762 
L 229.021609 -448.248353 
L 229.08886 -443.874944 
L 229.153622 -439.501534 
L 229.223746 -435.128125 
L 229.303742 -430.754715 
L 229.392305 -426.381306 
L 229.482667 -422.007897 
L 229.565954 -417.634487 
L 229.635924 -413.261078 
L 229.692296 -408.887669 
L 229.740648 -404.514259 
L 229.789402 -400.14085 
L 229.846688 -395.76744 
L 229.919536 -391.394031 
L 230.015155 -387.020622 
L 230.141678 -382.647212 
L 230.306325 -378.273803 
L 230.511765 -373.900394 
L 230.753619 -369.526984 
L 231.021181 -365.153575 
L 231.300664 -360.780166 
L 231.578565 -356.406756 
L 231.8436 -352.033347 
L 232.087782 -347.659937 
L 232.308039 -343.286528 
L 232.508576 -338.913119 
L 232.702424 -334.539709 
L 232.91011 -330.1663 
L 233.154632 -325.792891 
L 233.454095 -321.419481 
L 233.815179 -317.046072 
L 234.230997 -312.672662 
L 234.68478 -308.299253 
L 235.157296 -303.925844 
L 235.633419 -299.552434 
L 236.104486 -295.179025 
L 236.566808 -290.805616 
L 237.01962 -286.432206 
L 237.465368 -282.058797 
L 237.91238 -277.685388 
L 238.377426 -273.311978 
L 238.885117 -268.938569 
L 239.462758 -264.565159 
L 240.132348 -260.19175 
L 240.903833 -255.818341 
L 241.773414 -251.444931 
L 242.727321 -247.071522 
L 243.748008 -242.698113 
L 244.819027 -238.324703 
L 245.926606 -233.951294 
L 247.057406 -229.577884 
L 248.19189 -225.204475 
L 249.293677 -220.831066 
L 250.299034 -216.457656 
L 251.114607 -212.084247 
L 251.630251 -207.710838 
L 251.745742 -203.337428 
L 251.400318 -198.964019 
L 250.590154 -194.59061 
L 249.364502 -190.2172 
L 247.802786 -185.843791 
L 245.985198 -181.470381 
L 243.972782 -177.096972 
L 241.807758 -172.723563 
L 239.533145 -168.350153 
L 237.218134 -163.976744 
L 234.969915 -159.603335 
L 232.919708 -155.229925 
z
" style="stroke: #6d6d6d; stroke-opacity: 0.9; stroke-width: 1.25"/>
    </defs>
    <g clip-path="url(#p00212a9dfa)">
     <use xlink:href="#mfe8d678f34" x="0" y="770.479625" style="fill: #c0dca9; fill-opacity: 0.9; stroke: #6d6d6d; stroke-opacity: 0.9; stroke-width: 1.25"/>
    </g>
   </g>
   <g id="FillBetweenPolyCollection_3">
    <defs>
     <path id="md6f2dc6d25" d="M 526.292625 -155.161946 
L 508.398196 -155.161946 
L 489.739396 -160.388268 
L 470.486431 -165.61459 
L 457.896301 -170.840912 
L 454.078761 -176.067234 
L 456.684606 -181.293557 
L 462.41199 -186.519879 
L 469.092296 -191.746201 
L 475.960163 -196.972523 
L 482.622669 -202.198845 
L 488.483749 -207.425167 
L 493.433258 -212.65149 
L 497.945872 -217.877812 
L 502.26933 -223.104134 
L 506.149767 -228.330456 
L 509.298025 -233.556778 
L 511.802235 -238.7831 
L 513.868928 -244.009423 
L 515.541132 -249.235745 
L 516.879534 -254.462067 
L 517.981029 -259.688389 
L 518.908959 -264.914711 
L 519.728484 -270.141034 
L 520.479688 -275.367356 
L 521.134576 -280.593678 
L 521.642261 -285.82 
L 521.991832 -291.046322 
L 522.224645 -296.272644 
L 522.455268 -301.498967 
L 522.803871 -306.725289 
L 523.237667 -311.951611 
L 523.60436 -317.177933 
L 523.856681 -322.404255 
L 524.090764 -327.630577 
L 524.360371 -332.8569 
L 524.613414 -338.083222 
L 524.792035 -343.309544 
L 524.91343 -348.535866 
L 525.039645 -353.762188 
L 525.212481 -358.988511 
L 525.416522 -364.214833 
L 525.5866 -369.441155 
L 525.689124 -374.667477 
L 525.742245 -379.893799 
L 525.773219 -385.120121 
L 525.810569 -390.346444 
L 525.872936 -395.572766 
L 525.93735 -400.799088 
L 525.950243 -406.02541 
L 525.903409 -411.251732 
L 525.854906 -416.478055 
L 525.843509 -421.704377 
L 525.861938 -426.930699 
L 525.903251 -432.157021 
L 525.951777 -437.383343 
L 525.978036 -442.609665 
L 525.977991 -447.835988 
L 525.971334 -453.06231 
L 525.967366 -458.288632 
L 525.974918 -463.514954 
L 526.015953 -468.741276 
L 526.087082 -473.967598 
L 526.141154 -479.193921 
L 526.138282 -484.420243 
L 526.092417 -489.646565 
L 526.049644 -494.872887 
L 526.033992 -500.099209 
L 526.041438 -505.325532 
L 526.069876 -510.551854 
L 526.110922 -515.778176 
L 526.136228 -521.004498 
L 526.13502 -526.23082 
L 526.121409 -531.457142 
L 526.0941 -536.683465 
L 526.045588 -541.909787 
L 526.006429 -547.136109 
L 526.029209 -552.362431 
L 526.114018 -557.588753 
L 526.201477 -562.815075 
L 526.249129 -568.041398 
L 526.262437 -573.26772 
L 526.261005 -578.494042 
L 526.254323 -583.720364 
L 526.247733 -588.946686 
L 526.246962 -594.173009 
L 526.249063 -599.399331 
L 526.241509 -604.625653 
L 526.21833 -609.851975 
L 526.195823 -615.078297 
L 526.196053 -620.304619 
L 526.209227 -625.530942 
L 526.207787 -630.757264 
L 526.193951 -635.983586 
L 526.195058 -641.209908 
L 526.221815 -646.43623 
L 526.256266 -651.662553 
L 526.2765 -656.888875 
L 526.27668 -662.115197 
L 526.266555 -667.341519 
L 526.262903 -672.567841 
L 526.292625 -672.567841 
L 526.292625 -672.567841 
L 526.292625 -667.341519 
L 526.292625 -662.115197 
L 526.292625 -656.888875 
L 526.292625 -651.662553 
L 526.292625 -646.43623 
L 526.292625 -641.209908 
L 526.292625 -635.983586 
L 526.292625 -630.757264 
L 526.292625 -625.530942 
L 526.292625 -620.304619 
L 526.292625 -615.078297 
L 526.292625 -609.851975 
L 526.292625 -604.625653 
L 526.292625 -599.399331 
L 526.292625 -594.173009 
L 526.292625 -588.946686 
L 526.292625 -583.720364 
L 526.292625 -578.494042 
L 526.292625 -573.26772 
L 526.292625 -568.041398 
L 526.292625 -562.815075 
L 526.292625 -557.588753 
L 526.292625 -552.362431 
L 526.292625 -547.136109 
L 526.292625 -541.909787 
L 526.292625 -536.683465 
L 526.292625 -531.457142 
L 526.292625 -526.23082 
L 526.292625 -521.004498 
L 526.292625 -515.778176 
L 526.292625 -510.551854 
L 526.292625 -505.325532 
L 526.292625 -500.099209 
L 526.292625 -494.872887 
L 526.292625 -489.646565 
L 526.292625 -484.420243 
L 526.292625 -479.193921 
L 526.292625 -473.967598 
L 526.292625 -468.741276 
L 526.292625 -463.514954 
L 526.292625 -458.288632 
L 526.292625 -453.06231 
L 526.292625 -447.835988 
L 526.292625 -442.609665 
L 526.292625 -437.383343 
L 526.292625 -432.157021 
L 526.292625 -426.930699 
L 526.292625 -421.704377 
L 526.292625 -416.478055 
L 526.292625 -411.251732 
L 526.292625 -406.02541 
L 526.292625 -400.799088 
L 526.292625 -395.572766 
L 526.292625 -390.346444 
L 526.292625 -385.120121 
L 526.292625 -379.893799 
L 526.292625 -374.667477 
L 526.292625 -369.441155 
L 526.292625 -364.214833 
L 526.292625 -358.988511 
L 526.292625 -353.762188 
L 526.292625 -348.535866 
L 526.292625 -343.309544 
L 526.292625 -338.083222 
L 526.292625 -332.8569 
L 526.292625 -327.630577 
L 526.292625 -322.404255 
L 526.292625 -317.177933 
L 526.292625 -311.951611 
L 526.292625 -306.725289 
L 526.292625 -301.498967 
L 526.292625 -296.272644 
L 526.292625 -291.046322 
L 526.292625 -285.82 
L 526.292625 -280.593678 
L 526.292625 -275.367356 
L 526.292625 -270.141034 
L 526.292625 -264.914711 
L 526.292625 -259.688389 
L 526.292625 -254.462067 
L 526.292625 -249.235745 
L 526.292625 -244.009423 
L 526.292625 -238.7831 
L 526.292625 -233.556778 
L 526.292625 -228.330456 
L 526.292625 -223.104134 
L 526.292625 -217.877812 
L 526.292625 -212.65149 
L 526.292625 -207.425167 
L 526.292625 -202.198845 
L 526.292625 -196.972523 
L 526.292625 -191.746201 
L 526.292625 -186.519879 
L 526.292625 -181.293557 
L 526.292625 -176.067234 
L 526.292625 -170.840912 
L 526.292625 -165.61459 
L 526.292625 -160.388268 
L 526.292625 -155.161946 
z
" style="stroke: #6d6d6d; stroke-opacity: 0.9; stroke-width: 1.25"/>
    </defs>
    <g clip-path="url(#p00212a9dfa)">
     <use xlink:href="#md6f2dc6d25" x="0" y="770.479625" style="fill: #ecbd81; fill-opacity: 0.9; stroke: #6d6d6d; stroke-opacity: 0.9; stroke-width: 1.25"/>
    </g>
   </g>
   <g id="FillBetweenPolyCollection_4">
    <defs>
     <path id="m3f4b540b68" d="M 531.179093 -155.800214 
L 526.292625 -155.800214 
L 526.292625 -159.860467 
L 526.292625 -163.920721 
L 526.292625 -167.980974 
L 526.292625 -172.041227 
L 526.292625 -176.101481 
L 526.292625 -180.161734 
L 526.292625 -184.221988 
L 526.292625 -188.282241 
L 526.292625 -192.342494 
L 526.292625 -196.402748 
L 526.292625 -200.463001 
L 526.292625 -204.523255 
L 526.292625 -208.583508 
L 526.292625 -212.643761 
L 526.292625 -216.704015 
L 526.292625 -220.764268 
L 526.292625 -224.824522 
L 526.292625 -228.884775 
L 526.292625 -232.945029 
L 526.292625 -237.005282 
L 526.292625 -241.065535 
L 526.292625 -245.125789 
L 526.292625 -249.186042 
L 526.292625 -253.246296 
L 526.292625 -257.306549 
L 526.292625 -261.366802 
L 526.292625 -265.427056 
L 526.292625 -269.487309 
L 526.292625 -273.547563 
L 526.292625 -277.607816 
L 526.292625 -281.668069 
L 526.292625 -285.728323 
L 526.292625 -289.788576 
L 526.292625 -293.84883 
L 526.292625 -297.909083 
L 526.292625 -301.969337 
L 526.292625 -306.02959 
L 526.292625 -310.089843 
L 526.292625 -314.150097 
L 526.292625 -318.21035 
L 526.292625 -322.270604 
L 526.292625 -326.330857 
L 526.292625 -330.39111 
L 526.292625 -334.451364 
L 526.292625 -338.511617 
L 526.292625 -342.571871 
L 526.292625 -346.632124 
L 526.292625 -350.692378 
L 526.292625 -354.752631 
L 526.292625 -358.812884 
L 526.292625 -362.873138 
L 526.292625 -366.933391 
L 526.292625 -370.993645 
L 526.292625 -375.053898 
L 526.292625 -379.114151 
L 526.292625 -383.174405 
L 526.292625 -387.234658 
L 526.292625 -391.294912 
L 526.292625 -395.355165 
L 526.292625 -399.415418 
L 526.292625 -403.475672 
L 526.292625 -407.535925 
L 526.292625 -411.596179 
L 526.292625 -415.656432 
L 526.292625 -419.716686 
L 526.292625 -423.776939 
L 526.292625 -427.837192 
L 526.292625 -431.897446 
L 526.292625 -435.957699 
L 526.292625 -440.017953 
L 526.292625 -444.078206 
L 526.292625 -448.138459 
L 526.292625 -452.198713 
L 526.292625 -456.258966 
L 526.292625 -460.31922 
L 526.292625 -464.379473 
L 526.292625 -468.439726 
L 526.292625 -472.49998 
L 526.292625 -476.560233 
L 526.292625 -480.620487 
L 526.292625 -484.68074 
L 526.292625 -488.740994 
L 526.292625 -492.801247 
L 526.292625 -496.8615 
L 526.292625 -500.921754 
L 526.292625 -504.982007 
L 526.292625 -509.042261 
L 526.292625 -513.102514 
L 526.292625 -517.162767 
L 526.292625 -521.223021 
L 526.292625 -525.283274 
L 526.292625 -529.343528 
L 526.292625 -533.403781 
L 526.292625 -537.464034 
L 526.292625 -541.524288 
L 526.292625 -545.584541 
L 526.292625 -549.644795 
L 526.292625 -553.705048 
L 526.292625 -557.765302 
L 526.334859 -557.765302 
L 526.334859 -557.765302 
L 526.337087 -553.705048 
L 526.334403 -549.644795 
L 526.329658 -545.584541 
L 526.325939 -541.524288 
L 526.324676 -537.464034 
L 526.325211 -533.403781 
L 526.32558 -529.343528 
L 526.323999 -525.283274 
L 526.320504 -521.223021 
L 526.317704 -517.162767 
L 526.319869 -513.102514 
L 526.330734 -509.042261 
L 526.35126 -504.982007 
L 526.378522 -500.921754 
L 526.406441 -496.8615 
L 526.428204 -492.801247 
L 526.439073 -488.740994 
L 526.437987 -484.68074 
L 526.427503 -480.620487 
L 526.41291 -476.560233 
L 526.401245 -472.49998 
L 526.400089 -468.439726 
L 526.415543 -464.379473 
L 526.449323 -460.31922 
L 526.496343 -456.258966 
L 526.54538 -452.198713 
L 526.58399 -448.138459 
L 526.604868 -444.078206 
L 526.608597 -440.017953 
L 526.600868 -435.957699 
L 526.587557 -431.897446 
L 526.572356 -427.837192 
L 526.557623 -423.776939 
L 526.545404 -419.716686 
L 526.536578 -415.656432 
L 526.529872 -411.596179 
L 526.523261 -407.535925 
L 526.517066 -403.475672 
L 526.515371 -399.415418 
L 526.523767 -395.355165 
L 526.545122 -391.294912 
L 526.577232 -387.234658 
L 526.614616 -383.174405 
L 526.652803 -379.114151 
L 526.691254 -375.053898 
L 526.732755 -370.993645 
L 526.780183 -366.933391 
L 526.832959 -362.873138 
L 526.885552 -358.812884 
L 526.929968 -354.752631 
L 526.961597 -350.692378 
L 526.983996 -346.632124 
L 527.008233 -342.571871 
L 527.047386 -338.511617 
L 527.110503 -334.451364 
L 527.198887 -330.39111 
L 527.305017 -326.330857 
L 527.414498 -322.270604 
L 527.511552 -318.21035 
L 527.5859 -314.150097 
L 527.636948 -310.089843 
L 527.673725 -306.02959 
L 527.712479 -301.969337 
L 527.773539 -297.909083 
L 527.876925 -293.84883 
L 528.036377 -289.788576 
L 528.253719 -285.728323 
L 528.517187 -281.668069 
L 528.806556 -277.607816 
L 529.103357 -273.547563 
L 529.399046 -269.487309 
L 529.695341 -265.427056 
L 529.999349 -261.366802 
L 530.320837 -257.306549 
L 530.673533 -253.246296 
L 531.075451 -249.186042 
L 531.544886 -245.125789 
L 532.09583 -241.065535 
L 532.73902 -237.005282 
L 533.488194 -232.945029 
L 534.362651 -228.884775 
L 535.379387 -224.824522 
L 536.541874 -220.764268 
L 537.838669 -216.704015 
L 539.251348 -212.643761 
L 540.75606 -208.583508 
L 542.310346 -204.523255 
L 543.838121 -200.463001 
L 545.2318 -196.402748 
L 546.371918 -192.342494 
L 547.142724 -188.282241 
L 547.42452 -184.221988 
L 547.073051 -180.161734 
L 545.926912 -176.101481 
L 543.879347 -172.041227 
L 540.995225 -167.980974 
L 537.585282 -163.920721 
L 534.1472 -159.860467 
L 531.179093 -155.800214 
z
" style="stroke: #6d6d6d; stroke-opacity: 0.9; stroke-width: 1.25"/>
    </defs>
    <g clip-path="url(#p00212a9dfa)">
     <use xlink:href="#m3f4b540b68" x="0" y="770.479625" style="fill: #c0dca9; fill-opacity: 0.9; stroke: #6d6d6d; stroke-opacity: 0.9; stroke-width: 1.25"/>
    </g>
   </g>
   <g id="FillBetweenPolyCollection_5">
    <defs>
     <path id="m2e705de3b9" d="M 824.977292 -158.874133 
L 824.881984 -158.874133 
L 824.876387 -160.368003 
L 824.871001 -161.861874 
L 824.86589 -163.355745 
L 824.861119 -164.849616 
L 824.856746 -166.343487 
L 824.852828 -167.837358 
L 824.849417 -169.331228 
L 824.846558 -170.825099 
L 824.844289 -172.31897 
L 824.84264 -173.812841 
L 824.841632 -175.306712 
L 824.841279 -176.800582 
L 824.841582 -178.294453 
L 824.842534 -179.788324 
L 824.84412 -181.282195 
L 824.846312 -182.776066 
L 824.849078 -184.269937 
L 824.852373 -185.763807 
L 824.85615 -187.257678 
L 824.860351 -188.751549 
L 824.864917 -190.24542 
L 824.869784 -191.739291 
L 824.874886 -193.233161 
L 824.880156 -194.727032 
L 824.885527 -196.220903 
L 824.890935 -197.714774 
L 824.896319 -199.208645 
L 824.901622 -200.702515 
L 824.906792 -202.196386 
L 824.911784 -203.690257 
L 824.916556 -205.184128 
L 824.921079 -206.677999 
L 824.925325 -208.17187 
L 824.929278 -209.66574 
L 824.932926 -211.159611 
L 824.936264 -212.653482 
L 824.939296 -214.147353 
L 824.942028 -215.641224 
L 824.944472 -217.135094 
L 824.946645 -218.628965 
L 824.948565 -220.122836 
L 824.950254 -221.616707 
L 824.951736 -223.110578 
L 824.953035 -224.604449 
L 824.954174 -226.098319 
L 824.955176 -227.59219 
L 824.956065 -229.086061 
L 824.956861 -230.579932 
L 824.957583 -232.073803 
L 824.958248 -233.567673 
L 824.958871 -235.061544 
L 824.959463 -236.555415 
L 824.960036 -238.049286 
L 824.960597 -239.543157 
L 824.961152 -241.037028 
L 824.961705 -242.530898 
L 824.962258 -244.024769 
L 824.962812 -245.51864 
L 824.963365 -247.012511 
L 824.963916 -248.506382 
L 824.964462 -250.000252 
L 824.964998 -251.494123 
L 824.96552 -252.987994 
L 824.966024 -254.481865 
L 824.966505 -255.975736 
L 824.966956 -257.469607 
L 824.967373 -258.963477 
L 824.967752 -260.457348 
L 824.968087 -261.951219 
L 824.968375 -263.44509 
L 824.968612 -264.938961 
L 824.968796 -266.432831 
L 824.968926 -267.926702 
L 824.969001 -269.420573 
L 824.969022 -270.914444 
L 824.968989 -272.408315 
L 824.968906 -273.902186 
L 824.968777 -275.396056 
L 824.968605 -276.889927 
L 824.968397 -278.383798 
L 824.968159 -279.877669 
L 824.967898 -281.37154 
L 824.967621 -282.86541 
L 824.967337 -284.359281 
L 824.967053 -285.853152 
L 824.966778 -287.347023 
L 824.966519 -288.840894 
L 824.966285 -290.334765 
L 824.966082 -291.828635 
L 824.965916 -293.322506 
L 824.965794 -294.816377 
L 824.965719 -296.310248 
L 824.965695 -297.804119 
L 824.965725 -299.297989 
L 824.96581 -300.79186 
L 824.96595 -302.285731 
L 824.966145 -303.779602 
L 824.966393 -305.273473 
L 824.966691 -306.767344 
L 824.977292 -306.767344 
L 824.977292 -306.767344 
L 824.977292 -305.273473 
L 824.977292 -303.779602 
L 824.977292 -302.285731 
L 824.977292 -300.79186 
L 824.977292 -299.297989 
L 824.977292 -297.804119 
L 824.977292 -296.310248 
L 824.977292 -294.816377 
L 824.977292 -293.322506 
L 824.977292 -291.828635 
L 824.977292 -290.334765 
L 824.977292 -288.840894 
L 824.977292 -287.347023 
L 824.977292 -285.853152 
L 824.977292 -284.359281 
L 824.977292 -282.86541 
L 824.977292 -281.37154 
L 824.977292 -279.877669 
L 824.977292 -278.383798 
L 824.977292 -276.889927 
L 824.977292 -275.396056 
L 824.977292 -273.902186 
L 824.977292 -272.408315 
L 824.977292 -270.914444 
L 824.977292 -269.420573 
L 824.977292 -267.926702 
L 824.977292 -266.432831 
L 824.977292 -264.938961 
L 824.977292 -263.44509 
L 824.977292 -261.951219 
L 824.977292 -260.457348 
L 824.977292 -258.963477 
L 824.977292 -257.469607 
L 824.977292 -255.975736 
L 824.977292 -254.481865 
L 824.977292 -252.987994 
L 824.977292 -251.494123 
L 824.977292 -250.000252 
L 824.977292 -248.506382 
L 824.977292 -247.012511 
L 824.977292 -245.51864 
L 824.977292 -244.024769 
L 824.977292 -242.530898 
L 824.977292 -241.037028 
L 824.977292 -239.543157 
L 824.977292 -238.049286 
L 824.977292 -236.555415 
L 824.977292 -235.061544 
L 824.977292 -233.567673 
L 824.977292 -232.073803 
L 824.977292 -230.579932 
L 824.977292 -229.086061 
L 824.977292 -227.59219 
L 824.977292 -226.098319 
L 824.977292 -224.604449 
L 824.977292 -223.110578 
L 824.977292 -221.616707 
L 824.977292 -220.122836 
L 824.977292 -218.628965 
L 824.977292 -217.135094 
L 824.977292 -215.641224 
L 824.977292 -214.147353 
L 824.977292 -212.653482 
L 824.977292 -211.159611 
L 824.977292 -209.66574 
L 824.977292 -208.17187 
L 824.977292 -206.677999 
L 824.977292 -205.184128 
L 824.977292 -203.690257 
L 824.977292 -202.196386 
L 824.977292 -200.702515 
L 824.977292 -199.208645 
L 824.977292 -197.714774 
L 824.977292 -196.220903 
L 824.977292 -194.727032 
L 824.977292 -193.233161 
L 824.977292 -191.739291 
L 824.977292 -190.24542 
L 824.977292 -188.751549 
L 824.977292 -187.257678 
L 824.977292 -185.763807 
L 824.977292 -184.269937 
L 824.977292 -182.776066 
L 824.977292 -181.282195 
L 824.977292 -179.788324 
L 824.977292 -178.294453 
L 824.977292 -176.800582 
L 824.977292 -175.306712 
L 824.977292 -173.812841 
L 824.977292 -172.31897 
L 824.977292 -170.825099 
L 824.977292 -169.331228 
L 824.977292 -167.837358 
L 824.977292 -166.343487 
L 824.977292 -164.849616 
L 824.977292 -163.355745 
L 824.977292 -161.861874 
L 824.977292 -160.368003 
L 824.977292 -158.874133 
z
" style="stroke: #6d6d6d; stroke-opacity: 0.9; stroke-width: 1.25"/>
    </defs>
    <g clip-path="url(#p00212a9dfa)">
     <use xlink:href="#m2e705de3b9" x="0" y="770.479625" style="fill: #ecbd81; fill-opacity: 0.9; stroke: #6d6d6d; stroke-opacity: 0.9; stroke-width: 1.25"/>
    </g>
   </g>
   <g id="FillBetweenPolyCollection_6">
    <defs>
     <path id="me2f4688263" d="M 825.119668 -183.244827 
L 824.977292 -183.244827 
L 824.977292 -186.315324 
L 824.977292 -189.385821 
L 824.977292 -192.456318 
L 824.977292 -195.526815 
L 824.977292 -198.597312 
L 824.977292 -201.66781 
L 824.977292 -204.738307 
L 824.977292 -207.808804 
L 824.977292 -210.879301 
L 824.977292 -213.949798 
L 824.977292 -217.020295 
L 824.977292 -220.090792 
L 824.977292 -223.161289 
L 824.977292 -226.231786 
L 824.977292 -229.302283 
L 824.977292 -232.37278 
L 824.977292 -235.443277 
L 824.977292 -238.513774 
L 824.977292 -241.584271 
L 824.977292 -244.654768 
L 824.977292 -247.725265 
L 824.977292 -250.795762 
L 824.977292 -253.866259 
L 824.977292 -256.936756 
L 824.977292 -260.007253 
L 824.977292 -263.07775 
L 824.977292 -266.148247 
L 824.977292 -269.218744 
L 824.977292 -272.289241 
L 824.977292 -275.359738 
L 824.977292 -278.430235 
L 824.977292 -281.500732 
L 824.977292 -284.571229 
L 824.977292 -287.641726 
L 824.977292 -290.712223 
L 824.977292 -293.78272 
L 824.977292 -296.853217 
L 824.977292 -299.923714 
L 824.977292 -302.994211 
L 824.977292 -306.064708 
L 824.977292 -309.135205 
L 824.977292 -312.205702 
L 824.977292 -315.276199 
L 824.977292 -318.346696 
L 824.977292 -321.417193 
L 824.977292 -324.48769 
L 824.977292 -327.558187 
L 824.977292 -330.628684 
L 824.977292 -333.699181 
L 824.977292 -336.769678 
L 824.977292 -339.840175 
L 824.977292 -342.910672 
L 824.977292 -345.981169 
L 824.977292 -349.051666 
L 824.977292 -352.122163 
L 824.977292 -355.19266 
L 824.977292 -358.263157 
L 824.977292 -361.333654 
L 824.977292 -364.404151 
L 824.977292 -367.474649 
L 824.977292 -370.545146 
L 824.977292 -373.615643 
L 824.977292 -376.68614 
L 824.977292 -379.756637 
L 824.977292 -382.827134 
L 824.977292 -385.897631 
L 824.977292 -388.968128 
L 824.977292 -392.038625 
L 824.977292 -395.109122 
L 824.977292 -398.179619 
L 824.977292 -401.250116 
L 824.977292 -404.320613 
L 824.977292 -407.39111 
L 824.977292 -410.461607 
L 824.977292 -413.532104 
L 824.977292 -416.602601 
L 824.977292 -419.673098 
L 824.977292 -422.743595 
L 824.977292 -425.814092 
L 824.977292 -428.884589 
L 824.977292 -431.955086 
L 824.977292 -435.025583 
L 824.977292 -438.09608 
L 824.977292 -441.166577 
L 824.977292 -444.237074 
L 824.977292 -447.307571 
L 824.977292 -450.378068 
L 824.977292 -453.448565 
L 824.977292 -456.519062 
L 824.977292 -459.589559 
L 824.977292 -462.660056 
L 824.977292 -465.730553 
L 824.977292 -468.80105 
L 824.977292 -471.871547 
L 824.977292 -474.942044 
L 824.977292 -478.012541 
L 824.977292 -481.083038 
L 824.977292 -484.153535 
L 824.977292 -487.224032 
L 825.065563 -487.224032 
L 825.065563 -487.224032 
L 825.09348 -484.153535 
L 825.126958 -481.083038 
L 825.165644 -478.012541 
L 825.208456 -474.942044 
L 825.253508 -471.871547 
L 825.298189 -468.80105 
L 825.339396 -465.730553 
L 825.373907 -462.660056 
L 825.398805 -459.589559 
L 825.411889 -456.519062 
L 825.411973 -453.448565 
L 825.399059 -450.378068 
L 825.374334 -447.307571 
L 825.340032 -444.237074 
L 825.29916 -441.166577 
L 825.25513 -438.09608 
L 825.211342 -435.025583 
L 825.170776 -431.955086 
L 825.135656 -428.884589 
L 825.107253 -425.814092 
L 825.085863 -422.743595 
L 825.07096 -419.673098 
L 825.061484 -416.602601 
L 825.056176 -413.532104 
L 825.053905 -410.461607 
L 825.053877 -407.39111 
L 825.055733 -404.320613 
L 825.059506 -401.250116 
L 825.065503 -398.179619 
L 825.07416 -395.109122 
L 825.085923 -392.038625 
L 825.101194 -388.968128 
L 825.120333 -385.897631 
L 825.143696 -382.827134 
L 825.17166 -379.756637 
L 825.20461 -376.68614 
L 825.242866 -373.615643 
L 825.286583 -370.545146 
L 825.335658 -367.474649 
L 825.389711 -364.404151 
L 825.448161 -361.333654 
L 825.510399 -358.263157 
L 825.576 -355.19266 
L 825.644912 -352.122163 
L 825.71753 -349.051666 
L 825.794647 -345.981169 
L 825.877254 -342.910672 
L 825.966281 -339.840175 
L 826.062325 -336.769678 
L 826.165448 -333.699181 
L 826.275097 -330.628684 
L 826.390149 -327.558187 
L 826.509102 -324.48769 
L 826.630362 -321.417193 
L 826.752596 -318.346696 
L 826.875056 -315.276199 
L 826.997822 -312.205702 
L 827.121856 -309.135205 
L 827.248868 -306.064708 
L 827.380987 -302.994211 
L 827.52031 -299.923714 
L 827.66841 -296.853217 
L 827.825892 -293.78272 
L 827.992046 -290.712223 
L 828.164634 -287.641726 
L 828.339849 -284.571229 
L 828.512456 -281.500732 
L 828.67614 -278.430235 
L 828.82404 -275.359738 
L 828.94942 -272.289241 
L 829.04638 -269.218744 
L 829.110501 -266.148247 
L 829.139291 -263.07775 
L 829.132367 -260.007253 
L 829.091311 -256.936756 
L 829.019227 -253.866259 
L 828.920065 -250.795762 
L 828.797841 -247.725265 
L 828.655921 -244.654768 
L 828.496549 -241.584271 
L 828.320739 -238.513774 
L 828.128582 -235.443277 
L 827.919901 -232.37278 
L 827.695076 -229.302283 
L 827.45581 -226.231786 
L 827.205597 -223.161289 
L 826.949739 -220.090792 
L 826.694874 -217.020295 
L 826.448145 -213.949798 
L 826.216229 -210.879301 
L 826.004475 -207.808804 
L 825.816363 -204.738307 
L 825.653362 -201.66781 
L 825.515152 -198.597312 
L 825.400087 -195.526815 
L 825.305725 -192.456318 
L 825.229312 -189.385821 
L 825.168125 -186.315324 
L 825.119668 -183.244827 
z
" style="stroke: #6d6d6d; stroke-opacity: 0.9; stroke-width: 1.25"/>
    </defs>
    <g clip-path="url(#p00212a9dfa)">
     <use xlink:href="#me2f4688263" x="0" y="770.479625" style="fill: #c0dca9; fill-opacity: 0.9; stroke: #6d6d6d; stroke-opacity: 0.9; stroke-width: 1.25"/>
    </g>
   </g>
   <g id="patch_3">
    <path d="M 227.607958 621.417525 
L 227.607958 621.417525 
L 227.607958 621.417525 
L 227.607958 621.417525 
z
" clip-path="url(#p00212a9dfa)" style="fill: #ecbd81; opacity: 0.9; stroke: #6d6d6d; stroke-width: 1.25; stroke-linejoin: miter"/>
   </g>
   <g id="patch_4">
    <path d="M 227.607958 621.417525 
L 227.607958 621.417525 
L 227.607958 621.417525 
L 227.607958 621.417525 
z
" clip-path="url(#p00212a9dfa)" style="fill: #c0dca9; opacity: 0.9; stroke: #6d6d6d; stroke-width: 1.25; stroke-linejoin: miter"/>
   </g>
   <g id="line2d_10">
    <path d="M 224.795458 617.709528 
L 224.795458 197.989921 
" clip-path="url(#p00212a9dfa)" style="fill: none; stroke: #6d6d6d; stroke-width: 1.875; stroke-linecap: round"/>
   </g>
   <g id="line2d_11">
    <path d="M 224.795458 538.957858 
L 224.795458 402.511552 
" clip-path="url(#p00212a9dfa)" style="fill: none; stroke: #6d6d6d; stroke-width: 5.625; stroke-linecap: round"/>
   </g>
   <g id="line2d_12">
    <path d="M 224.795458 482.015396 
" clip-path="url(#p00212a9dfa)" style="fill: none; stroke: #6d6d6d; stroke-width: 1.5; stroke-linecap: round"/>
    <defs>
     <path id="mb56f86aa4b" d="M 2.34375 0 
L -2.34375 -0 
" style="stroke: #ffffff; stroke-width: 1.125"/>
    </defs>
    <g clip-path="url(#p00212a9dfa)">
     <use xlink:href="#mb56f86aa4b" x="224.795458" y="482.015396" style="fill: #ffffff; stroke: #ffffff; stroke-width: 1.125"/>
    </g>
   </g>
   <g id="line2d_13">
    <path d="M 230.420458 615.2497 
L 230.420458 357.623772 
" clip-path="url(#p00212a9dfa)" style="fill: none; stroke: #6d6d6d; stroke-width: 1.875; stroke-linecap: round"/>
   </g>
   <g id="line2d_14">
    <path d="M 230.420458 571.263798 
L 230.420458 485.758841 
" clip-path="url(#p00212a9dfa)" style="fill: none; stroke: #6d6d6d; stroke-width: 5.625; stroke-linecap: round"/>
   </g>
   <g id="line2d_15">
    <path d="M 230.420458 540.798793 
" clip-path="url(#p00212a9dfa)" style="fill: none; stroke: #6d6d6d; stroke-width: 1.5; stroke-linecap: round"/>
    <g clip-path="url(#p00212a9dfa)">
     <use xlink:href="#mb56f86aa4b" x="230.420458" y="540.798793" style="fill: #ffffff; stroke: #ffffff; stroke-width: 1.125"/>
    </g>
   </g>
   <g id="line2d_16">
    <path d="M 523.480125 615.317679 
L 523.480125 490.61869 
" clip-path="url(#p00212a9dfa)" style="fill: none; stroke: #6d6d6d; stroke-width: 1.875; stroke-linecap: round"/>
   </g>
   <g id="line2d_17">
    <path d="M 523.480125 595.358669 
L 523.480125 553.447121 
" clip-path="url(#p00212a9dfa)" style="fill: none; stroke: #6d6d6d; stroke-width: 5.625; stroke-linecap: round"/>
   </g>
   <g id="line2d_18">
    <path d="M 523.480125 579.61635 
" clip-path="url(#p00212a9dfa)" style="fill: none; stroke: #6d6d6d; stroke-width: 1.5; stroke-linecap: round"/>
    <g clip-path="url(#p00212a9dfa)">
     <use xlink:href="#mb56f86aa4b" x="523.480125" y="579.61635" style="fill: #ffffff; stroke: #ffffff; stroke-width: 1.125"/>
    </g>
   </g>
   <g id="line2d_19">
    <path d="M 529.105125 614.679411 
L 529.105125 475.32138 
" clip-path="url(#p00212a9dfa)" style="fill: none; stroke: #6d6d6d; stroke-width: 1.875; stroke-linecap: round"/>
   </g>
   <g id="line2d_20">
    <path d="M 529.105125 589.832775 
L 529.105125 543.980898 
" clip-path="url(#p00212a9dfa)" style="fill: none; stroke: #6d6d6d; stroke-width: 5.625; stroke-linecap: round"/>
   </g>
   <g id="line2d_21">
    <path d="M 529.105125 572.654328 
" clip-path="url(#p00212a9dfa)" style="fill: none; stroke: #6d6d6d; stroke-width: 1.5; stroke-linecap: round"/>
    <g clip-path="url(#p00212a9dfa)">
     <use xlink:href="#mb56f86aa4b" x="529.105125" y="572.654328" style="fill: #ffffff; stroke: #ffffff; stroke-width: 1.125"/>
    </g>
   </g>
   <g id="line2d_22">
    <path d="M 822.164792 611.605492 
L 822.164792 574.559135 
" clip-path="url(#p00212a9dfa)" style="fill: none; stroke: #6d6d6d; stroke-width: 1.875; stroke-linecap: round"/>
   </g>
   <g id="line2d_23">
    <path d="M 822.164792 600.891164 
L 822.164792 582.94295 
" clip-path="url(#p00212a9dfa)" style="fill: none; stroke: #6d6d6d; stroke-width: 5.625; stroke-linecap: round"/>
   </g>
   <g id="line2d_24">
    <path d="M 822.164792 591.011901 
" clip-path="url(#p00212a9dfa)" style="fill: none; stroke: #6d6d6d; stroke-width: 1.5; stroke-linecap: round"/>
    <g clip-path="url(#p00212a9dfa)">
     <use xlink:href="#mb56f86aa4b" x="822.164792" y="591.011901" style="fill: #ffffff; stroke: #ffffff; stroke-width: 1.125"/>
    </g>
   </g>
   <g id="line2d_25">
    <path d="M 827.789792 587.234798 
L 827.789792 388.221637 
" clip-path="url(#p00212a9dfa)" style="fill: none; stroke: #6d6d6d; stroke-width: 1.875; stroke-linecap: round"/>
   </g>
   <g id="line2d_26">
    <path d="M 827.789792 523.981798 
L 827.789792 468.556518 
" clip-path="url(#p00212a9dfa)" style="fill: none; stroke: #6d6d6d; stroke-width: 5.625; stroke-linecap: round"/>
   </g>
   <g id="line2d_27">
    <path d="M 827.789792 499.866308 
" clip-path="url(#p00212a9dfa)" style="fill: none; stroke: #6d6d6d; stroke-width: 1.5; stroke-linecap: round"/>
    <g clip-path="url(#p00212a9dfa)">
     <use xlink:href="#mb56f86aa4b" x="827.789792" y="499.866308" style="fill: #ffffff; stroke: #ffffff; stroke-width: 1.125"/>
    </g>
   </g>
   <g id="patch_5">
    <path d="M 78.265625 644.762438 
L 78.265625 49.598438 
" style="fill: none; stroke: #cccccc; stroke-width: 1.25; stroke-linejoin: miter; stroke-linecap: square"/>
   </g>
   <g id="patch_6">
    <path d="M 974.319625 644.762438 
L 974.319625 49.598438 
" style="fill: none; stroke: #cccccc; stroke-width: 1.25; stroke-linejoin: miter; stroke-linecap: square"/>
   </g>
   <g id="patch_7">
    <path d="M 78.265625 644.762438 
L 974.319625 644.762438 
" style="fill: none; stroke: #cccccc; stroke-width: 1.25; stroke-linejoin: miter; stroke-linecap: square"/>
   </g>
   <g id="patch_8">
    <path d="M 78.265625 49.598438 
L 974.319625 49.598438 
" style="fill: none; stroke: #cccccc; stroke-width: 1.25; stroke-linejoin: miter; stroke-linecap: square"/>
   </g>
   <g id="text_15">
    <text style="font-size: 10px; font-family: 'Arial', 'DejaVu Sans', 'Liberation Sans', 'Bitstream Vera Sans', sans-serif; text-anchor: middle; fill: #262626" x="526.292625" y="43.598438" transform="rotate(-0 526.292625 43.598438)">Split violin plot of distances by Level One Cell Type (Density Normalization: count)</text>
   </g>
   <g id="legend_1">
    <g id="patch_9">
     <path d="M 982.6871 86.954688 
L 1101.727725 86.954688 
Q 1103.727725 86.954688 1103.727725 84.954688 
L 1103.727725 56.598438 
Q 1103.727725 54.598438 1101.727725 54.598438 
L 982.6871 54.598438 
Q 980.6871 54.598438 980.6871 56.598438 
L 980.6871 84.954688 
Q 980.6871 86.954688 982.6871 86.954688 
z
" style="fill: #ffffff; opacity: 0.8; stroke: #cccccc; stroke-width: 0.8; stroke-linejoin: miter"/>
    </g>
    <g id="patch_10">
     <path d="M 984.6871 66.196875 
L 1004.6871 66.196875 
L 1004.6871 59.196875 
L 984.6871 59.196875 
z
" style="fill: #ecbd81; opacity: 0.9; stroke: #6d6d6d; stroke-width: 1.25; stroke-linejoin: miter"/>
    </g>
    <g id="text_16">
     <text style="font-size: 10px; font-family: 'Arial', 'DejaVu Sans', 'Liberation Sans', 'Bitstream Vera Sans', sans-serif; text-anchor: start; fill: #262626" x="1012.6871" y="66.196875" transform="rotate(-0 1012.6871 66.196875)">Invasive Margin</text>
    </g>
    <g id="patch_11">
     <path d="M 984.6871 80.875 
L 1004.6871 80.875 
L 1004.6871 73.875 
L 984.6871 73.875 
z
" style="fill: #c0dca9; opacity: 0.9; stroke: #6d6d6d; stroke-width: 1.25; stroke-linejoin: miter"/>
    </g>
    <g id="text_17">
     <text style="font-size: 10px; font-family: 'Arial', 'DejaVu Sans', 'Liberation Sans', 'Bitstream Vera Sans', sans-serif; text-anchor: start; fill: #262626" x="1012.6871" y="80.875" transform="rotate(-0 1012.6871 80.875)">Melanoma In Situ</text>
    </g>
   </g>
  </g>
 </g>
 <defs>
  <clipPath id="p00212a9dfa">
   <rect x="78.265625" y="49.598438" width="896.054" height="595.164"/>
  </clipPath>
 </defs>
</svg>
