<?xml version="1.0" encoding="utf-8" standalone="no"?>
<!DOCTYPE svg PUBLIC "-//W3C//DTD SVG 1.1//EN"
  "http://www.w3.org/Graphics/SVG/1.1/DTD/svg11.dtd">
<svg xmlns:xlink="http://www.w3.org/1999/xlink" width="1202.852375pt" height="626.318063pt" viewBox="0 0 1202.852375 626.318063" xmlns="http://www.w3.org/2000/svg" version="1.1">
 <metadata>
  <rdf:RDF xmlns:dc="http://purl.org/dc/elements/1.1/" xmlns:cc="http://creativecommons.org/ns#" xmlns:rdf="http://www.w3.org/1999/02/22-rdf-syntax-ns#">
   <cc:Work>
    <dc:type rdf:resource="http://purl.org/dc/dcmitype/StillImage"/>
    <dc:date>2025-07-02T16:23:52.783995</dc:date>
    <dc:format>image/svg+xml</dc:format>
    <dc:creator>
     <cc:Agent>
      <dc:title>Matplotlib v3.10.3, https://matplotlib.org/</dc:title>
     </cc:Agent>
    </dc:creator>
   </cc:Work>
  </rdf:RDF>
 </metadata>
 <defs>
  <style type="text/css">*{stroke-linejoin: round; stroke-linecap: butt}</style>
 </defs>
 <g id="figure_1">
  <g id="patch_1">
   <path d="M 0 626.318063 
L 1202.852375 626.318063 
L 1202.852375 0 
L 0 0 
z
" style="fill: #ffffff"/>
  </g>
  <g id="axes_1">
   <g id="patch_2">
    <path d="M 70.703125 505.652438 
L 1087.347125 505.652438 
L 1087.347125 49.598438 
L 70.703125 49.598438 
z
" style="fill: #ffffff"/>
   </g>
   <g id="matplotlib.axis_1">
    <g id="xtick_1">
     <g id="text_1">
      <!-- t cell -->
      <g style="fill: #262626" transform="translate(238.064104 538.258688) rotate(-90) scale(0.1 -0.1)">
       <defs>
        <path id="DejaVuSans-74" d="M 1172 4494 
L 1172 3500 
L 2356 3500 
L 2356 3053 
L 1172 3053 
L 1172 1153 
Q 1172 725 1289 603 
Q 1406 481 1766 481 
L 2356 481 
L 2356 0 
L 1766 0 
Q 1100 0 847 248 
Q 594 497 594 1153 
L 594 3053 
L 172 3053 
L 172 3500 
L 594 3500 
L 594 4494 
L 1172 4494 
z
" transform="scale(0.015625)"/>
        <path id="DejaVuSans-20" transform="scale(0.015625)"/>
        <path id="DejaVuSans-63" d="M 3122 3366 
L 3122 2828 
Q 2878 2963 2633 3030 
Q 2388 3097 2138 3097 
Q 1578 3097 1268 2742 
Q 959 2388 959 1747 
Q 959 1106 1268 751 
Q 1578 397 2138 397 
Q 2388 397 2633 464 
Q 2878 531 3122 666 
L 3122 134 
Q 2881 22 2623 -34 
Q 2366 -91 2075 -91 
Q 1284 -91 818 406 
Q 353 903 353 1747 
Q 353 2603 823 3093 
Q 1294 3584 2113 3584 
Q 2378 3584 2631 3529 
Q 2884 3475 3122 3366 
z
" transform="scale(0.015625)"/>
        <path id="DejaVuSans-65" d="M 3597 1894 
L 3597 1613 
L 953 1613 
Q 991 1019 1311 708 
Q 1631 397 2203 397 
Q 2534 397 2845 478 
Q 3156 559 3463 722 
L 3463 178 
Q 3153 47 2828 -22 
Q 2503 -91 2169 -91 
Q 1331 -91 842 396 
Q 353 884 353 1716 
Q 353 2575 817 3079 
Q 1281 3584 2069 3584 
Q 2775 3584 3186 3129 
Q 3597 2675 3597 1894 
z
M 3022 2063 
Q 3016 2534 2758 2815 
Q 2500 3097 2075 3097 
Q 1594 3097 1305 2825 
Q 1016 2553 972 2059 
L 3022 2063 
z
" transform="scale(0.015625)"/>
        <path id="DejaVuSans-6c" d="M 603 4863 
L 1178 4863 
L 1178 0 
L 603 0 
L 603 4863 
z
" transform="scale(0.015625)"/>
       </defs>
       <use xlink:href="#DejaVuSans-74"/>
       <use xlink:href="#DejaVuSans-20" transform="translate(39.208984 0)"/>
       <use xlink:href="#DejaVuSans-63" transform="translate(70.996094 0)"/>
       <use xlink:href="#DejaVuSans-65" transform="translate(125.976562 0)"/>
       <use xlink:href="#DejaVuSans-6c" transform="translate(187.5 0)"/>
       <use xlink:href="#DejaVuSans-6c" transform="translate(215.283203 0)"/>
      </g>
     </g>
    </g>
    <g id="xtick_2">
     <g id="text_2">
      <!-- macrophage -->
      <g style="fill: #262626" transform="translate(576.945438 576.639938) rotate(-90) scale(0.1 -0.1)">
       <defs>
        <path id="DejaVuSans-6d" d="M 3328 2828 
Q 3544 3216 3844 3400 
Q 4144 3584 4550 3584 
Q 5097 3584 5394 3201 
Q 5691 2819 5691 2113 
L 5691 0 
L 5113 0 
L 5113 2094 
Q 5113 2597 4934 2840 
Q 4756 3084 4391 3084 
Q 3944 3084 3684 2787 
Q 3425 2491 3425 1978 
L 3425 0 
L 2847 0 
L 2847 2094 
Q 2847 2600 2669 2842 
Q 2491 3084 2119 3084 
Q 1678 3084 1418 2786 
Q 1159 2488 1159 1978 
L 1159 0 
L 581 0 
L 581 3500 
L 1159 3500 
L 1159 2956 
Q 1356 3278 1631 3431 
Q 1906 3584 2284 3584 
Q 2666 3584 2933 3390 
Q 3200 3197 3328 2828 
z
" transform="scale(0.015625)"/>
        <path id="DejaVuSans-61" d="M 2194 1759 
Q 1497 1759 1228 1600 
Q 959 1441 959 1056 
Q 959 750 1161 570 
Q 1363 391 1709 391 
Q 2188 391 2477 730 
Q 2766 1069 2766 1631 
L 2766 1759 
L 2194 1759 
z
M 3341 1997 
L 3341 0 
L 2766 0 
L 2766 531 
Q 2569 213 2275 61 
Q 1981 -91 1556 -91 
Q 1019 -91 701 211 
Q 384 513 384 1019 
Q 384 1609 779 1909 
Q 1175 2209 1959 2209 
L 2766 2209 
L 2766 2266 
Q 2766 2663 2505 2880 
Q 2244 3097 1772 3097 
Q 1472 3097 1187 3025 
Q 903 2953 641 2809 
L 641 3341 
Q 956 3463 1253 3523 
Q 1550 3584 1831 3584 
Q 2591 3584 2966 3190 
Q 3341 2797 3341 1997 
z
" transform="scale(0.015625)"/>
        <path id="DejaVuSans-72" d="M 2631 2963 
Q 2534 3019 2420 3045 
Q 2306 3072 2169 3072 
Q 1681 3072 1420 2755 
Q 1159 2438 1159 1844 
L 1159 0 
L 581 0 
L 581 3500 
L 1159 3500 
L 1159 2956 
Q 1341 3275 1631 3429 
Q 1922 3584 2338 3584 
Q 2397 3584 2469 3576 
Q 2541 3569 2628 3553 
L 2631 2963 
z
" transform="scale(0.015625)"/>
        <path id="DejaVuSans-6f" d="M 1959 3097 
Q 1497 3097 1228 2736 
Q 959 2375 959 1747 
Q 959 1119 1226 758 
Q 1494 397 1959 397 
Q 2419 397 2687 759 
Q 2956 1122 2956 1747 
Q 2956 2369 2687 2733 
Q 2419 3097 1959 3097 
z
M 1959 3584 
Q 2709 3584 3137 3096 
Q 3566 2609 3566 1747 
Q 3566 888 3137 398 
Q 2709 -91 1959 -91 
Q 1206 -91 779 398 
Q 353 888 353 1747 
Q 353 2609 779 3096 
Q 1206 3584 1959 3584 
z
" transform="scale(0.015625)"/>
        <path id="DejaVuSans-70" d="M 1159 525 
L 1159 -1331 
L 581 -1331 
L 581 3500 
L 1159 3500 
L 1159 2969 
Q 1341 3281 1617 3432 
Q 1894 3584 2278 3584 
Q 2916 3584 3314 3078 
Q 3713 2572 3713 1747 
Q 3713 922 3314 415 
Q 2916 -91 2278 -91 
Q 1894 -91 1617 61 
Q 1341 213 1159 525 
z
M 3116 1747 
Q 3116 2381 2855 2742 
Q 2594 3103 2138 3103 
Q 1681 3103 1420 2742 
Q 1159 2381 1159 1747 
Q 1159 1113 1420 752 
Q 1681 391 2138 391 
Q 2594 391 2855 752 
Q 3116 1113 3116 1747 
z
" transform="scale(0.015625)"/>
        <path id="DejaVuSans-68" d="M 3513 2113 
L 3513 0 
L 2938 0 
L 2938 2094 
Q 2938 2591 2744 2837 
Q 2550 3084 2163 3084 
Q 1697 3084 1428 2787 
Q 1159 2491 1159 1978 
L 1159 0 
L 581 0 
L 581 4863 
L 1159 4863 
L 1159 2956 
Q 1366 3272 1645 3428 
Q 1925 3584 2291 3584 
Q 2894 3584 3203 3211 
Q 3513 2838 3513 2113 
z
" transform="scale(0.015625)"/>
        <path id="DejaVuSans-67" d="M 2906 1791 
Q 2906 2416 2648 2759 
Q 2391 3103 1925 3103 
Q 1463 3103 1205 2759 
Q 947 2416 947 1791 
Q 947 1169 1205 825 
Q 1463 481 1925 481 
Q 2391 481 2648 825 
Q 2906 1169 2906 1791 
z
M 3481 434 
Q 3481 -459 3084 -895 
Q 2688 -1331 1869 -1331 
Q 1566 -1331 1297 -1286 
Q 1028 -1241 775 -1147 
L 775 -588 
Q 1028 -725 1275 -790 
Q 1522 -856 1778 -856 
Q 2344 -856 2625 -561 
Q 2906 -266 2906 331 
L 2906 616 
Q 2728 306 2450 153 
Q 2172 0 1784 0 
Q 1141 0 747 490 
Q 353 981 353 1791 
Q 353 2603 747 3093 
Q 1141 3584 1784 3584 
Q 2172 3584 2450 3431 
Q 2728 3278 2906 2969 
L 2906 3500 
L 3481 3500 
L 3481 434 
z
" transform="scale(0.015625)"/>
       </defs>
       <use xlink:href="#DejaVuSans-6d"/>
       <use xlink:href="#DejaVuSans-61" transform="translate(97.412109 0)"/>
       <use xlink:href="#DejaVuSans-63" transform="translate(158.691406 0)"/>
       <use xlink:href="#DejaVuSans-72" transform="translate(213.671875 0)"/>
       <use xlink:href="#DejaVuSans-6f" transform="translate(252.535156 0)"/>
       <use xlink:href="#DejaVuSans-70" transform="translate(313.716797 0)"/>
       <use xlink:href="#DejaVuSans-68" transform="translate(377.193359 0)"/>
       <use xlink:href="#DejaVuSans-61" transform="translate(440.572266 0)"/>
       <use xlink:href="#DejaVuSans-67" transform="translate(501.851562 0)"/>
       <use xlink:href="#DejaVuSans-65" transform="translate(565.328125 0)"/>
      </g>
     </g>
    </g>
    <g id="xtick_3">
     <g id="text_3">
      <!-- keratinocyte -->
      <g style="fill: #262626" transform="translate(915.826771 576.418063) rotate(-90) scale(0.1 -0.1)">
       <defs>
        <path id="DejaVuSans-6b" d="M 581 4863 
L 1159 4863 
L 1159 1991 
L 2875 3500 
L 3609 3500 
L 1753 1863 
L 3688 0 
L 2938 0 
L 1159 1709 
L 1159 0 
L 581 0 
L 581 4863 
z
" transform="scale(0.015625)"/>
        <path id="DejaVuSans-69" d="M 603 3500 
L 1178 3500 
L 1178 0 
L 603 0 
L 603 3500 
z
M 603 4863 
L 1178 4863 
L 1178 4134 
L 603 4134 
L 603 4863 
z
" transform="scale(0.015625)"/>
        <path id="DejaVuSans-6e" d="M 3513 2113 
L 3513 0 
L 2938 0 
L 2938 2094 
Q 2938 2591 2744 2837 
Q 2550 3084 2163 3084 
Q 1697 3084 1428 2787 
Q 1159 2491 1159 1978 
L 1159 0 
L 581 0 
L 581 3500 
L 1159 3500 
L 1159 2956 
Q 1366 3272 1645 3428 
Q 1925 3584 2291 3584 
Q 2894 3584 3203 3211 
Q 3513 2838 3513 2113 
z
" transform="scale(0.015625)"/>
        <path id="DejaVuSans-79" d="M 2059 -325 
Q 1816 -950 1584 -1140 
Q 1353 -1331 966 -1331 
L 506 -1331 
L 506 -850 
L 844 -850 
Q 1081 -850 1212 -737 
Q 1344 -625 1503 -206 
L 1606 56 
L 191 3500 
L 800 3500 
L 1894 763 
L 2988 3500 
L 3597 3500 
L 2059 -325 
z
" transform="scale(0.015625)"/>
       </defs>
       <use xlink:href="#DejaVuSans-6b"/>
       <use xlink:href="#DejaVuSans-65" transform="translate(54.285156 0)"/>
       <use xlink:href="#DejaVuSans-72" transform="translate(115.808594 0)"/>
       <use xlink:href="#DejaVuSans-61" transform="translate(156.921875 0)"/>
       <use xlink:href="#DejaVuSans-74" transform="translate(218.201172 0)"/>
       <use xlink:href="#DejaVuSans-69" transform="translate(257.410156 0)"/>
       <use xlink:href="#DejaVuSans-6e" transform="translate(285.193359 0)"/>
       <use xlink:href="#DejaVuSans-6f" transform="translate(348.572266 0)"/>
       <use xlink:href="#DejaVuSans-63" transform="translate(409.753906 0)"/>
       <use xlink:href="#DejaVuSans-79" transform="translate(464.734375 0)"/>
       <use xlink:href="#DejaVuSans-74" transform="translate(523.914062 0)"/>
       <use xlink:href="#DejaVuSans-65" transform="translate(563.123047 0)"/>
      </g>
     </g>
    </g>
    <g id="text_4">
     <!-- Level Two Cell Type -->
     <g style="fill: #262626" transform="translate(530.851688 588.238375) scale(0.1 -0.1)">
      <defs>
       <path id="DejaVuSans-4c" d="M 628 4666 
L 1259 4666 
L 1259 531 
L 3531 531 
L 3531 0 
L 628 0 
L 628 4666 
z
" transform="scale(0.015625)"/>
       <path id="DejaVuSans-76" d="M 191 3500 
L 800 3500 
L 1894 563 
L 2988 3500 
L 3597 3500 
L 2284 0 
L 1503 0 
L 191 3500 
z
" transform="scale(0.015625)"/>
       <path id="DejaVuSans-54" d="M -19 4666 
L 3928 4666 
L 3928 4134 
L 2272 4134 
L 2272 0 
L 1638 0 
L 1638 4134 
L -19 4134 
L -19 4666 
z
" transform="scale(0.015625)"/>
       <path id="DejaVuSans-77" d="M 269 3500 
L 844 3500 
L 1563 769 
L 2278 3500 
L 2956 3500 
L 3675 769 
L 4391 3500 
L 4966 3500 
L 4050 0 
L 3372 0 
L 2619 2869 
L 1863 0 
L 1184 0 
L 269 3500 
z
" transform="scale(0.015625)"/>
       <path id="DejaVuSans-43" d="M 4122 4306 
L 4122 3641 
Q 3803 3938 3442 4084 
Q 3081 4231 2675 4231 
Q 1875 4231 1450 3742 
Q 1025 3253 1025 2328 
Q 1025 1406 1450 917 
Q 1875 428 2675 428 
Q 3081 428 3442 575 
Q 3803 722 4122 1019 
L 4122 359 
Q 3791 134 3420 21 
Q 3050 -91 2638 -91 
Q 1578 -91 968 557 
Q 359 1206 359 2328 
Q 359 3453 968 4101 
Q 1578 4750 2638 4750 
Q 3056 4750 3426 4639 
Q 3797 4528 4122 4306 
z
" transform="scale(0.015625)"/>
      </defs>
      <use xlink:href="#DejaVuSans-4c"/>
      <use xlink:href="#DejaVuSans-65" transform="translate(53.962891 0)"/>
      <use xlink:href="#DejaVuSans-76" transform="translate(115.486328 0)"/>
      <use xlink:href="#DejaVuSans-65" transform="translate(174.666016 0)"/>
      <use xlink:href="#DejaVuSans-6c" transform="translate(236.189453 0)"/>
      <use xlink:href="#DejaVuSans-20" transform="translate(263.972656 0)"/>
      <use xlink:href="#DejaVuSans-54" transform="translate(295.759766 0)"/>
      <use xlink:href="#DejaVuSans-77" transform="translate(340.34375 0)"/>
      <use xlink:href="#DejaVuSans-6f" transform="translate(422.130859 0)"/>
      <use xlink:href="#DejaVuSans-20" transform="translate(483.3125 0)"/>
      <use xlink:href="#DejaVuSans-43" transform="translate(515.099609 0)"/>
      <use xlink:href="#DejaVuSans-65" transform="translate(584.923828 0)"/>
      <use xlink:href="#DejaVuSans-6c" transform="translate(646.447266 0)"/>
      <use xlink:href="#DejaVuSans-6c" transform="translate(674.230469 0)"/>
      <use xlink:href="#DejaVuSans-20" transform="translate(702.013672 0)"/>
      <use xlink:href="#DejaVuSans-54" transform="translate(733.800781 0)"/>
      <use xlink:href="#DejaVuSans-79" transform="translate(779.259766 0)"/>
      <use xlink:href="#DejaVuSans-70" transform="translate(838.439453 0)"/>
      <use xlink:href="#DejaVuSans-65" transform="translate(901.916016 0)"/>
     </g>
    </g>
   </g>
   <g id="matplotlib.axis_2">
    <g id="ytick_1">
     <g id="line2d_1">
      <path d="M 70.703125 484.92271 
L 1087.347125 484.92271 
" clip-path="url(#p5b66844cfd)" style="fill: none; stroke: #cccccc; stroke-width: 0.8; stroke-linecap: round"/>
     </g>
     <g id="text_5">
      <!-- 0 -->
      <g style="fill: #262626" transform="translate(56.040625 488.721929) scale(0.1 -0.1)">
       <defs>
        <path id="DejaVuSans-30" d="M 2034 4250 
Q 1547 4250 1301 3770 
Q 1056 3291 1056 2328 
Q 1056 1369 1301 889 
Q 1547 409 2034 409 
Q 2525 409 2770 889 
Q 3016 1369 3016 2328 
Q 3016 3291 2770 3770 
Q 2525 4250 2034 4250 
z
M 2034 4750 
Q 2819 4750 3233 4129 
Q 3647 3509 3647 2328 
Q 3647 1150 3233 529 
Q 2819 -91 2034 -91 
Q 1250 -91 836 529 
Q 422 1150 422 2328 
Q 422 3509 836 4129 
Q 1250 4750 2034 4750 
z
" transform="scale(0.015625)"/>
       </defs>
       <use xlink:href="#DejaVuSans-30"/>
      </g>
     </g>
    </g>
    <g id="ytick_2">
     <g id="line2d_2">
      <path d="M 70.703125 387.307997 
L 1087.347125 387.307997 
" clip-path="url(#p5b66844cfd)" style="fill: none; stroke: #cccccc; stroke-width: 0.8; stroke-linecap: round"/>
     </g>
     <g id="text_6">
      <!-- 20 -->
      <g style="fill: #262626" transform="translate(49.678125 391.107216) scale(0.1 -0.1)">
       <defs>
        <path id="DejaVuSans-32" d="M 1228 531 
L 3431 531 
L 3431 0 
L 469 0 
L 469 531 
Q 828 903 1448 1529 
Q 2069 2156 2228 2338 
Q 2531 2678 2651 2914 
Q 2772 3150 2772 3378 
Q 2772 3750 2511 3984 
Q 2250 4219 1831 4219 
Q 1534 4219 1204 4116 
Q 875 4013 500 3803 
L 500 4441 
Q 881 4594 1212 4672 
Q 1544 4750 1819 4750 
Q 2544 4750 2975 4387 
Q 3406 4025 3406 3419 
Q 3406 3131 3298 2873 
Q 3191 2616 2906 2266 
Q 2828 2175 2409 1742 
Q 1991 1309 1228 531 
z
" transform="scale(0.015625)"/>
       </defs>
       <use xlink:href="#DejaVuSans-32"/>
       <use xlink:href="#DejaVuSans-30" transform="translate(63.623047 0)"/>
      </g>
     </g>
    </g>
    <g id="ytick_3">
     <g id="line2d_3">
      <path d="M 70.703125 289.693284 
L 1087.347125 289.693284 
" clip-path="url(#p5b66844cfd)" style="fill: none; stroke: #cccccc; stroke-width: 0.8; stroke-linecap: round"/>
     </g>
     <g id="text_7">
      <!-- 40 -->
      <g style="fill: #262626" transform="translate(49.678125 293.492503) scale(0.1 -0.1)">
       <defs>
        <path id="DejaVuSans-34" d="M 2419 4116 
L 825 1625 
L 2419 1625 
L 2419 4116 
z
M 2253 4666 
L 3047 4666 
L 3047 1625 
L 3713 1625 
L 3713 1100 
L 3047 1100 
L 3047 0 
L 2419 0 
L 2419 1100 
L 313 1100 
L 313 1709 
L 2253 4666 
z
" transform="scale(0.015625)"/>
       </defs>
       <use xlink:href="#DejaVuSans-34"/>
       <use xlink:href="#DejaVuSans-30" transform="translate(63.623047 0)"/>
      </g>
     </g>
    </g>
    <g id="ytick_4">
     <g id="line2d_4">
      <path d="M 70.703125 192.078571 
L 1087.347125 192.078571 
" clip-path="url(#p5b66844cfd)" style="fill: none; stroke: #cccccc; stroke-width: 0.8; stroke-linecap: round"/>
     </g>
     <g id="text_8">
      <!-- 60 -->
      <g style="fill: #262626" transform="translate(49.678125 195.87779) scale(0.1 -0.1)">
       <defs>
        <path id="DejaVuSans-36" d="M 2113 2584 
Q 1688 2584 1439 2293 
Q 1191 2003 1191 1497 
Q 1191 994 1439 701 
Q 1688 409 2113 409 
Q 2538 409 2786 701 
Q 3034 994 3034 1497 
Q 3034 2003 2786 2293 
Q 2538 2584 2113 2584 
z
M 3366 4563 
L 3366 3988 
Q 3128 4100 2886 4159 
Q 2644 4219 2406 4219 
Q 1781 4219 1451 3797 
Q 1122 3375 1075 2522 
Q 1259 2794 1537 2939 
Q 1816 3084 2150 3084 
Q 2853 3084 3261 2657 
Q 3669 2231 3669 1497 
Q 3669 778 3244 343 
Q 2819 -91 2113 -91 
Q 1303 -91 875 529 
Q 447 1150 447 2328 
Q 447 3434 972 4092 
Q 1497 4750 2381 4750 
Q 2619 4750 2861 4703 
Q 3103 4656 3366 4563 
z
" transform="scale(0.015625)"/>
       </defs>
       <use xlink:href="#DejaVuSans-36"/>
       <use xlink:href="#DejaVuSans-30" transform="translate(63.623047 0)"/>
      </g>
     </g>
    </g>
    <g id="ytick_5">
     <g id="line2d_5">
      <path d="M 70.703125 94.463858 
L 1087.347125 94.463858 
" clip-path="url(#p5b66844cfd)" style="fill: none; stroke: #cccccc; stroke-width: 0.8; stroke-linecap: round"/>
     </g>
     <g id="text_9">
      <!-- 80 -->
      <g style="fill: #262626" transform="translate(49.678125 98.263077) scale(0.1 -0.1)">
       <defs>
        <path id="DejaVuSans-38" d="M 2034 2216 
Q 1584 2216 1326 1975 
Q 1069 1734 1069 1313 
Q 1069 891 1326 650 
Q 1584 409 2034 409 
Q 2484 409 2743 651 
Q 3003 894 3003 1313 
Q 3003 1734 2745 1975 
Q 2488 2216 2034 2216 
z
M 1403 2484 
Q 997 2584 770 2862 
Q 544 3141 544 3541 
Q 544 4100 942 4425 
Q 1341 4750 2034 4750 
Q 2731 4750 3128 4425 
Q 3525 4100 3525 3541 
Q 3525 3141 3298 2862 
Q 3072 2584 2669 2484 
Q 3125 2378 3379 2068 
Q 3634 1759 3634 1313 
Q 3634 634 3220 271 
Q 2806 -91 2034 -91 
Q 1263 -91 848 271 
Q 434 634 434 1313 
Q 434 1759 690 2068 
Q 947 2378 1403 2484 
z
M 1172 3481 
Q 1172 3119 1398 2916 
Q 1625 2713 2034 2713 
Q 2441 2713 2670 2916 
Q 2900 3119 2900 3481 
Q 2900 3844 2670 4047 
Q 2441 4250 2034 4250 
Q 1625 4250 1398 4047 
Q 1172 3844 1172 3481 
z
" transform="scale(0.015625)"/>
       </defs>
       <use xlink:href="#DejaVuSans-38"/>
       <use xlink:href="#DejaVuSans-30" transform="translate(63.623047 0)"/>
      </g>
     </g>
    </g>
    <g id="text_10">
     <!-- Distance (μm) -->
     <g style="fill: #262626" transform="translate(43.598438 313.030125) rotate(-90) scale(0.1 -0.1)">
      <defs>
       <path id="DejaVuSans-44" d="M 1259 4147 
L 1259 519 
L 2022 519 
Q 2988 519 3436 956 
Q 3884 1394 3884 2338 
Q 3884 3275 3436 3711 
Q 2988 4147 2022 4147 
L 1259 4147 
z
M 628 4666 
L 1925 4666 
Q 3281 4666 3915 4102 
Q 4550 3538 4550 2338 
Q 4550 1131 3912 565 
Q 3275 0 1925 0 
L 628 0 
L 628 4666 
z
" transform="scale(0.015625)"/>
       <path id="DejaVuSans-73" d="M 2834 3397 
L 2834 2853 
Q 2591 2978 2328 3040 
Q 2066 3103 1784 3103 
Q 1356 3103 1142 2972 
Q 928 2841 928 2578 
Q 928 2378 1081 2264 
Q 1234 2150 1697 2047 
L 1894 2003 
Q 2506 1872 2764 1633 
Q 3022 1394 3022 966 
Q 3022 478 2636 193 
Q 2250 -91 1575 -91 
Q 1294 -91 989 -36 
Q 684 19 347 128 
L 347 722 
Q 666 556 975 473 
Q 1284 391 1588 391 
Q 1994 391 2212 530 
Q 2431 669 2431 922 
Q 2431 1156 2273 1281 
Q 2116 1406 1581 1522 
L 1381 1569 
Q 847 1681 609 1914 
Q 372 2147 372 2553 
Q 372 3047 722 3315 
Q 1072 3584 1716 3584 
Q 2034 3584 2315 3537 
Q 2597 3491 2834 3397 
z
" transform="scale(0.015625)"/>
       <path id="DejaVuSans-28" d="M 1984 4856 
Q 1566 4138 1362 3434 
Q 1159 2731 1159 2009 
Q 1159 1288 1364 580 
Q 1569 -128 1984 -844 
L 1484 -844 
Q 1016 -109 783 600 
Q 550 1309 550 2009 
Q 550 2706 781 3412 
Q 1013 4119 1484 4856 
L 1984 4856 
z
" transform="scale(0.015625)"/>
       <path id="DejaVuSans-3bc" d="M 544 -1331 
L 544 3500 
L 1119 3500 
L 1119 1325 
Q 1119 872 1334 640 
Q 1550 409 1972 409 
Q 2434 409 2667 671 
Q 2900 934 2900 1459 
L 2900 3500 
L 3475 3500 
L 3475 806 
Q 3475 619 3529 530 
Q 3584 441 3700 441 
Q 3728 441 3778 458 
Q 3828 475 3916 513 
L 3916 50 
Q 3788 -22 3673 -56 
Q 3559 -91 3450 -91 
Q 3234 -91 3106 31 
Q 2978 153 2931 403 
Q 2775 156 2548 32 
Q 2322 -91 2016 -91 
Q 1697 -91 1473 31 
Q 1250 153 1119 397 
L 1119 -1331 
L 544 -1331 
z
" transform="scale(0.015625)"/>
       <path id="DejaVuSans-29" d="M 513 4856 
L 1013 4856 
Q 1481 4119 1714 3412 
Q 1947 2706 1947 2009 
Q 1947 1309 1714 600 
Q 1481 -109 1013 -844 
L 513 -844 
Q 928 -128 1133 580 
Q 1338 1288 1338 2009 
Q 1338 2731 1133 3434 
Q 928 4138 513 4856 
z
" transform="scale(0.015625)"/>
      </defs>
      <use xlink:href="#DejaVuSans-44"/>
      <use xlink:href="#DejaVuSans-69" transform="translate(77.001953 0)"/>
      <use xlink:href="#DejaVuSans-73" transform="translate(104.785156 0)"/>
      <use xlink:href="#DejaVuSans-74" transform="translate(156.884766 0)"/>
      <use xlink:href="#DejaVuSans-61" transform="translate(196.09375 0)"/>
      <use xlink:href="#DejaVuSans-6e" transform="translate(257.373047 0)"/>
      <use xlink:href="#DejaVuSans-63" transform="translate(320.751953 0)"/>
      <use xlink:href="#DejaVuSans-65" transform="translate(375.732422 0)"/>
      <use xlink:href="#DejaVuSans-20" transform="translate(437.255859 0)"/>
      <use xlink:href="#DejaVuSans-28" transform="translate(469.042969 0)"/>
      <use xlink:href="#DejaVuSans-3bc" transform="translate(508.056641 0)"/>
      <use xlink:href="#DejaVuSans-6d" transform="translate(571.679688 0)"/>
      <use xlink:href="#DejaVuSans-29" transform="translate(669.091797 0)"/>
     </g>
    </g>
   </g>
   <g id="patch_3">
    <path d="M 240.143792 484.92271 
L 240.143792 484.92271 
L 240.143792 484.92271 
L 240.143792 484.92271 
z
" clip-path="url(#p5b66844cfd)" style="fill: #bd4b5b; stroke: #484848; stroke-width: 0.8; stroke-linejoin: miter"/>
   </g>
   <g id="patch_4">
    <path d="M 240.143792 484.92271 
L 240.143792 484.92271 
L 240.143792 484.92271 
L 240.143792 484.92271 
z
" clip-path="url(#p5b66844cfd)" style="fill: #d9715a; stroke: #484848; stroke-width: 0.8; stroke-linejoin: miter"/>
   </g>
   <g id="patch_5">
    <path d="M 240.143792 484.92271 
L 240.143792 484.92271 
L 240.143792 484.92271 
L 240.143792 484.92271 
z
" clip-path="url(#p5b66844cfd)" style="fill: #e69e6c; stroke: #484848; stroke-width: 0.8; stroke-linejoin: miter"/>
   </g>
   <g id="patch_6">
    <path d="M 240.143792 484.92271 
L 240.143792 484.92271 
L 240.143792 484.92271 
L 240.143792 484.92271 
z
" clip-path="url(#p5b66844cfd)" style="fill: #edca8c; stroke: #484848; stroke-width: 0.8; stroke-linejoin: miter"/>
   </g>
   <g id="patch_7">
    <path d="M 240.143792 484.92271 
L 240.143792 484.92271 
L 240.143792 484.92271 
L 240.143792 484.92271 
z
" clip-path="url(#p5b66844cfd)" style="fill: #f4eab2; stroke: #484848; stroke-width: 0.8; stroke-linejoin: miter"/>
   </g>
   <g id="patch_8">
    <path d="M 240.143792 484.92271 
L 240.143792 484.92271 
L 240.143792 484.92271 
L 240.143792 484.92271 
z
" clip-path="url(#p5b66844cfd)" style="fill: #ecf1b7; stroke: #484848; stroke-width: 0.8; stroke-linejoin: miter"/>
   </g>
   <g id="patch_9">
    <path d="M 240.143792 484.92271 
L 240.143792 484.92271 
L 240.143792 484.92271 
L 240.143792 484.92271 
z
" clip-path="url(#p5b66844cfd)" style="fill: #cee2a6; stroke: #484848; stroke-width: 0.8; stroke-linejoin: miter"/>
   </g>
   <g id="patch_10">
    <path d="M 240.143792 484.92271 
L 240.143792 484.92271 
L 240.143792 484.92271 
L 240.143792 484.92271 
z
" clip-path="url(#p5b66844cfd)" style="fill: #9fcda9; stroke: #484848; stroke-width: 0.8; stroke-linejoin: miter"/>
   </g>
   <g id="patch_11">
    <path d="M 240.143792 484.92271 
L 240.143792 484.92271 
L 240.143792 484.92271 
L 240.143792 484.92271 
z
" clip-path="url(#p5b66844cfd)" style="fill: #67aba2; stroke: #484848; stroke-width: 0.8; stroke-linejoin: miter"/>
   </g>
   <g id="patch_12">
    <path d="M 240.143792 484.92271 
L 240.143792 484.92271 
L 240.143792 484.92271 
L 240.143792 484.92271 
z
" clip-path="url(#p5b66844cfd)" style="fill: #4780aa; stroke: #484848; stroke-width: 0.8; stroke-linejoin: miter"/>
   </g>
   <g id="patch_13">
    <path d="M 104.591258 463.902215 
L 131.701765 463.902215 
L 131.701765 428.613635 
L 104.591258 428.613635 
L 104.591258 463.902215 
z
" clip-path="url(#p5b66844cfd)" style="fill: #bd4b5b; stroke: #484848; stroke-linejoin: miter"/>
   </g>
   <g id="line2d_6">
    <path d="M 118.146512 463.902215 
L 118.146512 483.35493 
" clip-path="url(#p5b66844cfd)" style="fill: none; stroke: #484848"/>
   </g>
   <g id="line2d_7">
    <path d="M 118.146512 428.613635 
L 118.146512 376.311999 
" clip-path="url(#p5b66844cfd)" style="fill: none; stroke: #484848"/>
   </g>
   <g id="line2d_8">
    <path d="M 111.368885 483.35493 
L 124.924138 483.35493 
" clip-path="url(#p5b66844cfd)" style="fill: none; stroke: #484848; stroke-linecap: round"/>
   </g>
   <g id="line2d_9">
    <path d="M 111.368885 376.311999 
L 124.924138 376.311999 
" clip-path="url(#p5b66844cfd)" style="fill: none; stroke: #484848; stroke-linecap: round"/>
   </g>
   <g id="patch_14">
    <path d="M 443.472592 449.565569 
L 470.583098 449.565569 
L 470.583098 406.295892 
L 443.472592 406.295892 
L 443.472592 449.565569 
z
" clip-path="url(#p5b66844cfd)" style="fill: #bd4b5b; stroke: #484848; stroke-linejoin: miter"/>
   </g>
   <g id="line2d_10">
    <path d="M 457.027845 449.565569 
L 457.027845 478.216754 
" clip-path="url(#p5b66844cfd)" style="fill: none; stroke: #484848"/>
   </g>
   <g id="line2d_11">
    <path d="M 457.027845 406.295892 
L 457.027845 349.000647 
" clip-path="url(#p5b66844cfd)" style="fill: none; stroke: #484848"/>
   </g>
   <g id="line2d_12">
    <path d="M 450.250218 478.216754 
L 463.805472 478.216754 
" clip-path="url(#p5b66844cfd)" style="fill: none; stroke: #484848; stroke-linecap: round"/>
   </g>
   <g id="line2d_13">
    <path d="M 450.250218 349.000647 
L 463.805472 349.000647 
" clip-path="url(#p5b66844cfd)" style="fill: none; stroke: #484848; stroke-linecap: round"/>
   </g>
   <g id="patch_15">
    <path d="M 782.353925 449.561927 
L 809.464432 449.561927 
L 809.464432 416.981034 
L 782.353925 416.981034 
L 782.353925 449.561927 
z
" clip-path="url(#p5b66844cfd)" style="fill: #bd4b5b; stroke: #484848; stroke-linejoin: miter"/>
   </g>
   <g id="line2d_14">
    <path d="M 795.909178 449.561927 
L 795.909178 481.38163 
" clip-path="url(#p5b66844cfd)" style="fill: none; stroke: #484848"/>
   </g>
   <g id="line2d_15">
    <path d="M 795.909178 416.981034 
L 795.909178 368.424017 
" clip-path="url(#p5b66844cfd)" style="fill: none; stroke: #484848"/>
   </g>
   <g id="line2d_16">
    <path d="M 789.131552 481.38163 
L 802.686805 481.38163 
" clip-path="url(#p5b66844cfd)" style="fill: none; stroke: #484848; stroke-linecap: round"/>
   </g>
   <g id="line2d_17">
    <path d="M 789.131552 368.424017 
L 802.686805 368.424017 
" clip-path="url(#p5b66844cfd)" style="fill: none; stroke: #484848; stroke-linecap: round"/>
   </g>
   <g id="patch_16">
    <path d="M 131.701765 459.087063 
L 158.812272 459.087063 
L 158.812272 406.721477 
L 131.701765 406.721477 
L 131.701765 459.087063 
z
" clip-path="url(#p5b66844cfd)" style="fill: #d9715a; stroke: #484848; stroke-linejoin: miter"/>
   </g>
   <g id="line2d_18">
    <path d="M 145.257018 459.087063 
L 145.257018 484.92271 
" clip-path="url(#p5b66844cfd)" style="fill: none; stroke: #484848"/>
   </g>
   <g id="line2d_19">
    <path d="M 145.257018 406.721477 
L 145.257018 328.837442 
" clip-path="url(#p5b66844cfd)" style="fill: none; stroke: #484848"/>
   </g>
   <g id="line2d_20">
    <path d="M 138.479392 484.92271 
L 152.034645 484.92271 
" clip-path="url(#p5b66844cfd)" style="fill: none; stroke: #484848; stroke-linecap: round"/>
   </g>
   <g id="line2d_21">
    <path d="M 138.479392 328.837442 
L 152.034645 328.837442 
" clip-path="url(#p5b66844cfd)" style="fill: none; stroke: #484848; stroke-linecap: round"/>
   </g>
   <g id="patch_17">
    <path d="M 470.583098 454.915093 
L 497.693605 454.915093 
L 497.693605 424.388395 
L 470.583098 424.388395 
L 470.583098 454.915093 
z
" clip-path="url(#p5b66844cfd)" style="fill: #d9715a; stroke: #484848; stroke-linejoin: miter"/>
   </g>
   <g id="line2d_22">
    <path d="M 484.138352 454.915093 
L 484.138352 484.92271 
" clip-path="url(#p5b66844cfd)" style="fill: none; stroke: #484848"/>
   </g>
   <g id="line2d_23">
    <path d="M 484.138352 424.388395 
L 484.138352 388.448235 
" clip-path="url(#p5b66844cfd)" style="fill: none; stroke: #484848"/>
   </g>
   <g id="line2d_24">
    <path d="M 477.360725 484.92271 
L 490.915978 484.92271 
" clip-path="url(#p5b66844cfd)" style="fill: none; stroke: #484848; stroke-linecap: round"/>
   </g>
   <g id="line2d_25">
    <path d="M 477.360725 388.448235 
L 490.915978 388.448235 
" clip-path="url(#p5b66844cfd)" style="fill: none; stroke: #484848; stroke-linecap: round"/>
   </g>
   <g id="patch_18">
    <path d="M 809.464432 456.831967 
L 836.574938 456.831967 
L 836.574938 419.077986 
L 809.464432 419.077986 
L 809.464432 456.831967 
z
" clip-path="url(#p5b66844cfd)" style="fill: #d9715a; stroke: #484848; stroke-linejoin: miter"/>
   </g>
   <g id="line2d_26">
    <path d="M 823.019685 456.831967 
L 823.019685 484.839738 
" clip-path="url(#p5b66844cfd)" style="fill: none; stroke: #484848"/>
   </g>
   <g id="line2d_27">
    <path d="M 823.019685 419.077986 
L 823.019685 362.897566 
" clip-path="url(#p5b66844cfd)" style="fill: none; stroke: #484848"/>
   </g>
   <g id="line2d_28">
    <path d="M 816.242058 484.839738 
L 829.797312 484.839738 
" clip-path="url(#p5b66844cfd)" style="fill: none; stroke: #484848; stroke-linecap: round"/>
   </g>
   <g id="line2d_29">
    <path d="M 816.242058 362.897566 
L 829.797312 362.897566 
" clip-path="url(#p5b66844cfd)" style="fill: none; stroke: #484848; stroke-linecap: round"/>
   </g>
   <g id="patch_19">
    <path d="M 158.812272 464.522182 
L 185.922778 464.522182 
L 185.922778 430.027993 
L 158.812272 430.027993 
L 158.812272 464.522182 
z
" clip-path="url(#p5b66844cfd)" style="fill: #e69e6c; stroke: #484848; stroke-linejoin: miter"/>
   </g>
   <g id="line2d_30">
    <path d="M 172.367525 464.522182 
L 172.367525 483.632238 
" clip-path="url(#p5b66844cfd)" style="fill: none; stroke: #484848"/>
   </g>
   <g id="line2d_31">
    <path d="M 172.367525 430.027993 
L 172.367525 378.645882 
" clip-path="url(#p5b66844cfd)" style="fill: none; stroke: #484848"/>
   </g>
   <g id="line2d_32">
    <path d="M 165.589898 483.632238 
L 179.145152 483.632238 
" clip-path="url(#p5b66844cfd)" style="fill: none; stroke: #484848; stroke-linecap: round"/>
   </g>
   <g id="line2d_33">
    <path d="M 165.589898 378.645882 
L 179.145152 378.645882 
" clip-path="url(#p5b66844cfd)" style="fill: none; stroke: #484848; stroke-linecap: round"/>
   </g>
   <g id="patch_20">
    <path d="M 497.693605 455.11974 
L 524.804112 455.11974 
L 524.804112 381.327038 
L 497.693605 381.327038 
L 497.693605 455.11974 
z
" clip-path="url(#p5b66844cfd)" style="fill: #e69e6c; stroke: #484848; stroke-linejoin: miter"/>
   </g>
   <g id="line2d_34">
    <path d="M 511.248858 455.11974 
L 511.248858 472.111567 
" clip-path="url(#p5b66844cfd)" style="fill: none; stroke: #484848"/>
   </g>
   <g id="line2d_35">
    <path d="M 511.248858 381.327038 
L 511.248858 276.689111 
" clip-path="url(#p5b66844cfd)" style="fill: none; stroke: #484848"/>
   </g>
   <g id="line2d_36">
    <path d="M 504.471232 472.111567 
L 518.026485 472.111567 
" clip-path="url(#p5b66844cfd)" style="fill: none; stroke: #484848; stroke-linecap: round"/>
   </g>
   <g id="line2d_37">
    <path d="M 504.471232 276.689111 
L 518.026485 276.689111 
" clip-path="url(#p5b66844cfd)" style="fill: none; stroke: #484848; stroke-linecap: round"/>
   </g>
   <g id="patch_21">
    <path d="M 836.574938 453.006317 
L 863.685445 453.006317 
L 863.685445 420.768582 
L 836.574938 420.768582 
L 836.574938 453.006317 
z
" clip-path="url(#p5b66844cfd)" style="fill: #e69e6c; stroke: #484848; stroke-linejoin: miter"/>
   </g>
   <g id="line2d_38">
    <path d="M 850.130192 453.006317 
L 850.130192 481.229925 
" clip-path="url(#p5b66844cfd)" style="fill: none; stroke: #484848"/>
   </g>
   <g id="line2d_39">
    <path d="M 850.130192 420.768582 
L 850.130192 373.062665 
" clip-path="url(#p5b66844cfd)" style="fill: none; stroke: #484848"/>
   </g>
   <g id="line2d_40">
    <path d="M 843.352565 481.229925 
L 856.907818 481.229925 
" clip-path="url(#p5b66844cfd)" style="fill: none; stroke: #484848; stroke-linecap: round"/>
   </g>
   <g id="line2d_41">
    <path d="M 843.352565 373.062665 
L 856.907818 373.062665 
" clip-path="url(#p5b66844cfd)" style="fill: none; stroke: #484848; stroke-linecap: round"/>
   </g>
   <g id="patch_22">
    <path d="M 185.922778 464.904143 
L 213.033285 464.904143 
L 213.033285 436.238095 
L 185.922778 436.238095 
L 185.922778 464.904143 
z
" clip-path="url(#p5b66844cfd)" style="fill: #edca8c; stroke: #484848; stroke-linejoin: miter"/>
   </g>
   <g id="line2d_42">
    <path d="M 199.478032 464.904143 
L 199.478032 484.92271 
" clip-path="url(#p5b66844cfd)" style="fill: none; stroke: #484848"/>
   </g>
   <g id="line2d_43">
    <path d="M 199.478032 436.238095 
L 199.478032 394.004679 
" clip-path="url(#p5b66844cfd)" style="fill: none; stroke: #484848"/>
   </g>
   <g id="line2d_44">
    <path d="M 192.700405 484.92271 
L 206.255658 484.92271 
" clip-path="url(#p5b66844cfd)" style="fill: none; stroke: #484848; stroke-linecap: round"/>
   </g>
   <g id="line2d_45">
    <path d="M 192.700405 394.004679 
L 206.255658 394.004679 
" clip-path="url(#p5b66844cfd)" style="fill: none; stroke: #484848; stroke-linecap: round"/>
   </g>
   <g id="patch_23">
    <path d="M 524.804112 454.550973 
L 551.914618 454.550973 
L 551.914618 421.619027 
L 524.804112 421.619027 
L 524.804112 454.550973 
z
" clip-path="url(#p5b66844cfd)" style="fill: #edca8c; stroke: #484848; stroke-linejoin: miter"/>
   </g>
   <g id="line2d_46">
    <path d="M 538.359365 454.550973 
L 538.359365 481.471509 
" clip-path="url(#p5b66844cfd)" style="fill: none; stroke: #484848"/>
   </g>
   <g id="line2d_47">
    <path d="M 538.359365 421.619027 
L 538.359365 378.521554 
" clip-path="url(#p5b66844cfd)" style="fill: none; stroke: #484848"/>
   </g>
   <g id="line2d_48">
    <path d="M 531.581738 481.471509 
L 545.136992 481.471509 
" clip-path="url(#p5b66844cfd)" style="fill: none; stroke: #484848; stroke-linecap: round"/>
   </g>
   <g id="line2d_49">
    <path d="M 531.581738 378.521554 
L 545.136992 378.521554 
" clip-path="url(#p5b66844cfd)" style="fill: none; stroke: #484848; stroke-linecap: round"/>
   </g>
   <g id="patch_24">
    <path d="M 863.685445 458.711454 
L 890.795952 458.711454 
L 890.795952 430.436341 
L 863.685445 430.436341 
L 863.685445 458.711454 
z
" clip-path="url(#p5b66844cfd)" style="fill: #edca8c; stroke: #484848; stroke-linejoin: miter"/>
   </g>
   <g id="line2d_50">
    <path d="M 877.240698 458.711454 
L 877.240698 484.154882 
" clip-path="url(#p5b66844cfd)" style="fill: none; stroke: #484848"/>
   </g>
   <g id="line2d_51">
    <path d="M 877.240698 430.436341 
L 877.240698 388.073762 
" clip-path="url(#p5b66844cfd)" style="fill: none; stroke: #484848"/>
   </g>
   <g id="line2d_52">
    <path d="M 870.463072 484.154882 
L 884.018325 484.154882 
" clip-path="url(#p5b66844cfd)" style="fill: none; stroke: #484848; stroke-linecap: round"/>
   </g>
   <g id="line2d_53">
    <path d="M 870.463072 388.073762 
L 884.018325 388.073762 
" clip-path="url(#p5b66844cfd)" style="fill: none; stroke: #484848; stroke-linecap: round"/>
   </g>
   <g id="patch_25">
    <path d="M 213.033285 469.013458 
L 240.143792 469.013458 
L 240.143792 437.545735 
L 213.033285 437.545735 
L 213.033285 469.013458 
z
" clip-path="url(#p5b66844cfd)" style="fill: #f4eab2; stroke: #484848; stroke-linejoin: miter"/>
   </g>
   <g id="line2d_54">
    <path d="M 226.588538 469.013458 
L 226.588538 483.081405 
" clip-path="url(#p5b66844cfd)" style="fill: none; stroke: #484848"/>
   </g>
   <g id="line2d_55">
    <path d="M 226.588538 437.545735 
L 226.588538 391.160488 
" clip-path="url(#p5b66844cfd)" style="fill: none; stroke: #484848"/>
   </g>
   <g id="line2d_56">
    <path d="M 219.810912 483.081405 
L 233.366165 483.081405 
" clip-path="url(#p5b66844cfd)" style="fill: none; stroke: #484848; stroke-linecap: round"/>
   </g>
   <g id="line2d_57">
    <path d="M 219.810912 391.160488 
L 233.366165 391.160488 
" clip-path="url(#p5b66844cfd)" style="fill: none; stroke: #484848; stroke-linecap: round"/>
   </g>
   <g id="patch_26">
    <path d="M 551.914618 456.095044 
L 579.025125 456.095044 
L 579.025125 391.437092 
L 551.914618 391.437092 
L 551.914618 456.095044 
z
" clip-path="url(#p5b66844cfd)" style="fill: #f4eab2; stroke: #484848; stroke-linejoin: miter"/>
   </g>
   <g id="line2d_58">
    <path d="M 565.469872 456.095044 
L 565.469872 479.527835 
" clip-path="url(#p5b66844cfd)" style="fill: none; stroke: #484848"/>
   </g>
   <g id="line2d_59">
    <path d="M 565.469872 391.437092 
L 565.469872 294.829631 
" clip-path="url(#p5b66844cfd)" style="fill: none; stroke: #484848"/>
   </g>
   <g id="line2d_60">
    <path d="M 558.692245 479.527835 
L 572.247498 479.527835 
" clip-path="url(#p5b66844cfd)" style="fill: none; stroke: #484848; stroke-linecap: round"/>
   </g>
   <g id="line2d_61">
    <path d="M 558.692245 294.829631 
L 572.247498 294.829631 
" clip-path="url(#p5b66844cfd)" style="fill: none; stroke: #484848; stroke-linecap: round"/>
   </g>
   <g id="patch_27">
    <path d="M 890.795952 452.625027 
L 917.906458 452.625027 
L 917.906458 388.874837 
L 890.795952 388.874837 
L 890.795952 452.625027 
z
" clip-path="url(#p5b66844cfd)" style="fill: #f4eab2; stroke: #484848; stroke-linejoin: miter"/>
   </g>
   <g id="line2d_62">
    <path d="M 904.351205 452.625027 
L 904.351205 482.759801 
" clip-path="url(#p5b66844cfd)" style="fill: none; stroke: #484848"/>
   </g>
   <g id="line2d_63">
    <path d="M 904.351205 388.874837 
L 904.351205 293.996092 
" clip-path="url(#p5b66844cfd)" style="fill: none; stroke: #484848"/>
   </g>
   <g id="line2d_64">
    <path d="M 897.573578 482.759801 
L 911.128832 482.759801 
" clip-path="url(#p5b66844cfd)" style="fill: none; stroke: #484848; stroke-linecap: round"/>
   </g>
   <g id="line2d_65">
    <path d="M 897.573578 293.996092 
L 911.128832 293.996092 
" clip-path="url(#p5b66844cfd)" style="fill: none; stroke: #484848; stroke-linecap: round"/>
   </g>
   <g id="patch_28">
    <path d="M 240.143792 463.728528 
L 267.254298 463.728528 
L 267.254298 418.43431 
L 240.143792 418.43431 
L 240.143792 463.728528 
z
" clip-path="url(#p5b66844cfd)" style="fill: #ecf1b7; stroke: #484848; stroke-linejoin: miter"/>
   </g>
   <g id="line2d_66">
    <path d="M 253.699045 463.728528 
L 253.699045 484.253889 
" clip-path="url(#p5b66844cfd)" style="fill: none; stroke: #484848"/>
   </g>
   <g id="line2d_67">
    <path d="M 253.699045 418.43431 
L 253.699045 350.859353 
" clip-path="url(#p5b66844cfd)" style="fill: none; stroke: #484848"/>
   </g>
   <g id="line2d_68">
    <path d="M 246.921418 484.253889 
L 260.476672 484.253889 
" clip-path="url(#p5b66844cfd)" style="fill: none; stroke: #484848; stroke-linecap: round"/>
   </g>
   <g id="line2d_69">
    <path d="M 246.921418 350.859353 
L 260.476672 350.859353 
" clip-path="url(#p5b66844cfd)" style="fill: none; stroke: #484848; stroke-linecap: round"/>
   </g>
   <g id="patch_29">
    <path d="M 579.025125 456.615132 
L 606.135632 456.615132 
L 606.135632 401.802467 
L 579.025125 401.802467 
L 579.025125 456.615132 
z
" clip-path="url(#p5b66844cfd)" style="fill: #ecf1b7; stroke: #484848; stroke-linejoin: miter"/>
   </g>
   <g id="line2d_70">
    <path d="M 592.580378 456.615132 
L 592.580378 480.041975 
" clip-path="url(#p5b66844cfd)" style="fill: none; stroke: #484848"/>
   </g>
   <g id="line2d_71">
    <path d="M 592.580378 401.802467 
L 592.580378 325.624757 
" clip-path="url(#p5b66844cfd)" style="fill: none; stroke: #484848"/>
   </g>
   <g id="line2d_72">
    <path d="M 585.802752 480.041975 
L 599.358005 480.041975 
" clip-path="url(#p5b66844cfd)" style="fill: none; stroke: #484848; stroke-linecap: round"/>
   </g>
   <g id="line2d_73">
    <path d="M 585.802752 325.624757 
L 599.358005 325.624757 
" clip-path="url(#p5b66844cfd)" style="fill: none; stroke: #484848; stroke-linecap: round"/>
   </g>
   <g id="patch_30">
    <path d="M 917.906458 445.485325 
L 945.016965 445.485325 
L 945.016965 409.804639 
L 917.906458 409.804639 
L 917.906458 445.485325 
z
" clip-path="url(#p5b66844cfd)" style="fill: #ecf1b7; stroke: #484848; stroke-linejoin: miter"/>
   </g>
   <g id="line2d_74">
    <path d="M 931.461712 445.485325 
L 931.461712 480.002827 
" clip-path="url(#p5b66844cfd)" style="fill: none; stroke: #484848"/>
   </g>
   <g id="line2d_75">
    <path d="M 931.461712 409.804639 
L 931.461712 356.322041 
" clip-path="url(#p5b66844cfd)" style="fill: none; stroke: #484848"/>
   </g>
   <g id="line2d_76">
    <path d="M 924.684085 480.002827 
L 938.239338 480.002827 
" clip-path="url(#p5b66844cfd)" style="fill: none; stroke: #484848; stroke-linecap: round"/>
   </g>
   <g id="line2d_77">
    <path d="M 924.684085 356.322041 
L 938.239338 356.322041 
" clip-path="url(#p5b66844cfd)" style="fill: none; stroke: #484848; stroke-linecap: round"/>
   </g>
   <g id="patch_31">
    <path d="M 267.254298 463.753311 
L 294.364805 463.753311 
L 294.364805 391.70034 
L 267.254298 391.70034 
L 267.254298 463.753311 
z
" clip-path="url(#p5b66844cfd)" style="fill: #cee2a6; stroke: #484848; stroke-linejoin: miter"/>
   </g>
   <g id="line2d_78">
    <path d="M 280.809552 463.753311 
L 280.809552 482.0416 
" clip-path="url(#p5b66844cfd)" style="fill: none; stroke: #484848"/>
   </g>
   <g id="line2d_79">
    <path d="M 280.809552 391.70034 
L 280.809552 284.608578 
" clip-path="url(#p5b66844cfd)" style="fill: none; stroke: #484848"/>
   </g>
   <g id="line2d_80">
    <path d="M 274.031925 482.0416 
L 287.587178 482.0416 
" clip-path="url(#p5b66844cfd)" style="fill: none; stroke: #484848; stroke-linecap: round"/>
   </g>
   <g id="line2d_81">
    <path d="M 274.031925 284.608578 
L 287.587178 284.608578 
" clip-path="url(#p5b66844cfd)" style="fill: none; stroke: #484848; stroke-linecap: round"/>
   </g>
   <g id="patch_32">
    <path d="M 606.135632 456.885019 
L 633.246138 456.885019 
L 633.246138 301.889339 
L 606.135632 301.889339 
L 606.135632 456.885019 
z
" clip-path="url(#p5b66844cfd)" style="fill: #cee2a6; stroke: #484848; stroke-linejoin: miter"/>
   </g>
   <g id="line2d_82">
    <path d="M 619.690885 456.885019 
L 619.690885 476.162126 
" clip-path="url(#p5b66844cfd)" style="fill: none; stroke: #484848"/>
   </g>
   <g id="line2d_83">
    <path d="M 619.690885 301.889339 
L 619.690885 70.328165 
" clip-path="url(#p5b66844cfd)" style="fill: none; stroke: #484848"/>
   </g>
   <g id="line2d_84">
    <path d="M 612.913258 476.162126 
L 626.468512 476.162126 
" clip-path="url(#p5b66844cfd)" style="fill: none; stroke: #484848; stroke-linecap: round"/>
   </g>
   <g id="line2d_85">
    <path d="M 612.913258 70.328165 
L 626.468512 70.328165 
" clip-path="url(#p5b66844cfd)" style="fill: none; stroke: #484848; stroke-linecap: round"/>
   </g>
   <g id="patch_33">
    <path d="M 945.016965 458.354316 
L 972.127472 458.354316 
L 972.127472 432.501314 
L 945.016965 432.501314 
L 945.016965 458.354316 
z
" clip-path="url(#p5b66844cfd)" style="fill: #cee2a6; stroke: #484848; stroke-linejoin: miter"/>
   </g>
   <g id="line2d_86">
    <path d="M 958.572218 458.354316 
L 958.572218 475.939438 
" clip-path="url(#p5b66844cfd)" style="fill: none; stroke: #484848"/>
   </g>
   <g id="line2d_87">
    <path d="M 958.572218 432.501314 
L 958.572218 395.006508 
" clip-path="url(#p5b66844cfd)" style="fill: none; stroke: #484848"/>
   </g>
   <g id="line2d_88">
    <path d="M 951.794592 475.939438 
L 965.349845 475.939438 
" clip-path="url(#p5b66844cfd)" style="fill: none; stroke: #484848; stroke-linecap: round"/>
   </g>
   <g id="line2d_89">
    <path d="M 951.794592 395.006508 
L 965.349845 395.006508 
" clip-path="url(#p5b66844cfd)" style="fill: none; stroke: #484848; stroke-linecap: round"/>
   </g>
   <g id="patch_34">
    <path d="M 294.364805 465.212908 
L 321.475312 465.212908 
L 321.475312 438.110171 
L 294.364805 438.110171 
L 294.364805 465.212908 
z
" clip-path="url(#p5b66844cfd)" style="fill: #9fcda9; stroke: #484848; stroke-linejoin: miter"/>
   </g>
   <g id="line2d_90">
    <path d="M 307.920058 465.212908 
L 307.920058 484.92271 
" clip-path="url(#p5b66844cfd)" style="fill: none; stroke: #484848"/>
   </g>
   <g id="line2d_91">
    <path d="M 307.920058 438.110171 
L 307.920058 397.538281 
" clip-path="url(#p5b66844cfd)" style="fill: none; stroke: #484848"/>
   </g>
   <g id="line2d_92">
    <path d="M 301.142432 484.92271 
L 314.697685 484.92271 
" clip-path="url(#p5b66844cfd)" style="fill: none; stroke: #484848; stroke-linecap: round"/>
   </g>
   <g id="line2d_93">
    <path d="M 301.142432 397.538281 
L 314.697685 397.538281 
" clip-path="url(#p5b66844cfd)" style="fill: none; stroke: #484848; stroke-linecap: round"/>
   </g>
   <g id="patch_35">
    <path d="M 633.246138 460.382525 
L 660.356645 460.382525 
L 660.356645 427.60145 
L 633.246138 427.60145 
L 633.246138 460.382525 
z
" clip-path="url(#p5b66844cfd)" style="fill: #9fcda9; stroke: #484848; stroke-linejoin: miter"/>
   </g>
   <g id="line2d_94">
    <path d="M 646.801392 460.382525 
L 646.801392 480.854129 
" clip-path="url(#p5b66844cfd)" style="fill: none; stroke: #484848"/>
   </g>
   <g id="line2d_95">
    <path d="M 646.801392 427.60145 
L 646.801392 385.255268 
" clip-path="url(#p5b66844cfd)" style="fill: none; stroke: #484848"/>
   </g>
   <g id="line2d_96">
    <path d="M 640.023765 480.854129 
L 653.579018 480.854129 
" clip-path="url(#p5b66844cfd)" style="fill: none; stroke: #484848; stroke-linecap: round"/>
   </g>
   <g id="line2d_97">
    <path d="M 640.023765 385.255268 
L 653.579018 385.255268 
" clip-path="url(#p5b66844cfd)" style="fill: none; stroke: #484848; stroke-linecap: round"/>
   </g>
   <g id="patch_36">
    <path d="M 972.127472 453.114777 
L 999.237978 453.114777 
L 999.237978 426.016125 
L 972.127472 426.016125 
L 972.127472 453.114777 
z
" clip-path="url(#p5b66844cfd)" style="fill: #9fcda9; stroke: #484848; stroke-linejoin: miter"/>
   </g>
   <g id="line2d_98">
    <path d="M 985.682725 453.114777 
L 985.682725 479.907703 
" clip-path="url(#p5b66844cfd)" style="fill: none; stroke: #484848"/>
   </g>
   <g id="line2d_99">
    <path d="M 985.682725 426.016125 
L 985.682725 385.483104 
" clip-path="url(#p5b66844cfd)" style="fill: none; stroke: #484848"/>
   </g>
   <g id="line2d_100">
    <path d="M 978.905098 479.907703 
L 992.460352 479.907703 
" clip-path="url(#p5b66844cfd)" style="fill: none; stroke: #484848; stroke-linecap: round"/>
   </g>
   <g id="line2d_101">
    <path d="M 978.905098 385.483104 
L 992.460352 385.483104 
" clip-path="url(#p5b66844cfd)" style="fill: none; stroke: #484848; stroke-linecap: round"/>
   </g>
   <g id="patch_37">
    <path d="M 321.475312 458.488321 
L 348.585818 458.488321 
L 348.585818 416.961095 
L 321.475312 416.961095 
L 321.475312 458.488321 
z
" clip-path="url(#p5b66844cfd)" style="fill: #67aba2; stroke: #484848; stroke-linejoin: miter"/>
   </g>
   <g id="line2d_102">
    <path d="M 335.030565 458.488321 
L 335.030565 482.482342 
" clip-path="url(#p5b66844cfd)" style="fill: none; stroke: #484848"/>
   </g>
   <g id="line2d_103">
    <path d="M 335.030565 416.961095 
L 335.030565 355.173351 
" clip-path="url(#p5b66844cfd)" style="fill: none; stroke: #484848"/>
   </g>
   <g id="line2d_104">
    <path d="M 328.252938 482.482342 
L 341.808192 482.482342 
" clip-path="url(#p5b66844cfd)" style="fill: none; stroke: #484848; stroke-linecap: round"/>
   </g>
   <g id="line2d_105">
    <path d="M 328.252938 355.173351 
L 341.808192 355.173351 
" clip-path="url(#p5b66844cfd)" style="fill: none; stroke: #484848; stroke-linecap: round"/>
   </g>
   <g id="patch_38">
    <path d="M 660.356645 450.053452 
L 687.467152 450.053452 
L 687.467152 390.507344 
L 660.356645 390.507344 
L 660.356645 450.053452 
z
" clip-path="url(#p5b66844cfd)" style="fill: #67aba2; stroke: #484848; stroke-linejoin: miter"/>
   </g>
   <g id="line2d_106">
    <path d="M 673.911898 450.053452 
L 673.911898 480.318808 
" clip-path="url(#p5b66844cfd)" style="fill: none; stroke: #484848"/>
   </g>
   <g id="line2d_107">
    <path d="M 673.911898 390.507344 
L 673.911898 303.512916 
" clip-path="url(#p5b66844cfd)" style="fill: none; stroke: #484848"/>
   </g>
   <g id="line2d_108">
    <path d="M 667.134272 480.318808 
L 680.689525 480.318808 
" clip-path="url(#p5b66844cfd)" style="fill: none; stroke: #484848; stroke-linecap: round"/>
   </g>
   <g id="line2d_109">
    <path d="M 667.134272 303.512916 
L 680.689525 303.512916 
" clip-path="url(#p5b66844cfd)" style="fill: none; stroke: #484848; stroke-linecap: round"/>
   </g>
   <g id="patch_39">
    <path d="M 999.237978 443.359153 
L 1026.348485 443.359153 
L 1026.348485 407.823985 
L 999.237978 407.823985 
L 999.237978 443.359153 
z
" clip-path="url(#p5b66844cfd)" style="fill: #67aba2; stroke: #484848; stroke-linejoin: miter"/>
   </g>
   <g id="line2d_110">
    <path d="M 1012.793232 443.359153 
L 1012.793232 481.471509 
" clip-path="url(#p5b66844cfd)" style="fill: none; stroke: #484848"/>
   </g>
   <g id="line2d_111">
    <path d="M 1012.793232 407.823985 
L 1012.793232 355.18623 
" clip-path="url(#p5b66844cfd)" style="fill: none; stroke: #484848"/>
   </g>
   <g id="line2d_112">
    <path d="M 1006.015605 481.471509 
L 1019.570858 481.471509 
" clip-path="url(#p5b66844cfd)" style="fill: none; stroke: #484848; stroke-linecap: round"/>
   </g>
   <g id="line2d_113">
    <path d="M 1006.015605 355.18623 
L 1019.570858 355.18623 
" clip-path="url(#p5b66844cfd)" style="fill: none; stroke: #484848; stroke-linecap: round"/>
   </g>
   <g id="patch_40">
    <path d="M 348.585818 460.544187 
L 375.696325 460.544187 
L 375.696325 409.19155 
L 348.585818 409.19155 
L 348.585818 460.544187 
z
" clip-path="url(#p5b66844cfd)" style="fill: #4780aa; stroke: #484848; stroke-linejoin: miter"/>
   </g>
   <g id="line2d_114">
    <path d="M 362.141072 460.544187 
L 362.141072 482.6901 
" clip-path="url(#p5b66844cfd)" style="fill: none; stroke: #484848"/>
   </g>
   <g id="line2d_115">
    <path d="M 362.141072 409.19155 
L 362.141072 333.417808 
" clip-path="url(#p5b66844cfd)" style="fill: none; stroke: #484848"/>
   </g>
   <g id="line2d_116">
    <path d="M 355.363445 482.6901 
L 368.918698 482.6901 
" clip-path="url(#p5b66844cfd)" style="fill: none; stroke: #484848; stroke-linecap: round"/>
   </g>
   <g id="line2d_117">
    <path d="M 355.363445 333.417808 
L 368.918698 333.417808 
" clip-path="url(#p5b66844cfd)" style="fill: none; stroke: #484848; stroke-linecap: round"/>
   </g>
   <g id="patch_41">
    <path d="M 687.467152 448.965501 
L 714.577658 448.965501 
L 714.577658 398.460546 
L 687.467152 398.460546 
L 687.467152 448.965501 
z
" clip-path="url(#p5b66844cfd)" style="fill: #4780aa; stroke: #484848; stroke-linejoin: miter"/>
   </g>
   <g id="line2d_118">
    <path d="M 701.022405 448.965501 
L 701.022405 471.780927 
" clip-path="url(#p5b66844cfd)" style="fill: none; stroke: #484848"/>
   </g>
   <g id="line2d_119">
    <path d="M 701.022405 398.460546 
L 701.022405 351.325109 
" clip-path="url(#p5b66844cfd)" style="fill: none; stroke: #484848"/>
   </g>
   <g id="line2d_120">
    <path d="M 694.244778 471.780927 
L 707.800032 471.780927 
" clip-path="url(#p5b66844cfd)" style="fill: none; stroke: #484848; stroke-linecap: round"/>
   </g>
   <g id="line2d_121">
    <path d="M 694.244778 351.325109 
L 707.800032 351.325109 
" clip-path="url(#p5b66844cfd)" style="fill: none; stroke: #484848; stroke-linecap: round"/>
   </g>
   <g id="patch_42">
    <path d="M 1026.348485 455.168564 
L 1053.458992 455.168564 
L 1053.458992 424.12537 
L 1026.348485 424.12537 
L 1026.348485 455.168564 
z
" clip-path="url(#p5b66844cfd)" style="fill: #4780aa; stroke: #484848; stroke-linejoin: miter"/>
   </g>
   <g id="line2d_122">
    <path d="M 1039.903738 455.168564 
L 1039.903738 482.482342 
" clip-path="url(#p5b66844cfd)" style="fill: none; stroke: #484848"/>
   </g>
   <g id="line2d_123">
    <path d="M 1039.903738 424.12537 
L 1039.903738 378.099539 
" clip-path="url(#p5b66844cfd)" style="fill: none; stroke: #484848"/>
   </g>
   <g id="line2d_124">
    <path d="M 1033.126112 482.482342 
L 1046.681365 482.482342 
" clip-path="url(#p5b66844cfd)" style="fill: none; stroke: #484848; stroke-linecap: round"/>
   </g>
   <g id="line2d_125">
    <path d="M 1033.126112 378.099539 
L 1046.681365 378.099539 
" clip-path="url(#p5b66844cfd)" style="fill: none; stroke: #484848; stroke-linecap: round"/>
   </g>
   <g id="line2d_126">
    <path d="M 104.591258 447.441444 
L 131.701765 447.441444 
" clip-path="url(#p5b66844cfd)" style="fill: none; stroke: #484848"/>
   </g>
   <g id="line2d_127">
    <path d="M 443.472592 429.70349 
L 470.583098 429.70349 
" clip-path="url(#p5b66844cfd)" style="fill: none; stroke: #484848"/>
   </g>
   <g id="line2d_128">
    <path d="M 782.353925 434.695183 
L 809.464432 434.695183 
" clip-path="url(#p5b66844cfd)" style="fill: none; stroke: #484848"/>
   </g>
   <g id="line2d_129">
    <path d="M 131.701765 441.892506 
L 158.812272 441.892506 
" clip-path="url(#p5b66844cfd)" style="fill: none; stroke: #484848"/>
   </g>
   <g id="line2d_130">
    <path d="M 470.583098 441.937925 
L 497.693605 441.937925 
" clip-path="url(#p5b66844cfd)" style="fill: none; stroke: #484848"/>
   </g>
   <g id="line2d_131">
    <path d="M 809.464432 440.822563 
L 836.574938 440.822563 
" clip-path="url(#p5b66844cfd)" style="fill: none; stroke: #484848"/>
   </g>
   <g id="line2d_132">
    <path d="M 158.812272 451.417614 
L 185.922778 451.417614 
" clip-path="url(#p5b66844cfd)" style="fill: none; stroke: #484848"/>
   </g>
   <g id="line2d_133">
    <path d="M 497.693605 433.254549 
L 524.804112 433.254549 
" clip-path="url(#p5b66844cfd)" style="fill: none; stroke: #484848"/>
   </g>
   <g id="line2d_134">
    <path d="M 836.574938 438.062837 
L 863.685445 438.062837 
" clip-path="url(#p5b66844cfd)" style="fill: none; stroke: #484848"/>
   </g>
   <g id="line2d_135">
    <path d="M 185.922778 452.771634 
L 213.033285 452.771634 
" clip-path="url(#p5b66844cfd)" style="fill: none; stroke: #484848"/>
   </g>
   <g id="line2d_136">
    <path d="M 524.804112 446.539366 
L 551.914618 446.539366 
" clip-path="url(#p5b66844cfd)" style="fill: none; stroke: #484848"/>
   </g>
   <g id="line2d_137">
    <path d="M 863.685445 445.800638 
L 890.795952 445.800638 
" clip-path="url(#p5b66844cfd)" style="fill: none; stroke: #484848"/>
   </g>
   <g id="line2d_138">
    <path d="M 213.033285 458.197022 
L 240.143792 458.197022 
" clip-path="url(#p5b66844cfd)" style="fill: none; stroke: #484848"/>
   </g>
   <g id="line2d_139">
    <path d="M 551.914618 431.876276 
L 579.025125 431.876276 
" clip-path="url(#p5b66844cfd)" style="fill: none; stroke: #484848"/>
   </g>
   <g id="line2d_140">
    <path d="M 890.795952 428.836065 
L 917.906458 428.836065 
" clip-path="url(#p5b66844cfd)" style="fill: none; stroke: #484848"/>
   </g>
   <g id="line2d_141">
    <path d="M 240.143792 448.68973 
L 267.254298 448.68973 
" clip-path="url(#p5b66844cfd)" style="fill: none; stroke: #484848"/>
   </g>
   <g id="line2d_142">
    <path d="M 579.025125 439.572008 
L 606.135632 439.572008 
" clip-path="url(#p5b66844cfd)" style="fill: none; stroke: #484848"/>
   </g>
   <g id="line2d_143">
    <path d="M 917.906458 429.230338 
L 945.016965 429.230338 
" clip-path="url(#p5b66844cfd)" style="fill: none; stroke: #484848"/>
   </g>
   <g id="line2d_144">
    <path d="M 267.254298 448.330051 
L 294.364805 448.330051 
" clip-path="url(#p5b66844cfd)" style="fill: none; stroke: #484848"/>
   </g>
   <g id="line2d_145">
    <path d="M 606.135632 432.914635 
L 633.246138 432.914635 
" clip-path="url(#p5b66844cfd)" style="fill: none; stroke: #484848"/>
   </g>
   <g id="line2d_146">
    <path d="M 945.016965 448.63147 
L 972.127472 448.63147 
" clip-path="url(#p5b66844cfd)" style="fill: none; stroke: #484848"/>
   </g>
   <g id="line2d_147">
    <path d="M 294.364805 453.684367 
L 321.475312 453.684367 
" clip-path="url(#p5b66844cfd)" style="fill: none; stroke: #484848"/>
   </g>
   <g id="line2d_148">
    <path d="M 633.246138 447.432006 
L 660.356645 447.432006 
" clip-path="url(#p5b66844cfd)" style="fill: none; stroke: #484848"/>
   </g>
   <g id="line2d_149">
    <path d="M 972.127472 440.965255 
L 999.237978 440.965255 
" clip-path="url(#p5b66844cfd)" style="fill: none; stroke: #484848"/>
   </g>
   <g id="line2d_150">
    <path d="M 321.475312 442.470465 
L 348.585818 442.470465 
" clip-path="url(#p5b66844cfd)" style="fill: none; stroke: #484848"/>
   </g>
   <g id="line2d_151">
    <path d="M 660.356645 426.922972 
L 687.467152 426.922972 
" clip-path="url(#p5b66844cfd)" style="fill: none; stroke: #484848"/>
   </g>
   <g id="line2d_152">
    <path d="M 999.237978 427.37453 
L 1026.348485 427.37453 
" clip-path="url(#p5b66844cfd)" style="fill: none; stroke: #484848"/>
   </g>
   <g id="line2d_153">
    <path d="M 348.585818 440.281715 
L 375.696325 440.281715 
" clip-path="url(#p5b66844cfd)" style="fill: none; stroke: #484848"/>
   </g>
   <g id="line2d_154">
    <path d="M 687.467152 417.318504 
L 714.577658 417.318504 
" clip-path="url(#p5b66844cfd)" style="fill: none; stroke: #484848"/>
   </g>
   <g id="line2d_155">
    <path d="M 1026.348485 441.972 
L 1053.458992 441.972 
" clip-path="url(#p5b66844cfd)" style="fill: none; stroke: #484848"/>
   </g>
   <g id="patch_43">
    <path d="M 70.703125 505.652438 
L 70.703125 49.598437 
" style="fill: none; stroke: #cccccc; stroke-linejoin: miter; stroke-linecap: square"/>
   </g>
   <g id="patch_44">
    <path d="M 1087.347125 505.652438 
L 1087.347125 49.598437 
" style="fill: none; stroke: #cccccc; stroke-linejoin: miter; stroke-linecap: square"/>
   </g>
   <g id="patch_45">
    <path d="M 70.703125 505.652438 
L 1087.347125 505.652438 
" style="fill: none; stroke: #cccccc; stroke-linejoin: miter; stroke-linecap: square"/>
   </g>
   <g id="patch_46">
    <path d="M 70.703125 49.598438 
L 1087.347125 49.598438 
" style="fill: none; stroke: #cccccc; stroke-linejoin: miter; stroke-linecap: square"/>
   </g>
   <g id="text_11">
    <!-- Distribution of distances by Level Two Cell Type and region -->
    <g style="fill: #262626" transform="translate(432.186062 43.598438) scale(0.1 -0.1)">
     <defs>
      <path id="DejaVuSans-62" d="M 3116 1747 
Q 3116 2381 2855 2742 
Q 2594 3103 2138 3103 
Q 1681 3103 1420 2742 
Q 1159 2381 1159 1747 
Q 1159 1113 1420 752 
Q 1681 391 2138 391 
Q 2594 391 2855 752 
Q 3116 1113 3116 1747 
z
M 1159 2969 
Q 1341 3281 1617 3432 
Q 1894 3584 2278 3584 
Q 2916 3584 3314 3078 
Q 3713 2572 3713 1747 
Q 3713 922 3314 415 
Q 2916 -91 2278 -91 
Q 1894 -91 1617 61 
Q 1341 213 1159 525 
L 1159 0 
L 581 0 
L 581 4863 
L 1159 4863 
L 1159 2969 
z
" transform="scale(0.015625)"/>
      <path id="DejaVuSans-75" d="M 544 1381 
L 544 3500 
L 1119 3500 
L 1119 1403 
Q 1119 906 1312 657 
Q 1506 409 1894 409 
Q 2359 409 2629 706 
Q 2900 1003 2900 1516 
L 2900 3500 
L 3475 3500 
L 3475 0 
L 2900 0 
L 2900 538 
Q 2691 219 2414 64 
Q 2138 -91 1772 -91 
Q 1169 -91 856 284 
Q 544 659 544 1381 
z
M 1991 3584 
L 1991 3584 
z
" transform="scale(0.015625)"/>
      <path id="DejaVuSans-66" d="M 2375 4863 
L 2375 4384 
L 1825 4384 
Q 1516 4384 1395 4259 
Q 1275 4134 1275 3809 
L 1275 3500 
L 2222 3500 
L 2222 3053 
L 1275 3053 
L 1275 0 
L 697 0 
L 697 3053 
L 147 3053 
L 147 3500 
L 697 3500 
L 697 3744 
Q 697 4328 969 4595 
Q 1241 4863 1831 4863 
L 2375 4863 
z
" transform="scale(0.015625)"/>
      <path id="DejaVuSans-64" d="M 2906 2969 
L 2906 4863 
L 3481 4863 
L 3481 0 
L 2906 0 
L 2906 525 
Q 2725 213 2448 61 
Q 2172 -91 1784 -91 
Q 1150 -91 751 415 
Q 353 922 353 1747 
Q 353 2572 751 3078 
Q 1150 3584 1784 3584 
Q 2172 3584 2448 3432 
Q 2725 3281 2906 2969 
z
M 947 1747 
Q 947 1113 1208 752 
Q 1469 391 1925 391 
Q 2381 391 2643 752 
Q 2906 1113 2906 1747 
Q 2906 2381 2643 2742 
Q 2381 3103 1925 3103 
Q 1469 3103 1208 2742 
Q 947 2381 947 1747 
z
" transform="scale(0.015625)"/>
     </defs>
     <use xlink:href="#DejaVuSans-44"/>
     <use xlink:href="#DejaVuSans-69" transform="translate(77.001953 0)"/>
     <use xlink:href="#DejaVuSans-73" transform="translate(104.785156 0)"/>
     <use xlink:href="#DejaVuSans-74" transform="translate(156.884766 0)"/>
     <use xlink:href="#DejaVuSans-72" transform="translate(196.09375 0)"/>
     <use xlink:href="#DejaVuSans-69" transform="translate(237.207031 0)"/>
     <use xlink:href="#DejaVuSans-62" transform="translate(264.990234 0)"/>
     <use xlink:href="#DejaVuSans-75" transform="translate(328.466797 0)"/>
     <use xlink:href="#DejaVuSans-74" transform="translate(391.845703 0)"/>
     <use xlink:href="#DejaVuSans-69" transform="translate(431.054688 0)"/>
     <use xlink:href="#DejaVuSans-6f" transform="translate(458.837891 0)"/>
     <use xlink:href="#DejaVuSans-6e" transform="translate(520.019531 0)"/>
     <use xlink:href="#DejaVuSans-20" transform="translate(583.398438 0)"/>
     <use xlink:href="#DejaVuSans-6f" transform="translate(615.185547 0)"/>
     <use xlink:href="#DejaVuSans-66" transform="translate(676.367188 0)"/>
     <use xlink:href="#DejaVuSans-20" transform="translate(711.572266 0)"/>
     <use xlink:href="#DejaVuSans-64" transform="translate(743.359375 0)"/>
     <use xlink:href="#DejaVuSans-69" transform="translate(806.835938 0)"/>
     <use xlink:href="#DejaVuSans-73" transform="translate(834.619141 0)"/>
     <use xlink:href="#DejaVuSans-74" transform="translate(886.71875 0)"/>
     <use xlink:href="#DejaVuSans-61" transform="translate(925.927734 0)"/>
     <use xlink:href="#DejaVuSans-6e" transform="translate(987.207031 0)"/>
     <use xlink:href="#DejaVuSans-63" transform="translate(1050.585938 0)"/>
     <use xlink:href="#DejaVuSans-65" transform="translate(1105.566406 0)"/>
     <use xlink:href="#DejaVuSans-73" transform="translate(1167.089844 0)"/>
     <use xlink:href="#DejaVuSans-20" transform="translate(1219.189453 0)"/>
     <use xlink:href="#DejaVuSans-62" transform="translate(1250.976562 0)"/>
     <use xlink:href="#DejaVuSans-79" transform="translate(1314.453125 0)"/>
     <use xlink:href="#DejaVuSans-20" transform="translate(1373.632812 0)"/>
     <use xlink:href="#DejaVuSans-4c" transform="translate(1405.419922 0)"/>
     <use xlink:href="#DejaVuSans-65" transform="translate(1459.382812 0)"/>
     <use xlink:href="#DejaVuSans-76" transform="translate(1520.90625 0)"/>
     <use xlink:href="#DejaVuSans-65" transform="translate(1580.085938 0)"/>
     <use xlink:href="#DejaVuSans-6c" transform="translate(1641.609375 0)"/>
     <use xlink:href="#DejaVuSans-20" transform="translate(1669.392578 0)"/>
     <use xlink:href="#DejaVuSans-54" transform="translate(1701.179688 0)"/>
     <use xlink:href="#DejaVuSans-77" transform="translate(1745.763672 0)"/>
     <use xlink:href="#DejaVuSans-6f" transform="translate(1827.550781 0)"/>
     <use xlink:href="#DejaVuSans-20" transform="translate(1888.732422 0)"/>
     <use xlink:href="#DejaVuSans-43" transform="translate(1920.519531 0)"/>
     <use xlink:href="#DejaVuSans-65" transform="translate(1990.34375 0)"/>
     <use xlink:href="#DejaVuSans-6c" transform="translate(2051.867188 0)"/>
     <use xlink:href="#DejaVuSans-6c" transform="translate(2079.650391 0)"/>
     <use xlink:href="#DejaVuSans-20" transform="translate(2107.433594 0)"/>
     <use xlink:href="#DejaVuSans-54" transform="translate(2139.220703 0)"/>
     <use xlink:href="#DejaVuSans-79" transform="translate(2184.679688 0)"/>
     <use xlink:href="#DejaVuSans-70" transform="translate(2243.859375 0)"/>
     <use xlink:href="#DejaVuSans-65" transform="translate(2307.335938 0)"/>
     <use xlink:href="#DejaVuSans-20" transform="translate(2368.859375 0)"/>
     <use xlink:href="#DejaVuSans-61" transform="translate(2400.646484 0)"/>
     <use xlink:href="#DejaVuSans-6e" transform="translate(2461.925781 0)"/>
     <use xlink:href="#DejaVuSans-64" transform="translate(2525.304688 0)"/>
     <use xlink:href="#DejaVuSans-20" transform="translate(2588.78125 0)"/>
     <use xlink:href="#DejaVuSans-72" transform="translate(2620.568359 0)"/>
     <use xlink:href="#DejaVuSans-65" transform="translate(2659.431641 0)"/>
     <use xlink:href="#DejaVuSans-67" transform="translate(2720.955078 0)"/>
     <use xlink:href="#DejaVuSans-69" transform="translate(2784.431641 0)"/>
     <use xlink:href="#DejaVuSans-6f" transform="translate(2812.214844 0)"/>
     <use xlink:href="#DejaVuSans-6e" transform="translate(2873.396484 0)"/>
    </g>
   </g>
   <g id="legend_1">
    <g id="patch_47">
     <path d="M 1093.507125 188.253438 
L 1165.092375 188.253438 
Q 1166.852375 188.253438 1166.852375 186.493438 
L 1166.852375 55.758438 
Q 1166.852375 53.998438 1165.092375 53.998438 
L 1093.507125 53.998438 
Q 1091.747125 53.998438 1091.747125 55.758438 
L 1091.747125 186.493438 
Q 1091.747125 188.253438 1093.507125 188.253438 
z
" style="fill: #ffffff; opacity: 0.8; stroke: #cccccc; stroke-width: 0.8; stroke-linejoin: miter"/>
    </g>
    <g id="patch_48">
     <path d="M 1095.267125 64.205063 
L 1112.867125 64.205063 
L 1112.867125 58.045063 
L 1095.267125 58.045063 
z
" style="fill: #bd4b5b; stroke: #484848; stroke-width: 0.8; stroke-linejoin: miter"/>
    </g>
    <g id="text_12">
     <!-- region_1 -->
     <g style="fill: #262626" transform="translate(1119.907125 64.205063) scale(0.088 -0.088)">
      <defs>
       <path id="DejaVuSans-5f" d="M 3263 -1063 
L 3263 -1509 
L -63 -1509 
L -63 -1063 
L 3263 -1063 
z
" transform="scale(0.015625)"/>
       <path id="DejaVuSans-31" d="M 794 531 
L 1825 531 
L 1825 4091 
L 703 3866 
L 703 4441 
L 1819 4666 
L 2450 4666 
L 2450 531 
L 3481 531 
L 3481 0 
L 794 0 
L 794 531 
z
" transform="scale(0.015625)"/>
      </defs>
      <use xlink:href="#DejaVuSans-72"/>
      <use xlink:href="#DejaVuSans-65" transform="translate(38.863281 0)"/>
      <use xlink:href="#DejaVuSans-67" transform="translate(100.386719 0)"/>
      <use xlink:href="#DejaVuSans-69" transform="translate(163.863281 0)"/>
      <use xlink:href="#DejaVuSans-6f" transform="translate(191.646484 0)"/>
      <use xlink:href="#DejaVuSans-6e" transform="translate(252.828125 0)"/>
      <use xlink:href="#DejaVuSans-5f" transform="translate(316.207031 0)"/>
      <use xlink:href="#DejaVuSans-31" transform="translate(366.207031 0)"/>
     </g>
    </g>
    <g id="patch_49">
     <path d="M 1095.267125 77.366563 
L 1112.867125 77.366563 
L 1112.867125 71.206563 
L 1095.267125 71.206563 
z
" style="fill: #d9715a; stroke: #484848; stroke-width: 0.8; stroke-linejoin: miter"/>
    </g>
    <g id="text_13">
     <!-- region_2 -->
     <g style="fill: #262626" transform="translate(1119.907125 77.366563) scale(0.088 -0.088)">
      <use xlink:href="#DejaVuSans-72"/>
      <use xlink:href="#DejaVuSans-65" transform="translate(38.863281 0)"/>
      <use xlink:href="#DejaVuSans-67" transform="translate(100.386719 0)"/>
      <use xlink:href="#DejaVuSans-69" transform="translate(163.863281 0)"/>
      <use xlink:href="#DejaVuSans-6f" transform="translate(191.646484 0)"/>
      <use xlink:href="#DejaVuSans-6e" transform="translate(252.828125 0)"/>
      <use xlink:href="#DejaVuSans-5f" transform="translate(316.207031 0)"/>
      <use xlink:href="#DejaVuSans-32" transform="translate(366.207031 0)"/>
     </g>
    </g>
    <g id="patch_50">
     <path d="M 1095.267125 90.528063 
L 1112.867125 90.528063 
L 1112.867125 84.368063 
L 1095.267125 84.368063 
z
" style="fill: #e69e6c; stroke: #484848; stroke-width: 0.8; stroke-linejoin: miter"/>
    </g>
    <g id="text_14">
     <!-- region_3 -->
     <g style="fill: #262626" transform="translate(1119.907125 90.528063) scale(0.088 -0.088)">
      <defs>
       <path id="DejaVuSans-33" d="M 2597 2516 
Q 3050 2419 3304 2112 
Q 3559 1806 3559 1356 
Q 3559 666 3084 287 
Q 2609 -91 1734 -91 
Q 1441 -91 1130 -33 
Q 819 25 488 141 
L 488 750 
Q 750 597 1062 519 
Q 1375 441 1716 441 
Q 2309 441 2620 675 
Q 2931 909 2931 1356 
Q 2931 1769 2642 2001 
Q 2353 2234 1838 2234 
L 1294 2234 
L 1294 2753 
L 1863 2753 
Q 2328 2753 2575 2939 
Q 2822 3125 2822 3475 
Q 2822 3834 2567 4026 
Q 2313 4219 1838 4219 
Q 1578 4219 1281 4162 
Q 984 4106 628 3988 
L 628 4550 
Q 988 4650 1302 4700 
Q 1616 4750 1894 4750 
Q 2613 4750 3031 4423 
Q 3450 4097 3450 3541 
Q 3450 3153 3228 2886 
Q 3006 2619 2597 2516 
z
" transform="scale(0.015625)"/>
      </defs>
      <use xlink:href="#DejaVuSans-72"/>
      <use xlink:href="#DejaVuSans-65" transform="translate(38.863281 0)"/>
      <use xlink:href="#DejaVuSans-67" transform="translate(100.386719 0)"/>
      <use xlink:href="#DejaVuSans-69" transform="translate(163.863281 0)"/>
      <use xlink:href="#DejaVuSans-6f" transform="translate(191.646484 0)"/>
      <use xlink:href="#DejaVuSans-6e" transform="translate(252.828125 0)"/>
      <use xlink:href="#DejaVuSans-5f" transform="translate(316.207031 0)"/>
      <use xlink:href="#DejaVuSans-33" transform="translate(366.207031 0)"/>
     </g>
    </g>
    <g id="patch_51">
     <path d="M 1095.267125 103.689563 
L 1112.867125 103.689563 
L 1112.867125 97.529563 
L 1095.267125 97.529563 
z
" style="fill: #edca8c; stroke: #484848; stroke-width: 0.8; stroke-linejoin: miter"/>
    </g>
    <g id="text_15">
     <!-- region_4 -->
     <g style="fill: #262626" transform="translate(1119.907125 103.689563) scale(0.088 -0.088)">
      <use xlink:href="#DejaVuSans-72"/>
      <use xlink:href="#DejaVuSans-65" transform="translate(38.863281 0)"/>
      <use xlink:href="#DejaVuSans-67" transform="translate(100.386719 0)"/>
      <use xlink:href="#DejaVuSans-69" transform="translate(163.863281 0)"/>
      <use xlink:href="#DejaVuSans-6f" transform="translate(191.646484 0)"/>
      <use xlink:href="#DejaVuSans-6e" transform="translate(252.828125 0)"/>
      <use xlink:href="#DejaVuSans-5f" transform="translate(316.207031 0)"/>
      <use xlink:href="#DejaVuSans-34" transform="translate(366.207031 0)"/>
     </g>
    </g>
    <g id="patch_52">
     <path d="M 1095.267125 116.851063 
L 1112.867125 116.851063 
L 1112.867125 110.691063 
L 1095.267125 110.691063 
z
" style="fill: #f4eab2; stroke: #484848; stroke-width: 0.8; stroke-linejoin: miter"/>
    </g>
    <g id="text_16">
     <!-- region_5 -->
     <g style="fill: #262626" transform="translate(1119.907125 116.851063) scale(0.088 -0.088)">
      <defs>
       <path id="DejaVuSans-35" d="M 691 4666 
L 3169 4666 
L 3169 4134 
L 1269 4134 
L 1269 2991 
Q 1406 3038 1543 3061 
Q 1681 3084 1819 3084 
Q 2600 3084 3056 2656 
Q 3513 2228 3513 1497 
Q 3513 744 3044 326 
Q 2575 -91 1722 -91 
Q 1428 -91 1123 -41 
Q 819 9 494 109 
L 494 744 
Q 775 591 1075 516 
Q 1375 441 1709 441 
Q 2250 441 2565 725 
Q 2881 1009 2881 1497 
Q 2881 1984 2565 2268 
Q 2250 2553 1709 2553 
Q 1456 2553 1204 2497 
Q 953 2441 691 2322 
L 691 4666 
z
" transform="scale(0.015625)"/>
      </defs>
      <use xlink:href="#DejaVuSans-72"/>
      <use xlink:href="#DejaVuSans-65" transform="translate(38.863281 0)"/>
      <use xlink:href="#DejaVuSans-67" transform="translate(100.386719 0)"/>
      <use xlink:href="#DejaVuSans-69" transform="translate(163.863281 0)"/>
      <use xlink:href="#DejaVuSans-6f" transform="translate(191.646484 0)"/>
      <use xlink:href="#DejaVuSans-6e" transform="translate(252.828125 0)"/>
      <use xlink:href="#DejaVuSans-5f" transform="translate(316.207031 0)"/>
      <use xlink:href="#DejaVuSans-35" transform="translate(366.207031 0)"/>
     </g>
    </g>
    <g id="patch_53">
     <path d="M 1095.267125 130.012563 
L 1112.867125 130.012563 
L 1112.867125 123.852563 
L 1095.267125 123.852563 
z
" style="fill: #ecf1b7; stroke: #484848; stroke-width: 0.8; stroke-linejoin: miter"/>
    </g>
    <g id="text_17">
     <!-- region_7 -->
     <g style="fill: #262626" transform="translate(1119.907125 130.012563) scale(0.088 -0.088)">
      <defs>
       <path id="DejaVuSans-37" d="M 525 4666 
L 3525 4666 
L 3525 4397 
L 1831 0 
L 1172 0 
L 2766 4134 
L 525 4134 
L 525 4666 
z
" transform="scale(0.015625)"/>
      </defs>
      <use xlink:href="#DejaVuSans-72"/>
      <use xlink:href="#DejaVuSans-65" transform="translate(38.863281 0)"/>
      <use xlink:href="#DejaVuSans-67" transform="translate(100.386719 0)"/>
      <use xlink:href="#DejaVuSans-69" transform="translate(163.863281 0)"/>
      <use xlink:href="#DejaVuSans-6f" transform="translate(191.646484 0)"/>
      <use xlink:href="#DejaVuSans-6e" transform="translate(252.828125 0)"/>
      <use xlink:href="#DejaVuSans-5f" transform="translate(316.207031 0)"/>
      <use xlink:href="#DejaVuSans-37" transform="translate(366.207031 0)"/>
     </g>
    </g>
    <g id="patch_54">
     <path d="M 1095.267125 143.174063 
L 1112.867125 143.174063 
L 1112.867125 137.014063 
L 1095.267125 137.014063 
z
" style="fill: #cee2a6; stroke: #484848; stroke-width: 0.8; stroke-linejoin: miter"/>
    </g>
    <g id="text_18">
     <!-- region_8 -->
     <g style="fill: #262626" transform="translate(1119.907125 143.174063) scale(0.088 -0.088)">
      <use xlink:href="#DejaVuSans-72"/>
      <use xlink:href="#DejaVuSans-65" transform="translate(38.863281 0)"/>
      <use xlink:href="#DejaVuSans-67" transform="translate(100.386719 0)"/>
      <use xlink:href="#DejaVuSans-69" transform="translate(163.863281 0)"/>
      <use xlink:href="#DejaVuSans-6f" transform="translate(191.646484 0)"/>
      <use xlink:href="#DejaVuSans-6e" transform="translate(252.828125 0)"/>
      <use xlink:href="#DejaVuSans-5f" transform="translate(316.207031 0)"/>
      <use xlink:href="#DejaVuSans-38" transform="translate(366.207031 0)"/>
     </g>
    </g>
    <g id="patch_55">
     <path d="M 1095.267125 156.335563 
L 1112.867125 156.335563 
L 1112.867125 150.175563 
L 1095.267125 150.175563 
z
" style="fill: #9fcda9; stroke: #484848; stroke-width: 0.8; stroke-linejoin: miter"/>
    </g>
    <g id="text_19">
     <!-- region_9 -->
     <g style="fill: #262626" transform="translate(1119.907125 156.335563) scale(0.088 -0.088)">
      <defs>
       <path id="DejaVuSans-39" d="M 703 97 
L 703 672 
Q 941 559 1184 500 
Q 1428 441 1663 441 
Q 2288 441 2617 861 
Q 2947 1281 2994 2138 
Q 2813 1869 2534 1725 
Q 2256 1581 1919 1581 
Q 1219 1581 811 2004 
Q 403 2428 403 3163 
Q 403 3881 828 4315 
Q 1253 4750 1959 4750 
Q 2769 4750 3195 4129 
Q 3622 3509 3622 2328 
Q 3622 1225 3098 567 
Q 2575 -91 1691 -91 
Q 1453 -91 1209 -44 
Q 966 3 703 97 
z
M 1959 2075 
Q 2384 2075 2632 2365 
Q 2881 2656 2881 3163 
Q 2881 3666 2632 3958 
Q 2384 4250 1959 4250 
Q 1534 4250 1286 3958 
Q 1038 3666 1038 3163 
Q 1038 2656 1286 2365 
Q 1534 2075 1959 2075 
z
" transform="scale(0.015625)"/>
      </defs>
      <use xlink:href="#DejaVuSans-72"/>
      <use xlink:href="#DejaVuSans-65" transform="translate(38.863281 0)"/>
      <use xlink:href="#DejaVuSans-67" transform="translate(100.386719 0)"/>
      <use xlink:href="#DejaVuSans-69" transform="translate(163.863281 0)"/>
      <use xlink:href="#DejaVuSans-6f" transform="translate(191.646484 0)"/>
      <use xlink:href="#DejaVuSans-6e" transform="translate(252.828125 0)"/>
      <use xlink:href="#DejaVuSans-5f" transform="translate(316.207031 0)"/>
      <use xlink:href="#DejaVuSans-39" transform="translate(366.207031 0)"/>
     </g>
    </g>
    <g id="patch_56">
     <path d="M 1095.267125 169.497063 
L 1112.867125 169.497063 
L 1112.867125 163.337063 
L 1095.267125 163.337063 
z
" style="fill: #67aba2; stroke: #484848; stroke-width: 0.8; stroke-linejoin: miter"/>
    </g>
    <g id="text_20">
     <!-- region_10 -->
     <g style="fill: #262626" transform="translate(1119.907125 169.497063) scale(0.088 -0.088)">
      <use xlink:href="#DejaVuSans-72"/>
      <use xlink:href="#DejaVuSans-65" transform="translate(38.863281 0)"/>
      <use xlink:href="#DejaVuSans-67" transform="translate(100.386719 0)"/>
      <use xlink:href="#DejaVuSans-69" transform="translate(163.863281 0)"/>
      <use xlink:href="#DejaVuSans-6f" transform="translate(191.646484 0)"/>
      <use xlink:href="#DejaVuSans-6e" transform="translate(252.828125 0)"/>
      <use xlink:href="#DejaVuSans-5f" transform="translate(316.207031 0)"/>
      <use xlink:href="#DejaVuSans-31" transform="translate(366.207031 0)"/>
      <use xlink:href="#DejaVuSans-30" transform="translate(429.830078 0)"/>
     </g>
    </g>
    <g id="patch_57">
     <path d="M 1095.267125 182.658563 
L 1112.867125 182.658563 
L 1112.867125 176.498563 
L 1095.267125 176.498563 
z
" style="fill: #4780aa; stroke: #484848; stroke-width: 0.8; stroke-linejoin: miter"/>
    </g>
    <g id="text_21">
     <!-- region_11 -->
     <g style="fill: #262626" transform="translate(1119.907125 182.658563) scale(0.088 -0.088)">
      <use xlink:href="#DejaVuSans-72"/>
      <use xlink:href="#DejaVuSans-65" transform="translate(38.863281 0)"/>
      <use xlink:href="#DejaVuSans-67" transform="translate(100.386719 0)"/>
      <use xlink:href="#DejaVuSans-69" transform="translate(163.863281 0)"/>
      <use xlink:href="#DejaVuSans-6f" transform="translate(191.646484 0)"/>
      <use xlink:href="#DejaVuSans-6e" transform="translate(252.828125 0)"/>
      <use xlink:href="#DejaVuSans-5f" transform="translate(316.207031 0)"/>
      <use xlink:href="#DejaVuSans-31" transform="translate(366.207031 0)"/>
      <use xlink:href="#DejaVuSans-31" transform="translate(429.830078 0)"/>
     </g>
    </g>
   </g>
  </g>
 </g>
 <defs>
  <clipPath id="p5b66844cfd">
   <rect x="70.703125" y="49.598438" width="1016.644" height="456.054"/>
  </clipPath>
 </defs>
</svg>
