<?xml version="1.0" encoding="utf-8" standalone="no"?>
<!DOCTYPE svg PUBLIC "-//W3C//DTD SVG 1.1//EN"
  "http://www.w3.org/Graphics/SVG/1.1/DTD/svg11.dtd">
<svg xmlns:xlink="http://www.w3.org/1999/xlink" width="1202.852375pt" height="626.479625pt" viewBox="0 0 1202.852375 626.479625" xmlns="http://www.w3.org/2000/svg" version="1.1">
 <metadata>
  <rdf:RDF xmlns:dc="http://purl.org/dc/elements/1.1/" xmlns:cc="http://creativecommons.org/ns#" xmlns:rdf="http://www.w3.org/1999/02/22-rdf-syntax-ns#">
   <cc:Work>
    <dc:type rdf:resource="http://purl.org/dc/dcmitype/StillImage"/>
    <dc:date>2025-07-25T12:42:33.249471</dc:date>
    <dc:format>image/svg+xml</dc:format>
    <dc:creator>
     <cc:Agent>
      <dc:title>Matplotlib v3.10.3, https://matplotlib.org/</dc:title>
     </cc:Agent>
    </dc:creator>
   </cc:Work>
  </rdf:RDF>
 </metadata>
 <defs>
  <style type="text/css">*{stroke-linejoin: round; stroke-linecap: butt}</style>
 </defs>
 <g id="figure_1">
  <g id="patch_1">
   <path d="M 0 626.479625 
L 1202.852375 626.479625 
L 1202.852375 0 
L 0 0 
z
" style="fill: #ffffff"/>
  </g>
  <g id="axes_1">
   <g id="patch_2">
    <path d="M 70.703125 501.962438 
L 1087.347125 501.962438 
L 1087.347125 49.598438 
L 70.703125 49.598438 
z
" style="fill: #ffffff"/>
   </g>
   <g id="matplotlib.axis_1">
    <g id="xtick_1">
     <g id="text_1">
      <text style="font-size: 10px; font-family: 'Arial', 'DejaVu Sans', 'Liberation Sans', 'Bitstream Vera Sans', sans-serif; fill: #262626" transform="translate(322.784438 571.735875) rotate(-90)">immune cell</text>
     </g>
    </g>
    <g id="xtick_2">
     <g id="text_2">
      <text style="font-size: 10px; font-family: 'Arial', 'DejaVu Sans', 'Liberation Sans', 'Bitstream Vera Sans', sans-serif; fill: #262626" transform="translate(831.106437 576.8015) rotate(-90)">epithelial cell</text>
     </g>
    </g>
    <g id="text_3">
     <text style="font-size: 10px; font-family: 'Arial', 'DejaVu Sans', 'Liberation Sans', 'Bitstream Vera Sans', sans-serif; text-anchor: middle; fill: #262626" x="579.025125" y="588.399938" transform="rotate(-0 579.025125 588.399938)">Level One Cell Type</text>
    </g>
   </g>
   <g id="matplotlib.axis_2">
    <g id="ytick_1">
     <g id="line2d_1">
      <path d="M 70.703125 481.400438 
L 1087.347125 481.400438 
" clip-path="url(#p464c1ad862)" style="fill: none; stroke: #cccccc; stroke-width: 0.8; stroke-linecap: round"/>
     </g>
     <g id="text_4">
      <text style="font-size: 10px; font-family: 'Arial', 'DejaVu Sans', 'Liberation Sans', 'Bitstream Vera Sans', sans-serif; text-anchor: end; fill: #262626" x="62.403125" y="485.199656" transform="rotate(-0 62.403125 485.199656)">0</text>
     </g>
    </g>
    <g id="ytick_2">
     <g id="line2d_2">
      <path d="M 70.703125 383.179957 
L 1087.347125 383.179957 
" clip-path="url(#p464c1ad862)" style="fill: none; stroke: #cccccc; stroke-width: 0.8; stroke-linecap: round"/>
     </g>
     <g id="text_5">
      <text style="font-size: 10px; font-family: 'Arial', 'DejaVu Sans', 'Liberation Sans', 'Bitstream Vera Sans', sans-serif; text-anchor: end; fill: #262626" x="62.403125" y="386.979176" transform="rotate(-0 62.403125 386.979176)">10</text>
     </g>
    </g>
    <g id="ytick_3">
     <g id="line2d_3">
      <path d="M 70.703125 284.959477 
L 1087.347125 284.959477 
" clip-path="url(#p464c1ad862)" style="fill: none; stroke: #cccccc; stroke-width: 0.8; stroke-linecap: round"/>
     </g>
     <g id="text_6">
      <text style="font-size: 10px; font-family: 'Arial', 'DejaVu Sans', 'Liberation Sans', 'Bitstream Vera Sans', sans-serif; text-anchor: end; fill: #262626" x="62.403125" y="288.758696" transform="rotate(-0 62.403125 288.758696)">20</text>
     </g>
    </g>
    <g id="ytick_4">
     <g id="line2d_4">
      <path d="M 70.703125 186.738997 
L 1087.347125 186.738997 
" clip-path="url(#p464c1ad862)" style="fill: none; stroke: #cccccc; stroke-width: 0.8; stroke-linecap: round"/>
     </g>
     <g id="text_7">
      <text style="font-size: 10px; font-family: 'Arial', 'DejaVu Sans', 'Liberation Sans', 'Bitstream Vera Sans', sans-serif; text-anchor: end; fill: #262626" x="62.403125" y="190.538216" transform="rotate(-0 62.403125 190.538216)">30</text>
     </g>
    </g>
    <g id="ytick_5">
     <g id="line2d_5">
      <path d="M 70.703125 88.518517 
L 1087.347125 88.518517 
" clip-path="url(#p464c1ad862)" style="fill: none; stroke: #cccccc; stroke-width: 0.8; stroke-linecap: round"/>
     </g>
     <g id="text_8">
      <text style="font-size: 10px; font-family: 'Arial', 'DejaVu Sans', 'Liberation Sans', 'Bitstream Vera Sans', sans-serif; text-anchor: end; fill: #262626" x="62.403125" y="92.317736" transform="rotate(-0 62.403125 92.317736)">40</text>
     </g>
    </g>
    <g id="text_9">
     <text style="font-size: 10px; font-family: 'Arial', 'DejaVu Sans', 'Liberation Sans', 'Bitstream Vera Sans', sans-serif; text-anchor: middle; fill: #262626" x="43.598438" y="275.780438" transform="rotate(-90 43.598438 275.780438)">Distance (μm)</text>
    </g>
   </g>
   <g id="patch_3">
    <path d="M 324.864125 481.400438 
L 324.864125 481.400438 
L 324.864125 481.400438 
L 324.864125 481.400438 
z
" clip-path="url(#p464c1ad862)" style="fill: #bd4b5b; stroke: #484848; stroke-width: 0.8; stroke-linejoin: miter"/>
   </g>
   <g id="patch_4">
    <path d="M 324.864125 481.400438 
L 324.864125 481.400438 
L 324.864125 481.400438 
L 324.864125 481.400438 
z
" clip-path="url(#p464c1ad862)" style="fill: #d9715a; stroke: #484848; stroke-width: 0.8; stroke-linejoin: miter"/>
   </g>
   <g id="patch_5">
    <path d="M 324.864125 481.400438 
L 324.864125 481.400438 
L 324.864125 481.400438 
L 324.864125 481.400438 
z
" clip-path="url(#p464c1ad862)" style="fill: #e69e6c; stroke: #484848; stroke-width: 0.8; stroke-linejoin: miter"/>
   </g>
   <g id="patch_6">
    <path d="M 324.864125 481.400438 
L 324.864125 481.400438 
L 324.864125 481.400438 
L 324.864125 481.400438 
z
" clip-path="url(#p464c1ad862)" style="fill: #edca8c; stroke: #484848; stroke-width: 0.8; stroke-linejoin: miter"/>
   </g>
   <g id="patch_7">
    <path d="M 324.864125 481.400438 
L 324.864125 481.400438 
L 324.864125 481.400438 
L 324.864125 481.400438 
z
" clip-path="url(#p464c1ad862)" style="fill: #f4eab2; stroke: #484848; stroke-width: 0.8; stroke-linejoin: miter"/>
   </g>
   <g id="patch_8">
    <path d="M 324.864125 481.400438 
L 324.864125 481.400438 
L 324.864125 481.400438 
L 324.864125 481.400438 
z
" clip-path="url(#p464c1ad862)" style="fill: #ecf1b7; stroke: #484848; stroke-width: 0.8; stroke-linejoin: miter"/>
   </g>
   <g id="patch_9">
    <path d="M 324.864125 481.400438 
L 324.864125 481.400438 
L 324.864125 481.400438 
L 324.864125 481.400438 
z
" clip-path="url(#p464c1ad862)" style="fill: #cee2a6; stroke: #484848; stroke-width: 0.8; stroke-linejoin: miter"/>
   </g>
   <g id="patch_10">
    <path d="M 324.864125 481.400438 
L 324.864125 481.400438 
L 324.864125 481.400438 
L 324.864125 481.400438 
z
" clip-path="url(#p464c1ad862)" style="fill: #9fcda9; stroke: #484848; stroke-width: 0.8; stroke-linejoin: miter"/>
   </g>
   <g id="patch_11">
    <path d="M 324.864125 481.400438 
L 324.864125 481.400438 
L 324.864125 481.400438 
L 324.864125 481.400438 
z
" clip-path="url(#p464c1ad862)" style="fill: #67aba2; stroke: #484848; stroke-width: 0.8; stroke-linejoin: miter"/>
   </g>
   <g id="patch_12">
    <path d="M 324.864125 481.400438 
L 324.864125 481.400438 
L 324.864125 481.400438 
L 324.864125 481.400438 
z
" clip-path="url(#p464c1ad862)" style="fill: #4780aa; stroke: #484848; stroke-width: 0.8; stroke-linejoin: miter"/>
   </g>
   <g id="patch_13">
    <path d="M 121.535325 432.891283 
L 162.201085 432.891283 
L 162.201085 360.911786 
L 121.535325 360.911786 
L 121.535325 432.891283 
z
" clip-path="url(#p464c1ad862)" style="fill: #bd4b5b; stroke: #484848; stroke-linejoin: miter"/>
   </g>
   <g id="line2d_6">
    <path d="M 141.868205 432.891283 
L 141.868205 478.245419 
" clip-path="url(#p464c1ad862)" style="fill: none; stroke: #484848"/>
   </g>
   <g id="line2d_7">
    <path d="M 141.868205 360.911786 
L 141.868205 253.791561 
" clip-path="url(#p464c1ad862)" style="fill: none; stroke: #484848"/>
   </g>
   <g id="line2d_8">
    <path d="M 131.701765 478.245419 
L 152.034645 478.245419 
" clip-path="url(#p464c1ad862)" style="fill: none; stroke: #484848; stroke-linecap: round"/>
   </g>
   <g id="line2d_9">
    <path d="M 131.701765 253.791561 
L 152.034645 253.791561 
" clip-path="url(#p464c1ad862)" style="fill: none; stroke: #484848; stroke-linecap: round"/>
   </g>
   <g id="patch_14">
    <path d="M 629.857325 410.239994 
L 670.523085 410.239994 
L 670.523085 344.673834 
L 629.857325 344.673834 
L 629.857325 410.239994 
z
" clip-path="url(#p464c1ad862)" style="fill: #bd4b5b; stroke: #484848; stroke-linejoin: miter"/>
   </g>
   <g id="line2d_10">
    <path d="M 650.190205 410.239994 
L 650.190205 474.274327 
" clip-path="url(#p464c1ad862)" style="fill: none; stroke: #484848"/>
   </g>
   <g id="line2d_11">
    <path d="M 650.190205 344.673834 
L 650.190205 246.95714 
" clip-path="url(#p464c1ad862)" style="fill: none; stroke: #484848"/>
   </g>
   <g id="line2d_12">
    <path d="M 640.023765 474.274327 
L 660.356645 474.274327 
" clip-path="url(#p464c1ad862)" style="fill: none; stroke: #484848; stroke-linecap: round"/>
   </g>
   <g id="line2d_13">
    <path d="M 640.023765 246.95714 
L 660.356645 246.95714 
" clip-path="url(#p464c1ad862)" style="fill: none; stroke: #484848; stroke-linecap: round"/>
   </g>
   <g id="patch_15">
    <path d="M 162.201085 428.832408 
L 202.866845 428.832408 
L 202.866845 328.380269 
L 162.201085 328.380269 
L 162.201085 428.832408 
z
" clip-path="url(#p464c1ad862)" style="fill: #d9715a; stroke: #484848; stroke-linejoin: miter"/>
   </g>
   <g id="line2d_14">
    <path d="M 182.533965 428.832408 
L 182.533965 481.400438 
" clip-path="url(#p464c1ad862)" style="fill: none; stroke: #484848"/>
   </g>
   <g id="line2d_15">
    <path d="M 182.533965 328.380269 
L 182.533965 180.844199 
" clip-path="url(#p464c1ad862)" style="fill: none; stroke: #484848"/>
   </g>
   <g id="line2d_16">
    <path d="M 172.367525 481.400438 
L 192.700405 481.400438 
" clip-path="url(#p464c1ad862)" style="fill: none; stroke: #484848; stroke-linecap: round"/>
   </g>
   <g id="line2d_17">
    <path d="M 172.367525 180.844199 
L 192.700405 180.844199 
" clip-path="url(#p464c1ad862)" style="fill: none; stroke: #484848; stroke-linecap: round"/>
   </g>
   <g id="patch_16">
    <path d="M 670.523085 424.870306 
L 711.188845 424.870306 
L 711.188845 348.893765 
L 670.523085 348.893765 
L 670.523085 424.870306 
z
" clip-path="url(#p464c1ad862)" style="fill: #d9715a; stroke: #484848; stroke-linejoin: miter"/>
   </g>
   <g id="line2d_18">
    <path d="M 690.855965 424.870306 
L 690.855965 481.233463 
" clip-path="url(#p464c1ad862)" style="fill: none; stroke: #484848"/>
   </g>
   <g id="line2d_19">
    <path d="M 690.855965 348.893765 
L 690.855965 235.835647 
" clip-path="url(#p464c1ad862)" style="fill: none; stroke: #484848"/>
   </g>
   <g id="line2d_20">
    <path d="M 680.689525 481.233463 
L 701.022405 481.233463 
" clip-path="url(#p464c1ad862)" style="fill: none; stroke: #484848; stroke-linecap: round"/>
   </g>
   <g id="line2d_21">
    <path d="M 680.689525 235.835647 
L 701.022405 235.835647 
" clip-path="url(#p464c1ad862)" style="fill: none; stroke: #484848; stroke-linecap: round"/>
   </g>
   <g id="patch_17">
    <path d="M 202.866845 439.550609 
L 243.532605 439.550609 
L 243.532605 365.805342 
L 202.866845 365.805342 
L 202.866845 439.550609 
z
" clip-path="url(#p464c1ad862)" style="fill: #e69e6c; stroke: #484848; stroke-linejoin: miter"/>
   </g>
   <g id="line2d_22">
    <path d="M 223.199725 439.550609 
L 223.199725 478.803476 
" clip-path="url(#p464c1ad862)" style="fill: none; stroke: #484848"/>
   </g>
   <g id="line2d_23">
    <path d="M 223.199725 365.805342 
L 223.199725 255.570537 
" clip-path="url(#p464c1ad862)" style="fill: none; stroke: #484848"/>
   </g>
   <g id="line2d_24">
    <path d="M 213.033285 478.803476 
L 233.366165 478.803476 
" clip-path="url(#p464c1ad862)" style="fill: none; stroke: #484848; stroke-linecap: round"/>
   </g>
   <g id="line2d_25">
    <path d="M 213.033285 255.570537 
L 233.366165 255.570537 
" clip-path="url(#p464c1ad862)" style="fill: none; stroke: #484848; stroke-linecap: round"/>
   </g>
   <g id="patch_18">
    <path d="M 711.188845 417.171524 
L 751.854605 417.171524 
L 751.854605 352.29594 
L 711.188845 352.29594 
L 711.188845 417.171524 
z
" clip-path="url(#p464c1ad862)" style="fill: #e69e6c; stroke: #484848; stroke-linejoin: miter"/>
   </g>
   <g id="line2d_26">
    <path d="M 731.521725 417.171524 
L 731.521725 473.969034 
" clip-path="url(#p464c1ad862)" style="fill: none; stroke: #484848"/>
   </g>
   <g id="line2d_27">
    <path d="M 731.521725 352.29594 
L 731.521725 256.292008 
" clip-path="url(#p464c1ad862)" style="fill: none; stroke: #484848"/>
   </g>
   <g id="line2d_28">
    <path d="M 721.355285 473.969034 
L 741.688165 473.969034 
" clip-path="url(#p464c1ad862)" style="fill: none; stroke: #484848; stroke-linecap: round"/>
   </g>
   <g id="line2d_29">
    <path d="M 721.355285 256.292008 
L 741.688165 256.292008 
" clip-path="url(#p464c1ad862)" style="fill: none; stroke: #484848; stroke-linecap: round"/>
   </g>
   <g id="patch_19">
    <path d="M 243.532605 440.599655 
L 284.198365 440.599655 
L 284.198365 382.390494 
L 243.532605 382.390494 
L 243.532605 440.599655 
z
" clip-path="url(#p464c1ad862)" style="fill: #edca8c; stroke: #484848; stroke-linejoin: miter"/>
   </g>
   <g id="line2d_30">
    <path d="M 263.865485 440.599655 
L 263.865485 481.400438 
" clip-path="url(#p464c1ad862)" style="fill: none; stroke: #484848"/>
   </g>
   <g id="line2d_31">
    <path d="M 263.865485 382.390494 
L 263.865485 295.909299 
" clip-path="url(#p464c1ad862)" style="fill: none; stroke: #484848"/>
   </g>
   <g id="line2d_32">
    <path d="M 253.699045 481.400438 
L 274.031925 481.400438 
" clip-path="url(#p464c1ad862)" style="fill: none; stroke: #484848; stroke-linecap: round"/>
   </g>
   <g id="line2d_33">
    <path d="M 253.699045 295.909299 
L 274.031925 295.909299 
" clip-path="url(#p464c1ad862)" style="fill: none; stroke: #484848; stroke-linecap: round"/>
   </g>
   <g id="patch_20">
    <path d="M 751.854605 428.652608 
L 792.520365 428.652608 
L 792.520365 371.751447 
L 751.854605 371.751447 
L 751.854605 428.652608 
z
" clip-path="url(#p464c1ad862)" style="fill: #edca8c; stroke: #484848; stroke-linejoin: miter"/>
   </g>
   <g id="line2d_34">
    <path d="M 772.187485 428.652608 
L 772.187485 479.855251 
" clip-path="url(#p464c1ad862)" style="fill: none; stroke: #484848"/>
   </g>
   <g id="line2d_35">
    <path d="M 772.187485 371.751447 
L 772.187485 286.500511 
" clip-path="url(#p464c1ad862)" style="fill: none; stroke: #484848"/>
   </g>
   <g id="line2d_36">
    <path d="M 762.021045 479.855251 
L 782.353925 479.855251 
" clip-path="url(#p464c1ad862)" style="fill: none; stroke: #484848; stroke-linecap: round"/>
   </g>
   <g id="line2d_37">
    <path d="M 762.021045 286.500511 
L 782.353925 286.500511 
" clip-path="url(#p464c1ad862)" style="fill: none; stroke: #484848; stroke-linecap: round"/>
   </g>
   <g id="patch_21">
    <path d="M 284.198365 448.300992 
L 324.864125 448.300992 
L 324.864125 376.731616 
L 284.198365 376.731616 
L 284.198365 448.300992 
z
" clip-path="url(#p464c1ad862)" style="fill: #f4eab2; stroke: #484848; stroke-linejoin: miter"/>
   </g>
   <g id="line2d_38">
    <path d="M 304.531245 448.300992 
L 304.531245 477.694973 
" clip-path="url(#p464c1ad862)" style="fill: none; stroke: #484848"/>
   </g>
   <g id="line2d_39">
    <path d="M 304.531245 376.731616 
L 304.531245 270.354359 
" clip-path="url(#p464c1ad862)" style="fill: none; stroke: #484848"/>
   </g>
   <g id="line2d_40">
    <path d="M 294.364805 477.694973 
L 314.697685 477.694973 
" clip-path="url(#p464c1ad862)" style="fill: none; stroke: #484848; stroke-linecap: round"/>
   </g>
   <g id="line2d_41">
    <path d="M 294.364805 270.354359 
L 314.697685 270.354359 
" clip-path="url(#p464c1ad862)" style="fill: none; stroke: #484848; stroke-linecap: round"/>
   </g>
   <g id="patch_22">
    <path d="M 792.520365 416.404211 
L 833.186125 416.404211 
L 833.186125 288.112604 
L 792.520365 288.112604 
L 792.520365 416.404211 
z
" clip-path="url(#p464c1ad862)" style="fill: #f4eab2; stroke: #484848; stroke-linejoin: miter"/>
   </g>
   <g id="line2d_42">
    <path d="M 812.853245 416.404211 
L 812.853245 477.047774 
" clip-path="url(#p464c1ad862)" style="fill: none; stroke: #484848"/>
   </g>
   <g id="line2d_43">
    <path d="M 812.853245 288.112604 
L 812.853245 97.177537 
" clip-path="url(#p464c1ad862)" style="fill: none; stroke: #484848"/>
   </g>
   <g id="line2d_44">
    <path d="M 802.686805 477.047774 
L 823.019685 477.047774 
" clip-path="url(#p464c1ad862)" style="fill: none; stroke: #484848; stroke-linecap: round"/>
   </g>
   <g id="line2d_45">
    <path d="M 802.686805 97.177537 
L 823.019685 97.177537 
" clip-path="url(#p464c1ad862)" style="fill: none; stroke: #484848; stroke-linecap: round"/>
   </g>
   <g id="patch_23">
    <path d="M 324.864125 437.323043 
L 365.529885 437.323043 
L 365.529885 346.040084 
L 324.864125 346.040084 
L 324.864125 437.323043 
z
" clip-path="url(#p464c1ad862)" style="fill: #ecf1b7; stroke: #484848; stroke-linejoin: miter"/>
   </g>
   <g id="line2d_46">
    <path d="M 345.197005 437.323043 
L 345.197005 480.054494 
" clip-path="url(#p464c1ad862)" style="fill: none; stroke: #484848"/>
   </g>
   <g id="line2d_47">
    <path d="M 345.197005 346.040084 
L 345.197005 210.107759 
" clip-path="url(#p464c1ad862)" style="fill: none; stroke: #484848"/>
   </g>
   <g id="line2d_48">
    <path d="M 335.030565 480.054494 
L 355.363445 480.054494 
" clip-path="url(#p464c1ad862)" style="fill: none; stroke: #484848; stroke-linecap: round"/>
   </g>
   <g id="line2d_49">
    <path d="M 335.030565 210.107759 
L 355.363445 210.107759 
" clip-path="url(#p464c1ad862)" style="fill: none; stroke: #484848; stroke-linecap: round"/>
   </g>
   <g id="patch_24">
    <path d="M 833.186125 402.036194 
L 873.851885 402.036194 
L 873.851885 330.231976 
L 833.186125 330.231976 
L 833.186125 402.036194 
z
" clip-path="url(#p464c1ad862)" style="fill: #ecf1b7; stroke: #484848; stroke-linejoin: miter"/>
   </g>
   <g id="line2d_50">
    <path d="M 853.519005 402.036194 
L 853.519005 471.499608 
" clip-path="url(#p464c1ad862)" style="fill: none; stroke: #484848"/>
   </g>
   <g id="line2d_51">
    <path d="M 853.519005 330.231976 
L 853.519005 222.602985 
" clip-path="url(#p464c1ad862)" style="fill: none; stroke: #484848"/>
   </g>
   <g id="line2d_52">
    <path d="M 843.352565 471.499608 
L 863.685445 471.499608 
" clip-path="url(#p464c1ad862)" style="fill: none; stroke: #484848; stroke-linecap: round"/>
   </g>
   <g id="line2d_53">
    <path d="M 843.352565 222.602985 
L 863.685445 222.602985 
" clip-path="url(#p464c1ad862)" style="fill: none; stroke: #484848; stroke-linecap: round"/>
   </g>
   <g id="patch_25">
    <path d="M 365.529885 437.438341 
L 406.195645 437.438341 
L 406.195645 290.331308 
L 365.529885 290.331308 
L 365.529885 437.438341 
z
" clip-path="url(#p464c1ad862)" style="fill: #cee2a6; stroke: #484848; stroke-linejoin: miter"/>
   </g>
   <g id="line2d_54">
    <path d="M 385.862765 437.438341 
L 385.862765 475.602458 
" clip-path="url(#p464c1ad862)" style="fill: none; stroke: #484848"/>
   </g>
   <g id="line2d_55">
    <path d="M 385.862765 290.331308 
L 385.862765 70.160438 
" clip-path="url(#p464c1ad862)" style="fill: none; stroke: #484848"/>
   </g>
   <g id="line2d_56">
    <path d="M 375.696325 475.602458 
L 396.029205 475.602458 
" clip-path="url(#p464c1ad862)" style="fill: none; stroke: #484848; stroke-linecap: round"/>
   </g>
   <g id="line2d_57">
    <path d="M 375.696325 70.160438 
L 396.029205 70.160438 
" clip-path="url(#p464c1ad862)" style="fill: none; stroke: #484848; stroke-linecap: round"/>
   </g>
   <g id="patch_26">
    <path d="M 873.851885 427.933898 
L 914.517645 427.933898 
L 914.517645 375.907024 
L 873.851885 375.907024 
L 873.851885 427.933898 
z
" clip-path="url(#p464c1ad862)" style="fill: #cee2a6; stroke: #484848; stroke-linejoin: miter"/>
   </g>
   <g id="line2d_58">
    <path d="M 894.184765 427.933898 
L 894.184765 463.322398 
" clip-path="url(#p464c1ad862)" style="fill: none; stroke: #484848"/>
   </g>
   <g id="line2d_59">
    <path d="M 894.184765 375.907024 
L 894.184765 300.452048 
" clip-path="url(#p464c1ad862)" style="fill: none; stroke: #484848"/>
   </g>
   <g id="line2d_60">
    <path d="M 884.018325 463.322398 
L 904.351205 463.322398 
" clip-path="url(#p464c1ad862)" style="fill: none; stroke: #484848; stroke-linecap: round"/>
   </g>
   <g id="line2d_61">
    <path d="M 884.018325 300.452048 
L 904.351205 300.452048 
" clip-path="url(#p464c1ad862)" style="fill: none; stroke: #484848; stroke-linecap: round"/>
   </g>
   <g id="patch_27">
    <path d="M 406.195645 440.903096 
L 446.861405 440.903096 
L 446.861405 385.382594 
L 406.195645 385.382594 
L 406.195645 440.903096 
z
" clip-path="url(#p464c1ad862)" style="fill: #9fcda9; stroke: #484848; stroke-linejoin: miter"/>
   </g>
   <g id="line2d_62">
    <path d="M 426.528525 440.903096 
L 426.528525 481.400438 
" clip-path="url(#p464c1ad862)" style="fill: none; stroke: #484848"/>
   </g>
   <g id="line2d_63">
    <path d="M 426.528525 385.382594 
L 426.528525 303.128667 
" clip-path="url(#p464c1ad862)" style="fill: none; stroke: #484848"/>
   </g>
   <g id="line2d_64">
    <path d="M 416.362085 481.400438 
L 436.694965 481.400438 
" clip-path="url(#p464c1ad862)" style="fill: none; stroke: #484848; stroke-linecap: round"/>
   </g>
   <g id="line2d_65">
    <path d="M 416.362085 303.128667 
L 436.694965 303.128667 
" clip-path="url(#p464c1ad862)" style="fill: none; stroke: #484848; stroke-linecap: round"/>
   </g>
   <g id="patch_28">
    <path d="M 914.517645 417.389791 
L 955.183405 417.389791 
L 955.183405 362.856155 
L 914.517645 362.856155 
L 914.517645 417.389791 
z
" clip-path="url(#p464c1ad862)" style="fill: #9fcda9; stroke: #484848; stroke-linejoin: miter"/>
   </g>
   <g id="line2d_66">
    <path d="M 934.850525 417.389791 
L 934.850525 471.308179 
" clip-path="url(#p464c1ad862)" style="fill: none; stroke: #484848"/>
   </g>
   <g id="line2d_67">
    <path d="M 934.850525 362.856155 
L 934.850525 281.28704 
" clip-path="url(#p464c1ad862)" style="fill: none; stroke: #484848"/>
   </g>
   <g id="line2d_68">
    <path d="M 924.684085 471.308179 
L 945.016965 471.308179 
" clip-path="url(#p464c1ad862)" style="fill: none; stroke: #484848; stroke-linecap: round"/>
   </g>
   <g id="line2d_69">
    <path d="M 924.684085 281.28704 
L 945.016965 281.28704 
" clip-path="url(#p464c1ad862)" style="fill: none; stroke: #484848; stroke-linecap: round"/>
   </g>
   <g id="patch_29">
    <path d="M 446.861405 426.321938 
L 487.527165 426.321938 
L 487.527165 340.753159 
L 446.861405 340.753159 
L 446.861405 426.321938 
z
" clip-path="url(#p464c1ad862)" style="fill: #67aba2; stroke: #484848; stroke-linejoin: miter"/>
   </g>
   <g id="line2d_70">
    <path d="M 467.194285 426.321938 
L 467.194285 476.489413 
" clip-path="url(#p464c1ad862)" style="fill: none; stroke: #484848"/>
   </g>
   <g id="line2d_71">
    <path d="M 467.194285 340.753159 
L 467.194285 212.412575 
" clip-path="url(#p464c1ad862)" style="fill: none; stroke: #484848"/>
   </g>
   <g id="line2d_72">
    <path d="M 457.027845 476.489413 
L 477.360725 476.489413 
" clip-path="url(#p464c1ad862)" style="fill: none; stroke: #484848; stroke-linecap: round"/>
   </g>
   <g id="line2d_73">
    <path d="M 457.027845 212.412575 
L 477.360725 212.412575 
" clip-path="url(#p464c1ad862)" style="fill: none; stroke: #484848; stroke-linecap: round"/>
   </g>
   <g id="patch_30">
    <path d="M 955.183405 397.757461 
L 995.849165 397.757461 
L 995.849165 326.246084 
L 955.183405 326.246084 
L 955.183405 397.757461 
z
" clip-path="url(#p464c1ad862)" style="fill: #67aba2; stroke: #484848; stroke-linejoin: miter"/>
   </g>
   <g id="line2d_74">
    <path d="M 975.516285 397.757461 
L 975.516285 474.455201 
" clip-path="url(#p464c1ad862)" style="fill: none; stroke: #484848"/>
   </g>
   <g id="line2d_75">
    <path d="M 975.516285 326.246084 
L 975.516285 220.317266 
" clip-path="url(#p464c1ad862)" style="fill: none; stroke: #484848"/>
   </g>
   <g id="line2d_76">
    <path d="M 965.349845 474.455201 
L 985.682725 474.455201 
" clip-path="url(#p464c1ad862)" style="fill: none; stroke: #484848; stroke-linecap: round"/>
   </g>
   <g id="line2d_77">
    <path d="M 965.349845 220.317266 
L 985.682725 220.317266 
" clip-path="url(#p464c1ad862)" style="fill: none; stroke: #484848; stroke-linecap: round"/>
   </g>
   <g id="patch_31">
    <path d="M 487.527165 431.815034 
L 528.192925 431.815034 
L 528.192925 326.463825 
L 487.527165 326.463825 
L 487.527165 431.815034 
z
" clip-path="url(#p464c1ad862)" style="fill: #4780aa; stroke: #484848; stroke-linejoin: miter"/>
   </g>
   <g id="line2d_78">
    <path d="M 507.860045 431.815034 
L 507.860045 476.907508 
" clip-path="url(#p464c1ad862)" style="fill: none; stroke: #484848"/>
   </g>
   <g id="line2d_79">
    <path d="M 507.860045 326.463825 
L 507.860045 170.588285 
" clip-path="url(#p464c1ad862)" style="fill: none; stroke: #484848"/>
   </g>
   <g id="line2d_80">
    <path d="M 497.693605 476.907508 
L 518.026485 476.907508 
" clip-path="url(#p464c1ad862)" style="fill: none; stroke: #484848; stroke-linecap: round"/>
   </g>
   <g id="line2d_81">
    <path d="M 497.693605 170.588285 
L 518.026485 170.588285 
" clip-path="url(#p464c1ad862)" style="fill: none; stroke: #484848; stroke-linecap: round"/>
   </g>
   <g id="patch_32">
    <path d="M 995.849165 421.522854 
L 1036.514925 421.522854 
L 1036.514925 359.051179 
L 995.849165 359.051179 
L 995.849165 421.522854 
z
" clip-path="url(#p464c1ad862)" style="fill: #4780aa; stroke: #484848; stroke-linejoin: miter"/>
   </g>
   <g id="line2d_82">
    <path d="M 1016.182045 421.522854 
L 1016.182045 476.489413 
" clip-path="url(#p464c1ad862)" style="fill: none; stroke: #484848"/>
   </g>
   <g id="line2d_83">
    <path d="M 1016.182045 359.051179 
L 1016.182045 266.428271 
" clip-path="url(#p464c1ad862)" style="fill: none; stroke: #484848"/>
   </g>
   <g id="line2d_84">
    <path d="M 1006.015605 476.489413 
L 1026.348485 476.489413 
" clip-path="url(#p464c1ad862)" style="fill: none; stroke: #484848; stroke-linecap: round"/>
   </g>
   <g id="line2d_85">
    <path d="M 1006.015605 266.428271 
L 1026.348485 266.428271 
" clip-path="url(#p464c1ad862)" style="fill: none; stroke: #484848; stroke-linecap: round"/>
   </g>
   <g id="line2d_86">
    <path d="M 121.535325 400.702262 
L 162.201085 400.702262 
" clip-path="url(#p464c1ad862)" style="fill: none; stroke: #484848"/>
   </g>
   <g id="line2d_87">
    <path d="M 629.857325 380.32199 
L 670.523085 380.32199 
" clip-path="url(#p464c1ad862)" style="fill: none; stroke: #484848"/>
   </g>
   <g id="line2d_88">
    <path d="M 162.201085 394.851665 
L 202.866845 394.851665 
" clip-path="url(#p464c1ad862)" style="fill: none; stroke: #484848"/>
   </g>
   <g id="line2d_89">
    <path d="M 670.523085 392.652798 
L 711.188845 392.652798 
" clip-path="url(#p464c1ad862)" style="fill: none; stroke: #484848"/>
   </g>
   <g id="line2d_90">
    <path d="M 202.866845 412.065324 
L 243.532605 412.065324 
" clip-path="url(#p464c1ad862)" style="fill: none; stroke: #484848"/>
   </g>
   <g id="line2d_91">
    <path d="M 711.188845 387.099094 
L 751.854605 387.099094 
" clip-path="url(#p464c1ad862)" style="fill: none; stroke: #484848"/>
   </g>
   <g id="line2d_92">
    <path d="M 243.532605 415.371473 
L 284.198365 415.371473 
" clip-path="url(#p464c1ad862)" style="fill: none; stroke: #484848"/>
   </g>
   <g id="line2d_93">
    <path d="M 751.854605 402.670733 
L 792.520365 402.670733 
" clip-path="url(#p464c1ad862)" style="fill: none; stroke: #484848"/>
   </g>
   <g id="line2d_94">
    <path d="M 284.198365 424.06099 
L 324.864125 424.06099 
" clip-path="url(#p464c1ad862)" style="fill: none; stroke: #484848"/>
   </g>
   <g id="line2d_95">
    <path d="M 792.520365 368.531034 
L 833.186125 368.531034 
" clip-path="url(#p464c1ad862)" style="fill: none; stroke: #484848"/>
   </g>
   <g id="line2d_96">
    <path d="M 324.864125 406.43691 
L 365.529885 406.43691 
" clip-path="url(#p464c1ad862)" style="fill: none; stroke: #484848"/>
   </g>
   <g id="line2d_97">
    <path d="M 833.186125 369.324474 
L 873.851885 369.324474 
" clip-path="url(#p464c1ad862)" style="fill: none; stroke: #484848"/>
   </g>
   <g id="line2d_98">
    <path d="M 365.529885 406.895781 
L 406.195645 406.895781 
" clip-path="url(#p464c1ad862)" style="fill: none; stroke: #484848"/>
   </g>
   <g id="line2d_99">
    <path d="M 873.851885 408.367532 
L 914.517645 408.367532 
" clip-path="url(#p464c1ad862)" style="fill: none; stroke: #484848"/>
   </g>
   <g id="line2d_100">
    <path d="M 406.195645 417.72365 
L 446.861405 417.72365 
" clip-path="url(#p464c1ad862)" style="fill: none; stroke: #484848"/>
   </g>
   <g id="line2d_101">
    <path d="M 914.517645 392.939953 
L 955.183405 392.939953 
" clip-path="url(#p464c1ad862)" style="fill: none; stroke: #484848"/>
   </g>
   <g id="line2d_102">
    <path d="M 446.861405 392.97634 
L 487.527165 392.97634 
" clip-path="url(#p464c1ad862)" style="fill: none; stroke: #484848"/>
   </g>
   <g id="line2d_103">
    <path d="M 955.183405 365.589824 
L 995.849165 365.589824 
" clip-path="url(#p464c1ad862)" style="fill: none; stroke: #484848"/>
   </g>
   <g id="line2d_104">
    <path d="M 487.527165 390.182308 
L 528.192925 390.182308 
" clip-path="url(#p464c1ad862)" style="fill: none; stroke: #484848"/>
   </g>
   <g id="line2d_105">
    <path d="M 995.849165 394.965939 
L 1036.514925 394.965939 
" clip-path="url(#p464c1ad862)" style="fill: none; stroke: #484848"/>
   </g>
   <g id="patch_33">
    <path d="M 70.703125 501.962438 
L 70.703125 49.598438 
" style="fill: none; stroke: #cccccc; stroke-linejoin: miter; stroke-linecap: square"/>
   </g>
   <g id="patch_34">
    <path d="M 1087.347125 501.962438 
L 1087.347125 49.598438 
" style="fill: none; stroke: #cccccc; stroke-linejoin: miter; stroke-linecap: square"/>
   </g>
   <g id="patch_35">
    <path d="M 70.703125 501.962438 
L 1087.347125 501.962438 
" style="fill: none; stroke: #cccccc; stroke-linejoin: miter; stroke-linecap: square"/>
   </g>
   <g id="patch_36">
    <path d="M 70.703125 49.598438 
L 1087.347125 49.598438 
" style="fill: none; stroke: #cccccc; stroke-linejoin: miter; stroke-linecap: square"/>
   </g>
   <g id="text_10">
    <text style="font-size: 10px; font-family: 'Arial', 'DejaVu Sans', 'Liberation Sans', 'Bitstream Vera Sans', sans-serif; text-anchor: middle; fill: #262626" x="579.025125" y="43.598438" transform="rotate(-0 579.025125 43.598438)">Distribution of distances by Level One Cell Type and region</text>
   </g>
   <g id="legend_1">
    <g id="patch_37">
     <path d="M 1093.507125 188.253438 
L 1165.092375 188.253438 
Q 1166.852375 188.253438 1166.852375 186.493438 
L 1166.852375 55.758438 
Q 1166.852375 53.998438 1165.092375 53.998438 
L 1093.507125 53.998438 
Q 1091.747125 53.998438 1091.747125 55.758438 
L 1091.747125 186.493438 
Q 1091.747125 188.253438 1093.507125 188.253438 
z
" style="fill: #ffffff; opacity: 0.8; stroke: #cccccc; stroke-width: 0.8; stroke-linejoin: miter"/>
    </g>
    <g id="patch_38">
     <path d="M 1095.267125 64.205063 
L 1112.867125 64.205063 
L 1112.867125 58.045063 
L 1095.267125 58.045063 
z
" style="fill: #bd4b5b; stroke: #484848; stroke-width: 0.8; stroke-linejoin: miter"/>
    </g>
    <g id="text_11">
     <text style="font-size: 8.8px; font-family: 'Arial', 'DejaVu Sans', 'Liberation Sans', 'Bitstream Vera Sans', sans-serif; text-anchor: start; fill: #262626" x="1119.907125" y="64.205063" transform="rotate(-0 1119.907125 64.205063)">region_1</text>
    </g>
    <g id="patch_39">
     <path d="M 1095.267125 77.366563 
L 1112.867125 77.366563 
L 1112.867125 71.206563 
L 1095.267125 71.206563 
z
" style="fill: #d9715a; stroke: #484848; stroke-width: 0.8; stroke-linejoin: miter"/>
    </g>
    <g id="text_12">
     <text style="font-size: 8.8px; font-family: 'Arial', 'DejaVu Sans', 'Liberation Sans', 'Bitstream Vera Sans', sans-serif; text-anchor: start; fill: #262626" x="1119.907125" y="77.366563" transform="rotate(-0 1119.907125 77.366563)">region_2</text>
    </g>
    <g id="patch_40">
     <path d="M 1095.267125 90.528063 
L 1112.867125 90.528063 
L 1112.867125 84.368063 
L 1095.267125 84.368063 
z
" style="fill: #e69e6c; stroke: #484848; stroke-width: 0.8; stroke-linejoin: miter"/>
    </g>
    <g id="text_13">
     <text style="font-size: 8.8px; font-family: 'Arial', 'DejaVu Sans', 'Liberation Sans', 'Bitstream Vera Sans', sans-serif; text-anchor: start; fill: #262626" x="1119.907125" y="90.528063" transform="rotate(-0 1119.907125 90.528063)">region_3</text>
    </g>
    <g id="patch_41">
     <path d="M 1095.267125 103.689563 
L 1112.867125 103.689563 
L 1112.867125 97.529563 
L 1095.267125 97.529563 
z
" style="fill: #edca8c; stroke: #484848; stroke-width: 0.8; stroke-linejoin: miter"/>
    </g>
    <g id="text_14">
     <text style="font-size: 8.8px; font-family: 'Arial', 'DejaVu Sans', 'Liberation Sans', 'Bitstream Vera Sans', sans-serif; text-anchor: start; fill: #262626" x="1119.907125" y="103.689563" transform="rotate(-0 1119.907125 103.689563)">region_4</text>
    </g>
    <g id="patch_42">
     <path d="M 1095.267125 116.851063 
L 1112.867125 116.851063 
L 1112.867125 110.691063 
L 1095.267125 110.691063 
z
" style="fill: #f4eab2; stroke: #484848; stroke-width: 0.8; stroke-linejoin: miter"/>
    </g>
    <g id="text_15">
     <text style="font-size: 8.8px; font-family: 'Arial', 'DejaVu Sans', 'Liberation Sans', 'Bitstream Vera Sans', sans-serif; text-anchor: start; fill: #262626" x="1119.907125" y="116.851063" transform="rotate(-0 1119.907125 116.851063)">region_5</text>
    </g>
    <g id="patch_43">
     <path d="M 1095.267125 130.012563 
L 1112.867125 130.012563 
L 1112.867125 123.852563 
L 1095.267125 123.852563 
z
" style="fill: #ecf1b7; stroke: #484848; stroke-width: 0.8; stroke-linejoin: miter"/>
    </g>
    <g id="text_16">
     <text style="font-size: 8.8px; font-family: 'Arial', 'DejaVu Sans', 'Liberation Sans', 'Bitstream Vera Sans', sans-serif; text-anchor: start; fill: #262626" x="1119.907125" y="130.012563" transform="rotate(-0 1119.907125 130.012563)">region_7</text>
    </g>
    <g id="patch_44">
     <path d="M 1095.267125 143.174063 
L 1112.867125 143.174063 
L 1112.867125 137.014063 
L 1095.267125 137.014063 
z
" style="fill: #cee2a6; stroke: #484848; stroke-width: 0.8; stroke-linejoin: miter"/>
    </g>
    <g id="text_17">
     <text style="font-size: 8.8px; font-family: 'Arial', 'DejaVu Sans', 'Liberation Sans', 'Bitstream Vera Sans', sans-serif; text-anchor: start; fill: #262626" x="1119.907125" y="143.174063" transform="rotate(-0 1119.907125 143.174063)">region_8</text>
    </g>
    <g id="patch_45">
     <path d="M 1095.267125 156.335563 
L 1112.867125 156.335563 
L 1112.867125 150.175563 
L 1095.267125 150.175563 
z
" style="fill: #9fcda9; stroke: #484848; stroke-width: 0.8; stroke-linejoin: miter"/>
    </g>
    <g id="text_18">
     <text style="font-size: 8.8px; font-family: 'Arial', 'DejaVu Sans', 'Liberation Sans', 'Bitstream Vera Sans', sans-serif; text-anchor: start; fill: #262626" x="1119.907125" y="156.335563" transform="rotate(-0 1119.907125 156.335563)">region_9</text>
    </g>
    <g id="patch_46">
     <path d="M 1095.267125 169.497063 
L 1112.867125 169.497063 
L 1112.867125 163.337063 
L 1095.267125 163.337063 
z
" style="fill: #67aba2; stroke: #484848; stroke-width: 0.8; stroke-linejoin: miter"/>
    </g>
    <g id="text_19">
     <text style="font-size: 8.8px; font-family: 'Arial', 'DejaVu Sans', 'Liberation Sans', 'Bitstream Vera Sans', sans-serif; text-anchor: start; fill: #262626" x="1119.907125" y="169.497063" transform="rotate(-0 1119.907125 169.497063)">region_10</text>
    </g>
    <g id="patch_47">
     <path d="M 1095.267125 182.658563 
L 1112.867125 182.658563 
L 1112.867125 176.498563 
L 1095.267125 176.498563 
z
" style="fill: #4780aa; stroke: #484848; stroke-width: 0.8; stroke-linejoin: miter"/>
    </g>
    <g id="text_20">
     <text style="font-size: 8.8px; font-family: 'Arial', 'DejaVu Sans', 'Liberation Sans', 'Bitstream Vera Sans', sans-serif; text-anchor: start; fill: #262626" x="1119.907125" y="182.658563" transform="rotate(-0 1119.907125 182.658563)">region_11</text>
    </g>
   </g>
  </g>
 </g>
 <defs>
  <clipPath id="p464c1ad862">
   <rect x="70.703125" y="49.598438" width="1016.644" height="452.364"/>
  </clipPath>
 </defs>
</svg>
