<?xml version="1.0" encoding="utf-8" standalone="no"?>
<!DOCTYPE svg PUBLIC "-//W3C//DTD SVG 1.1//EN"
  "http://www.w3.org/Graphics/SVG/1.1/DTD/svg11.dtd">
<svg xmlns:xlink="http://www.w3.org/1999/xlink" width="765.685625pt" height="1173.6pt" viewBox="0 0 765.685625 1173.6" xmlns="http://www.w3.org/2000/svg" version="1.1">
 <metadata>
  <rdf:RDF xmlns:dc="http://purl.org/dc/elements/1.1/" xmlns:cc="http://creativecommons.org/ns#" xmlns:rdf="http://www.w3.org/1999/02/22-rdf-syntax-ns#">
   <cc:Work>
    <dc:type rdf:resource="http://purl.org/dc/dcmitype/StillImage"/>
    <dc:date>2025-07-25T12:42:06.880302</dc:date>
    <dc:format>image/svg+xml</dc:format>
    <dc:creator>
     <cc:Agent>
      <dc:title>Matplotlib v3.10.3, https://matplotlib.org/</dc:title>
     </cc:Agent>
    </dc:creator>
   </cc:Work>
  </rdf:RDF>
 </metadata>
 <defs>
  <style type="text/css">*{stroke-linejoin: round; stroke-linecap: butt}</style>
 </defs>
 <g id="figure_1">
  <g id="patch_1">
   <path d="M 0 1173.6 
L 765.685625 1173.6 
L 765.685625 0 
L 0 0 
z
" style="fill: #ffffff"/>
  </g>
  <g id="axes_1">
   <g id="patch_2">
    <path d="M 78.265625 543.17 
L 729.685625 543.17 
L 729.685625 86.28 
L 78.265625 86.28 
z
" style="fill: #ffffff"/>
   </g>
   <g id="matplotlib.axis_1">
    <g id="xtick_1"/>
    <g id="xtick_2"/>
    <g id="xtick_3"/>
   </g>
   <g id="matplotlib.axis_2">
    <g id="ytick_1">
     <g id="line2d_1">
      <path d="M 78.265625 525.248793 
L 729.685625 525.248793 
" clip-path="url(#pd89d5f615d)" style="fill: none; stroke: #cccccc; stroke-linecap: round"/>
     </g>
     <g id="text_1">
      <text style="font-size: 10px; font-family: 'Arial', 'DejaVu Sans', 'Liberation Sans', 'Bitstream Vera Sans', sans-serif; text-anchor: end; fill: #262626" x="68.765625" y="529.048012" transform="rotate(-0 68.765625 529.048012)">0</text>
     </g>
    </g>
    <g id="ytick_2">
     <g id="line2d_2">
      <path d="M 78.265625 474.267476 
L 729.685625 474.267476 
" clip-path="url(#pd89d5f615d)" style="fill: none; stroke: #cccccc; stroke-linecap: round"/>
     </g>
     <g id="text_2">
      <text style="font-size: 10px; font-family: 'Arial', 'DejaVu Sans', 'Liberation Sans', 'Bitstream Vera Sans', sans-serif; text-anchor: end; fill: #262626" x="68.765625" y="478.066695" transform="rotate(-0 68.765625 478.066695)">20</text>
     </g>
    </g>
    <g id="ytick_3">
     <g id="line2d_3">
      <path d="M 78.265625 423.286159 
L 729.685625 423.286159 
" clip-path="url(#pd89d5f615d)" style="fill: none; stroke: #cccccc; stroke-linecap: round"/>
     </g>
     <g id="text_3">
      <text style="font-size: 10px; font-family: 'Arial', 'DejaVu Sans', 'Liberation Sans', 'Bitstream Vera Sans', sans-serif; text-anchor: end; fill: #262626" x="68.765625" y="427.085377" transform="rotate(-0 68.765625 427.085377)">40</text>
     </g>
    </g>
    <g id="ytick_4">
     <g id="line2d_4">
      <path d="M 78.265625 372.304841 
L 729.685625 372.304841 
" clip-path="url(#pd89d5f615d)" style="fill: none; stroke: #cccccc; stroke-linecap: round"/>
     </g>
     <g id="text_4">
      <text style="font-size: 10px; font-family: 'Arial', 'DejaVu Sans', 'Liberation Sans', 'Bitstream Vera Sans', sans-serif; text-anchor: end; fill: #262626" x="68.765625" y="376.10406" transform="rotate(-0 68.765625 376.10406)">60</text>
     </g>
    </g>
    <g id="ytick_5">
     <g id="line2d_5">
      <path d="M 78.265625 321.323524 
L 729.685625 321.323524 
" clip-path="url(#pd89d5f615d)" style="fill: none; stroke: #cccccc; stroke-linecap: round"/>
     </g>
     <g id="text_5">
      <text style="font-size: 10px; font-family: 'Arial', 'DejaVu Sans', 'Liberation Sans', 'Bitstream Vera Sans', sans-serif; text-anchor: end; fill: #262626" x="68.765625" y="325.122743" transform="rotate(-0 68.765625 325.122743)">80</text>
     </g>
    </g>
    <g id="ytick_6">
     <g id="line2d_6">
      <path d="M 78.265625 270.342207 
L 729.685625 270.342207 
" clip-path="url(#pd89d5f615d)" style="fill: none; stroke: #cccccc; stroke-linecap: round"/>
     </g>
     <g id="text_6">
      <text style="font-size: 10px; font-family: 'Arial', 'DejaVu Sans', 'Liberation Sans', 'Bitstream Vera Sans', sans-serif; text-anchor: end; fill: #262626" x="68.765625" y="274.141426" transform="rotate(-0 68.765625 274.141426)">100</text>
     </g>
    </g>
    <g id="ytick_7">
     <g id="line2d_7">
      <path d="M 78.265625 219.36089 
L 729.685625 219.36089 
" clip-path="url(#pd89d5f615d)" style="fill: none; stroke: #cccccc; stroke-linecap: round"/>
     </g>
     <g id="text_7">
      <text style="font-size: 10px; font-family: 'Arial', 'DejaVu Sans', 'Liberation Sans', 'Bitstream Vera Sans', sans-serif; text-anchor: end; fill: #262626" x="68.765625" y="223.160108" transform="rotate(-0 68.765625 223.160108)">120</text>
     </g>
    </g>
    <g id="ytick_8">
     <g id="line2d_8">
      <path d="M 78.265625 168.379572 
L 729.685625 168.379572 
" clip-path="url(#pd89d5f615d)" style="fill: none; stroke: #cccccc; stroke-linecap: round"/>
     </g>
     <g id="text_8">
      <text style="font-size: 10px; font-family: 'Arial', 'DejaVu Sans', 'Liberation Sans', 'Bitstream Vera Sans', sans-serif; text-anchor: end; fill: #262626" x="68.765625" y="172.178791" transform="rotate(-0 68.765625 172.178791)">140</text>
     </g>
    </g>
    <g id="ytick_9">
     <g id="line2d_9">
      <path d="M 78.265625 117.398255 
L 729.685625 117.398255 
" clip-path="url(#pd89d5f615d)" style="fill: none; stroke: #cccccc; stroke-linecap: round"/>
     </g>
     <g id="text_9">
      <text style="font-size: 10px; font-family: 'Arial', 'DejaVu Sans', 'Liberation Sans', 'Bitstream Vera Sans', sans-serif; text-anchor: end; fill: #262626" x="68.765625" y="121.197474" transform="rotate(-0 68.765625 121.197474)">160</text>
     </g>
    </g>
    <g id="text_10">
     <text style="font-size: 10px; font-family: 'Arial', 'DejaVu Sans', 'Liberation Sans', 'Bitstream Vera Sans', sans-serif; text-anchor: middle; fill: #262626" x="43.598437" y="314.725" transform="rotate(-90 43.598437 314.725)">Distance (μm)</text>
    </g>
   </g>
   <g id="FillBetweenPolyCollection_1">
    <defs>
     <path id="m4c9e2cd6eb" d="M 186.904912 -655.883617 
L 186.766338 -655.883617 
L 186.762268 -657.030418 
L 186.758353 -658.177219 
L 186.754638 -659.32402 
L 186.751169 -660.470821 
L 186.74799 -661.617622 
L 186.745142 -662.764423 
L 186.742662 -663.911224 
L 186.740583 -665.058025 
L 186.738933 -666.204826 
L 186.737735 -667.351627 
L 186.737002 -668.498428 
L 186.736745 -669.645229 
L 186.736965 -670.79203 
L 186.737658 -671.93883 
L 186.738811 -673.085631 
L 186.740405 -674.232432 
L 186.742415 -675.379233 
L 186.744811 -676.526034 
L 186.747556 -677.672835 
L 186.750611 -678.819636 
L 186.75393 -679.966437 
L 186.757468 -681.113238 
L 186.761177 -682.260039 
L 186.765008 -683.40684 
L 186.768913 -684.553641 
L 186.772845 -685.700442 
L 186.776759 -686.847243 
L 186.780614 -687.994044 
L 186.784373 -689.140845 
L 186.788001 -690.287646 
L 186.791471 -691.434447 
L 186.794759 -692.581247 
L 186.797846 -693.728048 
L 186.800719 -694.874849 
L 186.803371 -696.02165 
L 186.805799 -697.168451 
L 186.808003 -698.315252 
L 186.809989 -699.462053 
L 186.811766 -700.608854 
L 186.813345 -701.755655 
L 186.814741 -702.902456 
L 186.815969 -704.049257 
L 186.817047 -705.196058 
L 186.817991 -706.342859 
L 186.818819 -707.48966 
L 186.819547 -708.636461 
L 186.820194 -709.783262 
L 186.820772 -710.930063 
L 186.821297 -712.076864 
L 186.82178 -713.223664 
L 186.822233 -714.370465 
L 186.822664 -715.517266 
L 186.82308 -716.664067 
L 186.823488 -717.810868 
L 186.823892 -718.957669 
L 186.824294 -720.10447 
L 186.824696 -721.251271 
L 186.825098 -722.398072 
L 186.825501 -723.544873 
L 186.825901 -724.691674 
L 186.826298 -725.838475 
L 186.826688 -726.985276 
L 186.827067 -728.132077 
L 186.827434 -729.278878 
L 186.827783 -730.425679 
L 186.828111 -731.57248 
L 186.828414 -732.719281 
L 186.82869 -733.866082 
L 186.828933 -735.012882 
L 186.829142 -736.159683 
L 186.829315 -737.306484 
L 186.829449 -738.453285 
L 186.829543 -739.600086 
L 186.829598 -740.746887 
L 186.829613 -741.893688 
L 186.829589 -743.040489 
L 186.829529 -744.18729 
L 186.829435 -745.334091 
L 186.82931 -746.480892 
L 186.829159 -747.627693 
L 186.828986 -748.774494 
L 186.828796 -749.921295 
L 186.828594 -751.068096 
L 186.828388 -752.214897 
L 186.828182 -753.361698 
L 186.827982 -754.508499 
L 186.827794 -755.655299 
L 186.827623 -756.8021 
L 186.827476 -757.948901 
L 186.827355 -759.095702 
L 186.827266 -760.242503 
L 186.827212 -761.389304 
L 186.827194 -762.536105 
L 186.827216 -763.682906 
L 186.827278 -764.829707 
L 186.82738 -765.976508 
L 186.827522 -767.123309 
L 186.827702 -768.27011 
L 186.827918 -769.416911 
L 186.843332 -769.416911 
L 186.843332 -769.416911 
L 186.843548 -768.27011 
L 186.843728 -767.123309 
L 186.84387 -765.976508 
L 186.843972 -764.829707 
L 186.844034 -763.682906 
L 186.844056 -762.536105 
L 186.844038 -761.389304 
L 186.843984 -760.242503 
L 186.843895 -759.095702 
L 186.843774 -757.948901 
L 186.843627 -756.8021 
L 186.843456 -755.655299 
L 186.843268 -754.508499 
L 186.843068 -753.361698 
L 186.842862 -752.214897 
L 186.842656 -751.068096 
L 186.842454 -749.921295 
L 186.842264 -748.774494 
L 186.842091 -747.627693 
L 186.84194 -746.480892 
L 186.841815 -745.334091 
L 186.841721 -744.18729 
L 186.841661 -743.040489 
L 186.841637 -741.893688 
L 186.841652 -740.746887 
L 186.841707 -739.600086 
L 186.841801 -738.453285 
L 186.841935 -737.306484 
L 186.842108 -736.159683 
L 186.842317 -735.012882 
L 186.84256 -733.866082 
L 186.842836 -732.719281 
L 186.843139 -731.57248 
L 186.843467 -730.425679 
L 186.843816 -729.278878 
L 186.844183 -728.132077 
L 186.844562 -726.985276 
L 186.844952 -725.838475 
L 186.845349 -724.691674 
L 186.845749 -723.544873 
L 186.846152 -722.398072 
L 186.846554 -721.251271 
L 186.846956 -720.10447 
L 186.847358 -718.957669 
L 186.847762 -717.810868 
L 186.84817 -716.664067 
L 186.848586 -715.517266 
L 186.849017 -714.370465 
L 186.84947 -713.223664 
L 186.849953 -712.076864 
L 186.850478 -710.930063 
L 186.851056 -709.783262 
L 186.851703 -708.636461 
L 186.852431 -707.48966 
L 186.853259 -706.342859 
L 186.854203 -705.196058 
L 186.855281 -704.049257 
L 186.856509 -702.902456 
L 186.857905 -701.755655 
L 186.859484 -700.608854 
L 186.861261 -699.462053 
L 186.863247 -698.315252 
L 186.865451 -697.168451 
L 186.867879 -696.02165 
L 186.870531 -694.874849 
L 186.873404 -693.728048 
L 186.876491 -692.581247 
L 186.879779 -691.434447 
L 186.883249 -690.287646 
L 186.886877 -689.140845 
L 186.890636 -687.994044 
L 186.894491 -686.847243 
L 186.898405 -685.700442 
L 186.902337 -684.553641 
L 186.906242 -683.40684 
L 186.910073 -682.260039 
L 186.913782 -681.113238 
L 186.91732 -679.966437 
L 186.920639 -678.819636 
L 186.923694 -677.672835 
L 186.926439 -676.526034 
L 186.928835 -675.379233 
L 186.930845 -674.232432 
L 186.932439 -673.085631 
L 186.933592 -671.93883 
L 186.934285 -670.79203 
L 186.934505 -669.645229 
L 186.934248 -668.498428 
L 186.933515 -667.351627 
L 186.932317 -666.204826 
L 186.930667 -665.058025 
L 186.928588 -663.911224 
L 186.926108 -662.764423 
L 186.92326 -661.617622 
L 186.920081 -660.470821 
L 186.916612 -659.32402 
L 186.912897 -658.177219 
L 186.908982 -657.030418 
L 186.904912 -655.883617 
z
" style="stroke: #636363; stroke-opacity: 0.9; stroke-width: 1.25"/>
    </defs>
    <g clip-path="url(#pd89d5f615d)">
     <use xlink:href="#m4c9e2cd6eb" x="0" y="1173.6" style="fill: #e49467; fill-opacity: 0.9; stroke: #636363; stroke-opacity: 0.9; stroke-width: 1.25"/>
    </g>
   </g>
   <g id="FillBetweenPolyCollection_2">
    <defs>
     <path id="m3fb6b507c8" d="M 416.98465 -653.03388 
L 390.9666 -653.03388 
L 377.401887 -657.045975 
L 363.405223 -661.058069 
L 354.252357 -665.070164 
L 351.477053 -669.082259 
L 353.37147 -673.094353 
L 357.535206 -677.106448 
L 362.391704 -681.118543 
L 367.384558 -685.130638 
L 372.228115 -689.142732 
L 376.489047 -693.154827 
L 380.087278 -697.166922 
L 383.367892 -701.179016 
L 386.510992 -705.191111 
L 389.33202 -709.203206 
L 391.620764 -713.215301 
L 393.441294 -717.227395 
L 394.943753 -721.23949 
L 396.159424 -725.251585 
L 397.132426 -729.263679 
L 397.933199 -733.275774 
L 398.607792 -737.287869 
L 399.203577 -741.299964 
L 399.749693 -745.312058 
L 400.225788 -749.324153 
L 400.594869 -753.336248 
L 400.849003 -757.348342 
L 401.018254 -761.360437 
L 401.185915 -765.372532 
L 401.439344 -769.384627 
L 401.754709 -773.396721 
L 402.02129 -777.408816 
L 402.204725 -781.420911 
L 402.3749 -785.433005 
L 402.5709 -789.4451 
L 402.75486 -793.457195 
L 402.884715 -797.46929 
L 402.972968 -801.481384 
L 403.064724 -805.493479 
L 403.190374 -809.505574 
L 403.338709 -813.517668 
L 403.462354 -817.529763 
L 403.536888 -821.541858 
L 403.575506 -825.553953 
L 403.598023 -829.566047 
L 403.625176 -833.578142 
L 403.670516 -837.590237 
L 403.717344 -841.602332 
L 403.726718 -845.614426 
L 403.69267 -849.626521 
L 403.657409 -853.638616 
L 403.649123 -857.65071 
L 403.662521 -861.662805 
L 403.692555 -865.6749 
L 403.727833 -869.686995 
L 403.746923 -873.699089 
L 403.74689 -877.711184 
L 403.742051 -881.723279 
L 403.739166 -885.735373 
L 403.744656 -889.747468 
L 403.774488 -893.759563 
L 403.826198 -897.771658 
L 403.865507 -901.783752 
L 403.86342 -905.795847 
L 403.830077 -909.807942 
L 403.798981 -913.820036 
L 403.787602 -917.832131 
L 403.793015 -921.844226 
L 403.813689 -925.856321 
L 403.843529 -929.868415 
L 403.861927 -933.88051 
L 403.861048 -937.892605 
L 403.851153 -941.904699 
L 403.8313 -945.916794 
L 403.796032 -949.928889 
L 403.767564 -953.940984 
L 403.784125 -957.953078 
L 403.84578 -961.965173 
L 403.909362 -965.977268 
L 403.944004 -969.989362 
L 403.953679 -974.001457 
L 403.952638 -978.013552 
L 403.94778 -982.025647 
L 403.942989 -986.037741 
L 403.942429 -990.049836 
L 403.943956 -994.061931 
L 403.938464 -998.074025 
L 403.921614 -1002.08612 
L 403.905251 -1006.098215 
L 403.905418 -1010.11031 
L 403.914995 -1014.122404 
L 403.913949 -1018.134499 
L 403.90389 -1022.146594 
L 403.904695 -1026.158688 
L 403.924147 -1030.170783 
L 403.949192 -1034.182878 
L 403.963902 -1038.194973 
L 403.964033 -1042.207067 
L 403.956672 -1046.219162 
L 403.954017 -1050.231257 
L 403.997233 -1050.231257 
L 403.997233 -1050.231257 
L 403.994578 -1046.219162 
L 403.987217 -1042.207067 
L 403.987348 -1038.194973 
L 404.002058 -1034.182878 
L 404.027103 -1030.170783 
L 404.046555 -1026.158688 
L 404.04736 -1022.146594 
L 404.037301 -1018.134499 
L 404.036255 -1014.122404 
L 404.045832 -1010.11031 
L 404.045999 -1006.098215 
L 404.029636 -1002.08612 
L 404.012786 -998.074025 
L 404.007294 -994.061931 
L 404.008821 -990.049836 
L 404.008261 -986.037741 
L 404.00347 -982.025647 
L 403.998612 -978.013552 
L 403.997571 -974.001457 
L 404.007246 -969.989362 
L 404.041888 -965.977268 
L 404.10547 -961.965173 
L 404.167125 -957.953078 
L 404.183686 -953.940984 
L 404.155218 -949.928889 
L 404.11995 -945.916794 
L 404.100097 -941.904699 
L 404.090202 -937.892605 
L 404.089323 -933.88051 
L 404.107721 -929.868415 
L 404.137561 -925.856321 
L 404.158235 -921.844226 
L 404.163648 -917.832131 
L 404.152269 -913.820036 
L 404.121173 -909.807942 
L 404.08783 -905.795847 
L 404.085743 -901.783752 
L 404.125052 -897.771658 
L 404.176762 -893.759563 
L 404.206594 -889.747468 
L 404.212084 -885.735373 
L 404.209199 -881.723279 
L 404.20436 -877.711184 
L 404.204327 -873.699089 
L 404.223417 -869.686995 
L 404.258695 -865.6749 
L 404.288729 -861.662805 
L 404.302127 -857.65071 
L 404.293841 -853.638616 
L 404.25858 -849.626521 
L 404.224532 -845.614426 
L 404.233906 -841.602332 
L 404.280734 -837.590237 
L 404.326074 -833.578142 
L 404.353227 -829.566047 
L 404.375744 -825.553953 
L 404.414362 -821.541858 
L 404.488896 -817.529763 
L 404.612541 -813.517668 
L 404.760876 -809.505574 
L 404.886526 -805.493479 
L 404.978282 -801.481384 
L 405.066535 -797.46929 
L 405.19639 -793.457195 
L 405.38035 -789.4451 
L 405.57635 -785.433005 
L 405.746525 -781.420911 
L 405.92996 -777.408816 
L 406.196541 -773.396721 
L 406.511906 -769.384627 
L 406.765335 -765.372532 
L 406.932996 -761.360437 
L 407.102247 -757.348342 
L 407.356381 -753.336248 
L 407.725462 -749.324153 
L 408.201557 -745.312058 
L 408.747673 -741.299964 
L 409.343458 -737.287869 
L 410.018051 -733.275774 
L 410.818824 -729.263679 
L 411.791826 -725.251585 
L 413.007497 -721.23949 
L 414.509956 -717.227395 
L 416.330486 -713.215301 
L 418.61923 -709.203206 
L 421.440258 -705.191111 
L 424.583358 -701.179016 
L 427.863972 -697.166922 
L 431.462203 -693.154827 
L 435.723135 -689.142732 
L 440.566692 -685.130638 
L 445.559546 -681.118543 
L 450.416044 -677.106448 
L 454.57978 -673.094353 
L 456.474197 -669.082259 
L 453.698893 -665.070164 
L 444.546027 -661.058069 
L 430.549363 -657.045975 
L 416.98465 -653.03388 
z
" style="stroke: #636363; stroke-opacity: 0.9; stroke-width: 1.25"/>
    </defs>
    <g clip-path="url(#pd89d5f615d)">
     <use xlink:href="#m3fb6b507c8" x="0" y="1173.6" style="fill: #f7f7c6; fill-opacity: 0.9; stroke: #636363; stroke-opacity: 0.9; stroke-width: 1.25"/>
    </g>
   </g>
   <g id="FillBetweenPolyCollection_3">
    <defs>
     <path id="mea61319e53" d="M 639.450173 -651.197727 
L 602.781077 -651.197727 
L 593.675312 -655.393228 
L 583.813162 -659.588728 
L 574.51661 -663.784229 
L 566.870491 -667.979729 
L 561.33184 -672.17523 
L 557.677971 -676.37073 
L 555.25566 -680.56623 
L 553.331078 -684.761731 
L 551.353812 -688.957231 
L 549.062707 -693.152732 
L 546.462489 -697.348232 
L 543.73615 -701.543733 
L 541.141447 -705.739233 
L 538.91227 -709.934734 
L 537.180534 -714.130234 
L 535.94539 -718.325735 
L 535.109059 -722.521235 
L 534.56118 -726.716736 
L 534.259625 -730.912236 
L 534.260315 -735.107736 
L 534.683874 -739.303237 
L 535.641852 -743.498737 
L 537.163094 -747.694238 
L 539.160477 -751.889738 
L 541.457403 -756.085239 
L 543.859115 -760.280739 
L 546.229587 -764.47624 
L 548.535684 -768.67174 
L 550.838255 -772.867241 
L 553.234742 -777.062741 
L 555.785637 -781.258242 
L 558.470855 -785.453742 
L 561.201046 -789.649242 
L 563.866676 -793.844743 
L 566.385841 -798.040243 
L 568.726781 -802.235744 
L 570.907156 -806.431244 
L 572.981822 -810.626745 
L 575.025092 -814.822245 
L 577.108055 -819.017746 
L 579.273364 -823.213246 
L 581.515525 -827.408747 
L 583.778574 -831.604247 
L 585.978698 -835.799747 
L 588.043362 -839.995248 
L 589.941173 -844.190748 
L 591.679166 -848.386249 
L 593.272065 -852.581749 
L 594.71578 -856.77725 
L 595.992918 -860.97275 
L 597.103169 -865.168251 
L 598.084164 -869.363751 
L 598.998779 -873.559252 
L 599.899461 -877.754752 
L 600.799817 -881.950253 
L 601.671877 -886.145753 
L 602.46459 -890.341253 
L 603.129494 -894.536754 
L 603.642749 -898.732254 
L 604.016152 -902.927755 
L 604.291983 -907.123255 
L 604.524207 -911.318756 
L 604.758594 -915.514256 
L 605.024575 -919.709757 
L 605.339865 -923.905257 
L 605.717859 -928.100758 
L 606.16917 -932.296258 
L 606.697789 -936.491758 
L 607.297021 -940.687259 
L 607.948076 -944.882759 
L 608.62219 -949.07826 
L 609.287512 -953.27376 
L 609.919389 -957.469261 
L 610.507158 -961.664761 
L 611.051228 -965.860262 
L 611.553536 -970.055762 
L 612.011756 -974.251263 
L 612.423163 -978.446763 
L 612.793109 -982.642264 
L 613.138577 -986.837764 
L 613.483094 -991.033264 
L 613.847567 -995.228765 
L 614.243299 -999.424265 
L 614.66931 -1003.619766 
L 615.113165 -1007.815266 
L 615.55534 -1012.010767 
L 615.976958 -1016.206267 
L 616.36744 -1020.401768 
L 616.727099 -1024.597268 
L 617.064008 -1028.792769 
L 617.389799 -1032.988269 
L 617.718384 -1037.18377 
L 618.0655 -1041.37927 
L 618.444271 -1045.57477 
L 618.857024 -1049.770271 
L 619.289957 -1053.965771 
L 619.716167 -1058.161272 
L 620.105284 -1062.356772 
L 620.433271 -1066.552273 
L 621.797979 -1066.552273 
L 621.797979 -1066.552273 
L 622.125966 -1062.356772 
L 622.515083 -1058.161272 
L 622.941293 -1053.965771 
L 623.374226 -1049.770271 
L 623.786979 -1045.57477 
L 624.16575 -1041.37927 
L 624.512866 -1037.18377 
L 624.841451 -1032.988269 
L 625.167242 -1028.792769 
L 625.504151 -1024.597268 
L 625.86381 -1020.401768 
L 626.254292 -1016.206267 
L 626.67591 -1012.010767 
L 627.118085 -1007.815266 
L 627.56194 -1003.619766 
L 627.987951 -999.424265 
L 628.383683 -995.228765 
L 628.748156 -991.033264 
L 629.092673 -986.837764 
L 629.438141 -982.642264 
L 629.808087 -978.446763 
L 630.219494 -974.251263 
L 630.677714 -970.055762 
L 631.180022 -965.860262 
L 631.724092 -961.664761 
L 632.311861 -957.469261 
L 632.943738 -953.27376 
L 633.60906 -949.07826 
L 634.283174 -944.882759 
L 634.934229 -940.687259 
L 635.533461 -936.491758 
L 636.06208 -932.296258 
L 636.513391 -928.100758 
L 636.891385 -923.905257 
L 637.206675 -919.709757 
L 637.472656 -915.514256 
L 637.707043 -911.318756 
L 637.939267 -907.123255 
L 638.215098 -902.927755 
L 638.588501 -898.732254 
L 639.101756 -894.536754 
L 639.76666 -890.341253 
L 640.559373 -886.145753 
L 641.431433 -881.950253 
L 642.331789 -877.754752 
L 643.232471 -873.559252 
L 644.147086 -869.363751 
L 645.128081 -865.168251 
L 646.238332 -860.97275 
L 647.51547 -856.77725 
L 648.959185 -852.581749 
L 650.552084 -848.386249 
L 652.290077 -844.190748 
L 654.187888 -839.995248 
L 656.252552 -835.799747 
L 658.452676 -831.604247 
L 660.715725 -827.408747 
L 662.957886 -823.213246 
L 665.123195 -819.017746 
L 667.206158 -814.822245 
L 669.249428 -810.626745 
L 671.324094 -806.431244 
L 673.504469 -802.235744 
L 675.845409 -798.040243 
L 678.364574 -793.844743 
L 681.030204 -789.649242 
L 683.760395 -785.453742 
L 686.445613 -781.258242 
L 688.996508 -777.062741 
L 691.392995 -772.867241 
L 693.695566 -768.67174 
L 696.001663 -764.47624 
L 698.372135 -760.280739 
L 700.773847 -756.085239 
L 703.070773 -751.889738 
L 705.068156 -747.694238 
L 706.589398 -743.498737 
L 707.547376 -739.303237 
L 707.970935 -735.107736 
L 707.971625 -730.912236 
L 707.67007 -726.716736 
L 707.122191 -722.521235 
L 706.28586 -718.325735 
L 705.050716 -714.130234 
L 703.31898 -709.934734 
L 701.089803 -705.739233 
L 698.4951 -701.543733 
L 695.768761 -697.348232 
L 693.168543 -693.152732 
L 690.877438 -688.957231 
L 688.900172 -684.761731 
L 686.97559 -680.56623 
L 684.553279 -676.37073 
L 680.89941 -672.17523 
L 675.360759 -667.979729 
L 667.71464 -663.784229 
L 658.418088 -659.588728 
L 648.555938 -655.393228 
L 639.450173 -651.197727 
z
" style="stroke: #636363; stroke-opacity: 0.9; stroke-width: 1.25"/>
    </defs>
    <g clip-path="url(#pd89d5f615d)">
     <use xlink:href="#mea61319e53" x="0" y="1173.6" style="fill: #90c6a6; fill-opacity: 0.9; stroke: #636363; stroke-opacity: 0.9; stroke-width: 1.25"/>
    </g>
   </g>
   <g id="line2d_10">
    <path d="M 186.835625 517.716383 
L 186.835625 489.276978 
" clip-path="url(#pd89d5f615d)" style="fill: none; stroke: #636363; stroke-width: 1.875; stroke-linecap: round"/>
   </g>
   <g id="line2d_11">
    <path d="M 186.835625 509.491306 
L 186.835625 495.712987 
" clip-path="url(#pd89d5f615d)" style="fill: none; stroke: #636363; stroke-width: 5.625; stroke-linecap: round"/>
   </g>
   <g id="line2d_12">
    <path d="M 186.835625 501.907285 
" clip-path="url(#pd89d5f615d)" style="fill: none; stroke: #636363; stroke-width: 1.5; stroke-linecap: round"/>
    <defs>
     <path id="m03031166f0" d="M 2.34375 0 
L -2.34375 -0 
" style="stroke: #ffffff; stroke-width: 1.125"/>
    </defs>
    <g clip-path="url(#pd89d5f615d)">
     <use xlink:href="#m03031166f0" x="186.835625" y="501.907285" style="fill: #ffffff; stroke: #ffffff; stroke-width: 1.125"/>
    </g>
   </g>
   <g id="line2d_13">
    <path d="M 403.975625 520.56612 
L 403.975625 424.838353 
" clip-path="url(#pd89d5f615d)" style="fill: none; stroke: #636363; stroke-width: 1.875; stroke-linecap: round"/>
   </g>
   <g id="line2d_14">
    <path d="M 403.975625 505.244172 
L 403.975625 473.069902 
" clip-path="url(#pd89d5f615d)" style="fill: none; stroke: #636363; stroke-width: 5.625; stroke-linecap: round"/>
   </g>
   <g id="line2d_15">
    <path d="M 403.975625 493.159254 
" clip-path="url(#pd89d5f615d)" style="fill: none; stroke: #636363; stroke-width: 1.5; stroke-linecap: round"/>
    <g clip-path="url(#pd89d5f615d)">
     <use xlink:href="#m03031166f0" x="403.975625" y="493.159254" style="fill: #ffffff; stroke: #ffffff; stroke-width: 1.125"/>
    </g>
   </g>
   <g id="line2d_16">
    <path d="M 621.115625 522.402273 
L 621.115625 200.195803 
" clip-path="url(#pd89d5f615d)" style="fill: none; stroke: #636363; stroke-width: 1.875; stroke-linecap: round"/>
   </g>
   <g id="line2d_17">
    <path d="M 621.115625 461.946918 
L 621.115625 357.201079 
" clip-path="url(#pd89d5f615d)" style="fill: none; stroke: #636363; stroke-width: 5.625; stroke-linecap: round"/>
   </g>
   <g id="line2d_18">
    <path d="M 621.115625 418.233855 
" clip-path="url(#pd89d5f615d)" style="fill: none; stroke: #636363; stroke-width: 1.5; stroke-linecap: round"/>
    <g clip-path="url(#pd89d5f615d)">
     <use xlink:href="#m03031166f0" x="621.115625" y="418.233855" style="fill: #ffffff; stroke: #ffffff; stroke-width: 1.125"/>
    </g>
   </g>
   <g id="patch_3">
    <path d="M 78.265625 543.17 
L 78.265625 86.28 
" style="fill: none; stroke: #cccccc; stroke-width: 1.25; stroke-linejoin: miter; stroke-linecap: square"/>
   </g>
   <g id="patch_4">
    <path d="M 729.685625 543.17 
L 729.685625 86.28 
" style="fill: none; stroke: #cccccc; stroke-width: 1.25; stroke-linejoin: miter; stroke-linecap: square"/>
   </g>
   <g id="patch_5">
    <path d="M 78.265625 543.17 
L 729.685625 543.17 
" style="fill: none; stroke: #cccccc; stroke-width: 1.25; stroke-linejoin: miter; stroke-linecap: square"/>
   </g>
   <g id="patch_6">
    <path d="M 78.265625 86.28 
L 729.685625 86.28 
" style="fill: none; stroke: #cccccc; stroke-width: 1.25; stroke-linejoin: miter; stroke-linecap: square"/>
   </g>
   <g id="text_11">
    <text style="font-size: 10px; font-family: 'Arial', 'DejaVu Sans', 'Liberation Sans', 'Bitstream Vera Sans', sans-serif; text-anchor: middle; fill: #262626" x="403.975625" y="80.28" transform="rotate(-0 403.975625 80.28)">Invasive Margin</text>
   </g>
  </g>
  <g id="axes_2">
   <g id="patch_7">
    <path d="M 78.265625 1026.94 
L 729.685625 1026.94 
L 729.685625 570.05 
L 78.265625 570.05 
z
" style="fill: #ffffff"/>
   </g>
   <g id="matplotlib.axis_3">
    <g id="xtick_4">
     <g id="text_12">
      <text style="font-size: 10px; font-family: 'Arial', 'DejaVu Sans', 'Liberation Sans', 'Bitstream Vera Sans', sans-serif; fill: #262626" transform="translate(184.755937 1102.979063) rotate(-90)">epithelial cell</text>
     </g>
    </g>
    <g id="xtick_5">
     <g id="text_13">
      <text style="font-size: 10px; font-family: 'Arial', 'DejaVu Sans', 'Liberation Sans', 'Bitstream Vera Sans', sans-serif; fill: #262626" transform="translate(401.895938 1097.913438) rotate(-90)">immune cell</text>
     </g>
    </g>
    <g id="xtick_6">
     <g id="text_14">
      <text style="font-size: 10px; font-family: 'Arial', 'DejaVu Sans', 'Liberation Sans', 'Bitstream Vera Sans', sans-serif; fill: #262626" transform="translate(619.035937 1102.263438) rotate(-90)">unknown cell</text>
     </g>
    </g>
   </g>
   <g id="matplotlib.axis_4">
    <g id="ytick_10">
     <g id="line2d_19">
      <path d="M 78.265625 1012.089192 
L 729.685625 1012.089192 
" clip-path="url(#p5bfba6c8ad)" style="fill: none; stroke: #cccccc; stroke-linecap: round"/>
     </g>
     <g id="text_15">
      <text style="font-size: 10px; font-family: 'Arial', 'DejaVu Sans', 'Liberation Sans', 'Bitstream Vera Sans', sans-serif; text-anchor: end; fill: #262626" x="68.765625" y="1015.888411" transform="rotate(-0 68.765625 1015.888411)">0</text>
     </g>
    </g>
    <g id="ytick_11">
     <g id="line2d_20">
      <path d="M 78.265625 948.380353 
L 729.685625 948.380353 
" clip-path="url(#p5bfba6c8ad)" style="fill: none; stroke: #cccccc; stroke-linecap: round"/>
     </g>
     <g id="text_16">
      <text style="font-size: 10px; font-family: 'Arial', 'DejaVu Sans', 'Liberation Sans', 'Bitstream Vera Sans', sans-serif; text-anchor: end; fill: #262626" x="68.765625" y="952.179571" transform="rotate(-0 68.765625 952.179571)">20</text>
     </g>
    </g>
    <g id="ytick_12">
     <g id="line2d_21">
      <path d="M 78.265625 884.671513 
L 729.685625 884.671513 
" clip-path="url(#p5bfba6c8ad)" style="fill: none; stroke: #cccccc; stroke-linecap: round"/>
     </g>
     <g id="text_17">
      <text style="font-size: 10px; font-family: 'Arial', 'DejaVu Sans', 'Liberation Sans', 'Bitstream Vera Sans', sans-serif; text-anchor: end; fill: #262626" x="68.765625" y="888.470732" transform="rotate(-0 68.765625 888.470732)">40</text>
     </g>
    </g>
    <g id="ytick_13">
     <g id="line2d_22">
      <path d="M 78.265625 820.962673 
L 729.685625 820.962673 
" clip-path="url(#p5bfba6c8ad)" style="fill: none; stroke: #cccccc; stroke-linecap: round"/>
     </g>
     <g id="text_18">
      <text style="font-size: 10px; font-family: 'Arial', 'DejaVu Sans', 'Liberation Sans', 'Bitstream Vera Sans', sans-serif; text-anchor: end; fill: #262626" x="68.765625" y="824.761892" transform="rotate(-0 68.765625 824.761892)">60</text>
     </g>
    </g>
    <g id="ytick_14">
     <g id="line2d_23">
      <path d="M 78.265625 757.253834 
L 729.685625 757.253834 
" clip-path="url(#p5bfba6c8ad)" style="fill: none; stroke: #cccccc; stroke-linecap: round"/>
     </g>
     <g id="text_19">
      <text style="font-size: 10px; font-family: 'Arial', 'DejaVu Sans', 'Liberation Sans', 'Bitstream Vera Sans', sans-serif; text-anchor: end; fill: #262626" x="68.765625" y="761.053052" transform="rotate(-0 68.765625 761.053052)">80</text>
     </g>
    </g>
    <g id="ytick_15">
     <g id="line2d_24">
      <path d="M 78.265625 693.544994 
L 729.685625 693.544994 
" clip-path="url(#p5bfba6c8ad)" style="fill: none; stroke: #cccccc; stroke-linecap: round"/>
     </g>
     <g id="text_20">
      <text style="font-size: 10px; font-family: 'Arial', 'DejaVu Sans', 'Liberation Sans', 'Bitstream Vera Sans', sans-serif; text-anchor: end; fill: #262626" x="68.765625" y="697.344213" transform="rotate(-0 68.765625 697.344213)">100</text>
     </g>
    </g>
    <g id="ytick_16">
     <g id="line2d_25">
      <path d="M 78.265625 629.836154 
L 729.685625 629.836154 
" clip-path="url(#p5bfba6c8ad)" style="fill: none; stroke: #cccccc; stroke-linecap: round"/>
     </g>
     <g id="text_21">
      <text style="font-size: 10px; font-family: 'Arial', 'DejaVu Sans', 'Liberation Sans', 'Bitstream Vera Sans', sans-serif; text-anchor: end; fill: #262626" x="68.765625" y="633.635373" transform="rotate(-0 68.765625 633.635373)">120</text>
     </g>
    </g>
    <g id="text_22">
     <text style="font-size: 10px; font-family: 'Arial', 'DejaVu Sans', 'Liberation Sans', 'Bitstream Vera Sans', sans-serif; text-anchor: middle; fill: #262626" x="43.598437" y="798.495" transform="rotate(-90 43.598437 798.495)">Distance (μm)</text>
    </g>
   </g>
   <g id="FillBetweenPolyCollection_4">
    <defs>
     <path id="mec2aeedfae" d="M 187.347943 -194.302992 
L 186.323307 -194.302992 
L 186.148942 -197.248582 
L 185.92877 -200.194172 
L 185.653811 -203.139763 
L 185.314264 -206.085353 
L 184.900218 -209.030943 
L 184.402893 -211.976533 
L 183.816359 -214.922123 
L 183.139468 -217.867713 
L 182.377506 -220.813304 
L 181.542992 -223.758894 
L 180.655178 -226.704484 
L 179.738085 -229.650074 
L 178.81742 -232.595664 
L 177.91707 -235.541255 
L 177.056108 -238.486845 
L 176.247109 -241.432435 
L 175.496203 -244.378025 
L 174.804758 -247.323615 
L 174.172133 -250.269205 
L 173.598658 -253.214796 
L 173.087982 -256.160386 
L 172.648177 -259.105976 
L 172.29136 -262.051566 
L 172.031977 -264.997156 
L 171.884243 -267.942746 
L 171.859327 -270.888337 
L 171.962925 -273.833927 
L 172.193654 -276.779517 
L 172.54255 -279.725107 
L 172.993707 -282.670697 
L 173.525902 -285.616287 
L 174.114894 -288.561878 
L 174.735994 -291.507468 
L 175.366476 -294.453058 
L 175.987506 -297.398648 
L 176.585385 -300.344238 
L 177.152062 -303.289828 
L 177.684977 -306.235419 
L 178.186306 -309.181009 
L 178.661715 -312.126599 
L 179.118748 -315.072189 
L 179.565065 -318.017779 
L 180.006818 -320.963369 
L 180.447474 -323.90896 
L 180.887311 -326.85455 
L 181.323648 -329.80014 
L 181.751681 -332.74573 
L 182.165679 -335.69132 
L 182.560232 -338.636911 
L 182.931306 -341.582501 
L 183.276902 -344.528091 
L 183.597251 -347.473681 
L 183.8945 -350.419271 
L 184.171993 -353.364861 
L 184.4333 -356.310452 
L 184.681266 -359.256042 
L 184.917322 -362.201632 
L 185.141275 -365.147222 
L 185.3516 -368.092812 
L 185.546101 -371.038402 
L 185.72269 -373.983993 
L 185.879997 -376.929583 
L 186.017657 -379.875173 
L 186.136222 -382.820763 
L 186.236846 -385.766353 
L 186.320912 -388.711943 
L 186.389781 -391.657534 
L 186.444731 -394.603124 
L 186.48706 -397.548714 
L 186.518211 -400.494304 
L 186.539791 -403.439894 
L 186.553367 -406.385484 
L 186.560044 -409.331075 
L 186.559945 -412.276665 
L 186.551771 -415.222255 
L 186.532674 -418.167845 
L 186.498574 -421.113435 
L 186.44495 -424.059025 
L 186.36798 -427.004616 
L 186.265775 -429.950206 
L 186.139401 -432.895796 
L 185.993431 -435.841386 
L 185.835868 -438.786976 
L 185.677433 -441.732567 
L 185.530361 -444.678157 
L 185.406931 -447.623747 
L 185.317962 -450.569337 
L 185.271491 -453.514927 
L 185.271796 -456.460517 
L 185.318875 -459.406108 
L 185.408468 -462.351698 
L 185.532649 -465.297288 
L 185.680926 -468.242878 
L 185.841703 -471.188468 
L 186.003817 -474.134058 
L 186.157868 -477.079649 
L 186.297074 -480.025239 
L 186.417539 -482.970829 
L 186.517996 -485.916419 
L 187.153254 -485.916419 
L 187.153254 -485.916419 
L 187.253711 -482.970829 
L 187.374176 -480.025239 
L 187.513382 -477.079649 
L 187.667433 -474.134058 
L 187.829547 -471.188468 
L 187.990324 -468.242878 
L 188.138601 -465.297288 
L 188.262782 -462.351698 
L 188.352375 -459.406108 
L 188.399454 -456.460517 
L 188.399759 -453.514927 
L 188.353288 -450.569337 
L 188.264319 -447.623747 
L 188.140889 -444.678157 
L 187.993817 -441.732567 
L 187.835382 -438.786976 
L 187.677819 -435.841386 
L 187.531849 -432.895796 
L 187.405475 -429.950206 
L 187.30327 -427.004616 
L 187.2263 -424.059025 
L 187.172676 -421.113435 
L 187.138576 -418.167845 
L 187.119479 -415.222255 
L 187.111305 -412.276665 
L 187.111206 -409.331075 
L 187.117883 -406.385484 
L 187.131459 -403.439894 
L 187.153039 -400.494304 
L 187.18419 -397.548714 
L 187.226519 -394.603124 
L 187.281469 -391.657534 
L 187.350338 -388.711943 
L 187.434404 -385.766353 
L 187.535028 -382.820763 
L 187.653593 -379.875173 
L 187.791253 -376.929583 
L 187.94856 -373.983993 
L 188.125149 -371.038402 
L 188.31965 -368.092812 
L 188.529975 -365.147222 
L 188.753928 -362.201632 
L 188.989984 -359.256042 
L 189.23795 -356.310452 
L 189.499257 -353.364861 
L 189.77675 -350.419271 
L 190.073999 -347.473681 
L 190.394348 -344.528091 
L 190.739944 -341.582501 
L 191.111018 -338.636911 
L 191.505571 -335.69132 
L 191.919569 -332.74573 
L 192.347602 -329.80014 
L 192.783939 -326.85455 
L 193.223776 -323.90896 
L 193.664432 -320.963369 
L 194.106185 -318.017779 
L 194.552502 -315.072189 
L 195.009535 -312.126599 
L 195.484944 -309.181009 
L 195.986273 -306.235419 
L 196.519188 -303.289828 
L 197.085865 -300.344238 
L 197.683744 -297.398648 
L 198.304774 -294.453058 
L 198.935256 -291.507468 
L 199.556356 -288.561878 
L 200.145348 -285.616287 
L 200.677543 -282.670697 
L 201.1287 -279.725107 
L 201.477596 -276.779517 
L 201.708325 -273.833927 
L 201.811923 -270.888337 
L 201.787007 -267.942746 
L 201.639273 -264.997156 
L 201.37989 -262.051566 
L 201.023073 -259.105976 
L 200.583268 -256.160386 
L 200.072592 -253.214796 
L 199.499117 -250.269205 
L 198.866492 -247.323615 
L 198.175047 -244.378025 
L 197.424141 -241.432435 
L 196.615142 -238.486845 
L 195.75418 -235.541255 
L 194.85383 -232.595664 
L 193.933165 -229.650074 
L 193.016072 -226.704484 
L 192.128258 -223.758894 
L 191.293744 -220.813304 
L 190.531782 -217.867713 
L 189.854891 -214.922123 
L 189.268357 -211.976533 
L 188.771032 -209.030943 
L 188.356986 -206.085353 
L 188.017439 -203.139763 
L 187.74248 -200.194172 
L 187.522308 -197.248582 
L 187.347943 -194.302992 
z
" style="stroke: #636363; stroke-opacity: 0.9; stroke-width: 1.25"/>
    </defs>
    <g clip-path="url(#p5bfba6c8ad)">
     <use xlink:href="#mec2aeedfae" x="0" y="1173.6" style="fill: #e49467; fill-opacity: 0.9; stroke: #636363; stroke-opacity: 0.9; stroke-width: 1.25"/>
    </g>
   </g>
   <g id="FillBetweenPolyCollection_5">
    <defs>
     <path id="m036d8af324" d="M 421.558809 -167.974817 
L 386.392441 -167.974817 
L 375.712179 -171.8699 
L 363.340784 -175.764984 
L 351.070643 -179.660067 
L 340.692584 -183.555151 
L 333.324745 -187.450235 
L 329.200546 -191.345318 
L 327.93584 -195.240402 
L 328.949837 -199.135485 
L 331.72346 -203.030569 
L 335.825996 -206.925653 
L 340.84093 -210.820736 
L 346.338386 -214.71582 
L 351.93124 -218.610903 
L 357.345708 -222.505987 
L 362.429011 -226.40107 
L 367.095322 -230.296154 
L 371.278346 -234.191238 
L 374.936913 -238.086321 
L 378.083506 -241.981405 
L 380.779292 -245.876488 
L 383.093707 -249.771572 
L 385.076195 -253.666656 
L 386.765382 -257.561739 
L 388.211621 -261.456823 
L 389.48074 -265.351906 
L 390.637565 -269.24699 
L 391.731489 -273.142074 
L 392.797659 -277.037157 
L 393.86165 -280.932241 
L 394.929641 -284.827324 
L 395.970891 -288.722408 
L 396.918938 -292.617491 
L 397.70101 -296.512575 
L 398.274772 -300.407659 
L 398.64679 -304.302742 
L 398.866505 -308.197826 
L 399.005955 -312.092909 
L 399.138292 -315.987993 
L 399.321978 -319.883077 
L 399.589508 -323.77816 
L 399.938744 -327.673244 
L 400.332692 -331.568327 
L 400.714584 -335.463411 
L 401.032621 -339.358495 
L 401.259738 -343.253578 
L 401.400624 -347.148662 
L 401.487835 -351.043745 
L 401.568435 -354.938829 
L 401.682248 -358.833912 
L 401.842071 -362.728996 
L 402.03132 -366.62408 
L 402.221226 -370.519163 
L 402.391886 -374.414247 
L 402.541221 -378.30933 
L 402.679582 -382.204414 
L 402.816991 -386.099498 
L 402.951512 -389.994581 
L 403.067053 -393.889665 
L 403.143895 -397.784748 
L 403.17411 -401.679832 
L 403.168011 -405.574916 
L 403.145716 -409.469999 
L 403.121929 -413.365083 
L 403.0978 -417.260166 
L 403.066041 -421.15525 
L 403.022072 -425.050333 
L 402.969059 -428.945417 
L 402.914358 -432.840501 
L 402.866463 -436.735584 
L 402.838649 -440.630668 
L 402.852069 -444.525751 
L 402.927194 -448.420835 
L 403.066127 -452.315919 
L 403.242578 -456.211002 
L 403.411771 -460.106086 
L 403.533323 -464.001169 
L 403.588934 -467.896253 
L 403.584773 -471.791337 
L 403.542798 -475.68642 
L 403.490288 -479.581504 
L 403.452564 -483.476587 
L 403.448654 -487.371671 
L 403.487765 -491.266754 
L 403.566075 -495.161838 
L 403.666537 -499.056922 
L 403.764636 -502.952005 
L 403.838495 -506.847089 
L 403.877591 -510.742172 
L 403.885381 -514.637256 
L 403.875307 -518.53234 
L 403.86273 -522.427423 
L 403.857042 -526.322507 
L 403.858368 -530.21759 
L 403.860293 -534.112674 
L 403.85575 -538.007758 
L 403.842368 -541.902841 
L 403.825292 -545.797925 
L 403.815635 -549.693008 
L 403.823654 -553.588092 
L 404.127596 -553.588092 
L 404.127596 -553.588092 
L 404.135615 -549.693008 
L 404.125958 -545.797925 
L 404.108882 -541.902841 
L 404.0955 -538.007758 
L 404.090957 -534.112674 
L 404.092882 -530.21759 
L 404.094208 -526.322507 
L 404.08852 -522.427423 
L 404.075943 -518.53234 
L 404.065869 -514.637256 
L 404.073659 -510.742172 
L 404.112755 -506.847089 
L 404.186614 -502.952005 
L 404.284713 -499.056922 
L 404.385175 -495.161838 
L 404.463485 -491.266754 
L 404.502596 -487.371671 
L 404.498686 -483.476587 
L 404.460962 -479.581504 
L 404.408452 -475.68642 
L 404.366477 -471.791337 
L 404.362316 -467.896253 
L 404.417927 -464.001169 
L 404.539479 -460.106086 
L 404.708672 -456.211002 
L 404.885123 -452.315919 
L 405.024056 -448.420835 
L 405.099181 -444.525751 
L 405.112601 -440.630668 
L 405.084787 -436.735584 
L 405.036892 -432.840501 
L 404.982191 -428.945417 
L 404.929178 -425.050333 
L 404.885209 -421.15525 
L 404.85345 -417.260166 
L 404.829321 -413.365083 
L 404.805534 -409.469999 
L 404.783239 -405.574916 
L 404.77714 -401.679832 
L 404.807355 -397.784748 
L 404.884197 -393.889665 
L 404.999738 -389.994581 
L 405.134259 -386.099498 
L 405.271668 -382.204414 
L 405.410029 -378.30933 
L 405.559364 -374.414247 
L 405.730024 -370.519163 
L 405.91993 -366.62408 
L 406.109179 -362.728996 
L 406.269002 -358.833912 
L 406.382815 -354.938829 
L 406.463415 -351.043745 
L 406.550626 -347.148662 
L 406.691512 -343.253578 
L 406.918629 -339.358495 
L 407.236666 -335.463411 
L 407.618558 -331.568327 
L 408.012506 -327.673244 
L 408.361742 -323.77816 
L 408.629272 -319.883077 
L 408.812958 -315.987993 
L 408.945295 -312.092909 
L 409.084745 -308.197826 
L 409.30446 -304.302742 
L 409.676478 -300.407659 
L 410.25024 -296.512575 
L 411.032312 -292.617491 
L 411.980359 -288.722408 
L 413.021609 -284.827324 
L 414.0896 -280.932241 
L 415.153591 -277.037157 
L 416.219761 -273.142074 
L 417.313685 -269.24699 
L 418.47051 -265.351906 
L 419.739629 -261.456823 
L 421.185868 -257.561739 
L 422.875055 -253.666656 
L 424.857543 -249.771572 
L 427.171958 -245.876488 
L 429.867744 -241.981405 
L 433.014337 -238.086321 
L 436.672904 -234.191238 
L 440.855928 -230.296154 
L 445.522239 -226.40107 
L 450.605542 -222.505987 
L 456.02001 -218.610903 
L 461.612864 -214.71582 
L 467.11032 -210.820736 
L 472.125254 -206.925653 
L 476.22779 -203.030569 
L 479.001413 -199.135485 
L 480.01541 -195.240402 
L 478.750704 -191.345318 
L 474.626505 -187.450235 
L 467.258666 -183.555151 
L 456.880607 -179.660067 
L 444.610466 -175.764984 
L 432.239071 -171.8699 
L 421.558809 -167.974817 
z
" style="stroke: #636363; stroke-opacity: 0.9; stroke-width: 1.25"/>
    </defs>
    <g clip-path="url(#p5bfba6c8ad)">
     <use xlink:href="#m036d8af324" x="0" y="1173.6" style="fill: #f7f7c6; fill-opacity: 0.9; stroke: #636363; stroke-opacity: 0.9; stroke-width: 1.25"/>
    </g>
   </g>
   <g id="FillBetweenPolyCollection_6">
    <defs>
     <path id="me52bc22113" d="M 640.229117 -167.427727 
L 602.002133 -167.427727 
L 594.624787 -171.623228 
L 586.534927 -175.818728 
L 578.204725 -180.014229 
L 570.019891 -184.209729 
L 562.229391 -188.40523 
L 554.988033 -192.60073 
L 548.447729 -196.79623 
L 542.828138 -200.991731 
L 538.417825 -205.187231 
L 535.502577 -209.382732 
L 534.259625 -213.578232 
L 534.6752 -217.773733 
L 536.530662 -221.969233 
L 539.465374 -226.164734 
L 543.082994 -230.360234 
L 547.047598 -234.555735 
L 551.129858 -238.751235 
L 555.198864 -242.946736 
L 559.184312 -247.142236 
L 563.038205 -251.337736 
L 566.710989 -255.533237 
L 570.14347 -259.728737 
L 573.272521 -263.924238 
L 576.048589 -268.119738 
L 578.458001 -272.315239 
L 580.536552 -276.510739 
L 582.363395 -280.70624 
L 584.03679 -284.90174 
L 585.645292 -289.097241 
L 587.249249 -293.292741 
L 588.878621 -297.488242 
L 590.542211 -301.683742 
L 592.237274 -305.879242 
L 593.950526 -310.074743 
L 595.650799 -314.270243 
L 597.283668 -318.465744 
L 598.779921 -322.661244 
L 600.079226 -326.856745 
L 601.156794 -331.052245 
L 602.036671 -335.247746 
L 602.783994 -339.443246 
L 603.481526 -343.638747 
L 604.203128 -347.834247 
L 604.995686 -352.029747 
L 605.874336 -356.225248 
L 606.828023 -360.420748 
L 607.828007 -364.616249 
L 608.833684 -368.811749 
L 609.796463 -373.00725 
L 610.666737 -377.20275 
L 611.405979 -381.398251 
L 611.998435 -385.593751 
L 612.45371 -389.789252 
L 612.797778 -393.984752 
L 613.05991 -398.180253 
L 613.266043 -402.375753 
L 613.441477 -406.571253 
L 613.615464 -410.766754 
L 613.818312 -414.962254 
L 614.070089 -419.157755 
L 614.369784 -423.353255 
L 614.694934 -427.548756 
L 615.013614 -431.744256 
L 615.30147 -435.939757 
L 615.553797 -440.135257 
L 615.786834 -444.330758 
L 616.028826 -448.526258 
L 616.305775 -452.721758 
L 616.628481 -456.917259 
L 616.986832 -461.112759 
L 617.35422 -465.30826 
L 617.699761 -469.50376 
L 618.001372 -473.699261 
L 618.252389 -477.894761 
L 618.458953 -482.090262 
L 618.631437 -486.285762 
L 618.776454 -490.481263 
L 618.894621 -494.676763 
L 618.984782 -498.872264 
L 619.050777 -503.067764 
L 619.105059 -507.263264 
L 619.165966 -511.458765 
L 619.250444 -515.654265 
L 619.367436 -519.849766 
L 619.516139 -524.045266 
L 619.689131 -528.240767 
L 619.876863 -532.436267 
L 620.070022 -536.631768 
L 620.259063 -540.827268 
L 620.432982 -545.022769 
L 620.579797 -549.218269 
L 620.689391 -553.41377 
L 620.757244 -557.60927 
L 620.786839 -561.80477 
L 620.789345 -566.000271 
L 620.780623 -570.195771 
L 620.776689 -574.391272 
L 620.789175 -578.586772 
L 620.822341 -582.782273 
L 621.408909 -582.782273 
L 621.408909 -582.782273 
L 621.442075 -578.586772 
L 621.454561 -574.391272 
L 621.450627 -570.195771 
L 621.441905 -566.000271 
L 621.444411 -561.80477 
L 621.474006 -557.60927 
L 621.541859 -553.41377 
L 621.651453 -549.218269 
L 621.798268 -545.022769 
L 621.972187 -540.827268 
L 622.161228 -536.631768 
L 622.354387 -532.436267 
L 622.542119 -528.240767 
L 622.715111 -524.045266 
L 622.863814 -519.849766 
L 622.980806 -515.654265 
L 623.065284 -511.458765 
L 623.126191 -507.263264 
L 623.180473 -503.067764 
L 623.246468 -498.872264 
L 623.336629 -494.676763 
L 623.454796 -490.481263 
L 623.599813 -486.285762 
L 623.772297 -482.090262 
L 623.978861 -477.894761 
L 624.229878 -473.699261 
L 624.531489 -469.50376 
L 624.87703 -465.30826 
L 625.244418 -461.112759 
L 625.602769 -456.917259 
L 625.925475 -452.721758 
L 626.202424 -448.526258 
L 626.444416 -444.330758 
L 626.677453 -440.135257 
L 626.92978 -435.939757 
L 627.217636 -431.744256 
L 627.536316 -427.548756 
L 627.861466 -423.353255 
L 628.161161 -419.157755 
L 628.412938 -414.962254 
L 628.615786 -410.766754 
L 628.789773 -406.571253 
L 628.965207 -402.375753 
L 629.17134 -398.180253 
L 629.433472 -393.984752 
L 629.77754 -389.789252 
L 630.232815 -385.593751 
L 630.825271 -381.398251 
L 631.564513 -377.20275 
L 632.434787 -373.00725 
L 633.397566 -368.811749 
L 634.403243 -364.616249 
L 635.403227 -360.420748 
L 636.356914 -356.225248 
L 637.235564 -352.029747 
L 638.028122 -347.834247 
L 638.749724 -343.638747 
L 639.447256 -339.443246 
L 640.194579 -335.247746 
L 641.074456 -331.052245 
L 642.152024 -326.856745 
L 643.451329 -322.661244 
L 644.947582 -318.465744 
L 646.580451 -314.270243 
L 648.280724 -310.074743 
L 649.993976 -305.879242 
L 651.689039 -301.683742 
L 653.352629 -297.488242 
L 654.982001 -293.292741 
L 656.585958 -289.097241 
L 658.19446 -284.90174 
L 659.867855 -280.70624 
L 661.694698 -276.510739 
L 663.773249 -272.315239 
L 666.182661 -268.119738 
L 668.958729 -263.924238 
L 672.08778 -259.728737 
L 675.520261 -255.533237 
L 679.193045 -251.337736 
L 683.046938 -247.142236 
L 687.032386 -242.946736 
L 691.101392 -238.751235 
L 695.183652 -234.555735 
L 699.148256 -230.360234 
L 702.765876 -226.164734 
L 705.700588 -221.969233 
L 707.55605 -217.773733 
L 707.971625 -213.578232 
L 706.728673 -209.382732 
L 703.813425 -205.187231 
L 699.403112 -200.991731 
L 693.783521 -196.79623 
L 687.243217 -192.60073 
L 680.001859 -188.40523 
L 672.211359 -184.209729 
L 664.026525 -180.014229 
L 655.696323 -175.818728 
L 647.606463 -171.623228 
L 640.229117 -167.427727 
z
" style="stroke: #636363; stroke-opacity: 0.9; stroke-width: 1.25"/>
    </defs>
    <g clip-path="url(#p5bfba6c8ad)">
     <use xlink:href="#me52bc22113" x="0" y="1173.6" style="fill: #90c6a6; fill-opacity: 0.9; stroke: #636363; stroke-opacity: 0.9; stroke-width: 1.25"/>
    </g>
   </g>
   <g id="line2d_26">
    <path d="M 186.835625 979.297008 
L 186.835625 788.37964 
" clip-path="url(#p5bfba6c8ad)" style="fill: none; stroke: #636363; stroke-width: 1.875; stroke-linecap: round"/>
   </g>
   <g id="line2d_27">
    <path d="M 186.835625 918.61712 
L 186.835625 865.446523 
" clip-path="url(#p5bfba6c8ad)" style="fill: none; stroke: #636363; stroke-width: 5.625; stroke-linecap: round"/>
   </g>
   <g id="line2d_28">
    <path d="M 186.835625 895.482641 
" clip-path="url(#p5bfba6c8ad)" style="fill: none; stroke: #636363; stroke-width: 1.5; stroke-linecap: round"/>
    <g clip-path="url(#p5bfba6c8ad)">
     <use xlink:href="#m03031166f0" x="186.835625" y="895.482641" style="fill: #ffffff; stroke: #ffffff; stroke-width: 1.125"/>
    </g>
   </g>
   <g id="line2d_29">
    <path d="M 403.975625 1005.625183 
L 403.975625 871.936192 
" clip-path="url(#p5bfba6c8ad)" style="fill: none; stroke: #636363; stroke-width: 1.875; stroke-linecap: round"/>
   </g>
   <g id="line2d_30">
    <path d="M 403.975625 981.789301 
L 403.975625 937.802664 
" clip-path="url(#p5bfba6c8ad)" style="fill: none; stroke: #636363; stroke-width: 5.625; stroke-linecap: round"/>
   </g>
   <g id="line2d_31">
    <path d="M 403.975625 965.309667 
" clip-path="url(#p5bfba6c8ad)" style="fill: none; stroke: #636363; stroke-width: 1.5; stroke-linecap: round"/>
    <g clip-path="url(#p5bfba6c8ad)">
     <use xlink:href="#m03031166f0" x="403.975625" y="965.309667" style="fill: #ffffff; stroke: #ffffff; stroke-width: 1.125"/>
    </g>
   </g>
   <g id="line2d_32">
    <path d="M 621.115625 1006.172273 
L 621.115625 759.026486 
" clip-path="url(#p5bfba6c8ad)" style="fill: none; stroke: #636363; stroke-width: 1.875; stroke-linecap: round"/>
   </g>
   <g id="line2d_33">
    <path d="M 621.115625 963.975703 
L 621.115625 881.949061 
" clip-path="url(#p5bfba6c8ad)" style="fill: none; stroke: #636363; stroke-width: 5.625; stroke-linecap: round"/>
   </g>
   <g id="line2d_34">
    <path d="M 621.115625 934.750005 
" clip-path="url(#p5bfba6c8ad)" style="fill: none; stroke: #636363; stroke-width: 1.5; stroke-linecap: round"/>
    <g clip-path="url(#p5bfba6c8ad)">
     <use xlink:href="#m03031166f0" x="621.115625" y="934.750005" style="fill: #ffffff; stroke: #ffffff; stroke-width: 1.125"/>
    </g>
   </g>
   <g id="patch_8">
    <path d="M 78.265625 1026.94 
L 78.265625 570.05 
" style="fill: none; stroke: #cccccc; stroke-width: 1.25; stroke-linejoin: miter; stroke-linecap: square"/>
   </g>
   <g id="patch_9">
    <path d="M 729.685625 1026.94 
L 729.685625 570.05 
" style="fill: none; stroke: #cccccc; stroke-width: 1.25; stroke-linejoin: miter; stroke-linecap: square"/>
   </g>
   <g id="patch_10">
    <path d="M 78.265625 1026.94 
L 729.685625 1026.94 
" style="fill: none; stroke: #cccccc; stroke-width: 1.25; stroke-linejoin: miter; stroke-linecap: square"/>
   </g>
   <g id="patch_11">
    <path d="M 78.265625 570.05 
L 729.685625 570.05 
" style="fill: none; stroke: #cccccc; stroke-width: 1.25; stroke-linejoin: miter; stroke-linecap: square"/>
   </g>
   <g id="text_23">
    <text style="font-size: 10px; font-family: 'Arial', 'DejaVu Sans', 'Liberation Sans', 'Bitstream Vera Sans', sans-serif; text-anchor: middle; fill: #262626" x="403.975625" y="564.05" transform="rotate(-0 403.975625 564.05)">Melanoma In Situ</text>
   </g>
  </g>
  <g id="text_24">
   <text style="font-size: 10px; font-family: 'Arial', 'DejaVu Sans', 'Liberation Sans', 'Bitstream Vera Sans', sans-serif; text-anchor: middle; fill: #262626" x="382.645625" y="43.998438" transform="rotate(-0 382.645625 43.998438)">Distance distribution per Level One Cell Type in `skin-confocal-sorgerlab` (density normalization = count)</text>
  </g>
  <g id="text_25">
   <text style="font-size: 10px; font-family: 'Arial', 'DejaVu Sans', 'Liberation Sans', 'Bitstream Vera Sans', sans-serif; text-anchor: middle; fill: #262626" x="382.645625" y="1135.520313" transform="rotate(-0 382.645625 1135.520313)">Level One Cell Type</text>
  </g>
 </g>
 <defs>
  <clipPath id="pd89d5f615d">
   <rect x="78.265625" y="86.28" width="651.42" height="456.89"/>
  </clipPath>
  <clipPath id="p5bfba6c8ad">
   <rect x="78.265625" y="570.05" width="651.42" height="456.89"/>
  </clipPath>
 </defs>
</svg>
