<?xml version="1.0" encoding="utf-8" standalone="no"?>
<!DOCTYPE svg PUBLIC "-//W3C//DTD SVG 1.1//EN"
  "http://www.w3.org/Graphics/SVG/1.1/DTD/svg11.dtd">
<svg xmlns:xlink="http://www.w3.org/1999/xlink" width="1202.875375pt" height="626.408688pt" viewBox="0 0 1202.875375 626.408688" xmlns="http://www.w3.org/2000/svg" version="1.1">
 <metadata>
  <rdf:RDF xmlns:dc="http://purl.org/dc/elements/1.1/" xmlns:cc="http://creativecommons.org/ns#" xmlns:rdf="http://www.w3.org/1999/02/22-rdf-syntax-ns#">
   <cc:Work>
    <dc:type rdf:resource="http://purl.org/dc/dcmitype/StillImage"/>
    <dc:date>2025-07-01T15:48:04.554173</dc:date>
    <dc:format>image/svg+xml</dc:format>
    <dc:creator>
     <cc:Agent>
      <dc:title>Matplotlib v3.10.3, https://matplotlib.org/</dc:title>
     </cc:Agent>
    </dc:creator>
   </cc:Work>
  </rdf:RDF>
 </metadata>
 <defs>
  <style type="text/css">*{stroke-linejoin: round; stroke-linecap: butt}</style>
 </defs>
 <g id="figure_1">
  <g id="patch_1">
   <path d="M 0 626.408688 
L 1202.875375 626.408688 
L 1202.875375 0 
L 0 0 
z
" style="fill: #ffffff"/>
  </g>
  <g id="axes_1">
   <g id="patch_2">
    <path d="M 77.065625 461.102438 
L 1054.199625 461.102438 
L 1054.199625 49.598437 
L 77.065625 49.598437 
z
" style="fill: #ffffff"/>
   </g>
   <g id="matplotlib.axis_1">
    <g id="xtick_1">
     <g id="text_1">
      <!-- unknown cell -->
      <g style="fill: #262626" transform="translate(109.88358 535.225875) rotate(-90) scale(0.1 -0.1)">
       <defs>
        <path id="DejaVuSans-75" d="M 544 1381 
L 544 3500 
L 1119 3500 
L 1119 1403 
Q 1119 906 1312 657 
Q 1506 409 1894 409 
Q 2359 409 2629 706 
Q 2900 1003 2900 1516 
L 2900 3500 
L 3475 3500 
L 3475 0 
L 2900 0 
L 2900 538 
Q 2691 219 2414 64 
Q 2138 -91 1772 -91 
Q 1169 -91 856 284 
Q 544 659 544 1381 
z
M 1991 3584 
L 1991 3584 
z
" transform="scale(0.015625)"/>
        <path id="DejaVuSans-6e" d="M 3513 2113 
L 3513 0 
L 2938 0 
L 2938 2094 
Q 2938 2591 2744 2837 
Q 2550 3084 2163 3084 
Q 1697 3084 1428 2787 
Q 1159 2491 1159 1978 
L 1159 0 
L 581 0 
L 581 3500 
L 1159 3500 
L 1159 2956 
Q 1366 3272 1645 3428 
Q 1925 3584 2291 3584 
Q 2894 3584 3203 3211 
Q 3513 2838 3513 2113 
z
" transform="scale(0.015625)"/>
        <path id="DejaVuSans-6b" d="M 581 4863 
L 1159 4863 
L 1159 1991 
L 2875 3500 
L 3609 3500 
L 1753 1863 
L 3688 0 
L 2938 0 
L 1159 1709 
L 1159 0 
L 581 0 
L 581 4863 
z
" transform="scale(0.015625)"/>
        <path id="DejaVuSans-6f" d="M 1959 3097 
Q 1497 3097 1228 2736 
Q 959 2375 959 1747 
Q 959 1119 1226 758 
Q 1494 397 1959 397 
Q 2419 397 2687 759 
Q 2956 1122 2956 1747 
Q 2956 2369 2687 2733 
Q 2419 3097 1959 3097 
z
M 1959 3584 
Q 2709 3584 3137 3096 
Q 3566 2609 3566 1747 
Q 3566 888 3137 398 
Q 2709 -91 1959 -91 
Q 1206 -91 779 398 
Q 353 888 353 1747 
Q 353 2609 779 3096 
Q 1206 3584 1959 3584 
z
" transform="scale(0.015625)"/>
        <path id="DejaVuSans-77" d="M 269 3500 
L 844 3500 
L 1563 769 
L 2278 3500 
L 2956 3500 
L 3675 769 
L 4391 3500 
L 4966 3500 
L 4050 0 
L 3372 0 
L 2619 2869 
L 1863 0 
L 1184 0 
L 269 3500 
z
" transform="scale(0.015625)"/>
        <path id="DejaVuSans-20" transform="scale(0.015625)"/>
        <path id="DejaVuSans-63" d="M 3122 3366 
L 3122 2828 
Q 2878 2963 2633 3030 
Q 2388 3097 2138 3097 
Q 1578 3097 1268 2742 
Q 959 2388 959 1747 
Q 959 1106 1268 751 
Q 1578 397 2138 397 
Q 2388 397 2633 464 
Q 2878 531 3122 666 
L 3122 134 
Q 2881 22 2623 -34 
Q 2366 -91 2075 -91 
Q 1284 -91 818 406 
Q 353 903 353 1747 
Q 353 2603 823 3093 
Q 1294 3584 2113 3584 
Q 2378 3584 2631 3529 
Q 2884 3475 3122 3366 
z
" transform="scale(0.015625)"/>
        <path id="DejaVuSans-65" d="M 3597 1894 
L 3597 1613 
L 953 1613 
Q 991 1019 1311 708 
Q 1631 397 2203 397 
Q 2534 397 2845 478 
Q 3156 559 3463 722 
L 3463 178 
Q 3153 47 2828 -22 
Q 2503 -91 2169 -91 
Q 1331 -91 842 396 
Q 353 884 353 1716 
Q 353 2575 817 3079 
Q 1281 3584 2069 3584 
Q 2775 3584 3186 3129 
Q 3597 2675 3597 1894 
z
M 3022 2063 
Q 3016 2534 2758 2815 
Q 2500 3097 2075 3097 
Q 1594 3097 1305 2825 
Q 1016 2553 972 2059 
L 3022 2063 
z
" transform="scale(0.015625)"/>
        <path id="DejaVuSans-6c" d="M 603 4863 
L 1178 4863 
L 1178 0 
L 603 0 
L 603 4863 
z
" transform="scale(0.015625)"/>
       </defs>
       <use xlink:href="#DejaVuSans-75"/>
       <use xlink:href="#DejaVuSans-6e" transform="translate(63.378906 0)"/>
       <use xlink:href="#DejaVuSans-6b" transform="translate(126.757812 0)"/>
       <use xlink:href="#DejaVuSans-6e" transform="translate(184.667969 0)"/>
       <use xlink:href="#DejaVuSans-6f" transform="translate(248.046875 0)"/>
       <use xlink:href="#DejaVuSans-77" transform="translate(309.228516 0)"/>
       <use xlink:href="#DejaVuSans-6e" transform="translate(391.015625 0)"/>
       <use xlink:href="#DejaVuSans-20" transform="translate(454.394531 0)"/>
       <use xlink:href="#DejaVuSans-63" transform="translate(486.181641 0)"/>
       <use xlink:href="#DejaVuSans-65" transform="translate(541.162109 0)"/>
       <use xlink:href="#DejaVuSans-6c" transform="translate(602.685547 0)"/>
       <use xlink:href="#DejaVuSans-6c" transform="translate(630.46875 0)"/>
      </g>
     </g>
    </g>
    <g id="xtick_2">
     <g id="text_2">
      <!-- tumor cell -->
      <g style="fill: #262626" transform="translate(179.678866 520.0165) rotate(-90) scale(0.1 -0.1)">
       <defs>
        <path id="DejaVuSans-74" d="M 1172 4494 
L 1172 3500 
L 2356 3500 
L 2356 3053 
L 1172 3053 
L 1172 1153 
Q 1172 725 1289 603 
Q 1406 481 1766 481 
L 2356 481 
L 2356 0 
L 1766 0 
Q 1100 0 847 248 
Q 594 497 594 1153 
L 594 3053 
L 172 3053 
L 172 3500 
L 594 3500 
L 594 4494 
L 1172 4494 
z
" transform="scale(0.015625)"/>
        <path id="DejaVuSans-6d" d="M 3328 2828 
Q 3544 3216 3844 3400 
Q 4144 3584 4550 3584 
Q 5097 3584 5394 3201 
Q 5691 2819 5691 2113 
L 5691 0 
L 5113 0 
L 5113 2094 
Q 5113 2597 4934 2840 
Q 4756 3084 4391 3084 
Q 3944 3084 3684 2787 
Q 3425 2491 3425 1978 
L 3425 0 
L 2847 0 
L 2847 2094 
Q 2847 2600 2669 2842 
Q 2491 3084 2119 3084 
Q 1678 3084 1418 2786 
Q 1159 2488 1159 1978 
L 1159 0 
L 581 0 
L 581 3500 
L 1159 3500 
L 1159 2956 
Q 1356 3278 1631 3431 
Q 1906 3584 2284 3584 
Q 2666 3584 2933 3390 
Q 3200 3197 3328 2828 
z
" transform="scale(0.015625)"/>
        <path id="DejaVuSans-72" d="M 2631 2963 
Q 2534 3019 2420 3045 
Q 2306 3072 2169 3072 
Q 1681 3072 1420 2755 
Q 1159 2438 1159 1844 
L 1159 0 
L 581 0 
L 581 3500 
L 1159 3500 
L 1159 2956 
Q 1341 3275 1631 3429 
Q 1922 3584 2338 3584 
Q 2397 3584 2469 3576 
Q 2541 3569 2628 3553 
L 2631 2963 
z
" transform="scale(0.015625)"/>
       </defs>
       <use xlink:href="#DejaVuSans-74"/>
       <use xlink:href="#DejaVuSans-75" transform="translate(39.208984 0)"/>
       <use xlink:href="#DejaVuSans-6d" transform="translate(102.587891 0)"/>
       <use xlink:href="#DejaVuSans-6f" transform="translate(200 0)"/>
       <use xlink:href="#DejaVuSans-72" transform="translate(261.181641 0)"/>
       <use xlink:href="#DejaVuSans-20" transform="translate(302.294922 0)"/>
       <use xlink:href="#DejaVuSans-63" transform="translate(334.082031 0)"/>
       <use xlink:href="#DejaVuSans-65" transform="translate(389.0625 0)"/>
       <use xlink:href="#DejaVuSans-6c" transform="translate(450.585938 0)"/>
       <use xlink:href="#DejaVuSans-6c" transform="translate(478.369141 0)"/>
      </g>
     </g>
    </g>
    <g id="xtick_3">
     <g id="text_3">
      <!-- dendritic cell -->
      <g style="fill: #262626" transform="translate(249.474152 534.061813) rotate(-90) scale(0.1 -0.1)">
       <defs>
        <path id="DejaVuSans-64" d="M 2906 2969 
L 2906 4863 
L 3481 4863 
L 3481 0 
L 2906 0 
L 2906 525 
Q 2725 213 2448 61 
Q 2172 -91 1784 -91 
Q 1150 -91 751 415 
Q 353 922 353 1747 
Q 353 2572 751 3078 
Q 1150 3584 1784 3584 
Q 2172 3584 2448 3432 
Q 2725 3281 2906 2969 
z
M 947 1747 
Q 947 1113 1208 752 
Q 1469 391 1925 391 
Q 2381 391 2643 752 
Q 2906 1113 2906 1747 
Q 2906 2381 2643 2742 
Q 2381 3103 1925 3103 
Q 1469 3103 1208 2742 
Q 947 2381 947 1747 
z
" transform="scale(0.015625)"/>
        <path id="DejaVuSans-69" d="M 603 3500 
L 1178 3500 
L 1178 0 
L 603 0 
L 603 3500 
z
M 603 4863 
L 1178 4863 
L 1178 4134 
L 603 4134 
L 603 4863 
z
" transform="scale(0.015625)"/>
       </defs>
       <use xlink:href="#DejaVuSans-64"/>
       <use xlink:href="#DejaVuSans-65" transform="translate(63.476562 0)"/>
       <use xlink:href="#DejaVuSans-6e" transform="translate(125 0)"/>
       <use xlink:href="#DejaVuSans-64" transform="translate(188.378906 0)"/>
       <use xlink:href="#DejaVuSans-72" transform="translate(251.855469 0)"/>
       <use xlink:href="#DejaVuSans-69" transform="translate(292.96875 0)"/>
       <use xlink:href="#DejaVuSans-74" transform="translate(320.751953 0)"/>
       <use xlink:href="#DejaVuSans-69" transform="translate(359.960938 0)"/>
       <use xlink:href="#DejaVuSans-63" transform="translate(387.744141 0)"/>
       <use xlink:href="#DejaVuSans-20" transform="translate(442.724609 0)"/>
       <use xlink:href="#DejaVuSans-63" transform="translate(474.511719 0)"/>
       <use xlink:href="#DejaVuSans-65" transform="translate(529.492188 0)"/>
       <use xlink:href="#DejaVuSans-6c" transform="translate(591.015625 0)"/>
       <use xlink:href="#DejaVuSans-6c" transform="translate(618.798828 0)"/>
      </g>
     </g>
    </g>
    <g id="xtick_4">
     <g id="text_4">
      <!-- t cell:cd4+  -->
      <g style="fill: #262626" transform="translate(319.269438 526.844625) rotate(-90) scale(0.1 -0.1)">
       <defs>
        <path id="DejaVuSans-3a" d="M 750 794 
L 1409 794 
L 1409 0 
L 750 0 
L 750 794 
z
M 750 3309 
L 1409 3309 
L 1409 2516 
L 750 2516 
L 750 3309 
z
" transform="scale(0.015625)"/>
        <path id="DejaVuSans-34" d="M 2419 4116 
L 825 1625 
L 2419 1625 
L 2419 4116 
z
M 2253 4666 
L 3047 4666 
L 3047 1625 
L 3713 1625 
L 3713 1100 
L 3047 1100 
L 3047 0 
L 2419 0 
L 2419 1100 
L 313 1100 
L 313 1709 
L 2253 4666 
z
" transform="scale(0.015625)"/>
        <path id="DejaVuSans-2b" d="M 2944 4013 
L 2944 2272 
L 4684 2272 
L 4684 1741 
L 2944 1741 
L 2944 0 
L 2419 0 
L 2419 1741 
L 678 1741 
L 678 2272 
L 2419 2272 
L 2419 4013 
L 2944 4013 
z
" transform="scale(0.015625)"/>
       </defs>
       <use xlink:href="#DejaVuSans-74"/>
       <use xlink:href="#DejaVuSans-20" transform="translate(39.208984 0)"/>
       <use xlink:href="#DejaVuSans-63" transform="translate(70.996094 0)"/>
       <use xlink:href="#DejaVuSans-65" transform="translate(125.976562 0)"/>
       <use xlink:href="#DejaVuSans-6c" transform="translate(187.5 0)"/>
       <use xlink:href="#DejaVuSans-6c" transform="translate(215.283203 0)"/>
       <use xlink:href="#DejaVuSans-3a" transform="translate(243.066406 0)"/>
       <use xlink:href="#DejaVuSans-63" transform="translate(276.757812 0)"/>
       <use xlink:href="#DejaVuSans-64" transform="translate(331.738281 0)"/>
       <use xlink:href="#DejaVuSans-34" transform="translate(395.214844 0)"/>
       <use xlink:href="#DejaVuSans-2b" transform="translate(458.837891 0)"/>
       <use xlink:href="#DejaVuSans-20" transform="translate(542.626953 0)"/>
      </g>
     </g>
    </g>
    <g id="xtick_5">
     <g id="text_5">
      <!-- t cell:memory -->
      <g style="fill: #262626" transform="translate(389.064723 538.86025) rotate(-90) scale(0.1 -0.1)">
       <defs>
        <path id="DejaVuSans-79" d="M 2059 -325 
Q 1816 -950 1584 -1140 
Q 1353 -1331 966 -1331 
L 506 -1331 
L 506 -850 
L 844 -850 
Q 1081 -850 1212 -737 
Q 1344 -625 1503 -206 
L 1606 56 
L 191 3500 
L 800 3500 
L 1894 763 
L 2988 3500 
L 3597 3500 
L 2059 -325 
z
" transform="scale(0.015625)"/>
       </defs>
       <use xlink:href="#DejaVuSans-74"/>
       <use xlink:href="#DejaVuSans-20" transform="translate(39.208984 0)"/>
       <use xlink:href="#DejaVuSans-63" transform="translate(70.996094 0)"/>
       <use xlink:href="#DejaVuSans-65" transform="translate(125.976562 0)"/>
       <use xlink:href="#DejaVuSans-6c" transform="translate(187.5 0)"/>
       <use xlink:href="#DejaVuSans-6c" transform="translate(215.283203 0)"/>
       <use xlink:href="#DejaVuSans-3a" transform="translate(243.066406 0)"/>
       <use xlink:href="#DejaVuSans-6d" transform="translate(276.757812 0)"/>
       <use xlink:href="#DejaVuSans-65" transform="translate(374.169922 0)"/>
       <use xlink:href="#DejaVuSans-6d" transform="translate(435.693359 0)"/>
       <use xlink:href="#DejaVuSans-6f" transform="translate(533.105469 0)"/>
       <use xlink:href="#DejaVuSans-72" transform="translate(594.287109 0)"/>
       <use xlink:href="#DejaVuSans-79" transform="translate(635.400391 0)"/>
      </g>
     </g>
    </g>
    <g id="xtick_6">
     <g id="text_6">
      <!-- t cell -->
      <g style="fill: #262626" transform="translate(458.860009 493.708688) rotate(-90) scale(0.1 -0.1)">
       <use xlink:href="#DejaVuSans-74"/>
       <use xlink:href="#DejaVuSans-20" transform="translate(39.208984 0)"/>
       <use xlink:href="#DejaVuSans-63" transform="translate(70.996094 0)"/>
       <use xlink:href="#DejaVuSans-65" transform="translate(125.976562 0)"/>
       <use xlink:href="#DejaVuSans-6c" transform="translate(187.5 0)"/>
       <use xlink:href="#DejaVuSans-6c" transform="translate(215.283203 0)"/>
      </g>
     </g>
    </g>
    <g id="xtick_7">
     <g id="text_7">
      <!-- leukocyte -->
      <g style="fill: #262626" transform="translate(528.655295 517.708687) rotate(-90) scale(0.1 -0.1)">
       <use xlink:href="#DejaVuSans-6c"/>
       <use xlink:href="#DejaVuSans-65" transform="translate(27.783203 0)"/>
       <use xlink:href="#DejaVuSans-75" transform="translate(89.306641 0)"/>
       <use xlink:href="#DejaVuSans-6b" transform="translate(152.685547 0)"/>
       <use xlink:href="#DejaVuSans-6f" transform="translate(206.970703 0)"/>
       <use xlink:href="#DejaVuSans-63" transform="translate(268.152344 0)"/>
       <use xlink:href="#DejaVuSans-79" transform="translate(323.132812 0)"/>
       <use xlink:href="#DejaVuSans-74" transform="translate(382.3125 0)"/>
       <use xlink:href="#DejaVuSans-65" transform="translate(421.521484 0)"/>
      </g>
     </g>
    </g>
    <g id="xtick_8">
     <g id="text_8">
      <!-- macrophage -->
      <g style="fill: #262626" transform="translate(598.45058 532.089938) rotate(-90) scale(0.1 -0.1)">
       <defs>
        <path id="DejaVuSans-61" d="M 2194 1759 
Q 1497 1759 1228 1600 
Q 959 1441 959 1056 
Q 959 750 1161 570 
Q 1363 391 1709 391 
Q 2188 391 2477 730 
Q 2766 1069 2766 1631 
L 2766 1759 
L 2194 1759 
z
M 3341 1997 
L 3341 0 
L 2766 0 
L 2766 531 
Q 2569 213 2275 61 
Q 1981 -91 1556 -91 
Q 1019 -91 701 211 
Q 384 513 384 1019 
Q 384 1609 779 1909 
Q 1175 2209 1959 2209 
L 2766 2209 
L 2766 2266 
Q 2766 2663 2505 2880 
Q 2244 3097 1772 3097 
Q 1472 3097 1187 3025 
Q 903 2953 641 2809 
L 641 3341 
Q 956 3463 1253 3523 
Q 1550 3584 1831 3584 
Q 2591 3584 2966 3190 
Q 3341 2797 3341 1997 
z
" transform="scale(0.015625)"/>
        <path id="DejaVuSans-70" d="M 1159 525 
L 1159 -1331 
L 581 -1331 
L 581 3500 
L 1159 3500 
L 1159 2969 
Q 1341 3281 1617 3432 
Q 1894 3584 2278 3584 
Q 2916 3584 3314 3078 
Q 3713 2572 3713 1747 
Q 3713 922 3314 415 
Q 2916 -91 2278 -91 
Q 1894 -91 1617 61 
Q 1341 213 1159 525 
z
M 3116 1747 
Q 3116 2381 2855 2742 
Q 2594 3103 2138 3103 
Q 1681 3103 1420 2742 
Q 1159 2381 1159 1747 
Q 1159 1113 1420 752 
Q 1681 391 2138 391 
Q 2594 391 2855 752 
Q 3116 1113 3116 1747 
z
" transform="scale(0.015625)"/>
        <path id="DejaVuSans-68" d="M 3513 2113 
L 3513 0 
L 2938 0 
L 2938 2094 
Q 2938 2591 2744 2837 
Q 2550 3084 2163 3084 
Q 1697 3084 1428 2787 
Q 1159 2491 1159 1978 
L 1159 0 
L 581 0 
L 581 4863 
L 1159 4863 
L 1159 2956 
Q 1366 3272 1645 3428 
Q 1925 3584 2291 3584 
Q 2894 3584 3203 3211 
Q 3513 2838 3513 2113 
z
" transform="scale(0.015625)"/>
        <path id="DejaVuSans-67" d="M 2906 1791 
Q 2906 2416 2648 2759 
Q 2391 3103 1925 3103 
Q 1463 3103 1205 2759 
Q 947 2416 947 1791 
Q 947 1169 1205 825 
Q 1463 481 1925 481 
Q 2391 481 2648 825 
Q 2906 1169 2906 1791 
z
M 3481 434 
Q 3481 -459 3084 -895 
Q 2688 -1331 1869 -1331 
Q 1566 -1331 1297 -1286 
Q 1028 -1241 775 -1147 
L 775 -588 
Q 1028 -725 1275 -790 
Q 1522 -856 1778 -856 
Q 2344 -856 2625 -561 
Q 2906 -266 2906 331 
L 2906 616 
Q 2728 306 2450 153 
Q 2172 0 1784 0 
Q 1141 0 747 490 
Q 353 981 353 1791 
Q 353 2603 747 3093 
Q 1141 3584 1784 3584 
Q 2172 3584 2450 3431 
Q 2728 3278 2906 2969 
L 2906 3500 
L 3481 3500 
L 3481 434 
z
" transform="scale(0.015625)"/>
       </defs>
       <use xlink:href="#DejaVuSans-6d"/>
       <use xlink:href="#DejaVuSans-61" transform="translate(97.412109 0)"/>
       <use xlink:href="#DejaVuSans-63" transform="translate(158.691406 0)"/>
       <use xlink:href="#DejaVuSans-72" transform="translate(213.671875 0)"/>
       <use xlink:href="#DejaVuSans-6f" transform="translate(252.535156 0)"/>
       <use xlink:href="#DejaVuSans-70" transform="translate(313.716797 0)"/>
       <use xlink:href="#DejaVuSans-68" transform="translate(377.193359 0)"/>
       <use xlink:href="#DejaVuSans-61" transform="translate(440.572266 0)"/>
       <use xlink:href="#DejaVuSans-67" transform="translate(501.851562 0)"/>
       <use xlink:href="#DejaVuSans-65" transform="translate(565.328125 0)"/>
      </g>
     </g>
    </g>
    <g id="xtick_9">
     <g id="text_9">
      <!-- myeloid cell -->
      <g style="fill: #262626" transform="translate(668.245866 529.624313) rotate(-90) scale(0.1 -0.1)">
       <use xlink:href="#DejaVuSans-6d"/>
       <use xlink:href="#DejaVuSans-79" transform="translate(97.412109 0)"/>
       <use xlink:href="#DejaVuSans-65" transform="translate(156.591797 0)"/>
       <use xlink:href="#DejaVuSans-6c" transform="translate(218.115234 0)"/>
       <use xlink:href="#DejaVuSans-6f" transform="translate(245.898438 0)"/>
       <use xlink:href="#DejaVuSans-69" transform="translate(307.080078 0)"/>
       <use xlink:href="#DejaVuSans-64" transform="translate(334.863281 0)"/>
       <use xlink:href="#DejaVuSans-20" transform="translate(398.339844 0)"/>
       <use xlink:href="#DejaVuSans-63" transform="translate(430.126953 0)"/>
       <use xlink:href="#DejaVuSans-65" transform="translate(485.107422 0)"/>
       <use xlink:href="#DejaVuSans-6c" transform="translate(546.630859 0)"/>
       <use xlink:href="#DejaVuSans-6c" transform="translate(574.414062 0)"/>
      </g>
     </g>
    </g>
    <g id="xtick_10">
     <g id="text_10">
      <!-- t cell:regulatory -->
      <g style="fill: #262626" transform="translate(738.041152 548.777438) rotate(-90) scale(0.1 -0.1)">
       <use xlink:href="#DejaVuSans-74"/>
       <use xlink:href="#DejaVuSans-20" transform="translate(39.208984 0)"/>
       <use xlink:href="#DejaVuSans-63" transform="translate(70.996094 0)"/>
       <use xlink:href="#DejaVuSans-65" transform="translate(125.976562 0)"/>
       <use xlink:href="#DejaVuSans-6c" transform="translate(187.5 0)"/>
       <use xlink:href="#DejaVuSans-6c" transform="translate(215.283203 0)"/>
       <use xlink:href="#DejaVuSans-3a" transform="translate(243.066406 0)"/>
       <use xlink:href="#DejaVuSans-72" transform="translate(276.757812 0)"/>
       <use xlink:href="#DejaVuSans-65" transform="translate(315.621094 0)"/>
       <use xlink:href="#DejaVuSans-67" transform="translate(377.144531 0)"/>
       <use xlink:href="#DejaVuSans-75" transform="translate(440.621094 0)"/>
       <use xlink:href="#DejaVuSans-6c" transform="translate(504 0)"/>
       <use xlink:href="#DejaVuSans-61" transform="translate(531.783203 0)"/>
       <use xlink:href="#DejaVuSans-74" transform="translate(593.0625 0)"/>
       <use xlink:href="#DejaVuSans-6f" transform="translate(632.271484 0)"/>
       <use xlink:href="#DejaVuSans-72" transform="translate(693.453125 0)"/>
       <use xlink:href="#DejaVuSans-79" transform="translate(734.566406 0)"/>
      </g>
     </g>
    </g>
    <g id="xtick_11">
     <g id="text_11">
      <!-- b cell -->
      <g style="fill: #262626" transform="translate(807.836438 496.136813) rotate(-90) scale(0.1 -0.1)">
       <defs>
        <path id="DejaVuSans-62" d="M 3116 1747 
Q 3116 2381 2855 2742 
Q 2594 3103 2138 3103 
Q 1681 3103 1420 2742 
Q 1159 2381 1159 1747 
Q 1159 1113 1420 752 
Q 1681 391 2138 391 
Q 2594 391 2855 752 
Q 3116 1113 3116 1747 
z
M 1159 2969 
Q 1341 3281 1617 3432 
Q 1894 3584 2278 3584 
Q 2916 3584 3314 3078 
Q 3713 2572 3713 1747 
Q 3713 922 3314 415 
Q 2916 -91 2278 -91 
Q 1894 -91 1617 61 
Q 1341 213 1159 525 
L 1159 0 
L 581 0 
L 581 4863 
L 1159 4863 
L 1159 2969 
z
" transform="scale(0.015625)"/>
       </defs>
       <use xlink:href="#DejaVuSans-62"/>
       <use xlink:href="#DejaVuSans-20" transform="translate(63.476562 0)"/>
       <use xlink:href="#DejaVuSans-63" transform="translate(95.263672 0)"/>
       <use xlink:href="#DejaVuSans-65" transform="translate(150.244141 0)"/>
       <use xlink:href="#DejaVuSans-6c" transform="translate(211.767578 0)"/>
       <use xlink:href="#DejaVuSans-6c" transform="translate(239.550781 0)"/>
      </g>
     </g>
    </g>
    <g id="xtick_12">
     <g id="text_12">
      <!-- keratinocyte -->
      <g style="fill: #262626" transform="translate(877.631723 531.868063) rotate(-90) scale(0.1 -0.1)">
       <use xlink:href="#DejaVuSans-6b"/>
       <use xlink:href="#DejaVuSans-65" transform="translate(54.285156 0)"/>
       <use xlink:href="#DejaVuSans-72" transform="translate(115.808594 0)"/>
       <use xlink:href="#DejaVuSans-61" transform="translate(156.921875 0)"/>
       <use xlink:href="#DejaVuSans-74" transform="translate(218.201172 0)"/>
       <use xlink:href="#DejaVuSans-69" transform="translate(257.410156 0)"/>
       <use xlink:href="#DejaVuSans-6e" transform="translate(285.193359 0)"/>
       <use xlink:href="#DejaVuSans-6f" transform="translate(348.572266 0)"/>
       <use xlink:href="#DejaVuSans-63" transform="translate(409.753906 0)"/>
       <use xlink:href="#DejaVuSans-79" transform="translate(464.734375 0)"/>
       <use xlink:href="#DejaVuSans-74" transform="translate(523.914062 0)"/>
       <use xlink:href="#DejaVuSans-65" transform="translate(563.123047 0)"/>
      </g>
     </g>
    </g>
    <g id="xtick_13">
     <g id="text_13">
      <!-- dendritic cell:cd11b+ -->
      <g style="fill: #262626" transform="translate(947.427009 576.730563) rotate(-90) scale(0.1 -0.1)">
       <defs>
        <path id="DejaVuSans-31" d="M 794 531 
L 1825 531 
L 1825 4091 
L 703 3866 
L 703 4441 
L 1819 4666 
L 2450 4666 
L 2450 531 
L 3481 531 
L 3481 0 
L 794 0 
L 794 531 
z
" transform="scale(0.015625)"/>
       </defs>
       <use xlink:href="#DejaVuSans-64"/>
       <use xlink:href="#DejaVuSans-65" transform="translate(63.476562 0)"/>
       <use xlink:href="#DejaVuSans-6e" transform="translate(125 0)"/>
       <use xlink:href="#DejaVuSans-64" transform="translate(188.378906 0)"/>
       <use xlink:href="#DejaVuSans-72" transform="translate(251.855469 0)"/>
       <use xlink:href="#DejaVuSans-69" transform="translate(292.96875 0)"/>
       <use xlink:href="#DejaVuSans-74" transform="translate(320.751953 0)"/>
       <use xlink:href="#DejaVuSans-69" transform="translate(359.960938 0)"/>
       <use xlink:href="#DejaVuSans-63" transform="translate(387.744141 0)"/>
       <use xlink:href="#DejaVuSans-20" transform="translate(442.724609 0)"/>
       <use xlink:href="#DejaVuSans-63" transform="translate(474.511719 0)"/>
       <use xlink:href="#DejaVuSans-65" transform="translate(529.492188 0)"/>
       <use xlink:href="#DejaVuSans-6c" transform="translate(591.015625 0)"/>
       <use xlink:href="#DejaVuSans-6c" transform="translate(618.798828 0)"/>
       <use xlink:href="#DejaVuSans-3a" transform="translate(646.582031 0)"/>
       <use xlink:href="#DejaVuSans-63" transform="translate(680.273438 0)"/>
       <use xlink:href="#DejaVuSans-64" transform="translate(735.253906 0)"/>
       <use xlink:href="#DejaVuSans-31" transform="translate(798.730469 0)"/>
       <use xlink:href="#DejaVuSans-31" transform="translate(862.353516 0)"/>
       <use xlink:href="#DejaVuSans-62" transform="translate(925.976562 0)"/>
       <use xlink:href="#DejaVuSans-2b" transform="translate(989.453125 0)"/>
      </g>
     </g>
    </g>
    <g id="xtick_14">
     <g id="text_14">
      <!-- langerhans cell -->
      <g style="fill: #262626" transform="translate(1017.222295 545.482125) rotate(-90) scale(0.1 -0.1)">
       <defs>
        <path id="DejaVuSans-73" d="M 2834 3397 
L 2834 2853 
Q 2591 2978 2328 3040 
Q 2066 3103 1784 3103 
Q 1356 3103 1142 2972 
Q 928 2841 928 2578 
Q 928 2378 1081 2264 
Q 1234 2150 1697 2047 
L 1894 2003 
Q 2506 1872 2764 1633 
Q 3022 1394 3022 966 
Q 3022 478 2636 193 
Q 2250 -91 1575 -91 
Q 1294 -91 989 -36 
Q 684 19 347 128 
L 347 722 
Q 666 556 975 473 
Q 1284 391 1588 391 
Q 1994 391 2212 530 
Q 2431 669 2431 922 
Q 2431 1156 2273 1281 
Q 2116 1406 1581 1522 
L 1381 1569 
Q 847 1681 609 1914 
Q 372 2147 372 2553 
Q 372 3047 722 3315 
Q 1072 3584 1716 3584 
Q 2034 3584 2315 3537 
Q 2597 3491 2834 3397 
z
" transform="scale(0.015625)"/>
       </defs>
       <use xlink:href="#DejaVuSans-6c"/>
       <use xlink:href="#DejaVuSans-61" transform="translate(27.783203 0)"/>
       <use xlink:href="#DejaVuSans-6e" transform="translate(89.0625 0)"/>
       <use xlink:href="#DejaVuSans-67" transform="translate(152.441406 0)"/>
       <use xlink:href="#DejaVuSans-65" transform="translate(215.917969 0)"/>
       <use xlink:href="#DejaVuSans-72" transform="translate(277.441406 0)"/>
       <use xlink:href="#DejaVuSans-68" transform="translate(316.804688 0)"/>
       <use xlink:href="#DejaVuSans-61" transform="translate(380.183594 0)"/>
       <use xlink:href="#DejaVuSans-6e" transform="translate(441.462891 0)"/>
       <use xlink:href="#DejaVuSans-73" transform="translate(504.841797 0)"/>
       <use xlink:href="#DejaVuSans-20" transform="translate(556.941406 0)"/>
       <use xlink:href="#DejaVuSans-63" transform="translate(588.728516 0)"/>
       <use xlink:href="#DejaVuSans-65" transform="translate(643.708984 0)"/>
       <use xlink:href="#DejaVuSans-6c" transform="translate(705.232422 0)"/>
       <use xlink:href="#DejaVuSans-6c" transform="translate(733.015625 0)"/>
      </g>
     </g>
    </g>
    <g id="text_15">
     <!-- Level Three Cell Type -->
     <g style="fill: #262626" transform="translate(512.517781 588.329) scale(0.1 -0.1)">
      <defs>
       <path id="DejaVuSans-4c" d="M 628 4666 
L 1259 4666 
L 1259 531 
L 3531 531 
L 3531 0 
L 628 0 
L 628 4666 
z
" transform="scale(0.015625)"/>
       <path id="DejaVuSans-76" d="M 191 3500 
L 800 3500 
L 1894 563 
L 2988 3500 
L 3597 3500 
L 2284 0 
L 1503 0 
L 191 3500 
z
" transform="scale(0.015625)"/>
       <path id="DejaVuSans-54" d="M -19 4666 
L 3928 4666 
L 3928 4134 
L 2272 4134 
L 2272 0 
L 1638 0 
L 1638 4134 
L -19 4134 
L -19 4666 
z
" transform="scale(0.015625)"/>
       <path id="DejaVuSans-43" d="M 4122 4306 
L 4122 3641 
Q 3803 3938 3442 4084 
Q 3081 4231 2675 4231 
Q 1875 4231 1450 3742 
Q 1025 3253 1025 2328 
Q 1025 1406 1450 917 
Q 1875 428 2675 428 
Q 3081 428 3442 575 
Q 3803 722 4122 1019 
L 4122 359 
Q 3791 134 3420 21 
Q 3050 -91 2638 -91 
Q 1578 -91 968 557 
Q 359 1206 359 2328 
Q 359 3453 968 4101 
Q 1578 4750 2638 4750 
Q 3056 4750 3426 4639 
Q 3797 4528 4122 4306 
z
" transform="scale(0.015625)"/>
      </defs>
      <use xlink:href="#DejaVuSans-4c"/>
      <use xlink:href="#DejaVuSans-65" transform="translate(53.962891 0)"/>
      <use xlink:href="#DejaVuSans-76" transform="translate(115.486328 0)"/>
      <use xlink:href="#DejaVuSans-65" transform="translate(174.666016 0)"/>
      <use xlink:href="#DejaVuSans-6c" transform="translate(236.189453 0)"/>
      <use xlink:href="#DejaVuSans-20" transform="translate(263.972656 0)"/>
      <use xlink:href="#DejaVuSans-54" transform="translate(295.759766 0)"/>
      <use xlink:href="#DejaVuSans-68" transform="translate(356.84375 0)"/>
      <use xlink:href="#DejaVuSans-72" transform="translate(420.222656 0)"/>
      <use xlink:href="#DejaVuSans-65" transform="translate(459.085938 0)"/>
      <use xlink:href="#DejaVuSans-65" transform="translate(520.609375 0)"/>
      <use xlink:href="#DejaVuSans-20" transform="translate(582.132812 0)"/>
      <use xlink:href="#DejaVuSans-43" transform="translate(613.919922 0)"/>
      <use xlink:href="#DejaVuSans-65" transform="translate(683.744141 0)"/>
      <use xlink:href="#DejaVuSans-6c" transform="translate(745.267578 0)"/>
      <use xlink:href="#DejaVuSans-6c" transform="translate(773.050781 0)"/>
      <use xlink:href="#DejaVuSans-20" transform="translate(800.833984 0)"/>
      <use xlink:href="#DejaVuSans-54" transform="translate(832.621094 0)"/>
      <use xlink:href="#DejaVuSans-79" transform="translate(878.080078 0)"/>
      <use xlink:href="#DejaVuSans-70" transform="translate(937.259766 0)"/>
      <use xlink:href="#DejaVuSans-65" transform="translate(1000.736328 0)"/>
     </g>
    </g>
   </g>
   <g id="matplotlib.axis_2">
    <g id="ytick_1">
     <g id="line2d_1">
      <path d="M 77.065625 445.659306 
L 1054.199625 445.659306 
" clip-path="url(#pb074bb9538)" style="fill: none; stroke: #cccccc; stroke-width: 0.8; stroke-linecap: round"/>
     </g>
     <g id="text_16">
      <!-- 0 -->
      <g style="fill: #262626" transform="translate(62.403125 449.458524) scale(0.1 -0.1)">
       <defs>
        <path id="DejaVuSans-30" d="M 2034 4250 
Q 1547 4250 1301 3770 
Q 1056 3291 1056 2328 
Q 1056 1369 1301 889 
Q 1547 409 2034 409 
Q 2525 409 2770 889 
Q 3016 1369 3016 2328 
Q 3016 3291 2770 3770 
Q 2525 4250 2034 4250 
z
M 2034 4750 
Q 2819 4750 3233 4129 
Q 3647 3509 3647 2328 
Q 3647 1150 3233 529 
Q 2819 -91 2034 -91 
Q 1250 -91 836 529 
Q 422 1150 422 2328 
Q 422 3509 836 4129 
Q 1250 4750 2034 4750 
z
" transform="scale(0.015625)"/>
       </defs>
       <use xlink:href="#DejaVuSans-30"/>
      </g>
     </g>
    </g>
    <g id="ytick_2">
     <g id="line2d_2">
      <path d="M 77.065625 387.243973 
L 1054.199625 387.243973 
" clip-path="url(#pb074bb9538)" style="fill: none; stroke: #cccccc; stroke-width: 0.8; stroke-linecap: round"/>
     </g>
     <g id="text_17">
      <!-- 20 -->
      <g style="fill: #262626" transform="translate(56.040625 391.043192) scale(0.1 -0.1)">
       <defs>
        <path id="DejaVuSans-32" d="M 1228 531 
L 3431 531 
L 3431 0 
L 469 0 
L 469 531 
Q 828 903 1448 1529 
Q 2069 2156 2228 2338 
Q 2531 2678 2651 2914 
Q 2772 3150 2772 3378 
Q 2772 3750 2511 3984 
Q 2250 4219 1831 4219 
Q 1534 4219 1204 4116 
Q 875 4013 500 3803 
L 500 4441 
Q 881 4594 1212 4672 
Q 1544 4750 1819 4750 
Q 2544 4750 2975 4387 
Q 3406 4025 3406 3419 
Q 3406 3131 3298 2873 
Q 3191 2616 2906 2266 
Q 2828 2175 2409 1742 
Q 1991 1309 1228 531 
z
" transform="scale(0.015625)"/>
       </defs>
       <use xlink:href="#DejaVuSans-32"/>
       <use xlink:href="#DejaVuSans-30" transform="translate(63.623047 0)"/>
      </g>
     </g>
    </g>
    <g id="ytick_3">
     <g id="line2d_3">
      <path d="M 77.065625 328.828641 
L 1054.199625 328.828641 
" clip-path="url(#pb074bb9538)" style="fill: none; stroke: #cccccc; stroke-width: 0.8; stroke-linecap: round"/>
     </g>
     <g id="text_18">
      <!-- 40 -->
      <g style="fill: #262626" transform="translate(56.040625 332.62786) scale(0.1 -0.1)">
       <use xlink:href="#DejaVuSans-34"/>
       <use xlink:href="#DejaVuSans-30" transform="translate(63.623047 0)"/>
      </g>
     </g>
    </g>
    <g id="ytick_4">
     <g id="line2d_4">
      <path d="M 77.065625 270.413309 
L 1054.199625 270.413309 
" clip-path="url(#pb074bb9538)" style="fill: none; stroke: #cccccc; stroke-width: 0.8; stroke-linecap: round"/>
     </g>
     <g id="text_19">
      <!-- 60 -->
      <g style="fill: #262626" transform="translate(56.040625 274.212528) scale(0.1 -0.1)">
       <defs>
        <path id="DejaVuSans-36" d="M 2113 2584 
Q 1688 2584 1439 2293 
Q 1191 2003 1191 1497 
Q 1191 994 1439 701 
Q 1688 409 2113 409 
Q 2538 409 2786 701 
Q 3034 994 3034 1497 
Q 3034 2003 2786 2293 
Q 2538 2584 2113 2584 
z
M 3366 4563 
L 3366 3988 
Q 3128 4100 2886 4159 
Q 2644 4219 2406 4219 
Q 1781 4219 1451 3797 
Q 1122 3375 1075 2522 
Q 1259 2794 1537 2939 
Q 1816 3084 2150 3084 
Q 2853 3084 3261 2657 
Q 3669 2231 3669 1497 
Q 3669 778 3244 343 
Q 2819 -91 2113 -91 
Q 1303 -91 875 529 
Q 447 1150 447 2328 
Q 447 3434 972 4092 
Q 1497 4750 2381 4750 
Q 2619 4750 2861 4703 
Q 3103 4656 3366 4563 
z
" transform="scale(0.015625)"/>
       </defs>
       <use xlink:href="#DejaVuSans-36"/>
       <use xlink:href="#DejaVuSans-30" transform="translate(63.623047 0)"/>
      </g>
     </g>
    </g>
    <g id="ytick_5">
     <g id="line2d_5">
      <path d="M 77.065625 211.997977 
L 1054.199625 211.997977 
" clip-path="url(#pb074bb9538)" style="fill: none; stroke: #cccccc; stroke-width: 0.8; stroke-linecap: round"/>
     </g>
     <g id="text_20">
      <!-- 80 -->
      <g style="fill: #262626" transform="translate(56.040625 215.797195) scale(0.1 -0.1)">
       <defs>
        <path id="DejaVuSans-38" d="M 2034 2216 
Q 1584 2216 1326 1975 
Q 1069 1734 1069 1313 
Q 1069 891 1326 650 
Q 1584 409 2034 409 
Q 2484 409 2743 651 
Q 3003 894 3003 1313 
Q 3003 1734 2745 1975 
Q 2488 2216 2034 2216 
z
M 1403 2484 
Q 997 2584 770 2862 
Q 544 3141 544 3541 
Q 544 4100 942 4425 
Q 1341 4750 2034 4750 
Q 2731 4750 3128 4425 
Q 3525 4100 3525 3541 
Q 3525 3141 3298 2862 
Q 3072 2584 2669 2484 
Q 3125 2378 3379 2068 
Q 3634 1759 3634 1313 
Q 3634 634 3220 271 
Q 2806 -91 2034 -91 
Q 1263 -91 848 271 
Q 434 634 434 1313 
Q 434 1759 690 2068 
Q 947 2378 1403 2484 
z
M 1172 3481 
Q 1172 3119 1398 2916 
Q 1625 2713 2034 2713 
Q 2441 2713 2670 2916 
Q 2900 3119 2900 3481 
Q 2900 3844 2670 4047 
Q 2441 4250 2034 4250 
Q 1625 4250 1398 4047 
Q 1172 3844 1172 3481 
z
" transform="scale(0.015625)"/>
       </defs>
       <use xlink:href="#DejaVuSans-38"/>
       <use xlink:href="#DejaVuSans-30" transform="translate(63.623047 0)"/>
      </g>
     </g>
    </g>
    <g id="ytick_6">
     <g id="line2d_6">
      <path d="M 77.065625 153.582644 
L 1054.199625 153.582644 
" clip-path="url(#pb074bb9538)" style="fill: none; stroke: #cccccc; stroke-width: 0.8; stroke-linecap: round"/>
     </g>
     <g id="text_21">
      <!-- 100 -->
      <g style="fill: #262626" transform="translate(49.678125 157.381863) scale(0.1 -0.1)">
       <use xlink:href="#DejaVuSans-31"/>
       <use xlink:href="#DejaVuSans-30" transform="translate(63.623047 0)"/>
       <use xlink:href="#DejaVuSans-30" transform="translate(127.246094 0)"/>
      </g>
     </g>
    </g>
    <g id="ytick_7">
     <g id="line2d_7">
      <path d="M 77.065625 95.167312 
L 1054.199625 95.167312 
" clip-path="url(#pb074bb9538)" style="fill: none; stroke: #cccccc; stroke-width: 0.8; stroke-linecap: round"/>
     </g>
     <g id="text_22">
      <!-- 120 -->
      <g style="fill: #262626" transform="translate(49.678125 98.966531) scale(0.1 -0.1)">
       <use xlink:href="#DejaVuSans-31"/>
       <use xlink:href="#DejaVuSans-32" transform="translate(63.623047 0)"/>
       <use xlink:href="#DejaVuSans-30" transform="translate(127.246094 0)"/>
      </g>
     </g>
    </g>
    <g id="text_23">
     <!-- Distance (μm) -->
     <g style="fill: #262626" transform="translate(43.598438 290.755125) rotate(-90) scale(0.1 -0.1)">
      <defs>
       <path id="DejaVuSans-44" d="M 1259 4147 
L 1259 519 
L 2022 519 
Q 2988 519 3436 956 
Q 3884 1394 3884 2338 
Q 3884 3275 3436 3711 
Q 2988 4147 2022 4147 
L 1259 4147 
z
M 628 4666 
L 1925 4666 
Q 3281 4666 3915 4102 
Q 4550 3538 4550 2338 
Q 4550 1131 3912 565 
Q 3275 0 1925 0 
L 628 0 
L 628 4666 
z
" transform="scale(0.015625)"/>
       <path id="DejaVuSans-28" d="M 1984 4856 
Q 1566 4138 1362 3434 
Q 1159 2731 1159 2009 
Q 1159 1288 1364 580 
Q 1569 -128 1984 -844 
L 1484 -844 
Q 1016 -109 783 600 
Q 550 1309 550 2009 
Q 550 2706 781 3412 
Q 1013 4119 1484 4856 
L 1984 4856 
z
" transform="scale(0.015625)"/>
       <path id="DejaVuSans-3bc" d="M 544 -1331 
L 544 3500 
L 1119 3500 
L 1119 1325 
Q 1119 872 1334 640 
Q 1550 409 1972 409 
Q 2434 409 2667 671 
Q 2900 934 2900 1459 
L 2900 3500 
L 3475 3500 
L 3475 806 
Q 3475 619 3529 530 
Q 3584 441 3700 441 
Q 3728 441 3778 458 
Q 3828 475 3916 513 
L 3916 50 
Q 3788 -22 3673 -56 
Q 3559 -91 3450 -91 
Q 3234 -91 3106 31 
Q 2978 153 2931 403 
Q 2775 156 2548 32 
Q 2322 -91 2016 -91 
Q 1697 -91 1473 31 
Q 1250 153 1119 397 
L 1119 -1331 
L 544 -1331 
z
" transform="scale(0.015625)"/>
       <path id="DejaVuSans-29" d="M 513 4856 
L 1013 4856 
Q 1481 4119 1714 3412 
Q 1947 2706 1947 2009 
Q 1947 1309 1714 600 
Q 1481 -109 1013 -844 
L 513 -844 
Q 928 -128 1133 580 
Q 1338 1288 1338 2009 
Q 1338 2731 1133 3434 
Q 928 4138 513 4856 
z
" transform="scale(0.015625)"/>
      </defs>
      <use xlink:href="#DejaVuSans-44"/>
      <use xlink:href="#DejaVuSans-69" transform="translate(77.001953 0)"/>
      <use xlink:href="#DejaVuSans-73" transform="translate(104.785156 0)"/>
      <use xlink:href="#DejaVuSans-74" transform="translate(156.884766 0)"/>
      <use xlink:href="#DejaVuSans-61" transform="translate(196.09375 0)"/>
      <use xlink:href="#DejaVuSans-6e" transform="translate(257.373047 0)"/>
      <use xlink:href="#DejaVuSans-63" transform="translate(320.751953 0)"/>
      <use xlink:href="#DejaVuSans-65" transform="translate(375.732422 0)"/>
      <use xlink:href="#DejaVuSans-20" transform="translate(437.255859 0)"/>
      <use xlink:href="#DejaVuSans-28" transform="translate(469.042969 0)"/>
      <use xlink:href="#DejaVuSans-3bc" transform="translate(508.056641 0)"/>
      <use xlink:href="#DejaVuSans-6d" transform="translate(571.679688 0)"/>
      <use xlink:href="#DejaVuSans-29" transform="translate(669.091797 0)"/>
     </g>
    </g>
   </g>
   <g id="patch_3">
    <path d="M 111.963268 445.659306 
L 111.963268 445.659306 
L 111.963268 445.659306 
L 111.963268 445.659306 
z
" clip-path="url(#pb074bb9538)" style="fill: #ecbd81; stroke: #6d6d6d; stroke-width: 0.8; stroke-linejoin: miter"/>
   </g>
   <g id="patch_4">
    <path d="M 111.963268 445.659306 
L 111.963268 445.659306 
L 111.963268 445.659306 
L 111.963268 445.659306 
z
" clip-path="url(#pb074bb9538)" style="fill: #c0dca9; stroke: #6d6d6d; stroke-width: 0.8; stroke-linejoin: miter"/>
   </g>
   <g id="patch_5">
    <path d="M 84.045154 424.124772 
L 111.963268 424.124772 
L 111.963268 378.509191 
L 84.045154 378.509191 
L 84.045154 424.124772 
z
" clip-path="url(#pb074bb9538)" style="fill: #ecbd81; stroke: #6d6d6d; stroke-linejoin: miter"/>
   </g>
   <g id="line2d_8">
    <path d="M 98.004211 424.124772 
L 98.004211 442.39771 
" clip-path="url(#pb074bb9538)" style="fill: none; stroke: #6d6d6d"/>
   </g>
   <g id="line2d_9">
    <path d="M 98.004211 378.509191 
L 98.004211 310.132116 
" clip-path="url(#pb074bb9538)" style="fill: none; stroke: #6d6d6d"/>
   </g>
   <g id="line2d_10">
    <path d="M 91.024682 442.39771 
L 104.983739 442.39771 
" clip-path="url(#pb074bb9538)" style="fill: none; stroke: #6d6d6d; stroke-linecap: round"/>
   </g>
   <g id="line2d_11">
    <path d="M 91.024682 310.132116 
L 104.983739 310.132116 
" clip-path="url(#pb074bb9538)" style="fill: none; stroke: #6d6d6d; stroke-linecap: round"/>
   </g>
   <g id="patch_6">
    <path d="M 153.840439 357.10386 
L 181.758554 357.10386 
L 181.758554 241.578656 
L 153.840439 241.578656 
L 153.840439 357.10386 
z
" clip-path="url(#pb074bb9538)" style="fill: #ecbd81; stroke: #6d6d6d; stroke-linejoin: miter"/>
   </g>
   <g id="line2d_12">
    <path d="M 167.799496 357.10386 
L 167.799496 437.985245 
" clip-path="url(#pb074bb9538)" style="fill: none; stroke: #6d6d6d"/>
   </g>
   <g id="line2d_13">
    <path d="M 167.799496 241.578656 
L 167.799496 68.303165 
" clip-path="url(#pb074bb9538)" style="fill: none; stroke: #6d6d6d"/>
   </g>
   <g id="line2d_14">
    <path d="M 160.819968 437.985245 
L 174.779025 437.985245 
" clip-path="url(#pb074bb9538)" style="fill: none; stroke: #6d6d6d; stroke-linecap: round"/>
   </g>
   <g id="line2d_15">
    <path d="M 160.819968 68.303165 
L 174.779025 68.303165 
" clip-path="url(#pb074bb9538)" style="fill: none; stroke: #6d6d6d; stroke-linecap: round"/>
   </g>
   <g id="patch_7">
    <path d="M 223.635725 421.982998 
L 251.553839 421.982998 
L 251.553839 383.866263 
L 223.635725 383.866263 
L 223.635725 421.982998 
z
" clip-path="url(#pb074bb9538)" style="fill: #ecbd81; stroke: #6d6d6d; stroke-linejoin: miter"/>
   </g>
   <g id="line2d_16">
    <path d="M 237.594782 421.982998 
L 237.594782 439.046687 
" clip-path="url(#pb074bb9538)" style="fill: none; stroke: #6d6d6d"/>
   </g>
   <g id="line2d_17">
    <path d="M 237.594782 383.866263 
L 237.594782 326.712759 
" clip-path="url(#pb074bb9538)" style="fill: none; stroke: #6d6d6d"/>
   </g>
   <g id="line2d_18">
    <path d="M 230.615254 439.046687 
L 244.574311 439.046687 
" clip-path="url(#pb074bb9538)" style="fill: none; stroke: #6d6d6d; stroke-linecap: round"/>
   </g>
   <g id="line2d_19">
    <path d="M 230.615254 326.712759 
L 244.574311 326.712759 
" clip-path="url(#pb074bb9538)" style="fill: none; stroke: #6d6d6d; stroke-linecap: round"/>
   </g>
   <g id="patch_8">
    <path d="M 293.431011 422.238777 
L 321.349125 422.238777 
L 321.349125 385.019599 
L 293.431011 385.019599 
L 293.431011 422.238777 
z
" clip-path="url(#pb074bb9538)" style="fill: #ecbd81; stroke: #6d6d6d; stroke-linejoin: miter"/>
   </g>
   <g id="line2d_20">
    <path d="M 307.390068 422.238777 
L 307.390068 440.293813 
" clip-path="url(#pb074bb9538)" style="fill: none; stroke: #6d6d6d"/>
   </g>
   <g id="line2d_21">
    <path d="M 307.390068 385.019599 
L 307.390068 329.360171 
" clip-path="url(#pb074bb9538)" style="fill: none; stroke: #6d6d6d"/>
   </g>
   <g id="line2d_22">
    <path d="M 300.410539 440.293813 
L 314.369596 440.293813 
" clip-path="url(#pb074bb9538)" style="fill: none; stroke: #6d6d6d; stroke-linecap: round"/>
   </g>
   <g id="line2d_23">
    <path d="M 300.410539 329.360171 
L 314.369596 329.360171 
" clip-path="url(#pb074bb9538)" style="fill: none; stroke: #6d6d6d; stroke-linecap: round"/>
   </g>
   <g id="patch_9">
    <path d="M 363.226296 421.773555 
L 391.144411 421.773555 
L 391.144411 378.037606 
L 363.226296 378.037606 
L 363.226296 421.773555 
z
" clip-path="url(#pb074bb9538)" style="fill: #ecbd81; stroke: #6d6d6d; stroke-linejoin: miter"/>
   </g>
   <g id="line2d_24">
    <path d="M 377.185354 421.773555 
L 377.185354 437.920632 
" clip-path="url(#pb074bb9538)" style="fill: none; stroke: #6d6d6d"/>
   </g>
   <g id="line2d_25">
    <path d="M 377.185354 378.037606 
L 377.185354 317.828081 
" clip-path="url(#pb074bb9538)" style="fill: none; stroke: #6d6d6d"/>
   </g>
   <g id="line2d_26">
    <path d="M 370.205825 437.920632 
L 384.164882 437.920632 
" clip-path="url(#pb074bb9538)" style="fill: none; stroke: #6d6d6d; stroke-linecap: round"/>
   </g>
   <g id="line2d_27">
    <path d="M 370.205825 317.828081 
L 384.164882 317.828081 
" clip-path="url(#pb074bb9538)" style="fill: none; stroke: #6d6d6d; stroke-linecap: round"/>
   </g>
   <g id="patch_10">
    <path d="M 433.021582 419.791584 
L 460.939696 419.791584 
L 460.939696 389.41552 
L 433.021582 389.41552 
L 433.021582 419.791584 
z
" clip-path="url(#pb074bb9538)" style="fill: #ecbd81; stroke: #6d6d6d; stroke-linejoin: miter"/>
   </g>
   <g id="line2d_28">
    <path d="M 446.980639 419.791584 
L 446.980639 437.833905 
" clip-path="url(#pb074bb9538)" style="fill: none; stroke: #6d6d6d"/>
   </g>
   <g id="line2d_29">
    <path d="M 446.980639 389.41552 
L 446.980639 379.90109 
" clip-path="url(#pb074bb9538)" style="fill: none; stroke: #6d6d6d"/>
   </g>
   <g id="line2d_30">
    <path d="M 440.001111 437.833905 
L 453.960168 437.833905 
" clip-path="url(#pb074bb9538)" style="fill: none; stroke: #6d6d6d; stroke-linecap: round"/>
   </g>
   <g id="line2d_31">
    <path d="M 440.001111 379.90109 
L 453.960168 379.90109 
" clip-path="url(#pb074bb9538)" style="fill: none; stroke: #6d6d6d; stroke-linecap: round"/>
   </g>
   <g id="patch_11">
    <path d="M 502.816868 427.138652 
L 530.734982 427.138652 
L 530.734982 399.836872 
L 502.816868 399.836872 
L 502.816868 427.138652 
z
" clip-path="url(#pb074bb9538)" style="fill: #ecbd81; stroke: #6d6d6d; stroke-linejoin: miter"/>
   </g>
   <g id="line2d_32">
    <path d="M 516.775925 427.138652 
L 516.775925 439.426839 
" clip-path="url(#pb074bb9538)" style="fill: none; stroke: #6d6d6d"/>
   </g>
   <g id="line2d_33">
    <path d="M 516.775925 399.836872 
L 516.775925 361.069209 
" clip-path="url(#pb074bb9538)" style="fill: none; stroke: #6d6d6d"/>
   </g>
   <g id="line2d_34">
    <path d="M 509.796396 439.426839 
L 523.755454 439.426839 
" clip-path="url(#pb074bb9538)" style="fill: none; stroke: #6d6d6d; stroke-linecap: round"/>
   </g>
   <g id="line2d_35">
    <path d="M 509.796396 361.069209 
L 523.755454 361.069209 
" clip-path="url(#pb074bb9538)" style="fill: none; stroke: #6d6d6d; stroke-linecap: round"/>
   </g>
   <g id="patch_12">
    <path d="M 572.612154 429.285888 
L 600.530268 429.285888 
L 600.530268 402.965191 
L 572.612154 402.965191 
L 572.612154 429.285888 
z
" clip-path="url(#pb074bb9538)" style="fill: #ecbd81; stroke: #6d6d6d; stroke-linejoin: miter"/>
   </g>
   <g id="line2d_36">
    <path d="M 586.571211 429.285888 
L 586.571211 438.200544 
" clip-path="url(#pb074bb9538)" style="fill: none; stroke: #6d6d6d"/>
   </g>
   <g id="line2d_37">
    <path d="M 586.571211 402.965191 
L 586.571211 363.770269 
" clip-path="url(#pb074bb9538)" style="fill: none; stroke: #6d6d6d"/>
   </g>
   <g id="line2d_38">
    <path d="M 579.591682 438.200544 
L 593.550739 438.200544 
" clip-path="url(#pb074bb9538)" style="fill: none; stroke: #6d6d6d; stroke-linecap: round"/>
   </g>
   <g id="line2d_39">
    <path d="M 579.591682 363.770269 
L 593.550739 363.770269 
" clip-path="url(#pb074bb9538)" style="fill: none; stroke: #6d6d6d; stroke-linecap: round"/>
   </g>
   <g id="patch_13">
    <path d="M 642.407439 364.709782 
L 670.325554 364.709782 
L 670.325554 295.448663 
L 642.407439 295.448663 
L 642.407439 364.709782 
z
" clip-path="url(#pb074bb9538)" style="fill: #ecbd81; stroke: #6d6d6d; stroke-linejoin: miter"/>
   </g>
   <g id="line2d_40">
    <path d="M 656.366496 364.709782 
L 656.366496 431.086442 
" clip-path="url(#pb074bb9538)" style="fill: none; stroke: #6d6d6d"/>
   </g>
   <g id="line2d_41">
    <path d="M 656.366496 295.448663 
L 656.366496 281.247116 
" clip-path="url(#pb074bb9538)" style="fill: none; stroke: #6d6d6d"/>
   </g>
   <g id="line2d_42">
    <path d="M 649.386968 431.086442 
L 663.346025 431.086442 
" clip-path="url(#pb074bb9538)" style="fill: none; stroke: #6d6d6d; stroke-linecap: round"/>
   </g>
   <g id="line2d_43">
    <path d="M 649.386968 281.247116 
L 663.346025 281.247116 
" clip-path="url(#pb074bb9538)" style="fill: none; stroke: #6d6d6d; stroke-linecap: round"/>
   </g>
   <g id="patch_14">
    <path d="M 712.202725 424.785555 
L 740.120839 424.785555 
L 740.120839 396.493364 
L 712.202725 396.493364 
L 712.202725 424.785555 
z
" clip-path="url(#pb074bb9538)" style="fill: #ecbd81; stroke: #6d6d6d; stroke-linejoin: miter"/>
   </g>
   <g id="line2d_44">
    <path d="M 726.161782 424.785555 
L 726.161782 438.619107 
" clip-path="url(#pb074bb9538)" style="fill: none; stroke: #6d6d6d"/>
   </g>
   <g id="line2d_45">
    <path d="M 726.161782 396.493364 
L 726.161782 354.143641 
" clip-path="url(#pb074bb9538)" style="fill: none; stroke: #6d6d6d"/>
   </g>
   <g id="line2d_46">
    <path d="M 719.182254 438.619107 
L 733.141311 438.619107 
" clip-path="url(#pb074bb9538)" style="fill: none; stroke: #6d6d6d; stroke-linecap: round"/>
   </g>
   <g id="line2d_47">
    <path d="M 719.182254 354.143641 
L 733.141311 354.143641 
" clip-path="url(#pb074bb9538)" style="fill: none; stroke: #6d6d6d; stroke-linecap: round"/>
   </g>
   <g id="patch_15">
    <path d="M 781.998011 420.319872 
L 809.916125 420.319872 
L 809.916125 384.597943 
L 781.998011 384.597943 
L 781.998011 420.319872 
z
" clip-path="url(#pb074bb9538)" style="fill: #ecbd81; stroke: #6d6d6d; stroke-linejoin: miter"/>
   </g>
   <g id="line2d_48">
    <path d="M 795.957068 420.319872 
L 795.957068 438.00804 
" clip-path="url(#pb074bb9538)" style="fill: none; stroke: #6d6d6d"/>
   </g>
   <g id="line2d_49">
    <path d="M 795.957068 384.597943 
L 795.957068 334.619791 
" clip-path="url(#pb074bb9538)" style="fill: none; stroke: #6d6d6d"/>
   </g>
   <g id="line2d_50">
    <path d="M 788.977539 438.00804 
L 802.936596 438.00804 
" clip-path="url(#pb074bb9538)" style="fill: none; stroke: #6d6d6d; stroke-linecap: round"/>
   </g>
   <g id="line2d_51">
    <path d="M 788.977539 334.619791 
L 802.936596 334.619791 
" clip-path="url(#pb074bb9538)" style="fill: none; stroke: #6d6d6d; stroke-linecap: round"/>
   </g>
   <g id="patch_16">
    <path d="M 851.793296 427.604087 
L 879.711411 427.604087 
L 879.711411 411.816635 
L 851.793296 411.816635 
L 851.793296 427.604087 
z
" clip-path="url(#pb074bb9538)" style="fill: #ecbd81; stroke: #6d6d6d; stroke-linejoin: miter"/>
   </g>
   <g id="line2d_52">
    <path d="M 865.752354 427.604087 
L 865.752354 437.028531 
" clip-path="url(#pb074bb9538)" style="fill: none; stroke: #6d6d6d"/>
   </g>
   <g id="line2d_53">
    <path d="M 865.752354 411.816635 
L 865.752354 404.442137 
" clip-path="url(#pb074bb9538)" style="fill: none; stroke: #6d6d6d"/>
   </g>
   <g id="line2d_54">
    <path d="M 858.772825 437.028531 
L 872.731882 437.028531 
" clip-path="url(#pb074bb9538)" style="fill: none; stroke: #6d6d6d; stroke-linecap: round"/>
   </g>
   <g id="line2d_55">
    <path d="M 858.772825 404.442137 
L 872.731882 404.442137 
" clip-path="url(#pb074bb9538)" style="fill: none; stroke: #6d6d6d; stroke-linecap: round"/>
   </g>
   <g id="patch_17">
    <path d="M 111.963268 400.61413 
L 139.881382 400.61413 
L 139.881382 317.139774 
L 111.963268 317.139774 
L 111.963268 400.61413 
z
" clip-path="url(#pb074bb9538)" style="fill: #c0dca9; stroke: #6d6d6d; stroke-linejoin: miter"/>
   </g>
   <g id="line2d_56">
    <path d="M 125.922325 400.61413 
L 125.922325 440.234017 
" clip-path="url(#pb074bb9538)" style="fill: none; stroke: #6d6d6d"/>
   </g>
   <g id="line2d_57">
    <path d="M 125.922325 317.139774 
L 125.922325 192.913876 
" clip-path="url(#pb074bb9538)" style="fill: none; stroke: #6d6d6d"/>
   </g>
   <g id="line2d_58">
    <path d="M 118.942796 440.234017 
L 132.901854 440.234017 
" clip-path="url(#pb074bb9538)" style="fill: none; stroke: #6d6d6d; stroke-linecap: round"/>
   </g>
   <g id="line2d_59">
    <path d="M 118.942796 192.913876 
L 132.901854 192.913876 
" clip-path="url(#pb074bb9538)" style="fill: none; stroke: #6d6d6d; stroke-linecap: round"/>
   </g>
   <g id="patch_18">
    <path d="M 181.758554 403.139348 
L 209.676668 403.139348 
L 209.676668 354.10754 
L 181.758554 354.10754 
L 181.758554 403.139348 
z
" clip-path="url(#pb074bb9538)" style="fill: #c0dca9; stroke: #6d6d6d; stroke-linejoin: miter"/>
   </g>
   <g id="line2d_60">
    <path d="M 195.717611 403.139348 
L 195.717611 436.736337 
" clip-path="url(#pb074bb9538)" style="fill: none; stroke: #6d6d6d"/>
   </g>
   <g id="line2d_61">
    <path d="M 195.717611 354.10754 
L 195.717611 280.990537 
" clip-path="url(#pb074bb9538)" style="fill: none; stroke: #6d6d6d"/>
   </g>
   <g id="line2d_62">
    <path d="M 188.738082 436.736337 
L 202.697139 436.736337 
" clip-path="url(#pb074bb9538)" style="fill: none; stroke: #6d6d6d; stroke-linecap: round"/>
   </g>
   <g id="line2d_63">
    <path d="M 188.738082 280.990537 
L 202.697139 280.990537 
" clip-path="url(#pb074bb9538)" style="fill: none; stroke: #6d6d6d; stroke-linecap: round"/>
   </g>
   <g id="patch_19">
    <path d="M 251.553839 418.774004 
L 279.471954 418.774004 
L 279.471954 387.048099 
L 251.553839 387.048099 
L 251.553839 418.774004 
z
" clip-path="url(#pb074bb9538)" style="fill: #c0dca9; stroke: #6d6d6d; stroke-linejoin: miter"/>
   </g>
   <g id="line2d_64">
    <path d="M 265.512896 418.774004 
L 265.512896 439.379689 
" clip-path="url(#pb074bb9538)" style="fill: none; stroke: #6d6d6d"/>
   </g>
   <g id="line2d_65">
    <path d="M 265.512896 387.048099 
L 265.512896 340.333667 
" clip-path="url(#pb074bb9538)" style="fill: none; stroke: #6d6d6d"/>
   </g>
   <g id="line2d_66">
    <path d="M 258.533368 439.379689 
L 272.492425 439.379689 
" clip-path="url(#pb074bb9538)" style="fill: none; stroke: #6d6d6d; stroke-linecap: round"/>
   </g>
   <g id="line2d_67">
    <path d="M 258.533368 340.333667 
L 272.492425 340.333667 
" clip-path="url(#pb074bb9538)" style="fill: none; stroke: #6d6d6d; stroke-linecap: round"/>
   </g>
   <g id="patch_20">
    <path d="M 321.349125 421.381908 
L 349.267239 421.381908 
L 349.267239 393.653934 
L 321.349125 393.653934 
L 321.349125 421.381908 
z
" clip-path="url(#pb074bb9538)" style="fill: #c0dca9; stroke: #6d6d6d; stroke-linejoin: miter"/>
   </g>
   <g id="line2d_68">
    <path d="M 335.308182 421.381908 
L 335.308182 433.732129 
" clip-path="url(#pb074bb9538)" style="fill: none; stroke: #6d6d6d"/>
   </g>
   <g id="line2d_69">
    <path d="M 335.308182 393.653934 
L 335.308182 352.404091 
" clip-path="url(#pb074bb9538)" style="fill: none; stroke: #6d6d6d"/>
   </g>
   <g id="line2d_70">
    <path d="M 328.328654 433.732129 
L 342.287711 433.732129 
" clip-path="url(#pb074bb9538)" style="fill: none; stroke: #6d6d6d; stroke-linecap: round"/>
   </g>
   <g id="line2d_71">
    <path d="M 328.328654 352.404091 
L 342.287711 352.404091 
" clip-path="url(#pb074bb9538)" style="fill: none; stroke: #6d6d6d; stroke-linecap: round"/>
   </g>
   <g id="patch_21">
    <path d="M 391.144411 411.351406 
L 419.062525 411.351406 
L 419.062525 373.173288 
L 391.144411 373.173288 
L 391.144411 411.351406 
z
" clip-path="url(#pb074bb9538)" style="fill: #c0dca9; stroke: #6d6d6d; stroke-linejoin: miter"/>
   </g>
   <g id="line2d_72">
    <path d="M 405.103468 411.351406 
L 405.103468 435.909434 
" clip-path="url(#pb074bb9538)" style="fill: none; stroke: #6d6d6d"/>
   </g>
   <g id="line2d_73">
    <path d="M 405.103468 373.173288 
L 405.103468 316.659567 
" clip-path="url(#pb074bb9538)" style="fill: none; stroke: #6d6d6d"/>
   </g>
   <g id="line2d_74">
    <path d="M 398.123939 435.909434 
L 412.082996 435.909434 
" clip-path="url(#pb074bb9538)" style="fill: none; stroke: #6d6d6d; stroke-linecap: round"/>
   </g>
   <g id="line2d_75">
    <path d="M 398.123939 316.659567 
L 412.082996 316.659567 
" clip-path="url(#pb074bb9538)" style="fill: none; stroke: #6d6d6d; stroke-linecap: round"/>
   </g>
   <g id="patch_22">
    <path d="M 460.939696 420.455525 
L 488.857811 420.455525 
L 488.857811 394.240775 
L 460.939696 394.240775 
L 460.939696 420.455525 
z
" clip-path="url(#pb074bb9538)" style="fill: #c0dca9; stroke: #6d6d6d; stroke-linejoin: miter"/>
   </g>
   <g id="line2d_76">
    <path d="M 474.898754 420.455525 
L 474.898754 437.255988 
" clip-path="url(#pb074bb9538)" style="fill: none; stroke: #6d6d6d"/>
   </g>
   <g id="line2d_77">
    <path d="M 474.898754 394.240775 
L 474.898754 355.465997 
" clip-path="url(#pb074bb9538)" style="fill: none; stroke: #6d6d6d"/>
   </g>
   <g id="line2d_78">
    <path d="M 467.919225 437.255988 
L 481.878282 437.255988 
" clip-path="url(#pb074bb9538)" style="fill: none; stroke: #6d6d6d; stroke-linecap: round"/>
   </g>
   <g id="line2d_79">
    <path d="M 467.919225 355.465997 
L 481.878282 355.465997 
" clip-path="url(#pb074bb9538)" style="fill: none; stroke: #6d6d6d; stroke-linecap: round"/>
   </g>
   <g id="patch_23">
    <path d="M 600.530268 419.372679 
L 628.448382 419.372679 
L 628.448382 378.571717 
L 600.530268 378.571717 
L 600.530268 419.372679 
z
" clip-path="url(#pb074bb9538)" style="fill: #c0dca9; stroke: #6d6d6d; stroke-linejoin: miter"/>
   </g>
   <g id="line2d_80">
    <path d="M 614.489325 419.372679 
L 614.489325 439.732385 
" clip-path="url(#pb074bb9538)" style="fill: none; stroke: #6d6d6d"/>
   </g>
   <g id="line2d_81">
    <path d="M 614.489325 378.571717 
L 614.489325 317.461086 
" clip-path="url(#pb074bb9538)" style="fill: none; stroke: #6d6d6d"/>
   </g>
   <g id="line2d_82">
    <path d="M 607.509796 439.732385 
L 621.468854 439.732385 
" clip-path="url(#pb074bb9538)" style="fill: none; stroke: #6d6d6d; stroke-linecap: round"/>
   </g>
   <g id="line2d_83">
    <path d="M 607.509796 317.461086 
L 621.468854 317.461086 
" clip-path="url(#pb074bb9538)" style="fill: none; stroke: #6d6d6d; stroke-linecap: round"/>
   </g>
   <g id="patch_24">
    <path d="M 740.120839 420.451934 
L 768.038954 420.451934 
L 768.038954 390.83036 
L 740.120839 390.83036 
L 740.120839 420.451934 
z
" clip-path="url(#pb074bb9538)" style="fill: #c0dca9; stroke: #6d6d6d; stroke-linejoin: miter"/>
   </g>
   <g id="line2d_84">
    <path d="M 754.079896 420.451934 
L 754.079896 435.011592 
" clip-path="url(#pb074bb9538)" style="fill: none; stroke: #6d6d6d"/>
   </g>
   <g id="line2d_85">
    <path d="M 754.079896 390.83036 
L 754.079896 349.095566 
" clip-path="url(#pb074bb9538)" style="fill: none; stroke: #6d6d6d"/>
   </g>
   <g id="line2d_86">
    <path d="M 747.100368 435.011592 
L 761.059425 435.011592 
" clip-path="url(#pb074bb9538)" style="fill: none; stroke: #6d6d6d; stroke-linecap: round"/>
   </g>
   <g id="line2d_87">
    <path d="M 747.100368 349.095566 
L 761.059425 349.095566 
" clip-path="url(#pb074bb9538)" style="fill: none; stroke: #6d6d6d; stroke-linecap: round"/>
   </g>
   <g id="patch_25">
    <path d="M 809.916125 426.403322 
L 837.834239 426.403322 
L 837.834239 405.283954 
L 809.916125 405.283954 
L 809.916125 426.403322 
z
" clip-path="url(#pb074bb9538)" style="fill: #c0dca9; stroke: #6d6d6d; stroke-linejoin: miter"/>
   </g>
   <g id="line2d_88">
    <path d="M 823.875182 426.403322 
L 823.875182 436.446742 
" clip-path="url(#pb074bb9538)" style="fill: none; stroke: #6d6d6d"/>
   </g>
   <g id="line2d_89">
    <path d="M 823.875182 405.283954 
L 823.875182 396.470877 
" clip-path="url(#pb074bb9538)" style="fill: none; stroke: #6d6d6d"/>
   </g>
   <g id="line2d_90">
    <path d="M 816.895654 436.446742 
L 830.854711 436.446742 
" clip-path="url(#pb074bb9538)" style="fill: none; stroke: #6d6d6d; stroke-linecap: round"/>
   </g>
   <g id="line2d_91">
    <path d="M 816.895654 396.470877 
L 830.854711 396.470877 
" clip-path="url(#pb074bb9538)" style="fill: none; stroke: #6d6d6d; stroke-linecap: round"/>
   </g>
   <g id="patch_26">
    <path d="M 879.711411 359.95374 
L 907.629525 359.95374 
L 907.629525 311.201038 
L 879.711411 311.201038 
L 879.711411 359.95374 
z
" clip-path="url(#pb074bb9538)" style="fill: #c0dca9; stroke: #6d6d6d; stroke-linejoin: miter"/>
   </g>
   <g id="line2d_92">
    <path d="M 893.670468 359.95374 
L 893.670468 415.591793 
" clip-path="url(#pb074bb9538)" style="fill: none; stroke: #6d6d6d"/>
   </g>
   <g id="line2d_93">
    <path d="M 893.670468 311.201038 
L 893.670468 240.537569 
" clip-path="url(#pb074bb9538)" style="fill: none; stroke: #6d6d6d"/>
   </g>
   <g id="line2d_94">
    <path d="M 886.690939 415.591793 
L 900.649996 415.591793 
" clip-path="url(#pb074bb9538)" style="fill: none; stroke: #6d6d6d; stroke-linecap: round"/>
   </g>
   <g id="line2d_95">
    <path d="M 886.690939 240.537569 
L 900.649996 240.537569 
" clip-path="url(#pb074bb9538)" style="fill: none; stroke: #6d6d6d; stroke-linecap: round"/>
   </g>
   <g id="patch_27">
    <path d="M 949.506696 412.123509 
L 977.424811 412.123509 
L 977.424811 338.56053 
L 949.506696 338.56053 
L 949.506696 412.123509 
z
" clip-path="url(#pb074bb9538)" style="fill: #c0dca9; stroke: #6d6d6d; stroke-linejoin: miter"/>
   </g>
   <g id="line2d_96">
    <path d="M 963.465754 412.123509 
L 963.465754 438.921077 
" clip-path="url(#pb074bb9538)" style="fill: none; stroke: #6d6d6d"/>
   </g>
   <g id="line2d_97">
    <path d="M 963.465754 338.56053 
L 963.465754 233.55155 
" clip-path="url(#pb074bb9538)" style="fill: none; stroke: #6d6d6d"/>
   </g>
   <g id="line2d_98">
    <path d="M 956.486225 438.921077 
L 970.445282 438.921077 
" clip-path="url(#pb074bb9538)" style="fill: none; stroke: #6d6d6d; stroke-linecap: round"/>
   </g>
   <g id="line2d_99">
    <path d="M 956.486225 233.55155 
L 970.445282 233.55155 
" clip-path="url(#pb074bb9538)" style="fill: none; stroke: #6d6d6d; stroke-linecap: round"/>
   </g>
   <g id="patch_28">
    <path d="M 1019.301982 400.848587 
L 1047.220096 400.848587 
L 1047.220096 378.779209 
L 1019.301982 378.779209 
L 1019.301982 400.848587 
z
" clip-path="url(#pb074bb9538)" style="fill: #c0dca9; stroke: #6d6d6d; stroke-linejoin: miter"/>
   </g>
   <g id="line2d_100">
    <path d="M 1033.261039 400.848587 
L 1033.261039 429.326189 
" clip-path="url(#pb074bb9538)" style="fill: none; stroke: #6d6d6d"/>
   </g>
   <g id="line2d_101">
    <path d="M 1033.261039 378.779209 
L 1033.261039 349.308836 
" clip-path="url(#pb074bb9538)" style="fill: none; stroke: #6d6d6d"/>
   </g>
   <g id="line2d_102">
    <path d="M 1026.281511 429.326189 
L 1040.240568 429.326189 
" clip-path="url(#pb074bb9538)" style="fill: none; stroke: #6d6d6d; stroke-linecap: round"/>
   </g>
   <g id="line2d_103">
    <path d="M 1026.281511 349.308836 
L 1040.240568 349.308836 
" clip-path="url(#pb074bb9538)" style="fill: none; stroke: #6d6d6d; stroke-linecap: round"/>
   </g>
   <g id="line2d_104">
    <path d="M 84.045154 410.303882 
L 111.963268 410.303882 
" clip-path="url(#pb074bb9538)" style="fill: none; stroke: #6d6d6d"/>
   </g>
   <g id="line2d_105">
    <path d="M 153.840439 310.097437 
L 181.758554 310.097437 
" clip-path="url(#pb074bb9538)" style="fill: none; stroke: #6d6d6d"/>
   </g>
   <g id="line2d_106">
    <path d="M 223.635725 407.299625 
L 251.553839 407.299625 
" clip-path="url(#pb074bb9538)" style="fill: none; stroke: #6d6d6d"/>
   </g>
   <g id="line2d_107">
    <path d="M 293.431011 407.90122 
L 321.349125 407.90122 
" clip-path="url(#pb074bb9538)" style="fill: none; stroke: #6d6d6d"/>
   </g>
   <g id="line2d_108">
    <path d="M 363.226296 406.197102 
L 391.144411 406.197102 
" clip-path="url(#pb074bb9538)" style="fill: none; stroke: #6d6d6d"/>
   </g>
   <g id="line2d_109">
    <path d="M 433.021582 397.380486 
L 460.939696 397.380486 
" clip-path="url(#pb074bb9538)" style="fill: none; stroke: #6d6d6d"/>
   </g>
   <g id="line2d_110">
    <path d="M 502.816868 417.948108 
L 530.734982 417.948108 
" clip-path="url(#pb074bb9538)" style="fill: none; stroke: #6d6d6d"/>
   </g>
   <g id="line2d_111">
    <path d="M 572.612154 420.28334 
L 600.530268 420.28334 
" clip-path="url(#pb074bb9538)" style="fill: none; stroke: #6d6d6d"/>
   </g>
   <g id="line2d_112">
    <path d="M 642.407439 330.165253 
L 670.325554 330.165253 
" clip-path="url(#pb074bb9538)" style="fill: none; stroke: #6d6d6d"/>
   </g>
   <g id="line2d_113">
    <path d="M 712.202725 412.747854 
L 740.120839 412.747854 
" clip-path="url(#pb074bb9538)" style="fill: none; stroke: #6d6d6d"/>
   </g>
   <g id="line2d_114">
    <path d="M 781.998011 408.423551 
L 809.916125 408.423551 
" clip-path="url(#pb074bb9538)" style="fill: none; stroke: #6d6d6d"/>
   </g>
   <g id="line2d_115">
    <path d="M 851.793296 418.914176 
L 879.711411 418.914176 
" clip-path="url(#pb074bb9538)" style="fill: none; stroke: #6d6d6d"/>
   </g>
   <g id="line2d_116">
    <path d="M 111.963268 370.543942 
L 139.881382 370.543942 
" clip-path="url(#pb074bb9538)" style="fill: none; stroke: #6d6d6d"/>
   </g>
   <g id="line2d_117">
    <path d="M 181.758554 386.262285 
L 209.676668 386.262285 
" clip-path="url(#pb074bb9538)" style="fill: none; stroke: #6d6d6d"/>
   </g>
   <g id="line2d_118">
    <path d="M 251.553839 405.584405 
L 279.471954 405.584405 
" clip-path="url(#pb074bb9538)" style="fill: none; stroke: #6d6d6d"/>
   </g>
   <g id="line2d_119">
    <path d="M 321.349125 410.379797 
L 349.267239 410.379797 
" clip-path="url(#pb074bb9538)" style="fill: none; stroke: #6d6d6d"/>
   </g>
   <g id="line2d_120">
    <path d="M 391.144411 395.873001 
L 419.062525 395.873001 
" clip-path="url(#pb074bb9538)" style="fill: none; stroke: #6d6d6d"/>
   </g>
   <g id="line2d_121">
    <path d="M 460.939696 409.698653 
L 488.857811 409.698653 
" clip-path="url(#pb074bb9538)" style="fill: none; stroke: #6d6d6d"/>
   </g>
   <g id="line2d_122">
    <path d="M 600.530268 403.828341 
L 628.448382 403.828341 
" clip-path="url(#pb074bb9538)" style="fill: none; stroke: #6d6d6d"/>
   </g>
   <g id="line2d_123">
    <path d="M 740.120839 408.123912 
L 768.038954 408.123912 
" clip-path="url(#pb074bb9538)" style="fill: none; stroke: #6d6d6d"/>
   </g>
   <g id="line2d_124">
    <path d="M 809.916125 416.589929 
L 837.834239 416.589929 
" clip-path="url(#pb074bb9538)" style="fill: none; stroke: #6d6d6d"/>
   </g>
   <g id="line2d_125">
    <path d="M 879.711411 338.741482 
L 907.629525 338.741482 
" clip-path="url(#pb074bb9538)" style="fill: none; stroke: #6d6d6d"/>
   </g>
   <g id="line2d_126">
    <path d="M 949.506696 383.735373 
L 977.424811 383.735373 
" clip-path="url(#pb074bb9538)" style="fill: none; stroke: #6d6d6d"/>
   </g>
   <g id="line2d_127">
    <path d="M 1019.301982 387.616576 
L 1047.220096 387.616576 
" clip-path="url(#pb074bb9538)" style="fill: none; stroke: #6d6d6d"/>
   </g>
   <g id="patch_29">
    <path d="M 77.065625 461.102438 
L 77.065625 49.598437 
" style="fill: none; stroke: #cccccc; stroke-linejoin: miter; stroke-linecap: square"/>
   </g>
   <g id="patch_30">
    <path d="M 1054.199625 461.102438 
L 1054.199625 49.598437 
" style="fill: none; stroke: #cccccc; stroke-linejoin: miter; stroke-linecap: square"/>
   </g>
   <g id="patch_31">
    <path d="M 77.065625 461.102438 
L 1054.199625 461.102438 
" style="fill: none; stroke: #cccccc; stroke-linejoin: miter; stroke-linecap: square"/>
   </g>
   <g id="patch_32">
    <path d="M 77.065625 49.598437 
L 1054.199625 49.598437 
" style="fill: none; stroke: #cccccc; stroke-linejoin: miter; stroke-linecap: square"/>
   </g>
   <g id="text_24">
    <!-- Distribution of distances by Level Three Cell Type and region -->
    <g style="fill: #262626" transform="translate(413.852156 43.598437) scale(0.1 -0.1)">
     <defs>
      <path id="DejaVuSans-66" d="M 2375 4863 
L 2375 4384 
L 1825 4384 
Q 1516 4384 1395 4259 
Q 1275 4134 1275 3809 
L 1275 3500 
L 2222 3500 
L 2222 3053 
L 1275 3053 
L 1275 0 
L 697 0 
L 697 3053 
L 147 3053 
L 147 3500 
L 697 3500 
L 697 3744 
Q 697 4328 969 4595 
Q 1241 4863 1831 4863 
L 2375 4863 
z
" transform="scale(0.015625)"/>
     </defs>
     <use xlink:href="#DejaVuSans-44"/>
     <use xlink:href="#DejaVuSans-69" transform="translate(77.001953 0)"/>
     <use xlink:href="#DejaVuSans-73" transform="translate(104.785156 0)"/>
     <use xlink:href="#DejaVuSans-74" transform="translate(156.884766 0)"/>
     <use xlink:href="#DejaVuSans-72" transform="translate(196.09375 0)"/>
     <use xlink:href="#DejaVuSans-69" transform="translate(237.207031 0)"/>
     <use xlink:href="#DejaVuSans-62" transform="translate(264.990234 0)"/>
     <use xlink:href="#DejaVuSans-75" transform="translate(328.466797 0)"/>
     <use xlink:href="#DejaVuSans-74" transform="translate(391.845703 0)"/>
     <use xlink:href="#DejaVuSans-69" transform="translate(431.054688 0)"/>
     <use xlink:href="#DejaVuSans-6f" transform="translate(458.837891 0)"/>
     <use xlink:href="#DejaVuSans-6e" transform="translate(520.019531 0)"/>
     <use xlink:href="#DejaVuSans-20" transform="translate(583.398438 0)"/>
     <use xlink:href="#DejaVuSans-6f" transform="translate(615.185547 0)"/>
     <use xlink:href="#DejaVuSans-66" transform="translate(676.367188 0)"/>
     <use xlink:href="#DejaVuSans-20" transform="translate(711.572266 0)"/>
     <use xlink:href="#DejaVuSans-64" transform="translate(743.359375 0)"/>
     <use xlink:href="#DejaVuSans-69" transform="translate(806.835938 0)"/>
     <use xlink:href="#DejaVuSans-73" transform="translate(834.619141 0)"/>
     <use xlink:href="#DejaVuSans-74" transform="translate(886.71875 0)"/>
     <use xlink:href="#DejaVuSans-61" transform="translate(925.927734 0)"/>
     <use xlink:href="#DejaVuSans-6e" transform="translate(987.207031 0)"/>
     <use xlink:href="#DejaVuSans-63" transform="translate(1050.585938 0)"/>
     <use xlink:href="#DejaVuSans-65" transform="translate(1105.566406 0)"/>
     <use xlink:href="#DejaVuSans-73" transform="translate(1167.089844 0)"/>
     <use xlink:href="#DejaVuSans-20" transform="translate(1219.189453 0)"/>
     <use xlink:href="#DejaVuSans-62" transform="translate(1250.976562 0)"/>
     <use xlink:href="#DejaVuSans-79" transform="translate(1314.453125 0)"/>
     <use xlink:href="#DejaVuSans-20" transform="translate(1373.632812 0)"/>
     <use xlink:href="#DejaVuSans-4c" transform="translate(1405.419922 0)"/>
     <use xlink:href="#DejaVuSans-65" transform="translate(1459.382812 0)"/>
     <use xlink:href="#DejaVuSans-76" transform="translate(1520.90625 0)"/>
     <use xlink:href="#DejaVuSans-65" transform="translate(1580.085938 0)"/>
     <use xlink:href="#DejaVuSans-6c" transform="translate(1641.609375 0)"/>
     <use xlink:href="#DejaVuSans-20" transform="translate(1669.392578 0)"/>
     <use xlink:href="#DejaVuSans-54" transform="translate(1701.179688 0)"/>
     <use xlink:href="#DejaVuSans-68" transform="translate(1762.263672 0)"/>
     <use xlink:href="#DejaVuSans-72" transform="translate(1825.642578 0)"/>
     <use xlink:href="#DejaVuSans-65" transform="translate(1864.505859 0)"/>
     <use xlink:href="#DejaVuSans-65" transform="translate(1926.029297 0)"/>
     <use xlink:href="#DejaVuSans-20" transform="translate(1987.552734 0)"/>
     <use xlink:href="#DejaVuSans-43" transform="translate(2019.339844 0)"/>
     <use xlink:href="#DejaVuSans-65" transform="translate(2089.164062 0)"/>
     <use xlink:href="#DejaVuSans-6c" transform="translate(2150.6875 0)"/>
     <use xlink:href="#DejaVuSans-6c" transform="translate(2178.470703 0)"/>
     <use xlink:href="#DejaVuSans-20" transform="translate(2206.253906 0)"/>
     <use xlink:href="#DejaVuSans-54" transform="translate(2238.041016 0)"/>
     <use xlink:href="#DejaVuSans-79" transform="translate(2283.5 0)"/>
     <use xlink:href="#DejaVuSans-70" transform="translate(2342.679688 0)"/>
     <use xlink:href="#DejaVuSans-65" transform="translate(2406.15625 0)"/>
     <use xlink:href="#DejaVuSans-20" transform="translate(2467.679688 0)"/>
     <use xlink:href="#DejaVuSans-61" transform="translate(2499.466797 0)"/>
     <use xlink:href="#DejaVuSans-6e" transform="translate(2560.746094 0)"/>
     <use xlink:href="#DejaVuSans-64" transform="translate(2624.125 0)"/>
     <use xlink:href="#DejaVuSans-20" transform="translate(2687.601562 0)"/>
     <use xlink:href="#DejaVuSans-72" transform="translate(2719.388672 0)"/>
     <use xlink:href="#DejaVuSans-65" transform="translate(2758.251953 0)"/>
     <use xlink:href="#DejaVuSans-67" transform="translate(2819.775391 0)"/>
     <use xlink:href="#DejaVuSans-69" transform="translate(2883.251953 0)"/>
     <use xlink:href="#DejaVuSans-6f" transform="translate(2911.035156 0)"/>
     <use xlink:href="#DejaVuSans-6e" transform="translate(2972.216797 0)"/>
    </g>
   </g>
   <g id="legend_1">
    <g id="patch_33">
     <path d="M 1060.359625 82.471937 
L 1165.115375 82.471937 
Q 1166.875375 82.471937 1166.875375 80.711937 
L 1166.875375 55.758437 
Q 1166.875375 53.998437 1165.115375 53.998437 
L 1060.359625 53.998437 
Q 1058.599625 53.998437 1058.599625 55.758437 
L 1058.599625 80.711937 
Q 1058.599625 82.471937 1060.359625 82.471937 
z
" style="fill: #ffffff; opacity: 0.8; stroke: #cccccc; stroke-width: 0.8; stroke-linejoin: miter"/>
    </g>
    <g id="patch_34">
     <path d="M 1062.119625 64.205062 
L 1079.719625 64.205062 
L 1079.719625 58.045062 
L 1062.119625 58.045062 
z
" style="fill: #ecbd81; stroke: #6d6d6d; stroke-width: 0.8; stroke-linejoin: miter"/>
    </g>
    <g id="text_25">
     <!-- Invasive Margin -->
     <g style="fill: #262626" transform="translate(1086.759625 64.205062) scale(0.088 -0.088)">
      <defs>
       <path id="DejaVuSans-49" d="M 628 4666 
L 1259 4666 
L 1259 0 
L 628 0 
L 628 4666 
z
" transform="scale(0.015625)"/>
       <path id="DejaVuSans-4d" d="M 628 4666 
L 1569 4666 
L 2759 1491 
L 3956 4666 
L 4897 4666 
L 4897 0 
L 4281 0 
L 4281 4097 
L 3078 897 
L 2444 897 
L 1241 4097 
L 1241 0 
L 628 0 
L 628 4666 
z
" transform="scale(0.015625)"/>
      </defs>
      <use xlink:href="#DejaVuSans-49"/>
      <use xlink:href="#DejaVuSans-6e" transform="translate(29.492188 0)"/>
      <use xlink:href="#DejaVuSans-76" transform="translate(92.871094 0)"/>
      <use xlink:href="#DejaVuSans-61" transform="translate(152.050781 0)"/>
      <use xlink:href="#DejaVuSans-73" transform="translate(213.330078 0)"/>
      <use xlink:href="#DejaVuSans-69" transform="translate(265.429688 0)"/>
      <use xlink:href="#DejaVuSans-76" transform="translate(293.212891 0)"/>
      <use xlink:href="#DejaVuSans-65" transform="translate(352.392578 0)"/>
      <use xlink:href="#DejaVuSans-20" transform="translate(413.916016 0)"/>
      <use xlink:href="#DejaVuSans-4d" transform="translate(445.703125 0)"/>
      <use xlink:href="#DejaVuSans-61" transform="translate(531.982422 0)"/>
      <use xlink:href="#DejaVuSans-72" transform="translate(593.261719 0)"/>
      <use xlink:href="#DejaVuSans-67" transform="translate(632.625 0)"/>
      <use xlink:href="#DejaVuSans-69" transform="translate(696.101562 0)"/>
      <use xlink:href="#DejaVuSans-6e" transform="translate(723.884766 0)"/>
     </g>
    </g>
    <g id="patch_35">
     <path d="M 1062.119625 77.121812 
L 1079.719625 77.121812 
L 1079.719625 70.961812 
L 1062.119625 70.961812 
z
" style="fill: #c0dca9; stroke: #6d6d6d; stroke-width: 0.8; stroke-linejoin: miter"/>
    </g>
    <g id="text_26">
     <!-- Melanoma In Situ -->
     <g style="fill: #262626" transform="translate(1086.759625 77.121812) scale(0.088 -0.088)">
      <defs>
       <path id="DejaVuSans-53" d="M 3425 4513 
L 3425 3897 
Q 3066 4069 2747 4153 
Q 2428 4238 2131 4238 
Q 1616 4238 1336 4038 
Q 1056 3838 1056 3469 
Q 1056 3159 1242 3001 
Q 1428 2844 1947 2747 
L 2328 2669 
Q 3034 2534 3370 2195 
Q 3706 1856 3706 1288 
Q 3706 609 3251 259 
Q 2797 -91 1919 -91 
Q 1588 -91 1214 -16 
Q 841 59 441 206 
L 441 856 
Q 825 641 1194 531 
Q 1563 422 1919 422 
Q 2459 422 2753 634 
Q 3047 847 3047 1241 
Q 3047 1584 2836 1778 
Q 2625 1972 2144 2069 
L 1759 2144 
Q 1053 2284 737 2584 
Q 422 2884 422 3419 
Q 422 4038 858 4394 
Q 1294 4750 2059 4750 
Q 2388 4750 2728 4690 
Q 3069 4631 3425 4513 
z
" transform="scale(0.015625)"/>
      </defs>
      <use xlink:href="#DejaVuSans-4d"/>
      <use xlink:href="#DejaVuSans-65" transform="translate(86.279297 0)"/>
      <use xlink:href="#DejaVuSans-6c" transform="translate(147.802734 0)"/>
      <use xlink:href="#DejaVuSans-61" transform="translate(175.585938 0)"/>
      <use xlink:href="#DejaVuSans-6e" transform="translate(236.865234 0)"/>
      <use xlink:href="#DejaVuSans-6f" transform="translate(300.244141 0)"/>
      <use xlink:href="#DejaVuSans-6d" transform="translate(361.425781 0)"/>
      <use xlink:href="#DejaVuSans-61" transform="translate(458.837891 0)"/>
      <use xlink:href="#DejaVuSans-20" transform="translate(520.117188 0)"/>
      <use xlink:href="#DejaVuSans-49" transform="translate(551.904297 0)"/>
      <use xlink:href="#DejaVuSans-6e" transform="translate(581.396484 0)"/>
      <use xlink:href="#DejaVuSans-20" transform="translate(644.775391 0)"/>
      <use xlink:href="#DejaVuSans-53" transform="translate(676.5625 0)"/>
      <use xlink:href="#DejaVuSans-69" transform="translate(740.039062 0)"/>
      <use xlink:href="#DejaVuSans-74" transform="translate(767.822266 0)"/>
      <use xlink:href="#DejaVuSans-75" transform="translate(807.03125 0)"/>
     </g>
    </g>
   </g>
  </g>
 </g>
 <defs>
  <clipPath id="pb074bb9538">
   <rect x="77.065625" y="49.598437" width="977.134" height="411.504"/>
  </clipPath>
 </defs>
</svg>
