<?xml version="1.0" encoding="utf-8" standalone="no"?>
<!DOCTYPE svg PUBLIC "-//W3C//DTD SVG 1.1//EN"
  "http://www.w3.org/Graphics/SVG/1.1/DTD/svg11.dtd">
<svg xmlns:xlink="http://www.w3.org/1999/xlink" width="1202.852375pt" height="626.318063pt" viewBox="0 0 1202.852375 626.318063" xmlns="http://www.w3.org/2000/svg" version="1.1">
 <metadata>
  <rdf:RDF xmlns:dc="http://purl.org/dc/elements/1.1/" xmlns:cc="http://creativecommons.org/ns#" xmlns:rdf="http://www.w3.org/1999/02/22-rdf-syntax-ns#">
   <cc:Work>
    <dc:type rdf:resource="http://purl.org/dc/dcmitype/StillImage"/>
    <dc:date>2025-07-25T12:42:41.904576</dc:date>
    <dc:format>image/svg+xml</dc:format>
    <dc:creator>
     <cc:Agent>
      <dc:title>Matplotlib v3.10.3, https://matplotlib.org/</dc:title>
     </cc:Agent>
    </dc:creator>
   </cc:Work>
  </rdf:RDF>
 </metadata>
 <defs>
  <style type="text/css">*{stroke-linejoin: round; stroke-linecap: butt}</style>
 </defs>
 <g id="figure_1">
  <g id="patch_1">
   <path d="M 0 626.318063 
L 1202.852375 626.318063 
L 1202.852375 0 
L 0 0 
z
" style="fill: #ffffff"/>
  </g>
  <g id="axes_1">
   <g id="patch_2">
    <path d="M 70.703125 505.652438 
L 1087.347125 505.652438 
L 1087.347125 49.598438 
L 70.703125 49.598438 
z
" style="fill: #ffffff"/>
   </g>
   <g id="matplotlib.axis_1">
    <g id="xtick_1">
     <g id="text_1">
      <text style="font-size: 10px; font-family: 'Arial', 'DejaVu Sans', 'Liberation Sans', 'Bitstream Vera Sans', sans-serif; fill: #262626" transform="translate(238.064104 538.258688) rotate(-90)">t cell</text>
     </g>
    </g>
    <g id="xtick_2">
     <g id="text_2">
      <text style="font-size: 10px; font-family: 'Arial', 'DejaVu Sans', 'Liberation Sans', 'Bitstream Vera Sans', sans-serif; fill: #262626" transform="translate(576.945438 576.639938) rotate(-90)">macrophage</text>
     </g>
    </g>
    <g id="xtick_3">
     <g id="text_3">
      <text style="font-size: 10px; font-family: 'Arial', 'DejaVu Sans', 'Liberation Sans', 'Bitstream Vera Sans', sans-serif; fill: #262626" transform="translate(915.826771 576.418063) rotate(-90)">keratinocyte</text>
     </g>
    </g>
    <g id="text_4">
     <text style="font-size: 10px; font-family: 'Arial', 'DejaVu Sans', 'Liberation Sans', 'Bitstream Vera Sans', sans-serif; text-anchor: middle; fill: #262626" x="579.025125" y="588.238375" transform="rotate(-0 579.025125 588.238375)">Level Two Cell Type</text>
    </g>
   </g>
   <g id="matplotlib.axis_2">
    <g id="ytick_1">
     <g id="line2d_1">
      <path d="M 70.703125 484.92271 
L 1087.347125 484.92271 
" clip-path="url(#p3512e5292f)" style="fill: none; stroke: #cccccc; stroke-width: 0.8; stroke-linecap: round"/>
     </g>
     <g id="text_5">
      <text style="font-size: 10px; font-family: 'Arial', 'DejaVu Sans', 'Liberation Sans', 'Bitstream Vera Sans', sans-serif; text-anchor: end; fill: #262626" x="62.403125" y="488.721929" transform="rotate(-0 62.403125 488.721929)">0</text>
     </g>
    </g>
    <g id="ytick_2">
     <g id="line2d_2">
      <path d="M 70.703125 387.307997 
L 1087.347125 387.307997 
" clip-path="url(#p3512e5292f)" style="fill: none; stroke: #cccccc; stroke-width: 0.8; stroke-linecap: round"/>
     </g>
     <g id="text_6">
      <text style="font-size: 10px; font-family: 'Arial', 'DejaVu Sans', 'Liberation Sans', 'Bitstream Vera Sans', sans-serif; text-anchor: end; fill: #262626" x="62.403125" y="391.107216" transform="rotate(-0 62.403125 391.107216)">20</text>
     </g>
    </g>
    <g id="ytick_3">
     <g id="line2d_3">
      <path d="M 70.703125 289.693284 
L 1087.347125 289.693284 
" clip-path="url(#p3512e5292f)" style="fill: none; stroke: #cccccc; stroke-width: 0.8; stroke-linecap: round"/>
     </g>
     <g id="text_7">
      <text style="font-size: 10px; font-family: 'Arial', 'DejaVu Sans', 'Liberation Sans', 'Bitstream Vera Sans', sans-serif; text-anchor: end; fill: #262626" x="62.403125" y="293.492503" transform="rotate(-0 62.403125 293.492503)">40</text>
     </g>
    </g>
    <g id="ytick_4">
     <g id="line2d_4">
      <path d="M 70.703125 192.078571 
L 1087.347125 192.078571 
" clip-path="url(#p3512e5292f)" style="fill: none; stroke: #cccccc; stroke-width: 0.8; stroke-linecap: round"/>
     </g>
     <g id="text_8">
      <text style="font-size: 10px; font-family: 'Arial', 'DejaVu Sans', 'Liberation Sans', 'Bitstream Vera Sans', sans-serif; text-anchor: end; fill: #262626" x="62.403125" y="195.87779" transform="rotate(-0 62.403125 195.87779)">60</text>
     </g>
    </g>
    <g id="ytick_5">
     <g id="line2d_5">
      <path d="M 70.703125 94.463858 
L 1087.347125 94.463858 
" clip-path="url(#p3512e5292f)" style="fill: none; stroke: #cccccc; stroke-width: 0.8; stroke-linecap: round"/>
     </g>
     <g id="text_9">
      <text style="font-size: 10px; font-family: 'Arial', 'DejaVu Sans', 'Liberation Sans', 'Bitstream Vera Sans', sans-serif; text-anchor: end; fill: #262626" x="62.403125" y="98.263077" transform="rotate(-0 62.403125 98.263077)">80</text>
     </g>
    </g>
    <g id="text_10">
     <text style="font-size: 10px; font-family: 'Arial', 'DejaVu Sans', 'Liberation Sans', 'Bitstream Vera Sans', sans-serif; text-anchor: middle; fill: #262626" x="43.598438" y="277.625438" transform="rotate(-90 43.598438 277.625438)">Distance (μm)</text>
    </g>
   </g>
   <g id="patch_3">
    <path d="M 240.143792 484.92271 
L 240.143792 484.92271 
L 240.143792 484.92271 
L 240.143792 484.92271 
z
" clip-path="url(#p3512e5292f)" style="fill: #bd4b5b; stroke: #484848; stroke-width: 0.8; stroke-linejoin: miter"/>
   </g>
   <g id="patch_4">
    <path d="M 240.143792 484.92271 
L 240.143792 484.92271 
L 240.143792 484.92271 
L 240.143792 484.92271 
z
" clip-path="url(#p3512e5292f)" style="fill: #d9715a; stroke: #484848; stroke-width: 0.8; stroke-linejoin: miter"/>
   </g>
   <g id="patch_5">
    <path d="M 240.143792 484.92271 
L 240.143792 484.92271 
L 240.143792 484.92271 
L 240.143792 484.92271 
z
" clip-path="url(#p3512e5292f)" style="fill: #e69e6c; stroke: #484848; stroke-width: 0.8; stroke-linejoin: miter"/>
   </g>
   <g id="patch_6">
    <path d="M 240.143792 484.92271 
L 240.143792 484.92271 
L 240.143792 484.92271 
L 240.143792 484.92271 
z
" clip-path="url(#p3512e5292f)" style="fill: #edca8c; stroke: #484848; stroke-width: 0.8; stroke-linejoin: miter"/>
   </g>
   <g id="patch_7">
    <path d="M 240.143792 484.92271 
L 240.143792 484.92271 
L 240.143792 484.92271 
L 240.143792 484.92271 
z
" clip-path="url(#p3512e5292f)" style="fill: #f4eab2; stroke: #484848; stroke-width: 0.8; stroke-linejoin: miter"/>
   </g>
   <g id="patch_8">
    <path d="M 240.143792 484.92271 
L 240.143792 484.92271 
L 240.143792 484.92271 
L 240.143792 484.92271 
z
" clip-path="url(#p3512e5292f)" style="fill: #ecf1b7; stroke: #484848; stroke-width: 0.8; stroke-linejoin: miter"/>
   </g>
   <g id="patch_9">
    <path d="M 240.143792 484.92271 
L 240.143792 484.92271 
L 240.143792 484.92271 
L 240.143792 484.92271 
z
" clip-path="url(#p3512e5292f)" style="fill: #cee2a6; stroke: #484848; stroke-width: 0.8; stroke-linejoin: miter"/>
   </g>
   <g id="patch_10">
    <path d="M 240.143792 484.92271 
L 240.143792 484.92271 
L 240.143792 484.92271 
L 240.143792 484.92271 
z
" clip-path="url(#p3512e5292f)" style="fill: #9fcda9; stroke: #484848; stroke-width: 0.8; stroke-linejoin: miter"/>
   </g>
   <g id="patch_11">
    <path d="M 240.143792 484.92271 
L 240.143792 484.92271 
L 240.143792 484.92271 
L 240.143792 484.92271 
z
" clip-path="url(#p3512e5292f)" style="fill: #67aba2; stroke: #484848; stroke-width: 0.8; stroke-linejoin: miter"/>
   </g>
   <g id="patch_12">
    <path d="M 240.143792 484.92271 
L 240.143792 484.92271 
L 240.143792 484.92271 
L 240.143792 484.92271 
z
" clip-path="url(#p3512e5292f)" style="fill: #4780aa; stroke: #484848; stroke-width: 0.8; stroke-linejoin: miter"/>
   </g>
   <g id="patch_13">
    <path d="M 104.591258 463.902215 
L 131.701765 463.902215 
L 131.701765 428.613635 
L 104.591258 428.613635 
L 104.591258 463.902215 
z
" clip-path="url(#p3512e5292f)" style="fill: #bd4b5b; stroke: #484848; stroke-linejoin: miter"/>
   </g>
   <g id="line2d_6">
    <path d="M 118.146512 463.902215 
L 118.146512 483.35493 
" clip-path="url(#p3512e5292f)" style="fill: none; stroke: #484848"/>
   </g>
   <g id="line2d_7">
    <path d="M 118.146512 428.613635 
L 118.146512 376.311999 
" clip-path="url(#p3512e5292f)" style="fill: none; stroke: #484848"/>
   </g>
   <g id="line2d_8">
    <path d="M 111.368885 483.35493 
L 124.924138 483.35493 
" clip-path="url(#p3512e5292f)" style="fill: none; stroke: #484848; stroke-linecap: round"/>
   </g>
   <g id="line2d_9">
    <path d="M 111.368885 376.311999 
L 124.924138 376.311999 
" clip-path="url(#p3512e5292f)" style="fill: none; stroke: #484848; stroke-linecap: round"/>
   </g>
   <g id="patch_14">
    <path d="M 443.472592 449.565569 
L 470.583098 449.565569 
L 470.583098 406.295892 
L 443.472592 406.295892 
L 443.472592 449.565569 
z
" clip-path="url(#p3512e5292f)" style="fill: #bd4b5b; stroke: #484848; stroke-linejoin: miter"/>
   </g>
   <g id="line2d_10">
    <path d="M 457.027845 449.565569 
L 457.027845 478.216754 
" clip-path="url(#p3512e5292f)" style="fill: none; stroke: #484848"/>
   </g>
   <g id="line2d_11">
    <path d="M 457.027845 406.295892 
L 457.027845 349.000647 
" clip-path="url(#p3512e5292f)" style="fill: none; stroke: #484848"/>
   </g>
   <g id="line2d_12">
    <path d="M 450.250218 478.216754 
L 463.805472 478.216754 
" clip-path="url(#p3512e5292f)" style="fill: none; stroke: #484848; stroke-linecap: round"/>
   </g>
   <g id="line2d_13">
    <path d="M 450.250218 349.000647 
L 463.805472 349.000647 
" clip-path="url(#p3512e5292f)" style="fill: none; stroke: #484848; stroke-linecap: round"/>
   </g>
   <g id="patch_15">
    <path d="M 782.353925 449.561927 
L 809.464432 449.561927 
L 809.464432 416.981034 
L 782.353925 416.981034 
L 782.353925 449.561927 
z
" clip-path="url(#p3512e5292f)" style="fill: #bd4b5b; stroke: #484848; stroke-linejoin: miter"/>
   </g>
   <g id="line2d_14">
    <path d="M 795.909178 449.561927 
L 795.909178 481.38163 
" clip-path="url(#p3512e5292f)" style="fill: none; stroke: #484848"/>
   </g>
   <g id="line2d_15">
    <path d="M 795.909178 416.981034 
L 795.909178 368.424017 
" clip-path="url(#p3512e5292f)" style="fill: none; stroke: #484848"/>
   </g>
   <g id="line2d_16">
    <path d="M 789.131552 481.38163 
L 802.686805 481.38163 
" clip-path="url(#p3512e5292f)" style="fill: none; stroke: #484848; stroke-linecap: round"/>
   </g>
   <g id="line2d_17">
    <path d="M 789.131552 368.424017 
L 802.686805 368.424017 
" clip-path="url(#p3512e5292f)" style="fill: none; stroke: #484848; stroke-linecap: round"/>
   </g>
   <g id="patch_16">
    <path d="M 131.701765 459.087063 
L 158.812272 459.087063 
L 158.812272 406.721477 
L 131.701765 406.721477 
L 131.701765 459.087063 
z
" clip-path="url(#p3512e5292f)" style="fill: #d9715a; stroke: #484848; stroke-linejoin: miter"/>
   </g>
   <g id="line2d_18">
    <path d="M 145.257018 459.087063 
L 145.257018 484.92271 
" clip-path="url(#p3512e5292f)" style="fill: none; stroke: #484848"/>
   </g>
   <g id="line2d_19">
    <path d="M 145.257018 406.721477 
L 145.257018 328.837442 
" clip-path="url(#p3512e5292f)" style="fill: none; stroke: #484848"/>
   </g>
   <g id="line2d_20">
    <path d="M 138.479392 484.92271 
L 152.034645 484.92271 
" clip-path="url(#p3512e5292f)" style="fill: none; stroke: #484848; stroke-linecap: round"/>
   </g>
   <g id="line2d_21">
    <path d="M 138.479392 328.837442 
L 152.034645 328.837442 
" clip-path="url(#p3512e5292f)" style="fill: none; stroke: #484848; stroke-linecap: round"/>
   </g>
   <g id="patch_17">
    <path d="M 470.583098 454.915093 
L 497.693605 454.915093 
L 497.693605 424.388395 
L 470.583098 424.388395 
L 470.583098 454.915093 
z
" clip-path="url(#p3512e5292f)" style="fill: #d9715a; stroke: #484848; stroke-linejoin: miter"/>
   </g>
   <g id="line2d_22">
    <path d="M 484.138352 454.915093 
L 484.138352 484.92271 
" clip-path="url(#p3512e5292f)" style="fill: none; stroke: #484848"/>
   </g>
   <g id="line2d_23">
    <path d="M 484.138352 424.388395 
L 484.138352 388.448235 
" clip-path="url(#p3512e5292f)" style="fill: none; stroke: #484848"/>
   </g>
   <g id="line2d_24">
    <path d="M 477.360725 484.92271 
L 490.915978 484.92271 
" clip-path="url(#p3512e5292f)" style="fill: none; stroke: #484848; stroke-linecap: round"/>
   </g>
   <g id="line2d_25">
    <path d="M 477.360725 388.448235 
L 490.915978 388.448235 
" clip-path="url(#p3512e5292f)" style="fill: none; stroke: #484848; stroke-linecap: round"/>
   </g>
   <g id="patch_18">
    <path d="M 809.464432 456.831967 
L 836.574938 456.831967 
L 836.574938 419.077986 
L 809.464432 419.077986 
L 809.464432 456.831967 
z
" clip-path="url(#p3512e5292f)" style="fill: #d9715a; stroke: #484848; stroke-linejoin: miter"/>
   </g>
   <g id="line2d_26">
    <path d="M 823.019685 456.831967 
L 823.019685 484.839738 
" clip-path="url(#p3512e5292f)" style="fill: none; stroke: #484848"/>
   </g>
   <g id="line2d_27">
    <path d="M 823.019685 419.077986 
L 823.019685 362.897566 
" clip-path="url(#p3512e5292f)" style="fill: none; stroke: #484848"/>
   </g>
   <g id="line2d_28">
    <path d="M 816.242058 484.839738 
L 829.797312 484.839738 
" clip-path="url(#p3512e5292f)" style="fill: none; stroke: #484848; stroke-linecap: round"/>
   </g>
   <g id="line2d_29">
    <path d="M 816.242058 362.897566 
L 829.797312 362.897566 
" clip-path="url(#p3512e5292f)" style="fill: none; stroke: #484848; stroke-linecap: round"/>
   </g>
   <g id="patch_19">
    <path d="M 158.812272 464.522182 
L 185.922778 464.522182 
L 185.922778 430.027993 
L 158.812272 430.027993 
L 158.812272 464.522182 
z
" clip-path="url(#p3512e5292f)" style="fill: #e69e6c; stroke: #484848; stroke-linejoin: miter"/>
   </g>
   <g id="line2d_30">
    <path d="M 172.367525 464.522182 
L 172.367525 483.632238 
" clip-path="url(#p3512e5292f)" style="fill: none; stroke: #484848"/>
   </g>
   <g id="line2d_31">
    <path d="M 172.367525 430.027993 
L 172.367525 378.645882 
" clip-path="url(#p3512e5292f)" style="fill: none; stroke: #484848"/>
   </g>
   <g id="line2d_32">
    <path d="M 165.589898 483.632238 
L 179.145152 483.632238 
" clip-path="url(#p3512e5292f)" style="fill: none; stroke: #484848; stroke-linecap: round"/>
   </g>
   <g id="line2d_33">
    <path d="M 165.589898 378.645882 
L 179.145152 378.645882 
" clip-path="url(#p3512e5292f)" style="fill: none; stroke: #484848; stroke-linecap: round"/>
   </g>
   <g id="patch_20">
    <path d="M 497.693605 455.11974 
L 524.804112 455.11974 
L 524.804112 381.327038 
L 497.693605 381.327038 
L 497.693605 455.11974 
z
" clip-path="url(#p3512e5292f)" style="fill: #e69e6c; stroke: #484848; stroke-linejoin: miter"/>
   </g>
   <g id="line2d_34">
    <path d="M 511.248858 455.11974 
L 511.248858 472.111567 
" clip-path="url(#p3512e5292f)" style="fill: none; stroke: #484848"/>
   </g>
   <g id="line2d_35">
    <path d="M 511.248858 381.327038 
L 511.248858 276.689111 
" clip-path="url(#p3512e5292f)" style="fill: none; stroke: #484848"/>
   </g>
   <g id="line2d_36">
    <path d="M 504.471232 472.111567 
L 518.026485 472.111567 
" clip-path="url(#p3512e5292f)" style="fill: none; stroke: #484848; stroke-linecap: round"/>
   </g>
   <g id="line2d_37">
    <path d="M 504.471232 276.689111 
L 518.026485 276.689111 
" clip-path="url(#p3512e5292f)" style="fill: none; stroke: #484848; stroke-linecap: round"/>
   </g>
   <g id="patch_21">
    <path d="M 836.574938 453.006317 
L 863.685445 453.006317 
L 863.685445 420.768582 
L 836.574938 420.768582 
L 836.574938 453.006317 
z
" clip-path="url(#p3512e5292f)" style="fill: #e69e6c; stroke: #484848; stroke-linejoin: miter"/>
   </g>
   <g id="line2d_38">
    <path d="M 850.130192 453.006317 
L 850.130192 481.229925 
" clip-path="url(#p3512e5292f)" style="fill: none; stroke: #484848"/>
   </g>
   <g id="line2d_39">
    <path d="M 850.130192 420.768582 
L 850.130192 373.062665 
" clip-path="url(#p3512e5292f)" style="fill: none; stroke: #484848"/>
   </g>
   <g id="line2d_40">
    <path d="M 843.352565 481.229925 
L 856.907818 481.229925 
" clip-path="url(#p3512e5292f)" style="fill: none; stroke: #484848; stroke-linecap: round"/>
   </g>
   <g id="line2d_41">
    <path d="M 843.352565 373.062665 
L 856.907818 373.062665 
" clip-path="url(#p3512e5292f)" style="fill: none; stroke: #484848; stroke-linecap: round"/>
   </g>
   <g id="patch_22">
    <path d="M 185.922778 464.904143 
L 213.033285 464.904143 
L 213.033285 436.238095 
L 185.922778 436.238095 
L 185.922778 464.904143 
z
" clip-path="url(#p3512e5292f)" style="fill: #edca8c; stroke: #484848; stroke-linejoin: miter"/>
   </g>
   <g id="line2d_42">
    <path d="M 199.478032 464.904143 
L 199.478032 484.92271 
" clip-path="url(#p3512e5292f)" style="fill: none; stroke: #484848"/>
   </g>
   <g id="line2d_43">
    <path d="M 199.478032 436.238095 
L 199.478032 394.004679 
" clip-path="url(#p3512e5292f)" style="fill: none; stroke: #484848"/>
   </g>
   <g id="line2d_44">
    <path d="M 192.700405 484.92271 
L 206.255658 484.92271 
" clip-path="url(#p3512e5292f)" style="fill: none; stroke: #484848; stroke-linecap: round"/>
   </g>
   <g id="line2d_45">
    <path d="M 192.700405 394.004679 
L 206.255658 394.004679 
" clip-path="url(#p3512e5292f)" style="fill: none; stroke: #484848; stroke-linecap: round"/>
   </g>
   <g id="patch_23">
    <path d="M 524.804112 454.550973 
L 551.914618 454.550973 
L 551.914618 421.619027 
L 524.804112 421.619027 
L 524.804112 454.550973 
z
" clip-path="url(#p3512e5292f)" style="fill: #edca8c; stroke: #484848; stroke-linejoin: miter"/>
   </g>
   <g id="line2d_46">
    <path d="M 538.359365 454.550973 
L 538.359365 481.471509 
" clip-path="url(#p3512e5292f)" style="fill: none; stroke: #484848"/>
   </g>
   <g id="line2d_47">
    <path d="M 538.359365 421.619027 
L 538.359365 378.521554 
" clip-path="url(#p3512e5292f)" style="fill: none; stroke: #484848"/>
   </g>
   <g id="line2d_48">
    <path d="M 531.581738 481.471509 
L 545.136992 481.471509 
" clip-path="url(#p3512e5292f)" style="fill: none; stroke: #484848; stroke-linecap: round"/>
   </g>
   <g id="line2d_49">
    <path d="M 531.581738 378.521554 
L 545.136992 378.521554 
" clip-path="url(#p3512e5292f)" style="fill: none; stroke: #484848; stroke-linecap: round"/>
   </g>
   <g id="patch_24">
    <path d="M 863.685445 458.711454 
L 890.795952 458.711454 
L 890.795952 430.436341 
L 863.685445 430.436341 
L 863.685445 458.711454 
z
" clip-path="url(#p3512e5292f)" style="fill: #edca8c; stroke: #484848; stroke-linejoin: miter"/>
   </g>
   <g id="line2d_50">
    <path d="M 877.240698 458.711454 
L 877.240698 484.154882 
" clip-path="url(#p3512e5292f)" style="fill: none; stroke: #484848"/>
   </g>
   <g id="line2d_51">
    <path d="M 877.240698 430.436341 
L 877.240698 388.073762 
" clip-path="url(#p3512e5292f)" style="fill: none; stroke: #484848"/>
   </g>
   <g id="line2d_52">
    <path d="M 870.463072 484.154882 
L 884.018325 484.154882 
" clip-path="url(#p3512e5292f)" style="fill: none; stroke: #484848; stroke-linecap: round"/>
   </g>
   <g id="line2d_53">
    <path d="M 870.463072 388.073762 
L 884.018325 388.073762 
" clip-path="url(#p3512e5292f)" style="fill: none; stroke: #484848; stroke-linecap: round"/>
   </g>
   <g id="patch_25">
    <path d="M 213.033285 469.013458 
L 240.143792 469.013458 
L 240.143792 437.545735 
L 213.033285 437.545735 
L 213.033285 469.013458 
z
" clip-path="url(#p3512e5292f)" style="fill: #f4eab2; stroke: #484848; stroke-linejoin: miter"/>
   </g>
   <g id="line2d_54">
    <path d="M 226.588538 469.013458 
L 226.588538 483.081405 
" clip-path="url(#p3512e5292f)" style="fill: none; stroke: #484848"/>
   </g>
   <g id="line2d_55">
    <path d="M 226.588538 437.545735 
L 226.588538 391.160488 
" clip-path="url(#p3512e5292f)" style="fill: none; stroke: #484848"/>
   </g>
   <g id="line2d_56">
    <path d="M 219.810912 483.081405 
L 233.366165 483.081405 
" clip-path="url(#p3512e5292f)" style="fill: none; stroke: #484848; stroke-linecap: round"/>
   </g>
   <g id="line2d_57">
    <path d="M 219.810912 391.160488 
L 233.366165 391.160488 
" clip-path="url(#p3512e5292f)" style="fill: none; stroke: #484848; stroke-linecap: round"/>
   </g>
   <g id="patch_26">
    <path d="M 551.914618 456.095044 
L 579.025125 456.095044 
L 579.025125 391.437092 
L 551.914618 391.437092 
L 551.914618 456.095044 
z
" clip-path="url(#p3512e5292f)" style="fill: #f4eab2; stroke: #484848; stroke-linejoin: miter"/>
   </g>
   <g id="line2d_58">
    <path d="M 565.469872 456.095044 
L 565.469872 479.527835 
" clip-path="url(#p3512e5292f)" style="fill: none; stroke: #484848"/>
   </g>
   <g id="line2d_59">
    <path d="M 565.469872 391.437092 
L 565.469872 294.829631 
" clip-path="url(#p3512e5292f)" style="fill: none; stroke: #484848"/>
   </g>
   <g id="line2d_60">
    <path d="M 558.692245 479.527835 
L 572.247498 479.527835 
" clip-path="url(#p3512e5292f)" style="fill: none; stroke: #484848; stroke-linecap: round"/>
   </g>
   <g id="line2d_61">
    <path d="M 558.692245 294.829631 
L 572.247498 294.829631 
" clip-path="url(#p3512e5292f)" style="fill: none; stroke: #484848; stroke-linecap: round"/>
   </g>
   <g id="patch_27">
    <path d="M 890.795952 452.625027 
L 917.906458 452.625027 
L 917.906458 388.874837 
L 890.795952 388.874837 
L 890.795952 452.625027 
z
" clip-path="url(#p3512e5292f)" style="fill: #f4eab2; stroke: #484848; stroke-linejoin: miter"/>
   </g>
   <g id="line2d_62">
    <path d="M 904.351205 452.625027 
L 904.351205 482.759801 
" clip-path="url(#p3512e5292f)" style="fill: none; stroke: #484848"/>
   </g>
   <g id="line2d_63">
    <path d="M 904.351205 388.874837 
L 904.351205 293.996092 
" clip-path="url(#p3512e5292f)" style="fill: none; stroke: #484848"/>
   </g>
   <g id="line2d_64">
    <path d="M 897.573578 482.759801 
L 911.128832 482.759801 
" clip-path="url(#p3512e5292f)" style="fill: none; stroke: #484848; stroke-linecap: round"/>
   </g>
   <g id="line2d_65">
    <path d="M 897.573578 293.996092 
L 911.128832 293.996092 
" clip-path="url(#p3512e5292f)" style="fill: none; stroke: #484848; stroke-linecap: round"/>
   </g>
   <g id="patch_28">
    <path d="M 240.143792 463.728528 
L 267.254298 463.728528 
L 267.254298 418.43431 
L 240.143792 418.43431 
L 240.143792 463.728528 
z
" clip-path="url(#p3512e5292f)" style="fill: #ecf1b7; stroke: #484848; stroke-linejoin: miter"/>
   </g>
   <g id="line2d_66">
    <path d="M 253.699045 463.728528 
L 253.699045 484.253889 
" clip-path="url(#p3512e5292f)" style="fill: none; stroke: #484848"/>
   </g>
   <g id="line2d_67">
    <path d="M 253.699045 418.43431 
L 253.699045 350.859353 
" clip-path="url(#p3512e5292f)" style="fill: none; stroke: #484848"/>
   </g>
   <g id="line2d_68">
    <path d="M 246.921418 484.253889 
L 260.476672 484.253889 
" clip-path="url(#p3512e5292f)" style="fill: none; stroke: #484848; stroke-linecap: round"/>
   </g>
   <g id="line2d_69">
    <path d="M 246.921418 350.859353 
L 260.476672 350.859353 
" clip-path="url(#p3512e5292f)" style="fill: none; stroke: #484848; stroke-linecap: round"/>
   </g>
   <g id="patch_29">
    <path d="M 579.025125 456.615132 
L 606.135632 456.615132 
L 606.135632 401.802467 
L 579.025125 401.802467 
L 579.025125 456.615132 
z
" clip-path="url(#p3512e5292f)" style="fill: #ecf1b7; stroke: #484848; stroke-linejoin: miter"/>
   </g>
   <g id="line2d_70">
    <path d="M 592.580378 456.615132 
L 592.580378 480.041975 
" clip-path="url(#p3512e5292f)" style="fill: none; stroke: #484848"/>
   </g>
   <g id="line2d_71">
    <path d="M 592.580378 401.802467 
L 592.580378 325.624757 
" clip-path="url(#p3512e5292f)" style="fill: none; stroke: #484848"/>
   </g>
   <g id="line2d_72">
    <path d="M 585.802752 480.041975 
L 599.358005 480.041975 
" clip-path="url(#p3512e5292f)" style="fill: none; stroke: #484848; stroke-linecap: round"/>
   </g>
   <g id="line2d_73">
    <path d="M 585.802752 325.624757 
L 599.358005 325.624757 
" clip-path="url(#p3512e5292f)" style="fill: none; stroke: #484848; stroke-linecap: round"/>
   </g>
   <g id="patch_30">
    <path d="M 917.906458 445.485325 
L 945.016965 445.485325 
L 945.016965 409.804639 
L 917.906458 409.804639 
L 917.906458 445.485325 
z
" clip-path="url(#p3512e5292f)" style="fill: #ecf1b7; stroke: #484848; stroke-linejoin: miter"/>
   </g>
   <g id="line2d_74">
    <path d="M 931.461712 445.485325 
L 931.461712 480.002827 
" clip-path="url(#p3512e5292f)" style="fill: none; stroke: #484848"/>
   </g>
   <g id="line2d_75">
    <path d="M 931.461712 409.804639 
L 931.461712 356.322041 
" clip-path="url(#p3512e5292f)" style="fill: none; stroke: #484848"/>
   </g>
   <g id="line2d_76">
    <path d="M 924.684085 480.002827 
L 938.239338 480.002827 
" clip-path="url(#p3512e5292f)" style="fill: none; stroke: #484848; stroke-linecap: round"/>
   </g>
   <g id="line2d_77">
    <path d="M 924.684085 356.322041 
L 938.239338 356.322041 
" clip-path="url(#p3512e5292f)" style="fill: none; stroke: #484848; stroke-linecap: round"/>
   </g>
   <g id="patch_31">
    <path d="M 267.254298 463.753311 
L 294.364805 463.753311 
L 294.364805 391.70034 
L 267.254298 391.70034 
L 267.254298 463.753311 
z
" clip-path="url(#p3512e5292f)" style="fill: #cee2a6; stroke: #484848; stroke-linejoin: miter"/>
   </g>
   <g id="line2d_78">
    <path d="M 280.809552 463.753311 
L 280.809552 482.0416 
" clip-path="url(#p3512e5292f)" style="fill: none; stroke: #484848"/>
   </g>
   <g id="line2d_79">
    <path d="M 280.809552 391.70034 
L 280.809552 284.608578 
" clip-path="url(#p3512e5292f)" style="fill: none; stroke: #484848"/>
   </g>
   <g id="line2d_80">
    <path d="M 274.031925 482.0416 
L 287.587178 482.0416 
" clip-path="url(#p3512e5292f)" style="fill: none; stroke: #484848; stroke-linecap: round"/>
   </g>
   <g id="line2d_81">
    <path d="M 274.031925 284.608578 
L 287.587178 284.608578 
" clip-path="url(#p3512e5292f)" style="fill: none; stroke: #484848; stroke-linecap: round"/>
   </g>
   <g id="patch_32">
    <path d="M 606.135632 456.885019 
L 633.246138 456.885019 
L 633.246138 301.889339 
L 606.135632 301.889339 
L 606.135632 456.885019 
z
" clip-path="url(#p3512e5292f)" style="fill: #cee2a6; stroke: #484848; stroke-linejoin: miter"/>
   </g>
   <g id="line2d_82">
    <path d="M 619.690885 456.885019 
L 619.690885 476.162126 
" clip-path="url(#p3512e5292f)" style="fill: none; stroke: #484848"/>
   </g>
   <g id="line2d_83">
    <path d="M 619.690885 301.889339 
L 619.690885 70.328165 
" clip-path="url(#p3512e5292f)" style="fill: none; stroke: #484848"/>
   </g>
   <g id="line2d_84">
    <path d="M 612.913258 476.162126 
L 626.468512 476.162126 
" clip-path="url(#p3512e5292f)" style="fill: none; stroke: #484848; stroke-linecap: round"/>
   </g>
   <g id="line2d_85">
    <path d="M 612.913258 70.328165 
L 626.468512 70.328165 
" clip-path="url(#p3512e5292f)" style="fill: none; stroke: #484848; stroke-linecap: round"/>
   </g>
   <g id="patch_33">
    <path d="M 945.016965 458.354316 
L 972.127472 458.354316 
L 972.127472 432.501314 
L 945.016965 432.501314 
L 945.016965 458.354316 
z
" clip-path="url(#p3512e5292f)" style="fill: #cee2a6; stroke: #484848; stroke-linejoin: miter"/>
   </g>
   <g id="line2d_86">
    <path d="M 958.572218 458.354316 
L 958.572218 475.939438 
" clip-path="url(#p3512e5292f)" style="fill: none; stroke: #484848"/>
   </g>
   <g id="line2d_87">
    <path d="M 958.572218 432.501314 
L 958.572218 395.006508 
" clip-path="url(#p3512e5292f)" style="fill: none; stroke: #484848"/>
   </g>
   <g id="line2d_88">
    <path d="M 951.794592 475.939438 
L 965.349845 475.939438 
" clip-path="url(#p3512e5292f)" style="fill: none; stroke: #484848; stroke-linecap: round"/>
   </g>
   <g id="line2d_89">
    <path d="M 951.794592 395.006508 
L 965.349845 395.006508 
" clip-path="url(#p3512e5292f)" style="fill: none; stroke: #484848; stroke-linecap: round"/>
   </g>
   <g id="patch_34">
    <path d="M 294.364805 465.212908 
L 321.475312 465.212908 
L 321.475312 438.110171 
L 294.364805 438.110171 
L 294.364805 465.212908 
z
" clip-path="url(#p3512e5292f)" style="fill: #9fcda9; stroke: #484848; stroke-linejoin: miter"/>
   </g>
   <g id="line2d_90">
    <path d="M 307.920058 465.212908 
L 307.920058 484.92271 
" clip-path="url(#p3512e5292f)" style="fill: none; stroke: #484848"/>
   </g>
   <g id="line2d_91">
    <path d="M 307.920058 438.110171 
L 307.920058 397.538281 
" clip-path="url(#p3512e5292f)" style="fill: none; stroke: #484848"/>
   </g>
   <g id="line2d_92">
    <path d="M 301.142432 484.92271 
L 314.697685 484.92271 
" clip-path="url(#p3512e5292f)" style="fill: none; stroke: #484848; stroke-linecap: round"/>
   </g>
   <g id="line2d_93">
    <path d="M 301.142432 397.538281 
L 314.697685 397.538281 
" clip-path="url(#p3512e5292f)" style="fill: none; stroke: #484848; stroke-linecap: round"/>
   </g>
   <g id="patch_35">
    <path d="M 633.246138 460.382525 
L 660.356645 460.382525 
L 660.356645 427.60145 
L 633.246138 427.60145 
L 633.246138 460.382525 
z
" clip-path="url(#p3512e5292f)" style="fill: #9fcda9; stroke: #484848; stroke-linejoin: miter"/>
   </g>
   <g id="line2d_94">
    <path d="M 646.801392 460.382525 
L 646.801392 480.854129 
" clip-path="url(#p3512e5292f)" style="fill: none; stroke: #484848"/>
   </g>
   <g id="line2d_95">
    <path d="M 646.801392 427.60145 
L 646.801392 385.255268 
" clip-path="url(#p3512e5292f)" style="fill: none; stroke: #484848"/>
   </g>
   <g id="line2d_96">
    <path d="M 640.023765 480.854129 
L 653.579018 480.854129 
" clip-path="url(#p3512e5292f)" style="fill: none; stroke: #484848; stroke-linecap: round"/>
   </g>
   <g id="line2d_97">
    <path d="M 640.023765 385.255268 
L 653.579018 385.255268 
" clip-path="url(#p3512e5292f)" style="fill: none; stroke: #484848; stroke-linecap: round"/>
   </g>
   <g id="patch_36">
    <path d="M 972.127472 453.114777 
L 999.237978 453.114777 
L 999.237978 426.016125 
L 972.127472 426.016125 
L 972.127472 453.114777 
z
" clip-path="url(#p3512e5292f)" style="fill: #9fcda9; stroke: #484848; stroke-linejoin: miter"/>
   </g>
   <g id="line2d_98">
    <path d="M 985.682725 453.114777 
L 985.682725 479.907703 
" clip-path="url(#p3512e5292f)" style="fill: none; stroke: #484848"/>
   </g>
   <g id="line2d_99">
    <path d="M 985.682725 426.016125 
L 985.682725 385.483104 
" clip-path="url(#p3512e5292f)" style="fill: none; stroke: #484848"/>
   </g>
   <g id="line2d_100">
    <path d="M 978.905098 479.907703 
L 992.460352 479.907703 
" clip-path="url(#p3512e5292f)" style="fill: none; stroke: #484848; stroke-linecap: round"/>
   </g>
   <g id="line2d_101">
    <path d="M 978.905098 385.483104 
L 992.460352 385.483104 
" clip-path="url(#p3512e5292f)" style="fill: none; stroke: #484848; stroke-linecap: round"/>
   </g>
   <g id="patch_37">
    <path d="M 321.475312 458.488321 
L 348.585818 458.488321 
L 348.585818 416.961095 
L 321.475312 416.961095 
L 321.475312 458.488321 
z
" clip-path="url(#p3512e5292f)" style="fill: #67aba2; stroke: #484848; stroke-linejoin: miter"/>
   </g>
   <g id="line2d_102">
    <path d="M 335.030565 458.488321 
L 335.030565 482.482342 
" clip-path="url(#p3512e5292f)" style="fill: none; stroke: #484848"/>
   </g>
   <g id="line2d_103">
    <path d="M 335.030565 416.961095 
L 335.030565 355.173351 
" clip-path="url(#p3512e5292f)" style="fill: none; stroke: #484848"/>
   </g>
   <g id="line2d_104">
    <path d="M 328.252938 482.482342 
L 341.808192 482.482342 
" clip-path="url(#p3512e5292f)" style="fill: none; stroke: #484848; stroke-linecap: round"/>
   </g>
   <g id="line2d_105">
    <path d="M 328.252938 355.173351 
L 341.808192 355.173351 
" clip-path="url(#p3512e5292f)" style="fill: none; stroke: #484848; stroke-linecap: round"/>
   </g>
   <g id="patch_38">
    <path d="M 660.356645 450.053452 
L 687.467152 450.053452 
L 687.467152 390.507344 
L 660.356645 390.507344 
L 660.356645 450.053452 
z
" clip-path="url(#p3512e5292f)" style="fill: #67aba2; stroke: #484848; stroke-linejoin: miter"/>
   </g>
   <g id="line2d_106">
    <path d="M 673.911898 450.053452 
L 673.911898 480.318808 
" clip-path="url(#p3512e5292f)" style="fill: none; stroke: #484848"/>
   </g>
   <g id="line2d_107">
    <path d="M 673.911898 390.507344 
L 673.911898 303.512916 
" clip-path="url(#p3512e5292f)" style="fill: none; stroke: #484848"/>
   </g>
   <g id="line2d_108">
    <path d="M 667.134272 480.318808 
L 680.689525 480.318808 
" clip-path="url(#p3512e5292f)" style="fill: none; stroke: #484848; stroke-linecap: round"/>
   </g>
   <g id="line2d_109">
    <path d="M 667.134272 303.512916 
L 680.689525 303.512916 
" clip-path="url(#p3512e5292f)" style="fill: none; stroke: #484848; stroke-linecap: round"/>
   </g>
   <g id="patch_39">
    <path d="M 999.237978 443.359153 
L 1026.348485 443.359153 
L 1026.348485 407.823985 
L 999.237978 407.823985 
L 999.237978 443.359153 
z
" clip-path="url(#p3512e5292f)" style="fill: #67aba2; stroke: #484848; stroke-linejoin: miter"/>
   </g>
   <g id="line2d_110">
    <path d="M 1012.793232 443.359153 
L 1012.793232 481.471509 
" clip-path="url(#p3512e5292f)" style="fill: none; stroke: #484848"/>
   </g>
   <g id="line2d_111">
    <path d="M 1012.793232 407.823985 
L 1012.793232 355.18623 
" clip-path="url(#p3512e5292f)" style="fill: none; stroke: #484848"/>
   </g>
   <g id="line2d_112">
    <path d="M 1006.015605 481.471509 
L 1019.570858 481.471509 
" clip-path="url(#p3512e5292f)" style="fill: none; stroke: #484848; stroke-linecap: round"/>
   </g>
   <g id="line2d_113">
    <path d="M 1006.015605 355.18623 
L 1019.570858 355.18623 
" clip-path="url(#p3512e5292f)" style="fill: none; stroke: #484848; stroke-linecap: round"/>
   </g>
   <g id="patch_40">
    <path d="M 348.585818 460.544187 
L 375.696325 460.544187 
L 375.696325 409.19155 
L 348.585818 409.19155 
L 348.585818 460.544187 
z
" clip-path="url(#p3512e5292f)" style="fill: #4780aa; stroke: #484848; stroke-linejoin: miter"/>
   </g>
   <g id="line2d_114">
    <path d="M 362.141072 460.544187 
L 362.141072 482.6901 
" clip-path="url(#p3512e5292f)" style="fill: none; stroke: #484848"/>
   </g>
   <g id="line2d_115">
    <path d="M 362.141072 409.19155 
L 362.141072 333.417808 
" clip-path="url(#p3512e5292f)" style="fill: none; stroke: #484848"/>
   </g>
   <g id="line2d_116">
    <path d="M 355.363445 482.6901 
L 368.918698 482.6901 
" clip-path="url(#p3512e5292f)" style="fill: none; stroke: #484848; stroke-linecap: round"/>
   </g>
   <g id="line2d_117">
    <path d="M 355.363445 333.417808 
L 368.918698 333.417808 
" clip-path="url(#p3512e5292f)" style="fill: none; stroke: #484848; stroke-linecap: round"/>
   </g>
   <g id="patch_41">
    <path d="M 687.467152 448.965501 
L 714.577658 448.965501 
L 714.577658 398.460546 
L 687.467152 398.460546 
L 687.467152 448.965501 
z
" clip-path="url(#p3512e5292f)" style="fill: #4780aa; stroke: #484848; stroke-linejoin: miter"/>
   </g>
   <g id="line2d_118">
    <path d="M 701.022405 448.965501 
L 701.022405 471.780927 
" clip-path="url(#p3512e5292f)" style="fill: none; stroke: #484848"/>
   </g>
   <g id="line2d_119">
    <path d="M 701.022405 398.460546 
L 701.022405 351.325109 
" clip-path="url(#p3512e5292f)" style="fill: none; stroke: #484848"/>
   </g>
   <g id="line2d_120">
    <path d="M 694.244778 471.780927 
L 707.800032 471.780927 
" clip-path="url(#p3512e5292f)" style="fill: none; stroke: #484848; stroke-linecap: round"/>
   </g>
   <g id="line2d_121">
    <path d="M 694.244778 351.325109 
L 707.800032 351.325109 
" clip-path="url(#p3512e5292f)" style="fill: none; stroke: #484848; stroke-linecap: round"/>
   </g>
   <g id="patch_42">
    <path d="M 1026.348485 455.168564 
L 1053.458992 455.168564 
L 1053.458992 424.12537 
L 1026.348485 424.12537 
L 1026.348485 455.168564 
z
" clip-path="url(#p3512e5292f)" style="fill: #4780aa; stroke: #484848; stroke-linejoin: miter"/>
   </g>
   <g id="line2d_122">
    <path d="M 1039.903738 455.168564 
L 1039.903738 482.482342 
" clip-path="url(#p3512e5292f)" style="fill: none; stroke: #484848"/>
   </g>
   <g id="line2d_123">
    <path d="M 1039.903738 424.12537 
L 1039.903738 378.099539 
" clip-path="url(#p3512e5292f)" style="fill: none; stroke: #484848"/>
   </g>
   <g id="line2d_124">
    <path d="M 1033.126112 482.482342 
L 1046.681365 482.482342 
" clip-path="url(#p3512e5292f)" style="fill: none; stroke: #484848; stroke-linecap: round"/>
   </g>
   <g id="line2d_125">
    <path d="M 1033.126112 378.099539 
L 1046.681365 378.099539 
" clip-path="url(#p3512e5292f)" style="fill: none; stroke: #484848; stroke-linecap: round"/>
   </g>
   <g id="line2d_126">
    <path d="M 104.591258 447.441444 
L 131.701765 447.441444 
" clip-path="url(#p3512e5292f)" style="fill: none; stroke: #484848"/>
   </g>
   <g id="line2d_127">
    <path d="M 443.472592 429.70349 
L 470.583098 429.70349 
" clip-path="url(#p3512e5292f)" style="fill: none; stroke: #484848"/>
   </g>
   <g id="line2d_128">
    <path d="M 782.353925 434.695183 
L 809.464432 434.695183 
" clip-path="url(#p3512e5292f)" style="fill: none; stroke: #484848"/>
   </g>
   <g id="line2d_129">
    <path d="M 131.701765 441.892506 
L 158.812272 441.892506 
" clip-path="url(#p3512e5292f)" style="fill: none; stroke: #484848"/>
   </g>
   <g id="line2d_130">
    <path d="M 470.583098 441.937925 
L 497.693605 441.937925 
" clip-path="url(#p3512e5292f)" style="fill: none; stroke: #484848"/>
   </g>
   <g id="line2d_131">
    <path d="M 809.464432 440.822563 
L 836.574938 440.822563 
" clip-path="url(#p3512e5292f)" style="fill: none; stroke: #484848"/>
   </g>
   <g id="line2d_132">
    <path d="M 158.812272 451.417614 
L 185.922778 451.417614 
" clip-path="url(#p3512e5292f)" style="fill: none; stroke: #484848"/>
   </g>
   <g id="line2d_133">
    <path d="M 497.693605 433.254549 
L 524.804112 433.254549 
" clip-path="url(#p3512e5292f)" style="fill: none; stroke: #484848"/>
   </g>
   <g id="line2d_134">
    <path d="M 836.574938 438.062837 
L 863.685445 438.062837 
" clip-path="url(#p3512e5292f)" style="fill: none; stroke: #484848"/>
   </g>
   <g id="line2d_135">
    <path d="M 185.922778 452.771634 
L 213.033285 452.771634 
" clip-path="url(#p3512e5292f)" style="fill: none; stroke: #484848"/>
   </g>
   <g id="line2d_136">
    <path d="M 524.804112 446.539366 
L 551.914618 446.539366 
" clip-path="url(#p3512e5292f)" style="fill: none; stroke: #484848"/>
   </g>
   <g id="line2d_137">
    <path d="M 863.685445 445.800638 
L 890.795952 445.800638 
" clip-path="url(#p3512e5292f)" style="fill: none; stroke: #484848"/>
   </g>
   <g id="line2d_138">
    <path d="M 213.033285 458.197022 
L 240.143792 458.197022 
" clip-path="url(#p3512e5292f)" style="fill: none; stroke: #484848"/>
   </g>
   <g id="line2d_139">
    <path d="M 551.914618 431.876276 
L 579.025125 431.876276 
" clip-path="url(#p3512e5292f)" style="fill: none; stroke: #484848"/>
   </g>
   <g id="line2d_140">
    <path d="M 890.795952 428.836065 
L 917.906458 428.836065 
" clip-path="url(#p3512e5292f)" style="fill: none; stroke: #484848"/>
   </g>
   <g id="line2d_141">
    <path d="M 240.143792 448.68973 
L 267.254298 448.68973 
" clip-path="url(#p3512e5292f)" style="fill: none; stroke: #484848"/>
   </g>
   <g id="line2d_142">
    <path d="M 579.025125 439.572008 
L 606.135632 439.572008 
" clip-path="url(#p3512e5292f)" style="fill: none; stroke: #484848"/>
   </g>
   <g id="line2d_143">
    <path d="M 917.906458 429.230338 
L 945.016965 429.230338 
" clip-path="url(#p3512e5292f)" style="fill: none; stroke: #484848"/>
   </g>
   <g id="line2d_144">
    <path d="M 267.254298 448.330051 
L 294.364805 448.330051 
" clip-path="url(#p3512e5292f)" style="fill: none; stroke: #484848"/>
   </g>
   <g id="line2d_145">
    <path d="M 606.135632 432.914635 
L 633.246138 432.914635 
" clip-path="url(#p3512e5292f)" style="fill: none; stroke: #484848"/>
   </g>
   <g id="line2d_146">
    <path d="M 945.016965 448.63147 
L 972.127472 448.63147 
" clip-path="url(#p3512e5292f)" style="fill: none; stroke: #484848"/>
   </g>
   <g id="line2d_147">
    <path d="M 294.364805 453.684367 
L 321.475312 453.684367 
" clip-path="url(#p3512e5292f)" style="fill: none; stroke: #484848"/>
   </g>
   <g id="line2d_148">
    <path d="M 633.246138 447.432006 
L 660.356645 447.432006 
" clip-path="url(#p3512e5292f)" style="fill: none; stroke: #484848"/>
   </g>
   <g id="line2d_149">
    <path d="M 972.127472 440.965255 
L 999.237978 440.965255 
" clip-path="url(#p3512e5292f)" style="fill: none; stroke: #484848"/>
   </g>
   <g id="line2d_150">
    <path d="M 321.475312 442.470465 
L 348.585818 442.470465 
" clip-path="url(#p3512e5292f)" style="fill: none; stroke: #484848"/>
   </g>
   <g id="line2d_151">
    <path d="M 660.356645 426.922972 
L 687.467152 426.922972 
" clip-path="url(#p3512e5292f)" style="fill: none; stroke: #484848"/>
   </g>
   <g id="line2d_152">
    <path d="M 999.237978 427.37453 
L 1026.348485 427.37453 
" clip-path="url(#p3512e5292f)" style="fill: none; stroke: #484848"/>
   </g>
   <g id="line2d_153">
    <path d="M 348.585818 440.281715 
L 375.696325 440.281715 
" clip-path="url(#p3512e5292f)" style="fill: none; stroke: #484848"/>
   </g>
   <g id="line2d_154">
    <path d="M 687.467152 417.318504 
L 714.577658 417.318504 
" clip-path="url(#p3512e5292f)" style="fill: none; stroke: #484848"/>
   </g>
   <g id="line2d_155">
    <path d="M 1026.348485 441.972 
L 1053.458992 441.972 
" clip-path="url(#p3512e5292f)" style="fill: none; stroke: #484848"/>
   </g>
   <g id="patch_43">
    <path d="M 70.703125 505.652438 
L 70.703125 49.598437 
" style="fill: none; stroke: #cccccc; stroke-linejoin: miter; stroke-linecap: square"/>
   </g>
   <g id="patch_44">
    <path d="M 1087.347125 505.652438 
L 1087.347125 49.598437 
" style="fill: none; stroke: #cccccc; stroke-linejoin: miter; stroke-linecap: square"/>
   </g>
   <g id="patch_45">
    <path d="M 70.703125 505.652438 
L 1087.347125 505.652438 
" style="fill: none; stroke: #cccccc; stroke-linejoin: miter; stroke-linecap: square"/>
   </g>
   <g id="patch_46">
    <path d="M 70.703125 49.598438 
L 1087.347125 49.598438 
" style="fill: none; stroke: #cccccc; stroke-linejoin: miter; stroke-linecap: square"/>
   </g>
   <g id="text_11">
    <text style="font-size: 10px; font-family: 'Arial', 'DejaVu Sans', 'Liberation Sans', 'Bitstream Vera Sans', sans-serif; text-anchor: middle; fill: #262626" x="579.025125" y="43.598438" transform="rotate(-0 579.025125 43.598438)">Distribution of distances by Level Two Cell Type and region</text>
   </g>
   <g id="legend_1">
    <g id="patch_47">
     <path d="M 1093.507125 188.253438 
L 1165.092375 188.253438 
Q 1166.852375 188.253438 1166.852375 186.493438 
L 1166.852375 55.758438 
Q 1166.852375 53.998438 1165.092375 53.998438 
L 1093.507125 53.998438 
Q 1091.747125 53.998438 1091.747125 55.758438 
L 1091.747125 186.493438 
Q 1091.747125 188.253438 1093.507125 188.253438 
z
" style="fill: #ffffff; opacity: 0.8; stroke: #cccccc; stroke-width: 0.8; stroke-linejoin: miter"/>
    </g>
    <g id="patch_48">
     <path d="M 1095.267125 64.205063 
L 1112.867125 64.205063 
L 1112.867125 58.045063 
L 1095.267125 58.045063 
z
" style="fill: #bd4b5b; stroke: #484848; stroke-width: 0.8; stroke-linejoin: miter"/>
    </g>
    <g id="text_12">
     <text style="font-size: 8.8px; font-family: 'Arial', 'DejaVu Sans', 'Liberation Sans', 'Bitstream Vera Sans', sans-serif; text-anchor: start; fill: #262626" x="1119.907125" y="64.205063" transform="rotate(-0 1119.907125 64.205063)">region_1</text>
    </g>
    <g id="patch_49">
     <path d="M 1095.267125 77.366563 
L 1112.867125 77.366563 
L 1112.867125 71.206563 
L 1095.267125 71.206563 
z
" style="fill: #d9715a; stroke: #484848; stroke-width: 0.8; stroke-linejoin: miter"/>
    </g>
    <g id="text_13">
     <text style="font-size: 8.8px; font-family: 'Arial', 'DejaVu Sans', 'Liberation Sans', 'Bitstream Vera Sans', sans-serif; text-anchor: start; fill: #262626" x="1119.907125" y="77.366563" transform="rotate(-0 1119.907125 77.366563)">region_2</text>
    </g>
    <g id="patch_50">
     <path d="M 1095.267125 90.528063 
L 1112.867125 90.528063 
L 1112.867125 84.368063 
L 1095.267125 84.368063 
z
" style="fill: #e69e6c; stroke: #484848; stroke-width: 0.8; stroke-linejoin: miter"/>
    </g>
    <g id="text_14">
     <text style="font-size: 8.8px; font-family: 'Arial', 'DejaVu Sans', 'Liberation Sans', 'Bitstream Vera Sans', sans-serif; text-anchor: start; fill: #262626" x="1119.907125" y="90.528063" transform="rotate(-0 1119.907125 90.528063)">region_3</text>
    </g>
    <g id="patch_51">
     <path d="M 1095.267125 103.689563 
L 1112.867125 103.689563 
L 1112.867125 97.529563 
L 1095.267125 97.529563 
z
" style="fill: #edca8c; stroke: #484848; stroke-width: 0.8; stroke-linejoin: miter"/>
    </g>
    <g id="text_15">
     <text style="font-size: 8.8px; font-family: 'Arial', 'DejaVu Sans', 'Liberation Sans', 'Bitstream Vera Sans', sans-serif; text-anchor: start; fill: #262626" x="1119.907125" y="103.689563" transform="rotate(-0 1119.907125 103.689563)">region_4</text>
    </g>
    <g id="patch_52">
     <path d="M 1095.267125 116.851063 
L 1112.867125 116.851063 
L 1112.867125 110.691063 
L 1095.267125 110.691063 
z
" style="fill: #f4eab2; stroke: #484848; stroke-width: 0.8; stroke-linejoin: miter"/>
    </g>
    <g id="text_16">
     <text style="font-size: 8.8px; font-family: 'Arial', 'DejaVu Sans', 'Liberation Sans', 'Bitstream Vera Sans', sans-serif; text-anchor: start; fill: #262626" x="1119.907125" y="116.851063" transform="rotate(-0 1119.907125 116.851063)">region_5</text>
    </g>
    <g id="patch_53">
     <path d="M 1095.267125 130.012563 
L 1112.867125 130.012563 
L 1112.867125 123.852563 
L 1095.267125 123.852563 
z
" style="fill: #ecf1b7; stroke: #484848; stroke-width: 0.8; stroke-linejoin: miter"/>
    </g>
    <g id="text_17">
     <text style="font-size: 8.8px; font-family: 'Arial', 'DejaVu Sans', 'Liberation Sans', 'Bitstream Vera Sans', sans-serif; text-anchor: start; fill: #262626" x="1119.907125" y="130.012563" transform="rotate(-0 1119.907125 130.012563)">region_7</text>
    </g>
    <g id="patch_54">
     <path d="M 1095.267125 143.174063 
L 1112.867125 143.174063 
L 1112.867125 137.014063 
L 1095.267125 137.014063 
z
" style="fill: #cee2a6; stroke: #484848; stroke-width: 0.8; stroke-linejoin: miter"/>
    </g>
    <g id="text_18">
     <text style="font-size: 8.8px; font-family: 'Arial', 'DejaVu Sans', 'Liberation Sans', 'Bitstream Vera Sans', sans-serif; text-anchor: start; fill: #262626" x="1119.907125" y="143.174063" transform="rotate(-0 1119.907125 143.174063)">region_8</text>
    </g>
    <g id="patch_55">
     <path d="M 1095.267125 156.335563 
L 1112.867125 156.335563 
L 1112.867125 150.175563 
L 1095.267125 150.175563 
z
" style="fill: #9fcda9; stroke: #484848; stroke-width: 0.8; stroke-linejoin: miter"/>
    </g>
    <g id="text_19">
     <text style="font-size: 8.8px; font-family: 'Arial', 'DejaVu Sans', 'Liberation Sans', 'Bitstream Vera Sans', sans-serif; text-anchor: start; fill: #262626" x="1119.907125" y="156.335563" transform="rotate(-0 1119.907125 156.335563)">region_9</text>
    </g>
    <g id="patch_56">
     <path d="M 1095.267125 169.497063 
L 1112.867125 169.497063 
L 1112.867125 163.337063 
L 1095.267125 163.337063 
z
" style="fill: #67aba2; stroke: #484848; stroke-width: 0.8; stroke-linejoin: miter"/>
    </g>
    <g id="text_20">
     <text style="font-size: 8.8px; font-family: 'Arial', 'DejaVu Sans', 'Liberation Sans', 'Bitstream Vera Sans', sans-serif; text-anchor: start; fill: #262626" x="1119.907125" y="169.497063" transform="rotate(-0 1119.907125 169.497063)">region_10</text>
    </g>
    <g id="patch_57">
     <path d="M 1095.267125 182.658563 
L 1112.867125 182.658563 
L 1112.867125 176.498563 
L 1095.267125 176.498563 
z
" style="fill: #4780aa; stroke: #484848; stroke-width: 0.8; stroke-linejoin: miter"/>
    </g>
    <g id="text_21">
     <text style="font-size: 8.8px; font-family: 'Arial', 'DejaVu Sans', 'Liberation Sans', 'Bitstream Vera Sans', sans-serif; text-anchor: start; fill: #262626" x="1119.907125" y="182.658563" transform="rotate(-0 1119.907125 182.658563)">region_11</text>
    </g>
   </g>
  </g>
 </g>
 <defs>
  <clipPath id="p3512e5292f">
   <rect x="70.703125" y="49.598438" width="1016.644" height="456.054"/>
  </clipPath>
 </defs>
</svg>
