<?xml version="1.0" encoding="utf-8" standalone="no"?>
<!DOCTYPE svg PUBLIC "-//W3C//DTD SVG 1.1//EN"
  "http://www.w3.org/Graphics/SVG/1.1/DTD/svg11.dtd">
<svg xmlns:xlink="http://www.w3.org/1999/xlink" width="770.959625pt" height="482.479625pt" viewBox="0 0 770.959625 482.479625" xmlns="http://www.w3.org/2000/svg" version="1.1">
 <metadata>
  <rdf:RDF xmlns:dc="http://purl.org/dc/elements/1.1/" xmlns:cc="http://creativecommons.org/ns#" xmlns:rdf="http://www.w3.org/1999/02/22-rdf-syntax-ns#">
   <cc:Work>
    <dc:type rdf:resource="http://purl.org/dc/dcmitype/StillImage"/>
    <dc:date>2025-07-02T16:22:53.699217</dc:date>
    <dc:format>image/svg+xml</dc:format>
    <dc:creator>
     <cc:Agent>
      <dc:title>Matplotlib v3.10.3, https://matplotlib.org/</dc:title>
     </cc:Agent>
    </dc:creator>
   </cc:Work>
  </rdf:RDF>
 </metadata>
 <defs>
  <style type="text/css">*{stroke-linejoin: round; stroke-linecap: butt}</style>
 </defs>
 <g id="figure_1">
  <g id="patch_1">
   <path d="M 0 482.479625 
L 770.959625 482.479625 
L 770.959625 0 
L 0 0 
z
" style="fill: #ffffff"/>
  </g>
  <g id="axes_1">
   <g id="patch_2">
    <path d="M 78.265625 356.762438 
L 734.959625 356.762438 
L 734.959625 49.598437 
L 78.265625 49.598437 
z
" style="fill: #ffffff"/>
   </g>
   <g id="matplotlib.axis_1">
    <g id="xtick_1">
     <g id="text_1">
      <!-- immune cell -->
      <g style="fill: #262626" transform="translate(245.1985 427.735875) rotate(-90) scale(0.1 -0.1)">
       <defs>
        <path id="DejaVuSans-69" d="M 603 3500 
L 1178 3500 
L 1178 0 
L 603 0 
L 603 3500 
z
M 603 4863 
L 1178 4863 
L 1178 4134 
L 603 4134 
L 603 4863 
z
" transform="scale(0.015625)"/>
        <path id="DejaVuSans-6d" d="M 3328 2828 
Q 3544 3216 3844 3400 
Q 4144 3584 4550 3584 
Q 5097 3584 5394 3201 
Q 5691 2819 5691 2113 
L 5691 0 
L 5113 0 
L 5113 2094 
Q 5113 2597 4934 2840 
Q 4756 3084 4391 3084 
Q 3944 3084 3684 2787 
Q 3425 2491 3425 1978 
L 3425 0 
L 2847 0 
L 2847 2094 
Q 2847 2600 2669 2842 
Q 2491 3084 2119 3084 
Q 1678 3084 1418 2786 
Q 1159 2488 1159 1978 
L 1159 0 
L 581 0 
L 581 3500 
L 1159 3500 
L 1159 2956 
Q 1356 3278 1631 3431 
Q 1906 3584 2284 3584 
Q 2666 3584 2933 3390 
Q 3200 3197 3328 2828 
z
" transform="scale(0.015625)"/>
        <path id="DejaVuSans-75" d="M 544 1381 
L 544 3500 
L 1119 3500 
L 1119 1403 
Q 1119 906 1312 657 
Q 1506 409 1894 409 
Q 2359 409 2629 706 
Q 2900 1003 2900 1516 
L 2900 3500 
L 3475 3500 
L 3475 0 
L 2900 0 
L 2900 538 
Q 2691 219 2414 64 
Q 2138 -91 1772 -91 
Q 1169 -91 856 284 
Q 544 659 544 1381 
z
M 1991 3584 
L 1991 3584 
z
" transform="scale(0.015625)"/>
        <path id="DejaVuSans-6e" d="M 3513 2113 
L 3513 0 
L 2938 0 
L 2938 2094 
Q 2938 2591 2744 2837 
Q 2550 3084 2163 3084 
Q 1697 3084 1428 2787 
Q 1159 2491 1159 1978 
L 1159 0 
L 581 0 
L 581 3500 
L 1159 3500 
L 1159 2956 
Q 1366 3272 1645 3428 
Q 1925 3584 2291 3584 
Q 2894 3584 3203 3211 
Q 3513 2838 3513 2113 
z
" transform="scale(0.015625)"/>
        <path id="DejaVuSans-65" d="M 3597 1894 
L 3597 1613 
L 953 1613 
Q 991 1019 1311 708 
Q 1631 397 2203 397 
Q 2534 397 2845 478 
Q 3156 559 3463 722 
L 3463 178 
Q 3153 47 2828 -22 
Q 2503 -91 2169 -91 
Q 1331 -91 842 396 
Q 353 884 353 1716 
Q 353 2575 817 3079 
Q 1281 3584 2069 3584 
Q 2775 3584 3186 3129 
Q 3597 2675 3597 1894 
z
M 3022 2063 
Q 3016 2534 2758 2815 
Q 2500 3097 2075 3097 
Q 1594 3097 1305 2825 
Q 1016 2553 972 2059 
L 3022 2063 
z
" transform="scale(0.015625)"/>
        <path id="DejaVuSans-20" transform="scale(0.015625)"/>
        <path id="DejaVuSans-63" d="M 3122 3366 
L 3122 2828 
Q 2878 2963 2633 3030 
Q 2388 3097 2138 3097 
Q 1578 3097 1268 2742 
Q 959 2388 959 1747 
Q 959 1106 1268 751 
Q 1578 397 2138 397 
Q 2388 397 2633 464 
Q 2878 531 3122 666 
L 3122 134 
Q 2881 22 2623 -34 
Q 2366 -91 2075 -91 
Q 1284 -91 818 406 
Q 353 903 353 1747 
Q 353 2603 823 3093 
Q 1294 3584 2113 3584 
Q 2378 3584 2631 3529 
Q 2884 3475 3122 3366 
z
" transform="scale(0.015625)"/>
        <path id="DejaVuSans-6c" d="M 603 4863 
L 1178 4863 
L 1178 0 
L 603 0 
L 603 4863 
z
" transform="scale(0.015625)"/>
       </defs>
       <use xlink:href="#DejaVuSans-69"/>
       <use xlink:href="#DejaVuSans-6d" transform="translate(27.783203 0)"/>
       <use xlink:href="#DejaVuSans-6d" transform="translate(125.195312 0)"/>
       <use xlink:href="#DejaVuSans-75" transform="translate(222.607422 0)"/>
       <use xlink:href="#DejaVuSans-6e" transform="translate(285.986328 0)"/>
       <use xlink:href="#DejaVuSans-65" transform="translate(349.365234 0)"/>
       <use xlink:href="#DejaVuSans-20" transform="translate(410.888672 0)"/>
       <use xlink:href="#DejaVuSans-63" transform="translate(442.675781 0)"/>
       <use xlink:href="#DejaVuSans-65" transform="translate(497.65625 0)"/>
       <use xlink:href="#DejaVuSans-6c" transform="translate(559.179688 0)"/>
       <use xlink:href="#DejaVuSans-6c" transform="translate(586.962891 0)"/>
      </g>
     </g>
    </g>
    <g id="xtick_2">
     <g id="text_2">
      <!-- epithelial cell -->
      <g style="fill: #262626" transform="translate(573.5455 432.8015) rotate(-90) scale(0.1 -0.1)">
       <defs>
        <path id="DejaVuSans-70" d="M 1159 525 
L 1159 -1331 
L 581 -1331 
L 581 3500 
L 1159 3500 
L 1159 2969 
Q 1341 3281 1617 3432 
Q 1894 3584 2278 3584 
Q 2916 3584 3314 3078 
Q 3713 2572 3713 1747 
Q 3713 922 3314 415 
Q 2916 -91 2278 -91 
Q 1894 -91 1617 61 
Q 1341 213 1159 525 
z
M 3116 1747 
Q 3116 2381 2855 2742 
Q 2594 3103 2138 3103 
Q 1681 3103 1420 2742 
Q 1159 2381 1159 1747 
Q 1159 1113 1420 752 
Q 1681 391 2138 391 
Q 2594 391 2855 752 
Q 3116 1113 3116 1747 
z
" transform="scale(0.015625)"/>
        <path id="DejaVuSans-74" d="M 1172 4494 
L 1172 3500 
L 2356 3500 
L 2356 3053 
L 1172 3053 
L 1172 1153 
Q 1172 725 1289 603 
Q 1406 481 1766 481 
L 2356 481 
L 2356 0 
L 1766 0 
Q 1100 0 847 248 
Q 594 497 594 1153 
L 594 3053 
L 172 3053 
L 172 3500 
L 594 3500 
L 594 4494 
L 1172 4494 
z
" transform="scale(0.015625)"/>
        <path id="DejaVuSans-68" d="M 3513 2113 
L 3513 0 
L 2938 0 
L 2938 2094 
Q 2938 2591 2744 2837 
Q 2550 3084 2163 3084 
Q 1697 3084 1428 2787 
Q 1159 2491 1159 1978 
L 1159 0 
L 581 0 
L 581 4863 
L 1159 4863 
L 1159 2956 
Q 1366 3272 1645 3428 
Q 1925 3584 2291 3584 
Q 2894 3584 3203 3211 
Q 3513 2838 3513 2113 
z
" transform="scale(0.015625)"/>
        <path id="DejaVuSans-61" d="M 2194 1759 
Q 1497 1759 1228 1600 
Q 959 1441 959 1056 
Q 959 750 1161 570 
Q 1363 391 1709 391 
Q 2188 391 2477 730 
Q 2766 1069 2766 1631 
L 2766 1759 
L 2194 1759 
z
M 3341 1997 
L 3341 0 
L 2766 0 
L 2766 531 
Q 2569 213 2275 61 
Q 1981 -91 1556 -91 
Q 1019 -91 701 211 
Q 384 513 384 1019 
Q 384 1609 779 1909 
Q 1175 2209 1959 2209 
L 2766 2209 
L 2766 2266 
Q 2766 2663 2505 2880 
Q 2244 3097 1772 3097 
Q 1472 3097 1187 3025 
Q 903 2953 641 2809 
L 641 3341 
Q 956 3463 1253 3523 
Q 1550 3584 1831 3584 
Q 2591 3584 2966 3190 
Q 3341 2797 3341 1997 
z
" transform="scale(0.015625)"/>
       </defs>
       <use xlink:href="#DejaVuSans-65"/>
       <use xlink:href="#DejaVuSans-70" transform="translate(61.523438 0)"/>
       <use xlink:href="#DejaVuSans-69" transform="translate(125 0)"/>
       <use xlink:href="#DejaVuSans-74" transform="translate(152.783203 0)"/>
       <use xlink:href="#DejaVuSans-68" transform="translate(191.992188 0)"/>
       <use xlink:href="#DejaVuSans-65" transform="translate(255.371094 0)"/>
       <use xlink:href="#DejaVuSans-6c" transform="translate(316.894531 0)"/>
       <use xlink:href="#DejaVuSans-69" transform="translate(344.677734 0)"/>
       <use xlink:href="#DejaVuSans-61" transform="translate(372.460938 0)"/>
       <use xlink:href="#DejaVuSans-6c" transform="translate(433.740234 0)"/>
       <use xlink:href="#DejaVuSans-20" transform="translate(461.523438 0)"/>
       <use xlink:href="#DejaVuSans-63" transform="translate(493.310547 0)"/>
       <use xlink:href="#DejaVuSans-65" transform="translate(548.291016 0)"/>
       <use xlink:href="#DejaVuSans-6c" transform="translate(609.814453 0)"/>
       <use xlink:href="#DejaVuSans-6c" transform="translate(637.597656 0)"/>
      </g>
     </g>
    </g>
    <g id="text_3">
     <!-- Level One Cell Type -->
     <g style="fill: #262626" transform="translate(357.635281 444.399938) scale(0.1 -0.1)">
      <defs>
       <path id="DejaVuSans-4c" d="M 628 4666 
L 1259 4666 
L 1259 531 
L 3531 531 
L 3531 0 
L 628 0 
L 628 4666 
z
" transform="scale(0.015625)"/>
       <path id="DejaVuSans-76" d="M 191 3500 
L 800 3500 
L 1894 563 
L 2988 3500 
L 3597 3500 
L 2284 0 
L 1503 0 
L 191 3500 
z
" transform="scale(0.015625)"/>
       <path id="DejaVuSans-4f" d="M 2522 4238 
Q 1834 4238 1429 3725 
Q 1025 3213 1025 2328 
Q 1025 1447 1429 934 
Q 1834 422 2522 422 
Q 3209 422 3611 934 
Q 4013 1447 4013 2328 
Q 4013 3213 3611 3725 
Q 3209 4238 2522 4238 
z
M 2522 4750 
Q 3503 4750 4090 4092 
Q 4678 3434 4678 2328 
Q 4678 1225 4090 567 
Q 3503 -91 2522 -91 
Q 1538 -91 948 565 
Q 359 1222 359 2328 
Q 359 3434 948 4092 
Q 1538 4750 2522 4750 
z
" transform="scale(0.015625)"/>
       <path id="DejaVuSans-43" d="M 4122 4306 
L 4122 3641 
Q 3803 3938 3442 4084 
Q 3081 4231 2675 4231 
Q 1875 4231 1450 3742 
Q 1025 3253 1025 2328 
Q 1025 1406 1450 917 
Q 1875 428 2675 428 
Q 3081 428 3442 575 
Q 3803 722 4122 1019 
L 4122 359 
Q 3791 134 3420 21 
Q 3050 -91 2638 -91 
Q 1578 -91 968 557 
Q 359 1206 359 2328 
Q 359 3453 968 4101 
Q 1578 4750 2638 4750 
Q 3056 4750 3426 4639 
Q 3797 4528 4122 4306 
z
" transform="scale(0.015625)"/>
       <path id="DejaVuSans-54" d="M -19 4666 
L 3928 4666 
L 3928 4134 
L 2272 4134 
L 2272 0 
L 1638 0 
L 1638 4134 
L -19 4134 
L -19 4666 
z
" transform="scale(0.015625)"/>
       <path id="DejaVuSans-79" d="M 2059 -325 
Q 1816 -950 1584 -1140 
Q 1353 -1331 966 -1331 
L 506 -1331 
L 506 -850 
L 844 -850 
Q 1081 -850 1212 -737 
Q 1344 -625 1503 -206 
L 1606 56 
L 191 3500 
L 800 3500 
L 1894 763 
L 2988 3500 
L 3597 3500 
L 2059 -325 
z
" transform="scale(0.015625)"/>
      </defs>
      <use xlink:href="#DejaVuSans-4c"/>
      <use xlink:href="#DejaVuSans-65" transform="translate(53.962891 0)"/>
      <use xlink:href="#DejaVuSans-76" transform="translate(115.486328 0)"/>
      <use xlink:href="#DejaVuSans-65" transform="translate(174.666016 0)"/>
      <use xlink:href="#DejaVuSans-6c" transform="translate(236.189453 0)"/>
      <use xlink:href="#DejaVuSans-20" transform="translate(263.972656 0)"/>
      <use xlink:href="#DejaVuSans-4f" transform="translate(295.759766 0)"/>
      <use xlink:href="#DejaVuSans-6e" transform="translate(374.470703 0)"/>
      <use xlink:href="#DejaVuSans-65" transform="translate(437.849609 0)"/>
      <use xlink:href="#DejaVuSans-20" transform="translate(499.373047 0)"/>
      <use xlink:href="#DejaVuSans-43" transform="translate(531.160156 0)"/>
      <use xlink:href="#DejaVuSans-65" transform="translate(600.984375 0)"/>
      <use xlink:href="#DejaVuSans-6c" transform="translate(662.507812 0)"/>
      <use xlink:href="#DejaVuSans-6c" transform="translate(690.291016 0)"/>
      <use xlink:href="#DejaVuSans-20" transform="translate(718.074219 0)"/>
      <use xlink:href="#DejaVuSans-54" transform="translate(749.861328 0)"/>
      <use xlink:href="#DejaVuSans-79" transform="translate(795.320312 0)"/>
      <use xlink:href="#DejaVuSans-70" transform="translate(854.5 0)"/>
      <use xlink:href="#DejaVuSans-65" transform="translate(917.976562 0)"/>
     </g>
    </g>
   </g>
   <g id="matplotlib.axis_2">
    <g id="ytick_1">
     <g id="line2d_1">
      <path d="M 78.265625 342.800437 
L 734.959625 342.800437 
" clip-path="url(#p65956d18f9)" style="fill: none; stroke: #cccccc; stroke-width: 2; stroke-linecap: round"/>
     </g>
     <g id="text_4">
      <!-- 0 -->
      <g style="fill: #262626" transform="translate(62.403125 346.599656) scale(0.1 -0.1)">
       <defs>
        <path id="DejaVuSans-30" d="M 2034 4250 
Q 1547 4250 1301 3770 
Q 1056 3291 1056 2328 
Q 1056 1369 1301 889 
Q 1547 409 2034 409 
Q 2525 409 2770 889 
Q 3016 1369 3016 2328 
Q 3016 3291 2770 3770 
Q 2525 4250 2034 4250 
z
M 2034 4750 
Q 2819 4750 3233 4129 
Q 3647 3509 3647 2328 
Q 3647 1150 3233 529 
Q 2819 -91 2034 -91 
Q 1250 -91 836 529 
Q 422 1150 422 2328 
Q 422 3509 836 4129 
Q 1250 4750 2034 4750 
z
" transform="scale(0.015625)"/>
       </defs>
       <use xlink:href="#DejaVuSans-30"/>
      </g>
     </g>
    </g>
    <g id="ytick_2">
     <g id="line2d_2">
      <path d="M 78.265625 299.309542 
L 734.959625 299.309542 
" clip-path="url(#p65956d18f9)" style="fill: none; stroke: #cccccc; stroke-width: 2; stroke-linecap: round"/>
     </g>
     <g id="text_5">
      <!-- 20 -->
      <g style="fill: #262626" transform="translate(56.040625 303.10876) scale(0.1 -0.1)">
       <defs>
        <path id="DejaVuSans-32" d="M 1228 531 
L 3431 531 
L 3431 0 
L 469 0 
L 469 531 
Q 828 903 1448 1529 
Q 2069 2156 2228 2338 
Q 2531 2678 2651 2914 
Q 2772 3150 2772 3378 
Q 2772 3750 2511 3984 
Q 2250 4219 1831 4219 
Q 1534 4219 1204 4116 
Q 875 4013 500 3803 
L 500 4441 
Q 881 4594 1212 4672 
Q 1544 4750 1819 4750 
Q 2544 4750 2975 4387 
Q 3406 4025 3406 3419 
Q 3406 3131 3298 2873 
Q 3191 2616 2906 2266 
Q 2828 2175 2409 1742 
Q 1991 1309 1228 531 
z
" transform="scale(0.015625)"/>
       </defs>
       <use xlink:href="#DejaVuSans-32"/>
       <use xlink:href="#DejaVuSans-30" transform="translate(63.623047 0)"/>
      </g>
     </g>
    </g>
    <g id="ytick_3">
     <g id="line2d_3">
      <path d="M 78.265625 255.818646 
L 734.959625 255.818646 
" clip-path="url(#p65956d18f9)" style="fill: none; stroke: #cccccc; stroke-width: 2; stroke-linecap: round"/>
     </g>
     <g id="text_6">
      <!-- 40 -->
      <g style="fill: #262626" transform="translate(56.040625 259.617865) scale(0.1 -0.1)">
       <defs>
        <path id="DejaVuSans-34" d="M 2419 4116 
L 825 1625 
L 2419 1625 
L 2419 4116 
z
M 2253 4666 
L 3047 4666 
L 3047 1625 
L 3713 1625 
L 3713 1100 
L 3047 1100 
L 3047 0 
L 2419 0 
L 2419 1100 
L 313 1100 
L 313 1709 
L 2253 4666 
z
" transform="scale(0.015625)"/>
       </defs>
       <use xlink:href="#DejaVuSans-34"/>
       <use xlink:href="#DejaVuSans-30" transform="translate(63.623047 0)"/>
      </g>
     </g>
    </g>
    <g id="ytick_4">
     <g id="line2d_4">
      <path d="M 78.265625 212.32775 
L 734.959625 212.32775 
" clip-path="url(#p65956d18f9)" style="fill: none; stroke: #cccccc; stroke-width: 2; stroke-linecap: round"/>
     </g>
     <g id="text_7">
      <!-- 60 -->
      <g style="fill: #262626" transform="translate(56.040625 216.126969) scale(0.1 -0.1)">
       <defs>
        <path id="DejaVuSans-36" d="M 2113 2584 
Q 1688 2584 1439 2293 
Q 1191 2003 1191 1497 
Q 1191 994 1439 701 
Q 1688 409 2113 409 
Q 2538 409 2786 701 
Q 3034 994 3034 1497 
Q 3034 2003 2786 2293 
Q 2538 2584 2113 2584 
z
M 3366 4563 
L 3366 3988 
Q 3128 4100 2886 4159 
Q 2644 4219 2406 4219 
Q 1781 4219 1451 3797 
Q 1122 3375 1075 2522 
Q 1259 2794 1537 2939 
Q 1816 3084 2150 3084 
Q 2853 3084 3261 2657 
Q 3669 2231 3669 1497 
Q 3669 778 3244 343 
Q 2819 -91 2113 -91 
Q 1303 -91 875 529 
Q 447 1150 447 2328 
Q 447 3434 972 4092 
Q 1497 4750 2381 4750 
Q 2619 4750 2861 4703 
Q 3103 4656 3366 4563 
z
" transform="scale(0.015625)"/>
       </defs>
       <use xlink:href="#DejaVuSans-36"/>
       <use xlink:href="#DejaVuSans-30" transform="translate(63.623047 0)"/>
      </g>
     </g>
    </g>
    <g id="ytick_5">
     <g id="line2d_5">
      <path d="M 78.265625 168.836854 
L 734.959625 168.836854 
" clip-path="url(#p65956d18f9)" style="fill: none; stroke: #cccccc; stroke-width: 2; stroke-linecap: round"/>
     </g>
     <g id="text_8">
      <!-- 80 -->
      <g style="fill: #262626" transform="translate(56.040625 172.636073) scale(0.1 -0.1)">
       <defs>
        <path id="DejaVuSans-38" d="M 2034 2216 
Q 1584 2216 1326 1975 
Q 1069 1734 1069 1313 
Q 1069 891 1326 650 
Q 1584 409 2034 409 
Q 2484 409 2743 651 
Q 3003 894 3003 1313 
Q 3003 1734 2745 1975 
Q 2488 2216 2034 2216 
z
M 1403 2484 
Q 997 2584 770 2862 
Q 544 3141 544 3541 
Q 544 4100 942 4425 
Q 1341 4750 2034 4750 
Q 2731 4750 3128 4425 
Q 3525 4100 3525 3541 
Q 3525 3141 3298 2862 
Q 3072 2584 2669 2484 
Q 3125 2378 3379 2068 
Q 3634 1759 3634 1313 
Q 3634 634 3220 271 
Q 2806 -91 2034 -91 
Q 1263 -91 848 271 
Q 434 634 434 1313 
Q 434 1759 690 2068 
Q 947 2378 1403 2484 
z
M 1172 3481 
Q 1172 3119 1398 2916 
Q 1625 2713 2034 2713 
Q 2441 2713 2670 2916 
Q 2900 3119 2900 3481 
Q 2900 3844 2670 4047 
Q 2441 4250 2034 4250 
Q 1625 4250 1398 4047 
Q 1172 3844 1172 3481 
z
" transform="scale(0.015625)"/>
       </defs>
       <use xlink:href="#DejaVuSans-38"/>
       <use xlink:href="#DejaVuSans-30" transform="translate(63.623047 0)"/>
      </g>
     </g>
    </g>
    <g id="ytick_6">
     <g id="line2d_6">
      <path d="M 78.265625 125.345958 
L 734.959625 125.345958 
" clip-path="url(#p65956d18f9)" style="fill: none; stroke: #cccccc; stroke-width: 2; stroke-linecap: round"/>
     </g>
     <g id="text_9">
      <!-- 100 -->
      <g style="fill: #262626" transform="translate(49.678125 129.145177) scale(0.1 -0.1)">
       <defs>
        <path id="DejaVuSans-31" d="M 794 531 
L 1825 531 
L 1825 4091 
L 703 3866 
L 703 4441 
L 1819 4666 
L 2450 4666 
L 2450 531 
L 3481 531 
L 3481 0 
L 794 0 
L 794 531 
z
" transform="scale(0.015625)"/>
       </defs>
       <use xlink:href="#DejaVuSans-31"/>
       <use xlink:href="#DejaVuSans-30" transform="translate(63.623047 0)"/>
       <use xlink:href="#DejaVuSans-30" transform="translate(127.246094 0)"/>
      </g>
     </g>
    </g>
    <g id="ytick_7">
     <g id="line2d_7">
      <path d="M 78.265625 81.855063 
L 734.959625 81.855063 
" clip-path="url(#p65956d18f9)" style="fill: none; stroke: #cccccc; stroke-width: 2; stroke-linecap: round"/>
     </g>
     <g id="text_10">
      <!-- 120 -->
      <g style="fill: #262626" transform="translate(49.678125 85.654281) scale(0.1 -0.1)">
       <use xlink:href="#DejaVuSans-31"/>
       <use xlink:href="#DejaVuSans-32" transform="translate(63.623047 0)"/>
       <use xlink:href="#DejaVuSans-30" transform="translate(127.246094 0)"/>
      </g>
     </g>
    </g>
    <g id="text_11">
     <!-- Distance (μm) -->
     <g style="fill: #262626" transform="translate(43.598437 238.585125) rotate(-90) scale(0.1 -0.1)">
      <defs>
       <path id="DejaVuSans-44" d="M 1259 4147 
L 1259 519 
L 2022 519 
Q 2988 519 3436 956 
Q 3884 1394 3884 2338 
Q 3884 3275 3436 3711 
Q 2988 4147 2022 4147 
L 1259 4147 
z
M 628 4666 
L 1925 4666 
Q 3281 4666 3915 4102 
Q 4550 3538 4550 2338 
Q 4550 1131 3912 565 
Q 3275 0 1925 0 
L 628 0 
L 628 4666 
z
" transform="scale(0.015625)"/>
       <path id="DejaVuSans-73" d="M 2834 3397 
L 2834 2853 
Q 2591 2978 2328 3040 
Q 2066 3103 1784 3103 
Q 1356 3103 1142 2972 
Q 928 2841 928 2578 
Q 928 2378 1081 2264 
Q 1234 2150 1697 2047 
L 1894 2003 
Q 2506 1872 2764 1633 
Q 3022 1394 3022 966 
Q 3022 478 2636 193 
Q 2250 -91 1575 -91 
Q 1294 -91 989 -36 
Q 684 19 347 128 
L 347 722 
Q 666 556 975 473 
Q 1284 391 1588 391 
Q 1994 391 2212 530 
Q 2431 669 2431 922 
Q 2431 1156 2273 1281 
Q 2116 1406 1581 1522 
L 1381 1569 
Q 847 1681 609 1914 
Q 372 2147 372 2553 
Q 372 3047 722 3315 
Q 1072 3584 1716 3584 
Q 2034 3584 2315 3537 
Q 2597 3491 2834 3397 
z
" transform="scale(0.015625)"/>
       <path id="DejaVuSans-28" d="M 1984 4856 
Q 1566 4138 1362 3434 
Q 1159 2731 1159 2009 
Q 1159 1288 1364 580 
Q 1569 -128 1984 -844 
L 1484 -844 
Q 1016 -109 783 600 
Q 550 1309 550 2009 
Q 550 2706 781 3412 
Q 1013 4119 1484 4856 
L 1984 4856 
z
" transform="scale(0.015625)"/>
       <path id="DejaVuSans-3bc" d="M 544 -1331 
L 544 3500 
L 1119 3500 
L 1119 1325 
Q 1119 872 1334 640 
Q 1550 409 1972 409 
Q 2434 409 2667 671 
Q 2900 934 2900 1459 
L 2900 3500 
L 3475 3500 
L 3475 806 
Q 3475 619 3529 530 
Q 3584 441 3700 441 
Q 3728 441 3778 458 
Q 3828 475 3916 513 
L 3916 50 
Q 3788 -22 3673 -56 
Q 3559 -91 3450 -91 
Q 3234 -91 3106 31 
Q 2978 153 2931 403 
Q 2775 156 2548 32 
Q 2322 -91 2016 -91 
Q 1697 -91 1473 31 
Q 1250 153 1119 397 
L 1119 -1331 
L 544 -1331 
z
" transform="scale(0.015625)"/>
       <path id="DejaVuSans-29" d="M 513 4856 
L 1013 4856 
Q 1481 4119 1714 3412 
Q 1947 2706 1947 2009 
Q 1947 1309 1714 600 
Q 1481 -109 1013 -844 
L 513 -844 
Q 928 -128 1133 580 
Q 1338 1288 1338 2009 
Q 1338 2731 1133 3434 
Q 928 4138 513 4856 
z
" transform="scale(0.015625)"/>
      </defs>
      <use xlink:href="#DejaVuSans-44"/>
      <use xlink:href="#DejaVuSans-69" transform="translate(77.001953 0)"/>
      <use xlink:href="#DejaVuSans-73" transform="translate(104.785156 0)"/>
      <use xlink:href="#DejaVuSans-74" transform="translate(156.884766 0)"/>
      <use xlink:href="#DejaVuSans-61" transform="translate(196.09375 0)"/>
      <use xlink:href="#DejaVuSans-6e" transform="translate(257.373047 0)"/>
      <use xlink:href="#DejaVuSans-63" transform="translate(320.751953 0)"/>
      <use xlink:href="#DejaVuSans-65" transform="translate(375.732422 0)"/>
      <use xlink:href="#DejaVuSans-20" transform="translate(437.255859 0)"/>
      <use xlink:href="#DejaVuSans-28" transform="translate(469.042969 0)"/>
      <use xlink:href="#DejaVuSans-3bc" transform="translate(508.056641 0)"/>
      <use xlink:href="#DejaVuSans-6d" transform="translate(571.679688 0)"/>
      <use xlink:href="#DejaVuSans-29" transform="translate(669.091797 0)"/>
     </g>
    </g>
   </g>
   <g id="FillBetweenPolyCollection_1">
    <defs>
     <path id="m17c35043ed" d="M 264.982484 -139.679188 
L 219.895766 -139.679188 
L 184.213529 -142.499794 
L 141.379397 -145.3204 
L 114.288304 -148.141006 
L 111.100325 -150.961612 
L 122.511173 -153.782218 
L 139.486552 -156.602824 
L 157.749469 -159.42343 
L 174.688705 -162.244036 
L 188.136156 -165.064642 
L 198.152417 -167.885248 
L 206.434351 -170.705854 
L 213.400127 -173.52646 
L 218.702273 -176.347066 
L 222.460275 -179.167672 
L 225.26343 -181.988278 
L 227.401901 -184.808884 
L 229.148083 -187.629491 
L 230.844796 -190.450097 
L 232.529135 -193.270703 
L 234.001427 -196.091309 
L 235.114087 -198.911915 
L 235.936792 -201.732521 
L 236.627102 -204.553127 
L 237.265466 -207.373733 
L 237.992445 -210.194339 
L 238.753559 -213.014945 
L 239.27863 -215.835551 
L 239.533883 -218.656157 
L 239.690311 -221.476763 
L 239.779288 -224.297369 
L 239.743255 -227.117975 
L 239.814225 -229.938581 
L 240.206416 -232.759188 
L 240.656062 -235.579794 
L 240.769431 -238.4004 
L 240.684782 -241.221006 
L 240.852436 -244.041612 
L 241.205984 -246.862218 
L 241.475771 -249.682824 
L 241.558229 -252.50343 
L 241.469841 -255.324036 
L 241.463797 -258.144642 
L 241.599762 -260.965248 
L 241.619339 -263.785854 
L 241.527978 -266.60646 
L 241.594375 -269.427066 
L 241.798296 -272.247672 
L 241.909191 -275.068278 
L 241.953547 -277.888884 
L 242.078698 -280.709491 
L 242.213682 -283.530097 
L 242.286831 -286.350703 
L 242.314389 -289.171309 
L 242.315162 -291.991915 
L 242.306895 -294.812521 
L 242.310185 -297.633127 
L 242.337083 -300.453733 
L 242.37961 -303.274339 
L 242.398337 -306.094945 
L 242.381567 -308.915551 
L 242.34849 -311.736157 
L 242.324363 -314.556763 
L 242.328107 -317.377369 
L 242.348256 -320.197975 
L 242.375351 -323.018581 
L 242.402833 -325.839188 
L 242.425836 -328.659794 
L 242.436644 -331.4804 
L 242.438911 -334.301006 
L 242.439117 -337.121612 
L 242.439125 -339.942218 
L 242.439125 -342.762824 
L 242.439125 -345.58343 
L 242.439125 -348.404036 
L 242.439125 -351.224642 
L 242.439125 -354.045248 
L 242.439125 -356.865854 
L 242.439125 -359.68646 
L 242.439125 -362.507066 
L 242.43912 -365.327672 
L 242.438992 -368.148278 
L 242.437394 -370.968884 
L 242.429062 -373.789491 
L 242.413078 -376.610097 
L 242.408987 -379.430703 
L 242.421999 -382.251309 
L 242.425233 -385.071915 
L 242.409194 -387.892521 
L 242.393153 -390.713127 
L 242.389808 -393.533733 
L 242.393582 -396.354339 
L 242.398497 -399.174945 
L 242.411951 -401.995551 
L 242.429358 -404.816157 
L 242.435872 -407.636763 
L 242.428549 -410.457369 
L 242.407326 -413.277975 
L 242.387986 -416.098581 
L 242.391894 -418.919188 
L 242.486356 -418.919188 
L 242.486356 -418.919188 
L 242.490264 -416.098581 
L 242.470924 -413.277975 
L 242.449701 -410.457369 
L 242.442378 -407.636763 
L 242.448892 -404.816157 
L 242.466299 -401.995551 
L 242.479753 -399.174945 
L 242.484668 -396.354339 
L 242.488442 -393.533733 
L 242.485097 -390.713127 
L 242.469056 -387.892521 
L 242.453017 -385.071915 
L 242.456251 -382.251309 
L 242.469263 -379.430703 
L 242.465172 -376.610097 
L 242.449188 -373.789491 
L 242.440856 -370.968884 
L 242.439258 -368.148278 
L 242.43913 -365.327672 
L 242.439125 -362.507066 
L 242.439125 -359.68646 
L 242.439125 -356.865854 
L 242.439125 -354.045248 
L 242.439125 -351.224642 
L 242.439125 -348.404036 
L 242.439125 -345.58343 
L 242.439125 -342.762824 
L 242.439125 -339.942218 
L 242.439133 -337.121612 
L 242.439339 -334.301006 
L 242.441606 -331.4804 
L 242.452414 -328.659794 
L 242.475417 -325.839188 
L 242.502899 -323.018581 
L 242.529994 -320.197975 
L 242.550143 -317.377369 
L 242.553887 -314.556763 
L 242.52976 -311.736157 
L 242.496683 -308.915551 
L 242.479913 -306.094945 
L 242.49864 -303.274339 
L 242.541167 -300.453733 
L 242.568065 -297.633127 
L 242.571355 -294.812521 
L 242.563088 -291.991915 
L 242.563861 -289.171309 
L 242.591419 -286.350703 
L 242.664568 -283.530097 
L 242.799552 -280.709491 
L 242.924703 -277.888884 
L 242.969059 -275.068278 
L 243.079954 -272.247672 
L 243.283875 -269.427066 
L 243.350272 -266.60646 
L 243.258911 -263.785854 
L 243.278488 -260.965248 
L 243.414453 -258.144642 
L 243.408409 -255.324036 
L 243.320021 -252.50343 
L 243.402479 -249.682824 
L 243.672266 -246.862218 
L 244.025814 -244.041612 
L 244.193468 -241.221006 
L 244.108819 -238.4004 
L 244.222188 -235.579794 
L 244.671834 -232.759188 
L 245.064025 -229.938581 
L 245.134995 -227.117975 
L 245.098962 -224.297369 
L 245.187939 -221.476763 
L 245.344367 -218.656157 
L 245.59962 -215.835551 
L 246.124691 -213.014945 
L 246.885805 -210.194339 
L 247.612784 -207.373733 
L 248.251148 -204.553127 
L 248.941458 -201.732521 
L 249.764163 -198.911915 
L 250.876823 -196.091309 
L 252.349115 -193.270703 
L 254.033454 -190.450097 
L 255.730167 -187.629491 
L 257.476349 -184.808884 
L 259.61482 -181.988278 
L 262.417975 -179.167672 
L 266.175977 -176.347066 
L 271.478123 -173.52646 
L 278.443899 -170.705854 
L 286.725833 -167.885248 
L 296.742094 -165.064642 
L 310.189545 -162.244036 
L 327.128781 -159.42343 
L 345.391698 -156.602824 
L 362.367077 -153.782218 
L 373.777925 -150.961612 
L 370.589946 -148.141006 
L 343.498853 -145.3204 
L 300.664721 -142.499794 
L 264.982484 -139.679188 
z
" style="stroke: #6d6d6d; stroke-opacity: 0.9; stroke-width: 1.25"/>
    </defs>
    <g clip-path="url(#p65956d18f9)">
     <use xlink:href="#m17c35043ed" x="0" y="482.479625" style="fill: #ecbd81; fill-opacity: 0.9; stroke: #6d6d6d; stroke-opacity: 0.9; stroke-width: 1.25"/>
    </g>
   </g>
   <g id="FillBetweenPolyCollection_2">
    <defs>
     <path id="m9ed7bec77a" d="M 578.443554 -139.716155 
L 563.128696 -139.716155 
L 554.540255 -141.52954 
L 542.070671 -143.342926 
L 526.394946 -145.156311 
L 508.905208 -146.969697 
L 491.723413 -148.783082 
L 476.828617 -150.596468 
L 465.048217 -152.409853 
L 456.600898 -154.223239 
L 451.830215 -156.036624 
L 450.953038 -157.85001 
L 454.033241 -159.663395 
L 460.906672 -161.476781 
L 470.620279 -163.290166 
L 481.588671 -165.103552 
L 492.227618 -166.916937 
L 501.337118 -168.730323 
L 508.757341 -170.543708 
L 515.453519 -172.357094 
L 522.365619 -174.170479 
L 529.567264 -175.983865 
L 536.392433 -177.79725 
L 542.239775 -179.610636 
L 547.147926 -181.424021 
L 551.169592 -183.237407 
L 554.139344 -185.050792 
L 556.275276 -186.864178 
L 558.089625 -188.677563 
L 559.920145 -190.490949 
L 561.746363 -192.304334 
L 563.239288 -194.11772 
L 564.133643 -195.931105 
L 564.648363 -197.744491 
L 565.248043 -199.557876 
L 566.024717 -201.371262 
L 566.709826 -203.184647 
L 567.174222 -204.998033 
L 567.566513 -206.811418 
L 567.971439 -208.624804 
L 568.247668 -210.438189 
L 568.290737 -212.251575 
L 568.20142 -214.06496 
L 568.14374 -215.878346 
L 568.214207 -217.691731 
L 568.457814 -219.505117 
L 568.831622 -221.318502 
L 569.164721 -223.131888 
L 569.320861 -224.945273 
L 569.333842 -226.758659 
L 569.308802 -228.572044 
L 569.311645 -230.38543 
L 569.32409 -232.198815 
L 569.2665 -234.012201 
L 569.16884 -235.825586 
L 569.184256 -237.638972 
L 569.351199 -239.452357 
L 569.542056 -241.265743 
L 569.660555 -243.079128 
L 569.712527 -244.892514 
L 569.710137 -246.705899 
L 569.651288 -248.519285 
L 569.591217 -250.33267 
L 569.604022 -252.146056 
L 569.656598 -253.959441 
L 569.680861 -255.772827 
L 569.718813 -257.586212 
L 569.837779 -259.399598 
L 570.003588 -261.212983 
L 570.155999 -263.026369 
L 570.288967 -264.839754 
L 570.389722 -266.65314 
L 570.432645 -268.466525 
L 570.423682 -270.279911 
L 570.399052 -272.093296 
L 570.409632 -273.906682 
L 570.465103 -275.720067 
L 570.521162 -277.533453 
L 570.553915 -279.346838 
L 570.579814 -281.160224 
L 570.617686 -282.973609 
L 570.667056 -284.786995 
L 570.707323 -286.60038 
L 570.726612 -288.413766 
L 570.728137 -290.227151 
L 570.701218 -292.040537 
L 570.641876 -293.853922 
L 570.595614 -295.667308 
L 570.613332 -297.480693 
L 570.674704 -299.294079 
L 570.720834 -301.107464 
L 570.737249 -302.92085 
L 570.748577 -304.734235 
L 570.765205 -306.547621 
L 570.777848 -308.361006 
L 570.779238 -310.174392 
L 570.764869 -311.987777 
L 570.73159 -313.801163 
L 570.693423 -315.614548 
L 570.679524 -317.427934 
L 570.700332 -319.241319 
L 570.871918 -319.241319 
L 570.871918 -319.241319 
L 570.892726 -317.427934 
L 570.878827 -315.614548 
L 570.84066 -313.801163 
L 570.807381 -311.987777 
L 570.793012 -310.174392 
L 570.794402 -308.361006 
L 570.807045 -306.547621 
L 570.823673 -304.734235 
L 570.835001 -302.92085 
L 570.851416 -301.107464 
L 570.897546 -299.294079 
L 570.958918 -297.480693 
L 570.976636 -295.667308 
L 570.930374 -293.853922 
L 570.871032 -292.040537 
L 570.844113 -290.227151 
L 570.845638 -288.413766 
L 570.864927 -286.60038 
L 570.905194 -284.786995 
L 570.954564 -282.973609 
L 570.992436 -281.160224 
L 571.018335 -279.346838 
L 571.051088 -277.533453 
L 571.107147 -275.720067 
L 571.162618 -273.906682 
L 571.173198 -272.093296 
L 571.148568 -270.279911 
L 571.139605 -268.466525 
L 571.182528 -266.65314 
L 571.283283 -264.839754 
L 571.416251 -263.026369 
L 571.568662 -261.212983 
L 571.734471 -259.399598 
L 571.853437 -257.586212 
L 571.891389 -255.772827 
L 571.915652 -253.959441 
L 571.968228 -252.146056 
L 571.981033 -250.33267 
L 571.920962 -248.519285 
L 571.862113 -246.705899 
L 571.859723 -244.892514 
L 571.911695 -243.079128 
L 572.030194 -241.265743 
L 572.221051 -239.452357 
L 572.387994 -237.638972 
L 572.40341 -235.825586 
L 572.30575 -234.012201 
L 572.24816 -232.198815 
L 572.260605 -230.38543 
L 572.263448 -228.572044 
L 572.238408 -226.758659 
L 572.251389 -224.945273 
L 572.407529 -223.131888 
L 572.740628 -221.318502 
L 573.114436 -219.505117 
L 573.358043 -217.691731 
L 573.42851 -215.878346 
L 573.37083 -214.06496 
L 573.281513 -212.251575 
L 573.324582 -210.438189 
L 573.600811 -208.624804 
L 574.005737 -206.811418 
L 574.398028 -204.998033 
L 574.862424 -203.184647 
L 575.547533 -201.371262 
L 576.324207 -199.557876 
L 576.923887 -197.744491 
L 577.438607 -195.931105 
L 578.332962 -194.11772 
L 579.825887 -192.304334 
L 581.652105 -190.490949 
L 583.482625 -188.677563 
L 585.296974 -186.864178 
L 587.432906 -185.050792 
L 590.402658 -183.237407 
L 594.424324 -181.424021 
L 599.332475 -179.610636 
L 605.179817 -177.79725 
L 612.004986 -175.983865 
L 619.206631 -174.170479 
L 626.118731 -172.357094 
L 632.814909 -170.543708 
L 640.235132 -168.730323 
L 649.344632 -166.916937 
L 659.983579 -165.103552 
L 670.951971 -163.290166 
L 680.665578 -161.476781 
L 687.539009 -159.663395 
L 690.619212 -157.85001 
L 689.742035 -156.036624 
L 684.971352 -154.223239 
L 676.524033 -152.409853 
L 664.743633 -150.596468 
L 649.848837 -148.783082 
L 632.667042 -146.969697 
L 615.177304 -145.156311 
L 599.501579 -143.342926 
L 587.031995 -141.52954 
L 578.443554 -139.716155 
z
" style="stroke: #6d6d6d; stroke-opacity: 0.9; stroke-width: 1.25"/>
    </defs>
    <g clip-path="url(#p65956d18f9)">
     <use xlink:href="#m9ed7bec77a" x="0" y="482.479625" style="fill: #c0dca9; fill-opacity: 0.9; stroke: #6d6d6d; stroke-opacity: 0.9; stroke-width: 1.25"/>
    </g>
   </g>
   <g id="line2d_8">
    <path d="M 242.439125 342.800437 
L 242.439125 289.752408 
" clip-path="url(#p65956d18f9)" style="fill: none; stroke: #6d6d6d; stroke-width: 1.875; stroke-linecap: round"/>
   </g>
   <g id="line2d_9">
    <path d="M 242.439125 333.447367 
L 242.439125 315.963245 
" clip-path="url(#p65956d18f9)" style="fill: none; stroke: #6d6d6d; stroke-width: 5.625; stroke-linecap: round"/>
   </g>
   <g id="line2d_10">
    <path d="M 242.439125 326.982757 
" clip-path="url(#p65956d18f9)" style="fill: none; stroke: #6d6d6d; stroke-width: 1.5; stroke-linecap: round"/>
    <defs>
     <path id="m6b97df06c3" d="M 2.34375 0 
L -2.34375 -0 
" style="stroke: #ffffff; stroke-width: 1.125"/>
    </defs>
    <g clip-path="url(#p65956d18f9)">
     <use xlink:href="#m6b97df06c3" x="242.439125" y="326.982757" style="fill: #ffffff; stroke: #ffffff; stroke-width: 1.125"/>
    </g>
   </g>
   <g id="line2d_11">
    <path d="M 570.786125 342.76347 
L 570.786125 288.385185 
" clip-path="url(#p65956d18f9)" style="fill: none; stroke: #6d6d6d; stroke-width: 1.875; stroke-linecap: round"/>
   </g>
   <g id="line2d_12">
    <path d="M 570.786125 328.758406 
L 570.786125 312.60906 
" clip-path="url(#p65956d18f9)" style="fill: none; stroke: #6d6d6d; stroke-width: 5.625; stroke-linecap: round"/>
   </g>
   <g id="line2d_13">
    <path d="M 570.786125 321.967817 
" clip-path="url(#p65956d18f9)" style="fill: none; stroke: #6d6d6d; stroke-width: 1.5; stroke-linecap: round"/>
    <g clip-path="url(#p65956d18f9)">
     <use xlink:href="#m6b97df06c3" x="570.786125" y="321.967817" style="fill: #ffffff; stroke: #ffffff; stroke-width: 1.125"/>
    </g>
   </g>
   <g id="patch_3">
    <path d="M 78.265625 356.762437 
L 78.265625 49.598437 
" style="fill: none; stroke: #cccccc; stroke-width: 1.25; stroke-linejoin: miter; stroke-linecap: square"/>
   </g>
   <g id="patch_4">
    <path d="M 734.959625 356.762437 
L 734.959625 49.598437 
" style="fill: none; stroke: #cccccc; stroke-width: 1.25; stroke-linejoin: miter; stroke-linecap: square"/>
   </g>
   <g id="patch_5">
    <path d="M 78.265625 356.762438 
L 734.959625 356.762438 
" style="fill: none; stroke: #cccccc; stroke-width: 1.25; stroke-linejoin: miter; stroke-linecap: square"/>
   </g>
   <g id="patch_6">
    <path d="M 78.265625 49.598437 
L 734.959625 49.598437 
" style="fill: none; stroke: #cccccc; stroke-width: 1.25; stroke-linejoin: miter; stroke-linecap: square"/>
   </g>
   <g id="text_12">
    <!-- Violin Plot of distances by Level One Cell Type (Density Normalization: area) -->
    <g style="fill: #262626" transform="translate(216.563406 43.598437) scale(0.1 -0.1)">
     <defs>
      <path id="DejaVuSans-56" d="M 1831 0 
L 50 4666 
L 709 4666 
L 2188 738 
L 3669 4666 
L 4325 4666 
L 2547 0 
L 1831 0 
z
" transform="scale(0.015625)"/>
      <path id="DejaVuSans-6f" d="M 1959 3097 
Q 1497 3097 1228 2736 
Q 959 2375 959 1747 
Q 959 1119 1226 758 
Q 1494 397 1959 397 
Q 2419 397 2687 759 
Q 2956 1122 2956 1747 
Q 2956 2369 2687 2733 
Q 2419 3097 1959 3097 
z
M 1959 3584 
Q 2709 3584 3137 3096 
Q 3566 2609 3566 1747 
Q 3566 888 3137 398 
Q 2709 -91 1959 -91 
Q 1206 -91 779 398 
Q 353 888 353 1747 
Q 353 2609 779 3096 
Q 1206 3584 1959 3584 
z
" transform="scale(0.015625)"/>
      <path id="DejaVuSans-50" d="M 1259 4147 
L 1259 2394 
L 2053 2394 
Q 2494 2394 2734 2622 
Q 2975 2850 2975 3272 
Q 2975 3691 2734 3919 
Q 2494 4147 2053 4147 
L 1259 4147 
z
M 628 4666 
L 2053 4666 
Q 2838 4666 3239 4311 
Q 3641 3956 3641 3272 
Q 3641 2581 3239 2228 
Q 2838 1875 2053 1875 
L 1259 1875 
L 1259 0 
L 628 0 
L 628 4666 
z
" transform="scale(0.015625)"/>
      <path id="DejaVuSans-66" d="M 2375 4863 
L 2375 4384 
L 1825 4384 
Q 1516 4384 1395 4259 
Q 1275 4134 1275 3809 
L 1275 3500 
L 2222 3500 
L 2222 3053 
L 1275 3053 
L 1275 0 
L 697 0 
L 697 3053 
L 147 3053 
L 147 3500 
L 697 3500 
L 697 3744 
Q 697 4328 969 4595 
Q 1241 4863 1831 4863 
L 2375 4863 
z
" transform="scale(0.015625)"/>
      <path id="DejaVuSans-64" d="M 2906 2969 
L 2906 4863 
L 3481 4863 
L 3481 0 
L 2906 0 
L 2906 525 
Q 2725 213 2448 61 
Q 2172 -91 1784 -91 
Q 1150 -91 751 415 
Q 353 922 353 1747 
Q 353 2572 751 3078 
Q 1150 3584 1784 3584 
Q 2172 3584 2448 3432 
Q 2725 3281 2906 2969 
z
M 947 1747 
Q 947 1113 1208 752 
Q 1469 391 1925 391 
Q 2381 391 2643 752 
Q 2906 1113 2906 1747 
Q 2906 2381 2643 2742 
Q 2381 3103 1925 3103 
Q 1469 3103 1208 2742 
Q 947 2381 947 1747 
z
" transform="scale(0.015625)"/>
      <path id="DejaVuSans-62" d="M 3116 1747 
Q 3116 2381 2855 2742 
Q 2594 3103 2138 3103 
Q 1681 3103 1420 2742 
Q 1159 2381 1159 1747 
Q 1159 1113 1420 752 
Q 1681 391 2138 391 
Q 2594 391 2855 752 
Q 3116 1113 3116 1747 
z
M 1159 2969 
Q 1341 3281 1617 3432 
Q 1894 3584 2278 3584 
Q 2916 3584 3314 3078 
Q 3713 2572 3713 1747 
Q 3713 922 3314 415 
Q 2916 -91 2278 -91 
Q 1894 -91 1617 61 
Q 1341 213 1159 525 
L 1159 0 
L 581 0 
L 581 4863 
L 1159 4863 
L 1159 2969 
z
" transform="scale(0.015625)"/>
      <path id="DejaVuSans-4e" d="M 628 4666 
L 1478 4666 
L 3547 763 
L 3547 4666 
L 4159 4666 
L 4159 0 
L 3309 0 
L 1241 3903 
L 1241 0 
L 628 0 
L 628 4666 
z
" transform="scale(0.015625)"/>
      <path id="DejaVuSans-72" d="M 2631 2963 
Q 2534 3019 2420 3045 
Q 2306 3072 2169 3072 
Q 1681 3072 1420 2755 
Q 1159 2438 1159 1844 
L 1159 0 
L 581 0 
L 581 3500 
L 1159 3500 
L 1159 2956 
Q 1341 3275 1631 3429 
Q 1922 3584 2338 3584 
Q 2397 3584 2469 3576 
Q 2541 3569 2628 3553 
L 2631 2963 
z
" transform="scale(0.015625)"/>
      <path id="DejaVuSans-7a" d="M 353 3500 
L 3084 3500 
L 3084 2975 
L 922 459 
L 3084 459 
L 3084 0 
L 275 0 
L 275 525 
L 2438 3041 
L 353 3041 
L 353 3500 
z
" transform="scale(0.015625)"/>
      <path id="DejaVuSans-3a" d="M 750 794 
L 1409 794 
L 1409 0 
L 750 0 
L 750 794 
z
M 750 3309 
L 1409 3309 
L 1409 2516 
L 750 2516 
L 750 3309 
z
" transform="scale(0.015625)"/>
     </defs>
     <use xlink:href="#DejaVuSans-56"/>
     <use xlink:href="#DejaVuSans-69" transform="translate(66.158203 0)"/>
     <use xlink:href="#DejaVuSans-6f" transform="translate(93.941406 0)"/>
     <use xlink:href="#DejaVuSans-6c" transform="translate(155.123047 0)"/>
     <use xlink:href="#DejaVuSans-69" transform="translate(182.90625 0)"/>
     <use xlink:href="#DejaVuSans-6e" transform="translate(210.689453 0)"/>
     <use xlink:href="#DejaVuSans-20" transform="translate(274.068359 0)"/>
     <use xlink:href="#DejaVuSans-50" transform="translate(305.855469 0)"/>
     <use xlink:href="#DejaVuSans-6c" transform="translate(366.158203 0)"/>
     <use xlink:href="#DejaVuSans-6f" transform="translate(393.941406 0)"/>
     <use xlink:href="#DejaVuSans-74" transform="translate(455.123047 0)"/>
     <use xlink:href="#DejaVuSans-20" transform="translate(494.332031 0)"/>
     <use xlink:href="#DejaVuSans-6f" transform="translate(526.119141 0)"/>
     <use xlink:href="#DejaVuSans-66" transform="translate(587.300781 0)"/>
     <use xlink:href="#DejaVuSans-20" transform="translate(622.505859 0)"/>
     <use xlink:href="#DejaVuSans-64" transform="translate(654.292969 0)"/>
     <use xlink:href="#DejaVuSans-69" transform="translate(717.769531 0)"/>
     <use xlink:href="#DejaVuSans-73" transform="translate(745.552734 0)"/>
     <use xlink:href="#DejaVuSans-74" transform="translate(797.652344 0)"/>
     <use xlink:href="#DejaVuSans-61" transform="translate(836.861328 0)"/>
     <use xlink:href="#DejaVuSans-6e" transform="translate(898.140625 0)"/>
     <use xlink:href="#DejaVuSans-63" transform="translate(961.519531 0)"/>
     <use xlink:href="#DejaVuSans-65" transform="translate(1016.5 0)"/>
     <use xlink:href="#DejaVuSans-73" transform="translate(1078.023438 0)"/>
     <use xlink:href="#DejaVuSans-20" transform="translate(1130.123047 0)"/>
     <use xlink:href="#DejaVuSans-62" transform="translate(1161.910156 0)"/>
     <use xlink:href="#DejaVuSans-79" transform="translate(1225.386719 0)"/>
     <use xlink:href="#DejaVuSans-20" transform="translate(1284.566406 0)"/>
     <use xlink:href="#DejaVuSans-4c" transform="translate(1316.353516 0)"/>
     <use xlink:href="#DejaVuSans-65" transform="translate(1370.316406 0)"/>
     <use xlink:href="#DejaVuSans-76" transform="translate(1431.839844 0)"/>
     <use xlink:href="#DejaVuSans-65" transform="translate(1491.019531 0)"/>
     <use xlink:href="#DejaVuSans-6c" transform="translate(1552.542969 0)"/>
     <use xlink:href="#DejaVuSans-20" transform="translate(1580.326172 0)"/>
     <use xlink:href="#DejaVuSans-4f" transform="translate(1612.113281 0)"/>
     <use xlink:href="#DejaVuSans-6e" transform="translate(1690.824219 0)"/>
     <use xlink:href="#DejaVuSans-65" transform="translate(1754.203125 0)"/>
     <use xlink:href="#DejaVuSans-20" transform="translate(1815.726562 0)"/>
     <use xlink:href="#DejaVuSans-43" transform="translate(1847.513672 0)"/>
     <use xlink:href="#DejaVuSans-65" transform="translate(1917.337891 0)"/>
     <use xlink:href="#DejaVuSans-6c" transform="translate(1978.861328 0)"/>
     <use xlink:href="#DejaVuSans-6c" transform="translate(2006.644531 0)"/>
     <use xlink:href="#DejaVuSans-20" transform="translate(2034.427734 0)"/>
     <use xlink:href="#DejaVuSans-54" transform="translate(2066.214844 0)"/>
     <use xlink:href="#DejaVuSans-79" transform="translate(2111.673828 0)"/>
     <use xlink:href="#DejaVuSans-70" transform="translate(2170.853516 0)"/>
     <use xlink:href="#DejaVuSans-65" transform="translate(2234.330078 0)"/>
     <use xlink:href="#DejaVuSans-20" transform="translate(2295.853516 0)"/>
     <use xlink:href="#DejaVuSans-28" transform="translate(2327.640625 0)"/>
     <use xlink:href="#DejaVuSans-44" transform="translate(2366.654297 0)"/>
     <use xlink:href="#DejaVuSans-65" transform="translate(2443.65625 0)"/>
     <use xlink:href="#DejaVuSans-6e" transform="translate(2505.179688 0)"/>
     <use xlink:href="#DejaVuSans-73" transform="translate(2568.558594 0)"/>
     <use xlink:href="#DejaVuSans-69" transform="translate(2620.658203 0)"/>
     <use xlink:href="#DejaVuSans-74" transform="translate(2648.441406 0)"/>
     <use xlink:href="#DejaVuSans-79" transform="translate(2687.650391 0)"/>
     <use xlink:href="#DejaVuSans-20" transform="translate(2746.830078 0)"/>
     <use xlink:href="#DejaVuSans-4e" transform="translate(2778.617188 0)"/>
     <use xlink:href="#DejaVuSans-6f" transform="translate(2853.421875 0)"/>
     <use xlink:href="#DejaVuSans-72" transform="translate(2914.603516 0)"/>
     <use xlink:href="#DejaVuSans-6d" transform="translate(2953.966797 0)"/>
     <use xlink:href="#DejaVuSans-61" transform="translate(3051.378906 0)"/>
     <use xlink:href="#DejaVuSans-6c" transform="translate(3112.658203 0)"/>
     <use xlink:href="#DejaVuSans-69" transform="translate(3140.441406 0)"/>
     <use xlink:href="#DejaVuSans-7a" transform="translate(3168.224609 0)"/>
     <use xlink:href="#DejaVuSans-61" transform="translate(3220.714844 0)"/>
     <use xlink:href="#DejaVuSans-74" transform="translate(3281.994141 0)"/>
     <use xlink:href="#DejaVuSans-69" transform="translate(3321.203125 0)"/>
     <use xlink:href="#DejaVuSans-6f" transform="translate(3348.986328 0)"/>
     <use xlink:href="#DejaVuSans-6e" transform="translate(3410.167969 0)"/>
     <use xlink:href="#DejaVuSans-3a" transform="translate(3473.546875 0)"/>
     <use xlink:href="#DejaVuSans-20" transform="translate(3507.238281 0)"/>
     <use xlink:href="#DejaVuSans-61" transform="translate(3539.025391 0)"/>
     <use xlink:href="#DejaVuSans-72" transform="translate(3600.304688 0)"/>
     <use xlink:href="#DejaVuSans-65" transform="translate(3639.167969 0)"/>
     <use xlink:href="#DejaVuSans-61" transform="translate(3700.691406 0)"/>
     <use xlink:href="#DejaVuSans-29" transform="translate(3761.970703 0)"/>
    </g>
   </g>
   <g id="legend_1">
    <g id="patch_7">
     <path d="M 723.959625 62.598437 
L 727.959625 62.598437 
Q 729.959625 62.598437 729.959625 60.598437 
L 729.959625 56.598437 
Q 729.959625 54.598437 727.959625 54.598437 
L 723.959625 54.598437 
Q 721.959625 54.598437 721.959625 56.598437 
L 721.959625 60.598437 
Q 721.959625 62.598437 723.959625 62.598437 
z
" style="fill: #ffffff; opacity: 0.8; stroke: #cccccc; stroke-width: 0.8; stroke-linejoin: miter"/>
    </g>
   </g>
  </g>
 </g>
 <defs>
  <clipPath id="p65956d18f9">
   <rect x="78.265625" y="49.598437" width="656.694" height="307.164"/>
  </clipPath>
 </defs>
</svg>
