<?xml version="1.0" encoding="utf-8" standalone="no"?>
<!DOCTYPE svg PUBLIC "-//W3C//DTD SVG 1.1//EN"
  "http://www.w3.org/Graphics/SVG/1.1/DTD/svg11.dtd">
<svg xmlns:xlink="http://www.w3.org/1999/xlink" width="770.869625pt" height="482.479625pt" viewBox="0 0 770.869625 482.479625" xmlns="http://www.w3.org/2000/svg" version="1.1">
 <metadata>
  <rdf:RDF xmlns:dc="http://purl.org/dc/elements/1.1/" xmlns:cc="http://creativecommons.org/ns#" xmlns:rdf="http://www.w3.org/1999/02/22-rdf-syntax-ns#">
   <cc:Work>
    <dc:type rdf:resource="http://purl.org/dc/dcmitype/StillImage"/>
    <dc:date>2025-07-01T15:47:50.551056</dc:date>
    <dc:format>image/svg+xml</dc:format>
    <dc:creator>
     <cc:Agent>
      <dc:title>Matplotlib v3.10.3, https://matplotlib.org/</dc:title>
     </cc:Agent>
    </dc:creator>
   </cc:Work>
  </rdf:RDF>
 </metadata>
 <defs>
  <style type="text/css">*{stroke-linejoin: round; stroke-linecap: butt}</style>
 </defs>
 <g id="figure_1">
  <g id="patch_1">
   <path d="M 0 482.479625 
L 770.869625 482.479625 
L 770.869625 0 
L 0 0 
z
" style="fill: #ffffff"/>
  </g>
  <g id="axes_1">
   <g id="patch_2">
    <path d="M 78.265625 356.762438 
L 734.869625 356.762438 
L 734.869625 49.598437 
L 78.265625 49.598437 
z
" style="fill: #ffffff"/>
   </g>
   <g id="matplotlib.axis_1">
    <g id="xtick_1">
     <g id="text_1">
      <!-- unknown cell -->
      <g style="fill: #262626" transform="translate(190.459 432.085875) rotate(-90) scale(0.1 -0.1)">
       <defs>
        <path id="DejaVuSans-75" d="M 544 1381 
L 544 3500 
L 1119 3500 
L 1119 1403 
Q 1119 906 1312 657 
Q 1506 409 1894 409 
Q 2359 409 2629 706 
Q 2900 1003 2900 1516 
L 2900 3500 
L 3475 3500 
L 3475 0 
L 2900 0 
L 2900 538 
Q 2691 219 2414 64 
Q 2138 -91 1772 -91 
Q 1169 -91 856 284 
Q 544 659 544 1381 
z
M 1991 3584 
L 1991 3584 
z
" transform="scale(0.015625)"/>
        <path id="DejaVuSans-6e" d="M 3513 2113 
L 3513 0 
L 2938 0 
L 2938 2094 
Q 2938 2591 2744 2837 
Q 2550 3084 2163 3084 
Q 1697 3084 1428 2787 
Q 1159 2491 1159 1978 
L 1159 0 
L 581 0 
L 581 3500 
L 1159 3500 
L 1159 2956 
Q 1366 3272 1645 3428 
Q 1925 3584 2291 3584 
Q 2894 3584 3203 3211 
Q 3513 2838 3513 2113 
z
" transform="scale(0.015625)"/>
        <path id="DejaVuSans-6b" d="M 581 4863 
L 1159 4863 
L 1159 1991 
L 2875 3500 
L 3609 3500 
L 1753 1863 
L 3688 0 
L 2938 0 
L 1159 1709 
L 1159 0 
L 581 0 
L 581 4863 
z
" transform="scale(0.015625)"/>
        <path id="DejaVuSans-6f" d="M 1959 3097 
Q 1497 3097 1228 2736 
Q 959 2375 959 1747 
Q 959 1119 1226 758 
Q 1494 397 1959 397 
Q 2419 397 2687 759 
Q 2956 1122 2956 1747 
Q 2956 2369 2687 2733 
Q 2419 3097 1959 3097 
z
M 1959 3584 
Q 2709 3584 3137 3096 
Q 3566 2609 3566 1747 
Q 3566 888 3137 398 
Q 2709 -91 1959 -91 
Q 1206 -91 779 398 
Q 353 888 353 1747 
Q 353 2609 779 3096 
Q 1206 3584 1959 3584 
z
" transform="scale(0.015625)"/>
        <path id="DejaVuSans-77" d="M 269 3500 
L 844 3500 
L 1563 769 
L 2278 3500 
L 2956 3500 
L 3675 769 
L 4391 3500 
L 4966 3500 
L 4050 0 
L 3372 0 
L 2619 2869 
L 1863 0 
L 1184 0 
L 269 3500 
z
" transform="scale(0.015625)"/>
        <path id="DejaVuSans-20" transform="scale(0.015625)"/>
        <path id="DejaVuSans-63" d="M 3122 3366 
L 3122 2828 
Q 2878 2963 2633 3030 
Q 2388 3097 2138 3097 
Q 1578 3097 1268 2742 
Q 959 2388 959 1747 
Q 959 1106 1268 751 
Q 1578 397 2138 397 
Q 2388 397 2633 464 
Q 2878 531 3122 666 
L 3122 134 
Q 2881 22 2623 -34 
Q 2366 -91 2075 -91 
Q 1284 -91 818 406 
Q 353 903 353 1747 
Q 353 2603 823 3093 
Q 1294 3584 2113 3584 
Q 2378 3584 2631 3529 
Q 2884 3475 3122 3366 
z
" transform="scale(0.015625)"/>
        <path id="DejaVuSans-65" d="M 3597 1894 
L 3597 1613 
L 953 1613 
Q 991 1019 1311 708 
Q 1631 397 2203 397 
Q 2534 397 2845 478 
Q 3156 559 3463 722 
L 3463 178 
Q 3153 47 2828 -22 
Q 2503 -91 2169 -91 
Q 1331 -91 842 396 
Q 353 884 353 1716 
Q 353 2575 817 3079 
Q 1281 3584 2069 3584 
Q 2775 3584 3186 3129 
Q 3597 2675 3597 1894 
z
M 3022 2063 
Q 3016 2534 2758 2815 
Q 2500 3097 2075 3097 
Q 1594 3097 1305 2825 
Q 1016 2553 972 2059 
L 3022 2063 
z
" transform="scale(0.015625)"/>
        <path id="DejaVuSans-6c" d="M 603 4863 
L 1178 4863 
L 1178 0 
L 603 0 
L 603 4863 
z
" transform="scale(0.015625)"/>
       </defs>
       <use xlink:href="#DejaVuSans-75"/>
       <use xlink:href="#DejaVuSans-6e" transform="translate(63.378906 0)"/>
       <use xlink:href="#DejaVuSans-6b" transform="translate(126.757812 0)"/>
       <use xlink:href="#DejaVuSans-6e" transform="translate(184.667969 0)"/>
       <use xlink:href="#DejaVuSans-6f" transform="translate(248.046875 0)"/>
       <use xlink:href="#DejaVuSans-77" transform="translate(309.228516 0)"/>
       <use xlink:href="#DejaVuSans-6e" transform="translate(391.015625 0)"/>
       <use xlink:href="#DejaVuSans-20" transform="translate(454.394531 0)"/>
       <use xlink:href="#DejaVuSans-63" transform="translate(486.181641 0)"/>
       <use xlink:href="#DejaVuSans-65" transform="translate(541.162109 0)"/>
       <use xlink:href="#DejaVuSans-6c" transform="translate(602.685547 0)"/>
       <use xlink:href="#DejaVuSans-6c" transform="translate(630.46875 0)"/>
      </g>
     </g>
    </g>
    <g id="xtick_2">
     <g id="text_2">
      <!-- immune cell -->
      <g style="fill: #262626" transform="translate(409.327 427.735875) rotate(-90) scale(0.1 -0.1)">
       <defs>
        <path id="DejaVuSans-69" d="M 603 3500 
L 1178 3500 
L 1178 0 
L 603 0 
L 603 3500 
z
M 603 4863 
L 1178 4863 
L 1178 4134 
L 603 4134 
L 603 4863 
z
" transform="scale(0.015625)"/>
        <path id="DejaVuSans-6d" d="M 3328 2828 
Q 3544 3216 3844 3400 
Q 4144 3584 4550 3584 
Q 5097 3584 5394 3201 
Q 5691 2819 5691 2113 
L 5691 0 
L 5113 0 
L 5113 2094 
Q 5113 2597 4934 2840 
Q 4756 3084 4391 3084 
Q 3944 3084 3684 2787 
Q 3425 2491 3425 1978 
L 3425 0 
L 2847 0 
L 2847 2094 
Q 2847 2600 2669 2842 
Q 2491 3084 2119 3084 
Q 1678 3084 1418 2786 
Q 1159 2488 1159 1978 
L 1159 0 
L 581 0 
L 581 3500 
L 1159 3500 
L 1159 2956 
Q 1356 3278 1631 3431 
Q 1906 3584 2284 3584 
Q 2666 3584 2933 3390 
Q 3200 3197 3328 2828 
z
" transform="scale(0.015625)"/>
       </defs>
       <use xlink:href="#DejaVuSans-69"/>
       <use xlink:href="#DejaVuSans-6d" transform="translate(27.783203 0)"/>
       <use xlink:href="#DejaVuSans-6d" transform="translate(125.195312 0)"/>
       <use xlink:href="#DejaVuSans-75" transform="translate(222.607422 0)"/>
       <use xlink:href="#DejaVuSans-6e" transform="translate(285.986328 0)"/>
       <use xlink:href="#DejaVuSans-65" transform="translate(349.365234 0)"/>
       <use xlink:href="#DejaVuSans-20" transform="translate(410.888672 0)"/>
       <use xlink:href="#DejaVuSans-63" transform="translate(442.675781 0)"/>
       <use xlink:href="#DejaVuSans-65" transform="translate(497.65625 0)"/>
       <use xlink:href="#DejaVuSans-6c" transform="translate(559.179688 0)"/>
       <use xlink:href="#DejaVuSans-6c" transform="translate(586.962891 0)"/>
      </g>
     </g>
    </g>
    <g id="xtick_3">
     <g id="text_3">
      <!-- epithelial cell -->
      <g style="fill: #262626" transform="translate(628.195 432.8015) rotate(-90) scale(0.1 -0.1)">
       <defs>
        <path id="DejaVuSans-70" d="M 1159 525 
L 1159 -1331 
L 581 -1331 
L 581 3500 
L 1159 3500 
L 1159 2969 
Q 1341 3281 1617 3432 
Q 1894 3584 2278 3584 
Q 2916 3584 3314 3078 
Q 3713 2572 3713 1747 
Q 3713 922 3314 415 
Q 2916 -91 2278 -91 
Q 1894 -91 1617 61 
Q 1341 213 1159 525 
z
M 3116 1747 
Q 3116 2381 2855 2742 
Q 2594 3103 2138 3103 
Q 1681 3103 1420 2742 
Q 1159 2381 1159 1747 
Q 1159 1113 1420 752 
Q 1681 391 2138 391 
Q 2594 391 2855 752 
Q 3116 1113 3116 1747 
z
" transform="scale(0.015625)"/>
        <path id="DejaVuSans-74" d="M 1172 4494 
L 1172 3500 
L 2356 3500 
L 2356 3053 
L 1172 3053 
L 1172 1153 
Q 1172 725 1289 603 
Q 1406 481 1766 481 
L 2356 481 
L 2356 0 
L 1766 0 
Q 1100 0 847 248 
Q 594 497 594 1153 
L 594 3053 
L 172 3053 
L 172 3500 
L 594 3500 
L 594 4494 
L 1172 4494 
z
" transform="scale(0.015625)"/>
        <path id="DejaVuSans-68" d="M 3513 2113 
L 3513 0 
L 2938 0 
L 2938 2094 
Q 2938 2591 2744 2837 
Q 2550 3084 2163 3084 
Q 1697 3084 1428 2787 
Q 1159 2491 1159 1978 
L 1159 0 
L 581 0 
L 581 4863 
L 1159 4863 
L 1159 2956 
Q 1366 3272 1645 3428 
Q 1925 3584 2291 3584 
Q 2894 3584 3203 3211 
Q 3513 2838 3513 2113 
z
" transform="scale(0.015625)"/>
        <path id="DejaVuSans-61" d="M 2194 1759 
Q 1497 1759 1228 1600 
Q 959 1441 959 1056 
Q 959 750 1161 570 
Q 1363 391 1709 391 
Q 2188 391 2477 730 
Q 2766 1069 2766 1631 
L 2766 1759 
L 2194 1759 
z
M 3341 1997 
L 3341 0 
L 2766 0 
L 2766 531 
Q 2569 213 2275 61 
Q 1981 -91 1556 -91 
Q 1019 -91 701 211 
Q 384 513 384 1019 
Q 384 1609 779 1909 
Q 1175 2209 1959 2209 
L 2766 2209 
L 2766 2266 
Q 2766 2663 2505 2880 
Q 2244 3097 1772 3097 
Q 1472 3097 1187 3025 
Q 903 2953 641 2809 
L 641 3341 
Q 956 3463 1253 3523 
Q 1550 3584 1831 3584 
Q 2591 3584 2966 3190 
Q 3341 2797 3341 1997 
z
" transform="scale(0.015625)"/>
       </defs>
       <use xlink:href="#DejaVuSans-65"/>
       <use xlink:href="#DejaVuSans-70" transform="translate(61.523438 0)"/>
       <use xlink:href="#DejaVuSans-69" transform="translate(125 0)"/>
       <use xlink:href="#DejaVuSans-74" transform="translate(152.783203 0)"/>
       <use xlink:href="#DejaVuSans-68" transform="translate(191.992188 0)"/>
       <use xlink:href="#DejaVuSans-65" transform="translate(255.371094 0)"/>
       <use xlink:href="#DejaVuSans-6c" transform="translate(316.894531 0)"/>
       <use xlink:href="#DejaVuSans-69" transform="translate(344.677734 0)"/>
       <use xlink:href="#DejaVuSans-61" transform="translate(372.460938 0)"/>
       <use xlink:href="#DejaVuSans-6c" transform="translate(433.740234 0)"/>
       <use xlink:href="#DejaVuSans-20" transform="translate(461.523438 0)"/>
       <use xlink:href="#DejaVuSans-63" transform="translate(493.310547 0)"/>
       <use xlink:href="#DejaVuSans-65" transform="translate(548.291016 0)"/>
       <use xlink:href="#DejaVuSans-6c" transform="translate(609.814453 0)"/>
       <use xlink:href="#DejaVuSans-6c" transform="translate(637.597656 0)"/>
      </g>
     </g>
    </g>
    <g id="text_4">
     <!-- Level One Cell Type -->
     <g style="fill: #262626" transform="translate(357.590281 444.399938) scale(0.1 -0.1)">
      <defs>
       <path id="DejaVuSans-4c" d="M 628 4666 
L 1259 4666 
L 1259 531 
L 3531 531 
L 3531 0 
L 628 0 
L 628 4666 
z
" transform="scale(0.015625)"/>
       <path id="DejaVuSans-76" d="M 191 3500 
L 800 3500 
L 1894 563 
L 2988 3500 
L 3597 3500 
L 2284 0 
L 1503 0 
L 191 3500 
z
" transform="scale(0.015625)"/>
       <path id="DejaVuSans-4f" d="M 2522 4238 
Q 1834 4238 1429 3725 
Q 1025 3213 1025 2328 
Q 1025 1447 1429 934 
Q 1834 422 2522 422 
Q 3209 422 3611 934 
Q 4013 1447 4013 2328 
Q 4013 3213 3611 3725 
Q 3209 4238 2522 4238 
z
M 2522 4750 
Q 3503 4750 4090 4092 
Q 4678 3434 4678 2328 
Q 4678 1225 4090 567 
Q 3503 -91 2522 -91 
Q 1538 -91 948 565 
Q 359 1222 359 2328 
Q 359 3434 948 4092 
Q 1538 4750 2522 4750 
z
" transform="scale(0.015625)"/>
       <path id="DejaVuSans-43" d="M 4122 4306 
L 4122 3641 
Q 3803 3938 3442 4084 
Q 3081 4231 2675 4231 
Q 1875 4231 1450 3742 
Q 1025 3253 1025 2328 
Q 1025 1406 1450 917 
Q 1875 428 2675 428 
Q 3081 428 3442 575 
Q 3803 722 4122 1019 
L 4122 359 
Q 3791 134 3420 21 
Q 3050 -91 2638 -91 
Q 1578 -91 968 557 
Q 359 1206 359 2328 
Q 359 3453 968 4101 
Q 1578 4750 2638 4750 
Q 3056 4750 3426 4639 
Q 3797 4528 4122 4306 
z
" transform="scale(0.015625)"/>
       <path id="DejaVuSans-54" d="M -19 4666 
L 3928 4666 
L 3928 4134 
L 2272 4134 
L 2272 0 
L 1638 0 
L 1638 4134 
L -19 4134 
L -19 4666 
z
" transform="scale(0.015625)"/>
       <path id="DejaVuSans-79" d="M 2059 -325 
Q 1816 -950 1584 -1140 
Q 1353 -1331 966 -1331 
L 506 -1331 
L 506 -850 
L 844 -850 
Q 1081 -850 1212 -737 
Q 1344 -625 1503 -206 
L 1606 56 
L 191 3500 
L 800 3500 
L 1894 763 
L 2988 3500 
L 3597 3500 
L 2059 -325 
z
" transform="scale(0.015625)"/>
      </defs>
      <use xlink:href="#DejaVuSans-4c"/>
      <use xlink:href="#DejaVuSans-65" transform="translate(53.962891 0)"/>
      <use xlink:href="#DejaVuSans-76" transform="translate(115.486328 0)"/>
      <use xlink:href="#DejaVuSans-65" transform="translate(174.666016 0)"/>
      <use xlink:href="#DejaVuSans-6c" transform="translate(236.189453 0)"/>
      <use xlink:href="#DejaVuSans-20" transform="translate(263.972656 0)"/>
      <use xlink:href="#DejaVuSans-4f" transform="translate(295.759766 0)"/>
      <use xlink:href="#DejaVuSans-6e" transform="translate(374.470703 0)"/>
      <use xlink:href="#DejaVuSans-65" transform="translate(437.849609 0)"/>
      <use xlink:href="#DejaVuSans-20" transform="translate(499.373047 0)"/>
      <use xlink:href="#DejaVuSans-43" transform="translate(531.160156 0)"/>
      <use xlink:href="#DejaVuSans-65" transform="translate(600.984375 0)"/>
      <use xlink:href="#DejaVuSans-6c" transform="translate(662.507812 0)"/>
      <use xlink:href="#DejaVuSans-6c" transform="translate(690.291016 0)"/>
      <use xlink:href="#DejaVuSans-20" transform="translate(718.074219 0)"/>
      <use xlink:href="#DejaVuSans-54" transform="translate(749.861328 0)"/>
      <use xlink:href="#DejaVuSans-79" transform="translate(795.320312 0)"/>
      <use xlink:href="#DejaVuSans-70" transform="translate(854.5 0)"/>
      <use xlink:href="#DejaVuSans-65" transform="translate(917.976562 0)"/>
     </g>
    </g>
   </g>
   <g id="matplotlib.axis_2">
    <g id="ytick_1">
     <g id="line2d_1">
      <path d="M 78.265625 344.714133 
L 734.869625 344.714133 
" clip-path="url(#pdd5431ab4f)" style="fill: none; stroke: #cccccc; stroke-width: 2; stroke-linecap: round"/>
     </g>
     <g id="text_5">
      <!-- 0 -->
      <g style="fill: #262626" transform="translate(62.403125 348.513352) scale(0.1 -0.1)">
       <defs>
        <path id="DejaVuSans-30" d="M 2034 4250 
Q 1547 4250 1301 3770 
Q 1056 3291 1056 2328 
Q 1056 1369 1301 889 
Q 1547 409 2034 409 
Q 2525 409 2770 889 
Q 3016 1369 3016 2328 
Q 3016 3291 2770 3770 
Q 2525 4250 2034 4250 
z
M 2034 4750 
Q 2819 4750 3233 4129 
Q 3647 3509 3647 2328 
Q 3647 1150 3233 529 
Q 2819 -91 2034 -91 
Q 1250 -91 836 529 
Q 422 1150 422 2328 
Q 422 3509 836 4129 
Q 1250 4750 2034 4750 
z
" transform="scale(0.015625)"/>
       </defs>
       <use xlink:href="#DejaVuSans-30"/>
      </g>
     </g>
    </g>
    <g id="ytick_2">
     <g id="line2d_2">
      <path d="M 78.265625 310.439745 
L 734.869625 310.439745 
" clip-path="url(#pdd5431ab4f)" style="fill: none; stroke: #cccccc; stroke-width: 2; stroke-linecap: round"/>
     </g>
     <g id="text_6">
      <!-- 20 -->
      <g style="fill: #262626" transform="translate(56.040625 314.238964) scale(0.1 -0.1)">
       <defs>
        <path id="DejaVuSans-32" d="M 1228 531 
L 3431 531 
L 3431 0 
L 469 0 
L 469 531 
Q 828 903 1448 1529 
Q 2069 2156 2228 2338 
Q 2531 2678 2651 2914 
Q 2772 3150 2772 3378 
Q 2772 3750 2511 3984 
Q 2250 4219 1831 4219 
Q 1534 4219 1204 4116 
Q 875 4013 500 3803 
L 500 4441 
Q 881 4594 1212 4672 
Q 1544 4750 1819 4750 
Q 2544 4750 2975 4387 
Q 3406 4025 3406 3419 
Q 3406 3131 3298 2873 
Q 3191 2616 2906 2266 
Q 2828 2175 2409 1742 
Q 1991 1309 1228 531 
z
" transform="scale(0.015625)"/>
       </defs>
       <use xlink:href="#DejaVuSans-32"/>
       <use xlink:href="#DejaVuSans-30" transform="translate(63.623047 0)"/>
      </g>
     </g>
    </g>
    <g id="ytick_3">
     <g id="line2d_3">
      <path d="M 78.265625 276.165357 
L 734.869625 276.165357 
" clip-path="url(#pdd5431ab4f)" style="fill: none; stroke: #cccccc; stroke-width: 2; stroke-linecap: round"/>
     </g>
     <g id="text_7">
      <!-- 40 -->
      <g style="fill: #262626" transform="translate(56.040625 279.964575) scale(0.1 -0.1)">
       <defs>
        <path id="DejaVuSans-34" d="M 2419 4116 
L 825 1625 
L 2419 1625 
L 2419 4116 
z
M 2253 4666 
L 3047 4666 
L 3047 1625 
L 3713 1625 
L 3713 1100 
L 3047 1100 
L 3047 0 
L 2419 0 
L 2419 1100 
L 313 1100 
L 313 1709 
L 2253 4666 
z
" transform="scale(0.015625)"/>
       </defs>
       <use xlink:href="#DejaVuSans-34"/>
       <use xlink:href="#DejaVuSans-30" transform="translate(63.623047 0)"/>
      </g>
     </g>
    </g>
    <g id="ytick_4">
     <g id="line2d_4">
      <path d="M 78.265625 241.890968 
L 734.869625 241.890968 
" clip-path="url(#pdd5431ab4f)" style="fill: none; stroke: #cccccc; stroke-width: 2; stroke-linecap: round"/>
     </g>
     <g id="text_8">
      <!-- 60 -->
      <g style="fill: #262626" transform="translate(56.040625 245.690187) scale(0.1 -0.1)">
       <defs>
        <path id="DejaVuSans-36" d="M 2113 2584 
Q 1688 2584 1439 2293 
Q 1191 2003 1191 1497 
Q 1191 994 1439 701 
Q 1688 409 2113 409 
Q 2538 409 2786 701 
Q 3034 994 3034 1497 
Q 3034 2003 2786 2293 
Q 2538 2584 2113 2584 
z
M 3366 4563 
L 3366 3988 
Q 3128 4100 2886 4159 
Q 2644 4219 2406 4219 
Q 1781 4219 1451 3797 
Q 1122 3375 1075 2522 
Q 1259 2794 1537 2939 
Q 1816 3084 2150 3084 
Q 2853 3084 3261 2657 
Q 3669 2231 3669 1497 
Q 3669 778 3244 343 
Q 2819 -91 2113 -91 
Q 1303 -91 875 529 
Q 447 1150 447 2328 
Q 447 3434 972 4092 
Q 1497 4750 2381 4750 
Q 2619 4750 2861 4703 
Q 3103 4656 3366 4563 
z
" transform="scale(0.015625)"/>
       </defs>
       <use xlink:href="#DejaVuSans-36"/>
       <use xlink:href="#DejaVuSans-30" transform="translate(63.623047 0)"/>
      </g>
     </g>
    </g>
    <g id="ytick_5">
     <g id="line2d_5">
      <path d="M 78.265625 207.61658 
L 734.869625 207.61658 
" clip-path="url(#pdd5431ab4f)" style="fill: none; stroke: #cccccc; stroke-width: 2; stroke-linecap: round"/>
     </g>
     <g id="text_9">
      <!-- 80 -->
      <g style="fill: #262626" transform="translate(56.040625 211.415799) scale(0.1 -0.1)">
       <defs>
        <path id="DejaVuSans-38" d="M 2034 2216 
Q 1584 2216 1326 1975 
Q 1069 1734 1069 1313 
Q 1069 891 1326 650 
Q 1584 409 2034 409 
Q 2484 409 2743 651 
Q 3003 894 3003 1313 
Q 3003 1734 2745 1975 
Q 2488 2216 2034 2216 
z
M 1403 2484 
Q 997 2584 770 2862 
Q 544 3141 544 3541 
Q 544 4100 942 4425 
Q 1341 4750 2034 4750 
Q 2731 4750 3128 4425 
Q 3525 4100 3525 3541 
Q 3525 3141 3298 2862 
Q 3072 2584 2669 2484 
Q 3125 2378 3379 2068 
Q 3634 1759 3634 1313 
Q 3634 634 3220 271 
Q 2806 -91 2034 -91 
Q 1263 -91 848 271 
Q 434 634 434 1313 
Q 434 1759 690 2068 
Q 947 2378 1403 2484 
z
M 1172 3481 
Q 1172 3119 1398 2916 
Q 1625 2713 2034 2713 
Q 2441 2713 2670 2916 
Q 2900 3119 2900 3481 
Q 2900 3844 2670 4047 
Q 2441 4250 2034 4250 
Q 1625 4250 1398 4047 
Q 1172 3844 1172 3481 
z
" transform="scale(0.015625)"/>
       </defs>
       <use xlink:href="#DejaVuSans-38"/>
       <use xlink:href="#DejaVuSans-30" transform="translate(63.623047 0)"/>
      </g>
     </g>
    </g>
    <g id="ytick_6">
     <g id="line2d_6">
      <path d="M 78.265625 173.342191 
L 734.869625 173.342191 
" clip-path="url(#pdd5431ab4f)" style="fill: none; stroke: #cccccc; stroke-width: 2; stroke-linecap: round"/>
     </g>
     <g id="text_10">
      <!-- 100 -->
      <g style="fill: #262626" transform="translate(49.678125 177.14141) scale(0.1 -0.1)">
       <defs>
        <path id="DejaVuSans-31" d="M 794 531 
L 1825 531 
L 1825 4091 
L 703 3866 
L 703 4441 
L 1819 4666 
L 2450 4666 
L 2450 531 
L 3481 531 
L 3481 0 
L 794 0 
L 794 531 
z
" transform="scale(0.015625)"/>
       </defs>
       <use xlink:href="#DejaVuSans-31"/>
       <use xlink:href="#DejaVuSans-30" transform="translate(63.623047 0)"/>
       <use xlink:href="#DejaVuSans-30" transform="translate(127.246094 0)"/>
      </g>
     </g>
    </g>
    <g id="ytick_7">
     <g id="line2d_7">
      <path d="M 78.265625 139.067803 
L 734.869625 139.067803 
" clip-path="url(#pdd5431ab4f)" style="fill: none; stroke: #cccccc; stroke-width: 2; stroke-linecap: round"/>
     </g>
     <g id="text_11">
      <!-- 120 -->
      <g style="fill: #262626" transform="translate(49.678125 142.867022) scale(0.1 -0.1)">
       <use xlink:href="#DejaVuSans-31"/>
       <use xlink:href="#DejaVuSans-32" transform="translate(63.623047 0)"/>
       <use xlink:href="#DejaVuSans-30" transform="translate(127.246094 0)"/>
      </g>
     </g>
    </g>
    <g id="ytick_8">
     <g id="line2d_8">
      <path d="M 78.265625 104.793415 
L 734.869625 104.793415 
" clip-path="url(#pdd5431ab4f)" style="fill: none; stroke: #cccccc; stroke-width: 2; stroke-linecap: round"/>
     </g>
     <g id="text_12">
      <!-- 140 -->
      <g style="fill: #262626" transform="translate(49.678125 108.592633) scale(0.1 -0.1)">
       <use xlink:href="#DejaVuSans-31"/>
       <use xlink:href="#DejaVuSans-34" transform="translate(63.623047 0)"/>
       <use xlink:href="#DejaVuSans-30" transform="translate(127.246094 0)"/>
      </g>
     </g>
    </g>
    <g id="ytick_9">
     <g id="line2d_9">
      <path d="M 78.265625 70.519026 
L 734.869625 70.519026 
" clip-path="url(#pdd5431ab4f)" style="fill: none; stroke: #cccccc; stroke-width: 2; stroke-linecap: round"/>
     </g>
     <g id="text_13">
      <!-- 160 -->
      <g style="fill: #262626" transform="translate(49.678125 74.318245) scale(0.1 -0.1)">
       <use xlink:href="#DejaVuSans-31"/>
       <use xlink:href="#DejaVuSans-36" transform="translate(63.623047 0)"/>
       <use xlink:href="#DejaVuSans-30" transform="translate(127.246094 0)"/>
      </g>
     </g>
    </g>
    <g id="text_14">
     <!-- Distance (μm) -->
     <g style="fill: #262626" transform="translate(43.598437 238.585125) rotate(-90) scale(0.1 -0.1)">
      <defs>
       <path id="DejaVuSans-44" d="M 1259 4147 
L 1259 519 
L 2022 519 
Q 2988 519 3436 956 
Q 3884 1394 3884 2338 
Q 3884 3275 3436 3711 
Q 2988 4147 2022 4147 
L 1259 4147 
z
M 628 4666 
L 1925 4666 
Q 3281 4666 3915 4102 
Q 4550 3538 4550 2338 
Q 4550 1131 3912 565 
Q 3275 0 1925 0 
L 628 0 
L 628 4666 
z
" transform="scale(0.015625)"/>
       <path id="DejaVuSans-73" d="M 2834 3397 
L 2834 2853 
Q 2591 2978 2328 3040 
Q 2066 3103 1784 3103 
Q 1356 3103 1142 2972 
Q 928 2841 928 2578 
Q 928 2378 1081 2264 
Q 1234 2150 1697 2047 
L 1894 2003 
Q 2506 1872 2764 1633 
Q 3022 1394 3022 966 
Q 3022 478 2636 193 
Q 2250 -91 1575 -91 
Q 1294 -91 989 -36 
Q 684 19 347 128 
L 347 722 
Q 666 556 975 473 
Q 1284 391 1588 391 
Q 1994 391 2212 530 
Q 2431 669 2431 922 
Q 2431 1156 2273 1281 
Q 2116 1406 1581 1522 
L 1381 1569 
Q 847 1681 609 1914 
Q 372 2147 372 2553 
Q 372 3047 722 3315 
Q 1072 3584 1716 3584 
Q 2034 3584 2315 3537 
Q 2597 3491 2834 3397 
z
" transform="scale(0.015625)"/>
       <path id="DejaVuSans-28" d="M 1984 4856 
Q 1566 4138 1362 3434 
Q 1159 2731 1159 2009 
Q 1159 1288 1364 580 
Q 1569 -128 1984 -844 
L 1484 -844 
Q 1016 -109 783 600 
Q 550 1309 550 2009 
Q 550 2706 781 3412 
Q 1013 4119 1484 4856 
L 1984 4856 
z
" transform="scale(0.015625)"/>
       <path id="DejaVuSans-3bc" d="M 544 -1331 
L 544 3500 
L 1119 3500 
L 1119 1325 
Q 1119 872 1334 640 
Q 1550 409 1972 409 
Q 2434 409 2667 671 
Q 2900 934 2900 1459 
L 2900 3500 
L 3475 3500 
L 3475 806 
Q 3475 619 3529 530 
Q 3584 441 3700 441 
Q 3728 441 3778 458 
Q 3828 475 3916 513 
L 3916 50 
Q 3788 -22 3673 -56 
Q 3559 -91 3450 -91 
Q 3234 -91 3106 31 
Q 2978 153 2931 403 
Q 2775 156 2548 32 
Q 2322 -91 2016 -91 
Q 1697 -91 1473 31 
Q 1250 153 1119 397 
L 1119 -1331 
L 544 -1331 
z
" transform="scale(0.015625)"/>
       <path id="DejaVuSans-29" d="M 513 4856 
L 1013 4856 
Q 1481 4119 1714 3412 
Q 1947 2706 1947 2009 
Q 1947 1309 1714 600 
Q 1481 -109 1013 -844 
L 513 -844 
Q 928 -128 1133 580 
Q 1338 1288 1338 2009 
Q 1338 2731 1133 3434 
Q 928 4138 513 4856 
z
" transform="scale(0.015625)"/>
      </defs>
      <use xlink:href="#DejaVuSans-44"/>
      <use xlink:href="#DejaVuSans-69" transform="translate(77.001953 0)"/>
      <use xlink:href="#DejaVuSans-73" transform="translate(104.785156 0)"/>
      <use xlink:href="#DejaVuSans-74" transform="translate(156.884766 0)"/>
      <use xlink:href="#DejaVuSans-61" transform="translate(196.09375 0)"/>
      <use xlink:href="#DejaVuSans-6e" transform="translate(257.373047 0)"/>
      <use xlink:href="#DejaVuSans-63" transform="translate(320.751953 0)"/>
      <use xlink:href="#DejaVuSans-65" transform="translate(375.732422 0)"/>
      <use xlink:href="#DejaVuSans-20" transform="translate(437.255859 0)"/>
      <use xlink:href="#DejaVuSans-28" transform="translate(469.042969 0)"/>
      <use xlink:href="#DejaVuSans-3bc" transform="translate(508.056641 0)"/>
      <use xlink:href="#DejaVuSans-6d" transform="translate(571.679688 0)"/>
      <use xlink:href="#DejaVuSans-29" transform="translate(669.091797 0)"/>
     </g>
    </g>
   </g>
   <g id="FillBetweenPolyCollection_1">
    <defs>
     <path id="m9f789eba26" d="M 193.103548 -139.679187 
L 182.295702 -139.679187 
L 179.3476 -142.499794 
L 176.079029 -145.3204 
L 172.927337 -148.141006 
L 170.246033 -150.961612 
L 168.181139 -153.782218 
L 166.679815 -156.602824 
L 165.59093 -159.42343 
L 164.76823 -162.244036 
L 164.118871 -165.064642 
L 163.598527 -167.885248 
L 163.187594 -170.705854 
L 162.878274 -173.52646 
L 162.67531 -176.347066 
L 162.593126 -179.167672 
L 162.639391 -181.988278 
L 162.797563 -184.808884 
L 163.027563 -187.629491 
L 163.286085 -190.450097 
L 163.550169 -193.270703 
L 163.828745 -196.091309 
L 164.157557 -198.911915 
L 164.579997 -201.732521 
L 165.121946 -204.553127 
L 165.774974 -207.373733 
L 166.49968 -210.194339 
L 167.246594 -213.014945 
L 167.979938 -215.835551 
L 168.690324 -218.656157 
L 169.391113 -221.476763 
L 170.102098 -224.297369 
L 170.831671 -227.117975 
L 171.570139 -229.938581 
L 172.297462 -232.759187 
L 172.99614 -235.579794 
L 173.658191 -238.4004 
L 174.284386 -241.221006 
L 174.881294 -244.041612 
L 175.459564 -246.862218 
L 176.031872 -249.682824 
L 176.608877 -252.50343 
L 177.194702 -255.324036 
L 177.784165 -258.144642 
L 178.36285 -260.965248 
L 178.91137 -263.785854 
L 179.414364 -266.60646 
L 179.869343 -269.427066 
L 180.28651 -272.247672 
L 180.677344 -275.068278 
L 181.042433 -277.888884 
L 181.371812 -280.709491 
L 181.657912 -283.530097 
L 181.907209 -286.350703 
L 182.138588 -289.171309 
L 182.370948 -291.991915 
L 182.611743 -294.812521 
L 182.854001 -297.633127 
L 183.080972 -300.453733 
L 183.274554 -303.274339 
L 183.424121 -306.094945 
L 183.531757 -308.915551 
L 183.610405 -311.736157 
L 183.676052 -314.556763 
L 183.740344 -317.377369 
L 183.809302 -320.197975 
L 183.887192 -323.018581 
L 183.979649 -325.839188 
L 184.092489 -328.659794 
L 184.228464 -331.4804 
L 184.385717 -334.301006 
L 184.55836 -337.121612 
L 184.737566 -339.942218 
L 184.913209 -342.762824 
L 185.076858 -345.58343 
L 185.224561 -348.404036 
L 185.356673 -351.224642 
L 185.474983 -354.045248 
L 185.580536 -356.865854 
L 185.674323 -359.68646 
L 185.759258 -362.507066 
L 185.84054 -365.327672 
L 185.923771 -368.148278 
L 186.012812 -370.968884 
L 186.109059 -373.789491 
L 186.211651 -376.610097 
L 186.317558 -379.430703 
L 186.422028 -382.251309 
L 186.520353 -385.071915 
L 186.610145 -387.892521 
L 186.692063 -390.713127 
L 186.768535 -393.533733 
L 186.84229 -396.354339 
L 186.916384 -399.174945 
L 186.994823 -401.995551 
L 187.081582 -404.816157 
L 187.177854 -407.636763 
L 187.280125 -410.457369 
L 187.38114 -413.277975 
L 187.472918 -416.098581 
L 187.549469 -418.919188 
L 187.849781 -418.919188 
L 187.849781 -418.919188 
L 187.926332 -416.098581 
L 188.01811 -413.277975 
L 188.119125 -410.457369 
L 188.221396 -407.636763 
L 188.317668 -404.816157 
L 188.404427 -401.995551 
L 188.482866 -399.174945 
L 188.55696 -396.354339 
L 188.630715 -393.533733 
L 188.707187 -390.713127 
L 188.789105 -387.892521 
L 188.878897 -385.071915 
L 188.977222 -382.251309 
L 189.081692 -379.430703 
L 189.187599 -376.610097 
L 189.290191 -373.789491 
L 189.386438 -370.968884 
L 189.475479 -368.148278 
L 189.55871 -365.327672 
L 189.639992 -362.507066 
L 189.724927 -359.68646 
L 189.818714 -356.865854 
L 189.924267 -354.045248 
L 190.042577 -351.224642 
L 190.174689 -348.404036 
L 190.322392 -345.58343 
L 190.486041 -342.762824 
L 190.661684 -339.942218 
L 190.84089 -337.121612 
L 191.013533 -334.301006 
L 191.170786 -331.4804 
L 191.306761 -328.659794 
L 191.419601 -325.839188 
L 191.512058 -323.018581 
L 191.589948 -320.197975 
L 191.658906 -317.377369 
L 191.723198 -314.556763 
L 191.788845 -311.736157 
L 191.867493 -308.915551 
L 191.975129 -306.094945 
L 192.124696 -303.274339 
L 192.318278 -300.453733 
L 192.545249 -297.633127 
L 192.787507 -294.812521 
L 193.028302 -291.991915 
L 193.260662 -289.171309 
L 193.492041 -286.350703 
L 193.741338 -283.530097 
L 194.027438 -280.709491 
L 194.356817 -277.888884 
L 194.721906 -275.068278 
L 195.11274 -272.247672 
L 195.529907 -269.427066 
L 195.984886 -266.60646 
L 196.48788 -263.785854 
L 197.0364 -260.965248 
L 197.615085 -258.144642 
L 198.204548 -255.324036 
L 198.790373 -252.50343 
L 199.367378 -249.682824 
L 199.939686 -246.862218 
L 200.517956 -244.041612 
L 201.114864 -241.221006 
L 201.741059 -238.4004 
L 202.40311 -235.579794 
L 203.101788 -232.759187 
L 203.829111 -229.938581 
L 204.567579 -227.117975 
L 205.297152 -224.297369 
L 206.008137 -221.476763 
L 206.708926 -218.656157 
L 207.419312 -215.835551 
L 208.152656 -213.014945 
L 208.89957 -210.194339 
L 209.624276 -207.373733 
L 210.277304 -204.553127 
L 210.819253 -201.732521 
L 211.241693 -198.911915 
L 211.570505 -196.091309 
L 211.849081 -193.270703 
L 212.113165 -190.450097 
L 212.371687 -187.629491 
L 212.601687 -184.808884 
L 212.759859 -181.988278 
L 212.806124 -179.167672 
L 212.72394 -176.347066 
L 212.520976 -173.52646 
L 212.211656 -170.705854 
L 211.800723 -167.885248 
L 211.280379 -165.064642 
L 210.63102 -162.244036 
L 209.80832 -159.42343 
L 208.719435 -156.602824 
L 207.218111 -153.782218 
L 205.153217 -150.961612 
L 202.471913 -148.141006 
L 199.320221 -145.3204 
L 196.05165 -142.499794 
L 193.103548 -139.679187 
z
" style="stroke: #636363; stroke-opacity: 0.9; stroke-width: 1.25"/>
    </defs>
    <g clip-path="url(#pdd5431ab4f)">
     <use xlink:href="#m9f789eba26" x="0" y="482.479625" style="fill: #e49467; fill-opacity: 0.9; stroke: #636363; stroke-opacity: 0.9; stroke-width: 1.25"/>
    </g>
   </g>
   <g id="FillBetweenPolyCollection_2">
    <defs>
     <path id="m6be3940eba" d="M 425.834122 -140.91362 
L 387.301128 -140.91362 
L 365.118333 -143.610924 
L 341.192145 -146.308228 
L 324.815275 -149.005531 
L 319.020425 -151.702835 
L 321.030058 -154.400138 
L 326.888444 -157.097442 
L 334.184902 -159.794746 
L 342.194311 -162.492049 
L 350.419896 -165.189353 
L 357.884659 -167.886657 
L 364.262209 -170.58396 
L 370.094434 -173.281264 
L 375.660595 -175.978568 
L 380.57044 -178.675871 
L 384.478398 -181.373175 
L 387.612184 -184.070479 
L 390.235551 -186.767782 
L 392.339209 -189.465086 
L 394.00597 -192.162389 
L 395.399258 -194.859693 
L 396.61211 -197.556997 
L 397.701733 -200.2543 
L 398.733554 -202.951604 
L 399.712721 -205.648908 
L 400.532605 -208.346211 
L 401.104047 -211.043515 
L 401.445161 -213.740819 
L 401.698481 -216.438122 
L 402.048269 -219.135426 
L 402.503343 -221.83273 
L 402.920778 -224.530033 
L 403.272407 -227.227337 
L 403.643692 -229.92464 
L 404.033034 -232.621944 
L 404.356427 -235.319248 
L 404.553975 -238.016551 
L 404.662689 -240.713855 
L 404.794614 -243.411159 
L 405.022579 -246.108462 
L 405.300889 -248.805766 
L 405.524062 -251.50307 
L 405.659954 -254.200373 
L 405.741862 -256.897677 
L 405.812484 -259.594981 
L 405.898741 -262.292284 
L 405.991838 -264.989588 
L 406.055 -267.686891 
L 406.050367 -270.384195 
L 405.992339 -273.081499 
L 405.944399 -275.778802 
L 405.924426 -278.476106 
L 405.920579 -281.17341 
L 405.944975 -283.870713 
L 405.979374 -286.568017 
L 405.986938 -289.265321 
L 405.992162 -291.962624 
L 406.043293 -294.659928 
L 406.119589 -297.357232 
L 406.177846 -300.054535 
L 406.229204 -302.751839 
L 406.286115 -305.449142 
L 406.315663 -308.146446 
L 406.290931 -310.84375 
L 406.237745 -313.541053 
L 406.213737 -316.238357 
L 406.239819 -318.935661 
L 406.287891 -321.632964 
L 406.337834 -324.330268 
L 406.381022 -327.027572 
L 406.395115 -329.724875 
L 406.384274 -332.422179 
L 406.374167 -335.119483 
L 406.354073 -337.816786 
L 406.305367 -340.51409 
L 406.255951 -343.211393 
L 406.265048 -345.908697 
L 406.350242 -348.606001 
L 406.454415 -351.303304 
L 406.517624 -354.000608 
L 406.537143 -356.697912 
L 406.537168 -359.395215 
L 406.530637 -362.092519 
L 406.523733 -364.789823 
L 406.52319 -367.487126 
L 406.526322 -370.18443 
L 406.519668 -372.881734 
L 406.495929 -375.579037 
L 406.472035 -378.276341 
L 406.473148 -380.973644 
L 406.488544 -383.670948 
L 406.486893 -386.368252 
L 406.47099 -389.065555 
L 406.471151 -391.762859 
L 406.498638 -394.460163 
L 406.53375 -397.157466 
L 406.553681 -399.85477 
L 406.553079 -402.552074 
L 406.541853 -405.249377 
L 406.537755 -407.946681 
L 406.597495 -407.946681 
L 406.597495 -407.946681 
L 406.593397 -405.249377 
L 406.582171 -402.552074 
L 406.581569 -399.85477 
L 406.6015 -397.157466 
L 406.636612 -394.460163 
L 406.664099 -391.762859 
L 406.66426 -389.065555 
L 406.648357 -386.368252 
L 406.646706 -383.670948 
L 406.662102 -380.973644 
L 406.663215 -378.276341 
L 406.639321 -375.579037 
L 406.615582 -372.881734 
L 406.608928 -370.18443 
L 406.61206 -367.487126 
L 406.611517 -364.789823 
L 406.604613 -362.092519 
L 406.598082 -359.395215 
L 406.598107 -356.697912 
L 406.617626 -354.000608 
L 406.680835 -351.303304 
L 406.785008 -348.606001 
L 406.870202 -345.908697 
L 406.879299 -343.211393 
L 406.829883 -340.51409 
L 406.781177 -337.816786 
L 406.761083 -335.119483 
L 406.750976 -332.422179 
L 406.740135 -329.724875 
L 406.754228 -327.027572 
L 406.797416 -324.330268 
L 406.847359 -321.632964 
L 406.895431 -318.935661 
L 406.921513 -316.238357 
L 406.897505 -313.541053 
L 406.844319 -310.84375 
L 406.819587 -308.146446 
L 406.849135 -305.449142 
L 406.906046 -302.751839 
L 406.957404 -300.054535 
L 407.015661 -297.357232 
L 407.091957 -294.659928 
L 407.143088 -291.962624 
L 407.148312 -289.265321 
L 407.155876 -286.568017 
L 407.190275 -283.870713 
L 407.214671 -281.17341 
L 407.210824 -278.476106 
L 407.190851 -275.778802 
L 407.142911 -273.081499 
L 407.084883 -270.384195 
L 407.08025 -267.686891 
L 407.143412 -264.989588 
L 407.236509 -262.292284 
L 407.322766 -259.594981 
L 407.393388 -256.897677 
L 407.475296 -254.200373 
L 407.611188 -251.50307 
L 407.834361 -248.805766 
L 408.112671 -246.108462 
L 408.340636 -243.411159 
L 408.472561 -240.713855 
L 408.581275 -238.016551 
L 408.778823 -235.319248 
L 409.102216 -232.621944 
L 409.491558 -229.92464 
L 409.862843 -227.227337 
L 410.214472 -224.530033 
L 410.631907 -221.83273 
L 411.086981 -219.135426 
L 411.436769 -216.438122 
L 411.690089 -213.740819 
L 412.031203 -211.043515 
L 412.602645 -208.346211 
L 413.422529 -205.648908 
L 414.401696 -202.951604 
L 415.433517 -200.2543 
L 416.52314 -197.556997 
L 417.735992 -194.859693 
L 419.12928 -192.162389 
L 420.796041 -189.465086 
L 422.899699 -186.767782 
L 425.523066 -184.070479 
L 428.656852 -181.373175 
L 432.56481 -178.675871 
L 437.474655 -175.978568 
L 443.040816 -173.281264 
L 448.873041 -170.58396 
L 455.250591 -167.886657 
L 462.715354 -165.189353 
L 470.940939 -162.492049 
L 478.950348 -159.794746 
L 486.246806 -157.097442 
L 492.105192 -154.400138 
L 494.114825 -151.702835 
L 488.319975 -149.005531 
L 471.943105 -146.308228 
L 448.016917 -143.610924 
L 425.834122 -140.91362 
z
" style="stroke: #636363; stroke-opacity: 0.9; stroke-width: 1.25"/>
    </defs>
    <g clip-path="url(#pdd5431ab4f)">
     <use xlink:href="#m6be3940eba" x="0" y="482.479625" style="fill: #f7f7c6; fill-opacity: 0.9; stroke: #636363; stroke-opacity: 0.9; stroke-width: 1.25"/>
    </g>
   </g>
   <g id="FillBetweenPolyCollection_3">
    <defs>
     <path id="m58592064e6" d="M 627.516067 -142.829479 
L 623.355183 -142.829479 
L 622.934109 -144.541209 
L 622.51422 -146.25294 
L 622.10942 -147.96467 
L 621.727474 -149.6764 
L 621.367259 -151.388131 
L 621.01658 -153.099861 
L 620.6506 -154.811592 
L 620.231023 -156.523322 
L 619.706369 -158.235052 
L 619.013937 -159.946783 
L 618.084112 -161.658513 
L 616.847449 -163.370243 
L 615.244342 -165.081974 
L 613.236127 -166.793704 
L 610.815422 -168.505434 
L 608.012838 -170.217165 
L 604.897382 -171.928895 
L 601.569165 -173.640626 
L 598.145249 -175.352356 
L 594.741849 -177.064086 
L 591.457644 -178.775817 
L 588.362884 -180.487547 
L 585.497188 -182.199277 
L 582.876078 -183.911008 
L 580.503457 -185.622738 
L 578.385533 -187.334468 
L 576.541566 -189.046199 
L 575.008245 -190.757929 
L 573.83672 -192.46966 
L 573.083575 -194.18139 
L 572.798583 -195.89312 
L 573.012574 -197.604851 
L 573.728368 -199.316581 
L 574.916664 -201.028311 
L 576.517545 -202.740042 
L 578.447051 -204.451772 
L 580.607309 -206.163502 
L 582.89818 -207.875233 
L 585.228262 -209.586963 
L 587.523556 -211.298693 
L 589.732788 -213.010424 
L 591.829114 -214.722154 
L 593.808408 -216.433885 
L 595.684625 -218.145615 
L 597.482942 -219.857345 
L 599.231759 -221.569076 
L 600.955016 -223.280806 
L 602.66639 -224.992536 
L 604.366592 -226.704267 
L 606.044164 -228.415997 
L 607.679209 -230.127727 
L 609.248787 -231.839458 
L 610.732456 -233.551188 
L 612.116651 -235.262919 
L 613.396999 -236.974649 
L 614.578206 -238.686379 
L 615.671686 -240.39811 
L 616.691616 -242.10984 
L 617.650567 -243.82157 
L 618.556049 -245.533301 
L 619.409021 -247.245031 
L 620.204726 -248.956761 
L 620.93533 -250.668492 
L 621.593184 -252.380222 
L 622.173442 -254.091953 
L 622.675201 -255.803683 
L 623.101114 -257.515413 
L 623.456079 -259.227144 
L 623.745867 -260.938874 
L 623.976348 -262.650604 
L 624.153446 -264.362335 
L 624.283437 -266.074065 
L 624.372931 -267.785795 
L 624.428016 -269.497526 
L 624.452493 -271.209256 
L 624.445714 -272.920986 
L 624.400971 -274.632717 
L 624.305438 -276.344447 
L 624.142282 -278.056178 
L 623.89488 -279.767908 
L 623.552244 -281.479638 
L 623.114273 -283.191369 
L 622.595303 -284.903099 
L 622.024865 -286.614829 
L 621.44529 -288.32656 
L 620.906607 -290.03829 
L 620.459765 -291.75002 
L 620.149468 -293.461751 
L 620.007833 -295.173481 
L 620.04984 -296.885212 
L 620.271286 -298.596942 
L 620.649605 -300.308672 
L 621.147556 -302.020403 
L 621.719179 -303.732133 
L 622.316892 -305.443863 
L 622.898209 -307.155594 
L 623.430671 -308.867324 
L 623.894109 -310.579054 
L 624.280217 -312.290785 
L 626.591033 -312.290785 
L 626.591033 -312.290785 
L 626.977141 -310.579054 
L 627.440579 -308.867324 
L 627.973041 -307.155594 
L 628.554358 -305.443863 
L 629.152071 -303.732133 
L 629.723694 -302.020403 
L 630.221645 -300.308672 
L 630.599964 -298.596942 
L 630.82141 -296.885212 
L 630.863417 -295.173481 
L 630.721782 -293.461751 
L 630.411485 -291.75002 
L 629.964643 -290.03829 
L 629.42596 -288.32656 
L 628.846385 -286.614829 
L 628.275947 -284.903099 
L 627.756977 -283.191369 
L 627.319006 -281.479638 
L 626.97637 -279.767908 
L 626.728968 -278.056178 
L 626.565812 -276.344447 
L 626.470279 -274.632717 
L 626.425536 -272.920986 
L 626.418757 -271.209256 
L 626.443234 -269.497526 
L 626.498319 -267.785795 
L 626.587813 -266.074065 
L 626.717804 -264.362335 
L 626.894902 -262.650604 
L 627.125383 -260.938874 
L 627.415171 -259.227144 
L 627.770136 -257.515413 
L 628.196049 -255.803683 
L 628.697808 -254.091953 
L 629.278066 -252.380222 
L 629.93592 -250.668492 
L 630.666524 -248.956761 
L 631.462229 -247.245031 
L 632.315201 -245.533301 
L 633.220683 -243.82157 
L 634.179634 -242.10984 
L 635.199564 -240.39811 
L 636.293044 -238.686379 
L 637.474251 -236.974649 
L 638.754599 -235.262919 
L 640.138794 -233.551188 
L 641.622463 -231.839458 
L 643.192041 -230.127727 
L 644.827086 -228.415997 
L 646.504658 -226.704267 
L 648.20486 -224.992536 
L 649.916234 -223.280806 
L 651.639491 -221.569076 
L 653.388308 -219.857345 
L 655.186625 -218.145615 
L 657.062842 -216.433885 
L 659.042136 -214.722154 
L 661.138462 -213.010424 
L 663.347694 -211.298693 
L 665.642988 -209.586963 
L 667.97307 -207.875233 
L 670.263941 -206.163502 
L 672.424199 -204.451772 
L 674.353705 -202.740042 
L 675.954586 -201.028311 
L 677.142882 -199.316581 
L 677.858676 -197.604851 
L 678.072667 -195.89312 
L 677.787675 -194.18139 
L 677.03453 -192.46966 
L 675.863005 -190.757929 
L 674.329684 -189.046199 
L 672.485717 -187.334468 
L 670.367793 -185.622738 
L 667.995172 -183.911008 
L 665.374062 -182.199277 
L 662.508366 -180.487547 
L 659.413606 -178.775817 
L 656.129401 -177.064086 
L 652.726001 -175.352356 
L 649.302085 -173.640626 
L 645.973868 -171.928895 
L 642.858412 -170.217165 
L 640.055828 -168.505434 
L 637.635123 -166.793704 
L 635.626908 -165.081974 
L 634.023801 -163.370243 
L 632.787138 -161.658513 
L 631.857313 -159.946783 
L 631.164881 -158.235052 
L 630.640227 -156.523322 
L 630.22065 -154.811592 
L 629.85467 -153.099861 
L 629.503991 -151.388131 
L 629.143776 -149.6764 
L 628.76183 -147.96467 
L 628.35703 -146.25294 
L 627.937141 -144.541209 
L 627.516067 -142.829479 
z
" style="stroke: #636363; stroke-opacity: 0.9; stroke-width: 1.25"/>
    </defs>
    <g clip-path="url(#pdd5431ab4f)">
     <use xlink:href="#m58592064e6" x="0" y="482.479625" style="fill: #90c6a6; fill-opacity: 0.9; stroke: #636363; stroke-opacity: 0.9; stroke-width: 1.25"/>
    </g>
   </g>
   <g id="line2d_10">
    <path d="M 187.699625 342.800437 
L 187.699625 135.375829 
" clip-path="url(#pdd5431ab4f)" style="fill: none; stroke: #636363; stroke-width: 1.875; stroke-linecap: round"/>
   </g>
   <g id="line2d_11">
    <path d="M 187.699625 306.910088 
L 187.699625 238.28697 
" clip-path="url(#pdd5431ab4f)" style="fill: none; stroke: #636363; stroke-width: 5.625; stroke-linecap: round"/>
   </g>
   <g id="line2d_12">
    <path d="M 187.699625 278.405694 
" clip-path="url(#pdd5431ab4f)" style="fill: none; stroke: #636363; stroke-width: 1.5; stroke-linecap: round"/>
    <defs>
     <path id="m689a254100" d="M 2.34375 0 
L -2.34375 -0 
" style="stroke: #ffffff; stroke-width: 1.125"/>
    </defs>
    <g clip-path="url(#pdd5431ab4f)">
     <use xlink:href="#m689a254100" x="187.699625" y="278.405694" style="fill: #ffffff; stroke: #ffffff; stroke-width: 1.125"/>
    </g>
   </g>
   <g id="line2d_13">
    <path d="M 406.567625 341.566005 
L 406.567625 275.302299 
" clip-path="url(#pdd5431ab4f)" style="fill: none; stroke: #636363; stroke-width: 1.875; stroke-linecap: round"/>
   </g>
   <g id="line2d_14">
    <path d="M 406.567625 330.723099 
L 406.567625 308.553458 
" clip-path="url(#pdd5431ab4f)" style="fill: none; stroke: #636363; stroke-width: 5.625; stroke-linecap: round"/>
   </g>
   <g id="line2d_15">
    <path d="M 406.567625 322.239696 
" clip-path="url(#pdd5431ab4f)" style="fill: none; stroke: #636363; stroke-width: 1.5; stroke-linecap: round"/>
    <g clip-path="url(#pdd5431ab4f)">
     <use xlink:href="#m689a254100" x="406.567625" y="322.239696" style="fill: #ffffff; stroke: #ffffff; stroke-width: 1.125"/>
    </g>
   </g>
   <g id="line2d_16">
    <path d="M 625.435625 339.650146 
L 625.435625 222.433575 
" clip-path="url(#pdd5431ab4f)" style="fill: none; stroke: #636363; stroke-width: 1.875; stroke-linecap: round"/>
   </g>
   <g id="line2d_17">
    <path d="M 625.435625 296.017719 
L 625.435625 266.431586 
" clip-path="url(#pdd5431ab4f)" style="fill: none; stroke: #636363; stroke-width: 5.625; stroke-linecap: round"/>
   </g>
   <g id="line2d_18">
    <path d="M 625.435625 282.965727 
" clip-path="url(#pdd5431ab4f)" style="fill: none; stroke: #636363; stroke-width: 1.5; stroke-linecap: round"/>
    <g clip-path="url(#pdd5431ab4f)">
     <use xlink:href="#m689a254100" x="625.435625" y="282.965727" style="fill: #ffffff; stroke: #ffffff; stroke-width: 1.125"/>
    </g>
   </g>
   <g id="patch_3">
    <path d="M 78.265625 356.762437 
L 78.265625 49.598437 
" style="fill: none; stroke: #cccccc; stroke-width: 1.25; stroke-linejoin: miter; stroke-linecap: square"/>
   </g>
   <g id="patch_4">
    <path d="M 734.869625 356.762437 
L 734.869625 49.598437 
" style="fill: none; stroke: #cccccc; stroke-width: 1.25; stroke-linejoin: miter; stroke-linecap: square"/>
   </g>
   <g id="patch_5">
    <path d="M 78.265625 356.762438 
L 734.869625 356.762438 
" style="fill: none; stroke: #cccccc; stroke-width: 1.25; stroke-linejoin: miter; stroke-linecap: square"/>
   </g>
   <g id="patch_6">
    <path d="M 78.265625 49.598437 
L 734.869625 49.598437 
" style="fill: none; stroke: #cccccc; stroke-width: 1.25; stroke-linejoin: miter; stroke-linecap: square"/>
   </g>
   <g id="text_15">
    <!-- Violin Plot of distances by Level One Cell Type (Density Normalization: area) -->
    <g style="fill: #262626" transform="translate(216.518406 43.598437) scale(0.1 -0.1)">
     <defs>
      <path id="DejaVuSans-56" d="M 1831 0 
L 50 4666 
L 709 4666 
L 2188 738 
L 3669 4666 
L 4325 4666 
L 2547 0 
L 1831 0 
z
" transform="scale(0.015625)"/>
      <path id="DejaVuSans-50" d="M 1259 4147 
L 1259 2394 
L 2053 2394 
Q 2494 2394 2734 2622 
Q 2975 2850 2975 3272 
Q 2975 3691 2734 3919 
Q 2494 4147 2053 4147 
L 1259 4147 
z
M 628 4666 
L 2053 4666 
Q 2838 4666 3239 4311 
Q 3641 3956 3641 3272 
Q 3641 2581 3239 2228 
Q 2838 1875 2053 1875 
L 1259 1875 
L 1259 0 
L 628 0 
L 628 4666 
z
" transform="scale(0.015625)"/>
      <path id="DejaVuSans-66" d="M 2375 4863 
L 2375 4384 
L 1825 4384 
Q 1516 4384 1395 4259 
Q 1275 4134 1275 3809 
L 1275 3500 
L 2222 3500 
L 2222 3053 
L 1275 3053 
L 1275 0 
L 697 0 
L 697 3053 
L 147 3053 
L 147 3500 
L 697 3500 
L 697 3744 
Q 697 4328 969 4595 
Q 1241 4863 1831 4863 
L 2375 4863 
z
" transform="scale(0.015625)"/>
      <path id="DejaVuSans-64" d="M 2906 2969 
L 2906 4863 
L 3481 4863 
L 3481 0 
L 2906 0 
L 2906 525 
Q 2725 213 2448 61 
Q 2172 -91 1784 -91 
Q 1150 -91 751 415 
Q 353 922 353 1747 
Q 353 2572 751 3078 
Q 1150 3584 1784 3584 
Q 2172 3584 2448 3432 
Q 2725 3281 2906 2969 
z
M 947 1747 
Q 947 1113 1208 752 
Q 1469 391 1925 391 
Q 2381 391 2643 752 
Q 2906 1113 2906 1747 
Q 2906 2381 2643 2742 
Q 2381 3103 1925 3103 
Q 1469 3103 1208 2742 
Q 947 2381 947 1747 
z
" transform="scale(0.015625)"/>
      <path id="DejaVuSans-62" d="M 3116 1747 
Q 3116 2381 2855 2742 
Q 2594 3103 2138 3103 
Q 1681 3103 1420 2742 
Q 1159 2381 1159 1747 
Q 1159 1113 1420 752 
Q 1681 391 2138 391 
Q 2594 391 2855 752 
Q 3116 1113 3116 1747 
z
M 1159 2969 
Q 1341 3281 1617 3432 
Q 1894 3584 2278 3584 
Q 2916 3584 3314 3078 
Q 3713 2572 3713 1747 
Q 3713 922 3314 415 
Q 2916 -91 2278 -91 
Q 1894 -91 1617 61 
Q 1341 213 1159 525 
L 1159 0 
L 581 0 
L 581 4863 
L 1159 4863 
L 1159 2969 
z
" transform="scale(0.015625)"/>
      <path id="DejaVuSans-4e" d="M 628 4666 
L 1478 4666 
L 3547 763 
L 3547 4666 
L 4159 4666 
L 4159 0 
L 3309 0 
L 1241 3903 
L 1241 0 
L 628 0 
L 628 4666 
z
" transform="scale(0.015625)"/>
      <path id="DejaVuSans-72" d="M 2631 2963 
Q 2534 3019 2420 3045 
Q 2306 3072 2169 3072 
Q 1681 3072 1420 2755 
Q 1159 2438 1159 1844 
L 1159 0 
L 581 0 
L 581 3500 
L 1159 3500 
L 1159 2956 
Q 1341 3275 1631 3429 
Q 1922 3584 2338 3584 
Q 2397 3584 2469 3576 
Q 2541 3569 2628 3553 
L 2631 2963 
z
" transform="scale(0.015625)"/>
      <path id="DejaVuSans-7a" d="M 353 3500 
L 3084 3500 
L 3084 2975 
L 922 459 
L 3084 459 
L 3084 0 
L 275 0 
L 275 525 
L 2438 3041 
L 353 3041 
L 353 3500 
z
" transform="scale(0.015625)"/>
      <path id="DejaVuSans-3a" d="M 750 794 
L 1409 794 
L 1409 0 
L 750 0 
L 750 794 
z
M 750 3309 
L 1409 3309 
L 1409 2516 
L 750 2516 
L 750 3309 
z
" transform="scale(0.015625)"/>
     </defs>
     <use xlink:href="#DejaVuSans-56"/>
     <use xlink:href="#DejaVuSans-69" transform="translate(66.158203 0)"/>
     <use xlink:href="#DejaVuSans-6f" transform="translate(93.941406 0)"/>
     <use xlink:href="#DejaVuSans-6c" transform="translate(155.123047 0)"/>
     <use xlink:href="#DejaVuSans-69" transform="translate(182.90625 0)"/>
     <use xlink:href="#DejaVuSans-6e" transform="translate(210.689453 0)"/>
     <use xlink:href="#DejaVuSans-20" transform="translate(274.068359 0)"/>
     <use xlink:href="#DejaVuSans-50" transform="translate(305.855469 0)"/>
     <use xlink:href="#DejaVuSans-6c" transform="translate(366.158203 0)"/>
     <use xlink:href="#DejaVuSans-6f" transform="translate(393.941406 0)"/>
     <use xlink:href="#DejaVuSans-74" transform="translate(455.123047 0)"/>
     <use xlink:href="#DejaVuSans-20" transform="translate(494.332031 0)"/>
     <use xlink:href="#DejaVuSans-6f" transform="translate(526.119141 0)"/>
     <use xlink:href="#DejaVuSans-66" transform="translate(587.300781 0)"/>
     <use xlink:href="#DejaVuSans-20" transform="translate(622.505859 0)"/>
     <use xlink:href="#DejaVuSans-64" transform="translate(654.292969 0)"/>
     <use xlink:href="#DejaVuSans-69" transform="translate(717.769531 0)"/>
     <use xlink:href="#DejaVuSans-73" transform="translate(745.552734 0)"/>
     <use xlink:href="#DejaVuSans-74" transform="translate(797.652344 0)"/>
     <use xlink:href="#DejaVuSans-61" transform="translate(836.861328 0)"/>
     <use xlink:href="#DejaVuSans-6e" transform="translate(898.140625 0)"/>
     <use xlink:href="#DejaVuSans-63" transform="translate(961.519531 0)"/>
     <use xlink:href="#DejaVuSans-65" transform="translate(1016.5 0)"/>
     <use xlink:href="#DejaVuSans-73" transform="translate(1078.023438 0)"/>
     <use xlink:href="#DejaVuSans-20" transform="translate(1130.123047 0)"/>
     <use xlink:href="#DejaVuSans-62" transform="translate(1161.910156 0)"/>
     <use xlink:href="#DejaVuSans-79" transform="translate(1225.386719 0)"/>
     <use xlink:href="#DejaVuSans-20" transform="translate(1284.566406 0)"/>
     <use xlink:href="#DejaVuSans-4c" transform="translate(1316.353516 0)"/>
     <use xlink:href="#DejaVuSans-65" transform="translate(1370.316406 0)"/>
     <use xlink:href="#DejaVuSans-76" transform="translate(1431.839844 0)"/>
     <use xlink:href="#DejaVuSans-65" transform="translate(1491.019531 0)"/>
     <use xlink:href="#DejaVuSans-6c" transform="translate(1552.542969 0)"/>
     <use xlink:href="#DejaVuSans-20" transform="translate(1580.326172 0)"/>
     <use xlink:href="#DejaVuSans-4f" transform="translate(1612.113281 0)"/>
     <use xlink:href="#DejaVuSans-6e" transform="translate(1690.824219 0)"/>
     <use xlink:href="#DejaVuSans-65" transform="translate(1754.203125 0)"/>
     <use xlink:href="#DejaVuSans-20" transform="translate(1815.726562 0)"/>
     <use xlink:href="#DejaVuSans-43" transform="translate(1847.513672 0)"/>
     <use xlink:href="#DejaVuSans-65" transform="translate(1917.337891 0)"/>
     <use xlink:href="#DejaVuSans-6c" transform="translate(1978.861328 0)"/>
     <use xlink:href="#DejaVuSans-6c" transform="translate(2006.644531 0)"/>
     <use xlink:href="#DejaVuSans-20" transform="translate(2034.427734 0)"/>
     <use xlink:href="#DejaVuSans-54" transform="translate(2066.214844 0)"/>
     <use xlink:href="#DejaVuSans-79" transform="translate(2111.673828 0)"/>
     <use xlink:href="#DejaVuSans-70" transform="translate(2170.853516 0)"/>
     <use xlink:href="#DejaVuSans-65" transform="translate(2234.330078 0)"/>
     <use xlink:href="#DejaVuSans-20" transform="translate(2295.853516 0)"/>
     <use xlink:href="#DejaVuSans-28" transform="translate(2327.640625 0)"/>
     <use xlink:href="#DejaVuSans-44" transform="translate(2366.654297 0)"/>
     <use xlink:href="#DejaVuSans-65" transform="translate(2443.65625 0)"/>
     <use xlink:href="#DejaVuSans-6e" transform="translate(2505.179688 0)"/>
     <use xlink:href="#DejaVuSans-73" transform="translate(2568.558594 0)"/>
     <use xlink:href="#DejaVuSans-69" transform="translate(2620.658203 0)"/>
     <use xlink:href="#DejaVuSans-74" transform="translate(2648.441406 0)"/>
     <use xlink:href="#DejaVuSans-79" transform="translate(2687.650391 0)"/>
     <use xlink:href="#DejaVuSans-20" transform="translate(2746.830078 0)"/>
     <use xlink:href="#DejaVuSans-4e" transform="translate(2778.617188 0)"/>
     <use xlink:href="#DejaVuSans-6f" transform="translate(2853.421875 0)"/>
     <use xlink:href="#DejaVuSans-72" transform="translate(2914.603516 0)"/>
     <use xlink:href="#DejaVuSans-6d" transform="translate(2953.966797 0)"/>
     <use xlink:href="#DejaVuSans-61" transform="translate(3051.378906 0)"/>
     <use xlink:href="#DejaVuSans-6c" transform="translate(3112.658203 0)"/>
     <use xlink:href="#DejaVuSans-69" transform="translate(3140.441406 0)"/>
     <use xlink:href="#DejaVuSans-7a" transform="translate(3168.224609 0)"/>
     <use xlink:href="#DejaVuSans-61" transform="translate(3220.714844 0)"/>
     <use xlink:href="#DejaVuSans-74" transform="translate(3281.994141 0)"/>
     <use xlink:href="#DejaVuSans-69" transform="translate(3321.203125 0)"/>
     <use xlink:href="#DejaVuSans-6f" transform="translate(3348.986328 0)"/>
     <use xlink:href="#DejaVuSans-6e" transform="translate(3410.167969 0)"/>
     <use xlink:href="#DejaVuSans-3a" transform="translate(3473.546875 0)"/>
     <use xlink:href="#DejaVuSans-20" transform="translate(3507.238281 0)"/>
     <use xlink:href="#DejaVuSans-61" transform="translate(3539.025391 0)"/>
     <use xlink:href="#DejaVuSans-72" transform="translate(3600.304688 0)"/>
     <use xlink:href="#DejaVuSans-65" transform="translate(3639.167969 0)"/>
     <use xlink:href="#DejaVuSans-61" transform="translate(3700.691406 0)"/>
     <use xlink:href="#DejaVuSans-29" transform="translate(3761.970703 0)"/>
    </g>
   </g>
   <g id="legend_1">
    <g id="patch_7">
     <path d="M 723.869625 62.598437 
L 727.869625 62.598437 
Q 729.869625 62.598437 729.869625 60.598437 
L 729.869625 56.598437 
Q 729.869625 54.598437 727.869625 54.598437 
L 723.869625 54.598437 
Q 721.869625 54.598437 721.869625 56.598437 
L 721.869625 60.598437 
Q 721.869625 62.598437 723.869625 62.598437 
z
" style="fill: #ffffff; opacity: 0.8; stroke: #cccccc; stroke-width: 0.8; stroke-linejoin: miter"/>
    </g>
   </g>
  </g>
 </g>
 <defs>
  <clipPath id="pdd5431ab4f">
   <rect x="78.265625" y="49.598437" width="656.604" height="307.164"/>
  </clipPath>
 </defs>
</svg>
