<?xml version="1.0" encoding="utf-8" standalone="no"?>
<!DOCTYPE svg PUBLIC "-//W3C//DTD SVG 1.1//EN"
  "http://www.w3.org/Graphics/SVG/1.1/DTD/svg11.dtd">
<svg xmlns:xlink="http://www.w3.org/1999/xlink" width="770.959625pt" height="482.318062pt" viewBox="0 0 770.959625 482.318062" xmlns="http://www.w3.org/2000/svg" version="1.1">
 <metadata>
  <rdf:RDF xmlns:dc="http://purl.org/dc/elements/1.1/" xmlns:cc="http://creativecommons.org/ns#" xmlns:rdf="http://www.w3.org/1999/02/22-rdf-syntax-ns#">
   <cc:Work>
    <dc:type rdf:resource="http://purl.org/dc/dcmitype/StillImage"/>
    <dc:date>2025-07-02T16:23:51.768503</dc:date>
    <dc:format>image/svg+xml</dc:format>
    <dc:creator>
     <cc:Agent>
      <dc:title>Matplotlib v3.10.3, https://matplotlib.org/</dc:title>
     </cc:Agent>
    </dc:creator>
   </cc:Work>
  </rdf:RDF>
 </metadata>
 <defs>
  <style type="text/css">*{stroke-linejoin: round; stroke-linecap: butt}</style>
 </defs>
 <g id="figure_1">
  <g id="patch_1">
   <path d="M 0 482.318062 
L 770.959625 482.318062 
L 770.959625 -0 
L 0 -0 
z
" style="fill: #ffffff"/>
  </g>
  <g id="axes_1">
   <g id="patch_2">
    <path d="M 78.265625 360.452437 
L 734.959625 360.452437 
L 734.959625 49.598437 
L 78.265625 49.598437 
z
" style="fill: #ffffff"/>
   </g>
   <g id="matplotlib.axis_1">
    <g id="xtick_1">
     <g id="text_1">
      <!-- t cell -->
      <g style="fill: #262626" transform="translate(190.474 394.258688) rotate(-90) scale(0.1 -0.1)">
       <defs>
        <path id="DejaVuSans-74" d="M 1172 4494 
L 1172 3500 
L 2356 3500 
L 2356 3053 
L 1172 3053 
L 1172 1153 
Q 1172 725 1289 603 
Q 1406 481 1766 481 
L 2356 481 
L 2356 0 
L 1766 0 
Q 1100 0 847 248 
Q 594 497 594 1153 
L 594 3053 
L 172 3053 
L 172 3500 
L 594 3500 
L 594 4494 
L 1172 4494 
z
" transform="scale(0.015625)"/>
        <path id="DejaVuSans-20" transform="scale(0.015625)"/>
        <path id="DejaVuSans-63" d="M 3122 3366 
L 3122 2828 
Q 2878 2963 2633 3030 
Q 2388 3097 2138 3097 
Q 1578 3097 1268 2742 
Q 959 2388 959 1747 
Q 959 1106 1268 751 
Q 1578 397 2138 397 
Q 2388 397 2633 464 
Q 2878 531 3122 666 
L 3122 134 
Q 2881 22 2623 -34 
Q 2366 -91 2075 -91 
Q 1284 -91 818 406 
Q 353 903 353 1747 
Q 353 2603 823 3093 
Q 1294 3584 2113 3584 
Q 2378 3584 2631 3529 
Q 2884 3475 3122 3366 
z
" transform="scale(0.015625)"/>
        <path id="DejaVuSans-65" d="M 3597 1894 
L 3597 1613 
L 953 1613 
Q 991 1019 1311 708 
Q 1631 397 2203 397 
Q 2534 397 2845 478 
Q 3156 559 3463 722 
L 3463 178 
Q 3153 47 2828 -22 
Q 2503 -91 2169 -91 
Q 1331 -91 842 396 
Q 353 884 353 1716 
Q 353 2575 817 3079 
Q 1281 3584 2069 3584 
Q 2775 3584 3186 3129 
Q 3597 2675 3597 1894 
z
M 3022 2063 
Q 3016 2534 2758 2815 
Q 2500 3097 2075 3097 
Q 1594 3097 1305 2825 
Q 1016 2553 972 2059 
L 3022 2063 
z
" transform="scale(0.015625)"/>
        <path id="DejaVuSans-6c" d="M 603 4863 
L 1178 4863 
L 1178 0 
L 603 0 
L 603 4863 
z
" transform="scale(0.015625)"/>
       </defs>
       <use xlink:href="#DejaVuSans-74"/>
       <use xlink:href="#DejaVuSans-20" transform="translate(39.208984 0)"/>
       <use xlink:href="#DejaVuSans-63" transform="translate(70.996094 0)"/>
       <use xlink:href="#DejaVuSans-65" transform="translate(125.976562 0)"/>
       <use xlink:href="#DejaVuSans-6c" transform="translate(187.5 0)"/>
       <use xlink:href="#DejaVuSans-6c" transform="translate(215.283203 0)"/>
      </g>
     </g>
    </g>
    <g id="xtick_2">
     <g id="text_2">
      <!-- macrophage -->
      <g style="fill: #262626" transform="translate(409.372 432.639937) rotate(-90) scale(0.1 -0.1)">
       <defs>
        <path id="DejaVuSans-6d" d="M 3328 2828 
Q 3544 3216 3844 3400 
Q 4144 3584 4550 3584 
Q 5097 3584 5394 3201 
Q 5691 2819 5691 2113 
L 5691 0 
L 5113 0 
L 5113 2094 
Q 5113 2597 4934 2840 
Q 4756 3084 4391 3084 
Q 3944 3084 3684 2787 
Q 3425 2491 3425 1978 
L 3425 0 
L 2847 0 
L 2847 2094 
Q 2847 2600 2669 2842 
Q 2491 3084 2119 3084 
Q 1678 3084 1418 2786 
Q 1159 2488 1159 1978 
L 1159 0 
L 581 0 
L 581 3500 
L 1159 3500 
L 1159 2956 
Q 1356 3278 1631 3431 
Q 1906 3584 2284 3584 
Q 2666 3584 2933 3390 
Q 3200 3197 3328 2828 
z
" transform="scale(0.015625)"/>
        <path id="DejaVuSans-61" d="M 2194 1759 
Q 1497 1759 1228 1600 
Q 959 1441 959 1056 
Q 959 750 1161 570 
Q 1363 391 1709 391 
Q 2188 391 2477 730 
Q 2766 1069 2766 1631 
L 2766 1759 
L 2194 1759 
z
M 3341 1997 
L 3341 0 
L 2766 0 
L 2766 531 
Q 2569 213 2275 61 
Q 1981 -91 1556 -91 
Q 1019 -91 701 211 
Q 384 513 384 1019 
Q 384 1609 779 1909 
Q 1175 2209 1959 2209 
L 2766 2209 
L 2766 2266 
Q 2766 2663 2505 2880 
Q 2244 3097 1772 3097 
Q 1472 3097 1187 3025 
Q 903 2953 641 2809 
L 641 3341 
Q 956 3463 1253 3523 
Q 1550 3584 1831 3584 
Q 2591 3584 2966 3190 
Q 3341 2797 3341 1997 
z
" transform="scale(0.015625)"/>
        <path id="DejaVuSans-72" d="M 2631 2963 
Q 2534 3019 2420 3045 
Q 2306 3072 2169 3072 
Q 1681 3072 1420 2755 
Q 1159 2438 1159 1844 
L 1159 0 
L 581 0 
L 581 3500 
L 1159 3500 
L 1159 2956 
Q 1341 3275 1631 3429 
Q 1922 3584 2338 3584 
Q 2397 3584 2469 3576 
Q 2541 3569 2628 3553 
L 2631 2963 
z
" transform="scale(0.015625)"/>
        <path id="DejaVuSans-6f" d="M 1959 3097 
Q 1497 3097 1228 2736 
Q 959 2375 959 1747 
Q 959 1119 1226 758 
Q 1494 397 1959 397 
Q 2419 397 2687 759 
Q 2956 1122 2956 1747 
Q 2956 2369 2687 2733 
Q 2419 3097 1959 3097 
z
M 1959 3584 
Q 2709 3584 3137 3096 
Q 3566 2609 3566 1747 
Q 3566 888 3137 398 
Q 2709 -91 1959 -91 
Q 1206 -91 779 398 
Q 353 888 353 1747 
Q 353 2609 779 3096 
Q 1206 3584 1959 3584 
z
" transform="scale(0.015625)"/>
        <path id="DejaVuSans-70" d="M 1159 525 
L 1159 -1331 
L 581 -1331 
L 581 3500 
L 1159 3500 
L 1159 2969 
Q 1341 3281 1617 3432 
Q 1894 3584 2278 3584 
Q 2916 3584 3314 3078 
Q 3713 2572 3713 1747 
Q 3713 922 3314 415 
Q 2916 -91 2278 -91 
Q 1894 -91 1617 61 
Q 1341 213 1159 525 
z
M 3116 1747 
Q 3116 2381 2855 2742 
Q 2594 3103 2138 3103 
Q 1681 3103 1420 2742 
Q 1159 2381 1159 1747 
Q 1159 1113 1420 752 
Q 1681 391 2138 391 
Q 2594 391 2855 752 
Q 3116 1113 3116 1747 
z
" transform="scale(0.015625)"/>
        <path id="DejaVuSans-68" d="M 3513 2113 
L 3513 0 
L 2938 0 
L 2938 2094 
Q 2938 2591 2744 2837 
Q 2550 3084 2163 3084 
Q 1697 3084 1428 2787 
Q 1159 2491 1159 1978 
L 1159 0 
L 581 0 
L 581 4863 
L 1159 4863 
L 1159 2956 
Q 1366 3272 1645 3428 
Q 1925 3584 2291 3584 
Q 2894 3584 3203 3211 
Q 3513 2838 3513 2113 
z
" transform="scale(0.015625)"/>
        <path id="DejaVuSans-67" d="M 2906 1791 
Q 2906 2416 2648 2759 
Q 2391 3103 1925 3103 
Q 1463 3103 1205 2759 
Q 947 2416 947 1791 
Q 947 1169 1205 825 
Q 1463 481 1925 481 
Q 2391 481 2648 825 
Q 2906 1169 2906 1791 
z
M 3481 434 
Q 3481 -459 3084 -895 
Q 2688 -1331 1869 -1331 
Q 1566 -1331 1297 -1286 
Q 1028 -1241 775 -1147 
L 775 -588 
Q 1028 -725 1275 -790 
Q 1522 -856 1778 -856 
Q 2344 -856 2625 -561 
Q 2906 -266 2906 331 
L 2906 616 
Q 2728 306 2450 153 
Q 2172 0 1784 0 
Q 1141 0 747 490 
Q 353 981 353 1791 
Q 353 2603 747 3093 
Q 1141 3584 1784 3584 
Q 2172 3584 2450 3431 
Q 2728 3278 2906 2969 
L 2906 3500 
L 3481 3500 
L 3481 434 
z
" transform="scale(0.015625)"/>
       </defs>
       <use xlink:href="#DejaVuSans-6d"/>
       <use xlink:href="#DejaVuSans-61" transform="translate(97.412109 0)"/>
       <use xlink:href="#DejaVuSans-63" transform="translate(158.691406 0)"/>
       <use xlink:href="#DejaVuSans-72" transform="translate(213.671875 0)"/>
       <use xlink:href="#DejaVuSans-6f" transform="translate(252.535156 0)"/>
       <use xlink:href="#DejaVuSans-70" transform="translate(313.716797 0)"/>
       <use xlink:href="#DejaVuSans-68" transform="translate(377.193359 0)"/>
       <use xlink:href="#DejaVuSans-61" transform="translate(440.572266 0)"/>
       <use xlink:href="#DejaVuSans-67" transform="translate(501.851562 0)"/>
       <use xlink:href="#DejaVuSans-65" transform="translate(565.328125 0)"/>
      </g>
     </g>
    </g>
    <g id="xtick_3">
     <g id="text_3">
      <!-- keratinocyte -->
      <g style="fill: #262626" transform="translate(628.27 432.418063) rotate(-90) scale(0.1 -0.1)">
       <defs>
        <path id="DejaVuSans-6b" d="M 581 4863 
L 1159 4863 
L 1159 1991 
L 2875 3500 
L 3609 3500 
L 1753 1863 
L 3688 0 
L 2938 0 
L 1159 1709 
L 1159 0 
L 581 0 
L 581 4863 
z
" transform="scale(0.015625)"/>
        <path id="DejaVuSans-69" d="M 603 3500 
L 1178 3500 
L 1178 0 
L 603 0 
L 603 3500 
z
M 603 4863 
L 1178 4863 
L 1178 4134 
L 603 4134 
L 603 4863 
z
" transform="scale(0.015625)"/>
        <path id="DejaVuSans-6e" d="M 3513 2113 
L 3513 0 
L 2938 0 
L 2938 2094 
Q 2938 2591 2744 2837 
Q 2550 3084 2163 3084 
Q 1697 3084 1428 2787 
Q 1159 2491 1159 1978 
L 1159 0 
L 581 0 
L 581 3500 
L 1159 3500 
L 1159 2956 
Q 1366 3272 1645 3428 
Q 1925 3584 2291 3584 
Q 2894 3584 3203 3211 
Q 3513 2838 3513 2113 
z
" transform="scale(0.015625)"/>
        <path id="DejaVuSans-79" d="M 2059 -325 
Q 1816 -950 1584 -1140 
Q 1353 -1331 966 -1331 
L 506 -1331 
L 506 -850 
L 844 -850 
Q 1081 -850 1212 -737 
Q 1344 -625 1503 -206 
L 1606 56 
L 191 3500 
L 800 3500 
L 1894 763 
L 2988 3500 
L 3597 3500 
L 2059 -325 
z
" transform="scale(0.015625)"/>
       </defs>
       <use xlink:href="#DejaVuSans-6b"/>
       <use xlink:href="#DejaVuSans-65" transform="translate(54.285156 0)"/>
       <use xlink:href="#DejaVuSans-72" transform="translate(115.808594 0)"/>
       <use xlink:href="#DejaVuSans-61" transform="translate(156.921875 0)"/>
       <use xlink:href="#DejaVuSans-74" transform="translate(218.201172 0)"/>
       <use xlink:href="#DejaVuSans-69" transform="translate(257.410156 0)"/>
       <use xlink:href="#DejaVuSans-6e" transform="translate(285.193359 0)"/>
       <use xlink:href="#DejaVuSans-6f" transform="translate(348.572266 0)"/>
       <use xlink:href="#DejaVuSans-63" transform="translate(409.753906 0)"/>
       <use xlink:href="#DejaVuSans-79" transform="translate(464.734375 0)"/>
       <use xlink:href="#DejaVuSans-74" transform="translate(523.914062 0)"/>
       <use xlink:href="#DejaVuSans-65" transform="translate(563.123047 0)"/>
      </g>
     </g>
    </g>
    <g id="text_4">
     <!-- Level Two Cell Type -->
     <g style="fill: #262626" transform="translate(358.439188 444.238375) scale(0.1 -0.1)">
      <defs>
       <path id="DejaVuSans-4c" d="M 628 4666 
L 1259 4666 
L 1259 531 
L 3531 531 
L 3531 0 
L 628 0 
L 628 4666 
z
" transform="scale(0.015625)"/>
       <path id="DejaVuSans-76" d="M 191 3500 
L 800 3500 
L 1894 563 
L 2988 3500 
L 3597 3500 
L 2284 0 
L 1503 0 
L 191 3500 
z
" transform="scale(0.015625)"/>
       <path id="DejaVuSans-54" d="M -19 4666 
L 3928 4666 
L 3928 4134 
L 2272 4134 
L 2272 0 
L 1638 0 
L 1638 4134 
L -19 4134 
L -19 4666 
z
" transform="scale(0.015625)"/>
       <path id="DejaVuSans-77" d="M 269 3500 
L 844 3500 
L 1563 769 
L 2278 3500 
L 2956 3500 
L 3675 769 
L 4391 3500 
L 4966 3500 
L 4050 0 
L 3372 0 
L 2619 2869 
L 1863 0 
L 1184 0 
L 269 3500 
z
" transform="scale(0.015625)"/>
       <path id="DejaVuSans-43" d="M 4122 4306 
L 4122 3641 
Q 3803 3938 3442 4084 
Q 3081 4231 2675 4231 
Q 1875 4231 1450 3742 
Q 1025 3253 1025 2328 
Q 1025 1406 1450 917 
Q 1875 428 2675 428 
Q 3081 428 3442 575 
Q 3803 722 4122 1019 
L 4122 359 
Q 3791 134 3420 21 
Q 3050 -91 2638 -91 
Q 1578 -91 968 557 
Q 359 1206 359 2328 
Q 359 3453 968 4101 
Q 1578 4750 2638 4750 
Q 3056 4750 3426 4639 
Q 3797 4528 4122 4306 
z
" transform="scale(0.015625)"/>
      </defs>
      <use xlink:href="#DejaVuSans-4c"/>
      <use xlink:href="#DejaVuSans-65" transform="translate(53.962891 0)"/>
      <use xlink:href="#DejaVuSans-76" transform="translate(115.486328 0)"/>
      <use xlink:href="#DejaVuSans-65" transform="translate(174.666016 0)"/>
      <use xlink:href="#DejaVuSans-6c" transform="translate(236.189453 0)"/>
      <use xlink:href="#DejaVuSans-20" transform="translate(263.972656 0)"/>
      <use xlink:href="#DejaVuSans-54" transform="translate(295.759766 0)"/>
      <use xlink:href="#DejaVuSans-77" transform="translate(340.34375 0)"/>
      <use xlink:href="#DejaVuSans-6f" transform="translate(422.130859 0)"/>
      <use xlink:href="#DejaVuSans-20" transform="translate(483.3125 0)"/>
      <use xlink:href="#DejaVuSans-43" transform="translate(515.099609 0)"/>
      <use xlink:href="#DejaVuSans-65" transform="translate(584.923828 0)"/>
      <use xlink:href="#DejaVuSans-6c" transform="translate(646.447266 0)"/>
      <use xlink:href="#DejaVuSans-6c" transform="translate(674.230469 0)"/>
      <use xlink:href="#DejaVuSans-20" transform="translate(702.013672 0)"/>
      <use xlink:href="#DejaVuSans-54" transform="translate(733.800781 0)"/>
      <use xlink:href="#DejaVuSans-79" transform="translate(779.259766 0)"/>
      <use xlink:href="#DejaVuSans-70" transform="translate(838.439453 0)"/>
      <use xlink:href="#DejaVuSans-65" transform="translate(901.916016 0)"/>
     </g>
    </g>
   </g>
   <g id="matplotlib.axis_2">
    <g id="ytick_1">
     <g id="line2d_1">
      <path d="M 78.265625 346.32271 
L 734.959625 346.32271 
" clip-path="url(#pa52ab58422)" style="fill: none; stroke: #cccccc; stroke-width: 2; stroke-linecap: round"/>
     </g>
     <g id="text_5">
      <!-- 0 -->
      <g style="fill: #262626" transform="translate(62.403125 350.121929) scale(0.1 -0.1)">
       <defs>
        <path id="DejaVuSans-30" d="M 2034 4250 
Q 1547 4250 1301 3770 
Q 1056 3291 1056 2328 
Q 1056 1369 1301 889 
Q 1547 409 2034 409 
Q 2525 409 2770 889 
Q 3016 1369 3016 2328 
Q 3016 3291 2770 3770 
Q 2525 4250 2034 4250 
z
M 2034 4750 
Q 2819 4750 3233 4129 
Q 3647 3509 3647 2328 
Q 3647 1150 3233 529 
Q 2819 -91 2034 -91 
Q 1250 -91 836 529 
Q 422 1150 422 2328 
Q 422 3509 836 4129 
Q 1250 4750 2034 4750 
z
" transform="scale(0.015625)"/>
       </defs>
       <use xlink:href="#DejaVuSans-30"/>
      </g>
     </g>
    </g>
    <g id="ytick_2">
     <g id="line2d_2">
      <path d="M 78.265625 302.309353 
L 734.959625 302.309353 
" clip-path="url(#pa52ab58422)" style="fill: none; stroke: #cccccc; stroke-width: 2; stroke-linecap: round"/>
     </g>
     <g id="text_6">
      <!-- 20 -->
      <g style="fill: #262626" transform="translate(56.040625 306.108572) scale(0.1 -0.1)">
       <defs>
        <path id="DejaVuSans-32" d="M 1228 531 
L 3431 531 
L 3431 0 
L 469 0 
L 469 531 
Q 828 903 1448 1529 
Q 2069 2156 2228 2338 
Q 2531 2678 2651 2914 
Q 2772 3150 2772 3378 
Q 2772 3750 2511 3984 
Q 2250 4219 1831 4219 
Q 1534 4219 1204 4116 
Q 875 4013 500 3803 
L 500 4441 
Q 881 4594 1212 4672 
Q 1544 4750 1819 4750 
Q 2544 4750 2975 4387 
Q 3406 4025 3406 3419 
Q 3406 3131 3298 2873 
Q 3191 2616 2906 2266 
Q 2828 2175 2409 1742 
Q 1991 1309 1228 531 
z
" transform="scale(0.015625)"/>
       </defs>
       <use xlink:href="#DejaVuSans-32"/>
       <use xlink:href="#DejaVuSans-30" transform="translate(63.623047 0)"/>
      </g>
     </g>
    </g>
    <g id="ytick_3">
     <g id="line2d_3">
      <path d="M 78.265625 258.295995 
L 734.959625 258.295995 
" clip-path="url(#pa52ab58422)" style="fill: none; stroke: #cccccc; stroke-width: 2; stroke-linecap: round"/>
     </g>
     <g id="text_7">
      <!-- 40 -->
      <g style="fill: #262626" transform="translate(56.040625 262.095214) scale(0.1 -0.1)">
       <defs>
        <path id="DejaVuSans-34" d="M 2419 4116 
L 825 1625 
L 2419 1625 
L 2419 4116 
z
M 2253 4666 
L 3047 4666 
L 3047 1625 
L 3713 1625 
L 3713 1100 
L 3047 1100 
L 3047 0 
L 2419 0 
L 2419 1100 
L 313 1100 
L 313 1709 
L 2253 4666 
z
" transform="scale(0.015625)"/>
       </defs>
       <use xlink:href="#DejaVuSans-34"/>
       <use xlink:href="#DejaVuSans-30" transform="translate(63.623047 0)"/>
      </g>
     </g>
    </g>
    <g id="ytick_4">
     <g id="line2d_4">
      <path d="M 78.265625 214.282638 
L 734.959625 214.282638 
" clip-path="url(#pa52ab58422)" style="fill: none; stroke: #cccccc; stroke-width: 2; stroke-linecap: round"/>
     </g>
     <g id="text_8">
      <!-- 60 -->
      <g style="fill: #262626" transform="translate(56.040625 218.081857) scale(0.1 -0.1)">
       <defs>
        <path id="DejaVuSans-36" d="M 2113 2584 
Q 1688 2584 1439 2293 
Q 1191 2003 1191 1497 
Q 1191 994 1439 701 
Q 1688 409 2113 409 
Q 2538 409 2786 701 
Q 3034 994 3034 1497 
Q 3034 2003 2786 2293 
Q 2538 2584 2113 2584 
z
M 3366 4563 
L 3366 3988 
Q 3128 4100 2886 4159 
Q 2644 4219 2406 4219 
Q 1781 4219 1451 3797 
Q 1122 3375 1075 2522 
Q 1259 2794 1537 2939 
Q 1816 3084 2150 3084 
Q 2853 3084 3261 2657 
Q 3669 2231 3669 1497 
Q 3669 778 3244 343 
Q 2819 -91 2113 -91 
Q 1303 -91 875 529 
Q 447 1150 447 2328 
Q 447 3434 972 4092 
Q 1497 4750 2381 4750 
Q 2619 4750 2861 4703 
Q 3103 4656 3366 4563 
z
" transform="scale(0.015625)"/>
       </defs>
       <use xlink:href="#DejaVuSans-36"/>
       <use xlink:href="#DejaVuSans-30" transform="translate(63.623047 0)"/>
      </g>
     </g>
    </g>
    <g id="ytick_5">
     <g id="line2d_5">
      <path d="M 78.265625 170.26928 
L 734.959625 170.26928 
" clip-path="url(#pa52ab58422)" style="fill: none; stroke: #cccccc; stroke-width: 2; stroke-linecap: round"/>
     </g>
     <g id="text_9">
      <!-- 80 -->
      <g style="fill: #262626" transform="translate(56.040625 174.068499) scale(0.1 -0.1)">
       <defs>
        <path id="DejaVuSans-38" d="M 2034 2216 
Q 1584 2216 1326 1975 
Q 1069 1734 1069 1313 
Q 1069 891 1326 650 
Q 1584 409 2034 409 
Q 2484 409 2743 651 
Q 3003 894 3003 1313 
Q 3003 1734 2745 1975 
Q 2488 2216 2034 2216 
z
M 1403 2484 
Q 997 2584 770 2862 
Q 544 3141 544 3541 
Q 544 4100 942 4425 
Q 1341 4750 2034 4750 
Q 2731 4750 3128 4425 
Q 3525 4100 3525 3541 
Q 3525 3141 3298 2862 
Q 3072 2584 2669 2484 
Q 3125 2378 3379 2068 
Q 3634 1759 3634 1313 
Q 3634 634 3220 271 
Q 2806 -91 2034 -91 
Q 1263 -91 848 271 
Q 434 634 434 1313 
Q 434 1759 690 2068 
Q 947 2378 1403 2484 
z
M 1172 3481 
Q 1172 3119 1398 2916 
Q 1625 2713 2034 2713 
Q 2441 2713 2670 2916 
Q 2900 3119 2900 3481 
Q 2900 3844 2670 4047 
Q 2441 4250 2034 4250 
Q 1625 4250 1398 4047 
Q 1172 3844 1172 3481 
z
" transform="scale(0.015625)"/>
       </defs>
       <use xlink:href="#DejaVuSans-38"/>
       <use xlink:href="#DejaVuSans-30" transform="translate(63.623047 0)"/>
      </g>
     </g>
    </g>
    <g id="ytick_6">
     <g id="line2d_6">
      <path d="M 78.265625 126.255923 
L 734.959625 126.255923 
" clip-path="url(#pa52ab58422)" style="fill: none; stroke: #cccccc; stroke-width: 2; stroke-linecap: round"/>
     </g>
     <g id="text_10">
      <!-- 100 -->
      <g style="fill: #262626" transform="translate(49.678125 130.055142) scale(0.1 -0.1)">
       <defs>
        <path id="DejaVuSans-31" d="M 794 531 
L 1825 531 
L 1825 4091 
L 703 3866 
L 703 4441 
L 1819 4666 
L 2450 4666 
L 2450 531 
L 3481 531 
L 3481 0 
L 794 0 
L 794 531 
z
" transform="scale(0.015625)"/>
       </defs>
       <use xlink:href="#DejaVuSans-31"/>
       <use xlink:href="#DejaVuSans-30" transform="translate(63.623047 0)"/>
       <use xlink:href="#DejaVuSans-30" transform="translate(127.246094 0)"/>
      </g>
     </g>
    </g>
    <g id="ytick_7">
     <g id="line2d_7">
      <path d="M 78.265625 82.242565 
L 734.959625 82.242565 
" clip-path="url(#pa52ab58422)" style="fill: none; stroke: #cccccc; stroke-width: 2; stroke-linecap: round"/>
     </g>
     <g id="text_11">
      <!-- 120 -->
      <g style="fill: #262626" transform="translate(49.678125 86.041784) scale(0.1 -0.1)">
       <use xlink:href="#DejaVuSans-31"/>
       <use xlink:href="#DejaVuSans-32" transform="translate(63.623047 0)"/>
       <use xlink:href="#DejaVuSans-30" transform="translate(127.246094 0)"/>
      </g>
     </g>
    </g>
    <g id="text_12">
     <!-- Distance (μm) -->
     <g style="fill: #262626" transform="translate(43.598437 240.430125) rotate(-90) scale(0.1 -0.1)">
      <defs>
       <path id="DejaVuSans-44" d="M 1259 4147 
L 1259 519 
L 2022 519 
Q 2988 519 3436 956 
Q 3884 1394 3884 2338 
Q 3884 3275 3436 3711 
Q 2988 4147 2022 4147 
L 1259 4147 
z
M 628 4666 
L 1925 4666 
Q 3281 4666 3915 4102 
Q 4550 3538 4550 2338 
Q 4550 1131 3912 565 
Q 3275 0 1925 0 
L 628 0 
L 628 4666 
z
" transform="scale(0.015625)"/>
       <path id="DejaVuSans-73" d="M 2834 3397 
L 2834 2853 
Q 2591 2978 2328 3040 
Q 2066 3103 1784 3103 
Q 1356 3103 1142 2972 
Q 928 2841 928 2578 
Q 928 2378 1081 2264 
Q 1234 2150 1697 2047 
L 1894 2003 
Q 2506 1872 2764 1633 
Q 3022 1394 3022 966 
Q 3022 478 2636 193 
Q 2250 -91 1575 -91 
Q 1294 -91 989 -36 
Q 684 19 347 128 
L 347 722 
Q 666 556 975 473 
Q 1284 391 1588 391 
Q 1994 391 2212 530 
Q 2431 669 2431 922 
Q 2431 1156 2273 1281 
Q 2116 1406 1581 1522 
L 1381 1569 
Q 847 1681 609 1914 
Q 372 2147 372 2553 
Q 372 3047 722 3315 
Q 1072 3584 1716 3584 
Q 2034 3584 2315 3537 
Q 2597 3491 2834 3397 
z
" transform="scale(0.015625)"/>
       <path id="DejaVuSans-28" d="M 1984 4856 
Q 1566 4138 1362 3434 
Q 1159 2731 1159 2009 
Q 1159 1288 1364 580 
Q 1569 -128 1984 -844 
L 1484 -844 
Q 1016 -109 783 600 
Q 550 1309 550 2009 
Q 550 2706 781 3412 
Q 1013 4119 1484 4856 
L 1984 4856 
z
" transform="scale(0.015625)"/>
       <path id="DejaVuSans-3bc" d="M 544 -1331 
L 544 3500 
L 1119 3500 
L 1119 1325 
Q 1119 872 1334 640 
Q 1550 409 1972 409 
Q 2434 409 2667 671 
Q 2900 934 2900 1459 
L 2900 3500 
L 3475 3500 
L 3475 806 
Q 3475 619 3529 530 
Q 3584 441 3700 441 
Q 3728 441 3778 458 
Q 3828 475 3916 513 
L 3916 50 
Q 3788 -22 3673 -56 
Q 3559 -91 3450 -91 
Q 3234 -91 3106 31 
Q 2978 153 2931 403 
Q 2775 156 2548 32 
Q 2322 -91 2016 -91 
Q 1697 -91 1473 31 
Q 1250 153 1119 397 
L 1119 -1331 
L 544 -1331 
z
" transform="scale(0.015625)"/>
       <path id="DejaVuSans-29" d="M 513 4856 
L 1013 4856 
Q 1481 4119 1714 3412 
Q 1947 2706 1947 2009 
Q 1947 1309 1714 600 
Q 1481 -109 1013 -844 
L 513 -844 
Q 928 -128 1133 580 
Q 1338 1288 1338 2009 
Q 1338 2731 1133 3434 
Q 928 4138 513 4856 
z
" transform="scale(0.015625)"/>
      </defs>
      <use xlink:href="#DejaVuSans-44"/>
      <use xlink:href="#DejaVuSans-69" transform="translate(77.001953 0)"/>
      <use xlink:href="#DejaVuSans-73" transform="translate(104.785156 0)"/>
      <use xlink:href="#DejaVuSans-74" transform="translate(156.884766 0)"/>
      <use xlink:href="#DejaVuSans-61" transform="translate(196.09375 0)"/>
      <use xlink:href="#DejaVuSans-6e" transform="translate(257.373047 0)"/>
      <use xlink:href="#DejaVuSans-63" transform="translate(320.751953 0)"/>
      <use xlink:href="#DejaVuSans-65" transform="translate(375.732422 0)"/>
      <use xlink:href="#DejaVuSans-20" transform="translate(437.255859 0)"/>
      <use xlink:href="#DejaVuSans-28" transform="translate(469.042969 0)"/>
      <use xlink:href="#DejaVuSans-3bc" transform="translate(508.056641 0)"/>
      <use xlink:href="#DejaVuSans-6d" transform="translate(571.679688 0)"/>
      <use xlink:href="#DejaVuSans-29" transform="translate(669.091797 0)"/>
     </g>
    </g>
   </g>
   <g id="FillBetweenPolyCollection_1">
    <defs>
     <path id="m8b78b1c17f" d="M 202.548254 -135.995352 
L 172.880996 -135.995352 
L 158.940033 -137.784634 
L 140.877839 -139.573915 
L 122.457203 -141.363196 
L 108.21233 -143.152478 
L 100.872096 -144.941759 
L 100.155425 -146.73104 
L 103.890967 -148.520322 
L 109.946673 -150.309603 
L 117.067608 -152.098884 
L 124.618042 -153.888166 
L 132.202102 -155.677447 
L 139.468007 -157.466728 
L 146.029297 -159.25601 
L 151.585649 -161.045291 
L 156.144319 -162.834572 
L 160.010371 -164.623854 
L 163.497419 -166.413135 
L 166.705512 -168.202416 
L 169.566759 -169.991698 
L 171.972757 -171.780979 
L 173.850233 -173.57026 
L 175.245918 -175.359542 
L 176.335507 -177.148823 
L 177.273446 -178.938105 
L 178.087088 -180.727386 
L 178.769207 -182.516667 
L 179.38711 -184.305949 
L 180.03232 -186.09523 
L 180.726273 -187.884511 
L 181.420178 -189.673793 
L 182.05114 -191.463074 
L 182.586748 -193.252355 
L 183.032763 -195.041637 
L 183.414317 -196.830918 
L 183.756198 -198.620199 
L 184.055264 -200.409481 
L 184.281954 -202.198762 
L 184.451302 -203.988043 
L 184.647339 -205.777325 
L 184.927736 -207.566606 
L 185.25354 -209.355887 
L 185.539416 -211.145169 
L 185.7346 -212.93445 
L 185.845918 -214.723731 
L 185.912252 -216.513013 
L 185.967398 -218.302294 
L 186.014131 -220.091575 
L 186.034897 -221.880857 
L 186.03155 -223.670138 
L 186.042514 -225.459419 
L 186.11507 -227.248701 
L 186.263224 -229.037982 
L 186.450489 -230.827263 
L 186.607326 -232.616545 
L 186.670685 -234.405826 
L 186.636009 -236.195107 
L 186.577257 -237.984389 
L 186.584951 -239.77367 
L 186.682434 -241.562952 
L 186.822584 -243.352233 
L 186.952074 -245.141514 
L 187.049638 -246.930796 
L 187.106035 -248.720077 
L 187.108631 -250.509358 
L 187.069113 -252.29864 
L 187.037418 -254.087921 
L 187.059891 -255.877202 
L 187.130276 -257.666484 
L 187.194095 -259.455765 
L 187.202374 -261.245046 
L 187.159806 -263.034328 
L 187.120455 -264.823609 
L 187.135987 -266.61289 
L 187.208422 -268.402172 
L 187.292863 -270.191453 
L 187.343019 -271.980734 
L 187.35573 -273.770016 
L 187.370356 -275.559297 
L 187.419812 -277.348578 
L 187.494384 -279.13786 
L 187.561736 -280.927141 
L 187.603476 -282.716422 
L 187.622603 -284.505704 
L 187.62964 -286.294985 
L 187.631303 -288.084266 
L 187.629871 -289.873548 
L 187.628739 -291.662829 
L 187.633622 -293.45211 
L 187.647091 -295.241392 
L 187.666129 -297.030673 
L 187.685058 -298.819955 
L 187.698318 -300.609236 
L 187.702399 -302.398517 
L 187.697442 -304.187799 
L 187.687111 -305.97708 
L 187.675943 -307.766361 
L 187.667002 -309.555643 
L 187.663421 -311.344924 
L 187.668871 -313.134205 
L 187.760379 -313.134205 
L 187.760379 -313.134205 
L 187.765829 -311.344924 
L 187.762248 -309.555643 
L 187.753307 -307.766361 
L 187.742139 -305.97708 
L 187.731808 -304.187799 
L 187.726851 -302.398517 
L 187.730932 -300.609236 
L 187.744192 -298.819955 
L 187.763121 -297.030673 
L 187.782159 -295.241392 
L 187.795628 -293.45211 
L 187.800511 -291.662829 
L 187.799379 -289.873548 
L 187.797947 -288.084266 
L 187.79961 -286.294985 
L 187.806647 -284.505704 
L 187.825774 -282.716422 
L 187.867514 -280.927141 
L 187.934866 -279.13786 
L 188.009438 -277.348578 
L 188.058894 -275.559297 
L 188.07352 -273.770016 
L 188.086231 -271.980734 
L 188.136387 -270.191453 
L 188.220828 -268.402172 
L 188.293263 -266.61289 
L 188.308795 -264.823609 
L 188.269444 -263.034328 
L 188.226876 -261.245046 
L 188.235155 -259.455765 
L 188.298974 -257.666484 
L 188.369359 -255.877202 
L 188.391832 -254.087921 
L 188.360137 -252.29864 
L 188.320619 -250.509358 
L 188.323215 -248.720077 
L 188.379612 -246.930796 
L 188.477176 -245.141514 
L 188.606666 -243.352233 
L 188.746816 -241.562952 
L 188.844299 -239.77367 
L 188.851993 -237.984389 
L 188.793241 -236.195107 
L 188.758565 -234.405826 
L 188.821924 -232.616545 
L 188.978761 -230.827263 
L 189.166026 -229.037982 
L 189.31418 -227.248701 
L 189.386736 -225.459419 
L 189.3977 -223.670138 
L 189.394353 -221.880857 
L 189.415119 -220.091575 
L 189.461852 -218.302294 
L 189.516998 -216.513013 
L 189.583332 -214.723731 
L 189.69465 -212.93445 
L 189.889834 -211.145169 
L 190.17571 -209.355887 
L 190.501514 -207.566606 
L 190.781911 -205.777325 
L 190.977948 -203.988043 
L 191.147296 -202.198762 
L 191.373986 -200.409481 
L 191.673052 -198.620199 
L 192.014933 -196.830918 
L 192.396487 -195.041637 
L 192.842502 -193.252355 
L 193.37811 -191.463074 
L 194.009072 -189.673793 
L 194.702977 -187.884511 
L 195.39693 -186.09523 
L 196.04214 -184.305949 
L 196.660043 -182.516667 
L 197.342162 -180.727386 
L 198.155804 -178.938105 
L 199.093743 -177.148823 
L 200.183332 -175.359542 
L 201.579017 -173.57026 
L 203.456493 -171.780979 
L 205.862491 -169.991698 
L 208.723738 -168.202416 
L 211.931831 -166.413135 
L 215.418879 -164.623854 
L 219.284931 -162.834572 
L 223.843601 -161.045291 
L 229.399953 -159.25601 
L 235.961243 -157.466728 
L 243.227148 -155.677447 
L 250.811208 -153.888166 
L 258.361642 -152.098884 
L 265.482577 -150.309603 
L 271.538283 -148.520322 
L 275.273825 -146.73104 
L 274.557154 -144.941759 
L 267.21692 -143.152478 
L 252.972047 -141.363196 
L 234.551411 -139.573915 
L 216.489217 -137.784634 
L 202.548254 -135.995352 
z
" style="stroke: #636363; stroke-opacity: 0.9; stroke-width: 1.25"/>
    </defs>
    <g clip-path="url(#pa52ab58422)">
     <use xlink:href="#m8b78b1c17f" x="0" y="482.318062" style="fill: #e49467; fill-opacity: 0.9; stroke: #636363; stroke-opacity: 0.9; stroke-width: 1.25"/>
    </g>
   </g>
   <g id="FillBetweenPolyCollection_2">
    <defs>
     <path id="mecdbf68c7f" d="M 422.862262 -135.995352 
L 390.362988 -135.995352 
L 381.122063 -138.849843 
L 370.596784 -141.704333 
L 360.493364 -144.558823 
L 352.696644 -147.413314 
L 348.552424 -150.267804 
L 348.378625 -153.122294 
L 351.470932 -155.976785 
L 356.542969 -158.831275 
L 362.29941 -161.685765 
L 367.841947 -164.540256 
L 372.782718 -167.394746 
L 377.118284 -170.249237 
L 381.002702 -173.103727 
L 384.555438 -175.958217 
L 387.784057 -178.812708 
L 390.620501 -181.667198 
L 393.003857 -184.521688 
L 394.935221 -187.376179 
L 396.478375 -190.230669 
L 397.730379 -193.085159 
L 398.794318 -195.93965 
L 399.760402 -198.79414 
L 400.684938 -201.648631 
L 401.57185 -204.503121 
L 402.378348 -207.357611 
L 403.049132 -210.212102 
L 403.552085 -213.066592 
L 403.889163 -215.921082 
L 404.08745 -218.775573 
L 404.191635 -221.630063 
L 404.262355 -224.484553 
L 404.365322 -227.339044 
L 404.545271 -230.193534 
L 404.804042 -233.048024 
L 405.105976 -235.902515 
L 405.406403 -238.757005 
L 405.675173 -241.611496 
L 405.897649 -244.465986 
L 406.063897 -247.320476 
L 406.165525 -250.174967 
L 406.203398 -253.029457 
L 406.19434 -255.883947 
L 406.167696 -258.738438 
L 406.153749 -261.592928 
L 406.171559 -264.447418 
L 406.222419 -267.301909 
L 406.291862 -270.156399 
L 406.359418 -273.010889 
L 406.410554 -275.86538 
L 406.442787 -278.71987 
L 406.461794 -281.574361 
L 406.471977 -284.428851 
L 406.471184 -287.283341 
L 406.454958 -290.137832 
L 406.425465 -292.992322 
L 406.394618 -295.846812 
L 406.376208 -298.701303 
L 406.373383 -301.555793 
L 406.373862 -304.410283 
L 406.358992 -307.264774 
L 406.319859 -310.119264 
L 406.266939 -312.973754 
L 406.225324 -315.828245 
L 406.219316 -318.682735 
L 406.257907 -321.537226 
L 406.330819 -324.391716 
L 406.416161 -327.246206 
L 406.492765 -330.100697 
L 406.548821 -332.955187 
L 406.583088 -335.809677 
L 406.600776 -338.664168 
L 406.60852 -341.518658 
L 406.6114 -344.373148 
L 406.612303 -347.227639 
L 406.612508 -350.082129 
L 406.612394 -352.936619 
L 406.61178 -355.79111 
L 406.609866 -358.6456 
L 406.604956 -361.500091 
L 406.594492 -364.354581 
L 406.576045 -367.209071 
L 406.549289 -370.063562 
L 406.517404 -372.918052 
L 406.485675 -375.772542 
L 406.457386 -378.627033 
L 406.430939 -381.481523 
L 406.402203 -384.336013 
L 406.370586 -387.190504 
L 406.342552 -390.044994 
L 406.328613 -392.899485 
L 406.336256 -395.753975 
L 406.364254 -398.608465 
L 406.401733 -401.462956 
L 406.432507 -404.317446 
L 406.443252 -407.171936 
L 406.431779 -410.026427 
L 406.409743 -412.880917 
L 406.39635 -415.735407 
L 406.406375 -418.589898 
L 406.818875 -418.589898 
L 406.818875 -418.589898 
L 406.8289 -415.735407 
L 406.815507 -412.880917 
L 406.793471 -410.026427 
L 406.781998 -407.171936 
L 406.792743 -404.317446 
L 406.823517 -401.462956 
L 406.860996 -398.608465 
L 406.888994 -395.753975 
L 406.896637 -392.899485 
L 406.882698 -390.044994 
L 406.854664 -387.190504 
L 406.823047 -384.336013 
L 406.794311 -381.481523 
L 406.767864 -378.627033 
L 406.739575 -375.772542 
L 406.707846 -372.918052 
L 406.675961 -370.063562 
L 406.649205 -367.209071 
L 406.630758 -364.354581 
L 406.620294 -361.500091 
L 406.615384 -358.6456 
L 406.61347 -355.79111 
L 406.612856 -352.936619 
L 406.612742 -350.082129 
L 406.612947 -347.227639 
L 406.61385 -344.373148 
L 406.61673 -341.518658 
L 406.624474 -338.664168 
L 406.642162 -335.809677 
L 406.676429 -332.955187 
L 406.732485 -330.100697 
L 406.809089 -327.246206 
L 406.894431 -324.391716 
L 406.967343 -321.537226 
L 407.005934 -318.682735 
L 406.999926 -315.828245 
L 406.958311 -312.973754 
L 406.905391 -310.119264 
L 406.866258 -307.264774 
L 406.851388 -304.410283 
L 406.851867 -301.555793 
L 406.849042 -298.701303 
L 406.830632 -295.846812 
L 406.799785 -292.992322 
L 406.770292 -290.137832 
L 406.754066 -287.283341 
L 406.753273 -284.428851 
L 406.763456 -281.574361 
L 406.782463 -278.71987 
L 406.814696 -275.86538 
L 406.865832 -273.010889 
L 406.933388 -270.156399 
L 407.002831 -267.301909 
L 407.053691 -264.447418 
L 407.071501 -261.592928 
L 407.057554 -258.738438 
L 407.03091 -255.883947 
L 407.021852 -253.029457 
L 407.059725 -250.174967 
L 407.161353 -247.320476 
L 407.327601 -244.465986 
L 407.550077 -241.611496 
L 407.818847 -238.757005 
L 408.119274 -235.902515 
L 408.421208 -233.048024 
L 408.679979 -230.193534 
L 408.859928 -227.339044 
L 408.962895 -224.484553 
L 409.033615 -221.630063 
L 409.1378 -218.775573 
L 409.336087 -215.921082 
L 409.673165 -213.066592 
L 410.176118 -210.212102 
L 410.846902 -207.357611 
L 411.6534 -204.503121 
L 412.540312 -201.648631 
L 413.464848 -198.79414 
L 414.430932 -195.93965 
L 415.494871 -193.085159 
L 416.746875 -190.230669 
L 418.290029 -187.376179 
L 420.221393 -184.521688 
L 422.604749 -181.667198 
L 425.441193 -178.812708 
L 428.669812 -175.958217 
L 432.222548 -173.103727 
L 436.106966 -170.249237 
L 440.442532 -167.394746 
L 445.383303 -164.540256 
L 450.92584 -161.685765 
L 456.682281 -158.831275 
L 461.754318 -155.976785 
L 464.846625 -153.122294 
L 464.672826 -150.267804 
L 460.528606 -147.413314 
L 452.731886 -144.558823 
L 442.628466 -141.704333 
L 432.103187 -138.849843 
L 422.862262 -135.995352 
z
" style="stroke: #636363; stroke-opacity: 0.9; stroke-width: 1.25"/>
    </defs>
    <g clip-path="url(#pa52ab58422)">
     <use xlink:href="#mecdbf68c7f" x="0" y="482.318062" style="fill: #f7f7c6; fill-opacity: 0.9; stroke: #636363; stroke-opacity: 0.9; stroke-width: 1.25"/>
    </g>
   </g>
   <g id="FillBetweenPolyCollection_3">
    <defs>
     <path id="m8176001b1f" d="M 630.453906 -136.032764 
L 620.567344 -136.032764 
L 615.023045 -137.867934 
L 606.97326 -139.703103 
L 596.85374 -141.538273 
L 585.563176 -143.373443 
L 574.471406 -145.208613 
L 564.856017 -147.043783 
L 557.251137 -148.878953 
L 551.79794 -150.714123 
L 548.718209 -152.549293 
L 548.151944 -154.384463 
L 550.14038 -156.219633 
L 554.577548 -158.054803 
L 560.848202 -159.889973 
L 567.928887 -161.725143 
L 574.796898 -163.560313 
L 580.677568 -165.395482 
L 585.46772 -167.230652 
L 589.790462 -169.065822 
L 594.252593 -170.900992 
L 598.90164 -172.736162 
L 603.307653 -174.571332 
L 607.082426 -176.406502 
L 610.2509 -178.241672 
L 612.847101 -180.076842 
L 614.764236 -181.912012 
L 616.143094 -183.747182 
L 617.314353 -185.582352 
L 618.496053 -187.417522 
L 619.674974 -189.252692 
L 620.638737 -191.087861 
L 621.216092 -192.923031 
L 621.548371 -194.758201 
L 621.935496 -196.593371 
L 622.436881 -198.428541 
L 622.879155 -200.263711 
L 623.178948 -202.098881 
L 623.432193 -203.934051 
L 623.693594 -205.769221 
L 623.871915 -207.604391 
L 623.899718 -209.439561 
L 623.84206 -211.274731 
L 623.804824 -213.109901 
L 623.850314 -214.94507 
L 624.007576 -216.78024 
L 624.248888 -218.61541 
L 624.463922 -220.45058 
L 624.564718 -222.28575 
L 624.573099 -224.12092 
L 624.556934 -225.95609 
L 624.558769 -227.79126 
L 624.566803 -229.62643 
L 624.529626 -231.4616 
L 624.466581 -233.29677 
L 624.476533 -235.13194 
L 624.584304 -236.96711 
L 624.707512 -238.80228 
L 624.784009 -240.637449 
L 624.81756 -242.472619 
L 624.816017 -244.307789 
L 624.778027 -246.142959 
L 624.739248 -247.978129 
L 624.747514 -249.813299 
L 624.781455 -251.648469 
L 624.797118 -253.483639 
L 624.821618 -255.318809 
L 624.898417 -257.153979 
L 625.005455 -258.989149 
L 625.103845 -260.824319 
L 625.189683 -262.659489 
L 625.254725 -264.494659 
L 625.282435 -266.329828 
L 625.276649 -268.164998 
L 625.260749 -270.000168 
L 625.267578 -271.835338 
L 625.303388 -273.670508 
L 625.339577 -275.505678 
L 625.360721 -277.340848 
L 625.37744 -279.176018 
L 625.401889 -281.011188 
L 625.433759 -282.846358 
L 625.459754 -284.681528 
L 625.472206 -286.516698 
L 625.473191 -288.351868 
L 625.455813 -290.187038 
L 625.417504 -292.022207 
L 625.38764 -293.857377 
L 625.399078 -295.692547 
L 625.438697 -297.527717 
L 625.468476 -299.362887 
L 625.479073 -301.198057 
L 625.486386 -303.033227 
L 625.49712 -304.868397 
L 625.505282 -306.703567 
L 625.506179 -308.538737 
L 625.496903 -310.373907 
L 625.47542 -312.209077 
L 625.450781 -314.044247 
L 625.441808 -315.879416 
L 625.455241 -317.714586 
L 625.566009 -317.714586 
L 625.566009 -317.714586 
L 625.579442 -315.879416 
L 625.570469 -314.044247 
L 625.54583 -312.209077 
L 625.524347 -310.373907 
L 625.515071 -308.538737 
L 625.515968 -306.703567 
L 625.52413 -304.868397 
L 625.534864 -303.033227 
L 625.542177 -301.198057 
L 625.552774 -299.362887 
L 625.582553 -297.527717 
L 625.622172 -295.692547 
L 625.63361 -293.857377 
L 625.603746 -292.022207 
L 625.565437 -290.187038 
L 625.548059 -288.351868 
L 625.549044 -286.516698 
L 625.561496 -284.681528 
L 625.587491 -282.846358 
L 625.619361 -281.011188 
L 625.64381 -279.176018 
L 625.660529 -277.340848 
L 625.681673 -275.505678 
L 625.717862 -273.670508 
L 625.753672 -271.835338 
L 625.760501 -270.000168 
L 625.744601 -268.164998 
L 625.738815 -266.329828 
L 625.766525 -264.494659 
L 625.831567 -262.659489 
L 625.917405 -260.824319 
L 626.015795 -258.989149 
L 626.122833 -257.153979 
L 626.199632 -255.318809 
L 626.224132 -253.483639 
L 626.239795 -251.648469 
L 626.273736 -249.813299 
L 626.282002 -247.978129 
L 626.243223 -246.142959 
L 626.205233 -244.307789 
L 626.20369 -242.472619 
L 626.237241 -240.637449 
L 626.313738 -238.80228 
L 626.436946 -236.96711 
L 626.544717 -235.13194 
L 626.554669 -233.29677 
L 626.491624 -231.4616 
L 626.454447 -229.62643 
L 626.462481 -227.79126 
L 626.464316 -225.95609 
L 626.448151 -224.12092 
L 626.456532 -222.28575 
L 626.557328 -220.45058 
L 626.772362 -218.61541 
L 627.013674 -216.78024 
L 627.170936 -214.94507 
L 627.216426 -213.109901 
L 627.17919 -211.274731 
L 627.121532 -209.439561 
L 627.149335 -207.604391 
L 627.327656 -205.769221 
L 627.589057 -203.934051 
L 627.842302 -202.098881 
L 628.142095 -200.263711 
L 628.584369 -198.428541 
L 629.085754 -196.593371 
L 629.472879 -194.758201 
L 629.805158 -192.923031 
L 630.382513 -191.087861 
L 631.346276 -189.252692 
L 632.525197 -187.417522 
L 633.706897 -185.582352 
L 634.878156 -183.747182 
L 636.257014 -181.912012 
L 638.174149 -180.076842 
L 640.77035 -178.241672 
L 643.938824 -176.406502 
L 647.713597 -174.571332 
L 652.11961 -172.736162 
L 656.768657 -170.900992 
L 661.230788 -169.065822 
L 665.55353 -167.230652 
L 670.343682 -165.395482 
L 676.224352 -163.560313 
L 683.092363 -161.725143 
L 690.173048 -159.889973 
L 696.443702 -158.054803 
L 700.88087 -156.219633 
L 702.869306 -154.384463 
L 702.303041 -152.549293 
L 699.22331 -150.714123 
L 693.770113 -148.878953 
L 686.165233 -147.043783 
L 676.549844 -145.208613 
L 665.458074 -143.373443 
L 654.16751 -141.538273 
L 644.04799 -139.703103 
L 635.998205 -137.867934 
L 630.453906 -136.032764 
z
" style="stroke: #636363; stroke-opacity: 0.9; stroke-width: 1.25"/>
    </defs>
    <g clip-path="url(#pa52ab58422)">
     <use xlink:href="#m8176001b1f" x="0" y="482.318062" style="fill: #90c6a6; fill-opacity: 0.9; stroke: #636363; stroke-opacity: 0.9; stroke-width: 1.25"/>
    </g>
   </g>
   <g id="line2d_8">
    <path d="M 187.714625 346.32271 
L 187.714625 294.209082 
" clip-path="url(#pa52ab58422)" style="fill: none; stroke: #636363; stroke-width: 1.875; stroke-linecap: round"/>
   </g>
   <g id="line2d_9">
    <path d="M 187.714625 337.083836 
L 187.714625 319.930356 
" clip-path="url(#pa52ab58422)" style="fill: none; stroke: #636363; stroke-width: 5.625; stroke-linecap: round"/>
   </g>
   <g id="line2d_10">
    <path d="M 187.714625 330.730194 
" clip-path="url(#pa52ab58422)" style="fill: none; stroke: #636363; stroke-width: 1.5; stroke-linecap: round"/>
    <defs>
     <path id="mcdd404f695" d="M 2.34375 0 
L -2.34375 -0 
" style="stroke: #ffffff; stroke-width: 1.125"/>
    </defs>
    <g clip-path="url(#pa52ab58422)">
     <use xlink:href="#mcdd404f695" x="187.714625" y="330.730194" style="fill: #ffffff; stroke: #ffffff; stroke-width: 1.125"/>
    </g>
   </g>
   <g id="line2d_11">
    <path d="M 406.612625 346.32271 
L 406.612625 278.437268 
" clip-path="url(#pa52ab58422)" style="fill: none; stroke: #636363; stroke-width: 1.875; stroke-linecap: round"/>
   </g>
   <g id="line2d_12">
    <path d="M 406.612625 333.210718 
L 406.612625 310.870777 
" clip-path="url(#pa52ab58422)" style="fill: none; stroke: #636363; stroke-width: 5.625; stroke-linecap: round"/>
   </g>
   <g id="line2d_13">
    <path d="M 406.612625 325.445342 
" clip-path="url(#pa52ab58422)" style="fill: none; stroke: #636363; stroke-width: 1.5; stroke-linecap: round"/>
    <g clip-path="url(#pa52ab58422)">
     <use xlink:href="#mcdd404f695" x="406.612625" y="325.445342" style="fill: #ffffff; stroke: #ffffff; stroke-width: 1.125"/>
    </g>
   </g>
   <g id="line2d_14">
    <path d="M 625.510625 346.285299 
L 625.510625 291.25376 
" clip-path="url(#pa52ab58422)" style="fill: none; stroke: #636363; stroke-width: 1.875; stroke-linecap: round"/>
   </g>
   <g id="line2d_15">
    <path d="M 625.510625 332.11199 
L 625.510625 315.76864 
" clip-path="url(#pa52ab58422)" style="fill: none; stroke: #636363; stroke-width: 5.625; stroke-linecap: round"/>
   </g>
   <g id="line2d_16">
    <path d="M 625.510625 325.239824 
" clip-path="url(#pa52ab58422)" style="fill: none; stroke: #636363; stroke-width: 1.5; stroke-linecap: round"/>
    <g clip-path="url(#pa52ab58422)">
     <use xlink:href="#mcdd404f695" x="625.510625" y="325.239824" style="fill: #ffffff; stroke: #ffffff; stroke-width: 1.125"/>
    </g>
   </g>
   <g id="patch_3">
    <path d="M 78.265625 360.452438 
L 78.265625 49.598437 
" style="fill: none; stroke: #cccccc; stroke-width: 1.25; stroke-linejoin: miter; stroke-linecap: square"/>
   </g>
   <g id="patch_4">
    <path d="M 734.959625 360.452438 
L 734.959625 49.598437 
" style="fill: none; stroke: #cccccc; stroke-width: 1.25; stroke-linejoin: miter; stroke-linecap: square"/>
   </g>
   <g id="patch_5">
    <path d="M 78.265625 360.452437 
L 734.959625 360.452437 
" style="fill: none; stroke: #cccccc; stroke-width: 1.25; stroke-linejoin: miter; stroke-linecap: square"/>
   </g>
   <g id="patch_6">
    <path d="M 78.265625 49.598437 
L 734.959625 49.598437 
" style="fill: none; stroke: #cccccc; stroke-width: 1.25; stroke-linejoin: miter; stroke-linecap: square"/>
   </g>
   <g id="text_13">
    <!-- Violin Plot of distances by Level Two Cell Type (Density Normalization: area) -->
    <g style="fill: #262626" transform="translate(217.367313 43.598437) scale(0.1 -0.1)">
     <defs>
      <path id="DejaVuSans-56" d="M 1831 0 
L 50 4666 
L 709 4666 
L 2188 738 
L 3669 4666 
L 4325 4666 
L 2547 0 
L 1831 0 
z
" transform="scale(0.015625)"/>
      <path id="DejaVuSans-50" d="M 1259 4147 
L 1259 2394 
L 2053 2394 
Q 2494 2394 2734 2622 
Q 2975 2850 2975 3272 
Q 2975 3691 2734 3919 
Q 2494 4147 2053 4147 
L 1259 4147 
z
M 628 4666 
L 2053 4666 
Q 2838 4666 3239 4311 
Q 3641 3956 3641 3272 
Q 3641 2581 3239 2228 
Q 2838 1875 2053 1875 
L 1259 1875 
L 1259 0 
L 628 0 
L 628 4666 
z
" transform="scale(0.015625)"/>
      <path id="DejaVuSans-66" d="M 2375 4863 
L 2375 4384 
L 1825 4384 
Q 1516 4384 1395 4259 
Q 1275 4134 1275 3809 
L 1275 3500 
L 2222 3500 
L 2222 3053 
L 1275 3053 
L 1275 0 
L 697 0 
L 697 3053 
L 147 3053 
L 147 3500 
L 697 3500 
L 697 3744 
Q 697 4328 969 4595 
Q 1241 4863 1831 4863 
L 2375 4863 
z
" transform="scale(0.015625)"/>
      <path id="DejaVuSans-64" d="M 2906 2969 
L 2906 4863 
L 3481 4863 
L 3481 0 
L 2906 0 
L 2906 525 
Q 2725 213 2448 61 
Q 2172 -91 1784 -91 
Q 1150 -91 751 415 
Q 353 922 353 1747 
Q 353 2572 751 3078 
Q 1150 3584 1784 3584 
Q 2172 3584 2448 3432 
Q 2725 3281 2906 2969 
z
M 947 1747 
Q 947 1113 1208 752 
Q 1469 391 1925 391 
Q 2381 391 2643 752 
Q 2906 1113 2906 1747 
Q 2906 2381 2643 2742 
Q 2381 3103 1925 3103 
Q 1469 3103 1208 2742 
Q 947 2381 947 1747 
z
" transform="scale(0.015625)"/>
      <path id="DejaVuSans-62" d="M 3116 1747 
Q 3116 2381 2855 2742 
Q 2594 3103 2138 3103 
Q 1681 3103 1420 2742 
Q 1159 2381 1159 1747 
Q 1159 1113 1420 752 
Q 1681 391 2138 391 
Q 2594 391 2855 752 
Q 3116 1113 3116 1747 
z
M 1159 2969 
Q 1341 3281 1617 3432 
Q 1894 3584 2278 3584 
Q 2916 3584 3314 3078 
Q 3713 2572 3713 1747 
Q 3713 922 3314 415 
Q 2916 -91 2278 -91 
Q 1894 -91 1617 61 
Q 1341 213 1159 525 
L 1159 0 
L 581 0 
L 581 4863 
L 1159 4863 
L 1159 2969 
z
" transform="scale(0.015625)"/>
      <path id="DejaVuSans-4e" d="M 628 4666 
L 1478 4666 
L 3547 763 
L 3547 4666 
L 4159 4666 
L 4159 0 
L 3309 0 
L 1241 3903 
L 1241 0 
L 628 0 
L 628 4666 
z
" transform="scale(0.015625)"/>
      <path id="DejaVuSans-7a" d="M 353 3500 
L 3084 3500 
L 3084 2975 
L 922 459 
L 3084 459 
L 3084 0 
L 275 0 
L 275 525 
L 2438 3041 
L 353 3041 
L 353 3500 
z
" transform="scale(0.015625)"/>
      <path id="DejaVuSans-3a" d="M 750 794 
L 1409 794 
L 1409 0 
L 750 0 
L 750 794 
z
M 750 3309 
L 1409 3309 
L 1409 2516 
L 750 2516 
L 750 3309 
z
" transform="scale(0.015625)"/>
     </defs>
     <use xlink:href="#DejaVuSans-56"/>
     <use xlink:href="#DejaVuSans-69" transform="translate(66.158203 0)"/>
     <use xlink:href="#DejaVuSans-6f" transform="translate(93.941406 0)"/>
     <use xlink:href="#DejaVuSans-6c" transform="translate(155.123047 0)"/>
     <use xlink:href="#DejaVuSans-69" transform="translate(182.90625 0)"/>
     <use xlink:href="#DejaVuSans-6e" transform="translate(210.689453 0)"/>
     <use xlink:href="#DejaVuSans-20" transform="translate(274.068359 0)"/>
     <use xlink:href="#DejaVuSans-50" transform="translate(305.855469 0)"/>
     <use xlink:href="#DejaVuSans-6c" transform="translate(366.158203 0)"/>
     <use xlink:href="#DejaVuSans-6f" transform="translate(393.941406 0)"/>
     <use xlink:href="#DejaVuSans-74" transform="translate(455.123047 0)"/>
     <use xlink:href="#DejaVuSans-20" transform="translate(494.332031 0)"/>
     <use xlink:href="#DejaVuSans-6f" transform="translate(526.119141 0)"/>
     <use xlink:href="#DejaVuSans-66" transform="translate(587.300781 0)"/>
     <use xlink:href="#DejaVuSans-20" transform="translate(622.505859 0)"/>
     <use xlink:href="#DejaVuSans-64" transform="translate(654.292969 0)"/>
     <use xlink:href="#DejaVuSans-69" transform="translate(717.769531 0)"/>
     <use xlink:href="#DejaVuSans-73" transform="translate(745.552734 0)"/>
     <use xlink:href="#DejaVuSans-74" transform="translate(797.652344 0)"/>
     <use xlink:href="#DejaVuSans-61" transform="translate(836.861328 0)"/>
     <use xlink:href="#DejaVuSans-6e" transform="translate(898.140625 0)"/>
     <use xlink:href="#DejaVuSans-63" transform="translate(961.519531 0)"/>
     <use xlink:href="#DejaVuSans-65" transform="translate(1016.5 0)"/>
     <use xlink:href="#DejaVuSans-73" transform="translate(1078.023438 0)"/>
     <use xlink:href="#DejaVuSans-20" transform="translate(1130.123047 0)"/>
     <use xlink:href="#DejaVuSans-62" transform="translate(1161.910156 0)"/>
     <use xlink:href="#DejaVuSans-79" transform="translate(1225.386719 0)"/>
     <use xlink:href="#DejaVuSans-20" transform="translate(1284.566406 0)"/>
     <use xlink:href="#DejaVuSans-4c" transform="translate(1316.353516 0)"/>
     <use xlink:href="#DejaVuSans-65" transform="translate(1370.316406 0)"/>
     <use xlink:href="#DejaVuSans-76" transform="translate(1431.839844 0)"/>
     <use xlink:href="#DejaVuSans-65" transform="translate(1491.019531 0)"/>
     <use xlink:href="#DejaVuSans-6c" transform="translate(1552.542969 0)"/>
     <use xlink:href="#DejaVuSans-20" transform="translate(1580.326172 0)"/>
     <use xlink:href="#DejaVuSans-54" transform="translate(1612.113281 0)"/>
     <use xlink:href="#DejaVuSans-77" transform="translate(1656.697266 0)"/>
     <use xlink:href="#DejaVuSans-6f" transform="translate(1738.484375 0)"/>
     <use xlink:href="#DejaVuSans-20" transform="translate(1799.666016 0)"/>
     <use xlink:href="#DejaVuSans-43" transform="translate(1831.453125 0)"/>
     <use xlink:href="#DejaVuSans-65" transform="translate(1901.277344 0)"/>
     <use xlink:href="#DejaVuSans-6c" transform="translate(1962.800781 0)"/>
     <use xlink:href="#DejaVuSans-6c" transform="translate(1990.583984 0)"/>
     <use xlink:href="#DejaVuSans-20" transform="translate(2018.367188 0)"/>
     <use xlink:href="#DejaVuSans-54" transform="translate(2050.154297 0)"/>
     <use xlink:href="#DejaVuSans-79" transform="translate(2095.613281 0)"/>
     <use xlink:href="#DejaVuSans-70" transform="translate(2154.792969 0)"/>
     <use xlink:href="#DejaVuSans-65" transform="translate(2218.269531 0)"/>
     <use xlink:href="#DejaVuSans-20" transform="translate(2279.792969 0)"/>
     <use xlink:href="#DejaVuSans-28" transform="translate(2311.580078 0)"/>
     <use xlink:href="#DejaVuSans-44" transform="translate(2350.59375 0)"/>
     <use xlink:href="#DejaVuSans-65" transform="translate(2427.595703 0)"/>
     <use xlink:href="#DejaVuSans-6e" transform="translate(2489.119141 0)"/>
     <use xlink:href="#DejaVuSans-73" transform="translate(2552.498047 0)"/>
     <use xlink:href="#DejaVuSans-69" transform="translate(2604.597656 0)"/>
     <use xlink:href="#DejaVuSans-74" transform="translate(2632.380859 0)"/>
     <use xlink:href="#DejaVuSans-79" transform="translate(2671.589844 0)"/>
     <use xlink:href="#DejaVuSans-20" transform="translate(2730.769531 0)"/>
     <use xlink:href="#DejaVuSans-4e" transform="translate(2762.556641 0)"/>
     <use xlink:href="#DejaVuSans-6f" transform="translate(2837.361328 0)"/>
     <use xlink:href="#DejaVuSans-72" transform="translate(2898.542969 0)"/>
     <use xlink:href="#DejaVuSans-6d" transform="translate(2937.90625 0)"/>
     <use xlink:href="#DejaVuSans-61" transform="translate(3035.318359 0)"/>
     <use xlink:href="#DejaVuSans-6c" transform="translate(3096.597656 0)"/>
     <use xlink:href="#DejaVuSans-69" transform="translate(3124.380859 0)"/>
     <use xlink:href="#DejaVuSans-7a" transform="translate(3152.164062 0)"/>
     <use xlink:href="#DejaVuSans-61" transform="translate(3204.654297 0)"/>
     <use xlink:href="#DejaVuSans-74" transform="translate(3265.933594 0)"/>
     <use xlink:href="#DejaVuSans-69" transform="translate(3305.142578 0)"/>
     <use xlink:href="#DejaVuSans-6f" transform="translate(3332.925781 0)"/>
     <use xlink:href="#DejaVuSans-6e" transform="translate(3394.107422 0)"/>
     <use xlink:href="#DejaVuSans-3a" transform="translate(3457.486328 0)"/>
     <use xlink:href="#DejaVuSans-20" transform="translate(3491.177734 0)"/>
     <use xlink:href="#DejaVuSans-61" transform="translate(3522.964844 0)"/>
     <use xlink:href="#DejaVuSans-72" transform="translate(3584.244141 0)"/>
     <use xlink:href="#DejaVuSans-65" transform="translate(3623.107422 0)"/>
     <use xlink:href="#DejaVuSans-61" transform="translate(3684.630859 0)"/>
     <use xlink:href="#DejaVuSans-29" transform="translate(3745.910156 0)"/>
    </g>
   </g>
   <g id="legend_1">
    <g id="patch_7">
     <path d="M 723.959625 62.598437 
L 727.959625 62.598437 
Q 729.959625 62.598437 729.959625 60.598437 
L 729.959625 56.598437 
Q 729.959625 54.598437 727.959625 54.598437 
L 723.959625 54.598437 
Q 721.959625 54.598437 721.959625 56.598437 
L 721.959625 60.598437 
Q 721.959625 62.598437 723.959625 62.598437 
z
" style="fill: #ffffff; opacity: 0.8; stroke: #cccccc; stroke-width: 0.8; stroke-linejoin: miter"/>
    </g>
   </g>
  </g>
 </g>
 <defs>
  <clipPath id="pa52ab58422">
   <rect x="78.265625" y="49.598437" width="656.694" height="310.854"/>
  </clipPath>
 </defs>
</svg>
