<?xml version="1.0" encoding="utf-8" standalone="no"?>
<!DOCTYPE svg PUBLIC "-//W3C//DTD SVG 1.1//EN"
  "http://www.w3.org/Graphics/SVG/1.1/DTD/svg11.dtd">
<svg xmlns:xlink="http://www.w3.org/1999/xlink" width="1202.852375pt" height="626.479625pt" viewBox="0 0 1202.852375 626.479625" xmlns="http://www.w3.org/2000/svg" version="1.1">
 <metadata>
  <rdf:RDF xmlns:dc="http://purl.org/dc/elements/1.1/" xmlns:cc="http://creativecommons.org/ns#" xmlns:rdf="http://www.w3.org/1999/02/22-rdf-syntax-ns#">
   <cc:Work>
    <dc:type rdf:resource="http://purl.org/dc/dcmitype/StillImage"/>
    <dc:date>2025-07-02T16:22:54.657707</dc:date>
    <dc:format>image/svg+xml</dc:format>
    <dc:creator>
     <cc:Agent>
      <dc:title>Matplotlib v3.10.3, https://matplotlib.org/</dc:title>
     </cc:Agent>
    </dc:creator>
   </cc:Work>
  </rdf:RDF>
 </metadata>
 <defs>
  <style type="text/css">*{stroke-linejoin: round; stroke-linecap: butt}</style>
 </defs>
 <g id="figure_1">
  <g id="patch_1">
   <path d="M 0 626.479625 
L 1202.852375 626.479625 
L 1202.852375 0 
L 0 0 
z
" style="fill: #ffffff"/>
  </g>
  <g id="axes_1">
   <g id="patch_2">
    <path d="M 70.703125 501.962438 
L 1087.347125 501.962438 
L 1087.347125 49.598438 
L 70.703125 49.598438 
z
" style="fill: #ffffff"/>
   </g>
   <g id="matplotlib.axis_1">
    <g id="xtick_1">
     <g id="text_1">
      <!-- immune cell -->
      <g style="fill: #262626" transform="translate(322.784438 571.735875) rotate(-90) scale(0.1 -0.1)">
       <defs>
        <path id="DejaVuSans-69" d="M 603 3500 
L 1178 3500 
L 1178 0 
L 603 0 
L 603 3500 
z
M 603 4863 
L 1178 4863 
L 1178 4134 
L 603 4134 
L 603 4863 
z
" transform="scale(0.015625)"/>
        <path id="DejaVuSans-6d" d="M 3328 2828 
Q 3544 3216 3844 3400 
Q 4144 3584 4550 3584 
Q 5097 3584 5394 3201 
Q 5691 2819 5691 2113 
L 5691 0 
L 5113 0 
L 5113 2094 
Q 5113 2597 4934 2840 
Q 4756 3084 4391 3084 
Q 3944 3084 3684 2787 
Q 3425 2491 3425 1978 
L 3425 0 
L 2847 0 
L 2847 2094 
Q 2847 2600 2669 2842 
Q 2491 3084 2119 3084 
Q 1678 3084 1418 2786 
Q 1159 2488 1159 1978 
L 1159 0 
L 581 0 
L 581 3500 
L 1159 3500 
L 1159 2956 
Q 1356 3278 1631 3431 
Q 1906 3584 2284 3584 
Q 2666 3584 2933 3390 
Q 3200 3197 3328 2828 
z
" transform="scale(0.015625)"/>
        <path id="DejaVuSans-75" d="M 544 1381 
L 544 3500 
L 1119 3500 
L 1119 1403 
Q 1119 906 1312 657 
Q 1506 409 1894 409 
Q 2359 409 2629 706 
Q 2900 1003 2900 1516 
L 2900 3500 
L 3475 3500 
L 3475 0 
L 2900 0 
L 2900 538 
Q 2691 219 2414 64 
Q 2138 -91 1772 -91 
Q 1169 -91 856 284 
Q 544 659 544 1381 
z
M 1991 3584 
L 1991 3584 
z
" transform="scale(0.015625)"/>
        <path id="DejaVuSans-6e" d="M 3513 2113 
L 3513 0 
L 2938 0 
L 2938 2094 
Q 2938 2591 2744 2837 
Q 2550 3084 2163 3084 
Q 1697 3084 1428 2787 
Q 1159 2491 1159 1978 
L 1159 0 
L 581 0 
L 581 3500 
L 1159 3500 
L 1159 2956 
Q 1366 3272 1645 3428 
Q 1925 3584 2291 3584 
Q 2894 3584 3203 3211 
Q 3513 2838 3513 2113 
z
" transform="scale(0.015625)"/>
        <path id="DejaVuSans-65" d="M 3597 1894 
L 3597 1613 
L 953 1613 
Q 991 1019 1311 708 
Q 1631 397 2203 397 
Q 2534 397 2845 478 
Q 3156 559 3463 722 
L 3463 178 
Q 3153 47 2828 -22 
Q 2503 -91 2169 -91 
Q 1331 -91 842 396 
Q 353 884 353 1716 
Q 353 2575 817 3079 
Q 1281 3584 2069 3584 
Q 2775 3584 3186 3129 
Q 3597 2675 3597 1894 
z
M 3022 2063 
Q 3016 2534 2758 2815 
Q 2500 3097 2075 3097 
Q 1594 3097 1305 2825 
Q 1016 2553 972 2059 
L 3022 2063 
z
" transform="scale(0.015625)"/>
        <path id="DejaVuSans-20" transform="scale(0.015625)"/>
        <path id="DejaVuSans-63" d="M 3122 3366 
L 3122 2828 
Q 2878 2963 2633 3030 
Q 2388 3097 2138 3097 
Q 1578 3097 1268 2742 
Q 959 2388 959 1747 
Q 959 1106 1268 751 
Q 1578 397 2138 397 
Q 2388 397 2633 464 
Q 2878 531 3122 666 
L 3122 134 
Q 2881 22 2623 -34 
Q 2366 -91 2075 -91 
Q 1284 -91 818 406 
Q 353 903 353 1747 
Q 353 2603 823 3093 
Q 1294 3584 2113 3584 
Q 2378 3584 2631 3529 
Q 2884 3475 3122 3366 
z
" transform="scale(0.015625)"/>
        <path id="DejaVuSans-6c" d="M 603 4863 
L 1178 4863 
L 1178 0 
L 603 0 
L 603 4863 
z
" transform="scale(0.015625)"/>
       </defs>
       <use xlink:href="#DejaVuSans-69"/>
       <use xlink:href="#DejaVuSans-6d" transform="translate(27.783203 0)"/>
       <use xlink:href="#DejaVuSans-6d" transform="translate(125.195312 0)"/>
       <use xlink:href="#DejaVuSans-75" transform="translate(222.607422 0)"/>
       <use xlink:href="#DejaVuSans-6e" transform="translate(285.986328 0)"/>
       <use xlink:href="#DejaVuSans-65" transform="translate(349.365234 0)"/>
       <use xlink:href="#DejaVuSans-20" transform="translate(410.888672 0)"/>
       <use xlink:href="#DejaVuSans-63" transform="translate(442.675781 0)"/>
       <use xlink:href="#DejaVuSans-65" transform="translate(497.65625 0)"/>
       <use xlink:href="#DejaVuSans-6c" transform="translate(559.179688 0)"/>
       <use xlink:href="#DejaVuSans-6c" transform="translate(586.962891 0)"/>
      </g>
     </g>
    </g>
    <g id="xtick_2">
     <g id="text_2">
      <!-- epithelial cell -->
      <g style="fill: #262626" transform="translate(831.106437 576.8015) rotate(-90) scale(0.1 -0.1)">
       <defs>
        <path id="DejaVuSans-70" d="M 1159 525 
L 1159 -1331 
L 581 -1331 
L 581 3500 
L 1159 3500 
L 1159 2969 
Q 1341 3281 1617 3432 
Q 1894 3584 2278 3584 
Q 2916 3584 3314 3078 
Q 3713 2572 3713 1747 
Q 3713 922 3314 415 
Q 2916 -91 2278 -91 
Q 1894 -91 1617 61 
Q 1341 213 1159 525 
z
M 3116 1747 
Q 3116 2381 2855 2742 
Q 2594 3103 2138 3103 
Q 1681 3103 1420 2742 
Q 1159 2381 1159 1747 
Q 1159 1113 1420 752 
Q 1681 391 2138 391 
Q 2594 391 2855 752 
Q 3116 1113 3116 1747 
z
" transform="scale(0.015625)"/>
        <path id="DejaVuSans-74" d="M 1172 4494 
L 1172 3500 
L 2356 3500 
L 2356 3053 
L 1172 3053 
L 1172 1153 
Q 1172 725 1289 603 
Q 1406 481 1766 481 
L 2356 481 
L 2356 0 
L 1766 0 
Q 1100 0 847 248 
Q 594 497 594 1153 
L 594 3053 
L 172 3053 
L 172 3500 
L 594 3500 
L 594 4494 
L 1172 4494 
z
" transform="scale(0.015625)"/>
        <path id="DejaVuSans-68" d="M 3513 2113 
L 3513 0 
L 2938 0 
L 2938 2094 
Q 2938 2591 2744 2837 
Q 2550 3084 2163 3084 
Q 1697 3084 1428 2787 
Q 1159 2491 1159 1978 
L 1159 0 
L 581 0 
L 581 4863 
L 1159 4863 
L 1159 2956 
Q 1366 3272 1645 3428 
Q 1925 3584 2291 3584 
Q 2894 3584 3203 3211 
Q 3513 2838 3513 2113 
z
" transform="scale(0.015625)"/>
        <path id="DejaVuSans-61" d="M 2194 1759 
Q 1497 1759 1228 1600 
Q 959 1441 959 1056 
Q 959 750 1161 570 
Q 1363 391 1709 391 
Q 2188 391 2477 730 
Q 2766 1069 2766 1631 
L 2766 1759 
L 2194 1759 
z
M 3341 1997 
L 3341 0 
L 2766 0 
L 2766 531 
Q 2569 213 2275 61 
Q 1981 -91 1556 -91 
Q 1019 -91 701 211 
Q 384 513 384 1019 
Q 384 1609 779 1909 
Q 1175 2209 1959 2209 
L 2766 2209 
L 2766 2266 
Q 2766 2663 2505 2880 
Q 2244 3097 1772 3097 
Q 1472 3097 1187 3025 
Q 903 2953 641 2809 
L 641 3341 
Q 956 3463 1253 3523 
Q 1550 3584 1831 3584 
Q 2591 3584 2966 3190 
Q 3341 2797 3341 1997 
z
" transform="scale(0.015625)"/>
       </defs>
       <use xlink:href="#DejaVuSans-65"/>
       <use xlink:href="#DejaVuSans-70" transform="translate(61.523438 0)"/>
       <use xlink:href="#DejaVuSans-69" transform="translate(125 0)"/>
       <use xlink:href="#DejaVuSans-74" transform="translate(152.783203 0)"/>
       <use xlink:href="#DejaVuSans-68" transform="translate(191.992188 0)"/>
       <use xlink:href="#DejaVuSans-65" transform="translate(255.371094 0)"/>
       <use xlink:href="#DejaVuSans-6c" transform="translate(316.894531 0)"/>
       <use xlink:href="#DejaVuSans-69" transform="translate(344.677734 0)"/>
       <use xlink:href="#DejaVuSans-61" transform="translate(372.460938 0)"/>
       <use xlink:href="#DejaVuSans-6c" transform="translate(433.740234 0)"/>
       <use xlink:href="#DejaVuSans-20" transform="translate(461.523438 0)"/>
       <use xlink:href="#DejaVuSans-63" transform="translate(493.310547 0)"/>
       <use xlink:href="#DejaVuSans-65" transform="translate(548.291016 0)"/>
       <use xlink:href="#DejaVuSans-6c" transform="translate(609.814453 0)"/>
       <use xlink:href="#DejaVuSans-6c" transform="translate(637.597656 0)"/>
      </g>
     </g>
    </g>
    <g id="text_3">
     <!-- Level One Cell Type -->
     <g style="fill: #262626" transform="translate(530.047781 588.399938) scale(0.1 -0.1)">
      <defs>
       <path id="DejaVuSans-4c" d="M 628 4666 
L 1259 4666 
L 1259 531 
L 3531 531 
L 3531 0 
L 628 0 
L 628 4666 
z
" transform="scale(0.015625)"/>
       <path id="DejaVuSans-76" d="M 191 3500 
L 800 3500 
L 1894 563 
L 2988 3500 
L 3597 3500 
L 2284 0 
L 1503 0 
L 191 3500 
z
" transform="scale(0.015625)"/>
       <path id="DejaVuSans-4f" d="M 2522 4238 
Q 1834 4238 1429 3725 
Q 1025 3213 1025 2328 
Q 1025 1447 1429 934 
Q 1834 422 2522 422 
Q 3209 422 3611 934 
Q 4013 1447 4013 2328 
Q 4013 3213 3611 3725 
Q 3209 4238 2522 4238 
z
M 2522 4750 
Q 3503 4750 4090 4092 
Q 4678 3434 4678 2328 
Q 4678 1225 4090 567 
Q 3503 -91 2522 -91 
Q 1538 -91 948 565 
Q 359 1222 359 2328 
Q 359 3434 948 4092 
Q 1538 4750 2522 4750 
z
" transform="scale(0.015625)"/>
       <path id="DejaVuSans-43" d="M 4122 4306 
L 4122 3641 
Q 3803 3938 3442 4084 
Q 3081 4231 2675 4231 
Q 1875 4231 1450 3742 
Q 1025 3253 1025 2328 
Q 1025 1406 1450 917 
Q 1875 428 2675 428 
Q 3081 428 3442 575 
Q 3803 722 4122 1019 
L 4122 359 
Q 3791 134 3420 21 
Q 3050 -91 2638 -91 
Q 1578 -91 968 557 
Q 359 1206 359 2328 
Q 359 3453 968 4101 
Q 1578 4750 2638 4750 
Q 3056 4750 3426 4639 
Q 3797 4528 4122 4306 
z
" transform="scale(0.015625)"/>
       <path id="DejaVuSans-54" d="M -19 4666 
L 3928 4666 
L 3928 4134 
L 2272 4134 
L 2272 0 
L 1638 0 
L 1638 4134 
L -19 4134 
L -19 4666 
z
" transform="scale(0.015625)"/>
       <path id="DejaVuSans-79" d="M 2059 -325 
Q 1816 -950 1584 -1140 
Q 1353 -1331 966 -1331 
L 506 -1331 
L 506 -850 
L 844 -850 
Q 1081 -850 1212 -737 
Q 1344 -625 1503 -206 
L 1606 56 
L 191 3500 
L 800 3500 
L 1894 763 
L 2988 3500 
L 3597 3500 
L 2059 -325 
z
" transform="scale(0.015625)"/>
      </defs>
      <use xlink:href="#DejaVuSans-4c"/>
      <use xlink:href="#DejaVuSans-65" transform="translate(53.962891 0)"/>
      <use xlink:href="#DejaVuSans-76" transform="translate(115.486328 0)"/>
      <use xlink:href="#DejaVuSans-65" transform="translate(174.666016 0)"/>
      <use xlink:href="#DejaVuSans-6c" transform="translate(236.189453 0)"/>
      <use xlink:href="#DejaVuSans-20" transform="translate(263.972656 0)"/>
      <use xlink:href="#DejaVuSans-4f" transform="translate(295.759766 0)"/>
      <use xlink:href="#DejaVuSans-6e" transform="translate(374.470703 0)"/>
      <use xlink:href="#DejaVuSans-65" transform="translate(437.849609 0)"/>
      <use xlink:href="#DejaVuSans-20" transform="translate(499.373047 0)"/>
      <use xlink:href="#DejaVuSans-43" transform="translate(531.160156 0)"/>
      <use xlink:href="#DejaVuSans-65" transform="translate(600.984375 0)"/>
      <use xlink:href="#DejaVuSans-6c" transform="translate(662.507812 0)"/>
      <use xlink:href="#DejaVuSans-6c" transform="translate(690.291016 0)"/>
      <use xlink:href="#DejaVuSans-20" transform="translate(718.074219 0)"/>
      <use xlink:href="#DejaVuSans-54" transform="translate(749.861328 0)"/>
      <use xlink:href="#DejaVuSans-79" transform="translate(795.320312 0)"/>
      <use xlink:href="#DejaVuSans-70" transform="translate(854.5 0)"/>
      <use xlink:href="#DejaVuSans-65" transform="translate(917.976562 0)"/>
     </g>
    </g>
   </g>
   <g id="matplotlib.axis_2">
    <g id="ytick_1">
     <g id="line2d_1">
      <path d="M 70.703125 481.400438 
L 1087.347125 481.400438 
" clip-path="url(#p6574196f99)" style="fill: none; stroke: #cccccc; stroke-width: 0.8; stroke-linecap: round"/>
     </g>
     <g id="text_4">
      <!-- 0 -->
      <g style="fill: #262626" transform="translate(56.040625 485.199656) scale(0.1 -0.1)">
       <defs>
        <path id="DejaVuSans-30" d="M 2034 4250 
Q 1547 4250 1301 3770 
Q 1056 3291 1056 2328 
Q 1056 1369 1301 889 
Q 1547 409 2034 409 
Q 2525 409 2770 889 
Q 3016 1369 3016 2328 
Q 3016 3291 2770 3770 
Q 2525 4250 2034 4250 
z
M 2034 4750 
Q 2819 4750 3233 4129 
Q 3647 3509 3647 2328 
Q 3647 1150 3233 529 
Q 2819 -91 2034 -91 
Q 1250 -91 836 529 
Q 422 1150 422 2328 
Q 422 3509 836 4129 
Q 1250 4750 2034 4750 
z
" transform="scale(0.015625)"/>
       </defs>
       <use xlink:href="#DejaVuSans-30"/>
      </g>
     </g>
    </g>
    <g id="ytick_2">
     <g id="line2d_2">
      <path d="M 70.703125 383.179957 
L 1087.347125 383.179957 
" clip-path="url(#p6574196f99)" style="fill: none; stroke: #cccccc; stroke-width: 0.8; stroke-linecap: round"/>
     </g>
     <g id="text_5">
      <!-- 10 -->
      <g style="fill: #262626" transform="translate(49.678125 386.979176) scale(0.1 -0.1)">
       <defs>
        <path id="DejaVuSans-31" d="M 794 531 
L 1825 531 
L 1825 4091 
L 703 3866 
L 703 4441 
L 1819 4666 
L 2450 4666 
L 2450 531 
L 3481 531 
L 3481 0 
L 794 0 
L 794 531 
z
" transform="scale(0.015625)"/>
       </defs>
       <use xlink:href="#DejaVuSans-31"/>
       <use xlink:href="#DejaVuSans-30" transform="translate(63.623047 0)"/>
      </g>
     </g>
    </g>
    <g id="ytick_3">
     <g id="line2d_3">
      <path d="M 70.703125 284.959477 
L 1087.347125 284.959477 
" clip-path="url(#p6574196f99)" style="fill: none; stroke: #cccccc; stroke-width: 0.8; stroke-linecap: round"/>
     </g>
     <g id="text_6">
      <!-- 20 -->
      <g style="fill: #262626" transform="translate(49.678125 288.758696) scale(0.1 -0.1)">
       <defs>
        <path id="DejaVuSans-32" d="M 1228 531 
L 3431 531 
L 3431 0 
L 469 0 
L 469 531 
Q 828 903 1448 1529 
Q 2069 2156 2228 2338 
Q 2531 2678 2651 2914 
Q 2772 3150 2772 3378 
Q 2772 3750 2511 3984 
Q 2250 4219 1831 4219 
Q 1534 4219 1204 4116 
Q 875 4013 500 3803 
L 500 4441 
Q 881 4594 1212 4672 
Q 1544 4750 1819 4750 
Q 2544 4750 2975 4387 
Q 3406 4025 3406 3419 
Q 3406 3131 3298 2873 
Q 3191 2616 2906 2266 
Q 2828 2175 2409 1742 
Q 1991 1309 1228 531 
z
" transform="scale(0.015625)"/>
       </defs>
       <use xlink:href="#DejaVuSans-32"/>
       <use xlink:href="#DejaVuSans-30" transform="translate(63.623047 0)"/>
      </g>
     </g>
    </g>
    <g id="ytick_4">
     <g id="line2d_4">
      <path d="M 70.703125 186.738997 
L 1087.347125 186.738997 
" clip-path="url(#p6574196f99)" style="fill: none; stroke: #cccccc; stroke-width: 0.8; stroke-linecap: round"/>
     </g>
     <g id="text_7">
      <!-- 30 -->
      <g style="fill: #262626" transform="translate(49.678125 190.538216) scale(0.1 -0.1)">
       <defs>
        <path id="DejaVuSans-33" d="M 2597 2516 
Q 3050 2419 3304 2112 
Q 3559 1806 3559 1356 
Q 3559 666 3084 287 
Q 2609 -91 1734 -91 
Q 1441 -91 1130 -33 
Q 819 25 488 141 
L 488 750 
Q 750 597 1062 519 
Q 1375 441 1716 441 
Q 2309 441 2620 675 
Q 2931 909 2931 1356 
Q 2931 1769 2642 2001 
Q 2353 2234 1838 2234 
L 1294 2234 
L 1294 2753 
L 1863 2753 
Q 2328 2753 2575 2939 
Q 2822 3125 2822 3475 
Q 2822 3834 2567 4026 
Q 2313 4219 1838 4219 
Q 1578 4219 1281 4162 
Q 984 4106 628 3988 
L 628 4550 
Q 988 4650 1302 4700 
Q 1616 4750 1894 4750 
Q 2613 4750 3031 4423 
Q 3450 4097 3450 3541 
Q 3450 3153 3228 2886 
Q 3006 2619 2597 2516 
z
" transform="scale(0.015625)"/>
       </defs>
       <use xlink:href="#DejaVuSans-33"/>
       <use xlink:href="#DejaVuSans-30" transform="translate(63.623047 0)"/>
      </g>
     </g>
    </g>
    <g id="ytick_5">
     <g id="line2d_5">
      <path d="M 70.703125 88.518517 
L 1087.347125 88.518517 
" clip-path="url(#p6574196f99)" style="fill: none; stroke: #cccccc; stroke-width: 0.8; stroke-linecap: round"/>
     </g>
     <g id="text_8">
      <!-- 40 -->
      <g style="fill: #262626" transform="translate(49.678125 92.317736) scale(0.1 -0.1)">
       <defs>
        <path id="DejaVuSans-34" d="M 2419 4116 
L 825 1625 
L 2419 1625 
L 2419 4116 
z
M 2253 4666 
L 3047 4666 
L 3047 1625 
L 3713 1625 
L 3713 1100 
L 3047 1100 
L 3047 0 
L 2419 0 
L 2419 1100 
L 313 1100 
L 313 1709 
L 2253 4666 
z
" transform="scale(0.015625)"/>
       </defs>
       <use xlink:href="#DejaVuSans-34"/>
       <use xlink:href="#DejaVuSans-30" transform="translate(63.623047 0)"/>
      </g>
     </g>
    </g>
    <g id="text_9">
     <!-- Distance (μm) -->
     <g style="fill: #262626" transform="translate(43.598438 311.185125) rotate(-90) scale(0.1 -0.1)">
      <defs>
       <path id="DejaVuSans-44" d="M 1259 4147 
L 1259 519 
L 2022 519 
Q 2988 519 3436 956 
Q 3884 1394 3884 2338 
Q 3884 3275 3436 3711 
Q 2988 4147 2022 4147 
L 1259 4147 
z
M 628 4666 
L 1925 4666 
Q 3281 4666 3915 4102 
Q 4550 3538 4550 2338 
Q 4550 1131 3912 565 
Q 3275 0 1925 0 
L 628 0 
L 628 4666 
z
" transform="scale(0.015625)"/>
       <path id="DejaVuSans-73" d="M 2834 3397 
L 2834 2853 
Q 2591 2978 2328 3040 
Q 2066 3103 1784 3103 
Q 1356 3103 1142 2972 
Q 928 2841 928 2578 
Q 928 2378 1081 2264 
Q 1234 2150 1697 2047 
L 1894 2003 
Q 2506 1872 2764 1633 
Q 3022 1394 3022 966 
Q 3022 478 2636 193 
Q 2250 -91 1575 -91 
Q 1294 -91 989 -36 
Q 684 19 347 128 
L 347 722 
Q 666 556 975 473 
Q 1284 391 1588 391 
Q 1994 391 2212 530 
Q 2431 669 2431 922 
Q 2431 1156 2273 1281 
Q 2116 1406 1581 1522 
L 1381 1569 
Q 847 1681 609 1914 
Q 372 2147 372 2553 
Q 372 3047 722 3315 
Q 1072 3584 1716 3584 
Q 2034 3584 2315 3537 
Q 2597 3491 2834 3397 
z
" transform="scale(0.015625)"/>
       <path id="DejaVuSans-28" d="M 1984 4856 
Q 1566 4138 1362 3434 
Q 1159 2731 1159 2009 
Q 1159 1288 1364 580 
Q 1569 -128 1984 -844 
L 1484 -844 
Q 1016 -109 783 600 
Q 550 1309 550 2009 
Q 550 2706 781 3412 
Q 1013 4119 1484 4856 
L 1984 4856 
z
" transform="scale(0.015625)"/>
       <path id="DejaVuSans-3bc" d="M 544 -1331 
L 544 3500 
L 1119 3500 
L 1119 1325 
Q 1119 872 1334 640 
Q 1550 409 1972 409 
Q 2434 409 2667 671 
Q 2900 934 2900 1459 
L 2900 3500 
L 3475 3500 
L 3475 806 
Q 3475 619 3529 530 
Q 3584 441 3700 441 
Q 3728 441 3778 458 
Q 3828 475 3916 513 
L 3916 50 
Q 3788 -22 3673 -56 
Q 3559 -91 3450 -91 
Q 3234 -91 3106 31 
Q 2978 153 2931 403 
Q 2775 156 2548 32 
Q 2322 -91 2016 -91 
Q 1697 -91 1473 31 
Q 1250 153 1119 397 
L 1119 -1331 
L 544 -1331 
z
" transform="scale(0.015625)"/>
       <path id="DejaVuSans-29" d="M 513 4856 
L 1013 4856 
Q 1481 4119 1714 3412 
Q 1947 2706 1947 2009 
Q 1947 1309 1714 600 
Q 1481 -109 1013 -844 
L 513 -844 
Q 928 -128 1133 580 
Q 1338 1288 1338 2009 
Q 1338 2731 1133 3434 
Q 928 4138 513 4856 
z
" transform="scale(0.015625)"/>
      </defs>
      <use xlink:href="#DejaVuSans-44"/>
      <use xlink:href="#DejaVuSans-69" transform="translate(77.001953 0)"/>
      <use xlink:href="#DejaVuSans-73" transform="translate(104.785156 0)"/>
      <use xlink:href="#DejaVuSans-74" transform="translate(156.884766 0)"/>
      <use xlink:href="#DejaVuSans-61" transform="translate(196.09375 0)"/>
      <use xlink:href="#DejaVuSans-6e" transform="translate(257.373047 0)"/>
      <use xlink:href="#DejaVuSans-63" transform="translate(320.751953 0)"/>
      <use xlink:href="#DejaVuSans-65" transform="translate(375.732422 0)"/>
      <use xlink:href="#DejaVuSans-20" transform="translate(437.255859 0)"/>
      <use xlink:href="#DejaVuSans-28" transform="translate(469.042969 0)"/>
      <use xlink:href="#DejaVuSans-3bc" transform="translate(508.056641 0)"/>
      <use xlink:href="#DejaVuSans-6d" transform="translate(571.679688 0)"/>
      <use xlink:href="#DejaVuSans-29" transform="translate(669.091797 0)"/>
     </g>
    </g>
   </g>
   <g id="patch_3">
    <path d="M 324.864125 481.400438 
L 324.864125 481.400438 
L 324.864125 481.400438 
L 324.864125 481.400438 
z
" clip-path="url(#p6574196f99)" style="fill: #bd4b5b; stroke: #484848; stroke-width: 0.8; stroke-linejoin: miter"/>
   </g>
   <g id="patch_4">
    <path d="M 324.864125 481.400438 
L 324.864125 481.400438 
L 324.864125 481.400438 
L 324.864125 481.400438 
z
" clip-path="url(#p6574196f99)" style="fill: #d9715a; stroke: #484848; stroke-width: 0.8; stroke-linejoin: miter"/>
   </g>
   <g id="patch_5">
    <path d="M 324.864125 481.400438 
L 324.864125 481.400438 
L 324.864125 481.400438 
L 324.864125 481.400438 
z
" clip-path="url(#p6574196f99)" style="fill: #e69e6c; stroke: #484848; stroke-width: 0.8; stroke-linejoin: miter"/>
   </g>
   <g id="patch_6">
    <path d="M 324.864125 481.400438 
L 324.864125 481.400438 
L 324.864125 481.400438 
L 324.864125 481.400438 
z
" clip-path="url(#p6574196f99)" style="fill: #edca8c; stroke: #484848; stroke-width: 0.8; stroke-linejoin: miter"/>
   </g>
   <g id="patch_7">
    <path d="M 324.864125 481.400438 
L 324.864125 481.400438 
L 324.864125 481.400438 
L 324.864125 481.400438 
z
" clip-path="url(#p6574196f99)" style="fill: #f4eab2; stroke: #484848; stroke-width: 0.8; stroke-linejoin: miter"/>
   </g>
   <g id="patch_8">
    <path d="M 324.864125 481.400438 
L 324.864125 481.400438 
L 324.864125 481.400438 
L 324.864125 481.400438 
z
" clip-path="url(#p6574196f99)" style="fill: #ecf1b7; stroke: #484848; stroke-width: 0.8; stroke-linejoin: miter"/>
   </g>
   <g id="patch_9">
    <path d="M 324.864125 481.400438 
L 324.864125 481.400438 
L 324.864125 481.400438 
L 324.864125 481.400438 
z
" clip-path="url(#p6574196f99)" style="fill: #cee2a6; stroke: #484848; stroke-width: 0.8; stroke-linejoin: miter"/>
   </g>
   <g id="patch_10">
    <path d="M 324.864125 481.400438 
L 324.864125 481.400438 
L 324.864125 481.400438 
L 324.864125 481.400438 
z
" clip-path="url(#p6574196f99)" style="fill: #9fcda9; stroke: #484848; stroke-width: 0.8; stroke-linejoin: miter"/>
   </g>
   <g id="patch_11">
    <path d="M 324.864125 481.400438 
L 324.864125 481.400438 
L 324.864125 481.400438 
L 324.864125 481.400438 
z
" clip-path="url(#p6574196f99)" style="fill: #67aba2; stroke: #484848; stroke-width: 0.8; stroke-linejoin: miter"/>
   </g>
   <g id="patch_12">
    <path d="M 324.864125 481.400438 
L 324.864125 481.400438 
L 324.864125 481.400438 
L 324.864125 481.400438 
z
" clip-path="url(#p6574196f99)" style="fill: #4780aa; stroke: #484848; stroke-width: 0.8; stroke-linejoin: miter"/>
   </g>
   <g id="patch_13">
    <path d="M 121.535325 432.891283 
L 162.201085 432.891283 
L 162.201085 360.911786 
L 121.535325 360.911786 
L 121.535325 432.891283 
z
" clip-path="url(#p6574196f99)" style="fill: #bd4b5b; stroke: #484848; stroke-linejoin: miter"/>
   </g>
   <g id="line2d_6">
    <path d="M 141.868205 432.891283 
L 141.868205 478.245419 
" clip-path="url(#p6574196f99)" style="fill: none; stroke: #484848"/>
   </g>
   <g id="line2d_7">
    <path d="M 141.868205 360.911786 
L 141.868205 253.791561 
" clip-path="url(#p6574196f99)" style="fill: none; stroke: #484848"/>
   </g>
   <g id="line2d_8">
    <path d="M 131.701765 478.245419 
L 152.034645 478.245419 
" clip-path="url(#p6574196f99)" style="fill: none; stroke: #484848; stroke-linecap: round"/>
   </g>
   <g id="line2d_9">
    <path d="M 131.701765 253.791561 
L 152.034645 253.791561 
" clip-path="url(#p6574196f99)" style="fill: none; stroke: #484848; stroke-linecap: round"/>
   </g>
   <g id="patch_14">
    <path d="M 629.857325 410.239994 
L 670.523085 410.239994 
L 670.523085 344.673834 
L 629.857325 344.673834 
L 629.857325 410.239994 
z
" clip-path="url(#p6574196f99)" style="fill: #bd4b5b; stroke: #484848; stroke-linejoin: miter"/>
   </g>
   <g id="line2d_10">
    <path d="M 650.190205 410.239994 
L 650.190205 474.274327 
" clip-path="url(#p6574196f99)" style="fill: none; stroke: #484848"/>
   </g>
   <g id="line2d_11">
    <path d="M 650.190205 344.673834 
L 650.190205 246.95714 
" clip-path="url(#p6574196f99)" style="fill: none; stroke: #484848"/>
   </g>
   <g id="line2d_12">
    <path d="M 640.023765 474.274327 
L 660.356645 474.274327 
" clip-path="url(#p6574196f99)" style="fill: none; stroke: #484848; stroke-linecap: round"/>
   </g>
   <g id="line2d_13">
    <path d="M 640.023765 246.95714 
L 660.356645 246.95714 
" clip-path="url(#p6574196f99)" style="fill: none; stroke: #484848; stroke-linecap: round"/>
   </g>
   <g id="patch_15">
    <path d="M 162.201085 428.832408 
L 202.866845 428.832408 
L 202.866845 328.380269 
L 162.201085 328.380269 
L 162.201085 428.832408 
z
" clip-path="url(#p6574196f99)" style="fill: #d9715a; stroke: #484848; stroke-linejoin: miter"/>
   </g>
   <g id="line2d_14">
    <path d="M 182.533965 428.832408 
L 182.533965 481.400438 
" clip-path="url(#p6574196f99)" style="fill: none; stroke: #484848"/>
   </g>
   <g id="line2d_15">
    <path d="M 182.533965 328.380269 
L 182.533965 180.844199 
" clip-path="url(#p6574196f99)" style="fill: none; stroke: #484848"/>
   </g>
   <g id="line2d_16">
    <path d="M 172.367525 481.400438 
L 192.700405 481.400438 
" clip-path="url(#p6574196f99)" style="fill: none; stroke: #484848; stroke-linecap: round"/>
   </g>
   <g id="line2d_17">
    <path d="M 172.367525 180.844199 
L 192.700405 180.844199 
" clip-path="url(#p6574196f99)" style="fill: none; stroke: #484848; stroke-linecap: round"/>
   </g>
   <g id="patch_16">
    <path d="M 670.523085 424.870306 
L 711.188845 424.870306 
L 711.188845 348.893765 
L 670.523085 348.893765 
L 670.523085 424.870306 
z
" clip-path="url(#p6574196f99)" style="fill: #d9715a; stroke: #484848; stroke-linejoin: miter"/>
   </g>
   <g id="line2d_18">
    <path d="M 690.855965 424.870306 
L 690.855965 481.233463 
" clip-path="url(#p6574196f99)" style="fill: none; stroke: #484848"/>
   </g>
   <g id="line2d_19">
    <path d="M 690.855965 348.893765 
L 690.855965 235.835647 
" clip-path="url(#p6574196f99)" style="fill: none; stroke: #484848"/>
   </g>
   <g id="line2d_20">
    <path d="M 680.689525 481.233463 
L 701.022405 481.233463 
" clip-path="url(#p6574196f99)" style="fill: none; stroke: #484848; stroke-linecap: round"/>
   </g>
   <g id="line2d_21">
    <path d="M 680.689525 235.835647 
L 701.022405 235.835647 
" clip-path="url(#p6574196f99)" style="fill: none; stroke: #484848; stroke-linecap: round"/>
   </g>
   <g id="patch_17">
    <path d="M 202.866845 439.550609 
L 243.532605 439.550609 
L 243.532605 365.805342 
L 202.866845 365.805342 
L 202.866845 439.550609 
z
" clip-path="url(#p6574196f99)" style="fill: #e69e6c; stroke: #484848; stroke-linejoin: miter"/>
   </g>
   <g id="line2d_22">
    <path d="M 223.199725 439.550609 
L 223.199725 478.803476 
" clip-path="url(#p6574196f99)" style="fill: none; stroke: #484848"/>
   </g>
   <g id="line2d_23">
    <path d="M 223.199725 365.805342 
L 223.199725 255.570537 
" clip-path="url(#p6574196f99)" style="fill: none; stroke: #484848"/>
   </g>
   <g id="line2d_24">
    <path d="M 213.033285 478.803476 
L 233.366165 478.803476 
" clip-path="url(#p6574196f99)" style="fill: none; stroke: #484848; stroke-linecap: round"/>
   </g>
   <g id="line2d_25">
    <path d="M 213.033285 255.570537 
L 233.366165 255.570537 
" clip-path="url(#p6574196f99)" style="fill: none; stroke: #484848; stroke-linecap: round"/>
   </g>
   <g id="patch_18">
    <path d="M 711.188845 417.171524 
L 751.854605 417.171524 
L 751.854605 352.29594 
L 711.188845 352.29594 
L 711.188845 417.171524 
z
" clip-path="url(#p6574196f99)" style="fill: #e69e6c; stroke: #484848; stroke-linejoin: miter"/>
   </g>
   <g id="line2d_26">
    <path d="M 731.521725 417.171524 
L 731.521725 473.969034 
" clip-path="url(#p6574196f99)" style="fill: none; stroke: #484848"/>
   </g>
   <g id="line2d_27">
    <path d="M 731.521725 352.29594 
L 731.521725 256.292008 
" clip-path="url(#p6574196f99)" style="fill: none; stroke: #484848"/>
   </g>
   <g id="line2d_28">
    <path d="M 721.355285 473.969034 
L 741.688165 473.969034 
" clip-path="url(#p6574196f99)" style="fill: none; stroke: #484848; stroke-linecap: round"/>
   </g>
   <g id="line2d_29">
    <path d="M 721.355285 256.292008 
L 741.688165 256.292008 
" clip-path="url(#p6574196f99)" style="fill: none; stroke: #484848; stroke-linecap: round"/>
   </g>
   <g id="patch_19">
    <path d="M 243.532605 440.599655 
L 284.198365 440.599655 
L 284.198365 382.390494 
L 243.532605 382.390494 
L 243.532605 440.599655 
z
" clip-path="url(#p6574196f99)" style="fill: #edca8c; stroke: #484848; stroke-linejoin: miter"/>
   </g>
   <g id="line2d_30">
    <path d="M 263.865485 440.599655 
L 263.865485 481.400438 
" clip-path="url(#p6574196f99)" style="fill: none; stroke: #484848"/>
   </g>
   <g id="line2d_31">
    <path d="M 263.865485 382.390494 
L 263.865485 295.909299 
" clip-path="url(#p6574196f99)" style="fill: none; stroke: #484848"/>
   </g>
   <g id="line2d_32">
    <path d="M 253.699045 481.400438 
L 274.031925 481.400438 
" clip-path="url(#p6574196f99)" style="fill: none; stroke: #484848; stroke-linecap: round"/>
   </g>
   <g id="line2d_33">
    <path d="M 253.699045 295.909299 
L 274.031925 295.909299 
" clip-path="url(#p6574196f99)" style="fill: none; stroke: #484848; stroke-linecap: round"/>
   </g>
   <g id="patch_20">
    <path d="M 751.854605 428.652608 
L 792.520365 428.652608 
L 792.520365 371.751447 
L 751.854605 371.751447 
L 751.854605 428.652608 
z
" clip-path="url(#p6574196f99)" style="fill: #edca8c; stroke: #484848; stroke-linejoin: miter"/>
   </g>
   <g id="line2d_34">
    <path d="M 772.187485 428.652608 
L 772.187485 479.855251 
" clip-path="url(#p6574196f99)" style="fill: none; stroke: #484848"/>
   </g>
   <g id="line2d_35">
    <path d="M 772.187485 371.751447 
L 772.187485 286.500511 
" clip-path="url(#p6574196f99)" style="fill: none; stroke: #484848"/>
   </g>
   <g id="line2d_36">
    <path d="M 762.021045 479.855251 
L 782.353925 479.855251 
" clip-path="url(#p6574196f99)" style="fill: none; stroke: #484848; stroke-linecap: round"/>
   </g>
   <g id="line2d_37">
    <path d="M 762.021045 286.500511 
L 782.353925 286.500511 
" clip-path="url(#p6574196f99)" style="fill: none; stroke: #484848; stroke-linecap: round"/>
   </g>
   <g id="patch_21">
    <path d="M 284.198365 448.300992 
L 324.864125 448.300992 
L 324.864125 376.731616 
L 284.198365 376.731616 
L 284.198365 448.300992 
z
" clip-path="url(#p6574196f99)" style="fill: #f4eab2; stroke: #484848; stroke-linejoin: miter"/>
   </g>
   <g id="line2d_38">
    <path d="M 304.531245 448.300992 
L 304.531245 477.694973 
" clip-path="url(#p6574196f99)" style="fill: none; stroke: #484848"/>
   </g>
   <g id="line2d_39">
    <path d="M 304.531245 376.731616 
L 304.531245 270.354359 
" clip-path="url(#p6574196f99)" style="fill: none; stroke: #484848"/>
   </g>
   <g id="line2d_40">
    <path d="M 294.364805 477.694973 
L 314.697685 477.694973 
" clip-path="url(#p6574196f99)" style="fill: none; stroke: #484848; stroke-linecap: round"/>
   </g>
   <g id="line2d_41">
    <path d="M 294.364805 270.354359 
L 314.697685 270.354359 
" clip-path="url(#p6574196f99)" style="fill: none; stroke: #484848; stroke-linecap: round"/>
   </g>
   <g id="patch_22">
    <path d="M 792.520365 416.404211 
L 833.186125 416.404211 
L 833.186125 288.112604 
L 792.520365 288.112604 
L 792.520365 416.404211 
z
" clip-path="url(#p6574196f99)" style="fill: #f4eab2; stroke: #484848; stroke-linejoin: miter"/>
   </g>
   <g id="line2d_42">
    <path d="M 812.853245 416.404211 
L 812.853245 477.047774 
" clip-path="url(#p6574196f99)" style="fill: none; stroke: #484848"/>
   </g>
   <g id="line2d_43">
    <path d="M 812.853245 288.112604 
L 812.853245 97.177537 
" clip-path="url(#p6574196f99)" style="fill: none; stroke: #484848"/>
   </g>
   <g id="line2d_44">
    <path d="M 802.686805 477.047774 
L 823.019685 477.047774 
" clip-path="url(#p6574196f99)" style="fill: none; stroke: #484848; stroke-linecap: round"/>
   </g>
   <g id="line2d_45">
    <path d="M 802.686805 97.177537 
L 823.019685 97.177537 
" clip-path="url(#p6574196f99)" style="fill: none; stroke: #484848; stroke-linecap: round"/>
   </g>
   <g id="patch_23">
    <path d="M 324.864125 437.323043 
L 365.529885 437.323043 
L 365.529885 346.040084 
L 324.864125 346.040084 
L 324.864125 437.323043 
z
" clip-path="url(#p6574196f99)" style="fill: #ecf1b7; stroke: #484848; stroke-linejoin: miter"/>
   </g>
   <g id="line2d_46">
    <path d="M 345.197005 437.323043 
L 345.197005 480.054494 
" clip-path="url(#p6574196f99)" style="fill: none; stroke: #484848"/>
   </g>
   <g id="line2d_47">
    <path d="M 345.197005 346.040084 
L 345.197005 210.107759 
" clip-path="url(#p6574196f99)" style="fill: none; stroke: #484848"/>
   </g>
   <g id="line2d_48">
    <path d="M 335.030565 480.054494 
L 355.363445 480.054494 
" clip-path="url(#p6574196f99)" style="fill: none; stroke: #484848; stroke-linecap: round"/>
   </g>
   <g id="line2d_49">
    <path d="M 335.030565 210.107759 
L 355.363445 210.107759 
" clip-path="url(#p6574196f99)" style="fill: none; stroke: #484848; stroke-linecap: round"/>
   </g>
   <g id="patch_24">
    <path d="M 833.186125 402.036194 
L 873.851885 402.036194 
L 873.851885 330.231976 
L 833.186125 330.231976 
L 833.186125 402.036194 
z
" clip-path="url(#p6574196f99)" style="fill: #ecf1b7; stroke: #484848; stroke-linejoin: miter"/>
   </g>
   <g id="line2d_50">
    <path d="M 853.519005 402.036194 
L 853.519005 471.499608 
" clip-path="url(#p6574196f99)" style="fill: none; stroke: #484848"/>
   </g>
   <g id="line2d_51">
    <path d="M 853.519005 330.231976 
L 853.519005 222.602985 
" clip-path="url(#p6574196f99)" style="fill: none; stroke: #484848"/>
   </g>
   <g id="line2d_52">
    <path d="M 843.352565 471.499608 
L 863.685445 471.499608 
" clip-path="url(#p6574196f99)" style="fill: none; stroke: #484848; stroke-linecap: round"/>
   </g>
   <g id="line2d_53">
    <path d="M 843.352565 222.602985 
L 863.685445 222.602985 
" clip-path="url(#p6574196f99)" style="fill: none; stroke: #484848; stroke-linecap: round"/>
   </g>
   <g id="patch_25">
    <path d="M 365.529885 437.438341 
L 406.195645 437.438341 
L 406.195645 290.331308 
L 365.529885 290.331308 
L 365.529885 437.438341 
z
" clip-path="url(#p6574196f99)" style="fill: #cee2a6; stroke: #484848; stroke-linejoin: miter"/>
   </g>
   <g id="line2d_54">
    <path d="M 385.862765 437.438341 
L 385.862765 475.602458 
" clip-path="url(#p6574196f99)" style="fill: none; stroke: #484848"/>
   </g>
   <g id="line2d_55">
    <path d="M 385.862765 290.331308 
L 385.862765 70.160438 
" clip-path="url(#p6574196f99)" style="fill: none; stroke: #484848"/>
   </g>
   <g id="line2d_56">
    <path d="M 375.696325 475.602458 
L 396.029205 475.602458 
" clip-path="url(#p6574196f99)" style="fill: none; stroke: #484848; stroke-linecap: round"/>
   </g>
   <g id="line2d_57">
    <path d="M 375.696325 70.160438 
L 396.029205 70.160438 
" clip-path="url(#p6574196f99)" style="fill: none; stroke: #484848; stroke-linecap: round"/>
   </g>
   <g id="patch_26">
    <path d="M 873.851885 427.933898 
L 914.517645 427.933898 
L 914.517645 375.907024 
L 873.851885 375.907024 
L 873.851885 427.933898 
z
" clip-path="url(#p6574196f99)" style="fill: #cee2a6; stroke: #484848; stroke-linejoin: miter"/>
   </g>
   <g id="line2d_58">
    <path d="M 894.184765 427.933898 
L 894.184765 463.322398 
" clip-path="url(#p6574196f99)" style="fill: none; stroke: #484848"/>
   </g>
   <g id="line2d_59">
    <path d="M 894.184765 375.907024 
L 894.184765 300.452048 
" clip-path="url(#p6574196f99)" style="fill: none; stroke: #484848"/>
   </g>
   <g id="line2d_60">
    <path d="M 884.018325 463.322398 
L 904.351205 463.322398 
" clip-path="url(#p6574196f99)" style="fill: none; stroke: #484848; stroke-linecap: round"/>
   </g>
   <g id="line2d_61">
    <path d="M 884.018325 300.452048 
L 904.351205 300.452048 
" clip-path="url(#p6574196f99)" style="fill: none; stroke: #484848; stroke-linecap: round"/>
   </g>
   <g id="patch_27">
    <path d="M 406.195645 440.903096 
L 446.861405 440.903096 
L 446.861405 385.382594 
L 406.195645 385.382594 
L 406.195645 440.903096 
z
" clip-path="url(#p6574196f99)" style="fill: #9fcda9; stroke: #484848; stroke-linejoin: miter"/>
   </g>
   <g id="line2d_62">
    <path d="M 426.528525 440.903096 
L 426.528525 481.400438 
" clip-path="url(#p6574196f99)" style="fill: none; stroke: #484848"/>
   </g>
   <g id="line2d_63">
    <path d="M 426.528525 385.382594 
L 426.528525 303.128667 
" clip-path="url(#p6574196f99)" style="fill: none; stroke: #484848"/>
   </g>
   <g id="line2d_64">
    <path d="M 416.362085 481.400438 
L 436.694965 481.400438 
" clip-path="url(#p6574196f99)" style="fill: none; stroke: #484848; stroke-linecap: round"/>
   </g>
   <g id="line2d_65">
    <path d="M 416.362085 303.128667 
L 436.694965 303.128667 
" clip-path="url(#p6574196f99)" style="fill: none; stroke: #484848; stroke-linecap: round"/>
   </g>
   <g id="patch_28">
    <path d="M 914.517645 417.389791 
L 955.183405 417.389791 
L 955.183405 362.856155 
L 914.517645 362.856155 
L 914.517645 417.389791 
z
" clip-path="url(#p6574196f99)" style="fill: #9fcda9; stroke: #484848; stroke-linejoin: miter"/>
   </g>
   <g id="line2d_66">
    <path d="M 934.850525 417.389791 
L 934.850525 471.308179 
" clip-path="url(#p6574196f99)" style="fill: none; stroke: #484848"/>
   </g>
   <g id="line2d_67">
    <path d="M 934.850525 362.856155 
L 934.850525 281.28704 
" clip-path="url(#p6574196f99)" style="fill: none; stroke: #484848"/>
   </g>
   <g id="line2d_68">
    <path d="M 924.684085 471.308179 
L 945.016965 471.308179 
" clip-path="url(#p6574196f99)" style="fill: none; stroke: #484848; stroke-linecap: round"/>
   </g>
   <g id="line2d_69">
    <path d="M 924.684085 281.28704 
L 945.016965 281.28704 
" clip-path="url(#p6574196f99)" style="fill: none; stroke: #484848; stroke-linecap: round"/>
   </g>
   <g id="patch_29">
    <path d="M 446.861405 426.321938 
L 487.527165 426.321938 
L 487.527165 340.753159 
L 446.861405 340.753159 
L 446.861405 426.321938 
z
" clip-path="url(#p6574196f99)" style="fill: #67aba2; stroke: #484848; stroke-linejoin: miter"/>
   </g>
   <g id="line2d_70">
    <path d="M 467.194285 426.321938 
L 467.194285 476.489413 
" clip-path="url(#p6574196f99)" style="fill: none; stroke: #484848"/>
   </g>
   <g id="line2d_71">
    <path d="M 467.194285 340.753159 
L 467.194285 212.412575 
" clip-path="url(#p6574196f99)" style="fill: none; stroke: #484848"/>
   </g>
   <g id="line2d_72">
    <path d="M 457.027845 476.489413 
L 477.360725 476.489413 
" clip-path="url(#p6574196f99)" style="fill: none; stroke: #484848; stroke-linecap: round"/>
   </g>
   <g id="line2d_73">
    <path d="M 457.027845 212.412575 
L 477.360725 212.412575 
" clip-path="url(#p6574196f99)" style="fill: none; stroke: #484848; stroke-linecap: round"/>
   </g>
   <g id="patch_30">
    <path d="M 955.183405 397.757461 
L 995.849165 397.757461 
L 995.849165 326.246084 
L 955.183405 326.246084 
L 955.183405 397.757461 
z
" clip-path="url(#p6574196f99)" style="fill: #67aba2; stroke: #484848; stroke-linejoin: miter"/>
   </g>
   <g id="line2d_74">
    <path d="M 975.516285 397.757461 
L 975.516285 474.455201 
" clip-path="url(#p6574196f99)" style="fill: none; stroke: #484848"/>
   </g>
   <g id="line2d_75">
    <path d="M 975.516285 326.246084 
L 975.516285 220.317266 
" clip-path="url(#p6574196f99)" style="fill: none; stroke: #484848"/>
   </g>
   <g id="line2d_76">
    <path d="M 965.349845 474.455201 
L 985.682725 474.455201 
" clip-path="url(#p6574196f99)" style="fill: none; stroke: #484848; stroke-linecap: round"/>
   </g>
   <g id="line2d_77">
    <path d="M 965.349845 220.317266 
L 985.682725 220.317266 
" clip-path="url(#p6574196f99)" style="fill: none; stroke: #484848; stroke-linecap: round"/>
   </g>
   <g id="patch_31">
    <path d="M 487.527165 431.815034 
L 528.192925 431.815034 
L 528.192925 326.463825 
L 487.527165 326.463825 
L 487.527165 431.815034 
z
" clip-path="url(#p6574196f99)" style="fill: #4780aa; stroke: #484848; stroke-linejoin: miter"/>
   </g>
   <g id="line2d_78">
    <path d="M 507.860045 431.815034 
L 507.860045 476.907508 
" clip-path="url(#p6574196f99)" style="fill: none; stroke: #484848"/>
   </g>
   <g id="line2d_79">
    <path d="M 507.860045 326.463825 
L 507.860045 170.588285 
" clip-path="url(#p6574196f99)" style="fill: none; stroke: #484848"/>
   </g>
   <g id="line2d_80">
    <path d="M 497.693605 476.907508 
L 518.026485 476.907508 
" clip-path="url(#p6574196f99)" style="fill: none; stroke: #484848; stroke-linecap: round"/>
   </g>
   <g id="line2d_81">
    <path d="M 497.693605 170.588285 
L 518.026485 170.588285 
" clip-path="url(#p6574196f99)" style="fill: none; stroke: #484848; stroke-linecap: round"/>
   </g>
   <g id="patch_32">
    <path d="M 995.849165 421.522854 
L 1036.514925 421.522854 
L 1036.514925 359.051179 
L 995.849165 359.051179 
L 995.849165 421.522854 
z
" clip-path="url(#p6574196f99)" style="fill: #4780aa; stroke: #484848; stroke-linejoin: miter"/>
   </g>
   <g id="line2d_82">
    <path d="M 1016.182045 421.522854 
L 1016.182045 476.489413 
" clip-path="url(#p6574196f99)" style="fill: none; stroke: #484848"/>
   </g>
   <g id="line2d_83">
    <path d="M 1016.182045 359.051179 
L 1016.182045 266.428271 
" clip-path="url(#p6574196f99)" style="fill: none; stroke: #484848"/>
   </g>
   <g id="line2d_84">
    <path d="M 1006.015605 476.489413 
L 1026.348485 476.489413 
" clip-path="url(#p6574196f99)" style="fill: none; stroke: #484848; stroke-linecap: round"/>
   </g>
   <g id="line2d_85">
    <path d="M 1006.015605 266.428271 
L 1026.348485 266.428271 
" clip-path="url(#p6574196f99)" style="fill: none; stroke: #484848; stroke-linecap: round"/>
   </g>
   <g id="line2d_86">
    <path d="M 121.535325 400.702262 
L 162.201085 400.702262 
" clip-path="url(#p6574196f99)" style="fill: none; stroke: #484848"/>
   </g>
   <g id="line2d_87">
    <path d="M 629.857325 380.32199 
L 670.523085 380.32199 
" clip-path="url(#p6574196f99)" style="fill: none; stroke: #484848"/>
   </g>
   <g id="line2d_88">
    <path d="M 162.201085 394.851665 
L 202.866845 394.851665 
" clip-path="url(#p6574196f99)" style="fill: none; stroke: #484848"/>
   </g>
   <g id="line2d_89">
    <path d="M 670.523085 392.652798 
L 711.188845 392.652798 
" clip-path="url(#p6574196f99)" style="fill: none; stroke: #484848"/>
   </g>
   <g id="line2d_90">
    <path d="M 202.866845 412.065324 
L 243.532605 412.065324 
" clip-path="url(#p6574196f99)" style="fill: none; stroke: #484848"/>
   </g>
   <g id="line2d_91">
    <path d="M 711.188845 387.099094 
L 751.854605 387.099094 
" clip-path="url(#p6574196f99)" style="fill: none; stroke: #484848"/>
   </g>
   <g id="line2d_92">
    <path d="M 243.532605 415.371473 
L 284.198365 415.371473 
" clip-path="url(#p6574196f99)" style="fill: none; stroke: #484848"/>
   </g>
   <g id="line2d_93">
    <path d="M 751.854605 402.670733 
L 792.520365 402.670733 
" clip-path="url(#p6574196f99)" style="fill: none; stroke: #484848"/>
   </g>
   <g id="line2d_94">
    <path d="M 284.198365 424.06099 
L 324.864125 424.06099 
" clip-path="url(#p6574196f99)" style="fill: none; stroke: #484848"/>
   </g>
   <g id="line2d_95">
    <path d="M 792.520365 368.531034 
L 833.186125 368.531034 
" clip-path="url(#p6574196f99)" style="fill: none; stroke: #484848"/>
   </g>
   <g id="line2d_96">
    <path d="M 324.864125 406.43691 
L 365.529885 406.43691 
" clip-path="url(#p6574196f99)" style="fill: none; stroke: #484848"/>
   </g>
   <g id="line2d_97">
    <path d="M 833.186125 369.324474 
L 873.851885 369.324474 
" clip-path="url(#p6574196f99)" style="fill: none; stroke: #484848"/>
   </g>
   <g id="line2d_98">
    <path d="M 365.529885 406.895781 
L 406.195645 406.895781 
" clip-path="url(#p6574196f99)" style="fill: none; stroke: #484848"/>
   </g>
   <g id="line2d_99">
    <path d="M 873.851885 408.367532 
L 914.517645 408.367532 
" clip-path="url(#p6574196f99)" style="fill: none; stroke: #484848"/>
   </g>
   <g id="line2d_100">
    <path d="M 406.195645 417.72365 
L 446.861405 417.72365 
" clip-path="url(#p6574196f99)" style="fill: none; stroke: #484848"/>
   </g>
   <g id="line2d_101">
    <path d="M 914.517645 392.939953 
L 955.183405 392.939953 
" clip-path="url(#p6574196f99)" style="fill: none; stroke: #484848"/>
   </g>
   <g id="line2d_102">
    <path d="M 446.861405 392.97634 
L 487.527165 392.97634 
" clip-path="url(#p6574196f99)" style="fill: none; stroke: #484848"/>
   </g>
   <g id="line2d_103">
    <path d="M 955.183405 365.589824 
L 995.849165 365.589824 
" clip-path="url(#p6574196f99)" style="fill: none; stroke: #484848"/>
   </g>
   <g id="line2d_104">
    <path d="M 487.527165 390.182308 
L 528.192925 390.182308 
" clip-path="url(#p6574196f99)" style="fill: none; stroke: #484848"/>
   </g>
   <g id="line2d_105">
    <path d="M 995.849165 394.965939 
L 1036.514925 394.965939 
" clip-path="url(#p6574196f99)" style="fill: none; stroke: #484848"/>
   </g>
   <g id="patch_33">
    <path d="M 70.703125 501.962438 
L 70.703125 49.598438 
" style="fill: none; stroke: #cccccc; stroke-linejoin: miter; stroke-linecap: square"/>
   </g>
   <g id="patch_34">
    <path d="M 1087.347125 501.962438 
L 1087.347125 49.598438 
" style="fill: none; stroke: #cccccc; stroke-linejoin: miter; stroke-linecap: square"/>
   </g>
   <g id="patch_35">
    <path d="M 70.703125 501.962438 
L 1087.347125 501.962438 
" style="fill: none; stroke: #cccccc; stroke-linejoin: miter; stroke-linecap: square"/>
   </g>
   <g id="patch_36">
    <path d="M 70.703125 49.598438 
L 1087.347125 49.598438 
" style="fill: none; stroke: #cccccc; stroke-linejoin: miter; stroke-linecap: square"/>
   </g>
   <g id="text_10">
    <!-- Distribution of distances by Level One Cell Type and region -->
    <g style="fill: #262626" transform="translate(431.382156 43.598438) scale(0.1 -0.1)">
     <defs>
      <path id="DejaVuSans-72" d="M 2631 2963 
Q 2534 3019 2420 3045 
Q 2306 3072 2169 3072 
Q 1681 3072 1420 2755 
Q 1159 2438 1159 1844 
L 1159 0 
L 581 0 
L 581 3500 
L 1159 3500 
L 1159 2956 
Q 1341 3275 1631 3429 
Q 1922 3584 2338 3584 
Q 2397 3584 2469 3576 
Q 2541 3569 2628 3553 
L 2631 2963 
z
" transform="scale(0.015625)"/>
      <path id="DejaVuSans-62" d="M 3116 1747 
Q 3116 2381 2855 2742 
Q 2594 3103 2138 3103 
Q 1681 3103 1420 2742 
Q 1159 2381 1159 1747 
Q 1159 1113 1420 752 
Q 1681 391 2138 391 
Q 2594 391 2855 752 
Q 3116 1113 3116 1747 
z
M 1159 2969 
Q 1341 3281 1617 3432 
Q 1894 3584 2278 3584 
Q 2916 3584 3314 3078 
Q 3713 2572 3713 1747 
Q 3713 922 3314 415 
Q 2916 -91 2278 -91 
Q 1894 -91 1617 61 
Q 1341 213 1159 525 
L 1159 0 
L 581 0 
L 581 4863 
L 1159 4863 
L 1159 2969 
z
" transform="scale(0.015625)"/>
      <path id="DejaVuSans-6f" d="M 1959 3097 
Q 1497 3097 1228 2736 
Q 959 2375 959 1747 
Q 959 1119 1226 758 
Q 1494 397 1959 397 
Q 2419 397 2687 759 
Q 2956 1122 2956 1747 
Q 2956 2369 2687 2733 
Q 2419 3097 1959 3097 
z
M 1959 3584 
Q 2709 3584 3137 3096 
Q 3566 2609 3566 1747 
Q 3566 888 3137 398 
Q 2709 -91 1959 -91 
Q 1206 -91 779 398 
Q 353 888 353 1747 
Q 353 2609 779 3096 
Q 1206 3584 1959 3584 
z
" transform="scale(0.015625)"/>
      <path id="DejaVuSans-66" d="M 2375 4863 
L 2375 4384 
L 1825 4384 
Q 1516 4384 1395 4259 
Q 1275 4134 1275 3809 
L 1275 3500 
L 2222 3500 
L 2222 3053 
L 1275 3053 
L 1275 0 
L 697 0 
L 697 3053 
L 147 3053 
L 147 3500 
L 697 3500 
L 697 3744 
Q 697 4328 969 4595 
Q 1241 4863 1831 4863 
L 2375 4863 
z
" transform="scale(0.015625)"/>
      <path id="DejaVuSans-64" d="M 2906 2969 
L 2906 4863 
L 3481 4863 
L 3481 0 
L 2906 0 
L 2906 525 
Q 2725 213 2448 61 
Q 2172 -91 1784 -91 
Q 1150 -91 751 415 
Q 353 922 353 1747 
Q 353 2572 751 3078 
Q 1150 3584 1784 3584 
Q 2172 3584 2448 3432 
Q 2725 3281 2906 2969 
z
M 947 1747 
Q 947 1113 1208 752 
Q 1469 391 1925 391 
Q 2381 391 2643 752 
Q 2906 1113 2906 1747 
Q 2906 2381 2643 2742 
Q 2381 3103 1925 3103 
Q 1469 3103 1208 2742 
Q 947 2381 947 1747 
z
" transform="scale(0.015625)"/>
      <path id="DejaVuSans-67" d="M 2906 1791 
Q 2906 2416 2648 2759 
Q 2391 3103 1925 3103 
Q 1463 3103 1205 2759 
Q 947 2416 947 1791 
Q 947 1169 1205 825 
Q 1463 481 1925 481 
Q 2391 481 2648 825 
Q 2906 1169 2906 1791 
z
M 3481 434 
Q 3481 -459 3084 -895 
Q 2688 -1331 1869 -1331 
Q 1566 -1331 1297 -1286 
Q 1028 -1241 775 -1147 
L 775 -588 
Q 1028 -725 1275 -790 
Q 1522 -856 1778 -856 
Q 2344 -856 2625 -561 
Q 2906 -266 2906 331 
L 2906 616 
Q 2728 306 2450 153 
Q 2172 0 1784 0 
Q 1141 0 747 490 
Q 353 981 353 1791 
Q 353 2603 747 3093 
Q 1141 3584 1784 3584 
Q 2172 3584 2450 3431 
Q 2728 3278 2906 2969 
L 2906 3500 
L 3481 3500 
L 3481 434 
z
" transform="scale(0.015625)"/>
     </defs>
     <use xlink:href="#DejaVuSans-44"/>
     <use xlink:href="#DejaVuSans-69" transform="translate(77.001953 0)"/>
     <use xlink:href="#DejaVuSans-73" transform="translate(104.785156 0)"/>
     <use xlink:href="#DejaVuSans-74" transform="translate(156.884766 0)"/>
     <use xlink:href="#DejaVuSans-72" transform="translate(196.09375 0)"/>
     <use xlink:href="#DejaVuSans-69" transform="translate(237.207031 0)"/>
     <use xlink:href="#DejaVuSans-62" transform="translate(264.990234 0)"/>
     <use xlink:href="#DejaVuSans-75" transform="translate(328.466797 0)"/>
     <use xlink:href="#DejaVuSans-74" transform="translate(391.845703 0)"/>
     <use xlink:href="#DejaVuSans-69" transform="translate(431.054688 0)"/>
     <use xlink:href="#DejaVuSans-6f" transform="translate(458.837891 0)"/>
     <use xlink:href="#DejaVuSans-6e" transform="translate(520.019531 0)"/>
     <use xlink:href="#DejaVuSans-20" transform="translate(583.398438 0)"/>
     <use xlink:href="#DejaVuSans-6f" transform="translate(615.185547 0)"/>
     <use xlink:href="#DejaVuSans-66" transform="translate(676.367188 0)"/>
     <use xlink:href="#DejaVuSans-20" transform="translate(711.572266 0)"/>
     <use xlink:href="#DejaVuSans-64" transform="translate(743.359375 0)"/>
     <use xlink:href="#DejaVuSans-69" transform="translate(806.835938 0)"/>
     <use xlink:href="#DejaVuSans-73" transform="translate(834.619141 0)"/>
     <use xlink:href="#DejaVuSans-74" transform="translate(886.71875 0)"/>
     <use xlink:href="#DejaVuSans-61" transform="translate(925.927734 0)"/>
     <use xlink:href="#DejaVuSans-6e" transform="translate(987.207031 0)"/>
     <use xlink:href="#DejaVuSans-63" transform="translate(1050.585938 0)"/>
     <use xlink:href="#DejaVuSans-65" transform="translate(1105.566406 0)"/>
     <use xlink:href="#DejaVuSans-73" transform="translate(1167.089844 0)"/>
     <use xlink:href="#DejaVuSans-20" transform="translate(1219.189453 0)"/>
     <use xlink:href="#DejaVuSans-62" transform="translate(1250.976562 0)"/>
     <use xlink:href="#DejaVuSans-79" transform="translate(1314.453125 0)"/>
     <use xlink:href="#DejaVuSans-20" transform="translate(1373.632812 0)"/>
     <use xlink:href="#DejaVuSans-4c" transform="translate(1405.419922 0)"/>
     <use xlink:href="#DejaVuSans-65" transform="translate(1459.382812 0)"/>
     <use xlink:href="#DejaVuSans-76" transform="translate(1520.90625 0)"/>
     <use xlink:href="#DejaVuSans-65" transform="translate(1580.085938 0)"/>
     <use xlink:href="#DejaVuSans-6c" transform="translate(1641.609375 0)"/>
     <use xlink:href="#DejaVuSans-20" transform="translate(1669.392578 0)"/>
     <use xlink:href="#DejaVuSans-4f" transform="translate(1701.179688 0)"/>
     <use xlink:href="#DejaVuSans-6e" transform="translate(1779.890625 0)"/>
     <use xlink:href="#DejaVuSans-65" transform="translate(1843.269531 0)"/>
     <use xlink:href="#DejaVuSans-20" transform="translate(1904.792969 0)"/>
     <use xlink:href="#DejaVuSans-43" transform="translate(1936.580078 0)"/>
     <use xlink:href="#DejaVuSans-65" transform="translate(2006.404297 0)"/>
     <use xlink:href="#DejaVuSans-6c" transform="translate(2067.927734 0)"/>
     <use xlink:href="#DejaVuSans-6c" transform="translate(2095.710938 0)"/>
     <use xlink:href="#DejaVuSans-20" transform="translate(2123.494141 0)"/>
     <use xlink:href="#DejaVuSans-54" transform="translate(2155.28125 0)"/>
     <use xlink:href="#DejaVuSans-79" transform="translate(2200.740234 0)"/>
     <use xlink:href="#DejaVuSans-70" transform="translate(2259.919922 0)"/>
     <use xlink:href="#DejaVuSans-65" transform="translate(2323.396484 0)"/>
     <use xlink:href="#DejaVuSans-20" transform="translate(2384.919922 0)"/>
     <use xlink:href="#DejaVuSans-61" transform="translate(2416.707031 0)"/>
     <use xlink:href="#DejaVuSans-6e" transform="translate(2477.986328 0)"/>
     <use xlink:href="#DejaVuSans-64" transform="translate(2541.365234 0)"/>
     <use xlink:href="#DejaVuSans-20" transform="translate(2604.841797 0)"/>
     <use xlink:href="#DejaVuSans-72" transform="translate(2636.628906 0)"/>
     <use xlink:href="#DejaVuSans-65" transform="translate(2675.492188 0)"/>
     <use xlink:href="#DejaVuSans-67" transform="translate(2737.015625 0)"/>
     <use xlink:href="#DejaVuSans-69" transform="translate(2800.492188 0)"/>
     <use xlink:href="#DejaVuSans-6f" transform="translate(2828.275391 0)"/>
     <use xlink:href="#DejaVuSans-6e" transform="translate(2889.457031 0)"/>
    </g>
   </g>
   <g id="legend_1">
    <g id="patch_37">
     <path d="M 1093.507125 188.253438 
L 1165.092375 188.253438 
Q 1166.852375 188.253438 1166.852375 186.493438 
L 1166.852375 55.758438 
Q 1166.852375 53.998438 1165.092375 53.998438 
L 1093.507125 53.998438 
Q 1091.747125 53.998438 1091.747125 55.758438 
L 1091.747125 186.493438 
Q 1091.747125 188.253438 1093.507125 188.253438 
z
" style="fill: #ffffff; opacity: 0.8; stroke: #cccccc; stroke-width: 0.8; stroke-linejoin: miter"/>
    </g>
    <g id="patch_38">
     <path d="M 1095.267125 64.205063 
L 1112.867125 64.205063 
L 1112.867125 58.045063 
L 1095.267125 58.045063 
z
" style="fill: #bd4b5b; stroke: #484848; stroke-width: 0.8; stroke-linejoin: miter"/>
    </g>
    <g id="text_11">
     <!-- region_1 -->
     <g style="fill: #262626" transform="translate(1119.907125 64.205063) scale(0.088 -0.088)">
      <defs>
       <path id="DejaVuSans-5f" d="M 3263 -1063 
L 3263 -1509 
L -63 -1509 
L -63 -1063 
L 3263 -1063 
z
" transform="scale(0.015625)"/>
      </defs>
      <use xlink:href="#DejaVuSans-72"/>
      <use xlink:href="#DejaVuSans-65" transform="translate(38.863281 0)"/>
      <use xlink:href="#DejaVuSans-67" transform="translate(100.386719 0)"/>
      <use xlink:href="#DejaVuSans-69" transform="translate(163.863281 0)"/>
      <use xlink:href="#DejaVuSans-6f" transform="translate(191.646484 0)"/>
      <use xlink:href="#DejaVuSans-6e" transform="translate(252.828125 0)"/>
      <use xlink:href="#DejaVuSans-5f" transform="translate(316.207031 0)"/>
      <use xlink:href="#DejaVuSans-31" transform="translate(366.207031 0)"/>
     </g>
    </g>
    <g id="patch_39">
     <path d="M 1095.267125 77.366563 
L 1112.867125 77.366563 
L 1112.867125 71.206563 
L 1095.267125 71.206563 
z
" style="fill: #d9715a; stroke: #484848; stroke-width: 0.8; stroke-linejoin: miter"/>
    </g>
    <g id="text_12">
     <!-- region_2 -->
     <g style="fill: #262626" transform="translate(1119.907125 77.366563) scale(0.088 -0.088)">
      <use xlink:href="#DejaVuSans-72"/>
      <use xlink:href="#DejaVuSans-65" transform="translate(38.863281 0)"/>
      <use xlink:href="#DejaVuSans-67" transform="translate(100.386719 0)"/>
      <use xlink:href="#DejaVuSans-69" transform="translate(163.863281 0)"/>
      <use xlink:href="#DejaVuSans-6f" transform="translate(191.646484 0)"/>
      <use xlink:href="#DejaVuSans-6e" transform="translate(252.828125 0)"/>
      <use xlink:href="#DejaVuSans-5f" transform="translate(316.207031 0)"/>
      <use xlink:href="#DejaVuSans-32" transform="translate(366.207031 0)"/>
     </g>
    </g>
    <g id="patch_40">
     <path d="M 1095.267125 90.528063 
L 1112.867125 90.528063 
L 1112.867125 84.368063 
L 1095.267125 84.368063 
z
" style="fill: #e69e6c; stroke: #484848; stroke-width: 0.8; stroke-linejoin: miter"/>
    </g>
    <g id="text_13">
     <!-- region_3 -->
     <g style="fill: #262626" transform="translate(1119.907125 90.528063) scale(0.088 -0.088)">
      <use xlink:href="#DejaVuSans-72"/>
      <use xlink:href="#DejaVuSans-65" transform="translate(38.863281 0)"/>
      <use xlink:href="#DejaVuSans-67" transform="translate(100.386719 0)"/>
      <use xlink:href="#DejaVuSans-69" transform="translate(163.863281 0)"/>
      <use xlink:href="#DejaVuSans-6f" transform="translate(191.646484 0)"/>
      <use xlink:href="#DejaVuSans-6e" transform="translate(252.828125 0)"/>
      <use xlink:href="#DejaVuSans-5f" transform="translate(316.207031 0)"/>
      <use xlink:href="#DejaVuSans-33" transform="translate(366.207031 0)"/>
     </g>
    </g>
    <g id="patch_41">
     <path d="M 1095.267125 103.689563 
L 1112.867125 103.689563 
L 1112.867125 97.529563 
L 1095.267125 97.529563 
z
" style="fill: #edca8c; stroke: #484848; stroke-width: 0.8; stroke-linejoin: miter"/>
    </g>
    <g id="text_14">
     <!-- region_4 -->
     <g style="fill: #262626" transform="translate(1119.907125 103.689563) scale(0.088 -0.088)">
      <use xlink:href="#DejaVuSans-72"/>
      <use xlink:href="#DejaVuSans-65" transform="translate(38.863281 0)"/>
      <use xlink:href="#DejaVuSans-67" transform="translate(100.386719 0)"/>
      <use xlink:href="#DejaVuSans-69" transform="translate(163.863281 0)"/>
      <use xlink:href="#DejaVuSans-6f" transform="translate(191.646484 0)"/>
      <use xlink:href="#DejaVuSans-6e" transform="translate(252.828125 0)"/>
      <use xlink:href="#DejaVuSans-5f" transform="translate(316.207031 0)"/>
      <use xlink:href="#DejaVuSans-34" transform="translate(366.207031 0)"/>
     </g>
    </g>
    <g id="patch_42">
     <path d="M 1095.267125 116.851063 
L 1112.867125 116.851063 
L 1112.867125 110.691063 
L 1095.267125 110.691063 
z
" style="fill: #f4eab2; stroke: #484848; stroke-width: 0.8; stroke-linejoin: miter"/>
    </g>
    <g id="text_15">
     <!-- region_5 -->
     <g style="fill: #262626" transform="translate(1119.907125 116.851063) scale(0.088 -0.088)">
      <defs>
       <path id="DejaVuSans-35" d="M 691 4666 
L 3169 4666 
L 3169 4134 
L 1269 4134 
L 1269 2991 
Q 1406 3038 1543 3061 
Q 1681 3084 1819 3084 
Q 2600 3084 3056 2656 
Q 3513 2228 3513 1497 
Q 3513 744 3044 326 
Q 2575 -91 1722 -91 
Q 1428 -91 1123 -41 
Q 819 9 494 109 
L 494 744 
Q 775 591 1075 516 
Q 1375 441 1709 441 
Q 2250 441 2565 725 
Q 2881 1009 2881 1497 
Q 2881 1984 2565 2268 
Q 2250 2553 1709 2553 
Q 1456 2553 1204 2497 
Q 953 2441 691 2322 
L 691 4666 
z
" transform="scale(0.015625)"/>
      </defs>
      <use xlink:href="#DejaVuSans-72"/>
      <use xlink:href="#DejaVuSans-65" transform="translate(38.863281 0)"/>
      <use xlink:href="#DejaVuSans-67" transform="translate(100.386719 0)"/>
      <use xlink:href="#DejaVuSans-69" transform="translate(163.863281 0)"/>
      <use xlink:href="#DejaVuSans-6f" transform="translate(191.646484 0)"/>
      <use xlink:href="#DejaVuSans-6e" transform="translate(252.828125 0)"/>
      <use xlink:href="#DejaVuSans-5f" transform="translate(316.207031 0)"/>
      <use xlink:href="#DejaVuSans-35" transform="translate(366.207031 0)"/>
     </g>
    </g>
    <g id="patch_43">
     <path d="M 1095.267125 130.012563 
L 1112.867125 130.012563 
L 1112.867125 123.852563 
L 1095.267125 123.852563 
z
" style="fill: #ecf1b7; stroke: #484848; stroke-width: 0.8; stroke-linejoin: miter"/>
    </g>
    <g id="text_16">
     <!-- region_7 -->
     <g style="fill: #262626" transform="translate(1119.907125 130.012563) scale(0.088 -0.088)">
      <defs>
       <path id="DejaVuSans-37" d="M 525 4666 
L 3525 4666 
L 3525 4397 
L 1831 0 
L 1172 0 
L 2766 4134 
L 525 4134 
L 525 4666 
z
" transform="scale(0.015625)"/>
      </defs>
      <use xlink:href="#DejaVuSans-72"/>
      <use xlink:href="#DejaVuSans-65" transform="translate(38.863281 0)"/>
      <use xlink:href="#DejaVuSans-67" transform="translate(100.386719 0)"/>
      <use xlink:href="#DejaVuSans-69" transform="translate(163.863281 0)"/>
      <use xlink:href="#DejaVuSans-6f" transform="translate(191.646484 0)"/>
      <use xlink:href="#DejaVuSans-6e" transform="translate(252.828125 0)"/>
      <use xlink:href="#DejaVuSans-5f" transform="translate(316.207031 0)"/>
      <use xlink:href="#DejaVuSans-37" transform="translate(366.207031 0)"/>
     </g>
    </g>
    <g id="patch_44">
     <path d="M 1095.267125 143.174063 
L 1112.867125 143.174063 
L 1112.867125 137.014063 
L 1095.267125 137.014063 
z
" style="fill: #cee2a6; stroke: #484848; stroke-width: 0.8; stroke-linejoin: miter"/>
    </g>
    <g id="text_17">
     <!-- region_8 -->
     <g style="fill: #262626" transform="translate(1119.907125 143.174063) scale(0.088 -0.088)">
      <defs>
       <path id="DejaVuSans-38" d="M 2034 2216 
Q 1584 2216 1326 1975 
Q 1069 1734 1069 1313 
Q 1069 891 1326 650 
Q 1584 409 2034 409 
Q 2484 409 2743 651 
Q 3003 894 3003 1313 
Q 3003 1734 2745 1975 
Q 2488 2216 2034 2216 
z
M 1403 2484 
Q 997 2584 770 2862 
Q 544 3141 544 3541 
Q 544 4100 942 4425 
Q 1341 4750 2034 4750 
Q 2731 4750 3128 4425 
Q 3525 4100 3525 3541 
Q 3525 3141 3298 2862 
Q 3072 2584 2669 2484 
Q 3125 2378 3379 2068 
Q 3634 1759 3634 1313 
Q 3634 634 3220 271 
Q 2806 -91 2034 -91 
Q 1263 -91 848 271 
Q 434 634 434 1313 
Q 434 1759 690 2068 
Q 947 2378 1403 2484 
z
M 1172 3481 
Q 1172 3119 1398 2916 
Q 1625 2713 2034 2713 
Q 2441 2713 2670 2916 
Q 2900 3119 2900 3481 
Q 2900 3844 2670 4047 
Q 2441 4250 2034 4250 
Q 1625 4250 1398 4047 
Q 1172 3844 1172 3481 
z
" transform="scale(0.015625)"/>
      </defs>
      <use xlink:href="#DejaVuSans-72"/>
      <use xlink:href="#DejaVuSans-65" transform="translate(38.863281 0)"/>
      <use xlink:href="#DejaVuSans-67" transform="translate(100.386719 0)"/>
      <use xlink:href="#DejaVuSans-69" transform="translate(163.863281 0)"/>
      <use xlink:href="#DejaVuSans-6f" transform="translate(191.646484 0)"/>
      <use xlink:href="#DejaVuSans-6e" transform="translate(252.828125 0)"/>
      <use xlink:href="#DejaVuSans-5f" transform="translate(316.207031 0)"/>
      <use xlink:href="#DejaVuSans-38" transform="translate(366.207031 0)"/>
     </g>
    </g>
    <g id="patch_45">
     <path d="M 1095.267125 156.335563 
L 1112.867125 156.335563 
L 1112.867125 150.175563 
L 1095.267125 150.175563 
z
" style="fill: #9fcda9; stroke: #484848; stroke-width: 0.8; stroke-linejoin: miter"/>
    </g>
    <g id="text_18">
     <!-- region_9 -->
     <g style="fill: #262626" transform="translate(1119.907125 156.335563) scale(0.088 -0.088)">
      <defs>
       <path id="DejaVuSans-39" d="M 703 97 
L 703 672 
Q 941 559 1184 500 
Q 1428 441 1663 441 
Q 2288 441 2617 861 
Q 2947 1281 2994 2138 
Q 2813 1869 2534 1725 
Q 2256 1581 1919 1581 
Q 1219 1581 811 2004 
Q 403 2428 403 3163 
Q 403 3881 828 4315 
Q 1253 4750 1959 4750 
Q 2769 4750 3195 4129 
Q 3622 3509 3622 2328 
Q 3622 1225 3098 567 
Q 2575 -91 1691 -91 
Q 1453 -91 1209 -44 
Q 966 3 703 97 
z
M 1959 2075 
Q 2384 2075 2632 2365 
Q 2881 2656 2881 3163 
Q 2881 3666 2632 3958 
Q 2384 4250 1959 4250 
Q 1534 4250 1286 3958 
Q 1038 3666 1038 3163 
Q 1038 2656 1286 2365 
Q 1534 2075 1959 2075 
z
" transform="scale(0.015625)"/>
      </defs>
      <use xlink:href="#DejaVuSans-72"/>
      <use xlink:href="#DejaVuSans-65" transform="translate(38.863281 0)"/>
      <use xlink:href="#DejaVuSans-67" transform="translate(100.386719 0)"/>
      <use xlink:href="#DejaVuSans-69" transform="translate(163.863281 0)"/>
      <use xlink:href="#DejaVuSans-6f" transform="translate(191.646484 0)"/>
      <use xlink:href="#DejaVuSans-6e" transform="translate(252.828125 0)"/>
      <use xlink:href="#DejaVuSans-5f" transform="translate(316.207031 0)"/>
      <use xlink:href="#DejaVuSans-39" transform="translate(366.207031 0)"/>
     </g>
    </g>
    <g id="patch_46">
     <path d="M 1095.267125 169.497063 
L 1112.867125 169.497063 
L 1112.867125 163.337063 
L 1095.267125 163.337063 
z
" style="fill: #67aba2; stroke: #484848; stroke-width: 0.8; stroke-linejoin: miter"/>
    </g>
    <g id="text_19">
     <!-- region_10 -->
     <g style="fill: #262626" transform="translate(1119.907125 169.497063) scale(0.088 -0.088)">
      <use xlink:href="#DejaVuSans-72"/>
      <use xlink:href="#DejaVuSans-65" transform="translate(38.863281 0)"/>
      <use xlink:href="#DejaVuSans-67" transform="translate(100.386719 0)"/>
      <use xlink:href="#DejaVuSans-69" transform="translate(163.863281 0)"/>
      <use xlink:href="#DejaVuSans-6f" transform="translate(191.646484 0)"/>
      <use xlink:href="#DejaVuSans-6e" transform="translate(252.828125 0)"/>
      <use xlink:href="#DejaVuSans-5f" transform="translate(316.207031 0)"/>
      <use xlink:href="#DejaVuSans-31" transform="translate(366.207031 0)"/>
      <use xlink:href="#DejaVuSans-30" transform="translate(429.830078 0)"/>
     </g>
    </g>
    <g id="patch_47">
     <path d="M 1095.267125 182.658563 
L 1112.867125 182.658563 
L 1112.867125 176.498563 
L 1095.267125 176.498563 
z
" style="fill: #4780aa; stroke: #484848; stroke-width: 0.8; stroke-linejoin: miter"/>
    </g>
    <g id="text_20">
     <!-- region_11 -->
     <g style="fill: #262626" transform="translate(1119.907125 182.658563) scale(0.088 -0.088)">
      <use xlink:href="#DejaVuSans-72"/>
      <use xlink:href="#DejaVuSans-65" transform="translate(38.863281 0)"/>
      <use xlink:href="#DejaVuSans-67" transform="translate(100.386719 0)"/>
      <use xlink:href="#DejaVuSans-69" transform="translate(163.863281 0)"/>
      <use xlink:href="#DejaVuSans-6f" transform="translate(191.646484 0)"/>
      <use xlink:href="#DejaVuSans-6e" transform="translate(252.828125 0)"/>
      <use xlink:href="#DejaVuSans-5f" transform="translate(316.207031 0)"/>
      <use xlink:href="#DejaVuSans-31" transform="translate(366.207031 0)"/>
      <use xlink:href="#DejaVuSans-31" transform="translate(429.830078 0)"/>
     </g>
    </g>
   </g>
  </g>
 </g>
 <defs>
  <clipPath id="p6574196f99">
   <rect x="70.703125" y="49.598438" width="1016.644" height="452.364"/>
  </clipPath>
 </defs>
</svg>
