<?xml version="1.0" encoding="utf-8" standalone="no"?>
<!DOCTYPE svg PUBLIC "-//W3C//DTD SVG 1.1//EN"
  "http://www.w3.org/Graphics/SVG/1.1/DTD/svg11.dtd">
<svg xmlns:xlink="http://www.w3.org/1999/xlink" width="770.869625pt" height="482.479625pt" viewBox="0 0 770.869625 482.479625" xmlns="http://www.w3.org/2000/svg" version="1.1">
 <metadata>
  <rdf:RDF xmlns:dc="http://purl.org/dc/elements/1.1/" xmlns:cc="http://creativecommons.org/ns#" xmlns:rdf="http://www.w3.org/1999/02/22-rdf-syntax-ns#">
   <cc:Work>
    <dc:type rdf:resource="http://purl.org/dc/dcmitype/StillImage"/>
    <dc:date>2025-07-25T12:42:03.207654</dc:date>
    <dc:format>image/svg+xml</dc:format>
    <dc:creator>
     <cc:Agent>
      <dc:title>Matplotlib v3.10.3, https://matplotlib.org/</dc:title>
     </cc:Agent>
    </dc:creator>
   </cc:Work>
  </rdf:RDF>
 </metadata>
 <defs>
  <style type="text/css">*{stroke-linejoin: round; stroke-linecap: butt}</style>
 </defs>
 <g id="figure_1">
  <g id="patch_1">
   <path d="M 0 482.479625 
L 770.869625 482.479625 
L 770.869625 0 
L 0 0 
z
" style="fill: #ffffff"/>
  </g>
  <g id="axes_1">
   <g id="patch_2">
    <path d="M 78.265625 356.762438 
L 734.869625 356.762438 
L 734.869625 49.598437 
L 78.265625 49.598437 
z
" style="fill: #ffffff"/>
   </g>
   <g id="matplotlib.axis_1">
    <g id="xtick_1">
     <g id="text_1">
      <text style="font-size: 10px; font-family: 'Arial', 'DejaVu Sans', 'Liberation Sans', 'Bitstream Vera Sans', sans-serif; fill: #262626" transform="translate(190.459 432.085875) rotate(-90)">unknown cell</text>
     </g>
    </g>
    <g id="xtick_2">
     <g id="text_2">
      <text style="font-size: 10px; font-family: 'Arial', 'DejaVu Sans', 'Liberation Sans', 'Bitstream Vera Sans', sans-serif; fill: #262626" transform="translate(409.327 427.735875) rotate(-90)">immune cell</text>
     </g>
    </g>
    <g id="xtick_3">
     <g id="text_3">
      <text style="font-size: 10px; font-family: 'Arial', 'DejaVu Sans', 'Liberation Sans', 'Bitstream Vera Sans', sans-serif; fill: #262626" transform="translate(628.195 432.8015) rotate(-90)">epithelial cell</text>
     </g>
    </g>
    <g id="text_4">
     <text style="font-size: 10px; font-family: 'Arial', 'DejaVu Sans', 'Liberation Sans', 'Bitstream Vera Sans', sans-serif; text-anchor: middle; fill: #262626" x="406.567625" y="444.399938" transform="rotate(-0 406.567625 444.399938)">Level One Cell Type</text>
    </g>
   </g>
   <g id="matplotlib.axis_2">
    <g id="ytick_1">
     <g id="line2d_1">
      <path d="M 78.265625 344.714133 
L 734.869625 344.714133 
" clip-path="url(#pee62973244)" style="fill: none; stroke: #cccccc; stroke-width: 2; stroke-linecap: round"/>
     </g>
     <g id="text_5">
      <text style="font-size: 10px; font-family: 'Arial', 'DejaVu Sans', 'Liberation Sans', 'Bitstream Vera Sans', sans-serif; text-anchor: end; fill: #262626" x="68.765625" y="348.513352" transform="rotate(-0 68.765625 348.513352)">0</text>
     </g>
    </g>
    <g id="ytick_2">
     <g id="line2d_2">
      <path d="M 78.265625 310.439745 
L 734.869625 310.439745 
" clip-path="url(#pee62973244)" style="fill: none; stroke: #cccccc; stroke-width: 2; stroke-linecap: round"/>
     </g>
     <g id="text_6">
      <text style="font-size: 10px; font-family: 'Arial', 'DejaVu Sans', 'Liberation Sans', 'Bitstream Vera Sans', sans-serif; text-anchor: end; fill: #262626" x="68.765625" y="314.238964" transform="rotate(-0 68.765625 314.238964)">20</text>
     </g>
    </g>
    <g id="ytick_3">
     <g id="line2d_3">
      <path d="M 78.265625 276.165357 
L 734.869625 276.165357 
" clip-path="url(#pee62973244)" style="fill: none; stroke: #cccccc; stroke-width: 2; stroke-linecap: round"/>
     </g>
     <g id="text_7">
      <text style="font-size: 10px; font-family: 'Arial', 'DejaVu Sans', 'Liberation Sans', 'Bitstream Vera Sans', sans-serif; text-anchor: end; fill: #262626" x="68.765625" y="279.964575" transform="rotate(-0 68.765625 279.964575)">40</text>
     </g>
    </g>
    <g id="ytick_4">
     <g id="line2d_4">
      <path d="M 78.265625 241.890968 
L 734.869625 241.890968 
" clip-path="url(#pee62973244)" style="fill: none; stroke: #cccccc; stroke-width: 2; stroke-linecap: round"/>
     </g>
     <g id="text_8">
      <text style="font-size: 10px; font-family: 'Arial', 'DejaVu Sans', 'Liberation Sans', 'Bitstream Vera Sans', sans-serif; text-anchor: end; fill: #262626" x="68.765625" y="245.690187" transform="rotate(-0 68.765625 245.690187)">60</text>
     </g>
    </g>
    <g id="ytick_5">
     <g id="line2d_5">
      <path d="M 78.265625 207.61658 
L 734.869625 207.61658 
" clip-path="url(#pee62973244)" style="fill: none; stroke: #cccccc; stroke-width: 2; stroke-linecap: round"/>
     </g>
     <g id="text_9">
      <text style="font-size: 10px; font-family: 'Arial', 'DejaVu Sans', 'Liberation Sans', 'Bitstream Vera Sans', sans-serif; text-anchor: end; fill: #262626" x="68.765625" y="211.415799" transform="rotate(-0 68.765625 211.415799)">80</text>
     </g>
    </g>
    <g id="ytick_6">
     <g id="line2d_6">
      <path d="M 78.265625 173.342191 
L 734.869625 173.342191 
" clip-path="url(#pee62973244)" style="fill: none; stroke: #cccccc; stroke-width: 2; stroke-linecap: round"/>
     </g>
     <g id="text_10">
      <text style="font-size: 10px; font-family: 'Arial', 'DejaVu Sans', 'Liberation Sans', 'Bitstream Vera Sans', sans-serif; text-anchor: end; fill: #262626" x="68.765625" y="177.14141" transform="rotate(-0 68.765625 177.14141)">100</text>
     </g>
    </g>
    <g id="ytick_7">
     <g id="line2d_7">
      <path d="M 78.265625 139.067803 
L 734.869625 139.067803 
" clip-path="url(#pee62973244)" style="fill: none; stroke: #cccccc; stroke-width: 2; stroke-linecap: round"/>
     </g>
     <g id="text_11">
      <text style="font-size: 10px; font-family: 'Arial', 'DejaVu Sans', 'Liberation Sans', 'Bitstream Vera Sans', sans-serif; text-anchor: end; fill: #262626" x="68.765625" y="142.867022" transform="rotate(-0 68.765625 142.867022)">120</text>
     </g>
    </g>
    <g id="ytick_8">
     <g id="line2d_8">
      <path d="M 78.265625 104.793415 
L 734.869625 104.793415 
" clip-path="url(#pee62973244)" style="fill: none; stroke: #cccccc; stroke-width: 2; stroke-linecap: round"/>
     </g>
     <g id="text_12">
      <text style="font-size: 10px; font-family: 'Arial', 'DejaVu Sans', 'Liberation Sans', 'Bitstream Vera Sans', sans-serif; text-anchor: end; fill: #262626" x="68.765625" y="108.592633" transform="rotate(-0 68.765625 108.592633)">140</text>
     </g>
    </g>
    <g id="ytick_9">
     <g id="line2d_9">
      <path d="M 78.265625 70.519026 
L 734.869625 70.519026 
" clip-path="url(#pee62973244)" style="fill: none; stroke: #cccccc; stroke-width: 2; stroke-linecap: round"/>
     </g>
     <g id="text_13">
      <text style="font-size: 10px; font-family: 'Arial', 'DejaVu Sans', 'Liberation Sans', 'Bitstream Vera Sans', sans-serif; text-anchor: end; fill: #262626" x="68.765625" y="74.318245" transform="rotate(-0 68.765625 74.318245)">160</text>
     </g>
    </g>
    <g id="text_14">
     <text style="font-size: 10px; font-family: 'Arial', 'DejaVu Sans', 'Liberation Sans', 'Bitstream Vera Sans', sans-serif; text-anchor: middle; fill: #262626" x="43.598437" y="203.180437" transform="rotate(-90 43.598437 203.180437)">Distance (μm)</text>
    </g>
   </g>
   <g id="FillBetweenPolyCollection_1">
    <defs>
     <path id="m5212596a6b" d="M 193.103548 -139.679187 
L 182.295702 -139.679187 
L 179.3476 -142.499794 
L 176.079029 -145.3204 
L 172.927337 -148.141006 
L 170.246033 -150.961612 
L 168.181139 -153.782218 
L 166.679815 -156.602824 
L 165.59093 -159.42343 
L 164.76823 -162.244036 
L 164.118871 -165.064642 
L 163.598527 -167.885248 
L 163.187594 -170.705854 
L 162.878274 -173.52646 
L 162.67531 -176.347066 
L 162.593126 -179.167672 
L 162.639391 -181.988278 
L 162.797563 -184.808884 
L 163.027563 -187.629491 
L 163.286085 -190.450097 
L 163.550169 -193.270703 
L 163.828745 -196.091309 
L 164.157557 -198.911915 
L 164.579997 -201.732521 
L 165.121946 -204.553127 
L 165.774974 -207.373733 
L 166.49968 -210.194339 
L 167.246594 -213.014945 
L 167.979938 -215.835551 
L 168.690324 -218.656157 
L 169.391113 -221.476763 
L 170.102098 -224.297369 
L 170.831671 -227.117975 
L 171.570139 -229.938581 
L 172.297462 -232.759187 
L 172.99614 -235.579794 
L 173.658191 -238.4004 
L 174.284386 -241.221006 
L 174.881294 -244.041612 
L 175.459564 -246.862218 
L 176.031872 -249.682824 
L 176.608877 -252.50343 
L 177.194702 -255.324036 
L 177.784165 -258.144642 
L 178.36285 -260.965248 
L 178.91137 -263.785854 
L 179.414364 -266.60646 
L 179.869343 -269.427066 
L 180.28651 -272.247672 
L 180.677344 -275.068278 
L 181.042433 -277.888884 
L 181.371812 -280.709491 
L 181.657912 -283.530097 
L 181.907209 -286.350703 
L 182.138588 -289.171309 
L 182.370948 -291.991915 
L 182.611743 -294.812521 
L 182.854001 -297.633127 
L 183.080972 -300.453733 
L 183.274554 -303.274339 
L 183.424121 -306.094945 
L 183.531757 -308.915551 
L 183.610405 -311.736157 
L 183.676052 -314.556763 
L 183.740344 -317.377369 
L 183.809302 -320.197975 
L 183.887192 -323.018581 
L 183.979649 -325.839188 
L 184.092489 -328.659794 
L 184.228464 -331.4804 
L 184.385717 -334.301006 
L 184.55836 -337.121612 
L 184.737566 -339.942218 
L 184.913209 -342.762824 
L 185.076858 -345.58343 
L 185.224561 -348.404036 
L 185.356673 -351.224642 
L 185.474983 -354.045248 
L 185.580536 -356.865854 
L 185.674323 -359.68646 
L 185.759258 -362.507066 
L 185.84054 -365.327672 
L 185.923771 -368.148278 
L 186.012812 -370.968884 
L 186.109059 -373.789491 
L 186.211651 -376.610097 
L 186.317558 -379.430703 
L 186.422028 -382.251309 
L 186.520353 -385.071915 
L 186.610145 -387.892521 
L 186.692063 -390.713127 
L 186.768535 -393.533733 
L 186.84229 -396.354339 
L 186.916384 -399.174945 
L 186.994823 -401.995551 
L 187.081582 -404.816157 
L 187.177854 -407.636763 
L 187.280125 -410.457369 
L 187.38114 -413.277975 
L 187.472918 -416.098581 
L 187.549469 -418.919188 
L 187.849781 -418.919188 
L 187.849781 -418.919188 
L 187.926332 -416.098581 
L 188.01811 -413.277975 
L 188.119125 -410.457369 
L 188.221396 -407.636763 
L 188.317668 -404.816157 
L 188.404427 -401.995551 
L 188.482866 -399.174945 
L 188.55696 -396.354339 
L 188.630715 -393.533733 
L 188.707187 -390.713127 
L 188.789105 -387.892521 
L 188.878897 -385.071915 
L 188.977222 -382.251309 
L 189.081692 -379.430703 
L 189.187599 -376.610097 
L 189.290191 -373.789491 
L 189.386438 -370.968884 
L 189.475479 -368.148278 
L 189.55871 -365.327672 
L 189.639992 -362.507066 
L 189.724927 -359.68646 
L 189.818714 -356.865854 
L 189.924267 -354.045248 
L 190.042577 -351.224642 
L 190.174689 -348.404036 
L 190.322392 -345.58343 
L 190.486041 -342.762824 
L 190.661684 -339.942218 
L 190.84089 -337.121612 
L 191.013533 -334.301006 
L 191.170786 -331.4804 
L 191.306761 -328.659794 
L 191.419601 -325.839188 
L 191.512058 -323.018581 
L 191.589948 -320.197975 
L 191.658906 -317.377369 
L 191.723198 -314.556763 
L 191.788845 -311.736157 
L 191.867493 -308.915551 
L 191.975129 -306.094945 
L 192.124696 -303.274339 
L 192.318278 -300.453733 
L 192.545249 -297.633127 
L 192.787507 -294.812521 
L 193.028302 -291.991915 
L 193.260662 -289.171309 
L 193.492041 -286.350703 
L 193.741338 -283.530097 
L 194.027438 -280.709491 
L 194.356817 -277.888884 
L 194.721906 -275.068278 
L 195.11274 -272.247672 
L 195.529907 -269.427066 
L 195.984886 -266.60646 
L 196.48788 -263.785854 
L 197.0364 -260.965248 
L 197.615085 -258.144642 
L 198.204548 -255.324036 
L 198.790373 -252.50343 
L 199.367378 -249.682824 
L 199.939686 -246.862218 
L 200.517956 -244.041612 
L 201.114864 -241.221006 
L 201.741059 -238.4004 
L 202.40311 -235.579794 
L 203.101788 -232.759187 
L 203.829111 -229.938581 
L 204.567579 -227.117975 
L 205.297152 -224.297369 
L 206.008137 -221.476763 
L 206.708926 -218.656157 
L 207.419312 -215.835551 
L 208.152656 -213.014945 
L 208.89957 -210.194339 
L 209.624276 -207.373733 
L 210.277304 -204.553127 
L 210.819253 -201.732521 
L 211.241693 -198.911915 
L 211.570505 -196.091309 
L 211.849081 -193.270703 
L 212.113165 -190.450097 
L 212.371687 -187.629491 
L 212.601687 -184.808884 
L 212.759859 -181.988278 
L 212.806124 -179.167672 
L 212.72394 -176.347066 
L 212.520976 -173.52646 
L 212.211656 -170.705854 
L 211.800723 -167.885248 
L 211.280379 -165.064642 
L 210.63102 -162.244036 
L 209.80832 -159.42343 
L 208.719435 -156.602824 
L 207.218111 -153.782218 
L 205.153217 -150.961612 
L 202.471913 -148.141006 
L 199.320221 -145.3204 
L 196.05165 -142.499794 
L 193.103548 -139.679187 
z
" style="stroke: #636363; stroke-opacity: 0.9; stroke-width: 1.25"/>
    </defs>
    <g clip-path="url(#pee62973244)">
     <use xlink:href="#m5212596a6b" x="0" y="482.479625" style="fill: #e49467; fill-opacity: 0.9; stroke: #636363; stroke-opacity: 0.9; stroke-width: 1.25"/>
    </g>
   </g>
   <g id="FillBetweenPolyCollection_2">
    <defs>
     <path id="m047d028339" d="M 425.834122 -140.91362 
L 387.301128 -140.91362 
L 365.118333 -143.610924 
L 341.192145 -146.308228 
L 324.815275 -149.005531 
L 319.020425 -151.702835 
L 321.030058 -154.400138 
L 326.888444 -157.097442 
L 334.184902 -159.794746 
L 342.194311 -162.492049 
L 350.419896 -165.189353 
L 357.884659 -167.886657 
L 364.262209 -170.58396 
L 370.094434 -173.281264 
L 375.660595 -175.978568 
L 380.57044 -178.675871 
L 384.478398 -181.373175 
L 387.612184 -184.070479 
L 390.235551 -186.767782 
L 392.339209 -189.465086 
L 394.00597 -192.162389 
L 395.399258 -194.859693 
L 396.61211 -197.556997 
L 397.701733 -200.2543 
L 398.733554 -202.951604 
L 399.712721 -205.648908 
L 400.532605 -208.346211 
L 401.104047 -211.043515 
L 401.445161 -213.740819 
L 401.698481 -216.438122 
L 402.048269 -219.135426 
L 402.503343 -221.83273 
L 402.920778 -224.530033 
L 403.272407 -227.227337 
L 403.643692 -229.92464 
L 404.033034 -232.621944 
L 404.356427 -235.319248 
L 404.553975 -238.016551 
L 404.662689 -240.713855 
L 404.794614 -243.411159 
L 405.022579 -246.108462 
L 405.300889 -248.805766 
L 405.524062 -251.50307 
L 405.659954 -254.200373 
L 405.741862 -256.897677 
L 405.812484 -259.594981 
L 405.898741 -262.292284 
L 405.991838 -264.989588 
L 406.055 -267.686891 
L 406.050367 -270.384195 
L 405.992339 -273.081499 
L 405.944399 -275.778802 
L 405.924426 -278.476106 
L 405.920579 -281.17341 
L 405.944975 -283.870713 
L 405.979374 -286.568017 
L 405.986938 -289.265321 
L 405.992162 -291.962624 
L 406.043293 -294.659928 
L 406.119589 -297.357232 
L 406.177846 -300.054535 
L 406.229204 -302.751839 
L 406.286115 -305.449142 
L 406.315663 -308.146446 
L 406.290931 -310.84375 
L 406.237745 -313.541053 
L 406.213737 -316.238357 
L 406.239819 -318.935661 
L 406.287891 -321.632964 
L 406.337834 -324.330268 
L 406.381022 -327.027572 
L 406.395115 -329.724875 
L 406.384274 -332.422179 
L 406.374167 -335.119483 
L 406.354073 -337.816786 
L 406.305367 -340.51409 
L 406.255951 -343.211393 
L 406.265048 -345.908697 
L 406.350242 -348.606001 
L 406.454415 -351.303304 
L 406.517624 -354.000608 
L 406.537143 -356.697912 
L 406.537168 -359.395215 
L 406.530637 -362.092519 
L 406.523733 -364.789823 
L 406.52319 -367.487126 
L 406.526322 -370.18443 
L 406.519668 -372.881734 
L 406.495929 -375.579037 
L 406.472035 -378.276341 
L 406.473148 -380.973644 
L 406.488544 -383.670948 
L 406.486893 -386.368252 
L 406.47099 -389.065555 
L 406.471151 -391.762859 
L 406.498638 -394.460163 
L 406.53375 -397.157466 
L 406.553681 -399.85477 
L 406.553079 -402.552074 
L 406.541853 -405.249377 
L 406.537755 -407.946681 
L 406.597495 -407.946681 
L 406.597495 -407.946681 
L 406.593397 -405.249377 
L 406.582171 -402.552074 
L 406.581569 -399.85477 
L 406.6015 -397.157466 
L 406.636612 -394.460163 
L 406.664099 -391.762859 
L 406.66426 -389.065555 
L 406.648357 -386.368252 
L 406.646706 -383.670948 
L 406.662102 -380.973644 
L 406.663215 -378.276341 
L 406.639321 -375.579037 
L 406.615582 -372.881734 
L 406.608928 -370.18443 
L 406.61206 -367.487126 
L 406.611517 -364.789823 
L 406.604613 -362.092519 
L 406.598082 -359.395215 
L 406.598107 -356.697912 
L 406.617626 -354.000608 
L 406.680835 -351.303304 
L 406.785008 -348.606001 
L 406.870202 -345.908697 
L 406.879299 -343.211393 
L 406.829883 -340.51409 
L 406.781177 -337.816786 
L 406.761083 -335.119483 
L 406.750976 -332.422179 
L 406.740135 -329.724875 
L 406.754228 -327.027572 
L 406.797416 -324.330268 
L 406.847359 -321.632964 
L 406.895431 -318.935661 
L 406.921513 -316.238357 
L 406.897505 -313.541053 
L 406.844319 -310.84375 
L 406.819587 -308.146446 
L 406.849135 -305.449142 
L 406.906046 -302.751839 
L 406.957404 -300.054535 
L 407.015661 -297.357232 
L 407.091957 -294.659928 
L 407.143088 -291.962624 
L 407.148312 -289.265321 
L 407.155876 -286.568017 
L 407.190275 -283.870713 
L 407.214671 -281.17341 
L 407.210824 -278.476106 
L 407.190851 -275.778802 
L 407.142911 -273.081499 
L 407.084883 -270.384195 
L 407.08025 -267.686891 
L 407.143412 -264.989588 
L 407.236509 -262.292284 
L 407.322766 -259.594981 
L 407.393388 -256.897677 
L 407.475296 -254.200373 
L 407.611188 -251.50307 
L 407.834361 -248.805766 
L 408.112671 -246.108462 
L 408.340636 -243.411159 
L 408.472561 -240.713855 
L 408.581275 -238.016551 
L 408.778823 -235.319248 
L 409.102216 -232.621944 
L 409.491558 -229.92464 
L 409.862843 -227.227337 
L 410.214472 -224.530033 
L 410.631907 -221.83273 
L 411.086981 -219.135426 
L 411.436769 -216.438122 
L 411.690089 -213.740819 
L 412.031203 -211.043515 
L 412.602645 -208.346211 
L 413.422529 -205.648908 
L 414.401696 -202.951604 
L 415.433517 -200.2543 
L 416.52314 -197.556997 
L 417.735992 -194.859693 
L 419.12928 -192.162389 
L 420.796041 -189.465086 
L 422.899699 -186.767782 
L 425.523066 -184.070479 
L 428.656852 -181.373175 
L 432.56481 -178.675871 
L 437.474655 -175.978568 
L 443.040816 -173.281264 
L 448.873041 -170.58396 
L 455.250591 -167.886657 
L 462.715354 -165.189353 
L 470.940939 -162.492049 
L 478.950348 -159.794746 
L 486.246806 -157.097442 
L 492.105192 -154.400138 
L 494.114825 -151.702835 
L 488.319975 -149.005531 
L 471.943105 -146.308228 
L 448.016917 -143.610924 
L 425.834122 -140.91362 
z
" style="stroke: #636363; stroke-opacity: 0.9; stroke-width: 1.25"/>
    </defs>
    <g clip-path="url(#pee62973244)">
     <use xlink:href="#m047d028339" x="0" y="482.479625" style="fill: #f7f7c6; fill-opacity: 0.9; stroke: #636363; stroke-opacity: 0.9; stroke-width: 1.25"/>
    </g>
   </g>
   <g id="FillBetweenPolyCollection_3">
    <defs>
     <path id="mbcff322690" d="M 627.516067 -142.829479 
L 623.355183 -142.829479 
L 622.934109 -144.541209 
L 622.51422 -146.25294 
L 622.10942 -147.96467 
L 621.727474 -149.6764 
L 621.367259 -151.388131 
L 621.01658 -153.099861 
L 620.6506 -154.811592 
L 620.231023 -156.523322 
L 619.706369 -158.235052 
L 619.013937 -159.946783 
L 618.084112 -161.658513 
L 616.847449 -163.370243 
L 615.244342 -165.081974 
L 613.236127 -166.793704 
L 610.815422 -168.505434 
L 608.012838 -170.217165 
L 604.897382 -171.928895 
L 601.569165 -173.640626 
L 598.145249 -175.352356 
L 594.741849 -177.064086 
L 591.457644 -178.775817 
L 588.362884 -180.487547 
L 585.497188 -182.199277 
L 582.876078 -183.911008 
L 580.503457 -185.622738 
L 578.385533 -187.334468 
L 576.541566 -189.046199 
L 575.008245 -190.757929 
L 573.83672 -192.46966 
L 573.083575 -194.18139 
L 572.798583 -195.89312 
L 573.012574 -197.604851 
L 573.728368 -199.316581 
L 574.916664 -201.028311 
L 576.517545 -202.740042 
L 578.447051 -204.451772 
L 580.607309 -206.163502 
L 582.89818 -207.875233 
L 585.228262 -209.586963 
L 587.523556 -211.298693 
L 589.732788 -213.010424 
L 591.829114 -214.722154 
L 593.808408 -216.433885 
L 595.684625 -218.145615 
L 597.482942 -219.857345 
L 599.231759 -221.569076 
L 600.955016 -223.280806 
L 602.66639 -224.992536 
L 604.366592 -226.704267 
L 606.044164 -228.415997 
L 607.679209 -230.127727 
L 609.248787 -231.839458 
L 610.732456 -233.551188 
L 612.116651 -235.262919 
L 613.396999 -236.974649 
L 614.578206 -238.686379 
L 615.671686 -240.39811 
L 616.691616 -242.10984 
L 617.650567 -243.82157 
L 618.556049 -245.533301 
L 619.409021 -247.245031 
L 620.204726 -248.956761 
L 620.93533 -250.668492 
L 621.593184 -252.380222 
L 622.173442 -254.091953 
L 622.675201 -255.803683 
L 623.101114 -257.515413 
L 623.456079 -259.227144 
L 623.745867 -260.938874 
L 623.976348 -262.650604 
L 624.153446 -264.362335 
L 624.283437 -266.074065 
L 624.372931 -267.785795 
L 624.428016 -269.497526 
L 624.452493 -271.209256 
L 624.445714 -272.920986 
L 624.400971 -274.632717 
L 624.305438 -276.344447 
L 624.142282 -278.056178 
L 623.89488 -279.767908 
L 623.552244 -281.479638 
L 623.114273 -283.191369 
L 622.595303 -284.903099 
L 622.024865 -286.614829 
L 621.44529 -288.32656 
L 620.906607 -290.03829 
L 620.459765 -291.75002 
L 620.149468 -293.461751 
L 620.007833 -295.173481 
L 620.04984 -296.885212 
L 620.271286 -298.596942 
L 620.649605 -300.308672 
L 621.147556 -302.020403 
L 621.719179 -303.732133 
L 622.316892 -305.443863 
L 622.898209 -307.155594 
L 623.430671 -308.867324 
L 623.894109 -310.579054 
L 624.280217 -312.290785 
L 626.591033 -312.290785 
L 626.591033 -312.290785 
L 626.977141 -310.579054 
L 627.440579 -308.867324 
L 627.973041 -307.155594 
L 628.554358 -305.443863 
L 629.152071 -303.732133 
L 629.723694 -302.020403 
L 630.221645 -300.308672 
L 630.599964 -298.596942 
L 630.82141 -296.885212 
L 630.863417 -295.173481 
L 630.721782 -293.461751 
L 630.411485 -291.75002 
L 629.964643 -290.03829 
L 629.42596 -288.32656 
L 628.846385 -286.614829 
L 628.275947 -284.903099 
L 627.756977 -283.191369 
L 627.319006 -281.479638 
L 626.97637 -279.767908 
L 626.728968 -278.056178 
L 626.565812 -276.344447 
L 626.470279 -274.632717 
L 626.425536 -272.920986 
L 626.418757 -271.209256 
L 626.443234 -269.497526 
L 626.498319 -267.785795 
L 626.587813 -266.074065 
L 626.717804 -264.362335 
L 626.894902 -262.650604 
L 627.125383 -260.938874 
L 627.415171 -259.227144 
L 627.770136 -257.515413 
L 628.196049 -255.803683 
L 628.697808 -254.091953 
L 629.278066 -252.380222 
L 629.93592 -250.668492 
L 630.666524 -248.956761 
L 631.462229 -247.245031 
L 632.315201 -245.533301 
L 633.220683 -243.82157 
L 634.179634 -242.10984 
L 635.199564 -240.39811 
L 636.293044 -238.686379 
L 637.474251 -236.974649 
L 638.754599 -235.262919 
L 640.138794 -233.551188 
L 641.622463 -231.839458 
L 643.192041 -230.127727 
L 644.827086 -228.415997 
L 646.504658 -226.704267 
L 648.20486 -224.992536 
L 649.916234 -223.280806 
L 651.639491 -221.569076 
L 653.388308 -219.857345 
L 655.186625 -218.145615 
L 657.062842 -216.433885 
L 659.042136 -214.722154 
L 661.138462 -213.010424 
L 663.347694 -211.298693 
L 665.642988 -209.586963 
L 667.97307 -207.875233 
L 670.263941 -206.163502 
L 672.424199 -204.451772 
L 674.353705 -202.740042 
L 675.954586 -201.028311 
L 677.142882 -199.316581 
L 677.858676 -197.604851 
L 678.072667 -195.89312 
L 677.787675 -194.18139 
L 677.03453 -192.46966 
L 675.863005 -190.757929 
L 674.329684 -189.046199 
L 672.485717 -187.334468 
L 670.367793 -185.622738 
L 667.995172 -183.911008 
L 665.374062 -182.199277 
L 662.508366 -180.487547 
L 659.413606 -178.775817 
L 656.129401 -177.064086 
L 652.726001 -175.352356 
L 649.302085 -173.640626 
L 645.973868 -171.928895 
L 642.858412 -170.217165 
L 640.055828 -168.505434 
L 637.635123 -166.793704 
L 635.626908 -165.081974 
L 634.023801 -163.370243 
L 632.787138 -161.658513 
L 631.857313 -159.946783 
L 631.164881 -158.235052 
L 630.640227 -156.523322 
L 630.22065 -154.811592 
L 629.85467 -153.099861 
L 629.503991 -151.388131 
L 629.143776 -149.6764 
L 628.76183 -147.96467 
L 628.35703 -146.25294 
L 627.937141 -144.541209 
L 627.516067 -142.829479 
z
" style="stroke: #636363; stroke-opacity: 0.9; stroke-width: 1.25"/>
    </defs>
    <g clip-path="url(#pee62973244)">
     <use xlink:href="#mbcff322690" x="0" y="482.479625" style="fill: #90c6a6; fill-opacity: 0.9; stroke: #636363; stroke-opacity: 0.9; stroke-width: 1.25"/>
    </g>
   </g>
   <g id="line2d_10">
    <path d="M 187.699625 342.800437 
L 187.699625 135.375829 
" clip-path="url(#pee62973244)" style="fill: none; stroke: #636363; stroke-width: 1.875; stroke-linecap: round"/>
   </g>
   <g id="line2d_11">
    <path d="M 187.699625 306.910088 
L 187.699625 238.28697 
" clip-path="url(#pee62973244)" style="fill: none; stroke: #636363; stroke-width: 5.625; stroke-linecap: round"/>
   </g>
   <g id="line2d_12">
    <path d="M 187.699625 278.405694 
" clip-path="url(#pee62973244)" style="fill: none; stroke: #636363; stroke-width: 1.5; stroke-linecap: round"/>
    <defs>
     <path id="m88e1e5f8a8" d="M 2.34375 0 
L -2.34375 -0 
" style="stroke: #ffffff; stroke-width: 1.125"/>
    </defs>
    <g clip-path="url(#pee62973244)">
     <use xlink:href="#m88e1e5f8a8" x="187.699625" y="278.405694" style="fill: #ffffff; stroke: #ffffff; stroke-width: 1.125"/>
    </g>
   </g>
   <g id="line2d_13">
    <path d="M 406.567625 341.566005 
L 406.567625 275.302299 
" clip-path="url(#pee62973244)" style="fill: none; stroke: #636363; stroke-width: 1.875; stroke-linecap: round"/>
   </g>
   <g id="line2d_14">
    <path d="M 406.567625 330.723099 
L 406.567625 308.553458 
" clip-path="url(#pee62973244)" style="fill: none; stroke: #636363; stroke-width: 5.625; stroke-linecap: round"/>
   </g>
   <g id="line2d_15">
    <path d="M 406.567625 322.239696 
" clip-path="url(#pee62973244)" style="fill: none; stroke: #636363; stroke-width: 1.5; stroke-linecap: round"/>
    <g clip-path="url(#pee62973244)">
     <use xlink:href="#m88e1e5f8a8" x="406.567625" y="322.239696" style="fill: #ffffff; stroke: #ffffff; stroke-width: 1.125"/>
    </g>
   </g>
   <g id="line2d_16">
    <path d="M 625.435625 339.650146 
L 625.435625 222.433575 
" clip-path="url(#pee62973244)" style="fill: none; stroke: #636363; stroke-width: 1.875; stroke-linecap: round"/>
   </g>
   <g id="line2d_17">
    <path d="M 625.435625 296.017719 
L 625.435625 266.431586 
" clip-path="url(#pee62973244)" style="fill: none; stroke: #636363; stroke-width: 5.625; stroke-linecap: round"/>
   </g>
   <g id="line2d_18">
    <path d="M 625.435625 282.965727 
" clip-path="url(#pee62973244)" style="fill: none; stroke: #636363; stroke-width: 1.5; stroke-linecap: round"/>
    <g clip-path="url(#pee62973244)">
     <use xlink:href="#m88e1e5f8a8" x="625.435625" y="282.965727" style="fill: #ffffff; stroke: #ffffff; stroke-width: 1.125"/>
    </g>
   </g>
   <g id="patch_3">
    <path d="M 78.265625 356.762437 
L 78.265625 49.598437 
" style="fill: none; stroke: #cccccc; stroke-width: 1.25; stroke-linejoin: miter; stroke-linecap: square"/>
   </g>
   <g id="patch_4">
    <path d="M 734.869625 356.762437 
L 734.869625 49.598437 
" style="fill: none; stroke: #cccccc; stroke-width: 1.25; stroke-linejoin: miter; stroke-linecap: square"/>
   </g>
   <g id="patch_5">
    <path d="M 78.265625 356.762438 
L 734.869625 356.762438 
" style="fill: none; stroke: #cccccc; stroke-width: 1.25; stroke-linejoin: miter; stroke-linecap: square"/>
   </g>
   <g id="patch_6">
    <path d="M 78.265625 49.598437 
L 734.869625 49.598437 
" style="fill: none; stroke: #cccccc; stroke-width: 1.25; stroke-linejoin: miter; stroke-linecap: square"/>
   </g>
   <g id="text_15">
    <text style="font-size: 10px; font-family: 'Arial', 'DejaVu Sans', 'Liberation Sans', 'Bitstream Vera Sans', sans-serif; text-anchor: middle; fill: #262626" x="406.567625" y="43.598437" transform="rotate(-0 406.567625 43.598437)">Violin Plot of distances by Level One Cell Type (Density Normalization: area)</text>
   </g>
   <g id="legend_1">
    <g id="patch_7">
     <path d="M 723.869625 62.598437 
L 727.869625 62.598437 
Q 729.869625 62.598437 729.869625 60.598437 
L 729.869625 56.598437 
Q 729.869625 54.598437 727.869625 54.598437 
L 723.869625 54.598437 
Q 721.869625 54.598437 721.869625 56.598437 
L 721.869625 60.598437 
Q 721.869625 62.598437 723.869625 62.598437 
z
" style="fill: #ffffff; opacity: 0.8; stroke: #cccccc; stroke-width: 0.8; stroke-linejoin: miter"/>
    </g>
   </g>
  </g>
 </g>
 <defs>
  <clipPath id="pee62973244">
   <rect x="78.265625" y="49.598437" width="656.604" height="307.164"/>
  </clipPath>
 </defs>
</svg>
