<?xml version="1.0" encoding="utf-8" standalone="no"?>
<!DOCTYPE svg PUBLIC "-//W3C//DTD SVG 1.1//EN"
  "http://www.w3.org/Graphics/SVG/1.1/DTD/svg11.dtd">
<svg xmlns:xlink="http://www.w3.org/1999/xlink" width="770.959625pt" height="482.318062pt" viewBox="0 0 770.959625 482.318062" xmlns="http://www.w3.org/2000/svg" version="1.1">
 <metadata>
  <rdf:RDF xmlns:dc="http://purl.org/dc/elements/1.1/" xmlns:cc="http://creativecommons.org/ns#" xmlns:rdf="http://www.w3.org/1999/02/22-rdf-syntax-ns#">
   <cc:Work>
    <dc:type rdf:resource="http://purl.org/dc/dcmitype/StillImage"/>
    <dc:date>2025-07-25T12:42:40.395066</dc:date>
    <dc:format>image/svg+xml</dc:format>
    <dc:creator>
     <cc:Agent>
      <dc:title>Matplotlib v3.10.3, https://matplotlib.org/</dc:title>
     </cc:Agent>
    </dc:creator>
   </cc:Work>
  </rdf:RDF>
 </metadata>
 <defs>
  <style type="text/css">*{stroke-linejoin: round; stroke-linecap: butt}</style>
 </defs>
 <g id="figure_1">
  <g id="patch_1">
   <path d="M 0 482.318062 
L 770.959625 482.318062 
L 770.959625 -0 
L 0 -0 
z
" style="fill: #ffffff"/>
  </g>
  <g id="axes_1">
   <g id="patch_2">
    <path d="M 78.265625 360.452437 
L 734.959625 360.452437 
L 734.959625 49.598437 
L 78.265625 49.598437 
z
" style="fill: #ffffff"/>
   </g>
   <g id="matplotlib.axis_1">
    <g id="xtick_1">
     <g id="text_1">
      <text style="font-size: 10px; font-family: 'Arial', 'DejaVu Sans', 'Liberation Sans', 'Bitstream Vera Sans', sans-serif; fill: #262626" transform="translate(190.474 394.258688) rotate(-90)">t cell</text>
     </g>
    </g>
    <g id="xtick_2">
     <g id="text_2">
      <text style="font-size: 10px; font-family: 'Arial', 'DejaVu Sans', 'Liberation Sans', 'Bitstream Vera Sans', sans-serif; fill: #262626" transform="translate(409.372 432.639937) rotate(-90)">macrophage</text>
     </g>
    </g>
    <g id="xtick_3">
     <g id="text_3">
      <text style="font-size: 10px; font-family: 'Arial', 'DejaVu Sans', 'Liberation Sans', 'Bitstream Vera Sans', sans-serif; fill: #262626" transform="translate(628.27 432.418063) rotate(-90)">keratinocyte</text>
     </g>
    </g>
    <g id="text_4">
     <text style="font-size: 10px; font-family: 'Arial', 'DejaVu Sans', 'Liberation Sans', 'Bitstream Vera Sans', sans-serif; text-anchor: middle; fill: #262626" x="406.612625" y="444.238375" transform="rotate(-0 406.612625 444.238375)">Level Two Cell Type</text>
    </g>
   </g>
   <g id="matplotlib.axis_2">
    <g id="ytick_1">
     <g id="line2d_1">
      <path d="M 78.265625 346.32271 
L 734.959625 346.32271 
" clip-path="url(#pf325bb30d8)" style="fill: none; stroke: #cccccc; stroke-width: 2; stroke-linecap: round"/>
     </g>
     <g id="text_5">
      <text style="font-size: 10px; font-family: 'Arial', 'DejaVu Sans', 'Liberation Sans', 'Bitstream Vera Sans', sans-serif; text-anchor: end; fill: #262626" x="68.765625" y="350.121929" transform="rotate(-0 68.765625 350.121929)">0</text>
     </g>
    </g>
    <g id="ytick_2">
     <g id="line2d_2">
      <path d="M 78.265625 302.309353 
L 734.959625 302.309353 
" clip-path="url(#pf325bb30d8)" style="fill: none; stroke: #cccccc; stroke-width: 2; stroke-linecap: round"/>
     </g>
     <g id="text_6">
      <text style="font-size: 10px; font-family: 'Arial', 'DejaVu Sans', 'Liberation Sans', 'Bitstream Vera Sans', sans-serif; text-anchor: end; fill: #262626" x="68.765625" y="306.108572" transform="rotate(-0 68.765625 306.108572)">20</text>
     </g>
    </g>
    <g id="ytick_3">
     <g id="line2d_3">
      <path d="M 78.265625 258.295995 
L 734.959625 258.295995 
" clip-path="url(#pf325bb30d8)" style="fill: none; stroke: #cccccc; stroke-width: 2; stroke-linecap: round"/>
     </g>
     <g id="text_7">
      <text style="font-size: 10px; font-family: 'Arial', 'DejaVu Sans', 'Liberation Sans', 'Bitstream Vera Sans', sans-serif; text-anchor: end; fill: #262626" x="68.765625" y="262.095214" transform="rotate(-0 68.765625 262.095214)">40</text>
     </g>
    </g>
    <g id="ytick_4">
     <g id="line2d_4">
      <path d="M 78.265625 214.282638 
L 734.959625 214.282638 
" clip-path="url(#pf325bb30d8)" style="fill: none; stroke: #cccccc; stroke-width: 2; stroke-linecap: round"/>
     </g>
     <g id="text_8">
      <text style="font-size: 10px; font-family: 'Arial', 'DejaVu Sans', 'Liberation Sans', 'Bitstream Vera Sans', sans-serif; text-anchor: end; fill: #262626" x="68.765625" y="218.081857" transform="rotate(-0 68.765625 218.081857)">60</text>
     </g>
    </g>
    <g id="ytick_5">
     <g id="line2d_5">
      <path d="M 78.265625 170.26928 
L 734.959625 170.26928 
" clip-path="url(#pf325bb30d8)" style="fill: none; stroke: #cccccc; stroke-width: 2; stroke-linecap: round"/>
     </g>
     <g id="text_9">
      <text style="font-size: 10px; font-family: 'Arial', 'DejaVu Sans', 'Liberation Sans', 'Bitstream Vera Sans', sans-serif; text-anchor: end; fill: #262626" x="68.765625" y="174.068499" transform="rotate(-0 68.765625 174.068499)">80</text>
     </g>
    </g>
    <g id="ytick_6">
     <g id="line2d_6">
      <path d="M 78.265625 126.255923 
L 734.959625 126.255923 
" clip-path="url(#pf325bb30d8)" style="fill: none; stroke: #cccccc; stroke-width: 2; stroke-linecap: round"/>
     </g>
     <g id="text_10">
      <text style="font-size: 10px; font-family: 'Arial', 'DejaVu Sans', 'Liberation Sans', 'Bitstream Vera Sans', sans-serif; text-anchor: end; fill: #262626" x="68.765625" y="130.055142" transform="rotate(-0 68.765625 130.055142)">100</text>
     </g>
    </g>
    <g id="ytick_7">
     <g id="line2d_7">
      <path d="M 78.265625 82.242565 
L 734.959625 82.242565 
" clip-path="url(#pf325bb30d8)" style="fill: none; stroke: #cccccc; stroke-width: 2; stroke-linecap: round"/>
     </g>
     <g id="text_11">
      <text style="font-size: 10px; font-family: 'Arial', 'DejaVu Sans', 'Liberation Sans', 'Bitstream Vera Sans', sans-serif; text-anchor: end; fill: #262626" x="68.765625" y="86.041784" transform="rotate(-0 68.765625 86.041784)">120</text>
     </g>
    </g>
    <g id="text_12">
     <text style="font-size: 10px; font-family: 'Arial', 'DejaVu Sans', 'Liberation Sans', 'Bitstream Vera Sans', sans-serif; text-anchor: middle; fill: #262626" x="43.598437" y="205.025437" transform="rotate(-90 43.598437 205.025437)">Distance (μm)</text>
    </g>
   </g>
   <g id="FillBetweenPolyCollection_1">
    <defs>
     <path id="m1b69fafbf5" d="M 202.548254 -135.995352 
L 172.880996 -135.995352 
L 158.940033 -137.784634 
L 140.877839 -139.573915 
L 122.457203 -141.363196 
L 108.21233 -143.152478 
L 100.872096 -144.941759 
L 100.155425 -146.73104 
L 103.890967 -148.520322 
L 109.946673 -150.309603 
L 117.067608 -152.098884 
L 124.618042 -153.888166 
L 132.202102 -155.677447 
L 139.468007 -157.466728 
L 146.029297 -159.25601 
L 151.585649 -161.045291 
L 156.144319 -162.834572 
L 160.010371 -164.623854 
L 163.497419 -166.413135 
L 166.705512 -168.202416 
L 169.566759 -169.991698 
L 171.972757 -171.780979 
L 173.850233 -173.57026 
L 175.245918 -175.359542 
L 176.335507 -177.148823 
L 177.273446 -178.938105 
L 178.087088 -180.727386 
L 178.769207 -182.516667 
L 179.38711 -184.305949 
L 180.03232 -186.09523 
L 180.726273 -187.884511 
L 181.420178 -189.673793 
L 182.05114 -191.463074 
L 182.586748 -193.252355 
L 183.032763 -195.041637 
L 183.414317 -196.830918 
L 183.756198 -198.620199 
L 184.055264 -200.409481 
L 184.281954 -202.198762 
L 184.451302 -203.988043 
L 184.647339 -205.777325 
L 184.927736 -207.566606 
L 185.25354 -209.355887 
L 185.539416 -211.145169 
L 185.7346 -212.93445 
L 185.845918 -214.723731 
L 185.912252 -216.513013 
L 185.967398 -218.302294 
L 186.014131 -220.091575 
L 186.034897 -221.880857 
L 186.03155 -223.670138 
L 186.042514 -225.459419 
L 186.11507 -227.248701 
L 186.263224 -229.037982 
L 186.450489 -230.827263 
L 186.607326 -232.616545 
L 186.670685 -234.405826 
L 186.636009 -236.195107 
L 186.577257 -237.984389 
L 186.584951 -239.77367 
L 186.682434 -241.562952 
L 186.822584 -243.352233 
L 186.952074 -245.141514 
L 187.049638 -246.930796 
L 187.106035 -248.720077 
L 187.108631 -250.509358 
L 187.069113 -252.29864 
L 187.037418 -254.087921 
L 187.059891 -255.877202 
L 187.130276 -257.666484 
L 187.194095 -259.455765 
L 187.202374 -261.245046 
L 187.159806 -263.034328 
L 187.120455 -264.823609 
L 187.135987 -266.61289 
L 187.208422 -268.402172 
L 187.292863 -270.191453 
L 187.343019 -271.980734 
L 187.35573 -273.770016 
L 187.370356 -275.559297 
L 187.419812 -277.348578 
L 187.494384 -279.13786 
L 187.561736 -280.927141 
L 187.603476 -282.716422 
L 187.622603 -284.505704 
L 187.62964 -286.294985 
L 187.631303 -288.084266 
L 187.629871 -289.873548 
L 187.628739 -291.662829 
L 187.633622 -293.45211 
L 187.647091 -295.241392 
L 187.666129 -297.030673 
L 187.685058 -298.819955 
L 187.698318 -300.609236 
L 187.702399 -302.398517 
L 187.697442 -304.187799 
L 187.687111 -305.97708 
L 187.675943 -307.766361 
L 187.667002 -309.555643 
L 187.663421 -311.344924 
L 187.668871 -313.134205 
L 187.760379 -313.134205 
L 187.760379 -313.134205 
L 187.765829 -311.344924 
L 187.762248 -309.555643 
L 187.753307 -307.766361 
L 187.742139 -305.97708 
L 187.731808 -304.187799 
L 187.726851 -302.398517 
L 187.730932 -300.609236 
L 187.744192 -298.819955 
L 187.763121 -297.030673 
L 187.782159 -295.241392 
L 187.795628 -293.45211 
L 187.800511 -291.662829 
L 187.799379 -289.873548 
L 187.797947 -288.084266 
L 187.79961 -286.294985 
L 187.806647 -284.505704 
L 187.825774 -282.716422 
L 187.867514 -280.927141 
L 187.934866 -279.13786 
L 188.009438 -277.348578 
L 188.058894 -275.559297 
L 188.07352 -273.770016 
L 188.086231 -271.980734 
L 188.136387 -270.191453 
L 188.220828 -268.402172 
L 188.293263 -266.61289 
L 188.308795 -264.823609 
L 188.269444 -263.034328 
L 188.226876 -261.245046 
L 188.235155 -259.455765 
L 188.298974 -257.666484 
L 188.369359 -255.877202 
L 188.391832 -254.087921 
L 188.360137 -252.29864 
L 188.320619 -250.509358 
L 188.323215 -248.720077 
L 188.379612 -246.930796 
L 188.477176 -245.141514 
L 188.606666 -243.352233 
L 188.746816 -241.562952 
L 188.844299 -239.77367 
L 188.851993 -237.984389 
L 188.793241 -236.195107 
L 188.758565 -234.405826 
L 188.821924 -232.616545 
L 188.978761 -230.827263 
L 189.166026 -229.037982 
L 189.31418 -227.248701 
L 189.386736 -225.459419 
L 189.3977 -223.670138 
L 189.394353 -221.880857 
L 189.415119 -220.091575 
L 189.461852 -218.302294 
L 189.516998 -216.513013 
L 189.583332 -214.723731 
L 189.69465 -212.93445 
L 189.889834 -211.145169 
L 190.17571 -209.355887 
L 190.501514 -207.566606 
L 190.781911 -205.777325 
L 190.977948 -203.988043 
L 191.147296 -202.198762 
L 191.373986 -200.409481 
L 191.673052 -198.620199 
L 192.014933 -196.830918 
L 192.396487 -195.041637 
L 192.842502 -193.252355 
L 193.37811 -191.463074 
L 194.009072 -189.673793 
L 194.702977 -187.884511 
L 195.39693 -186.09523 
L 196.04214 -184.305949 
L 196.660043 -182.516667 
L 197.342162 -180.727386 
L 198.155804 -178.938105 
L 199.093743 -177.148823 
L 200.183332 -175.359542 
L 201.579017 -173.57026 
L 203.456493 -171.780979 
L 205.862491 -169.991698 
L 208.723738 -168.202416 
L 211.931831 -166.413135 
L 215.418879 -164.623854 
L 219.284931 -162.834572 
L 223.843601 -161.045291 
L 229.399953 -159.25601 
L 235.961243 -157.466728 
L 243.227148 -155.677447 
L 250.811208 -153.888166 
L 258.361642 -152.098884 
L 265.482577 -150.309603 
L 271.538283 -148.520322 
L 275.273825 -146.73104 
L 274.557154 -144.941759 
L 267.21692 -143.152478 
L 252.972047 -141.363196 
L 234.551411 -139.573915 
L 216.489217 -137.784634 
L 202.548254 -135.995352 
z
" style="stroke: #636363; stroke-opacity: 0.9; stroke-width: 1.25"/>
    </defs>
    <g clip-path="url(#pf325bb30d8)">
     <use xlink:href="#m1b69fafbf5" x="0" y="482.318062" style="fill: #e49467; fill-opacity: 0.9; stroke: #636363; stroke-opacity: 0.9; stroke-width: 1.25"/>
    </g>
   </g>
   <g id="FillBetweenPolyCollection_2">
    <defs>
     <path id="m8790673b85" d="M 422.862262 -135.995352 
L 390.362988 -135.995352 
L 381.122063 -138.849843 
L 370.596784 -141.704333 
L 360.493364 -144.558823 
L 352.696644 -147.413314 
L 348.552424 -150.267804 
L 348.378625 -153.122294 
L 351.470932 -155.976785 
L 356.542969 -158.831275 
L 362.29941 -161.685765 
L 367.841947 -164.540256 
L 372.782718 -167.394746 
L 377.118284 -170.249237 
L 381.002702 -173.103727 
L 384.555438 -175.958217 
L 387.784057 -178.812708 
L 390.620501 -181.667198 
L 393.003857 -184.521688 
L 394.935221 -187.376179 
L 396.478375 -190.230669 
L 397.730379 -193.085159 
L 398.794318 -195.93965 
L 399.760402 -198.79414 
L 400.684938 -201.648631 
L 401.57185 -204.503121 
L 402.378348 -207.357611 
L 403.049132 -210.212102 
L 403.552085 -213.066592 
L 403.889163 -215.921082 
L 404.08745 -218.775573 
L 404.191635 -221.630063 
L 404.262355 -224.484553 
L 404.365322 -227.339044 
L 404.545271 -230.193534 
L 404.804042 -233.048024 
L 405.105976 -235.902515 
L 405.406403 -238.757005 
L 405.675173 -241.611496 
L 405.897649 -244.465986 
L 406.063897 -247.320476 
L 406.165525 -250.174967 
L 406.203398 -253.029457 
L 406.19434 -255.883947 
L 406.167696 -258.738438 
L 406.153749 -261.592928 
L 406.171559 -264.447418 
L 406.222419 -267.301909 
L 406.291862 -270.156399 
L 406.359418 -273.010889 
L 406.410554 -275.86538 
L 406.442787 -278.71987 
L 406.461794 -281.574361 
L 406.471977 -284.428851 
L 406.471184 -287.283341 
L 406.454958 -290.137832 
L 406.425465 -292.992322 
L 406.394618 -295.846812 
L 406.376208 -298.701303 
L 406.373383 -301.555793 
L 406.373862 -304.410283 
L 406.358992 -307.264774 
L 406.319859 -310.119264 
L 406.266939 -312.973754 
L 406.225324 -315.828245 
L 406.219316 -318.682735 
L 406.257907 -321.537226 
L 406.330819 -324.391716 
L 406.416161 -327.246206 
L 406.492765 -330.100697 
L 406.548821 -332.955187 
L 406.583088 -335.809677 
L 406.600776 -338.664168 
L 406.60852 -341.518658 
L 406.6114 -344.373148 
L 406.612303 -347.227639 
L 406.612508 -350.082129 
L 406.612394 -352.936619 
L 406.61178 -355.79111 
L 406.609866 -358.6456 
L 406.604956 -361.500091 
L 406.594492 -364.354581 
L 406.576045 -367.209071 
L 406.549289 -370.063562 
L 406.517404 -372.918052 
L 406.485675 -375.772542 
L 406.457386 -378.627033 
L 406.430939 -381.481523 
L 406.402203 -384.336013 
L 406.370586 -387.190504 
L 406.342552 -390.044994 
L 406.328613 -392.899485 
L 406.336256 -395.753975 
L 406.364254 -398.608465 
L 406.401733 -401.462956 
L 406.432507 -404.317446 
L 406.443252 -407.171936 
L 406.431779 -410.026427 
L 406.409743 -412.880917 
L 406.39635 -415.735407 
L 406.406375 -418.589898 
L 406.818875 -418.589898 
L 406.818875 -418.589898 
L 406.8289 -415.735407 
L 406.815507 -412.880917 
L 406.793471 -410.026427 
L 406.781998 -407.171936 
L 406.792743 -404.317446 
L 406.823517 -401.462956 
L 406.860996 -398.608465 
L 406.888994 -395.753975 
L 406.896637 -392.899485 
L 406.882698 -390.044994 
L 406.854664 -387.190504 
L 406.823047 -384.336013 
L 406.794311 -381.481523 
L 406.767864 -378.627033 
L 406.739575 -375.772542 
L 406.707846 -372.918052 
L 406.675961 -370.063562 
L 406.649205 -367.209071 
L 406.630758 -364.354581 
L 406.620294 -361.500091 
L 406.615384 -358.6456 
L 406.61347 -355.79111 
L 406.612856 -352.936619 
L 406.612742 -350.082129 
L 406.612947 -347.227639 
L 406.61385 -344.373148 
L 406.61673 -341.518658 
L 406.624474 -338.664168 
L 406.642162 -335.809677 
L 406.676429 -332.955187 
L 406.732485 -330.100697 
L 406.809089 -327.246206 
L 406.894431 -324.391716 
L 406.967343 -321.537226 
L 407.005934 -318.682735 
L 406.999926 -315.828245 
L 406.958311 -312.973754 
L 406.905391 -310.119264 
L 406.866258 -307.264774 
L 406.851388 -304.410283 
L 406.851867 -301.555793 
L 406.849042 -298.701303 
L 406.830632 -295.846812 
L 406.799785 -292.992322 
L 406.770292 -290.137832 
L 406.754066 -287.283341 
L 406.753273 -284.428851 
L 406.763456 -281.574361 
L 406.782463 -278.71987 
L 406.814696 -275.86538 
L 406.865832 -273.010889 
L 406.933388 -270.156399 
L 407.002831 -267.301909 
L 407.053691 -264.447418 
L 407.071501 -261.592928 
L 407.057554 -258.738438 
L 407.03091 -255.883947 
L 407.021852 -253.029457 
L 407.059725 -250.174967 
L 407.161353 -247.320476 
L 407.327601 -244.465986 
L 407.550077 -241.611496 
L 407.818847 -238.757005 
L 408.119274 -235.902515 
L 408.421208 -233.048024 
L 408.679979 -230.193534 
L 408.859928 -227.339044 
L 408.962895 -224.484553 
L 409.033615 -221.630063 
L 409.1378 -218.775573 
L 409.336087 -215.921082 
L 409.673165 -213.066592 
L 410.176118 -210.212102 
L 410.846902 -207.357611 
L 411.6534 -204.503121 
L 412.540312 -201.648631 
L 413.464848 -198.79414 
L 414.430932 -195.93965 
L 415.494871 -193.085159 
L 416.746875 -190.230669 
L 418.290029 -187.376179 
L 420.221393 -184.521688 
L 422.604749 -181.667198 
L 425.441193 -178.812708 
L 428.669812 -175.958217 
L 432.222548 -173.103727 
L 436.106966 -170.249237 
L 440.442532 -167.394746 
L 445.383303 -164.540256 
L 450.92584 -161.685765 
L 456.682281 -158.831275 
L 461.754318 -155.976785 
L 464.846625 -153.122294 
L 464.672826 -150.267804 
L 460.528606 -147.413314 
L 452.731886 -144.558823 
L 442.628466 -141.704333 
L 432.103187 -138.849843 
L 422.862262 -135.995352 
z
" style="stroke: #636363; stroke-opacity: 0.9; stroke-width: 1.25"/>
    </defs>
    <g clip-path="url(#pf325bb30d8)">
     <use xlink:href="#m8790673b85" x="0" y="482.318062" style="fill: #f7f7c6; fill-opacity: 0.9; stroke: #636363; stroke-opacity: 0.9; stroke-width: 1.25"/>
    </g>
   </g>
   <g id="FillBetweenPolyCollection_3">
    <defs>
     <path id="m846cf9d61c" d="M 630.453906 -136.032764 
L 620.567344 -136.032764 
L 615.023045 -137.867934 
L 606.97326 -139.703103 
L 596.85374 -141.538273 
L 585.563176 -143.373443 
L 574.471406 -145.208613 
L 564.856017 -147.043783 
L 557.251137 -148.878953 
L 551.79794 -150.714123 
L 548.718209 -152.549293 
L 548.151944 -154.384463 
L 550.14038 -156.219633 
L 554.577548 -158.054803 
L 560.848202 -159.889973 
L 567.928887 -161.725143 
L 574.796898 -163.560313 
L 580.677568 -165.395482 
L 585.46772 -167.230652 
L 589.790462 -169.065822 
L 594.252593 -170.900992 
L 598.90164 -172.736162 
L 603.307653 -174.571332 
L 607.082426 -176.406502 
L 610.2509 -178.241672 
L 612.847101 -180.076842 
L 614.764236 -181.912012 
L 616.143094 -183.747182 
L 617.314353 -185.582352 
L 618.496053 -187.417522 
L 619.674974 -189.252692 
L 620.638737 -191.087861 
L 621.216092 -192.923031 
L 621.548371 -194.758201 
L 621.935496 -196.593371 
L 622.436881 -198.428541 
L 622.879155 -200.263711 
L 623.178948 -202.098881 
L 623.432193 -203.934051 
L 623.693594 -205.769221 
L 623.871915 -207.604391 
L 623.899718 -209.439561 
L 623.84206 -211.274731 
L 623.804824 -213.109901 
L 623.850314 -214.94507 
L 624.007576 -216.78024 
L 624.248888 -218.61541 
L 624.463922 -220.45058 
L 624.564718 -222.28575 
L 624.573099 -224.12092 
L 624.556934 -225.95609 
L 624.558769 -227.79126 
L 624.566803 -229.62643 
L 624.529626 -231.4616 
L 624.466581 -233.29677 
L 624.476533 -235.13194 
L 624.584304 -236.96711 
L 624.707512 -238.80228 
L 624.784009 -240.637449 
L 624.81756 -242.472619 
L 624.816017 -244.307789 
L 624.778027 -246.142959 
L 624.739248 -247.978129 
L 624.747514 -249.813299 
L 624.781455 -251.648469 
L 624.797118 -253.483639 
L 624.821618 -255.318809 
L 624.898417 -257.153979 
L 625.005455 -258.989149 
L 625.103845 -260.824319 
L 625.189683 -262.659489 
L 625.254725 -264.494659 
L 625.282435 -266.329828 
L 625.276649 -268.164998 
L 625.260749 -270.000168 
L 625.267578 -271.835338 
L 625.303388 -273.670508 
L 625.339577 -275.505678 
L 625.360721 -277.340848 
L 625.37744 -279.176018 
L 625.401889 -281.011188 
L 625.433759 -282.846358 
L 625.459754 -284.681528 
L 625.472206 -286.516698 
L 625.473191 -288.351868 
L 625.455813 -290.187038 
L 625.417504 -292.022207 
L 625.38764 -293.857377 
L 625.399078 -295.692547 
L 625.438697 -297.527717 
L 625.468476 -299.362887 
L 625.479073 -301.198057 
L 625.486386 -303.033227 
L 625.49712 -304.868397 
L 625.505282 -306.703567 
L 625.506179 -308.538737 
L 625.496903 -310.373907 
L 625.47542 -312.209077 
L 625.450781 -314.044247 
L 625.441808 -315.879416 
L 625.455241 -317.714586 
L 625.566009 -317.714586 
L 625.566009 -317.714586 
L 625.579442 -315.879416 
L 625.570469 -314.044247 
L 625.54583 -312.209077 
L 625.524347 -310.373907 
L 625.515071 -308.538737 
L 625.515968 -306.703567 
L 625.52413 -304.868397 
L 625.534864 -303.033227 
L 625.542177 -301.198057 
L 625.552774 -299.362887 
L 625.582553 -297.527717 
L 625.622172 -295.692547 
L 625.63361 -293.857377 
L 625.603746 -292.022207 
L 625.565437 -290.187038 
L 625.548059 -288.351868 
L 625.549044 -286.516698 
L 625.561496 -284.681528 
L 625.587491 -282.846358 
L 625.619361 -281.011188 
L 625.64381 -279.176018 
L 625.660529 -277.340848 
L 625.681673 -275.505678 
L 625.717862 -273.670508 
L 625.753672 -271.835338 
L 625.760501 -270.000168 
L 625.744601 -268.164998 
L 625.738815 -266.329828 
L 625.766525 -264.494659 
L 625.831567 -262.659489 
L 625.917405 -260.824319 
L 626.015795 -258.989149 
L 626.122833 -257.153979 
L 626.199632 -255.318809 
L 626.224132 -253.483639 
L 626.239795 -251.648469 
L 626.273736 -249.813299 
L 626.282002 -247.978129 
L 626.243223 -246.142959 
L 626.205233 -244.307789 
L 626.20369 -242.472619 
L 626.237241 -240.637449 
L 626.313738 -238.80228 
L 626.436946 -236.96711 
L 626.544717 -235.13194 
L 626.554669 -233.29677 
L 626.491624 -231.4616 
L 626.454447 -229.62643 
L 626.462481 -227.79126 
L 626.464316 -225.95609 
L 626.448151 -224.12092 
L 626.456532 -222.28575 
L 626.557328 -220.45058 
L 626.772362 -218.61541 
L 627.013674 -216.78024 
L 627.170936 -214.94507 
L 627.216426 -213.109901 
L 627.17919 -211.274731 
L 627.121532 -209.439561 
L 627.149335 -207.604391 
L 627.327656 -205.769221 
L 627.589057 -203.934051 
L 627.842302 -202.098881 
L 628.142095 -200.263711 
L 628.584369 -198.428541 
L 629.085754 -196.593371 
L 629.472879 -194.758201 
L 629.805158 -192.923031 
L 630.382513 -191.087861 
L 631.346276 -189.252692 
L 632.525197 -187.417522 
L 633.706897 -185.582352 
L 634.878156 -183.747182 
L 636.257014 -181.912012 
L 638.174149 -180.076842 
L 640.77035 -178.241672 
L 643.938824 -176.406502 
L 647.713597 -174.571332 
L 652.11961 -172.736162 
L 656.768657 -170.900992 
L 661.230788 -169.065822 
L 665.55353 -167.230652 
L 670.343682 -165.395482 
L 676.224352 -163.560313 
L 683.092363 -161.725143 
L 690.173048 -159.889973 
L 696.443702 -158.054803 
L 700.88087 -156.219633 
L 702.869306 -154.384463 
L 702.303041 -152.549293 
L 699.22331 -150.714123 
L 693.770113 -148.878953 
L 686.165233 -147.043783 
L 676.549844 -145.208613 
L 665.458074 -143.373443 
L 654.16751 -141.538273 
L 644.04799 -139.703103 
L 635.998205 -137.867934 
L 630.453906 -136.032764 
z
" style="stroke: #636363; stroke-opacity: 0.9; stroke-width: 1.25"/>
    </defs>
    <g clip-path="url(#pf325bb30d8)">
     <use xlink:href="#m846cf9d61c" x="0" y="482.318062" style="fill: #90c6a6; fill-opacity: 0.9; stroke: #636363; stroke-opacity: 0.9; stroke-width: 1.25"/>
    </g>
   </g>
   <g id="line2d_8">
    <path d="M 187.714625 346.32271 
L 187.714625 294.209082 
" clip-path="url(#pf325bb30d8)" style="fill: none; stroke: #636363; stroke-width: 1.875; stroke-linecap: round"/>
   </g>
   <g id="line2d_9">
    <path d="M 187.714625 337.083836 
L 187.714625 319.930356 
" clip-path="url(#pf325bb30d8)" style="fill: none; stroke: #636363; stroke-width: 5.625; stroke-linecap: round"/>
   </g>
   <g id="line2d_10">
    <path d="M 187.714625 330.730194 
" clip-path="url(#pf325bb30d8)" style="fill: none; stroke: #636363; stroke-width: 1.5; stroke-linecap: round"/>
    <defs>
     <path id="mc7b553afec" d="M 2.34375 0 
L -2.34375 -0 
" style="stroke: #ffffff; stroke-width: 1.125"/>
    </defs>
    <g clip-path="url(#pf325bb30d8)">
     <use xlink:href="#mc7b553afec" x="187.714625" y="330.730194" style="fill: #ffffff; stroke: #ffffff; stroke-width: 1.125"/>
    </g>
   </g>
   <g id="line2d_11">
    <path d="M 406.612625 346.32271 
L 406.612625 278.437268 
" clip-path="url(#pf325bb30d8)" style="fill: none; stroke: #636363; stroke-width: 1.875; stroke-linecap: round"/>
   </g>
   <g id="line2d_12">
    <path d="M 406.612625 333.210718 
L 406.612625 310.870777 
" clip-path="url(#pf325bb30d8)" style="fill: none; stroke: #636363; stroke-width: 5.625; stroke-linecap: round"/>
   </g>
   <g id="line2d_13">
    <path d="M 406.612625 325.445342 
" clip-path="url(#pf325bb30d8)" style="fill: none; stroke: #636363; stroke-width: 1.5; stroke-linecap: round"/>
    <g clip-path="url(#pf325bb30d8)">
     <use xlink:href="#mc7b553afec" x="406.612625" y="325.445342" style="fill: #ffffff; stroke: #ffffff; stroke-width: 1.125"/>
    </g>
   </g>
   <g id="line2d_14">
    <path d="M 625.510625 346.285299 
L 625.510625 291.25376 
" clip-path="url(#pf325bb30d8)" style="fill: none; stroke: #636363; stroke-width: 1.875; stroke-linecap: round"/>
   </g>
   <g id="line2d_15">
    <path d="M 625.510625 332.11199 
L 625.510625 315.76864 
" clip-path="url(#pf325bb30d8)" style="fill: none; stroke: #636363; stroke-width: 5.625; stroke-linecap: round"/>
   </g>
   <g id="line2d_16">
    <path d="M 625.510625 325.239824 
" clip-path="url(#pf325bb30d8)" style="fill: none; stroke: #636363; stroke-width: 1.5; stroke-linecap: round"/>
    <g clip-path="url(#pf325bb30d8)">
     <use xlink:href="#mc7b553afec" x="625.510625" y="325.239824" style="fill: #ffffff; stroke: #ffffff; stroke-width: 1.125"/>
    </g>
   </g>
   <g id="patch_3">
    <path d="M 78.265625 360.452438 
L 78.265625 49.598437 
" style="fill: none; stroke: #cccccc; stroke-width: 1.25; stroke-linejoin: miter; stroke-linecap: square"/>
   </g>
   <g id="patch_4">
    <path d="M 734.959625 360.452438 
L 734.959625 49.598437 
" style="fill: none; stroke: #cccccc; stroke-width: 1.25; stroke-linejoin: miter; stroke-linecap: square"/>
   </g>
   <g id="patch_5">
    <path d="M 78.265625 360.452437 
L 734.959625 360.452437 
" style="fill: none; stroke: #cccccc; stroke-width: 1.25; stroke-linejoin: miter; stroke-linecap: square"/>
   </g>
   <g id="patch_6">
    <path d="M 78.265625 49.598437 
L 734.959625 49.598437 
" style="fill: none; stroke: #cccccc; stroke-width: 1.25; stroke-linejoin: miter; stroke-linecap: square"/>
   </g>
   <g id="text_13">
    <text style="font-size: 10px; font-family: 'Arial', 'DejaVu Sans', 'Liberation Sans', 'Bitstream Vera Sans', sans-serif; text-anchor: middle; fill: #262626" x="406.612625" y="43.598437" transform="rotate(-0 406.612625 43.598437)">Violin Plot of distances by Level Two Cell Type (Density Normalization: area)</text>
   </g>
   <g id="legend_1">
    <g id="patch_7">
     <path d="M 723.959625 62.598437 
L 727.959625 62.598437 
Q 729.959625 62.598437 729.959625 60.598437 
L 729.959625 56.598437 
Q 729.959625 54.598437 727.959625 54.598437 
L 723.959625 54.598437 
Q 721.959625 54.598437 721.959625 56.598437 
L 721.959625 60.598437 
Q 721.959625 62.598437 723.959625 62.598437 
z
" style="fill: #ffffff; opacity: 0.8; stroke: #cccccc; stroke-width: 0.8; stroke-linejoin: miter"/>
    </g>
   </g>
  </g>
 </g>
 <defs>
  <clipPath id="pf325bb30d8">
   <rect x="78.265625" y="49.598437" width="656.694" height="310.854"/>
  </clipPath>
 </defs>
</svg>
