<?xml version="1.0" encoding="utf-8" standalone="no"?>
<!DOCTYPE svg PUBLIC "-//W3C//DTD SVG 1.1//EN"
  "http://www.w3.org/Graphics/SVG/1.1/DTD/svg11.dtd">
<svg xmlns:xlink="http://www.w3.org/1999/xlink" width="770.959625pt" height="482.479625pt" viewBox="0 0 770.959625 482.479625" xmlns="http://www.w3.org/2000/svg" version="1.1">
 <metadata>
  <rdf:RDF xmlns:dc="http://purl.org/dc/elements/1.1/" xmlns:cc="http://creativecommons.org/ns#" xmlns:rdf="http://www.w3.org/1999/02/22-rdf-syntax-ns#">
   <cc:Work>
    <dc:type rdf:resource="http://purl.org/dc/dcmitype/StillImage"/>
    <dc:date>2025-07-25T12:42:32.107039</dc:date>
    <dc:format>image/svg+xml</dc:format>
    <dc:creator>
     <cc:Agent>
      <dc:title>Matplotlib v3.10.3, https://matplotlib.org/</dc:title>
     </cc:Agent>
    </dc:creator>
   </cc:Work>
  </rdf:RDF>
 </metadata>
 <defs>
  <style type="text/css">*{stroke-linejoin: round; stroke-linecap: butt}</style>
 </defs>
 <g id="figure_1">
  <g id="patch_1">
   <path d="M 0 482.479625 
L 770.959625 482.479625 
L 770.959625 0 
L 0 0 
z
" style="fill: #ffffff"/>
  </g>
  <g id="axes_1">
   <g id="patch_2">
    <path d="M 78.265625 356.762438 
L 734.959625 356.762438 
L 734.959625 49.598437 
L 78.265625 49.598437 
z
" style="fill: #ffffff"/>
   </g>
   <g id="matplotlib.axis_1">
    <g id="xtick_1">
     <g id="text_1">
      <text style="font-size: 10px; font-family: 'Arial', 'DejaVu Sans', 'Liberation Sans', 'Bitstream Vera Sans', sans-serif; fill: #262626" transform="translate(245.1985 427.735875) rotate(-90)">immune cell</text>
     </g>
    </g>
    <g id="xtick_2">
     <g id="text_2">
      <text style="font-size: 10px; font-family: 'Arial', 'DejaVu Sans', 'Liberation Sans', 'Bitstream Vera Sans', sans-serif; fill: #262626" transform="translate(573.5455 432.8015) rotate(-90)">epithelial cell</text>
     </g>
    </g>
    <g id="text_3">
     <text style="font-size: 10px; font-family: 'Arial', 'DejaVu Sans', 'Liberation Sans', 'Bitstream Vera Sans', sans-serif; text-anchor: middle; fill: #262626" x="406.612625" y="444.399938" transform="rotate(-0 406.612625 444.399938)">Level One Cell Type</text>
    </g>
   </g>
   <g id="matplotlib.axis_2">
    <g id="ytick_1">
     <g id="line2d_1">
      <path d="M 78.265625 342.800437 
L 734.959625 342.800437 
" clip-path="url(#pe41aae1fec)" style="fill: none; stroke: #cccccc; stroke-width: 2; stroke-linecap: round"/>
     </g>
     <g id="text_4">
      <text style="font-size: 10px; font-family: 'Arial', 'DejaVu Sans', 'Liberation Sans', 'Bitstream Vera Sans', sans-serif; text-anchor: end; fill: #262626" x="68.765625" y="346.599656" transform="rotate(-0 68.765625 346.599656)">0</text>
     </g>
    </g>
    <g id="ytick_2">
     <g id="line2d_2">
      <path d="M 78.265625 299.309542 
L 734.959625 299.309542 
" clip-path="url(#pe41aae1fec)" style="fill: none; stroke: #cccccc; stroke-width: 2; stroke-linecap: round"/>
     </g>
     <g id="text_5">
      <text style="font-size: 10px; font-family: 'Arial', 'DejaVu Sans', 'Liberation Sans', 'Bitstream Vera Sans', sans-serif; text-anchor: end; fill: #262626" x="68.765625" y="303.10876" transform="rotate(-0 68.765625 303.10876)">20</text>
     </g>
    </g>
    <g id="ytick_3">
     <g id="line2d_3">
      <path d="M 78.265625 255.818646 
L 734.959625 255.818646 
" clip-path="url(#pe41aae1fec)" style="fill: none; stroke: #cccccc; stroke-width: 2; stroke-linecap: round"/>
     </g>
     <g id="text_6">
      <text style="font-size: 10px; font-family: 'Arial', 'DejaVu Sans', 'Liberation Sans', 'Bitstream Vera Sans', sans-serif; text-anchor: end; fill: #262626" x="68.765625" y="259.617865" transform="rotate(-0 68.765625 259.617865)">40</text>
     </g>
    </g>
    <g id="ytick_4">
     <g id="line2d_4">
      <path d="M 78.265625 212.32775 
L 734.959625 212.32775 
" clip-path="url(#pe41aae1fec)" style="fill: none; stroke: #cccccc; stroke-width: 2; stroke-linecap: round"/>
     </g>
     <g id="text_7">
      <text style="font-size: 10px; font-family: 'Arial', 'DejaVu Sans', 'Liberation Sans', 'Bitstream Vera Sans', sans-serif; text-anchor: end; fill: #262626" x="68.765625" y="216.126969" transform="rotate(-0 68.765625 216.126969)">60</text>
     </g>
    </g>
    <g id="ytick_5">
     <g id="line2d_5">
      <path d="M 78.265625 168.836854 
L 734.959625 168.836854 
" clip-path="url(#pe41aae1fec)" style="fill: none; stroke: #cccccc; stroke-width: 2; stroke-linecap: round"/>
     </g>
     <g id="text_8">
      <text style="font-size: 10px; font-family: 'Arial', 'DejaVu Sans', 'Liberation Sans', 'Bitstream Vera Sans', sans-serif; text-anchor: end; fill: #262626" x="68.765625" y="172.636073" transform="rotate(-0 68.765625 172.636073)">80</text>
     </g>
    </g>
    <g id="ytick_6">
     <g id="line2d_6">
      <path d="M 78.265625 125.345958 
L 734.959625 125.345958 
" clip-path="url(#pe41aae1fec)" style="fill: none; stroke: #cccccc; stroke-width: 2; stroke-linecap: round"/>
     </g>
     <g id="text_9">
      <text style="font-size: 10px; font-family: 'Arial', 'DejaVu Sans', 'Liberation Sans', 'Bitstream Vera Sans', sans-serif; text-anchor: end; fill: #262626" x="68.765625" y="129.145177" transform="rotate(-0 68.765625 129.145177)">100</text>
     </g>
    </g>
    <g id="ytick_7">
     <g id="line2d_7">
      <path d="M 78.265625 81.855063 
L 734.959625 81.855063 
" clip-path="url(#pe41aae1fec)" style="fill: none; stroke: #cccccc; stroke-width: 2; stroke-linecap: round"/>
     </g>
     <g id="text_10">
      <text style="font-size: 10px; font-family: 'Arial', 'DejaVu Sans', 'Liberation Sans', 'Bitstream Vera Sans', sans-serif; text-anchor: end; fill: #262626" x="68.765625" y="85.654281" transform="rotate(-0 68.765625 85.654281)">120</text>
     </g>
    </g>
    <g id="text_11">
     <text style="font-size: 10px; font-family: 'Arial', 'DejaVu Sans', 'Liberation Sans', 'Bitstream Vera Sans', sans-serif; text-anchor: middle; fill: #262626" x="43.598437" y="203.180437" transform="rotate(-90 43.598437 203.180437)">Distance (μm)</text>
    </g>
   </g>
   <g id="FillBetweenPolyCollection_1">
    <defs>
     <path id="m3a6cc7c5e7" d="M 264.982484 -139.679188 
L 219.895766 -139.679188 
L 184.213529 -142.499794 
L 141.379397 -145.3204 
L 114.288304 -148.141006 
L 111.100325 -150.961612 
L 122.511173 -153.782218 
L 139.486552 -156.602824 
L 157.749469 -159.42343 
L 174.688705 -162.244036 
L 188.136156 -165.064642 
L 198.152417 -167.885248 
L 206.434351 -170.705854 
L 213.400127 -173.52646 
L 218.702273 -176.347066 
L 222.460275 -179.167672 
L 225.26343 -181.988278 
L 227.401901 -184.808884 
L 229.148083 -187.629491 
L 230.844796 -190.450097 
L 232.529135 -193.270703 
L 234.001427 -196.091309 
L 235.114087 -198.911915 
L 235.936792 -201.732521 
L 236.627102 -204.553127 
L 237.265466 -207.373733 
L 237.992445 -210.194339 
L 238.753559 -213.014945 
L 239.27863 -215.835551 
L 239.533883 -218.656157 
L 239.690311 -221.476763 
L 239.779288 -224.297369 
L 239.743255 -227.117975 
L 239.814225 -229.938581 
L 240.206416 -232.759188 
L 240.656062 -235.579794 
L 240.769431 -238.4004 
L 240.684782 -241.221006 
L 240.852436 -244.041612 
L 241.205984 -246.862218 
L 241.475771 -249.682824 
L 241.558229 -252.50343 
L 241.469841 -255.324036 
L 241.463797 -258.144642 
L 241.599762 -260.965248 
L 241.619339 -263.785854 
L 241.527978 -266.60646 
L 241.594375 -269.427066 
L 241.798296 -272.247672 
L 241.909191 -275.068278 
L 241.953547 -277.888884 
L 242.078698 -280.709491 
L 242.213682 -283.530097 
L 242.286831 -286.350703 
L 242.314389 -289.171309 
L 242.315162 -291.991915 
L 242.306895 -294.812521 
L 242.310185 -297.633127 
L 242.337083 -300.453733 
L 242.37961 -303.274339 
L 242.398337 -306.094945 
L 242.381567 -308.915551 
L 242.34849 -311.736157 
L 242.324363 -314.556763 
L 242.328107 -317.377369 
L 242.348256 -320.197975 
L 242.375351 -323.018581 
L 242.402833 -325.839188 
L 242.425836 -328.659794 
L 242.436644 -331.4804 
L 242.438911 -334.301006 
L 242.439117 -337.121612 
L 242.439125 -339.942218 
L 242.439125 -342.762824 
L 242.439125 -345.58343 
L 242.439125 -348.404036 
L 242.439125 -351.224642 
L 242.439125 -354.045248 
L 242.439125 -356.865854 
L 242.439125 -359.68646 
L 242.439125 -362.507066 
L 242.43912 -365.327672 
L 242.438992 -368.148278 
L 242.437394 -370.968884 
L 242.429062 -373.789491 
L 242.413078 -376.610097 
L 242.408987 -379.430703 
L 242.421999 -382.251309 
L 242.425233 -385.071915 
L 242.409194 -387.892521 
L 242.393153 -390.713127 
L 242.389808 -393.533733 
L 242.393582 -396.354339 
L 242.398497 -399.174945 
L 242.411951 -401.995551 
L 242.429358 -404.816157 
L 242.435872 -407.636763 
L 242.428549 -410.457369 
L 242.407326 -413.277975 
L 242.387986 -416.098581 
L 242.391894 -418.919188 
L 242.486356 -418.919188 
L 242.486356 -418.919188 
L 242.490264 -416.098581 
L 242.470924 -413.277975 
L 242.449701 -410.457369 
L 242.442378 -407.636763 
L 242.448892 -404.816157 
L 242.466299 -401.995551 
L 242.479753 -399.174945 
L 242.484668 -396.354339 
L 242.488442 -393.533733 
L 242.485097 -390.713127 
L 242.469056 -387.892521 
L 242.453017 -385.071915 
L 242.456251 -382.251309 
L 242.469263 -379.430703 
L 242.465172 -376.610097 
L 242.449188 -373.789491 
L 242.440856 -370.968884 
L 242.439258 -368.148278 
L 242.43913 -365.327672 
L 242.439125 -362.507066 
L 242.439125 -359.68646 
L 242.439125 -356.865854 
L 242.439125 -354.045248 
L 242.439125 -351.224642 
L 242.439125 -348.404036 
L 242.439125 -345.58343 
L 242.439125 -342.762824 
L 242.439125 -339.942218 
L 242.439133 -337.121612 
L 242.439339 -334.301006 
L 242.441606 -331.4804 
L 242.452414 -328.659794 
L 242.475417 -325.839188 
L 242.502899 -323.018581 
L 242.529994 -320.197975 
L 242.550143 -317.377369 
L 242.553887 -314.556763 
L 242.52976 -311.736157 
L 242.496683 -308.915551 
L 242.479913 -306.094945 
L 242.49864 -303.274339 
L 242.541167 -300.453733 
L 242.568065 -297.633127 
L 242.571355 -294.812521 
L 242.563088 -291.991915 
L 242.563861 -289.171309 
L 242.591419 -286.350703 
L 242.664568 -283.530097 
L 242.799552 -280.709491 
L 242.924703 -277.888884 
L 242.969059 -275.068278 
L 243.079954 -272.247672 
L 243.283875 -269.427066 
L 243.350272 -266.60646 
L 243.258911 -263.785854 
L 243.278488 -260.965248 
L 243.414453 -258.144642 
L 243.408409 -255.324036 
L 243.320021 -252.50343 
L 243.402479 -249.682824 
L 243.672266 -246.862218 
L 244.025814 -244.041612 
L 244.193468 -241.221006 
L 244.108819 -238.4004 
L 244.222188 -235.579794 
L 244.671834 -232.759188 
L 245.064025 -229.938581 
L 245.134995 -227.117975 
L 245.098962 -224.297369 
L 245.187939 -221.476763 
L 245.344367 -218.656157 
L 245.59962 -215.835551 
L 246.124691 -213.014945 
L 246.885805 -210.194339 
L 247.612784 -207.373733 
L 248.251148 -204.553127 
L 248.941458 -201.732521 
L 249.764163 -198.911915 
L 250.876823 -196.091309 
L 252.349115 -193.270703 
L 254.033454 -190.450097 
L 255.730167 -187.629491 
L 257.476349 -184.808884 
L 259.61482 -181.988278 
L 262.417975 -179.167672 
L 266.175977 -176.347066 
L 271.478123 -173.52646 
L 278.443899 -170.705854 
L 286.725833 -167.885248 
L 296.742094 -165.064642 
L 310.189545 -162.244036 
L 327.128781 -159.42343 
L 345.391698 -156.602824 
L 362.367077 -153.782218 
L 373.777925 -150.961612 
L 370.589946 -148.141006 
L 343.498853 -145.3204 
L 300.664721 -142.499794 
L 264.982484 -139.679188 
z
" style="stroke: #6d6d6d; stroke-opacity: 0.9; stroke-width: 1.25"/>
    </defs>
    <g clip-path="url(#pe41aae1fec)">
     <use xlink:href="#m3a6cc7c5e7" x="0" y="482.479625" style="fill: #ecbd81; fill-opacity: 0.9; stroke: #6d6d6d; stroke-opacity: 0.9; stroke-width: 1.25"/>
    </g>
   </g>
   <g id="FillBetweenPolyCollection_2">
    <defs>
     <path id="mad73449819" d="M 578.443554 -139.716155 
L 563.128696 -139.716155 
L 554.540255 -141.52954 
L 542.070671 -143.342926 
L 526.394946 -145.156311 
L 508.905208 -146.969697 
L 491.723413 -148.783082 
L 476.828617 -150.596468 
L 465.048217 -152.409853 
L 456.600898 -154.223239 
L 451.830215 -156.036624 
L 450.953038 -157.85001 
L 454.033241 -159.663395 
L 460.906672 -161.476781 
L 470.620279 -163.290166 
L 481.588671 -165.103552 
L 492.227618 -166.916937 
L 501.337118 -168.730323 
L 508.757341 -170.543708 
L 515.453519 -172.357094 
L 522.365619 -174.170479 
L 529.567264 -175.983865 
L 536.392433 -177.79725 
L 542.239775 -179.610636 
L 547.147926 -181.424021 
L 551.169592 -183.237407 
L 554.139344 -185.050792 
L 556.275276 -186.864178 
L 558.089625 -188.677563 
L 559.920145 -190.490949 
L 561.746363 -192.304334 
L 563.239288 -194.11772 
L 564.133643 -195.931105 
L 564.648363 -197.744491 
L 565.248043 -199.557876 
L 566.024717 -201.371262 
L 566.709826 -203.184647 
L 567.174222 -204.998033 
L 567.566513 -206.811418 
L 567.971439 -208.624804 
L 568.247668 -210.438189 
L 568.290737 -212.251575 
L 568.20142 -214.06496 
L 568.14374 -215.878346 
L 568.214207 -217.691731 
L 568.457814 -219.505117 
L 568.831622 -221.318502 
L 569.164721 -223.131888 
L 569.320861 -224.945273 
L 569.333842 -226.758659 
L 569.308802 -228.572044 
L 569.311645 -230.38543 
L 569.32409 -232.198815 
L 569.2665 -234.012201 
L 569.16884 -235.825586 
L 569.184256 -237.638972 
L 569.351199 -239.452357 
L 569.542056 -241.265743 
L 569.660555 -243.079128 
L 569.712527 -244.892514 
L 569.710137 -246.705899 
L 569.651288 -248.519285 
L 569.591217 -250.33267 
L 569.604022 -252.146056 
L 569.656598 -253.959441 
L 569.680861 -255.772827 
L 569.718813 -257.586212 
L 569.837779 -259.399598 
L 570.003588 -261.212983 
L 570.155999 -263.026369 
L 570.288967 -264.839754 
L 570.389722 -266.65314 
L 570.432645 -268.466525 
L 570.423682 -270.279911 
L 570.399052 -272.093296 
L 570.409632 -273.906682 
L 570.465103 -275.720067 
L 570.521162 -277.533453 
L 570.553915 -279.346838 
L 570.579814 -281.160224 
L 570.617686 -282.973609 
L 570.667056 -284.786995 
L 570.707323 -286.60038 
L 570.726612 -288.413766 
L 570.728137 -290.227151 
L 570.701218 -292.040537 
L 570.641876 -293.853922 
L 570.595614 -295.667308 
L 570.613332 -297.480693 
L 570.674704 -299.294079 
L 570.720834 -301.107464 
L 570.737249 -302.92085 
L 570.748577 -304.734235 
L 570.765205 -306.547621 
L 570.777848 -308.361006 
L 570.779238 -310.174392 
L 570.764869 -311.987777 
L 570.73159 -313.801163 
L 570.693423 -315.614548 
L 570.679524 -317.427934 
L 570.700332 -319.241319 
L 570.871918 -319.241319 
L 570.871918 -319.241319 
L 570.892726 -317.427934 
L 570.878827 -315.614548 
L 570.84066 -313.801163 
L 570.807381 -311.987777 
L 570.793012 -310.174392 
L 570.794402 -308.361006 
L 570.807045 -306.547621 
L 570.823673 -304.734235 
L 570.835001 -302.92085 
L 570.851416 -301.107464 
L 570.897546 -299.294079 
L 570.958918 -297.480693 
L 570.976636 -295.667308 
L 570.930374 -293.853922 
L 570.871032 -292.040537 
L 570.844113 -290.227151 
L 570.845638 -288.413766 
L 570.864927 -286.60038 
L 570.905194 -284.786995 
L 570.954564 -282.973609 
L 570.992436 -281.160224 
L 571.018335 -279.346838 
L 571.051088 -277.533453 
L 571.107147 -275.720067 
L 571.162618 -273.906682 
L 571.173198 -272.093296 
L 571.148568 -270.279911 
L 571.139605 -268.466525 
L 571.182528 -266.65314 
L 571.283283 -264.839754 
L 571.416251 -263.026369 
L 571.568662 -261.212983 
L 571.734471 -259.399598 
L 571.853437 -257.586212 
L 571.891389 -255.772827 
L 571.915652 -253.959441 
L 571.968228 -252.146056 
L 571.981033 -250.33267 
L 571.920962 -248.519285 
L 571.862113 -246.705899 
L 571.859723 -244.892514 
L 571.911695 -243.079128 
L 572.030194 -241.265743 
L 572.221051 -239.452357 
L 572.387994 -237.638972 
L 572.40341 -235.825586 
L 572.30575 -234.012201 
L 572.24816 -232.198815 
L 572.260605 -230.38543 
L 572.263448 -228.572044 
L 572.238408 -226.758659 
L 572.251389 -224.945273 
L 572.407529 -223.131888 
L 572.740628 -221.318502 
L 573.114436 -219.505117 
L 573.358043 -217.691731 
L 573.42851 -215.878346 
L 573.37083 -214.06496 
L 573.281513 -212.251575 
L 573.324582 -210.438189 
L 573.600811 -208.624804 
L 574.005737 -206.811418 
L 574.398028 -204.998033 
L 574.862424 -203.184647 
L 575.547533 -201.371262 
L 576.324207 -199.557876 
L 576.923887 -197.744491 
L 577.438607 -195.931105 
L 578.332962 -194.11772 
L 579.825887 -192.304334 
L 581.652105 -190.490949 
L 583.482625 -188.677563 
L 585.296974 -186.864178 
L 587.432906 -185.050792 
L 590.402658 -183.237407 
L 594.424324 -181.424021 
L 599.332475 -179.610636 
L 605.179817 -177.79725 
L 612.004986 -175.983865 
L 619.206631 -174.170479 
L 626.118731 -172.357094 
L 632.814909 -170.543708 
L 640.235132 -168.730323 
L 649.344632 -166.916937 
L 659.983579 -165.103552 
L 670.951971 -163.290166 
L 680.665578 -161.476781 
L 687.539009 -159.663395 
L 690.619212 -157.85001 
L 689.742035 -156.036624 
L 684.971352 -154.223239 
L 676.524033 -152.409853 
L 664.743633 -150.596468 
L 649.848837 -148.783082 
L 632.667042 -146.969697 
L 615.177304 -145.156311 
L 599.501579 -143.342926 
L 587.031995 -141.52954 
L 578.443554 -139.716155 
z
" style="stroke: #6d6d6d; stroke-opacity: 0.9; stroke-width: 1.25"/>
    </defs>
    <g clip-path="url(#pe41aae1fec)">
     <use xlink:href="#mad73449819" x="0" y="482.479625" style="fill: #c0dca9; fill-opacity: 0.9; stroke: #6d6d6d; stroke-opacity: 0.9; stroke-width: 1.25"/>
    </g>
   </g>
   <g id="line2d_8">
    <path d="M 242.439125 342.800437 
L 242.439125 289.752408 
" clip-path="url(#pe41aae1fec)" style="fill: none; stroke: #6d6d6d; stroke-width: 1.875; stroke-linecap: round"/>
   </g>
   <g id="line2d_9">
    <path d="M 242.439125 333.447367 
L 242.439125 315.963245 
" clip-path="url(#pe41aae1fec)" style="fill: none; stroke: #6d6d6d; stroke-width: 5.625; stroke-linecap: round"/>
   </g>
   <g id="line2d_10">
    <path d="M 242.439125 326.982757 
" clip-path="url(#pe41aae1fec)" style="fill: none; stroke: #6d6d6d; stroke-width: 1.5; stroke-linecap: round"/>
    <defs>
     <path id="m914119a1f2" d="M 2.34375 0 
L -2.34375 -0 
" style="stroke: #ffffff; stroke-width: 1.125"/>
    </defs>
    <g clip-path="url(#pe41aae1fec)">
     <use xlink:href="#m914119a1f2" x="242.439125" y="326.982757" style="fill: #ffffff; stroke: #ffffff; stroke-width: 1.125"/>
    </g>
   </g>
   <g id="line2d_11">
    <path d="M 570.786125 342.76347 
L 570.786125 288.385185 
" clip-path="url(#pe41aae1fec)" style="fill: none; stroke: #6d6d6d; stroke-width: 1.875; stroke-linecap: round"/>
   </g>
   <g id="line2d_12">
    <path d="M 570.786125 328.758406 
L 570.786125 312.60906 
" clip-path="url(#pe41aae1fec)" style="fill: none; stroke: #6d6d6d; stroke-width: 5.625; stroke-linecap: round"/>
   </g>
   <g id="line2d_13">
    <path d="M 570.786125 321.967817 
" clip-path="url(#pe41aae1fec)" style="fill: none; stroke: #6d6d6d; stroke-width: 1.5; stroke-linecap: round"/>
    <g clip-path="url(#pe41aae1fec)">
     <use xlink:href="#m914119a1f2" x="570.786125" y="321.967817" style="fill: #ffffff; stroke: #ffffff; stroke-width: 1.125"/>
    </g>
   </g>
   <g id="patch_3">
    <path d="M 78.265625 356.762437 
L 78.265625 49.598437 
" style="fill: none; stroke: #cccccc; stroke-width: 1.25; stroke-linejoin: miter; stroke-linecap: square"/>
   </g>
   <g id="patch_4">
    <path d="M 734.959625 356.762437 
L 734.959625 49.598437 
" style="fill: none; stroke: #cccccc; stroke-width: 1.25; stroke-linejoin: miter; stroke-linecap: square"/>
   </g>
   <g id="patch_5">
    <path d="M 78.265625 356.762438 
L 734.959625 356.762438 
" style="fill: none; stroke: #cccccc; stroke-width: 1.25; stroke-linejoin: miter; stroke-linecap: square"/>
   </g>
   <g id="patch_6">
    <path d="M 78.265625 49.598437 
L 734.959625 49.598437 
" style="fill: none; stroke: #cccccc; stroke-width: 1.25; stroke-linejoin: miter; stroke-linecap: square"/>
   </g>
   <g id="text_12">
    <text style="font-size: 10px; font-family: 'Arial', 'DejaVu Sans', 'Liberation Sans', 'Bitstream Vera Sans', sans-serif; text-anchor: middle; fill: #262626" x="406.612625" y="43.598437" transform="rotate(-0 406.612625 43.598437)">Violin Plot of distances by Level One Cell Type (Density Normalization: area)</text>
   </g>
   <g id="legend_1">
    <g id="patch_7">
     <path d="M 723.959625 62.598437 
L 727.959625 62.598437 
Q 729.959625 62.598437 729.959625 60.598437 
L 729.959625 56.598437 
Q 729.959625 54.598437 727.959625 54.598437 
L 723.959625 54.598437 
Q 721.959625 54.598437 721.959625 56.598437 
L 721.959625 60.598437 
Q 721.959625 62.598437 723.959625 62.598437 
z
" style="fill: #ffffff; opacity: 0.8; stroke: #cccccc; stroke-width: 0.8; stroke-linejoin: miter"/>
    </g>
   </g>
  </g>
 </g>
 <defs>
  <clipPath id="pe41aae1fec">
   <rect x="78.265625" y="49.598437" width="656.694" height="307.164"/>
  </clipPath>
 </defs>
</svg>
